<svg xmlns="http://www.w3.org/2000/svg" width="105" height="102" viewBox="0 0 105 102"><g transform="translate(-495 -3178)"><rect width="105" height="102" transform="translate(495 3178)" fill="#adce32"/><g transform="translate(-615.085 3125.323)"><path d="M1160.231,135.458c-.159.741-.408.966-1.135.966q-12.918,0-25.835,0a2.163,2.163,0,0,1-2.243-2.256q-.011-9.852,0-19.7a2.189,2.189,0,0,1,2.227-2.278c.537-.017,1.076,0,1.723,0a6.71,6.71,0,0,1-1.317-2.585,5.758,5.758,0,0,1,4.182-6.894c.451-.12.559-.3.527-.715a4.261,4.261,0,0,0-.05-1.3c-.172-.386-.734-.18-1.115-.3a3.416,3.416,0,0,1-2.43-3.152q-.027-9.039,0-18.078a3.362,3.362,0,0,1,3.461-3.3q7.319-.018,14.638,0a9.146,9.146,0,0,1,9.053,7.244c.123.5.25,1.007.376,1.515.262-.034.36-.237.5-.376,2.32-2.31,4.631-4.628,6.956-6.933a1.594,1.594,0,0,0,.506-1.013,4.354,4.354,0,0,1,8.595-.492,1.583,1.583,0,0,0,.471.778q6.376,6.362,12.744,12.734a7.421,7.421,0,0,1-8.194,12.1c-.2-.09-.407-.179-.667-.293,0,.739,0,1.421,0,2.1a4.987,4.987,0,0,1-5.34,5.157,4.935,4.935,0,0,1-4.537-5.748,14.042,14.042,0,0,1,3-7.1,10.412,10.412,0,0,1,8.55-3.763h.548l.141-.159c-.559-.509-1.126-1.012-1.676-1.531-.409-.386-.774-.823-1.2-1.186a1.223,1.223,0,0,1-.357-1.655c.814-.389,1.05-.351,1.693.291q1.739,1.734,3.474,3.472c.94.94.94.94,1.814-.143.916-.746.917-.747.116-1.545q-4.978-4.954-9.957-9.907c-.891-.887-.89-.889-1.541.194a3.358,3.358,0,0,1-.56.484c-.455.248-.38.439-.048.76,1.19,1.153,2.354,2.334,3.523,3.509a1.089,1.089,0,0,1,.22,1.642,1.121,1.121,0,0,1-1.549-.269c-1.4-1.431-2.841-2.822-4.232-4.261-.342-.354-.5-.289-.8.021q-4.961,4.994-9.958,9.949a.968.968,0,0,0-.283,1.089c.346,1.306.694,2.616.949,3.942a3.359,3.359,0,0,1-3.286,4.019c-.61,0-.7.208-.686.737.034,1.225.01,1.226,1.121,1.65a5.773,5.773,0,0,1,2.627,8.8c-.1.132-.193.262-.37.5.451,0,.811,0,1.17,0a2.314,2.314,0,0,1,2.538,2.272,28.575,28.575,0,0,0,2.145,7.472c.11.244.24.479.393.781a16.9,16.9,0,0,1,3.841-3.774c.222-.158.2-.318.148-.534-.239-1.055-.462-2.114-.7-3.17-.251-1.115.073-1.544,1.193-1.545q3.316,0,6.632,0c1.045,0,1.4.453,1.168,1.459-.25,1.074-.495,2.149-.749,3.222-.05.209-.106.39.119.551a17.152,17.152,0,0,1,3.865,3.792,24.767,24.767,0,0,0,2.091-5.962c.193-.852.345-1.714.494-2.575a2.223,2.223,0,0,1,2.212-1.983c.583-.026,1.169-.026,1.752,0a2.183,2.183,0,0,1,2.171,2.27q.01,9.854,0,19.707a2.168,2.168,0,0,1-2.242,2.258q-14.8.01-29.593,0c-.728,0-.973-.218-1.14-.963.22-.768.414-.913,1.248-.914q14.283,0,28.565-.005c1.274,0,1.353.331,1.264-1.374.008-.25.022-.5.022-.749q0-8.536,0-17.071c0-1.347.173-1.3-1.266-1.294-1.08,0-1.057.005-1.239,1.048a27,27,0,0,1-3.423,9.78,10.755,10.755,0,0,1-5.5,4.792,9.461,9.461,0,0,1-11.011-3.573c-2.525-3.355-3.627-7.266-4.316-11.323-.093-.551-.29-.733-.836-.732q-15.978.017-31.955,0c-.61,0-.78.206-.778.8.019,5.941.011,11.881.012,17.822,0,.166.015.333.022.5-.089,1.705-.011,1.373,1.262,1.374q12.4.014,24.8.005C1159.82,134.548,1160.016,134.694,1160.231,135.458Zm20.541-18.556a6.528,6.528,0,0,1,.214-.845c.184-.468-.038-.511-.425-.5-1.042.018-2.084.006-3.126.006-1.4,0-1.4,0-.979,1.345.047.265.109.529.138.8.045.432.248.585.7.553.622-.045,1.249-.011,1.875-.011C1180.5,118.241,1180.5,118.241,1180.772,116.9Zm-3.729-39.913a4.437,4.437,0,0,0,.016-.559,2.506,2.506,0,0,0-2.847-2.168,2.5,2.5,0,0,0,.35,4.962A2.464,2.464,0,0,0,1177.043,76.989Zm-5.584,2.844c-.047-.069-.092-.139-.142-.206-.528-.7-.528-.7-1.131-.095-2.2,2.2-4.367,4.421-6.609,6.571a1.436,1.436,0,0,0-.415,1.9,9.507,9.507,0,0,0,.447,1.709c.189-.18.34-.318.484-.462l7.914-7.911c.617-.617.617-.617-.05-1.13C1171.791,80.082,1171.624,79.958,1171.458,79.833Zm-31.192,22.056c-.144.5.037.642.549.629,1.352-.034,2.705.008,4.057-.02a1.08,1.08,0,0,1,1.263.918c-.233.819-.426.971-1.268.973-1.869,0-3.739-.011-5.608,0a3.849,3.849,0,0,0-3.715,4.873,3.745,3.745,0,0,0,3.493,2.884q10.752.027,21.5,0a3.726,3.726,0,0,0,3.486-2.883,4.438,4.438,0,0,0,.142-.667,3.879,3.879,0,0,0-3.941-4.208c-3.668-.009-7.335,0-11,0-.818,0-1.111-.249-1.222-1,.1-.663.517-.883,1.143-.882,3.2.008,6.41-.008,9.614.015.51,0,.7-.13.548-.629.011-.165.031-.331.032-.5.008-.874.006-.874-.9-.874h-16.938C1140.16,100.518,1140.16,100.518,1140.267,101.888Zm44.292-3.524a3.362,3.362,0,0,0-.806.835c3.134,2.179,7.683.519,8.449-3.066a5.232,5.232,0,0,0-.565-4.364c-.118-.207-.21-.325-.447-.085Q1187.884,95.034,1184.559,98.364Zm-3.371,5.777a2.041,2.041,0,0,0,.135-.919c0-1.209.014-2.418-.007-3.627a1.524,1.524,0,0,1,.506-1.211c1.42-1.38,2.812-2.79,4.209-4.194.106-.107.3-.185.221-.41-.246-.027-.494-.062-.742-.081a8.643,8.643,0,0,0-7.872,3.2,12.367,12.367,0,0,0-2.327,5.266,4.259,4.259,0,0,0,.027,2.393,3.135,3.135,0,0,0,3.224,1.958A2.983,2.983,0,0,0,1181.188,104.141Zm3.758,19.9a14.064,14.064,0,0,0-3.82-3.8.931.931,0,0,0-.594-.126q-1.935,0-3.869,0a.931.931,0,0,0-.6.124,14.137,14.137,0,0,0-3.783,3.745c-.177.231-.485.4-.192.779a8.8,8.8,0,0,0,3.732,3.033c3.23,1.256,6.823.36,9.273-3.025C1185.346,124.43,1185.147,124.253,1184.946,124.04Zm-23.439-34.676c-.5-2.057-.949-4.131-1.527-6.167a6.921,6.921,0,0,0-6-5.348,55.343,55.343,0,0,0-6.548-.113c-.263-.007-.307.112-.306.337q.021,5.4.032,10.8c-.046,1.184.538,1.786,1.781,1.788q5.782.012,11.564,0C1161.879,90.668,1161.879,90.668,1161.507,89.364Zm1.821,7.511c-.194-1.278-.619-2.5-.869-3.766-.1-.482-.314-.575-.758-.574-4.232.015-8.465-.042-12.7.03a3.619,3.619,0,0,1-3.775-3.8c.085-3.48.014-6.963.033-10.445,0-.46-.1-.6-.584-.6-2.043.028-4.086.011-6.13.013-1.372,0-1.916.551-1.916,1.941q0,8.287,0,16.575c0,.208.018.416.027.623a1.547,1.547,0,0,0,1.758,1.758q11.6,0,23.2,0a3.342,3.342,0,0,0,.375-.009A1.5,1.5,0,0,0,1163.327,96.875Z" fill="#020202"/><path d="M1165.845,317.194c-.215-.764-.411-.91-1.248-.91q-12.4,0-24.8-.005c-1.273,0-1.351.331-1.262-1.374h60.265c.089,1.705.01,1.373-1.264,1.374q-14.283.013-28.565.005c-.834,0-1.028.146-1.248.914A10.134,10.134,0,0,0,1165.845,317.194Z" transform="translate(-5.614 -181.736)" fill="#916c58"/><path d="M1326.9,112.553c-.874,1.084-.874,1.084-1.814.143q-1.736-1.736-3.474-3.472c-.644-.642-.88-.68-1.693-.291a9.851,9.851,0,0,1-1.266-1.243,1.089,1.089,0,0,0-.22-1.642c-1.169-1.175-2.332-2.356-3.523-3.509-.332-.321-.407-.512.048-.76a3.368,3.368,0,0,0,.56-.484c.186.164.382.317.557.492q5.16,5.153,10.317,10.311C1326.555,112.258,1326.732,112.4,1326.9,112.553Z" transform="translate(-137.59 -21.682)" fill="#3e4d62"/><path d="M1198.767,257.754H1138.5c-.008-.166-.022-.332-.022-.5,0-5.94.006-11.881-.013-17.822,0-.6.168-.8.778-.8q15.977.021,31.955,0c.546,0,.743.181.836.732.689,4.056,1.79,7.968,4.316,11.323a9.461,9.461,0,0,0,11.011,3.573,10.755,10.755,0,0,0,5.5-4.792,26.993,26.993,0,0,0,3.423-9.78c.182-1.043.159-1.044,1.239-1.048,1.439-.005,1.265-.054,1.266,1.294q0,8.535,0,17.071C1198.789,257.255,1198.775,257.5,1198.767,257.754Z" transform="translate(-5.587 -124.586)" fill="#a27b66"/><path d="M1153.456,112.928c-.01-.208-.027-.415-.028-.623q0-8.288,0-16.575c0-1.391.544-1.941,1.916-1.941,2.043,0,4.087.016,6.13-.013.479-.007.586.136.583.6-.019,3.481.052,6.965-.033,10.445a3.619,3.619,0,0,0,3.775,3.8c4.231-.072,8.464-.015,12.7-.03.444,0,.662.092.758.574.25,1.263.676,2.488.869,3.766a4.252,4.252,0,0,1-2.212.513q-10.744-.011-21.489,0A5.962,5.962,0,0,1,1153.456,112.928Z" transform="translate(-16.795 -16.049)" fill="#d46b70"/><path d="M1161.144,196.112c.11.754.4,1,1.222,1,3.668,0,7.336,0,11,0a3.879,3.879,0,0,1,3.941,4.208,4.438,4.438,0,0,1-.142.667.654.654,0,0,0-.415.253,4.871,4.871,0,0,1-3.5,1.373q-10.253.014-20.507,0a5.281,5.281,0,0,1-3.056-.912c-.339-.233-.594-.585-1-.713a3.849,3.849,0,0,1,3.715-4.873c1.869-.015,3.738,0,5.607,0,.842,0,1.036-.154,1.268-.973A12.632,12.632,0,0,0,1161.144,196.112Zm-5.94,6.661a1.768,1.768,0,1,0-1.781-1.784A1.8,1.8,0,0,0,1155.2,202.773ZM1164.7,201a1.769,1.769,0,1,0-3.538.015A1.769,1.769,0,0,0,1164.7,201Zm5.964,1.77a1.768,1.768,0,1,0-1.833-1.738A1.789,1.789,0,0,0,1170.66,202.773Z" transform="translate(-13.14 -92.727)" fill="#495d77"/><path d="M1195.329,104.812q-.014-5.4-.032-10.8c0-.225.042-.344.306-.337a55.347,55.347,0,0,1,6.548.113,6.921,6.921,0,0,1,6,5.348c.579,2.036,1.023,4.11,1.527,6.167-4.087,0-8.174,0-12.26.023A3.768,3.768,0,0,1,1195.329,104.812Z" transform="translate(-48.168 -15.936)" fill="#a2c5f4"/><path d="M1295.631,266.72a14.136,14.136,0,0,1,3.783-3.745.93.93,0,0,1,.6-.124q1.934,0,3.869,0a.931.931,0,0,1,.594.126,14.065,14.065,0,0,1,3.82,3.8,8.458,8.458,0,0,1-12.219.6C1295.881,267.19,1295.649,267.026,1295.631,266.72Z" transform="translate(-123.346 -142.732)" fill="#f8de8a"/><path d="M1307.078,167.678a3.978,3.978,0,0,1,.1-1.854,12.372,12.372,0,0,1,2.327-5.266,8.643,8.643,0,0,1,7.872-3.2c.249.019.5.054.742.081.076.225-.115.3-.221.41-1.4,1.4-2.789,2.813-4.209,4.194a1.525,1.525,0,0,0-.506,1.211c.021,1.209.007,2.418.007,3.627a2.043,2.043,0,0,1-.134.919,1.273,1.273,0,0,0-.6.292,3.973,3.973,0,0,1-3.8.516A11.072,11.072,0,0,1,1307.078,167.678Z" transform="translate(-131.868 -63.664)" fill="#a17a66"/><path d="M1149.09,219.572c.411.128.666.481,1,.713a5.281,5.281,0,0,0,3.056.912q10.253.017,20.507,0a4.871,4.871,0,0,0,3.5-1.373.655.655,0,0,1,.415-.253,3.726,3.726,0,0,1-3.486,2.882q-10.752.028-21.5,0A3.745,3.745,0,0,1,1149.09,219.572Z" transform="translate(-13.546 -110.305)" fill="#3e4d62"/><path d="M1153.536,170.15a5.962,5.962,0,0,0,2.965.511q10.745-.022,21.489,0a4.253,4.253,0,0,0,2.212-.513,1.5,1.5,0,0,1-1.334,1.755,3.339,3.339,0,0,1-.375.009q-11.6,0-23.2,0A1.547,1.547,0,0,1,1153.536,170.15Z" transform="translate(-16.876 -73.27)" fill="#ca5058"/><path d="M1344.587,155.727q3.317-3.337,6.63-6.679c.237-.24.329-.123.447.085a5.231,5.231,0,0,1,.565,4.364,6.649,6.649,0,0,1-4.4,2.687A4.8,4.8,0,0,1,1344.587,155.727Z" transform="translate(-160.028 -57.363)" fill="#f8de8a"/><path d="M1167.8,186.047c-.107-1.37-.107-1.37,1.24-1.37h16.938c.9,0,.9,0,.9.874,0,.166-.021.331-.032.5Z" transform="translate(-27.535 -84.159)" fill="#f6ce74"/><path d="M1329.531,110.049c-.17-.151-.347-.295-.508-.455q-5.159-5.155-10.316-10.311c-.175-.175-.371-.328-.557-.492.651-1.083.65-1.082,1.541-.194q4.977,4.954,9.956,9.907C1330.448,109.3,1330.446,109.3,1329.531,110.049Z" transform="translate(-140.219 -19.178)" fill="#475a74"/><path d="M1195.417,138.241a3.769,3.769,0,0,0,2.085.511c4.086-.027,8.173-.019,12.26-.023.372,1.3.372,1.3-1,1.3q-5.782,0-11.564,0C1195.954,140.027,1195.371,139.425,1195.417,138.241Z" transform="translate(-48.256 -49.365)" fill="#89b3f3"/><path d="M1267.537,102.173c.166.125.333.249.5.376.667.513.667.514.05,1.13l-7.914,7.911c-.145.144-.3.283-.484.462a9.507,9.507,0,0,1-.447-1.709c.314-.01.458-.268.645-.453q3.606-3.6,7.2-7.2C1267.249,102.528,1267.388,102.345,1267.537,102.173Z" transform="translate(-96.079 -22.34)" fill="#3e4d62"/><path d="M1294.695,278.286c.018.306.25.47.443.654a8.458,8.458,0,0,0,12.219-.6c.2.213.4.391.151.735-2.449,3.385-6.043,4.281-9.273,3.025a8.8,8.8,0,0,1-3.732-3.033C1294.209,278.686,1294.518,278.517,1294.695,278.286Z" transform="translate(-122.41 -154.299)" fill="#f4cd73"/><path d="M1295.045,82.712a2.431,2.431,0,0,1,2.036-2.849,2.506,2.506,0,0,1,2.847,2.168,4.437,4.437,0,0,1-.016.559,3.717,3.717,0,0,1-3.268.882A8.787,8.787,0,0,1,1295.045,82.712Z" transform="translate(-122.869 -5.6)" fill="#f8de8a"/><path d="M1167.783,190.142h19.042c.148.5-.037.633-.548.629-3.2-.022-6.41-.007-9.614-.015-.626,0-1.047.218-1.143.882a12.6,12.6,0,0,1-1.868.032,1.08,1.08,0,0,0-1.263-.918c-1.352.028-2.706-.015-4.057.02C1167.82,190.785,1167.64,190.638,1167.783,190.142Z" transform="translate(-27.517 -88.254)" fill="#f4db88"/><path d="M1266.941,99.959c-.149.172-.289.355-.449.515q-3.6,3.605-7.2,7.2c-.186.186-.331.443-.645.453a1.436,1.436,0,0,1,.415-1.9c2.242-2.149,4.412-4.374,6.609-6.571.6-.6.6-.6,1.131.095C1266.85,99.82,1266.894,99.891,1266.941,99.959Z" transform="translate(-95.483 -20.127)" fill="#495d77"/><path d="M1342.177,169.42a4.8,4.8,0,0,0,3.246.457,6.649,6.649,0,0,0,4.4-2.687c-.766,3.585-5.314,5.245-8.449,3.066A3.359,3.359,0,0,1,1342.177,169.42Z" transform="translate(-157.619 -71.056)" fill="#f4cd73"/><path d="M1307.3,198.618a11.078,11.078,0,0,0,1.577.936,3.973,3.973,0,0,0,3.8-.516,1.273,1.273,0,0,1,.6-.292,2.984,2.984,0,0,1-2.627,2.37,3.136,3.136,0,0,1-3.225-1.958A4,4,0,0,1,1307.3,198.618Z" transform="translate(-132.09 -94.605)" fill="#916c58"/><path d="M1311.54,245.993c-.418-1.345-.418-1.345.979-1.345,1.042,0,2.084.012,3.126-.006.387-.007.61.036.425.5a6.488,6.488,0,0,0-.214.845Z" transform="translate(-135.085 -129.089)" fill="#f4db88"/><path d="M1312.267,250.027l4.316,0c-.27,1.339-.27,1.339-1.609,1.339-.625,0-1.253-.034-1.875.011-.447.032-.65-.121-.7-.553C1312.376,250.555,1312.314,250.292,1312.267,250.027Z" transform="translate(-135.811 -133.123)" fill="#f4cd73"/><path d="M1295.2,90.953a8.781,8.781,0,0,0,1.6.758,3.718,3.718,0,0,0,3.268-.882,2.464,2.464,0,0,1-2.48,2.236A2.422,2.422,0,0,1,1295.2,90.953Z" transform="translate(-123.022 -13.841)" fill="#f4cd73"/><path d="M1169.772,212.114a1.768,1.768,0,1,1,1.824-1.743A1.786,1.786,0,0,1,1169.772,212.114Z" transform="translate(-27.708 -102.067)" fill="#020202"/><path d="M1202.38,210.346a1.769,1.769,0,0,1-3.538.015,1.769,1.769,0,1,1,3.538-.015Z" transform="translate(-50.824 -102.07)" fill="#020202"/><path d="M1231.261,212.113a1.768,1.768,0,1,1,1.771-1.726A1.8,1.8,0,0,1,1231.261,212.113Z" transform="translate(-73.742 -102.067)" fill="#020202"/></g></g></svg>