<svg xmlns="http://www.w3.org/2000/svg" width="105" height="102" viewBox="0 0 105 102"><g transform="translate(-180 -3178)"><rect width="105" height="102" transform="translate(180 3178)" fill="#adce32"/><g transform="translate(-897.746 2787.905)"><path d="M1133.919,406.494q11.315,0,22.629,0a5.785,5.785,0,0,1,6.185,6.155q0,1.946,0,3.892c0,1.089-.39,1.485-1.464,1.487-2.378,0-4.756.015-7.135-.011-.484-.005-.642.088-.64.613q.032,8.649.007,17.3c0,.389.015.589.521.573a5.12,5.12,0,0,1,3.88,1.591c1.075,1.066,2.154,2.127,3.209,3.212a5.3,5.3,0,0,1-.016,7.673q-3.565,3.62-7.186,7.185a1.269,1.269,0,0,0-.409,1q.019,8.469.008,16.937c0,1.235-.355,1.6-1.57,1.6h-45.33c-1.171,0-1.537-.371-1.537-1.557q0-18.92.008-37.839c0-.491-.027-.782-.624-.948-1.277-.353-1.9-1.366-1.943-2.947a15.892,15.892,0,0,1,.088-1.87,2.118,2.118,0,0,0-.843-2.02,13.485,13.485,0,0,1-1.172-1.066c-1.709-1.68-1.716-3.314-.017-4.988.427-.421.871-.828,1.33-1.215a1.932,1.932,0,0,0,.708-1.649,14.087,14.087,0,0,1-.024-2.8,2.655,2.655,0,0,1,2.05-2.329c.427-.111.446-.3.446-.632a15.8,15.8,0,0,1,.066-2.373A5.713,5.713,0,0,1,1111,406.5q10.125-.012,20.25,0Zm17.281,52.365c-2.25,2.257-4.372,4.38-6.488,6.51a10.719,10.719,0,0,1-4.9,2.883c-2.429.651-4.85,1.335-7.281,1.978a14.574,14.574,0,0,1-3.625.848c-4.421.017-8.842.011-13.262,0a3.463,3.463,0,1,1-.024-6.918c1.8-.007,3.6,0,5.406,0,.837,0,1.354-.471,1.339-1.174a1.169,1.169,0,0,0-1.313-1.127c-1.033-.011-2.066,0-3.1,0-.84-.008-1.355-.464-1.345-1.168s.52-1.13,1.376-1.136q1.55-.011,3.1,0a3.462,3.462,0,1,1-.025,6.918c-1.778.008-3.556,0-5.334,0-.908,0-1.429.435-1.422,1.162s.529,1.141,1.444,1.142c4.036,0,8.073-.008,12.109.014.454,0,.607-.155.715-.561.758-2.848,1.547-5.688,2.308-8.535a10.848,10.848,0,0,1,2.231-4.383c.231-.268.445-.432-.012-.742a.945.945,0,0,1-.268-1.178,1.1,1.1,0,0,1,1.04-.754c.48-.018.961,0,1.441-.01.162,0,.345.061.481-.075.712-.715,1.419-1.433,2.2-2.228-1.365,0-2.589,0-3.813,0-.91,0-1.432-.431-1.43-1.156s.52-1.147,1.435-1.15c1.874,0,3.748,0,5.622,0,.23,0,.473.067.677-.137.687-.684,1.384-1.358,2.21-2.166-2.245,0-4.279.005-6.312,0a1.172,1.172,0,0,1-1.325-1.115c-.023-.705.493-1.184,1.324-1.187,2.186-.008,4.373,0,6.559-.006.322,0,.691,0,.868.254.417.6.664.235.98-.082,1.882-1.889,3.741-3.8,5.682-5.632a2.068,2.068,0,0,0,.744-1.7c-.025-7.545,0-15.09-.025-22.635a7.256,7.256,0,0,1,1.176-4.807h-34.494c-2.307,0-4.613-.008-6.919,0a3.455,3.455,0,0,0-3.577,3.6c0,.361,0,.721,0,1.081,0,.981.2,1.12,1.18.848a1.908,1.908,0,0,0,.866-.615c.477-.507.924-1.046,1.425-1.528a2.965,2.965,0,0,1,4.574-.014c.522.495.994,1.043,1.471,1.584a1.8,1.8,0,0,0,1.528.649c.671-.038,1.343-.1,2.015-.094,2.194,0,3.327,1.134,3.342,3.336,0,.623-.047,1.248-.095,1.871a1.96,1.96,0,0,0,.752,1.773,18.041,18.041,0,0,1,1.428,1.321,2.99,2.99,0,0,1-.005,4.678c-.536.549-1.128,1.044-1.68,1.579-.165.159-.44.35-.339.583.107.248.427.1.648.1q10.2.011,20.4.007a3.631,3.631,0,0,1,.719.02,1.146,1.146,0,0,1,.025,2.261,3.359,3.359,0,0,1-.719.024q-10.235,0-20.47-.011c-.515,0-.67.1-.685.65a2.732,2.732,0,0,1-2.225,2.945c-.4.123-.309.359-.31.593-.007,2.259.01,4.517-.015,6.776-.005.468.115.6.589.592,2.4-.025,4.805-.014,7.208-.01,1.033,0,1.438.4,1.439,1.437q.006,5.479,0,10.957c0,1.036-.4,1.444-1.433,1.445q-7.785,0-15.569,0c-1.04,0-1.445-.4-1.448-1.429-.005-1.922,0-3.845,0-5.767v-3.328c-1.449.963-2.792,1.874-4.156,2.752a.9.9,0,0,0-.466.864q.02,11.209-.006,22.418c0,.566.168.649.679.649q21.227-.021,42.454.005c.631,0,.727-.188.719-.757-.034-2.33-.014-4.661-.014-6.992Zm-46.3-39.726a4.256,4.256,0,0,1-1.786,4.13,10.722,10.722,0,0,0-.953.878c-.72.721-.716.9.024,1.64a10.458,10.458,0,0,0,.955.876,4.5,4.5,0,0,1,1.743,4.39c-.055.475-.047.958-.055,1.437a.693.693,0,0,0,.8.784c.575-.011,1.152-.027,1.725-.075a4.331,4.331,0,0,1,3.953,1.613c.4.481.849.914,1.28,1.365a.69.69,0,0,0,1.12,0,16.534,16.534,0,0,0,1.184-1.257,4.443,4.443,0,0,1,4.263-1.707,10.52,10.52,0,0,0,1.293.07c.852-.013,1.016-.169,1.025-1.009.006-.551-.044-1.1-.085-1.654a4.2,4.2,0,0,1,1.551-3.764c.369-.306.721-.635,1.066-.969.876-.848.878-1.012.028-1.844a10.848,10.848,0,0,0-.9-.825,4.5,4.5,0,0,1-1.728-4.257c.222-2.488.194-2.481-2.28-2.263a4.524,4.524,0,0,1-4.254-1.738,15.927,15.927,0,0,0-1.187-1.254.663.663,0,0,0-1.064,0,14.253,14.253,0,0,0-1.138,1.2,4.63,4.63,0,0,1-4.447,1.785C1104.744,416.466,1104.687,416.552,1104.895,419.133Zm9.4,27.582c0,2.684.01,5.229-.01,7.775,0,.417.172.453.51.452q6.412-.013,12.825,0c.4,0,.525-.1.522-.515q-.027-4.107,0-8.214c0-.414-.123-.518-.523-.514q-2.954.029-5.908,0c-.427,0-.516.144-.5.534.026.84,0,1.681.012,2.522a1.374,1.374,0,0,1-.623,1.424c-.583.32-1.052.036-1.526-.282C1117.521,448.857,1115.965,447.826,1114.3,446.715Zm4.612.293c0-3.622,0-7.1,0-10.581,0-.979-.23-1.139-1.188-.857a1.971,1.971,0,0,0-.864.621c-.494.524-.954,1.084-1.479,1.574a2.94,2.94,0,0,1-4.47,0c-.541-.509-1.021-1.082-1.525-1.631a1.867,1.867,0,0,0-1.243-.644c-.568-.055-.786.081-.779.722.035,3.386.015,6.773.021,10.16,0,.174-.071.374.107.564,1.569-1.044,3.141-2.055,4.672-3.124a1.509,1.509,0,0,1,1.963,0C1115.653,444.878,1117.225,445.889,1118.908,447.007Zm22.981,17.733-7.417-7.413c-1.036,1.285-1.324,2.93-1.789,4.509a.758.758,0,0,0,.238.876c1,.971,2.04,1.906,2.936,2.965a1.9,1.9,0,0,0,2.4.643A11.412,11.412,0,0,0,1141.889,464.74Zm15.033-49.019c1.008,0,2.016-.014,3.024.008.362.008.5-.077.49-.471-.029-1.032.012-2.065-.017-3.1a3.453,3.453,0,0,0-6.9-.017c-.03,1.031.017,2.065-.019,3.1-.016.452.175.5.546.488C1155,415.707,1155.961,415.721,1156.921,415.721Zm-4.569,32.815c-.075-.086-.163-.2-.262-.295-.354-.358-.73-.7-1.061-1.075-.283-.324-.471-.348-.8-.019q-5.4,5.436-10.834,10.838c-.294.293-.394.488-.027.8a10.55,10.55,0,0,1,1.069,1.066c.263.3.444.32.744.018q5.429-5.458,10.879-10.895C1152.178,448.857,1152.338,448.769,1152.352,448.536Zm1.709-9.753a3.178,3.178,0,0,0-1.994.778c-.292.251-.354.427-.039.738q3.453,3.416,6.867,6.871c.342.347.517.26.788-.051a2.975,2.975,0,0,0-.05-4c-1.136-1.2-2.324-2.357-3.5-3.516A3,3,0,0,0,1154.061,438.782Zm-16.726,17.964c.207-.191.368-.328.516-.477q5.2-5.2,10.4-10.4c.742-.742.717-.719-.006-1.5-.384-.416-.6-.406-1,0-3.534,3.567-7.093,7.11-10.635,10.669-.159.16-.564.3-.331.609A11.661,11.661,0,0,0,1137.335,456.746Zm17.962-5.276a6.58,6.58,0,0,1-.556-.593c-.434-.6-.767-.576-1.306-.027-3.346,3.4-6.735,6.763-10.109,10.137-.919.919-.9.9.049,1.805.3.281.445.2.689-.04q5.46-5.477,10.933-10.942C1155.094,451.713,1155.18,451.6,1155.3,451.47Zm2.36-2.22c-.157-.187-.238-.3-.334-.4q-3.483-3.487-6.963-6.976c-.248-.25-.4-.236-.635.008s-.339.391-.04.688c2.335,2.311,4.652,4.641,6.978,6.961.107.107.2.316.407.183S1157.442,449.423,1157.657,449.25Zm-23.5,18.013a1.094,1.094,0,0,0-.114-.162q-.961-.967-1.927-1.928c-.221-.219-.313-.094-.377.146q-.33,1.246-.677,2.487c-.1.343.022.443.356.35.828-.23,1.657-.453,2.486-.677C1134.016,467.448,1134.141,467.436,1134.155,467.264Z" transform="translate(0 0)" fill="#020202"/><path d="M1171.053,464.536v6.8c0,2.331-.019,4.662.014,6.992.008.569-.089.758-.719.757q-21.227-.032-42.454-.005c-.511,0-.681-.083-.679-.649q.034-11.209.006-22.418a.9.9,0,0,1,.466-.864c1.364-.878,2.707-1.788,4.156-2.752v3.328c0,1.922,0,3.845,0,5.767,0,1.028.408,1.428,1.448,1.429q7.784,0,15.569,0c1.028,0,1.432-.409,1.433-1.445q.005-5.479,0-10.957c0-1.032-.406-1.435-1.44-1.437-2.4,0-4.806-.015-7.208.01-.474,0-.594-.124-.589-.592.025-2.259.009-4.517.015-6.776,0-.234-.095-.47.31-.593a2.732,2.732,0,0,0,2.225-2.945c.015-.555.17-.652.685-.65q10.235.027,20.47.011a3.355,3.355,0,0,0,.718-.024,1.146,1.146,0,0,0-.024-2.261,3.633,3.633,0,0,0-.719-.02q-10.2,0-20.4-.007c-.221,0-.541.144-.648-.1-.1-.233.175-.423.339-.583.552-.535,1.144-1.03,1.68-1.579a2.99,2.99,0,0,0,.006-4.678,18.061,18.061,0,0,0-1.428-1.32,1.959,1.959,0,0,1-.752-1.773c.048-.623.1-1.247.095-1.871-.016-2.2-1.148-3.332-3.342-3.336-.672,0-1.344.056-2.015.094a1.8,1.8,0,0,1-1.529-.649c-.476-.54-.949-1.089-1.47-1.584a2.964,2.964,0,0,0-4.574.014c-.5.482-.948,1.02-1.425,1.528a1.907,1.907,0,0,1-.866.615c-.978.272-1.18.133-1.18-.848,0-.36,0-.721,0-1.081a3.455,3.455,0,0,1,3.577-3.6c2.306-.011,4.613,0,6.919,0h34.494a7.255,7.255,0,0,0-1.176,4.807c.021,7.545,0,15.09.025,22.635a2.068,2.068,0,0,1-.745,1.7c-1.941,1.827-3.8,3.743-5.682,5.632-.316.318-.564.687-.98.082-.177-.257-.546-.254-.867-.254-2.187.006-4.373,0-6.559.006-.83,0-1.346.482-1.323,1.187a1.172,1.172,0,0,0,1.325,1.115c2.034.008,4.067,0,6.312,0-.826.808-1.523,1.482-2.21,2.166-.2.2-.447.136-.678.137-1.874.005-3.748,0-5.622,0-.915,0-1.433.424-1.435,1.149s.52,1.152,1.43,1.156c1.224,0,2.447,0,3.813,0-.786.795-1.493,1.513-2.2,2.228-.136.137-.319.072-.481.075-.48.009-.961-.008-1.441.01a1.1,1.1,0,0,0-1.041.754.945.945,0,0,0,.268,1.178c.458.31.244.474.012.742a10.847,10.847,0,0,0-2.231,4.383c-.762,2.847-1.55,5.687-2.308,8.535-.108.407-.261.564-.715.561-4.036-.021-8.073-.011-12.109-.014-.915,0-1.437-.421-1.444-1.142s.514-1.159,1.422-1.162c1.778,0,3.556,0,5.334,0a3.462,3.462,0,1,0,.025-6.918q-1.55-.01-3.1,0c-.855.006-1.366.434-1.376,1.136s.5,1.16,1.345,1.168c1.033.009,2.066-.006,3.1,0a1.169,1.169,0,0,1,1.313,1.127c.015.7-.5,1.17-1.339,1.174-1.8.009-3.6,0-5.406,0a3.463,3.463,0,1,0,.024,6.918c4.421.006,8.842.012,13.262,0a14.579,14.579,0,0,0,3.625-.848c2.432-.642,4.852-1.327,7.281-1.978a10.717,10.717,0,0,0,4.9-2.882C1166.68,468.916,1168.8,466.793,1171.053,464.536Zm-14.993-24.683q-4.5,0-9,0c-.947,0-1.37.418-1.376,1.351q-.014,2.088,0,4.177c.005.978.419,1.388,1.412,1.389q8.964.005,17.929,0c.991,0,1.408-.413,1.414-1.389.008-1.344,0-2.688,0-4.033,0-1.119-.385-1.5-1.523-1.5Q1160.488,439.851,1156.06,439.853Zm1.079-11.534q3.922,0,7.846,0c.916,0,1.438-.415,1.451-1.133s-.514-1.171-1.41-1.172q-7.809,0-15.619,0c-.9,0-1.424.439-1.414,1.167s.531,1.136,1.446,1.137Q1153.288,428.323,1157.139,428.319Zm4.693,2.306c-1.1,0-2.2-.008-3.307,0a1.165,1.165,0,0,0-1.307,1.127c-.015.7.5,1.172,1.332,1.175q3.271.012,6.542,0c.836,0,1.352-.463,1.344-1.165s-.521-1.133-1.369-1.138C1163.989,430.62,1162.91,430.626,1161.832,430.626Zm-8.058-6.921c.743,0,1.486.016,2.228,0a1.15,1.15,0,1,0-.005-2.3q-2.227-.026-4.455,0a1.153,1.153,0,1,0,.005,2.3C1152.289,423.719,1153.031,423.706,1153.774,423.705Zm9.186,0c.742,0,1.485.013,2.227,0a1.154,1.154,0,1,0,0-2.3q-2.192-.022-4.384,0a1.158,1.158,0,1,0,0,2.3C1161.522,423.717,1162.241,423.706,1162.96,423.706Zm-11.556,9.226c.767,0,1.534.017,2.3,0a1.15,1.15,0,1,0-.021-2.3q-2.227-.025-4.455,0a1.141,1.141,0,0,0-1.235,1.123,1.157,1.157,0,0,0,1.257,1.176C1149.966,432.945,1150.685,432.933,1151.4,432.932Z" transform="translate(-19.854 -5.677)" fill="#e9edf0"/><path d="M1110.619,436.222c-.208-2.581-.151-2.667,2.131-2.446a4.63,4.63,0,0,0,4.447-1.785,14.249,14.249,0,0,1,1.138-1.2.663.663,0,0,1,1.064,0,15.915,15.915,0,0,1,1.187,1.254,4.524,4.524,0,0,0,4.254,1.738c2.473-.218,2.5-.225,2.28,2.263a4.5,4.5,0,0,0,1.728,4.257,10.842,10.842,0,0,1,.9.825c.85.832.849,1-.028,1.844-.345.334-.7.663-1.066.969a4.2,4.2,0,0,0-1.551,3.764c.041.551.09,1.1.085,1.654-.009.839-.174,1-1.025,1.009a10.526,10.526,0,0,1-1.293-.07,4.444,4.444,0,0,0-4.263,1.707,16.478,16.478,0,0,1-1.184,1.257.69.69,0,0,1-1.12,0c-.432-.451-.885-.884-1.28-1.365a4.331,4.331,0,0,0-3.953-1.613c-.573.048-1.15.065-1.725.075a.694.694,0,0,1-.8-.784c.008-.48,0-.962.055-1.437a4.5,4.5,0,0,0-1.743-4.39,10.475,10.475,0,0,1-.955-.876c-.74-.736-.744-.919-.024-1.64a10.734,10.734,0,0,1,.953-.878A4.257,4.257,0,0,0,1110.619,436.222Zm15.164,5.836a6.918,6.918,0,1,0-6.937,6.9A6.924,6.924,0,0,0,1125.782,442.058Z" transform="translate(-5.724 -17.089)" fill="#f4cf58"/><path d="M1151.2,543.228c1.67,1.112,3.226,2.142,4.775,3.182.474.318.943.6,1.526.282a1.374,1.374,0,0,0,.623-1.424c-.017-.84.014-1.682-.013-2.522-.012-.389.077-.538.5-.534q2.954.034,5.908,0c.4,0,.526.1.524.514q-.027,4.107,0,8.214c0,.412-.12.517-.522.515q-6.412-.02-12.825,0c-.339,0-.513-.035-.51-.452C1151.206,548.457,1151.2,545.912,1151.2,543.228Z" transform="translate(-36.901 -96.513)" fill="#c2c5c6"/><path d="M1138.758,518.276c-1.683-1.119-3.255-2.129-4.786-3.2a1.509,1.509,0,0,0-1.963,0c-1.531,1.069-3.1,2.08-4.672,3.124-.178-.191-.107-.39-.107-.565-.005-3.387.015-6.774-.021-10.16-.007-.641.211-.777.779-.722a1.867,1.867,0,0,1,1.243.644c.5.548.984,1.122,1.525,1.631a2.94,2.94,0,0,0,4.47,0c.525-.491.984-1.051,1.479-1.574a1.973,1.973,0,0,1,.864-.621c.958-.282,1.188-.122,1.188.857C1138.758,511.175,1138.758,514.655,1138.758,518.276Z" transform="translate(-19.85 -71.269)" fill="#d74f46"/><path d="M1223.952,589.877a11.416,11.416,0,0,1-3.628,1.581,1.9,1.9,0,0,1-2.4-.643c-.9-1.058-1.94-1.993-2.936-2.965a.758.758,0,0,1-.238-.876c.465-1.58.754-3.224,1.789-4.509Z" transform="translate(-82.063 -125.136)" fill="#f6e7d8"/><path d="M1290.338,421.409c-.96,0-1.921-.014-2.88.008-.371.008-.562-.037-.546-.488.036-1.031-.011-2.065.019-3.1a3.453,3.453,0,0,1,6.9.017c.029,1.031-.011,2.065.017,3.1.011.393-.127.478-.489.471C1292.354,421.4,1291.345,421.409,1290.338,421.409Z" transform="translate(-133.416 -5.688)" fill="#d8dadc"/><path d="M1250.421,548.031c-.014.233-.174.322-.289.436q-5.44,5.446-10.879,10.895c-.3.3-.481.278-.745-.018a10.532,10.532,0,0,0-1.069-1.066c-.367-.309-.267-.5.027-.8q5.431-5.4,10.834-10.838c.327-.329.515-.305.8.019.33.378.707.716,1.061,1.075C1250.258,547.836,1250.345,547.946,1250.421,548.031Z" transform="translate(-98.068 -99.496)" fill="#3e77b2"/><path d="M1283.351,518.267a3,3,0,0,1,2.066.816c1.18,1.16,2.368,2.314,3.5,3.516a2.975,2.975,0,0,1,.05,4c-.271.311-.445.4-.787.051q-3.41-3.458-6.866-6.871c-.315-.311-.253-.487.039-.738A3.178,3.178,0,0,1,1283.351,518.267Z" transform="translate(-129.29 -79.485)" fill="#d74f46"/><path d="M1228.185,549.223a11.641,11.641,0,0,1-1.062-1.1c-.233-.311.172-.448.331-.609,3.542-3.559,7.1-7.1,10.635-10.669.4-.4.62-.414,1,0,.723.784.749.761.007,1.5q-5.2,5.2-10.4,10.4C1228.553,548.9,1228.392,549.033,1228.185,549.223Z" transform="translate(-90.85 -92.477)" fill="#4e95e0"/><path d="M1262.011,559.638c-.117.134-.2.243-.3.341q-5.467,5.47-10.933,10.942c-.244.245-.392.321-.689.04-.953-.9-.967-.886-.048-1.805,3.375-3.374,6.763-6.735,10.109-10.137.54-.549.873-.568,1.306.027A6.582,6.582,0,0,0,1262.011,559.638Z" transform="translate(-106.715 -108.168)" fill="#4e95e0"/><path d="M1281.24,535.908c-.215.173-.39.337-.587.467s-.3-.076-.407-.183c-2.326-2.32-4.643-4.65-6.978-6.961-.3-.3-.2-.446.04-.688s.387-.257.636-.008q3.472,3.5,6.963,6.976C1281,535.609,1281.083,535.722,1281.24,535.908Z" transform="translate(-123.583 -86.658)" fill="#f4cf58"/><path d="M1212.268,611.434c-.014.172-.138.185-.252.216-.829.225-1.658.448-2.486.677-.334.093-.452-.007-.357-.35q.345-1.242.677-2.487c.064-.24.156-.364.377-.146q.968.959,1.927,1.928A1.079,1.079,0,0,1,1212.268,611.434Z" transform="translate(-78.114 -144.17)" fill="#686d70"/><path d="M1201.509,502.318q4.428,0,8.856,0c1.137,0,1.52.377,1.523,1.5,0,1.344.007,2.688,0,4.033-.006.976-.423,1.388-1.414,1.389q-8.964.005-17.929,0c-.993,0-1.407-.411-1.412-1.389q-.011-2.088,0-4.177c.006-.932.429-1.349,1.376-1.351Q1197.008,502.311,1201.509,502.318Zm.052,4.613h6.407c1.621,0,1.588,0,1.631-1.637.016-.607-.2-.682-.727-.68-4.56.018-9.119.01-13.679.01-1.8,0-1.779,0-1.772,1.782,0,.478.171.536.58.533C1196.521,506.923,1199.041,506.932,1201.561,506.932Z" transform="translate(-65.302 -68.142)"/><path d="M1208.285,456.715q-3.851,0-7.7,0c-.914,0-1.435-.418-1.446-1.137s.51-1.167,1.414-1.167q7.81,0,15.619,0c.9,0,1.424.448,1.41,1.172s-.535,1.132-1.451,1.133Q1212.208,456.719,1208.285,456.715Z" transform="translate(-70.999 -34.073)" fill="#010101"/><path d="M1235.688,470.372c1.078,0,2.157-.006,3.235,0,.848.006,1.36.44,1.369,1.139s-.507,1.162-1.344,1.165q-3.271.011-6.542,0c-.832,0-1.347-.472-1.332-1.175a1.165,1.165,0,0,1,1.307-1.127C1233.483,470.364,1234.586,470.372,1235.688,470.372Z" transform="translate(-93.71 -45.424)" fill="#020202"/><path d="M1210.595,440.729c-.742,0-1.485.013-2.228,0a1.153,1.153,0,1,1-.005-2.3q2.228-.022,4.455,0a1.15,1.15,0,1,1,.005,2.3C1212.08,440.745,1211.337,440.729,1210.595,440.729Z" transform="translate(-76.674 -22.701)" fill="#030303"/><path d="M1242.493,440.732c-.719,0-1.437.011-2.156,0a1.158,1.158,0,1,1,0-2.3q2.192-.018,4.384,0a1.154,1.154,0,1,1,0,2.3C1243.978,440.744,1243.235,440.731,1242.493,440.732Z" transform="translate(-99.387 -22.703)" fill="#030303"/><path d="M1202.547,472.669c-.718,0-1.437.013-2.156,0a1.157,1.157,0,0,1-1.257-1.176,1.141,1.141,0,0,1,1.235-1.123q2.227-.023,4.455,0a1.15,1.15,0,1,1,.021,2.3C1204.081,472.686,1203.314,472.669,1202.547,472.669Z" transform="translate(-70.997 -45.414)" fill="#030303"/><path d="M1137.112,453.367a6.918,6.918,0,1,1-6.9-6.941A6.93,6.93,0,0,1,1137.112,453.367Zm-2.306-.053a4.612,4.612,0,1,0-4.6,4.644A4.62,4.62,0,0,0,1134.806,453.315Z" transform="translate(-17.053 -28.398)" fill="#030301"/><path d="M1207.211,512.587c-2.52,0-5.04-.008-7.559.008-.409,0-.578-.055-.58-.533-.007-1.782-.029-1.782,1.772-1.782,4.56,0,9.119.008,13.679-.01.522,0,.743.073.726.68-.043,1.636-.01,1.637-1.63,1.637Z" transform="translate(-70.951 -73.798)" fill="#c2c5c6"/><path d="M1140.484,458.995a4.612,4.612,0,1,1-4.66-4.58A4.622,4.622,0,0,1,1140.484,458.995Z" transform="translate(-22.732 -34.078)" fill="#ddbc50"/></g></g></svg>