<svg xmlns="http://www.w3.org/2000/svg" width="64.652" height="64.635" viewBox="0 0 64.652 64.635">
  <g id="Grupo_86024" data-name="Grupo 86024" transform="translate(-1156.42 -168.452)">
    <path id="Trazado_122110" data-name="Trazado 122110" d="M1166.275,231.963a2.051,2.051,0,0,0-.155.263,1.109,1.109,0,0,1-1.162.837,1.087,1.087,0,0,1-1.012-1.073c.082-.26.147-.525.247-.777q1.045-2.633,2.1-5.261c1.124-2.8,2.252-5.607,3.365-8.416.089-.224.441-.619-.227-.617q-5.958.019-11.916.027c-.787-.2-1.159-.616-1.088-1.223s.533-.951,1.333-.952c1.676,0,3.352,0,5.2,0a16.71,16.71,0,0,1-3.042-2.614,13.944,13.944,0,0,1,2.628-20.758c.486-.324.559-.57.2-.986a1.127,1.127,0,0,1-.1-.16c-.2-.321-.325-.751-.611-.935-.325-.208-.587.274-.916.38a1.089,1.089,0,0,1-1.342-.5,1.045,1.045,0,0,1,.364-1.432,16.053,16.053,0,0,1,3.325-1.76,17.611,17.611,0,0,1,4.924-1.256.438.438,0,0,0,.462-.388q1.155-4.673,2.341-9.338c.078-.308-.037-.437-.281-.6a3.222,3.222,0,0,1,1.766-5.967q11.235-.007,22.47,0a3.221,3.221,0,0,1,.452,6.42c-.342.047-.4.165-.4.467.009,2.944.02,5.888-.008,8.832-.005.545.305.432.6.432q9.815,0,19.63,0a4.325,4.325,0,0,1,4.46,3.334,6.14,6.14,0,0,1,.111,1.443q0,5.772,0,11.545a2.143,2.143,0,0,0,.137.859,10.626,10.626,0,0,1-3.082,12.736c-.058.049-.113.1-.271.243,1.082,0,2.039,0,3,0,.753,0,1.207.334,1.291.929s-.263,1.008-1,1.227l-3.287.015q-4.195-.01-8.389-.02c-.8,0-.8,0-.514.727,1.217,3.04,2.447,6.075,3.649,9.121.684,1.736,1.463,3.437,2.027,5.22a1.084,1.084,0,0,1-1.011,1.074,1.106,1.106,0,0,1-1.162-.837,2.008,2.008,0,0,0-.155-.263,1.206,1.206,0,0,0-.044-.245q-2.878-7.2-5.749-14.394c-.155-.392-.393-.408-.726-.407-4.734.006-9.469.013-14.2-.008-.537,0-.659.163-.656.675.021,3.764.009,7.529.013,11.294,0,1.03.022,2.059.034,3.089-.138.277-.16.6-.419.83-.688.6-1.475.255-1.86-.83.012-.251.034-.5.034-.752q0-6.226,0-12.453c0-.583.248-1.341-.1-1.7-.38-.4-1.152-.11-1.752-.13-.872-.029-1.154-.23-1.373-1.065.2-.849.489-1.09,1.345-1.09q8.644,0,17.287,0h.787a10.885,10.885,0,0,1-4.305-8.271c-.014-.284-.126-.345-.384-.343-1.177.011-2.355.016-3.533,0-.342-.006-.428.116-.417.437.021.609.017,1.219,0,1.829a3.16,3.16,0,0,1-3.047,3.091c-.818.033-1.641.032-2.46,0a3.172,3.172,0,0,1-3.089-3.184c-.014-.946-.015-1.892,0-2.838.006-.32-.07-.453-.416-.431a10.148,10.148,0,0,1-1.387,0c-.408-.03-.555.085-.644.518a13.884,13.884,0,0,1-5.823,8.879c-.1.072-.272.1-.274.315.94,0,1.862,0,2.782,0,.971,0,1.2.171,1.485,1.1-.3.869-.557,1.052-1.473,1.052-2.649,0-5.3.015-7.947-.012a.819.819,0,0,0-.925.6c-1.2,3.068-2.447,6.118-3.649,9.186C1167.644,228.448,1166.866,230.169,1166.275,231.963Zm24.629-25.787c-.566-.008-1.133,0-1.7-.029-.344-.017-.494.077-.474.45.028.544-.005,1.091.011,1.636a1.058,1.058,0,0,0,1.141,1.139c.292.01.586-.019.879-.031.418.009.837.042,1.253.022a1,1,0,0,0,1.032-1.037c.023-.564-.007-1.13.013-1.7.013-.345-.1-.494-.462-.477C1192.036,206.18,1191.47,206.171,1190.9,206.176Zm3.014-35.55c-.1-.007-.21-.021-.314-.021q-10.382,0-20.763,0a1.993,1.993,0,0,0-.5.05,1.044,1.044,0,0,0-.732,1.431,1.1,1.1,0,0,0,1.17.669c2.84-.01,5.68,0,8.52-.005q6.311-.006,12.621-.018c.438.005.876.031,1.313.01a1.066,1.066,0,0,0,0-2.132C1194.794,170.588,1194.356,170.619,1193.918,170.626Zm-3.036,25.815c.483.008.969-.018,1.447.031.566.059.735-.122.733-.711-.023-6.276-.009-12.553-.022-18.829,0-.66.311-1.559-.141-1.919s-1.328-.111-2.018-.081c-2.731-.008-5.462-.006-8.192-.031-.5,0-.394.312-.394.585q0,6.52-.008,13.041a.915.915,0,0,0,.324.763,17.927,17.927,0,0,1,4.772,6.786c.1.257.221.406.54.4C1188.908,196.441,1189.9,196.448,1190.882,196.441Zm6.817,7.533a11.331,11.331,0,0,0,1.7.054c.307.016.39-.187.448-.425a10.534,10.534,0,0,1,4.738-6.563.686.686,0,0,0,.332-.677c-.01-1.2-.024-2.4.006-3.592.011-.462-.11-.663-.6-.6a1.558,1.558,0,0,1-1.538-.659c-.068-1.141.252-1.489,1.381-1.491,1.68,0,3.361,0,5.041,0,2.141-.007,4.283-.022,6.425-.033.585.013,1.17.028,1.755.036.164,0,.326.01.406-.2a2.733,2.733,0,0,0-.712-2.545,2.6,2.6,0,0,0-2.076-.489,1.83,1.83,0,0,0-.188-.02q-9.561,0-19.122-.014c-.453,0-.506.191-.505.565q.016,4.479,0,8.957a2.146,2.146,0,0,1-2.352,2.345q-2.083.006-4.165,0c-.3,0-.472.019-.38.417a17.116,17.116,0,0,1,.442,4.5c-.015.392.127.506.507.5,1.262-.019,2.524,0,3.786-.01C1194.589,204,1196.145,204.085,1197.7,203.974Zm-27.236,10.8a11.847,11.847,0,1,0-11.887-11.858A11.8,11.8,0,0,0,1170.464,214.771Zm48.458-8.6a8.547,8.547,0,0,0-8.725-8.634,8.611,8.611,0,0,0,.061,17.221A8.645,8.645,0,0,0,1218.922,206.174Zm-38.784-18.77c0-4.117,0-8.109.006-12.1,0-.365-.17-.4-.463-.4q-2.9.012-5.8,0c-.323,0-.473.078-.558.423q-1.084,4.432-2.217,8.852c-.1.382.022.458.378.482a18.42,18.42,0,0,1,8.657,2.746Zm5.332,15.508a2.3,2.3,0,0,1,.378,0c.613.1.828-.138.746-.753-.119-.893-.176-1.793-.373-2.676a16.161,16.161,0,0,0-21.409-11.715c-.917.337-.917.336-.429,1.172a4.633,4.633,0,0,1,.245.44c.215.483.5.6,1.034.394a13.215,13.215,0,0,1,6.752-.724,14.031,14.031,0,0,1,12.015,13.326c.017.4.116.588.536.535A4.087,4.087,0,0,1,1185.469,202.913Zm32.342-4.52v-4.649c0-1.659,0-1.648-1.693-1.583-.355.014-.475.123-.47.476.015,1.281.01,2.563,0,3.844a.515.515,0,0,0,.277.514A14.845,14.845,0,0,1,1217.811,198.392Zm-10.75-2.551a5.977,5.977,0,0,0,.663-.145c.471-.162,1.173,0,1.395-.369.234-.389.081-1.015.082-1.538,0-1.737,0-1.737-1.736-1.628a.436.436,0,0,1-.063,0c-.229-.017-.346.064-.344.318C1207.066,193.589,1207.061,194.7,1207.061,195.842Zm6.454-1.858c0-.483,0-.966,0-1.449,0-.205-.024-.337-.291-.379-1.643-.258-1.845-.1-1.845,1.544v.5c0,1.162,0,1.161,1.161,1.41a3.981,3.981,0,0,1,.609.157c.293.114.374.006.368-.275C1213.508,194.992,1213.515,194.488,1213.515,193.984Z" fill="#010101"/>
    <path id="Trazado_122111" data-name="Trazado 122111" d="M1195.38,371.973c.591-1.793,1.369-3.515,2.057-5.27,1.2-3.067,2.449-6.117,3.649-9.186a.819.819,0,0,1,.925-.6c2.649.027,5.3.013,7.947.012.916,0,1.169-.183,1.473-1.052l2.089-.007c.219.836.5,1.036,1.373,1.065.6.02,1.372-.268,1.752.13.347.363.1,1.121.1,1.7q.012,6.226,0,12.453c0,.251-.022.5-.034.752-1.619.008-3.239.021-4.859.021q-7.858,0-15.717,0C1195.884,372,1195.632,371.981,1195.38,371.973Z" transform="translate(-29.105 -140.011)" fill="#955535"/>
    <path id="Trazado_122112" data-name="Trazado 122112" d="M1288.582,375.069c-.012-1.03-.033-2.059-.034-3.089,0-3.764.008-7.529-.013-11.294,0-.512.12-.677.656-.675,4.734.021,9.469.014,14.2.008.333,0,.571.016.726.407q2.856,7.2,5.749,14.394a1.214,1.214,0,0,1,.044.245c-.82.008-1.64.023-2.46.023q-9.058,0-18.116,0C1289.086,375.09,1288.834,375.076,1288.582,375.069Z" transform="translate(-98.696 -143.104)" fill="#955535"/>
    <path id="Trazado_122113" data-name="Trazado 122113" d="M1160.735,360.08q5.958-.012,11.916-.027c.668,0,.315.393.227.617-1.112,2.809-2.241,5.611-3.365,8.416q-1.054,2.629-2.1,5.261c-.1.252-.165.518-.247.777-1.367,0-2.735.007-4.1,0a2.112,2.112,0,0,1-2.331-2.3C1160.723,368.575,1160.732,364.328,1160.735,360.08Z" transform="translate(-3.218 -143.135)" fill="#955535"/>
    <path id="Trazado_122114" data-name="Trazado 122114" d="M1364.967,375.13c-.565-1.783-1.343-3.484-2.027-5.22-1.2-3.046-2.431-6.081-3.649-9.121-.291-.726-.289-.729.514-.727q4.195.008,8.389.02,0,7.518,0,15.036Z" transform="translate(-151.422 -143.141)" fill="#955535"/>
    <path id="Trazado_122115" data-name="Trazado 122115" d="M1395.009,375.133q0-7.518,0-15.036l3.287-.015q-.012,5.752-.025,11.5c0,.377,0,.755,0,1.132a2.271,2.271,0,0,1-2.517,2.469A1.76,1.76,0,0,1,1395.009,375.133Z" transform="translate(-178.237 -143.157)" fill="#72432a"/>
    <path id="Trazado_122116" data-name="Trazado 122116" d="M1309.708,244.02c-2.142.012-4.283.027-6.425.033-1.68.006-3.361,0-5.041,0-1.128,0-1.448.35-1.381,1.491q-.012,2.708-.021,5.415c0,.3,0,.559-.338.735a9.356,9.356,0,0,0-2.766,2.245,7.922,7.922,0,0,0-1.961,4.069c-1.554.111-3.11.028-4.665.046-1.262.015-2.525-.009-3.786.01-.38.006-.522-.108-.507-.5a17.116,17.116,0,0,0-.442-4.5c-.092-.4.083-.418.38-.417q2.082.008,4.165,0a2.146,2.146,0,0,0,2.352-2.345q.006-4.478,0-8.957c0-.374.052-.567.505-.565q9.561.022,19.122.014a1.83,1.83,0,0,1,.188.02A5.017,5.017,0,0,1,1309.708,244.02Zm-16.626.037c-.188,0-.377-.007-.565,0a1.048,1.048,0,0,0-1.081.933,1.061,1.061,0,0,0,.849,1.153,3.207,3.207,0,0,0,1.612-.022,1.029,1.029,0,0,0,.622-1.549C1294.188,243.97,1293.621,244.057,1293.081,244.056Z" transform="translate(-94.075 -54.037)" fill="#3c8625"/>
    <path id="Trazado_122117" data-name="Trazado 122117" d="M1176.833,281.588a11.847,11.847,0,1,1-.065-23.694,11.847,11.847,0,0,1,.065,23.694Zm-.024-2.148a9.7,9.7,0,1,0-9.717-9.7A9.66,9.66,0,0,0,1176.809,279.44Z" transform="translate(-6.37 -66.817)" fill="#39464d"/>
    <path id="Trazado_122118" data-name="Trazado 122118" d="M1267.266,215.482c-.987.007-1.974,0-2.961.03-.319.009-.437-.139-.54-.4a17.927,17.927,0,0,0-4.772-6.786.916.916,0,0,1-.324-.763q.014-6.52.008-13.041c0-.272-.109-.589.394-.585,2.731.025,5.461.024,8.192.031q0,1.443-.006,2.887c-.542-.81-1.068-.969-1.767-.46q-2.135,1.557-4.232,3.166a1.029,1.029,0,0,0-.108,1.6,1.014,1.014,0,0,0,1.472.04q2.1-1.548,4.181-3.13a3.118,3.118,0,0,0,.444-.52l.006,5.751c-.485-.712-1.046-.939-1.623-.526-1.5,1.073-2.972,2.186-4.432,3.314a1.011,1.011,0,0,0-.168,1.416.988.988,0,0,0,1.394.278c1.529-1.1,3.028-2.25,4.531-3.39a1.8,1.8,0,0,0,.3-.4Z" transform="translate(-76.383 -19.041)" fill="#48a8ed"/>
    <path id="Trazado_122119" data-name="Trazado 122119" d="M1352.59,292.078a8.645,8.645,0,0,1-8.663,8.586,8.611,8.611,0,1,1,8.663-8.586Zm-2.15,0a6.469,6.469,0,1,0-6.428,6.44A6.518,6.518,0,0,0,1350.44,292.079Z" transform="translate(-133.669 -85.904)" fill="#39464d"/>
    <path id="Trazado_122120" data-name="Trazado 122120" d="M1223.4,206.45a18.42,18.42,0,0,0-8.657-2.746c-.356-.024-.476-.1-.378-.482q1.128-4.421,2.217-8.852c.084-.345.235-.425.558-.423q2.9.017,5.8,0c.293,0,.464.036.463.4C1223.4,198.34,1223.4,202.333,1223.4,206.45Zm-2.217-8.093a1.027,1.027,0,0,0-.6-1.036,1.006,1.006,0,0,0-1.213.225q-1.015.99-2.007,2a1.13,1.13,0,0,0-.125,1.625,1.075,1.075,0,0,0,1.619-.1c.663-.645,1.309-1.306,1.964-1.959A1.047,1.047,0,0,0,1221.183,198.357Z" transform="translate(-43.263 -19.045)" fill="#47a6ea"/>
    <path id="Trazado_122121" data-name="Trazado 122121" d="M1208.024,256.985a4.087,4.087,0,0,0-.5,0c-.42.053-.519-.133-.536-.535a14.031,14.031,0,0,0-12.015-13.326,13.215,13.215,0,0,0-6.752.724c-.537.2-.819.089-1.034-.394a4.6,4.6,0,0,0-.245-.44c-.488-.835-.488-.835.429-1.172a16.161,16.161,0,0,1,21.409,11.715c.2.883.255,1.783.373,2.676.082.615-.132.857-.746.753A2.3,2.3,0,0,0,1208.024,256.985Z" transform="translate(-22.555 -54.072)" fill="#535a5e"/>
    <path id="Trazado_122122" data-name="Trazado 122122" d="M1238.532,179.087q-6.311.009-12.621.018c-2.84,0-5.68-.005-8.52.005a1.1,1.1,0,0,1-1.17-.669,1.044,1.044,0,0,1,.732-1.431,1.993,1.993,0,0,1,.5-.05q10.382,0,20.763,0c.1,0,.209.014.314.021A2.761,2.761,0,0,1,1238.532,179.087Z" transform="translate(-44.612 -6.354)" fill="#3c8625"/>
    <path id="Trazado_122123" data-name="Trazado 122123" d="M1292.595,203.058q0-2.875-.006-5.751,0-.347.01-.694,0-1.443.006-2.887c.69-.03,1.558-.285,2.018.081s.14,1.259.141,1.919c.013,6.276,0,12.553.022,18.829,0,.59-.166.77-.733.711-.478-.05-.964-.024-1.447-.031q-.006-5.743-.012-11.485Q1292.594,203.4,1292.595,203.058Z" transform="translate(-101.725 -18.796)" fill="#3177b6"/>
    <path id="Trazado_122124" data-name="Trazado 122124" d="M1319.611,272.068a7.922,7.922,0,0,1,1.961-4.069,9.357,9.357,0,0,1,2.766-2.245c.335-.176.337-.434.338-.735q.006-2.707.021-5.415a1.559,1.559,0,0,0,1.538.659c.485-.06.607.141.6.6-.03,1.2-.016,2.395-.006,3.592a.686.686,0,0,1-.332.677,10.535,10.535,0,0,0-4.738,6.563c-.057.238-.141.442-.447.425A11.333,11.333,0,0,1,1319.611,272.068Z" transform="translate(-121.911 -68.094)" fill="#32731e"/>
    <path id="Trazado_122125" data-name="Trazado 122125" d="M1392.728,268.346a14.834,14.834,0,0,0-1.883-1.4.515.515,0,0,1-.277-.513c.007-1.281.012-2.563,0-3.844,0-.354.116-.463.471-.476,1.694-.065,1.693-.076,1.693,1.583Z" transform="translate(-174.917 -69.954)" fill="#535a5e"/>
    <path id="Trazado_122126" data-name="Trazado 122126" d="M1356.61,265.747c0-1.145,0-2.253,0-3.361,0-.254.115-.336.344-.318a.438.438,0,0,0,.063,0c1.737-.109,1.74-.109,1.736,1.628,0,.523.152,1.149-.082,1.538-.222.369-.924.207-1.395.369A5.967,5.967,0,0,1,1356.61,265.747Z" transform="translate(-149.549 -69.906)" fill="#7f8b91"/>
    <path id="Trazado_122127" data-name="Trazado 122127" d="M1375.828,263.7c0,.5-.007,1.008,0,1.512.005.281-.075.389-.368.275a3.981,3.981,0,0,0-.609-.157c-1.161-.249-1.162-.248-1.162-1.41v-.5c0-1.64.2-1.8,1.846-1.544.267.042.292.174.291.379C1375.826,262.731,1375.828,263.214,1375.828,263.7Z" transform="translate(-162.313 -69.713)" fill="#7f8b91"/>
    <path id="Trazado_122128" data-name="Trazado 122128" d="M1292.331,317.519c.565-.005,1.131,0,1.7-.021.364-.017.475.132.462.477-.021.565.01,1.131-.013,1.7a1,1,0,0,1-1.031,1.037c-.416.019-.835-.013-1.253-.022A15.006,15.006,0,0,0,1292.331,317.519Z" transform="translate(-101.427 -111.343)" fill="#535a5e"/>
    <path id="Trazado_122129" data-name="Trazado 122129" d="M1388.656,244.016a5.017,5.017,0,0,0-.627-3.2,2.6,2.6,0,0,1,2.076.489,2.733,2.733,0,0,1,.712,2.545c-.08.212-.242.2-.406.2C1389.825,244.044,1389.24,244.029,1388.656,244.016Z" transform="translate(-173.023 -54.033)" fill="#32731e"/>
    <path id="Trazado_122130" data-name="Trazado 122130" d="M1286.327,317.494a15.005,15.005,0,0,1-.141,3.165c-.293.012-.587.041-.879.031a1.058,1.058,0,0,1-1.141-1.139c-.016-.545.017-1.092-.011-1.636-.02-.373.13-.468.474-.45C1285.193,317.494,1285.761,317.486,1286.327,317.494Z" transform="translate(-95.422 -111.318)" fill="#7f8b91"/>
    <path id="Trazado_122131" data-name="Trazado 122131" d="M1304.665,179.082a2.76,2.76,0,0,0,0-2.106c.437-.007.876-.038,1.312-.015a1.066,1.066,0,0,1,0,2.132C1305.542,179.113,1305.1,179.087,1304.665,179.082Z" transform="translate(-110.745 -6.35)" fill="#32731e"/>
    <path id="Trazado_122132" data-name="Trazado 122132" d="M1319.89,253.7c.54,0,1.107-.086,1.437.516a1.029,1.029,0,0,1-.622,1.549,3.207,3.207,0,0,1-1.612.022,1.061,1.061,0,0,1-.849-1.153,1.048,1.048,0,0,1,1.081-.933C1319.513,253.7,1319.7,253.7,1319.89,253.7Z" transform="translate(-120.884 -63.683)" fill="#010101"/>
    <path id="Trazado_122133" data-name="Trazado 122133" d="M1183.145,285.784a9.7,9.7,0,1,1-.023-19.4,9.7,9.7,0,0,1,.023,19.4Zm1.35-17.079-.214-.057a7.255,7.255,0,0,0-5.232,1.105,7.514,7.514,0,0,0,5.231,13.747l.22-.047.036.008a7.5,7.5,0,0,0-.007-14.755Z" transform="translate(-12.705 -73.161)" fill="#010101"/>
    <path id="Trazado_122134" data-name="Trazado 122134" d="M1273.6,228.8q0,.347,0,.693a1.81,1.81,0,0,1-.3.4c-1.5,1.14-3,2.286-4.531,3.39a.988.988,0,0,1-1.394-.278,1.011,1.011,0,0,1,.168-1.416c1.46-1.127,2.932-2.24,4.432-3.314C1272.556,227.856,1273.117,228.084,1273.6,228.8Z" transform="translate(-82.732 -44.533)" fill="#f1f3f4"/>
    <path id="Trazado_122135" data-name="Trazado 122135" d="M1273.618,203.255q0,.347-.01.694a3.139,3.139,0,0,1-.444.52q-2.08,1.579-4.181,3.13a1.014,1.014,0,0,1-1.472-.04,1.029,1.029,0,0,1,.108-1.6q2.1-1.6,4.232-3.166C1272.55,202.286,1273.077,202.445,1273.618,203.255Z" transform="translate(-82.744 -25.438)" fill="#f1f3f4"/>
    <path id="Trazado_122136" data-name="Trazado 122136" d="M1356.8,298.445a6.518,6.518,0,0,1-6.428,6.44,6.46,6.46,0,1,1,6.428-6.44Zm-6.308-4.281a4.271,4.271,0,1,0,0,8.534c.248-.024.5-.027.745-.075a4.33,4.33,0,0,0,3.4-4.516A4.222,4.222,0,0,0,1350.489,294.164Z" transform="translate(-140.025 -92.269)" fill="#010101"/>
    <path id="Trazado_122137" data-name="Trazado 122137" d="M1228.923,207.992a1.046,1.046,0,0,1-.358.762c-.655.653-1.3,1.314-1.964,1.959a1.075,1.075,0,0,1-1.619.1,1.13,1.13,0,0,1,.125-1.625q.993-1.012,2.007-2a1.006,1.006,0,0,1,1.213-.225A1.027,1.027,0,0,1,1228.923,207.992Z" transform="translate(-51.003 -28.68)" fill="#f1f3f4"/>
    <path id="Trazado_122138" data-name="Trazado 122138" d="M1190.691,289.867a7.514,7.514,0,0,1-5.23-13.747,7.255,7.255,0,0,1,5.232-1.105l.214.057h.034c.219.441.708.559,1.04.874a8.63,8.63,0,0,1,2.888,6.874,8.189,8.189,0,0,1-2.285,5.475c-.511.542-1.088,1.022-1.635,1.531l-.036-.008A.184.184,0,0,0,1190.691,289.867Zm-1.14-10.652a3.234,3.234,0,1,0,3.225,3.207A3.254,3.254,0,0,0,1189.551,279.215Z" transform="translate(-19.116 -79.528)" fill="#f7da49"/>
    <path id="Trazado_122139" data-name="Trazado 122139" d="M1217.322,290.314c.547-.508,1.124-.989,1.635-1.531a8.189,8.189,0,0,0,2.285-5.475,8.63,8.63,0,0,0-2.888-6.874c-.331-.316-.821-.434-1.04-.874a7.5,7.5,0,0,1,.007,14.755Z" transform="translate(-45.491 -80.014)" fill="#f1bf43"/>
    <path id="Trazado_122140" data-name="Trazado 122140" d="M1216.33,333.853a.184.184,0,0,1,.22-.047Z" transform="translate(-44.755 -123.513)" fill="#f1bf43"/>
    <path id="Trazado_122141" data-name="Trazado 122141" d="M1216.548,275.385l-.214-.057Z" transform="translate(-44.758 -79.841)" fill="#f1bf43"/>
    <path id="Trazado_122142" data-name="Trazado 122142" d="M1356.88,309.156a4.271,4.271,0,1,1,0-8.534c.2.217.389.435.585.652a5.117,5.117,0,0,1,1.417,3.773,5,5,0,0,1-1.592,3.574C1357.129,308.771,1356.923,308.9,1356.88,309.156Zm.9-4.311a1.076,1.076,0,0,0-1.11-1.047,1.112,1.112,0,0,0-1.033,1.076,1.078,1.078,0,0,0,1.094,1.065A1.043,1.043,0,0,0,1357.78,304.846Z" transform="translate(-146.421 -98.728)" fill="#f7da49"/>
    <path id="Trazado_122143" data-name="Trazado 122143" d="M1370.053,309.193c.042-.252.249-.385.414-.536a5,5,0,0,0,1.592-3.574,5.116,5.116,0,0,0-1.417-3.773c-.2-.217-.39-.434-.585-.652a4.222,4.222,0,0,1,4.137,3.943,4.33,4.33,0,0,1-3.4,4.516C1370.554,309.165,1370.3,309.169,1370.053,309.193Z" transform="translate(-159.594 -98.764)" fill="#f1bf43"/>
    <path id="Trazado_122144" data-name="Trazado 122144" d="M1202.236,291.934a3.235,3.235,0,1,1-3.246,3.192A3.238,3.238,0,0,1,1202.236,291.934Zm1.04,3.219a1.016,1.016,0,0,0-1.028-1.034,1.041,1.041,0,0,0-1.076,1.059,1.06,1.06,0,0,0,1.038,1.044A1.041,1.041,0,0,0,1203.276,295.153Z" transform="translate(-31.802 -92.247)" fill="#010101"/>
    <path id="Trazado_122145" data-name="Trazado 122145" d="M1367.282,314.26a1.043,1.043,0,0,1-1.049,1.094,1.078,1.078,0,0,1-1.094-1.065,1.112,1.112,0,0,1,1.033-1.076A1.076,1.076,0,0,1,1367.282,314.26Z" transform="translate(-155.923 -108.142)" fill="#010101"/>
    <path id="Trazado_122146" data-name="Trazado 122146" d="M1209.72,301.6a1.042,1.042,0,0,1-1.066,1.07,1.06,1.06,0,0,1-1.038-1.044,1.041,1.041,0,0,1,1.076-1.059A1.016,1.016,0,0,1,1209.72,301.6Z" transform="translate(-38.245 -98.699)" fill="#f1f3f4"/>
  </g>
</svg>
