<svg xmlns="http://www.w3.org/2000/svg" width="105" height="102" viewBox="0 0 105 102"><g transform="translate(-1125 -3189)"><rect width="105" height="102" transform="translate(1125 3189)" fill="#adce32"/><g transform="translate(343.745 3129.537)"><path d="M848.68,88.024c.284-.757.595-.936,1.365-.84,2.1.263,4.2.5,6.295.78.328.043.373-.053.445-.335a1.784,1.784,0,0,1,2.163-1.451c.878.109,1.756.217,2.635.309a1.88,1.88,0,0,1,1.926,2.385q-.463,3.887-.938,7.773a1.794,1.794,0,0,1-2.06,1.745c-.407-.021-.51.073-.506.478q.03,3.173,0,6.347c0,.442.136.573.553.532,1.866-.185,2.812.474,2.693,2.751-.08,1.529,0,3.065-.026,4.6-.008.429.118.531.536.532,1.629,0,2.313.712,2.315,2.332,0,.669.01,1.339,0,2.008a1.841,1.841,0,0,1-1.2,1.823.5.5,0,0,0-.368.565q.013,8.258,0,16.516c0,.327.073.474.424.437a4.2,4.2,0,0,1,.777,0,1.563,1.563,0,0,1,1.534,1.6q.031,1.554,0,3.109a1.561,1.561,0,0,1-1.6,1.6c-.173.007-.345,0-.518,0H802.994c-1.584,0-2.1-.511-2.1-2.078,0-.842-.007-1.684,0-2.526a1.527,1.527,0,0,1,1.433-1.681c.431-.054.454-.239.453-.578-.011-2.159,0-4.318-.007-6.477a3.615,3.615,0,0,1,2.348-3.658.472.472,0,0,0,.33-.529c-.011-2.094-.016-4.188,0-6.282,0-.33-.141-.431-.4-.543a3.66,3.66,0,0,1-.007-6.8.547.547,0,0,0,.406-.6q-.023-3.141,0-6.282c0-.366-.071-.525-.476-.577a1.7,1.7,0,0,1-1.637-2.1c.341-2.783.714-5.562,1.085-8.341.41-3.078.845-6.153,1.243-9.232a5.44,5.44,0,0,1,.967-2.369c1.063-1.571,2.171-3.113,3.238-4.682a2,2,0,0,1,2.212-.929c1.7.291,3.419.467,5.128.7A1.693,1.693,0,0,1,818.8,80.03c-.085.944-.219,1.885-.369,2.822-.06.373.039.478.407.521q4.531.53,9.058,1.106a.668.668,0,0,0,.659-.256,7.361,7.361,0,0,1,12.033,1.443.726.726,0,0,0,.627.446c1.308.137,2.612.321,3.918.484.872.109,1.067.295,1.185,1.152a1.1,1.1,0,0,1-1.4.8c-1.02-.138-2.044-.248-3.063-.389-.349-.048-.44.052-.415.4.037.512.006,1.028,0,1.543l-.476,1.8c3.482.433,6.936.861,10.389,1.3.3.038.477,0,.491-.371.019-.514.1-1.025.157-1.537.066-.443.117-.889.2-1.328.079-.4-.054-.579-.47-.613-.661-.054-1.317-.161-1.978-.226A1.044,1.044,0,0,1,848.68,88.024Zm-41.675,26.3-.151-.083a1.672,1.672,0,0,0-1.926.8,1.736,1.736,0,0,0,.2,1.928,1.571,1.571,0,0,0,1.852.462,1.645,1.645,0,0,0,1.157-1.582A1.612,1.612,0,0,0,807,114.315Zm49.221-22.527c.03-.125.07-.249.089-.375.218-1.423.218-1.423-1.187-1.637-.888-.135-.894-.136-1.011.727-.052.382-.072.768-.107,1.153-.079.5-.152,1.01-.24,1.513-.046.265.091.3.311.352,1.893.426,2.086.28,2.151-1.669A.408.408,0,0,0,856.226,91.794Zm-21.9,8.509c.431.009.863,0,1.292.033.355.028.437-.12.43-.446-.019-.8-.006-1.6-.006-2.394,0-1.132,0-1.134-1.073-1.025-.213.022-.423.065-.635.1a11.1,11.1,0,0,1-1.792-.207c-.33-.093-.455-.02-.446.354.024,1.055.018,2.112,0,3.167,0,.316.057.473.421.452C833.118,100.3,833.722,100.312,834.324,100.3Zm-25.4-1.1c-.874-.121-1.752-.221-2.621-.373-.382-.066-.475.049-.514.409-.095.9-.251,1.79-.356,2.688-.146,1.255-.135,1.257,1.155,1.274a8.385,8.385,0,0,0,1.71.261,1.162,1.162,0,0,0,1.183-.612c.587-.928,1.183-1.852,1.809-2.754.277-.4.259-.576-.255-.63C810.333,99.4,809.63,99.3,808.926,99.208Zm50.152,8.531c-.561-.007-1.123,0-1.682-.028-.419-.025-.568.119-.558.548.025,1.078-.015,2.158.016,3.236.019.679-.323,1.588.154,1.977s1.366.111,2.075.1c.56,0,1.122-.008,1.681.019.391.019.527-.118.522-.516q-.027-2.425,0-4.85c0-.407-.146-.526-.529-.507C860.2,107.743,859.639,107.733,859.078,107.739Zm.258-11.489a4.11,4.11,0,0,1,.693.109c.493.164.6-.031.654-.5.223-2.047.5-4.089.74-6.134.15-1.282.135-1.284-1.178-1.4a6.814,6.814,0,0,1-.766-.12c-.582-.158-.834.02-.9.649-.194,1.908-.46,3.809-.667,5.716C857.743,96.13,857.761,96.132,859.336,96.25Zm-53.393,32.2a1.554,1.554,0,0,0-1.189,1.689c-.012,1.854,0,3.708,0,5.563,0,1.7,0,1.7,1.715,1.57.429.011.858.016,1.286.034.253.011.4-.045.394-.349-.012-2.342.025-4.686-.028-7.027A1.607,1.607,0,0,0,805.943,128.447Zm54.3,8.824c.363.011.727.03,1.09.032,1.212,0,1.227,0,1.207-1.188-.011-.656.293-1.536-.126-1.909-.442-.395-1.311-.091-1.993-.114a.8.8,0,0,0-.187.039c-1.443-.014-2.885-.021-4.328-.046-.3-.005-.354.135-.351.393.01.819.013,1.638,0,2.457,0,.274.068.378.359.373C857.36,137.284,858.8,137.281,860.247,137.271Zm-33.55-49.1.469-1.807c-2.792-.348-5.564-.677-8.329-1.05-.589-.079-.806.1-.824.663-.012.385-.077.767-.118,1.151-.076.51-.143,1.022-.231,1.531-.041.241-.055.391.272.43q4.168.495,8.331,1.024c.331.042.458-.024.432-.394C826.662,89.206,826.694,88.687,826.7,88.171Zm35.234,27.459c-2.519-.012-5.038-.019-7.557-.043-.334,0-.391.142-.383.426.015.516.016,1.034,0,1.55-.009.283.04.428.379.425,2.52-.022,5.039-.025,7.559-.035.6.009,1.2.007,1.8.033.326.015.4-.131.389-.422-.017-.515-.016-1.032,0-1.547.008-.287-.06-.443-.388-.429C863.133,115.616,862.532,115.617,861.931,115.63ZM841.8,124.813l.083-.092c-.012,0-.034-.011-.035-.008-.018.033-.032.067-.047.1a.319.319,0,0,0,.069-.3c-.482-2.162-.968-4.323-1.439-6.488-.059-.272-.173-.255-.346-.139-1.4.943-2.807,1.889-4.248,2.861.807.542,1.563,1.038,2.306,1.55C839.361,123.138,840.639,123.891,841.8,124.813Zm-15.467,0,5.952-4.082c-1.413-.947-2.775-1.852-4.126-2.772-.3-.206-.4-.188-.478.2-.443,2.061-.921,4.114-1.379,6.171-.035.157-.127.335.029.486l-.029-.107-.065.032Zm33.9,2.842c-1.44-.014-2.88-.023-4.321-.046-.3,0-.358.129-.356.391q.013,1.872,0,3.744c0,.276.078.376.364.372,1.441-.021,2.883-.024,4.324-.033.624.01,1.249.005,1.873.034.346.016.44-.118.436-.449-.016-1.207-.011-2.414,0-3.621,0-.279-.047-.456-.382-.442C861.526,127.631,860.881,127.638,860.237,127.653Zm-4.649-5.67c-.008,1.1-.009,2.2-.03,3.294-.005.278.074.374.362.37,1.443-.022,2.885-.026,4.328-.036.646.011,1.292.014,1.938.036.283.009.37-.1.369-.38q-.014-2.459,0-4.918c0-.3-.093-.415-.406-.414q-3.106.016-6.213,0c-.276,0-.389.084-.378.367C855.579,120.863,855.579,121.423,855.588,121.983ZM810.481,97.377c.209.148.47.06.685.14,1.284.476,2.035-.03,2.625-1.2a7.971,7.971,0,0,0,1.288-2.987c.024-.332-.068-.421-.345-.454-.77-.091-1.539-.186-2.308-.279-1.746-.235-3.494-.464-5.238-.711-.285-.041-.427-.028-.467.313q-.253,2.145-.563,4.282c-.042.287.017.37.3.4C807.8,97.048,809.127,97.3,810.481,97.377Zm30.585,7.239c.625.005,1.251,0,1.876.019.318.009.48-.083.466-.435-.02-.5-.021-.992,0-1.488.016-.358-.156-.438-.469-.428-.625.019-1.25.016-1.875.022q-7.936-.009-15.872-.026c-.39,0-.477.156-.461.5.021.453.021.907,0,1.36-.016.346.077.5.464.5Q833.13,104.617,841.066,104.616ZM820.2,137.267c1.168.1,1.172.1,1.395-.894q2.091-9.334,4.18-18.669c.79-3.532,1.57-7.066,2.379-10.594.1-.426.026-.536-.4-.51a11,11,0,0,1-1.489,0c-.442-.034-.637.134-.658.564a5.206,5.206,0,0,1-.09.57c-.045.142-.1.282-.134.427q-1.052,4.691-2.1,9.382c-.187.835-.431,1.037-1.267,1.083a1.118,1.118,0,0,1-.671-1.469c.778-3.38,1.517-6.769,2.287-10.15.08-.352.087-.587-.246-.824a1.553,1.553,0,0,1-.616-1.359c.008-.864-.006-1.727,0-2.591a1.73,1.73,0,0,1,1.937-1.9c1.641-.006,3.283-.008,4.924,0,.333,0,.511-.04.5-.445-.023-1.382-.016-2.764,0-4.146a.625.625,0,0,0-.328-.574,7.029,7.029,0,0,1-2.284-2.6.658.658,0,0,0-.581-.405c-2.85-.335-5.7-.693-8.546-1.04-1.066-.13-1.1-.126-1.174.951a10.6,10.6,0,0,1-1.969,5.583c-1.416,1.98-2.706,4.051-4.013,6.106a3.147,3.147,0,0,1-3.252,1.639c-.432-.054-.6.023-.594.515.029,1.964.02,3.93,0,5.895a.607.607,0,0,0,.421.673,3.656,3.656,0,0,1-.018,6.764.558.558,0,0,0-.4.613q.023,3.077,0,6.154a.559.559,0,0,0,.394.619,3.585,3.585,0,0,1,2.3,3.562c0,2.181.013,4.362-.011,6.542,0,.445.1.578.559.571,1.879-.029,3.758-.033,5.637,0,.487.009.6-.184.695-.6q1.61-7.289,3.254-14.57c.189-.843.427-1.041,1.264-1.086.767.432.857.66.635,1.651q-1.494,6.669-2.991,13.337C818.836,137.387,818.835,137.387,820.2,137.267ZM833.678,94.5a5.191,5.191,0,0,0,4.912-2.369,5.377,5.377,0,0,0-2.189-7.848,3.674,3.674,0,0,0-.519-.254,5.25,5.25,0,0,0-5.465,1.115,5.136,5.136,0,0,0-1.56,5.458A5.225,5.225,0,0,0,833.678,94.5Zm6.491,13.231a1.459,1.459,0,0,0,.013.257q3.133,13.971,6.272,27.939c.328,1.461.34,1.459,1.871,1.342.963.073.964.072.8-.664q-3.2-14.318-6.4-28.635c-.306-1.367-.309-1.367-1.763-1.367C839.785,106.606,839.785,106.606,840.169,107.733Zm-26.059-28.1c-.682-.1-1.369-.17-2.046-.294a.7.7,0,0,0-.8.371c-.984,1.442-1.988,2.87-2.979,4.307a3.152,3.152,0,0,0-.616,1.271c-.21,1.384-.375,2.775-.576,4.16-.049.341.082.467.4.506q2.6.323,5.191.658c.747.1,1.5.18,2.24.317.373.069.465-.024.513-.392q.66-5.063,1.366-10.121c.047-.343-.067-.473-.385-.508C815.649,79.82,814.88,79.724,814.11,79.632Zm48.836,59.653c-.3-.013-.6-.037-.9-.037q-28.822,0-57.643,0c-1.553,0-1.557,0-1.551,1.54,0,1-.122.878.913.878q29.21,0,58.42,0c.259,0,.518-.012.776-.018.15.009.3.023.45.024,2,.019,1.992.019,1.9-1.969-.015-.307-.071-.495-.429-.474A15.641,15.641,0,0,0,862.946,139.285Zm-4.893-37.366c0-1.058-.028-2.117.012-3.174.02-.516-.122-.7-.66-.744a1.7,1.7,0,0,1-1.654-1.8c.016-.461-.146-.551-.528-.55a4.383,4.383,0,0,1-.511-.08L840.32,93.823a4.664,4.664,0,0,0-2.313,1.9c0,.043,0,.086,0,.13,0,1.317.017,2.635-.01,3.951-.009.437.136.537.552.532,1.684-.023,3.369-.021,5.053,0a1.674,1.674,0,0,1,1.756,1.749c.02.928,0,1.857.005,2.785a1.485,1.485,0,0,1-.6,1.3c-.373.255-.325.518-.243.881q3.206,14.249,6.39,28.5c.4,1.811.391,1.8,2.215,1.76.357-.009.482-.092.481-.47q-.017-8.259,0-16.517a.462.462,0,0,0-.346-.514,1.852,1.852,0,0,1-1.233-1.864c-.008-.648,0-1.3,0-1.943,0-1.692.631-2.351,2.332-2.374.41-.006.5-.128.5-.516-.022-1.511.049-3.026-.023-4.534-.1-2.078.573-3.06,2.755-2.83.443.046.485-.165.478-.527C858.042,104.121,858.054,103.02,858.054,101.919Zm-16.577,25.054a1.149,1.149,0,0,0-.158-.18c-2.306-1.551-4.618-3.094-6.915-4.657-.3-.206-.49-.109-.74.059q-3.295,2.224-6.6,4.433c-.138.093-.319.146-.376.359,1.84.972,3.743,1.849,5.505,2.949a3.06,3.06,0,0,0,3.716.022C837.676,128.836,839.6,127.963,841.477,126.973Zm-2.069-10.991c-1.707-1.553-3.38-3.073-5.05-4.6-.179-.163-.312-.241-.537-.033-1.679,1.54-3.37,3.067-5.092,4.629,1.729,1.16,3.412,2.285,5.088,3.42a.394.394,0,0,0,.517-.009C836.009,118.258,837.691,117.133,839.407,115.981Zm2.33,21.3.021-.11c-2.468-1.306-4.938-2.606-7.4-3.926-.291-.156-.479-.038-.707.082q-3.508,1.855-7.016,3.711c-.086.046-.273.041-.224.242Zm-18.154-.859L831.975,132c-1.949-1.032-3.791-2.005-5.631-2.981-.99-.525-.983-.524-1.22.54C824.634,131.763,824.136,133.964,823.583,136.423ZM836.177,132c2.642,1.4,5.168,2.736,7.7,4.067.157.083.341.292.518.124.152-.144.023-.365-.019-.55q-.666-2.958-1.334-5.915c-.273-1.208-.274-1.211-1.38-.627C839.857,130.049,838.055,131,836.177,132Zm-7.36-18.935c.12-.031.223-.028.278-.078,1.1-.992,2.2-1.993,3.3-2.985.179-.161.15-.264-.013-.409-.749-.671-1.49-1.351-2.3-2.089Zm9.251-5.564c-.81.735-1.519,1.393-2.247,2.03-.242.212-.234.339,0,.549.888.786,1.755,1.6,2.641,2.384a1.738,1.738,0,0,0,.842.6Zm-6.042-.874c.678.616,1.231,1.119,1.786,1.621.126.114.239.258.431.082.587-.54,1.18-1.073,1.875-1.7Z" transform="translate(0)" fill="#030303"/><path d="M957.048,119.884c0-.515.032-1.031,0-1.543-.025-.352.066-.453.415-.4,1.019.141,2.043.251,3.063.389a1.1,1.1,0,0,0,1.4-.8l2.365.277a1.044,1.044,0,0,0,1.079,1.108c.661.065,1.317.172,1.978.226.416.034.549.209.47.613-.087.439-.137.885-.2,1.328-1.833-.127-3.645-.427-5.468-.638C960.445,120.242,958.746,120.068,957.048,119.884Z" transform="translate(-115.606 -29.778)" fill="#f5d47f"/><path d="M868.535,318.274c-.259.007-.518.018-.776.018q-29.21,0-58.42,0c-1.035,0-.908.117-.913-.878-.006-1.54,0-1.54,1.551-1.54q28.821,0,57.643,0c.3,0,.6.024.9.037Q868.529,317.092,868.535,318.274Z" transform="translate(-5.576 -176.626)" fill="#3f5e7a"/><path d="M830.355,96.361q-2.6-.33-5.191-.658c-.314-.039-.445-.165-.4-.506.2-1.385.366-2.776.576-4.16a3.152,3.152,0,0,1,.616-1.271c.991-1.437,1.995-2.865,2.979-4.307a.7.7,0,0,1,.8-.371c.677.125,1.364.2,2.046.294a19.788,19.788,0,0,1-.319,2.928c-.163,1.506-.381,3.005-.588,4.506C830.71,94,830.528,95.179,830.355,96.361Z" transform="translate(-17.67 -5.75)" fill="#cf8960"/><path d="M960.325,224.038c-1.532.117-1.543.119-1.871-1.342q-3.141-13.969-6.272-27.939a1.5,1.5,0,0,1-.013-.257c1.326,0,1.658.244,1.953,1.553.528,2.34,1.022,4.688,1.543,7.03q1.479,6.651,2.972,13.3C959.206,218.932,959.763,221.486,960.325,224.038Z" transform="translate(-112 -86.766)" fill="#f5d47f"/><path d="M912.763,112.785a5.225,5.225,0,0,1-4.82-3.9,5.136,5.136,0,0,1,1.56-5.458,5.25,5.25,0,0,1,5.465-1.115,3.672,3.672,0,0,1,.519.254,2.091,2.091,0,0,0,.16.341,6.165,6.165,0,0,1,1.036,5.173,6.314,6.314,0,0,1-3.614,4.424C912.929,112.573,912.777,112.595,912.763,112.785Zm3.517-5.359a3.127,3.127,0,1,0-3.1,3.159A3.157,3.157,0,0,0,916.28,107.426Z" transform="translate(-79.085 -18.283)" fill="#3e5c78"/><path d="M880.579,191.249a5.208,5.208,0,0,0,.09-.57c.021-.43.215-.6.658-.564a11,11,0,0,0,1.489,0c.423-.025.5.085.4.51-.81,3.528-1.589,7.062-2.379,10.594q-2.089,9.335-4.18,18.669c-.223,1-.227.995-1.395.894a4.081,4.081,0,0,1,.047-.578c.371-1.676.752-3.349,1.127-5.024q1.749-7.82,3.5-15.641c.566-2.534,1.12-5.07,1.705-7.6.12-.519-.086-.674-.536-.692C880.925,191.243,880.752,191.249,880.579,191.249Z" transform="translate(-55.059 -83.518)" fill="#edb867"/><path d="M877.086,194.489c.173,0,.346-.006.518,0,.451.018.656.173.536.692-.585,2.529-1.139,5.066-1.705,7.6q-1.747,7.821-3.5,15.641c-.375,1.675-.756,3.348-1.127,5.024a4.1,4.1,0,0,0-.047.578c-1.365.12-1.364.12-1.063-1.22q1.5-6.668,2.991-13.337c.222-.991.132-1.219-.635-1.651l.527-2.434c.836-.046,1.08-.248,1.267-1.083q1.052-4.69,2.1-9.382C876.985,194.771,877.041,194.631,877.086,194.489Z" transform="translate(-51.566 -86.757)" fill="#f5d47f"/><path d="M909.038,175.837q-7.936.009-15.872.025c-.386,0-.48-.155-.464-.5.021-.452.021-.907,0-1.36-.016-.344.071-.5.461-.5q7.936.025,15.872.026Q909.036,174.682,909.038,175.837Z" transform="translate(-67.972 -71.221)" fill="#3f5e7a"/><path d="M959.673,220.826c-.562-2.552-1.118-5.106-1.687-7.656q-1.481-6.651-2.972-13.3c-.521-2.342-1.015-4.69-1.543-7.03-.3-1.309-.628-1.552-1.953-1.553-.384-1.126-.384-1.126.79-1.126,1.453,0,1.457,0,1.763,1.367q3.2,14.317,6.4,28.635C960.637,220.9,960.636,220.9,959.673,220.826Z" transform="translate(-111.348 -83.555)" fill="#edb867"/><path d="M846.313,97.251c.173-1.182.355-2.362.519-3.545.207-1.5.426-3,.588-4.506a19.788,19.788,0,0,0,.319-2.928c.77.092,1.539.188,2.309.274.317.036.432.165.385.508q-.7,5.058-1.366,10.121c-.048.368-.141.46-.513.392C847.812,97.43,847.06,97.353,846.313,97.251Z" transform="translate(-33.629 -6.64)" fill="#ba7040"/><path d="M825.463,138.909c-1.354-.073-2.685-.329-4.028-.493-.279-.034-.337-.117-.3-.4q.311-2.137.563-4.282c.04-.341.182-.354.467-.313,1.745.247,3.492.476,5.238.711a6.187,6.187,0,0,1-1.4,3.648C825.77,138.119,825.44,138.432,825.463,138.909Z" transform="translate(-14.982 -41.531)" fill="#f4f6f7"/><path d="M1011.463,243.545c-.009-.56-.009-1.12-.03-1.68-.011-.284.1-.368.378-.367q3.107.013,6.213,0c.313,0,.408.11.406.414q-.016,2.459,0,4.918c0,.275-.086.389-.369.38-.646-.022-1.292-.025-1.938-.036,0-.733.02-1.466,0-2.2a1.382,1.382,0,0,0-1.485-1.431C1013.577,243.538,1012.52,243.544,1011.463,243.545Z" transform="translate(-155.876 -121.562)" fill="#dfdee5"/><path d="M1016.127,275.519c-1.441.009-2.883.012-4.324.033-.287,0-.367-.1-.364-.372q.017-1.872,0-3.744c0-.262.061-.4.357-.391,1.44.023,2.88.032,4.32.047Q1016.122,273.3,1016.127,275.519Z" transform="translate(-155.881 -143.437)" fill="#f8d680"/><path d="M955.716,126.612c1.7.184,3.4.358,5.093.554,1.823.211,3.636.511,5.468.638-.056.512-.139,1.023-.158,1.537-.014.374-.186.409-.491.371-3.453-.435-6.906-.863-10.389-1.3Z" transform="translate(-114.273 -36.506)" fill="#edb867"/><path d="M1013.337,227.115c-2.52.009-5.039.013-7.559.035-.34,0-.388-.143-.379-.425.016-.516.015-1.034,0-1.55-.008-.283.048-.429.383-.426,2.519.023,5.038.031,7.557.043Q1013.338,225.953,1013.337,227.115Z" transform="translate(-151.408 -109.162)" fill="#f8d680"/><path d="M866.382,109.918c.041-.383.106-.766.118-1.151.018-.562.235-.743.824-.663,2.765.373,5.537.7,8.329,1.05l-.469,1.807a19.829,19.829,0,0,1-2.557-.258C870.546,110.436,868.464,110.179,866.382,109.918Z" transform="translate(-48.487 -22.79)" fill="#f5d47f"/><path d="M865.663,115.142c2.082.261,4.164.517,6.244.785a19.833,19.833,0,0,0,2.557.258c0,.516-.035,1.035,0,1.549.027.37-.1.436-.432.394q-4.164-.524-8.331-1.024c-.328-.039-.314-.189-.272-.43C865.52,116.164,865.587,115.652,865.663,115.142Z" transform="translate(-47.768 -28.014)" fill="#edb867"/><path d="M927.168,114.409c.014-.19.166-.212.3-.279a6.314,6.314,0,0,0,3.614-4.424,6.165,6.165,0,0,0-1.036-5.173,2.091,2.091,0,0,1-.16-.341,5.377,5.377,0,0,1,2.189,7.848A5.191,5.191,0,0,1,927.168,114.409Z" transform="translate(-93.49 -19.907)" fill="#314c63"/><path d="M1011.465,249.373c1.057,0,2.114-.007,3.17,0a1.382,1.382,0,0,1,1.485,1.431c.024.732,0,1.466,0,2.2-1.443.01-2.885.014-4.328.036-.288,0-.367-.092-.362-.37C1011.456,251.569,1011.457,250.471,1011.465,249.373Z" transform="translate(-155.878 -127.39)" fill="#f8f6f7"/><path d="M1016.125,299.179c-1.443.01-2.887.013-4.33.036-.292,0-.364-.1-.359-.373.015-.819.012-1.638,0-2.457,0-.258.046-.4.351-.393,1.442.025,2.885.032,4.328.046Q1016.12,297.609,1016.125,299.179Z" transform="translate(-155.878 -161.908)" fill="#f8f6f7"/><path d="M820.348,274.034a1.607,1.607,0,0,1,2.175,1.48c.053,2.341.016,4.685.028,7.027,0,.3-.141.359-.394.349-.428-.018-.858-.023-1.287-.034,0-2.2-.021-4.4.012-6.6A3.979,3.979,0,0,0,820.348,274.034Z" transform="translate(-14.405 -145.587)" fill="#edb867"/><path d="M816.94,274.28a3.978,3.978,0,0,1,.535,2.222c-.034,2.2-.012,4.4-.012,6.6-1.715.133-1.715.133-1.715-1.57,0-1.854-.008-3.709,0-5.563A1.554,1.554,0,0,1,816.94,274.28Z" transform="translate(-10.997 -145.833)" fill="#f8d680"/><path d="M837.823,140.983c-.023-.476.307-.789.547-1.133a6.186,6.186,0,0,0,1.4-3.648c.769.093,1.539.188,2.309.279.278.033.369.121.345.454a7.97,7.97,0,0,1-1.288,2.987c-.589,1.17-1.341,1.677-2.625,1.2C838.293,141.043,838.032,141.131,837.823,140.983Z" transform="translate(-27.342 -43.606)" fill="#dfdee5"/><path d="M1021.729,127.167c-1.575-.118-1.593-.12-1.423-1.685.208-1.907.473-3.808.667-5.716.064-.629.316-.807.9-.649a6.813,6.813,0,0,0,.766.12,7.568,7.568,0,0,1-.009.9C1022.336,122.481,1022.03,124.824,1021.729,127.167Z" transform="translate(-162.393 -30.917)" fill="#cf8960"/><path d="M1018.373,200.265c-.708.013-1.594.293-2.075-.1s-.135-1.3-.154-1.977c-.031-1.078.009-2.158-.016-3.236-.01-.429.138-.573.558-.548.559.033,1.121.021,1.682.028Q1018.371,197.35,1018.373,200.265Z" transform="translate(-159.29 -86.696)" fill="#3f5e7a"/><path d="M1025,200.278l-.005-5.83c.56-.006,1.121,0,1.681-.024.383-.019.533.1.529.507q-.029,2.425,0,4.85c0,.4-.131.535-.522.516C1026.124,200.27,1025.563,200.283,1025,200.278Z" transform="translate(-165.919 -86.71)" fill="#314c63"/><path d="M825.181,161.666c.7.089,1.406.189,2.112.262.514.054.532.231.255.63-.626.9-1.222,1.826-1.809,2.754a1.162,1.162,0,0,1-1.183.612,8.385,8.385,0,0,1-1.71-.261,19.612,19.612,0,0,1,1.525-2.5A4.865,4.865,0,0,0,825.181,161.666Z" transform="translate(-16.255 -62.458)" fill="#ba7040"/><path d="M1029.467,275.51q0-2.215-.01-4.429c.645-.015,1.29-.022,1.934-.049.335-.014.384.163.382.442-.009,1.207-.013,2.414,0,3.621,0,.331-.09.465-.436.449C1030.716,275.515,1030.091,275.519,1029.467,275.51Z" transform="translate(-169.22 -143.427)" fill="#edb867"/><path d="M1025.989,127.665c.3-2.343.607-4.686.9-7.03a7.62,7.62,0,0,0,.009-.9c1.314.117,1.328.119,1.178,1.4-.239,2.046-.517,4.087-.74,6.134-.051.472-.161.667-.654.5A4.115,4.115,0,0,0,1025.989,127.665Z" transform="translate(-166.653 -31.415)" fill="#ba7040"/><path d="M821.709,160.552a4.865,4.865,0,0,1-.81,1.5,19.612,19.612,0,0,0-1.525,2.5c-1.29-.017-1.3-.018-1.155-1.274.1-.9.261-1.789.356-2.688.038-.36.131-.476.514-.409C819.957,160.331,820.835,160.431,821.709,160.552Z" transform="translate(-12.783 -61.344)" fill="#cf8960"/><path d="M923.294,154.546c-.6.009-1.207,0-1.808.032-.363.021-.425-.136-.421-.452.015-1.055.021-2.112,0-3.167-.008-.374.116-.447.446-.354a11.1,11.1,0,0,0,1.792.207Z" transform="translate(-88.97 -54.242)" fill="#f8f6f7"/><path d="M1029.47,298.942q-.005-1.57-.01-3.14a.792.792,0,0,1,.187-.039c.682.023,1.551-.281,1.994.114.419.373.115,1.253.126,1.909.021,1.19.006,1.192-1.207,1.188C1030.2,298.972,1029.833,298.952,1029.47,298.942Z" transform="translate(-169.223 -161.67)" fill="#dfdee5"/><path d="M817.909,222.643a1.571,1.571,0,0,1-1.852-.462,1.736,1.736,0,0,1-.2-1.928,1.672,1.672,0,0,1,1.926-.8l.151.083,0-.006a3.071,3.071,0,0,1,.058,2.748A1.161,1.161,0,0,0,817.909,222.643Z" transform="translate(-10.931 -105.212)" fill="#cf8960"/><path d="M929.658,154.83q0-1.867.007-3.733c.212-.034.422-.077.635-.1,1.073-.109,1.073-.107,1.073,1.025,0,.8-.012,1.6.006,2.394.008.326-.075.474-.43.446C930.521,154.829,930.089,154.839,929.658,154.83Z" transform="translate(-95.334 -54.527)" fill="#dfdee5"/><path d="M1039.906,318.215q-.005-1.182-.011-2.363a15.679,15.679,0,0,1,1.929-.056c.358-.021.414.167.429.474.1,1.989.1,1.989-1.9,1.969C1040.207,318.238,1040.057,318.223,1039.906,318.215Z" transform="translate(-176.948 -176.567)" fill="#2d4458"/><path d="M955.614,175.846q0-1.154,0-2.309c.625-.006,1.25,0,1.875-.022.313-.01.485.07.469.428-.021.5-.02.992,0,1.488.015.352-.147.444-.466.435C956.865,175.847,956.239,175.851,955.614,175.846Z" transform="translate(-114.548 -71.23)" fill="#314c63"/><path d="M1035.975,227.119q0-1.162,0-2.324c.6-.012,1.2-.014,1.8-.041.328-.015.4.142.388.429-.015.515-.016,1.032,0,1.547.009.291-.063.436-.389.422C1037.178,227.125,1036.576,227.128,1035.975,227.119Z" transform="translate(-174.046 -109.165)" fill="#edb867"/><path d="M1005.481,127.056c.035-.384.055-.771.107-1.153.117-.863.123-.862,1.011-.727,1.4.213,1.405.214,1.187,1.637-.019.127-.059.25-.089.375C1006.95,127.274,1006.225,127,1005.481,127.056Z" transform="translate(-151.47 -35.394)" fill="#f4f6f7"/><path d="M1004.772,132.579c.744-.058,1.469.219,2.215.133a.408.408,0,0,1,.008.064c-.065,1.949-.259,2.095-2.151,1.669-.221-.05-.358-.087-.311-.352C1004.62,133.59,1004.693,133.084,1004.772,132.579Z" transform="translate(-150.761 -40.918)" fill="#dfdee5"/><path d="M824.336,222.968a1.158,1.158,0,0,1,.081-.368,3.071,3.071,0,0,0-.058-2.748,1.611,1.611,0,0,1,1.134,1.533A1.645,1.645,0,0,1,824.336,222.968Z" transform="translate(-17.358 -105.537)" fill="#ba7040"/><path d="M824.01,219.637l-.151-.083Z" transform="translate(-17.005 -105.316)" fill="#ba7040"/><path d="M898.6,259.977l-.1-.073.065-.032c.01.036.02.071.028.109Z" transform="translate(-72.27 -135.166)" fill="#f4f6f7"/><path d="M958.449,260c.015-.034.03-.069.047-.1,0,0,.023,0,.035.008l-.082.092Z" transform="translate(-116.649 -135.183)" fill="#f4f6f7"/><path d="M922.883,113.872a3.127,3.127,0,1,1-3.154-3.167A3.159,3.159,0,0,1,922.883,113.872Zm-3.116,1.186a1.19,1.19,0,1,0-1.187-1.2A1.193,1.193,0,0,0,919.767,115.058Z" transform="translate(-85.688 -24.729)" fill="#030303"/><path d="M925.328,120.68a1.191,1.191,0,1,1,1.164-1.219A1.188,1.188,0,0,1,925.328,120.68Z" transform="translate(-91.249 -30.351)" fill="#f4f6f7"/></g></g></svg>