<svg xmlns="http://www.w3.org/2000/svg" width="240" height="373" viewBox="0 0 240 373"><g transform="translate(8599 8979)"><g transform="translate(-1853 -2496)"><rect width="240" height="373" transform="translate(-6746 -6483)" fill="#cee284"/></g><g transform="translate(-9025 -11686)"><circle cx="94" cy="94" r="94" transform="translate(452 2800)" fill="#adce32"/><g transform="translate(491.015 2829.352)"><path d="M2136.062,421.413a23.6,23.6,0,0,1,5.218-6.33,1.932,1.932,0,0,0,.459-1.62q0-13.886,0-27.771c0-.421-.02-.844.02-1.262a1.884,1.884,0,1,1,3.767.05c.034.376.016.757.016,1.135q0,11.677,0,23.353v1.456c.608-.127.8-.579,1.053-.91a13.86,13.86,0,0,0,2.722-8.856c-.019-5.092-.007-10.183,0-15.275a7.056,7.056,0,0,1,.069-1.256,1.858,1.858,0,0,1,3.668.034,7.484,7.484,0,0,1,.063,1.257q0,39.827.017,79.653A17.622,17.622,0,0,1,2147.6,478.4c-.88.845-1.7,1.75-2.6,2.581a10.107,10.107,0,0,0-3.264,7.89c.052,6.69.017,13.381.015,20.071,0,2.452-.477,2.918-2.966,2.918q-2.9,0-5.806,0c-2.021,0-2.6-.585-2.6-2.643-.006-6.606-.079-13.214.029-19.818.057-3.558-.972-6.563-3.719-8.836-5.874-4.859-7.859-11.044-7.777-18.621.272-25.37.1-50.745.1-76.118a13.333,13.333,0,0,1,.038-1.512,1.789,1.789,0,0,1,1.822-1.735,1.833,1.833,0,0,1,1.913,1.778,11.594,11.594,0,0,1,.031,1.261c.032,5.679-.01,11.36.123,17.037a12.007,12.007,0,0,0,3.435,7.867,2.259,2.259,0,0,0,.207-1.4q.013-11.739.007-23.479a11.533,11.533,0,0,1,.027-1.261,1.878,1.878,0,0,1,3.755.042c.042.417.021.841.022,1.261,0,9.257.01,18.514-.017,27.771a2.47,2.47,0,0,0,.83,1.976A21.613,21.613,0,0,1,2136.062,421.413Zm7.57,12.632a14.514,14.514,0,0,0,5.693-12.278c-.092-2.681-.012-5.368-.022-8.052,0-.35.1-.733,0-.869l-5.935,5.559a14.019,14.019,0,0,0-5.411,11.763c.084,2.768.01,5.541.023,8.311,0,.348-.138.738-.034.855Zm.057,21.376c3.526-2.955,5.631-6.612,5.617-11.325-.01-3.193,0-6.386-.007-9.579,0-.152.036-.347.144-.317l-5.813,5.395c-3.246,2.715-5.475,6-5.6,10.376-.076,2.6-.043,5.2-.056,7.8,0,1.068,0,2.137,0,2.955Zm-.067,5.616c-3.41,2.849-5.607,6.326-5.631,10.917-.017,3.278-.01,6.556-.009,9.835,0,.2-.038.431.331.519l1.319-1.432a82.894,82.894,0,0,0,6.74-6.793,11.507,11.507,0,0,0,2.862-7.38c.077-3.614.047-7.23.054-10.846,0-.1-.085-.2-.011-.039ZM2122.9,433.984a4.789,4.789,0,0,0-.076.556c0,3.2-.011,6.395,0,9.592a13.711,13.711,0,0,0,4.453,10.212c2.063,1.981,4.04,4.05,6.068,6.067.212.211.311.617.79.543,0-3.535.035-7.067-.009-10.6a13.02,13.02,0,0,0-4.178-9.418C2127.638,438.673,2125.341,436.391,2122.9,433.984Zm-.055-21.492c0,3.61-.014,7.039,0,10.468a13.6,13.6,0,0,0,4.519,10.046c2.03,1.952,3.978,3.989,5.977,5.974.208.206.308.623.772.515,0-3.62.047-7.233-.013-10.845a12.5,12.5,0,0,0-3.821-8.791C2127.9,417.438,2125.454,415.069,2122.847,412.492Zm.039,43.222c0,3.595-.041,7.326.015,11.055a10.818,10.818,0,0,0,2.153,6.352c2.556,3.445,5.922,6.126,8.782,9.206.36-.144.317-.336.317-.486-.014-3.573.022-7.148-.072-10.72a11.16,11.16,0,0,0-3.067-7.548C2128.413,460.844,2125.6,458.32,2122.885,455.714Zm11.279,32.334v17.49c0,2.541,0,2.474,2.554,2.563,1.116.039,1.282-.349,1.273-1.345-.047-5.721-.02-11.442-.029-17.162a2.125,2.125,0,0,0-.167-1.3C2136.664,489.32,2135.509,489.451,2134.164,488.048Z" transform="translate(-2118.909 -382.563)" fill="#090807"/><path d="M2276.163,410.525a2.649,2.649,0,0,0,.2-1.506q.013-11.8.011-23.606a6,6,0,0,1,.12-1.5,1.848,1.848,0,0,1,3.545-.025,6.3,6.3,0,0,1,.13,1.626q.011,13.886-.013,27.771a2.7,2.7,0,0,0,.893,2.2,20.5,20.5,0,0,1,4.785,5.929,24.339,24.339,0,0,1,5.287-6.4,1.812,1.812,0,0,0,.4-1.518q0-14.012,0-28.024c0-2.013.631-2.947,1.955-2.908,1.283.038,1.849.916,1.849,2.89q0,11.8,0,23.606c0,.44.037.88.069,1.592a12.1,12.1,0,0,0,3.578-8.071c.128-5.719.088-11.442.124-17.163a6.926,6.926,0,0,1,.089-1.38,1.851,1.851,0,0,1,3.61-.032,6.2,6.2,0,0,1,.1,1.379q.006,39.89.014,79.779a17.531,17.531,0,0,1-5.506,13.21c-.908.876-1.765,1.806-2.685,2.671a9.94,9.94,0,0,0-3.194,7.664c.037,6.774.013,13.549.01,20.324,0,2.305-.521,2.824-2.8,2.826q-3.029,0-6.058,0c-1.875-.005-2.508-.612-2.511-2.482-.011-6.69-.071-13.382.023-20.071a10.711,10.711,0,0,0-3.586-8.65c-.908-.812-1.731-1.72-2.6-2.579a16.788,16.788,0,0,1-5.2-12.314q-.022-40.395,0-80.79c0-1.571.733-2.44,1.947-2.406,1.167.032,1.838.868,1.849,2.382.04,5.89,0,11.781.124,17.668A12.062,12.062,0,0,0,2276.163,410.525Zm17.249,23.52a14.514,14.514,0,0,0,5.693-12.278c-.092-2.681-.012-5.368-.022-8.052,0-.35.1-.733.014-.855l-5.945,5.545a14.016,14.016,0,0,0-5.411,11.763c.084,2.768.009,5.541.023,8.311,0,.348-.138.738-.034.855Zm.057,21.376c3.526-2.955,5.631-6.612,5.617-11.325-.01-3.193,0-6.386-.007-9.579,0-.152.036-.347.144-.317l-5.813,5.395c-3.247,2.714-5.476,5.995-5.6,10.376-.076,2.6-.044,5.2-.056,7.8,0,1.068,0,2.137,0,2.955Zm-.067,5.616c-3.409,2.849-5.606,6.326-5.631,10.917-.017,3.278-.01,6.556-.009,9.835,0,.2-.038.431.331.519l1.319-1.432a82.745,82.745,0,0,0,6.741-6.793,11.506,11.506,0,0,0,2.862-7.38c.077-3.614.046-7.23.054-10.846,0-.1-.085-.2-.011-.039ZM2272.679,434.1c0,3.705-.045,7.394.015,11.082a10.869,10.869,0,0,0,2.9,7.484c2.684,2.812,5.633,5.371,8.468,8.038-.172.128-.123-.022-.123-.172,0-3.365.016-6.731-.021-10.1a12.326,12.326,0,0,0-3.452-8.693C2277.963,439.148,2275.323,436.685,2272.679,434.1Zm11.2,5.067c0-3.428.041-7.167-.015-10.906a10.919,10.919,0,0,0-2.142-6.356c-2.561-3.488-5.986-6.16-9.044-9.524,0,3.974-.044,7.657.014,11.338a11.016,11.016,0,0,0,2.957,7.588C2278.3,434.095,2281.208,436.64,2283.879,439.169Zm.061,43.135c0-3.27-.026-6.49.007-9.709a13.6,13.6,0,0,0-4.265-10.279c-2.134-2.087-4.216-4.227-6.331-6.334-.18-.18-.275-.562-.678-.393,0,3.784-.078,7.565.026,11.342a11,11,0,0,0,3.08,7.41C2278.358,477.042,2281.12,479.569,2283.94,482.3Zm.005,5.9v17.336c0,2.541,0,2.5,2.554,2.554.933.019,1.289-.158,1.279-1.207-.057-5.8-.024-11.61-.033-17.415,0-.362.118-.75-.12-1.094C2285.814,489.392,2285.687,489.391,2283.945,488.2Z" transform="translate(-2192.94 -382.562)" fill="#090807"/><path d="M2201.538,410.357q0-2.621,0-5.241a14.257,14.257,0,0,1,.032-1.513,1.856,1.856,0,0,1,1.916-1.784,1.793,1.793,0,0,1,1.81,1.758c.069.963.039,1.934.041,2.9,0,2.4.018,4.8-.01,7.195a1.93,1.93,0,0,0,.63,1.551,22.677,22.677,0,0,1,5.047,6.2,24.274,24.274,0,0,1,5.286-6.409,1.813,1.813,0,0,0,.394-1.518q0-14.012,0-28.023c0-2.011.634-2.947,1.957-2.905,1.281.04,1.844.918,1.844,2.894q0,11.8,0,23.6c0,.439.038.879.07,1.59a12.1,12.1,0,0,0,3.58-8.071c.129-5.719.089-11.442.125-17.162a7,7,0,0,1,.088-1.38,1.849,1.849,0,0,1,3.608-.036,6.231,6.231,0,0,1,.1,1.379q.006,39.889.016,79.777a17.542,17.542,0,0,1-5.5,13.21c-1.03.993-2.024,2.022-3.037,3.032a9.761,9.761,0,0,0-2.842,7.3c.028,6.774.011,13.549.008,20.323,0,2.308-.52,2.828-2.8,2.829-2.02,0-4.039,0-6.058,0-1.876-.005-2.509-.611-2.511-2.481-.011-6.69-.071-13.381.023-20.07a10.835,10.835,0,0,0-3.579-8.657,44.954,44.954,0,0,1-3.865-3.982,16.023,16.023,0,0,1-3.924-10.652q-.032-30.105-.011-60.21,0-10.162-.008-20.323a7.375,7.375,0,0,1,.075-1.382,1.851,1.851,0,0,1,3.636-.032,7.535,7.535,0,0,1,.084,1.381c.035,5.721,0,11.445.123,17.164A10.7,10.7,0,0,0,2201.538,410.357Zm13.069,70.473,0,.01a83.6,83.6,0,0,0,6.645-6.68,11.615,11.615,0,0,0,2.925-7.467c.08-3.228.05-6.459.067-9.689,0-.477,0-.955,0-1.233l-5.681,5.267c-3.4,2.841-5.605,6.306-5.631,10.888-.019,3.313-.009,6.627-.007,9.94,0,.154-.024.344.224.411a2.918,2.918,0,0,0,1.137-1.221C2214.478,481.1,2214.56,480.989,2214.607,480.83Zm4.034-25.413c3.438-2.894,5.583-6.446,5.6-11.068.012-3.317.006-6.635,0-9.953,0-.1-.091-.2-.007-.028l-5.657,5.228c-3.34,2.786-5.558,6.177-5.621,10.674-.048,3.451-.021,6.9-.026,10.353,0,.167.017.336-.014.108Zm-.058-37.26c-2.933,2.442-5.15,5.372-5.51,9.276a112.247,112.247,0,0,0-.1,11.971c0,.045.114.087.175.131l-.276-.277,5.92-5.443c3.3-2.777,5.36-6.194,5.409-10.624.031-2.772.032-5.544.045-8.316,0-.731,0-1.462,0-1.962Zm-9.5,21.414c0-3.586.031-7.1-.009-10.623a13.067,13.067,0,0,0-4.153-9.419c-2.151-2.127-4.271-4.284-6.416-6.419-.178-.177-.27-.56-.678-.394,0,3.57-.034,7.14.009,10.709a12.326,12.326,0,0,0,3.672,8.717C2203.948,434.626,2206.476,437.019,2209.086,439.571Zm-11.246-5.513c0,3.723-.035,7.366.012,11.008a10.8,10.8,0,0,0,2.833,7.5c2.713,2.837,5.71,5.4,8.585,8.083-.21.184-.164.035-.165-.112-.014-3.571.022-7.144-.07-10.714a11.913,11.913,0,0,0-3.469-8.156C2203.088,439.106,2200.493,436.66,2197.84,434.058Zm11.246,48.242c0-3.524.028-7-.008-10.471a12.942,12.942,0,0,0-3.983-9.253q-1.867-1.882-3.748-3.751c-1.115-1.1-2.241-2.2-3.513-3.443,0,3.938-.062,7.668.02,11.4a11.129,11.129,0,0,0,3.076,7.551C2203.5,477.041,2206.272,479.568,2209.086,482.3Zm.02,5.733v17.509c0,2.538,0,2.472,2.562,2.56,1.116.038,1.283-.353,1.275-1.348-.046-5.718-.02-11.436-.029-17.155a2.076,2.076,0,0,0-.172-1.3C2211.609,489.314,2210.451,489.454,2209.106,488.033Z" transform="translate(-2155.98 -382.563)" fill="#070606"/><path d="M2212.722,390.3c0,1.8.02,3.609-.005,5.413-.021,1.515-.7,2.293-1.915,2.287s-1.882-.793-1.889-2.311q-.028-5.413,0-10.826c.008-1.486.729-2.315,1.912-2.306s1.873.831,1.891,2.331C2212.738,386.695,2212.721,388.5,2212.722,390.3Z" transform="translate(-2163.356 -382.56)" fill="#0e0e0e"/><path d="M2126.72,484.166c2.439,2.408,4.736,4.69,7.049,6.956a13.019,13.019,0,0,1,4.178,9.418c.044,3.53.009,7.061.009,10.6-.479.074-.578-.332-.79-.543-2.028-2.017-4.005-4.087-6.068-6.067a13.707,13.707,0,0,1-4.453-10.212c-.012-3.2,0-6.395,0-9.592A4.844,4.844,0,0,1,2126.72,484.166Z" transform="translate(-2122.727 -432.745)" fill="#f8e4b2"/><path d="M2126.685,441.7c2.607,2.577,5.049,4.946,7.438,7.366a12.5,12.5,0,0,1,3.82,8.791c.06,3.612.013,7.225.013,10.845-.464.108-.564-.309-.772-.515-2-1.985-3.947-4.022-5.977-5.974a13.6,13.6,0,0,1-4.519-10.046C2126.671,448.738,2126.685,445.309,2126.685,441.7Z" transform="translate(-2122.747 -411.77)" fill="#f5d183"/><path d="M2126.752,527.1c2.714,2.605,5.528,5.13,8.127,7.859a11.161,11.161,0,0,1,3.067,7.548c.094,3.571.058,7.146.072,10.72,0,.15.043.342-.316.486-2.86-3.08-6.226-5.761-8.782-9.206a10.822,10.822,0,0,1-2.154-6.352C2126.711,534.431,2126.752,530.7,2126.752,527.1Z" transform="translate(-2122.775 -453.953)" fill="#f6d284"/><path d="M2163.822,532.447l5.655-5.219c-.073-.166.012-.063.011.039-.007,3.615.023,7.232-.054,10.846a11.51,11.51,0,0,1-2.862,7.38,82.929,82.929,0,0,1-6.741,6.793,2.641,2.641,0,0,1,.485-1.765,28.346,28.346,0,0,0,2.786-6.834C2164.005,539.976,2163.858,536.211,2163.822,532.447Z" transform="translate(-2139.108 -453.971)" fill="#eda06a"/><path d="M2162.289,511.082l-5.719,5.3c0-.818,0-1.887,0-2.955.012-2.6-.02-5.2.056-7.8.128-4.381,2.356-7.662,5.6-10.376Q2162.259,503.168,2162.289,511.082Z" transform="translate(-2137.509 -438.222)" fill="#f1ce81"/><path d="M2162.177,469.026l-5.682,5.289c-.1-.117.036-.507.034-.855-.014-2.77.061-5.543-.023-8.311a14.017,14.017,0,0,1,5.412-11.763c.4.32.266.769.266,1.172Q2162.189,461.791,2162.177,469.026Z" transform="translate(-2137.454 -417.542)" fill="#f2ba78"/><path d="M2167.507,463.6q.006-7.234.007-14.468c0-.4.129-.852-.267-1.172l5.935-5.559c.1.136-.006.519,0,.869.01,2.684-.071,5.371.021,8.052A14.513,14.513,0,0,1,2167.507,463.6Z" transform="translate(-2142.784 -412.117)" fill="#ec9f69"/><path d="M2167.814,505.814q-.029-7.913-.059-15.827l5.814-5.395c-.108-.029-.144.165-.144.317.006,3.193,0,6.386.007,9.579C2173.445,499.2,2171.341,502.859,2167.814,505.814Z" transform="translate(-2143.034 -432.954)" fill="#f2bb79"/><path d="M2149.053,591c1.345,1.4,2.5,1.272,3.632.244a2.123,2.123,0,0,1,.167,1.3c.01,5.721-.018,11.441.029,17.162.008,1-.158,1.384-1.274,1.345-2.552-.09-2.554-.023-2.554-2.563V591Z" transform="translate(-2133.797 -485.51)" fill="#ead7a8"/><path d="M2162.234,537.626c.036,3.764.184,7.529-.719,11.24a28.334,28.334,0,0,1-2.786,6.834,2.642,2.642,0,0,0-.485,1.765l-1.319,1.432c-.369-.089-.331-.323-.331-.519,0-3.278-.008-6.557.009-9.835C2156.627,543.952,2158.824,540.475,2162.234,537.626Z" transform="translate(-2137.521 -459.15)" fill="#f3bc79"/><path d="M2276.455,484.4c2.643,2.584,5.283,5.047,7.786,7.643a12.327,12.327,0,0,1,3.452,8.692c.037,3.365.019,6.731.021,10.1,0,.15-.05.3.123.172-2.835-2.667-5.783-5.226-8.468-8.038a10.871,10.871,0,0,1-2.9-7.484C2276.409,491.794,2276.455,488.105,2276.455,484.4Z" transform="translate(-2196.715 -432.861)" fill="#f8e4b2"/><path d="M2287.654,468.271c-2.672-2.529-5.577-5.074-8.229-7.859a11.015,11.015,0,0,1-2.957-7.588c-.058-3.681-.014-7.364-.014-11.338,3.058,3.364,6.484,6.036,9.044,9.524a10.916,10.916,0,0,1,2.142,6.356C2287.695,461.1,2287.654,464.843,2287.654,468.271Z" transform="translate(-2196.715 -411.664)" fill="#f5d183"/><path d="M2287.7,553.533c-2.82-2.735-5.582-5.262-8.161-7.963a11,11,0,0,1-3.08-7.41c-.1-3.777-.026-7.559-.026-11.342.4-.169.5.213.678.393,2.114,2.107,4.2,4.248,6.331,6.334a13.6,13.6,0,0,1,4.265,10.28C2287.673,547.042,2287.7,550.262,2287.7,553.533Z" transform="translate(-2196.699 -453.79)" fill="#f6d284"/><path d="M2313.5,532.447l5.656-5.219c-.073-.166.012-.063.011.039-.008,3.615.023,7.232-.054,10.846a11.507,11.507,0,0,1-2.862,7.38,82.783,82.783,0,0,1-6.741,6.793,2.642,2.642,0,0,1,.485-1.765,28.316,28.316,0,0,0,2.785-6.834C2313.684,539.976,2313.536,536.211,2313.5,532.447Z" transform="translate(-2213.037 -453.971)" fill="#eda06a"/><path d="M2311.967,511.082l-5.719,5.3c0-.818,0-1.887,0-2.955.013-2.6-.02-5.2.056-7.8.128-4.382,2.356-7.662,5.6-10.376Q2311.937,503.168,2311.967,511.082Z" transform="translate(-2211.438 -438.222)" fill="#f1ce81"/><path d="M2311.855,469.026l-5.682,5.289c-.1-.117.035-.507.034-.855-.014-2.77.061-5.543-.023-8.311a14.016,14.016,0,0,1,5.411-11.763c.4.32.266.769.267,1.172Q2311.867,461.791,2311.855,469.026Z" transform="translate(-2211.383 -417.542)" fill="#f2ba78"/><path d="M2317.185,463.614q.006-7.234.007-14.468c0-.4.129-.852-.267-1.172l5.945-5.545c.089.121-.016.5-.014.855.01,2.684-.071,5.37.022,8.052A14.513,14.513,0,0,1,2317.185,463.614Z" transform="translate(-2216.712 -412.131)" fill="#ec9f69"/><path d="M2317.493,505.814q-.03-7.913-.059-15.827l5.813-5.395c-.108-.029-.144.165-.144.317.006,3.193,0,6.386.007,9.579C2323.124,499.2,2321.019,502.859,2317.493,505.814Z" transform="translate(-2216.964 -432.954)" fill="#f2bb79"/><path d="M2298.731,591.3c1.742,1.191,1.87,1.192,3.679.174.238.344.119.732.119,1.094.009,5.8-.023,11.61.033,17.415.01,1.049-.345,1.226-1.278,1.207-2.553-.052-2.554-.013-2.554-2.554V591.3Z" transform="translate(-2207.726 -485.659)" fill="#ead7a8"/><path d="M2311.912,537.626c.036,3.764.184,7.529-.719,11.24a28.315,28.315,0,0,1-2.786,6.834,2.641,2.641,0,0,0-.485,1.765l-1.32,1.432c-.369-.089-.331-.323-.331-.519,0-3.278-.008-6.557.009-9.835C2306.3,543.952,2308.5,540.475,2311.912,537.626Z" transform="translate(-2211.449 -459.15)" fill="#f3bc79"/><path d="M2212.845,468.957c-2.61-2.552-5.138-4.945-7.573-7.429a12.327,12.327,0,0,1-3.672-8.717c-.043-3.568-.01-7.138-.01-10.709.408-.166.5.217.678.394,2.144,2.134,4.265,4.292,6.416,6.419a13.067,13.067,0,0,1,4.153,9.419C2212.876,461.853,2212.845,465.371,2212.845,468.957Z" transform="translate(-2159.74 -411.949)" fill="#f2ba78"/><path d="M2201.609,484.313c2.653,2.6,5.248,5.048,7.726,7.608a11.915,11.915,0,0,1,3.469,8.155c.092,3.569.055,7.142.07,10.714,0,.148-.046.3.165.112-2.876-2.681-5.872-5.247-8.585-8.083a10.8,10.8,0,0,1-2.833-7.5C2201.573,491.679,2201.609,488.036,2201.609,484.313Z" transform="translate(-2159.749 -432.818)" fill="#f5d183"/><path d="M2212.839,553.366c-2.815-2.732-5.583-5.259-8.157-7.971a11.131,11.131,0,0,1-3.076-7.551c-.082-3.727-.019-7.458-.019-11.4,1.272,1.245,2.4,2.338,3.513,3.443q1.883,1.867,3.748,3.751a12.941,12.941,0,0,1,3.983,9.253C2212.868,546.368,2212.839,549.842,2212.839,553.366Z" transform="translate(-2159.734 -453.629)" fill="#f3bc79"/><path d="M2238.671,532.481l5.681-5.267c0,.278,0,.756,0,1.233-.017,3.23.013,6.461-.067,9.689a11.615,11.615,0,0,1-2.925,7.467,83.59,83.59,0,0,1-6.645,6.68c-.173-.6.185-1.051.43-1.524a33.87,33.87,0,0,0,2.811-6.951C2238.933,540.075,2238.675,536.272,2238.671,532.481Z" transform="translate(-2176.085 -454.007)" fill="#ed855d"/><path d="M2237.234,468.55l-5.92,5.443.276.277c-.061-.044-.173-.086-.174-.131a112.376,112.376,0,0,1,.1-11.971c.36-3.9,2.576-6.834,5.51-9.276q0,7.165.013,14.329C2237.039,467.667,2236.892,468.149,2237.234,468.55Z" transform="translate(-2174.422 -417.298)" fill="#ec9f69"/><path d="M2242.8,463.432c-.343-.4-.2-.883-.2-1.329q-.019-7.165-.013-14.329l5.665-5.244c0,.5,0,1.231,0,1.962-.013,2.772-.014,5.544-.044,8.316C2248.161,457.237,2246.106,460.655,2242.8,463.432Z" transform="translate(-2179.989 -412.18)" fill="#ed855d"/><path d="M2242.593,490.063l5.656-5.228c-.084-.171.008-.071.008.028.006,3.317.012,6.635,0,9.953-.016,4.622-2.161,8.174-5.6,11.068Q2242.626,497.974,2242.593,490.063Z" transform="translate(-2179.999 -433.029)" fill="#ec9f69"/><path d="M2237.068,495.256q.033,7.91.066,15.821l-5.727,5.314c.031.228.014.059.014-.108,0-3.451-.022-6.9.026-10.353C2231.51,501.433,2233.728,498.042,2237.068,495.256Z" transform="translate(-2174.473 -438.223)" fill="#f2ba78"/><path d="M2223.883,590.965c1.345,1.421,2.5,1.281,3.636.266a2.076,2.076,0,0,1,.172,1.3c.01,5.718-.017,11.437.029,17.155.008,1-.159,1.386-1.275,1.348-2.56-.088-2.562-.022-2.562-2.56V590.965Z" transform="translate(-2170.757 -485.495)" fill="#e7c57c"/><path d="M2237.07,537.622c0,3.791.262,7.593-.714,11.328a33.844,33.844,0,0,1-2.812,6.951c-.244.473-.6.928-.429,1.524l0-.01-.317.225a2.918,2.918,0,0,1-1.137,1.221c-.247-.067-.223-.258-.223-.411,0-3.313-.012-6.627.006-9.94C2231.464,543.928,2233.669,540.463,2237.07,537.622Z" transform="translate(-2174.484 -459.148)" fill="#ec9f69"/><path d="M2234.125,576.958l.317-.225C2234.4,576.892,2234.313,577,2234.125,576.958Z" transform="translate(-2175.816 -478.465)" fill="#ed855d"/></g></g></g></svg>