<svg xmlns="http://www.w3.org/2000/svg" width="112" height="113" viewBox="0 0 112 113"><g transform="translate(-744 -3486)"><ellipse cx="56" cy="56.5" rx="56" ry="56.5" transform="translate(744 3486)" fill="#ffa686"/><g transform="translate(-676.108 3077.757)"><path d="M1511.7,497.479c.285,1.2.132,1.582-.94,2.206q-16.385,9.541-32.768,19.086a2.5,2.5,0,0,1-2.78-.025q-22.4-13.068-44.822-26.1c-1.867-1.086-1.859-2.913.006-3.974s3.727-2.095,5.573-3.172a1.506,1.506,0,0,1,2.154.262c.394,1.1.234,1.611-.73,2.168-1.565.9-3.143,1.786-4.826,2.741,5.944,3.454,11.754,6.827,17.557,10.211a.755.755,0,0,0,.857.021c1.978-1.151,3.964-2.289,5.946-3.432a3.114,3.114,0,0,0,.338-.143q7.979-4.512,15.954-9.032c.117-.066.288-.107.291-.371-.672-.383-1.366-.785-2.065-1.178q-5.11-2.87-10.221-5.736c-1.794-1.038-3.593-2.067-5.376-3.122a.736.736,0,0,0-.848.059q-2.138,1.222-4.288,2.423a.807.807,0,0,0-.5.793c.03,2.262.032,4.526.043,6.789-.011.364-.01.729-.036,1.092-.075,1.052.2,2.128-.223,3.154a1.494,1.494,0,0,1-1.768.407,1.578,1.578,0,0,1-.818-1.632q.019-3.9,0-7.809c0-.253.122-.547-.167-.81-1.234.7-2.462,1.407-3.705,2.087-.987.54-1.531.388-2.187-.552a1.474,1.474,0,0,1,.849-1.916c1.518-.841,3.009-1.73,4.536-2.553a1.092,1.092,0,0,0,.7-1.142c-.05-1.24-.045-2.485,0-3.726.02-.574-.144-.752-.726-.723a8.667,8.667,0,0,1-5.2-1.09,7.662,7.662,0,0,1-3.828-6.045,20.521,20.521,0,0,1-.059-2.791,2.541,2.541,0,0,1,2.741-2.643c1.926-.034,3.859-.107,5.63.875a10.849,10.849,0,0,1,2.105,1.578c1.845-3.291,4.873-3.539,8.108-3.164a2.3,2.3,0,0,1,1.977,2.076,10.094,10.094,0,0,1-.21,3.791,6.083,6.083,0,0,1-5.981,4.293c-1.771.038-1.771.038-1.771,1.8v4.745c.346.109.544-.143.77-.271q11.691-6.614,23.381-13.23a1.121,1.121,0,0,0,.675-1.158c-.041-1.458-.032-2.919,0-4.379.01-.5-.153-.628-.636-.624a8.256,8.256,0,0,1-2.591-.154,4.558,4.558,0,0,1-3.39-3.9c-.015-.092-.03-.184-.038-.277-.248-2.855.379-4.522,3.941-4.416,2.234.066,4.023.661,5.072,2.745.177.351.335.333.64.217a9.083,9.083,0,0,1,4.053-.3,2.571,2.571,0,0,1,2.424,2.689,11.187,11.187,0,0,1-.081,2.229,4.63,4.63,0,0,1-4.563,3.768c-2.036.034-2.026.034-2.038,2.1a1.132,1.132,0,0,0,.577,1.212q10.334,5.805,20.638,11.662c.181.1.341.273.595.209a2.016,2.016,0,0,0,.085-.99c.006-4.69-.033-9.38.033-14.069.014-1-.313-1.149-1.192-1.126a17.038,17.038,0,0,1-6.442-.661,10.811,10.811,0,0,1-7.086-9.792c-.029-1.21-.031-2.423,0-3.634A1.979,1.979,0,0,1,1486.88,443c2.6-.115,5.215-.349,7.78.342a10.98,10.98,0,0,1,5.033,3.076c.138-.779.23-1.491.393-2.186a14.476,14.476,0,0,1,14.1-11.332c1.8-.038,3.6-.021,5.406,0a2.5,2.5,0,0,1,2.768,2.757c.117,3.468-.255,6.816-2.195,9.82-.2.313-.425.612-.619.928a1.588,1.588,0,0,1-2.21.736,1.531,1.531,0,0,1-.178-2.234,12.712,12.712,0,0,0,2.4-8.582c-.019-.507-.193-.622-.655-.615-1.83.029-3.66.02-5.49.042a9.279,9.279,0,0,0-2.73.512c-4.38,1.41-8.707,5.668-8.147,12.834.043.554.355.468.683.468,1.489,0,2.978-.007,4.467,0a11.841,11.841,0,0,0,4.617-.9c1.237-.506,1.674-.364,2.4.74a1.747,1.747,0,0,1-1.332,1.87,15.017,15.017,0,0,1-5.53,1.1c-1.584,0-3.168.008-4.752-.006-.422,0-.673.017-.668.577.03,3.071.014,6.142.014,9.5,2.491-2.006,5.208-1.642,7.852-1.637,1.867,0,2.867,1.1,2.926,2.99a8.305,8.305,0,0,1-1.533,5.707,7.049,7.049,0,0,1-5.52,2.828c-.962.029-1.927.042-2.887,0-.562-.025-.767.123-.743.716.046,1.116.045,2.236,0,3.352a1.112,1.112,0,0,0,.674,1.157q9.514,5.356,19,10.753c.951.539,1.981,1,2,2.324s-1,1.818-1.944,2.365c-1.718.99-3.438,1.977-5.138,3a1.587,1.587,0,0,1-2.246-.228c-.383-1.111-.224-1.579.754-2.166.665-.4,1.339-.782,2.009-1.172l3.014-1.762L1502.55,480.4c0,2.982.005,5.774,0,8.566,0,1.181-.5,1.8-1.413,1.806s-1.391-.6-1.394-1.8c-.006-3.1,0-6.209,0-9.313A1.956,1.956,0,0,0,1497,478.05q-8.459,4.788-16.914,9.582c-.2.113-.469.16-.555.467q11.324,6.418,22.646,12.849a.862.862,0,0,0,1.005-.1c2.061-1.206,4.14-2.381,6.186-3.611A1.66,1.66,0,0,1,1511.7,497.479Zm-67.458-26.666a1.914,1.914,0,0,0,1.081.2c2.145.09,2.145.087,2.085-2.014a5,5,0,0,0-5.221-4.9c-1.782-.132-1.785-.132-1.755,1.589a9.407,9.407,0,0,0,.074,1.111A4.884,4.884,0,0,0,1444.241,470.814Zm47.544-25.016c-1.138-.16-2.282-.025-3.422-.075-.409-.018-.539.16-.529.55.025.959-.022,1.921.04,2.876a7.959,7.959,0,0,0,8.481,7.176c.275.022.55.062.826.064,2.69.018,2.69.016,2.547-2.715C1499.488,449.1,1496.066,445.705,1491.786,445.8Zm-27.226,33.761c3.843,2.2,7.691,4.383,11.523,6.6a.965.965,0,0,0,1.1-.106q8.483-4.814,16.964-9.63c.2-.112.491-.146.505-.531l-12.128-6.793c-1.391-.808-2.786-1.61-4.173-2.426-.443-.261-.528-.075-.522.341.025,1.519.038,3.039.055,4.558-.015,1.426-.024,2.852-.049,4.278-.017,1-.573,1.637-1.393,1.632s-1.38-.651-1.411-1.642c-.025-.805-.028-1.611-.041-2.417v-6.808l-16.7,9.472Zm18.334,33.038a4.278,4.278,0,0,0,.419-.188q7.918-4.6,15.832-9.209c.18-.1.411-.167.494-.431a2.846,2.846,0,0,0-.279-.2q-11.16-6.328-22.318-12.66a.875.875,0,0,0-1.009.016c-1.227.726-2.478,1.409-3.716,2.116q-6.212,3.545-12.422,7.1l-6.532,3.631c7.715,4.493,15.291,8.9,22.864,13.32a.654.654,0,0,0,.762.019C1478.95,514.924,1480.923,513.763,1482.893,512.6Zm21.846-43.067c3.935,0,5.819-1.767,5.677-5.287-.019-.471-.13-.665-.629-.648-.962.033-1.927-.027-2.887.022a4.469,4.469,0,0,0-4.318,3.884c-.211,2.029-.211,2.029,1.784,2.029Zm-53.174-1.64c2.193,0,3.527-.955,3.824-2.732s.159-1.951-1.624-1.907c-.186,0-.372.014-.557.035a3.234,3.234,0,0,0-2.991,3.219C1450.166,467.891,1450.166,467.891,1451.565,467.889Zm27.483-10.5c2.051.183,2.83-.874,2.674-2.654-.019-.218,0-.465-.308-.461a6.358,6.358,0,0,0-2.472.189,2.211,2.211,0,0,0-1.094,2.527C1478.019,457.811,1478.729,457.178,1479.049,457.393Zm-5.215-2.6c.323-.119.9.291,1.166-.218a2.17,2.17,0,0,0-1.233-2.764,7.919,7.919,0,0,0-2.214-.112c-.347-.007-.371.235-.387.5C1471.077,453.683,1471.563,454.979,1473.834,454.791Z" transform="translate(-0.381 -9.441)" fill="#040303"/><path d="M1596.489,572.942a1.66,1.66,0,0,0-2.327-.245c-2.046,1.23-4.125,2.405-6.186,3.611a.863.863,0,0,1-1.005.1q-11.314-6.443-22.646-12.849c.086-.307.356-.354.555-.467q8.453-4.8,16.914-9.582a1.956,1.956,0,0,1,2.734,1.609c0,3.1,0,6.209,0,9.313,0,1.2.481,1.8,1.394,1.8s1.41-.625,1.413-1.806c.008-2.792,0-5.584,0-8.566l18.114,10.265-3.014,1.762c-.67.391-1.344.773-2.009,1.172-.979.587-1.137,1.055-.754,2.166C1598.535,571.652,1597.589,572.438,1596.489,572.942Z" transform="translate(-85.17 -84.903)" fill="#d59979"/><path d="M1638,454.15c-.729-1.1-1.166-1.247-2.4-.74a11.842,11.842,0,0,1-4.618.9c-1.489-.01-2.978,0-4.467,0-.328,0-.64.085-.683-.468-.56-7.165,3.766-11.424,8.147-12.834a9.281,9.281,0,0,1,2.73-.512c1.83-.022,3.66-.013,5.49-.042.462-.007.636.108.654.615a12.711,12.711,0,0,1-2.4,8.582,1.53,1.53,0,0,0,.178,2.234A8.912,8.912,0,0,1,1638,454.15Z" transform="translate(-123.674 -14.188)" fill="#c3e77c"/><path d="M1447.341,566.894c.655.939,1.2,1.092,2.187.552,1.244-.68,2.472-1.39,3.705-2.087.289.263.166.557.167.81q.017,3.9,0,7.809a1.578,1.578,0,0,0,.818,1.632,1.493,1.493,0,0,0,1.768-.407,3.552,3.552,0,0,0,1.951,2.314c1.668.974,3.323,1.97,4.983,2.957-1.983,1.142-3.968,2.281-5.946,3.432a.755.755,0,0,1-.857-.021c-5.8-3.384-11.613-6.757-17.557-10.211,1.683-.955,3.261-1.837,4.826-2.74.964-.557,1.124-1.072.73-2.168A12.47,12.47,0,0,0,1447.341,566.894Z" transform="translate(-6.376 -92.444)" fill="#cf8960"/><path d="M1428.384,423.9a6.154,6.154,0,0,1,4.818-5.96,6.012,6.012,0,0,1,6.95,3.659,1.274,1.274,0,0,0,1.48.956c2.111-.058,4.224,0,6.336-.031a2.335,2.335,0,0,1,1.818.74q7.13,7.166,14.292,14.3a3.986,3.986,0,0,1,.382.408,1.359,1.359,0,0,1-.033,1.865,1.3,1.3,0,0,1-1.916.106c-.7-.613-1.336-1.3-2-1.955q-6.032-6.025-12.05-12.063a1.832,1.832,0,0,0-1.466-.586c-1.863.031-3.728.036-5.591,0a1.028,1.028,0,0,0-1.194.8,6.072,6.072,0,0,1-6.7,3.842A6.151,6.151,0,0,1,1428.384,423.9Zm6.108,3.355a3.331,3.331,0,1,0-3.3-3.328A3.372,3.372,0,0,0,1434.492,427.258Z" transform="translate(0)" fill="#060505"/><path d="M1445.006,477.1c-2.482,0-4.964,0-7.446,0a4.019,4.019,0,0,1-1.012-.1,1.374,1.374,0,0,1-.013-2.63,3.878,3.878,0,0,1,1.012-.1q7.4-.008,14.8,0a4.065,4.065,0,0,1,.923.074,1.377,1.377,0,0,1,.012,2.678,4.441,4.441,0,0,1-1.015.08Q1448.635,477.1,1445.006,477.1Z" transform="translate(-4.5 -35.368)" fill="#0e0e0e"/><path d="M1444.985,489.939c2.542,0,5.084,0,7.627,0,1.107,0,1.708.5,1.7,1.386s-.618,1.415-1.707,1.417q-7.674.014-15.347,0c-1.059,0-1.719-.573-1.719-1.421s.635-1.379,1.722-1.382C1439.838,489.934,1442.412,489.939,1444.985,489.939Z" transform="translate(-4.485 -45.191)" fill="#040303"/><path d="M1462.967,461.449c-1.179,0-2.358.011-3.537,0-.962-.012-1.552-.522-1.585-1.328a1.414,1.414,0,0,1,1.559-1.47q3.676-.035,7.353,0a1.4,1.4,0,0,1,1.533,1.4c.009.854-.585,1.389-1.6,1.4C1465.449,461.46,1464.208,461.449,1462.967,461.449Z" transform="translate(-18.457 -25.576)" fill="#060505"/><path d="M1438.572,461.436c-.557,0-1.114.016-1.67,0a1.319,1.319,0,0,1-1.344-1.274,1.336,1.336,0,0,1,1.227-1.483,27.323,27.323,0,0,1,3.614.008,1.294,1.294,0,0,1,1.212,1.4,1.361,1.361,0,0,1-1.37,1.346C1439.687,461.461,1439.128,461.437,1438.572,461.436Z" transform="translate(-4.487 -25.569)" fill="#060505"/><path d="M1511.734,594.548q6.211-3.548,12.422-7.1c1.239-.706,2.49-1.39,3.717-2.116a.875.875,0,0,1,1.009-.016q11.153,6.341,22.318,12.66a2.836,2.836,0,0,1,.279.2c-.083.264-.314.326-.494.431q-7.913,4.61-15.832,9.209a4.3,4.3,0,0,1-.42.188c-.4-.229-.8-.472-1.21-.685-1.313-.68-2.5-1.59-3.88-2.149.012-1.023.053-2.045.025-3.067-.015-.534.164-.7.687-.677a7.541,7.541,0,0,0,1.852-.066c3.311-.69,4.156-3.646,3.49-6.406a1.822,1.822,0,0,0-1.6-1.392c-1.717-.171-3.463-.4-5.074.538-.193.112-.368.344-.632.058-1.593-1.725-3.691-1.53-5.73-1.428a2.521,2.521,0,0,0-2.4,2.313,5.845,5.845,0,0,0,1.36,5.1c-.216.263-.364.038-.542-.065-1.3-.757-2.62-1.485-3.906-2.268C1515.363,596.724,1513.443,595.81,1511.734,594.548Z" transform="translate(-52.221 -104.855)" fill="#dcad8f"/><path d="M1542.193,529.862l12.128,6.793c-.014.384-.308.419-.5.531q-8.479,4.821-16.964,9.63a.965.965,0,0,1-1.1.106c-3.832-2.215-7.68-4.4-11.523-6.6.119-.49.572-.611.931-.82,1.942-1.133,3.869-2.294,5.846-3.363a23.227,23.227,0,0,1,3.656-1.955c.013.806.016,1.612.041,2.417.031.991.595,1.637,1.411,1.642s1.376-.632,1.393-1.632c.025-1.426.033-2.852.049-4.278Z" transform="translate(-60.048 -70.205)" fill="#ddad90"/><path d="M1492.156,578.218c-1.66-.987-3.315-1.982-4.983-2.957a3.551,3.551,0,0,1-1.951-2.314c.425-1.026.148-2.1.223-3.154.026-.363.025-.728.036-1.092a4.912,4.912,0,0,1,1.748-1.626c1.612-.918,3.254-1.783,4.851-2.726,1.458-.861,3-1.583,4.372-2.59q5.111,2.868,10.221,5.736c.7.393,1.394.794,2.065,1.178,0,.264-.175.3-.291.371q-7.974,4.521-15.954,9.032A3.134,3.134,0,0,1,1492.156,578.218Z" transform="translate(-35.611 -90.189)" fill="#d59a79"/><path d="M1500.776,610.283c1.709,1.263,3.629,2.176,5.437,3.276,1.286.782,2.6,1.51,3.906,2.268.177.1.326.328.542.065l1.691,1.054a12.386,12.386,0,0,0,3.523,2.1c.012.309.039.618.034.927a1.539,1.539,0,0,0,.981,1.712c.832.295,1.352-.156,1.794-.776,1.38.558,2.567,1.468,3.88,2.149.411.213.807.456,1.21.685-1.97,1.167-3.943,2.327-5.9,3.507a.655.655,0,0,1-.762-.019c-7.573-4.416-15.149-8.827-22.864-13.32Z" transform="translate(-41.263 -120.591)" fill="#d59979"/><path d="M1524.153,530.017a23.212,23.212,0,0,0-3.656,1.955c-1.977,1.068-3.9,2.23-5.846,3.363-.359.21-.812.33-.931.82l-6.263-3.474,16.7-9.472Z" transform="translate(-49.542 -66.036)" fill="#d59979"/><path d="M1597.085,467.471c4.281-.093,7.7,3.3,7.942,7.876.143,2.73.143,2.732-2.547,2.715-.276,0-.551-.042-.826-.064a8.1,8.1,0,0,1-3.8-4.144C1596.9,471.816,1597.062,469.633,1597.085,467.471Z" transform="translate(-105.681 -31.114)" fill="#c3e77c"/><path d="M1496.816,556.336c-1.372,1.007-2.914,1.729-4.372,2.59-1.6.943-3.24,1.808-4.852,2.726a4.912,4.912,0,0,0-1.748,1.626c-.012-2.263-.013-4.526-.043-6.789a.808.808,0,0,1,.5-.793q2.151-1.2,4.288-2.423a.736.736,0,0,1,.848-.059C1493.223,554.269,1495.022,555.3,1496.816,556.336Z" transform="translate(-35.973 -84.766)" fill="#cf8960"/><path d="M1590.5,467.338c-.023,2.162-.189,4.345.769,6.384a8.1,8.1,0,0,0,3.8,4.144,7.959,7.959,0,0,1-8.48-7.176c-.062-.956-.014-1.918-.04-2.876-.01-.39.12-.568.529-.55C1588.215,467.313,1589.359,467.178,1590.5,467.338Z" transform="translate(-99.093 -30.981)" fill="#addc52"/><path d="M1628.041,521.06h-.373c-1.995,0-1.995,0-1.784-2.029a4.469,4.469,0,0,1,4.318-3.884c.96-.049,1.926.011,2.887-.022.5-.017.61.177.629.648C1633.86,519.294,1631.976,521.06,1628.041,521.06Z" transform="translate(-123.683 -60.971)" fill="#c1e47b"/><path d="M1464.28,516.477a5,5,0,0,1,5.221,4.9c.06,2.1.059,2.1-2.086,2.014a1.915,1.915,0,0,1-1.081-.2,7.05,7.05,0,0,1-1.962-3.392A20.091,20.091,0,0,1,1464.28,516.477Z" transform="translate(-22.474 -61.818)" fill="#c3e77c"/><path d="M1487.147,518.834c-1.4,0-1.4,0-1.348-1.386a3.234,3.234,0,0,1,2.991-3.219c.185-.021.371-.03.557-.035,1.783-.044,1.922.121,1.624,1.907S1489.34,518.832,1487.147,518.834Z" transform="translate(-35.963 -60.385)" fill="#c1e47b"/><path d="M1564.457,525.59l-4.64,2.472c-.017-1.519-.03-3.039-.055-4.558-.006-.416.079-.6.522-.341C1561.671,523.98,1563.066,524.782,1564.457,525.59Z" transform="translate(-82.312 -65.932)" fill="#cb9374"/><path d="M1560.915,493.25c-.319-.215-1.03.418-1.2-.4a2.211,2.211,0,0,1,1.094-2.527,6.358,6.358,0,0,1,2.472-.189c.313,0,.288.243.308.461C1563.745,492.376,1562.966,493.433,1560.915,493.25Z" transform="translate(-82.248 -45.297)" fill="#bee078"/><path d="M1544.569,486.327c-2.271.188-2.757-1.109-2.667-2.592.016-.267.04-.51.387-.5a7.917,7.917,0,0,1,2.214.112,2.169,2.169,0,0,1,1.233,2.764C1545.472,486.618,1544.892,486.209,1544.569,486.327Z" transform="translate(-71.116 -40.976)" fill="#bee078"/><path d="M1461.366,516.394a20.091,20.091,0,0,0,.093,3.321,7.05,7.05,0,0,0,1.962,3.392,4.884,4.884,0,0,1-3.736-4.013,9.433,9.433,0,0,1-.074-1.111C1459.581,516.263,1459.584,516.263,1461.366,516.394Z" transform="translate(-19.561 -61.735)" fill="#addc52"/><path d="M1439.2,431.932a3.331,3.331,0,1,1,.1-6.662,3.331,3.331,0,0,1-.1,6.662Z" transform="translate(-4.708 -4.674)" fill="#df7f7c"/><path d="M1543.806,617.774c-.442.62-.963,1.071-1.794.776a1.539,1.539,0,0,1-.981-1.712c0-.308-.022-.618-.034-.927a8.5,8.5,0,0,1,.043-.917c.113-.736-.112-1.057-.921-.968a7.23,7.23,0,0,1-2.646-.22l-1.691-1.054a5.846,5.846,0,0,1-1.359-5.1,2.521,2.521,0,0,1,2.4-2.313c2.04-.1,4.137-.3,5.731,1.428.264.286.439.054.632-.058,1.611-.937,3.357-.709,5.074-.538a1.822,1.822,0,0,1,1.6,1.392c.666,2.76-.179,5.716-3.49,6.406a7.539,7.539,0,0,1-1.853.066c-.523-.024-.7.142-.687.677C1543.859,615.728,1543.818,616.751,1543.806,617.774Zm-3.913-6.534c.263-.242.863.351,1.119-.261a2.171,2.171,0,0,0-1.273-2.753,7.765,7.765,0,0,0-2.218-.114c-.37-.013-.329.281-.351.526C1537.01,610.437,1537.81,611.239,1539.893,611.24Zm4.975-.007c1.949.165,2.4-.911,2.364-1.853-.007-.206.041-.5-.266-.5a4.217,4.217,0,0,0-2.361.258,1.626,1.626,0,0,0-.738,1.777C1543.985,611.544,1544.6,611.083,1544.869,611.233Z" transform="translate(-66.384 -117.451)" fill="#030302"/><path d="M1542.73,628.124a7.231,7.231,0,0,0,2.646.22c.809-.089,1.033.232.921.968a8.44,8.44,0,0,0-.043.917A12.392,12.392,0,0,1,1542.73,628.124Z" transform="translate(-71.641 -131.769)" fill="#dcad8f"/><path d="M1544.608,615.965c-2.083,0-2.883-.8-2.723-2.6.022-.246-.019-.54.351-.526a7.761,7.761,0,0,1,2.218.114,2.171,2.171,0,0,1,1.273,2.753C1545.471,616.315,1544.871,615.723,1544.608,615.965Z" transform="translate(-71.1 -122.176)" fill="#bee078"/><path d="M1560.79,617.217c-.271-.15-.884.311-1-.318a1.626,1.626,0,0,1,.738-1.777,4.216,4.216,0,0,1,2.361-.258c.307,0,.258.293.266.5C1563.188,616.306,1562.739,617.382,1560.79,617.217Z" transform="translate(-82.306 -123.435)" fill="#bee078"/></g></g></svg>