<svg xmlns="http://www.w3.org/2000/svg" width="618.289" height="118" viewBox="0 0 618.289 118"><g transform="translate(-539.711 -8772)"><g transform="translate(187.773)"><text transform="translate(475.582 8791.661)" fill="#12263f" font-size="16" font-family="Roboto-Bold, Roboto" font-weight="700"><tspan x="-5.383" y="17">A</tspan></text><text transform="translate(475.582 8862.661)" fill="#12263f" font-size="16" font-family="Roboto-Regular, Roboto"><tspan x="-4.352" y="17">a</tspan></text><text transform="translate(405.582 8791.661)" fill="#12263f" font-size="16" font-family="Roboto-Regular, Roboto"><tspan x="-4.488" y="17">b</tspan></text><text transform="translate(545.582 8791.661)" fill="#12263f" font-size="16" font-family="Roboto-Regular, Roboto"><tspan x="-4.188" y="17">c</tspan></text><text transform="translate(559.582 8832.661)" fill="#12263f" font-size="16" font-family="Roboto-Bold, Roboto" font-weight="700"><tspan x="-5.105" y="17">B</tspan></text><text transform="translate(391.582 8832.661)" fill="#12263f" font-size="16" font-family="Roboto-Bold, Roboto" font-weight="700"><tspan x="-5.234" y="17">C</tspan></text><g transform="translate(-61 -400.057)"><path d="M-4123.421-2513.76s7.814,3.864,15.716,0" transform="translate(4660.278 11701.468)" fill="none" stroke="#16263d" stroke-width="2"/><path d="M-4005.323-2457.407a11.771,11.771,0,0,0-7.961,11.97" transform="translate(4657 11702.619)" fill="none" stroke="#16263d" stroke-width="2"/><path d="M-4006.211-2457.407a10.461,10.461,0,0,0-7.075,10.638" transform="translate(-4263.615 9132.111) rotate(150)" fill="none" stroke="#16263d" stroke-width="2"/><path d="M-3982.773-2442.818l-92.244-52.921-36.811-21.118-130.234,74.039Z" transform="translate(4656 11700)" fill="none" stroke="#204623" stroke-linejoin="round" stroke-width="2"/></g></g><rect width="121" height="64" transform="translate(907 8772)" fill="#deebad"/><g transform="translate(635.537 -32)"><g transform="translate(-19 -1240.213)"><g transform="translate(14.463)"><text transform="translate(285 10047.874)" fill="#12263f" font-size="18" font-family="Roboto-BoldItalic, Roboto" font-weight="700" font-style="italic"><tspan x="0" y="19" xml:space="preserve">s=  a + b + c</tspan></text><text transform="translate(312 10079.874)" fill="#12263f" font-size="18" font-family="Roboto-BoldItalic, Roboto" font-weight="700" font-style="italic"><tspan x="-5.054" y="19">2</tspan></text></g></g><path d="M-4375.537-2862.368h67.042" transform="translate(4683.729 11700)" fill="none" stroke="#16263d" stroke-width="1"/></g><rect width="251" height="42" transform="translate(907 8848)" fill="#deebad"/><g transform="translate(635.537 49.339)"><g transform="translate(-19 -1240.213)"><g transform="translate(299.463 10047.874)"><text fill="#12263f" font-size="18" font-family="Roboto-Bold, Roboto" font-weight="700"><tspan x="0" y="19">Ãrea = </tspan><tspan y="19" font-family="Roboto-BoldItalic, Roboto" font-style="italic">âˆšs (s - a) (s - b) (s - c)</tspan></text></g></g></g></g></svg>