<svg xmlns="http://www.w3.org/2000/svg" width="1240" height="968.725" viewBox="0 0 1240 968.725"><g transform="translate(-285 -369)"><g transform="translate(105 10)"><g transform="translate(0 -1)"><path d="M676.333,392q0-1.572.154-3.137t.461-3.106q.306-1.542.763-3.046t1.058-2.957q.6-1.452,1.343-2.839t1.614-2.693q.873-1.308,1.871-2.523t2.109-2.326q1.112-1.113,2.326-2.109t2.523-1.871q1.307-.873,2.693-1.614t2.839-1.343q1.452-.6,2.957-1.058t3.046-.763q1.542-.307,3.106-.461t3.137-.154h326q1.572,0,3.136.154t3.107.461q1.542.306,3.046.763t2.957,1.058q1.452.6,2.839,1.343t2.693,1.614q1.308.873,2.523,1.871t2.326,2.109q1.112,1.112,2.109,2.326t1.871,2.523q.873,1.307,1.614,2.693t1.343,2.839q.6,1.452,1.058,2.957t.763,3.046q.306,1.542.461,3.106t.154,3.137q0,1.572-.154,3.136t-.461,3.107q-.306,1.542-.763,3.046t-1.058,2.957q-.6,1.452-1.343,2.839t-1.614,2.693q-.873,1.308-1.871,2.523t-2.109,2.326q-1.111,1.111-2.326,2.109t-2.523,1.871q-1.306.873-2.693,1.614t-2.839,1.343q-1.452.6-2.957,1.058t-3.046.763q-1.542.307-3.107.461t-3.136.154h-326q-1.572,0-3.137-.154t-3.106-.461q-1.542-.306-3.046-.763t-2.957-1.058q-1.452-.6-2.839-1.343t-2.693-1.614q-1.308-.873-2.523-1.871t-2.326-2.109q-1.113-1.112-2.109-2.326t-1.871-2.523q-.873-1.307-1.614-2.693t-1.343-2.839q-.6-1.452-1.058-2.957t-.763-3.046q-.308-1.542-.461-3.107T676.333,392Z" fill="#0b481e"/><text transform="translate(714.309 397)" fill="#fff" font-size="17" font-family="Roboto-Black, Roboto" font-weight="800"><tspan x="0" y="0">DIAGNÓSTICO DEL AGROECOSISTEMA</tspan></text><path d="M330.976,600.823V557.079a10,10,0,0,1,10-10H489.189a10,10,0,0,1,10,10v43.744a10,10,0,0,1-10,10H340.976a10,10,0,0,1-10-10Z" fill="#adce32"/><path d="M675.363,600.824V557.08a10,10,0,0,1,4.445-8.315,9.989,9.989,0,0,1,3.6-1.493,9.99,9.99,0,0,1,1.951-.192H804.8a10,10,0,0,1,10,10v43.744a10,10,0,0,1-10,10H685.363a10,10,0,0,1-10-10Z" fill="#adce32"/><path d="M1048.159,602.747V559a10,10,0,0,1,10-10h91.552a10,10,0,0,1,10,10v43.744a10,10,0,0,1-10,10h-91.552a10.005,10.005,0,0,1-8.315-4.444,10.1,10.1,0,0,1-.924-1.729,9.993,9.993,0,0,1-.761-3.827Z" fill="#adce32"/><path d="M1251.786,602.747V559a10,10,0,0,1,10-10H1410a10,10,0,0,1,10,10v43.744a10,10,0,0,1-10,10H1261.786a10.005,10.005,0,0,1-8.315-4.444,10.108,10.108,0,0,1-.924-1.729,10,10,0,0,1-.761-3.827Z" fill="#adce32"/><text transform="translate(357.976 584.099)" fill="#12263f" font-size="13" font-family="Roboto-Black, Roboto" font-weight="800"><tspan x="0" y="0">P</tspan></text><text transform="translate(366.354 584.099)" fill="#12263f" font-size="13" font-family="Roboto-Black, Roboto" font-weight="800"><tspan x="0" y="0">olíticas Públicas</tspan></text><text transform="translate(687.667 574.803)" fill="#12263f" font-size="13" font-family="Roboto-Black, Roboto" font-weight="800"><tspan x="0" y="0">A</tspan></text><text transform="translate(696.217 574.803)" fill="#12263f" font-size="13" font-family="Roboto-Black, Roboto" font-weight="800"><tspan x="0" y="0">nálisis y Gestión </tspan></text><text transform="translate(707.888 591.803)" fill="#12263f" font-size="13" font-family="Roboto-Black, Roboto" font-weight="800"><tspan x="0" y="0">de Riesgos</tspan></text><text transform="translate(1068.185 586.021)" fill="#12263f" font-size="13" font-family="Roboto-Black, Roboto" font-weight="800"><tspan x="0" y="0">Car</tspan></text><text transform="translate(1088.859 586.021)" fill="#12263f" font-size="13" font-family="Roboto-Black, Roboto" font-weight="800"><tspan x="0" y="0">t</tspan></text><text transform="translate(1093.131 586.021)" fill="#12263f" font-size="13" font-family="Roboto-Black, Roboto" font-weight="800"><tspan x="0" y="0">ogr</tspan></text><text transform="translate(1112.644 586.021)" fill="#12263f" font-size="13" font-family="Roboto-Black, Roboto" font-weight="800"><tspan x="0" y="0">afía</tspan></text><text transform="translate(1292.375 576.726)" fill="#12263f" font-size="13" font-family="Roboto-Black, Roboto" font-weight="800"><tspan x="0" y="0">Met</tspan></text><text transform="translate(1315.119 576.726)" fill="#12263f" font-size="13" font-family="Roboto-Black, Roboto" font-weight="800"><tspan x="0" y="0">odologías </tspan></text><text transform="translate(1294.175 593.726)" fill="#12263f" font-size="13" font-family="Roboto-Black, Roboto" font-weight="800"><tspan x="0" y="0">T</tspan></text><text transform="translate(1301.05 593.726)" fill="#12263f" font-size="13" font-family="Roboto-Black, Roboto" font-weight="800"><tspan x="0" y="0">opográﬁcas</tspan></text><path d="M1251.786,698.672V657.584a10,10,0,0,1,.761-3.827,10.108,10.108,0,0,1,.924-1.729,10,10,0,0,1,8.315-4.444H1410a10,10,0,0,1,10,10v41.088a10,10,0,0,1-10,10H1261.786a10,10,0,0,1-10-10Z" fill="#cee284"/><path d="M1010.976,754.041V712.953a10,10,0,0,1,10-10H1186.9a10,10,0,0,1,3.827.761,10.109,10.109,0,0,1,1.729.924,10.028,10.028,0,0,1,2.759,2.759,10.113,10.113,0,0,1,.924,1.729,10,10,0,0,1,.761,3.827v41.088a10,10,0,0,1-10,10h-165.92a10,10,0,0,1-10-10Z" fill="#cee284"/><path d="M586.254,754.642V731.4a10,10,0,0,1,10-10h86.359a10,10,0,0,1,10,10v23.239a10.006,10.006,0,0,1-2.929,7.071,10.049,10.049,0,0,1-1.516,1.244,10,10,0,0,1-5.555,1.685H596.254a10,10,0,0,1-10-10Z" fill="#cee284"/><path d="M180,761.569V738.33a10,10,0,0,1,4.444-8.315,10.107,10.107,0,0,1,1.729-.924A10,10,0,0,1,190,728.33h66.685a10,10,0,0,1,3.827.761,10.105,10.105,0,0,1,1.729.924A10.025,10.025,0,0,1,265,732.774a10.107,10.107,0,0,1,.924,1.729,10,10,0,0,1,.761,3.827v23.239a10,10,0,0,1-.761,3.827,9.983,9.983,0,0,1-2.168,3.244,9.99,9.99,0,0,1-1.515,1.244,10.1,10.1,0,0,1-1.729.924,10,10,0,0,1-3.827.761H190a10,10,0,0,1-3.827-.761,10.1,10.1,0,0,1-1.729-.924A10,10,0,0,1,180,761.569Z" fill="#cee284"/><path d="M311.545,950.615V927.376a10,10,0,0,1,10-10H388.23a10.005,10.005,0,0,1,8.315,4.444,10.106,10.106,0,0,1,.924,1.729,10,10,0,0,1,.761,3.827v23.239a10,10,0,0,1-.761,3.827,10.01,10.01,0,0,1-2.168,3.244,9.921,9.921,0,0,1-1.515,1.243,9.993,9.993,0,0,1-5.556,1.686H321.545a10,10,0,0,1-10-10Z" fill="#cee284"/><path d="M397.187,1042.307v-23.239a10,10,0,0,1,10-10h66.685a10,10,0,0,1,10,10v23.239a10,10,0,0,1-10,10H407.187a10,10,0,0,1-10-10Z" fill="#cee284"/><path d="M706.793,754.642V731.4a10,10,0,0,1,10-10H772.18a10,10,0,0,1,10,10v23.239a10.005,10.005,0,0,1-2.929,7.071,10.043,10.043,0,0,1-1.516,1.244,10,10,0,0,1-5.555,1.685H716.793a10,10,0,0,1-10-10Z" fill="#cee284"/><path d="M281.56,761.569V738.33a10,10,0,0,1,10-10h81.56a10,10,0,0,1,10,10v23.239a10.006,10.006,0,0,1-2.929,7.071,10,10,0,0,1-7.071,2.929H291.56a10,10,0,0,1-10-10Z" fill="#cee284"/><path d="M413.1,950.615V927.376a10,10,0,0,1,10-10h81.561a10,10,0,0,1,10,10v23.239a10,10,0,0,1-10,10H423.1a10,10,0,0,1-10-10Z" fill="#cee284"/><path d="M556.386,1042.307v-23.239a10,10,0,0,1,10-10h81.56a10,10,0,0,1,10,10v23.239a10,10,0,0,1-10,10h-81.56a10,10,0,0,1-10-10Z" fill="#cee284"/><path d="M360.874,826.7V803.462a10,10,0,0,1,10-10h81.56a10,10,0,0,1,10,10V826.7a10,10,0,0,1-10,10h-81.56a10,10,0,0,1-10-10Z" fill="#cee284"/><path d="M713.5,848.772V808.684a10,10,0,0,1,10-10H871.716a10,10,0,0,1,10,10v40.088a10,10,0,0,1-10,10H723.5a10,10,0,0,1-10-10Z" fill="#cee284"/><path d="M1280.56,802.426V779.487a10,10,0,0,1,10-10h90.666a10,10,0,0,1,10,10v22.939a10,10,0,0,1-10,10H1290.56a10,10,0,0,1-10-10Z" fill="#cee284"/><path d="M1280.56,906.595V883.656a10,10,0,0,1,10-10h90.666a10,10,0,0,1,10,10v22.939a10,10,0,0,1-10,10H1290.56a10,10,0,0,1-10-10Z" fill="#cee284"/><path d="M925.982,564.1V528.3a10,10,0,0,1,10-10h85.355a10,10,0,0,1,10,10v35.8a10,10,0,0,1-10,10H935.982a10,10,0,0,1-10-10Z" fill="#cee284"/><path d="M925.982,637.584v-35.8a10,10,0,0,1,10-10h85.355a10,10,0,0,1,10,10v35.8a10,10,0,0,1-10,10H935.982a10,10,0,0,1-10-10Z" fill="#cee284"/><text transform="translate(1289.32 672.093)" fill="#12263f" font-size="12" font-family="Roboto-Regular, Roboto"><tspan x="0" y="0">Le</tspan></text><text transform="translate(1302.059 672.093)" fill="#12263f" font-size="12" font-family="Roboto-Regular, Roboto"><tspan x="0" y="0">v</tspan></text><text transform="translate(1307.783 672.093)" fill="#12263f" font-size="12" font-family="Roboto-Regular, Roboto"><tspan x="0" y="0">antamient</tspan></text><text transform="translate(1361.59 672.093)" fill="#12263f" font-size="12" font-family="Roboto-Regular, Roboto"><tspan x="0" y="0">os </tspan></text><text transform="translate(1296.832 688.093)" fill="#12263f" font-size="12" font-family="Roboto-Regular, Roboto"><tspan x="0" y="0">T</tspan></text><text transform="translate(1303.412 688.093)" fill="#12263f" font-size="12" font-family="Roboto-Regular, Roboto"><tspan x="0" y="0">opográﬁcos</tspan></text><text transform="translate(1030.726 727.463)" fill="#12263f" font-size="12" font-family="Roboto-Regular, Roboto"><tspan x="0" y="0">Sistemas de Información </tspan></text><text transform="translate(1053.478 743.463)" fill="#12263f" font-size="12" font-family="Roboto-Regular, Roboto"><tspan x="0" y="0">Geográﬁca (SIG)</tspan></text><text transform="translate(601.132 747.17)" fill="#12263f" font-size="12" font-family="Roboto-Regular, Roboto"><tspan x="0" y="0">Clasiﬁcación</tspan></text><text transform="translate(187.955 746.022)" fill="#12263f" font-size="12" font-family="Roboto-Regular, Roboto"><tspan x="0" y="0">Mo</tspan></text><text transform="translate(205.188 746.022)" fill="#12263f" font-size="12" font-family="Roboto-Regular, Roboto"><tspan x="0" y="0">vimient</tspan></text><text transform="translate(244.123 746.022)" fill="#12263f" font-size="12" font-family="Roboto-Regular, Roboto"><tspan x="0" y="0">os </tspan></text><text transform="translate(199.984 762.022)" fill="#12263f" font-size="12" font-family="Roboto-Regular, Roboto"><tspan x="0" y="0">Sociales</tspan></text><text transform="translate(330.148 943.652)" fill="#12263f" font-size="12" font-family="Roboto-Regular, Roboto"><tspan x="0" y="0">Nacional</tspan></text><text transform="translate(414.199 1035.343)" fill="#12263f" font-size="12" font-family="Roboto-Regular, Roboto"><tspan x="0" y="0">Enfoques</tspan></text><text transform="translate(727.746 745.913)" fill="#12263f" font-size="12" font-family="Roboto-Regular, Roboto"><tspan x="0" y="0">Tipos</tspan></text><text transform="translate(288.424 745.3)" fill="#12263f" font-size="12" font-family="Roboto-Regular, Roboto"><tspan x="0" y="0">Organizaciones </tspan></text><text transform="translate(293.796 759.5)" fill="#12263f" font-size="12" font-family="Roboto-Regular, Roboto"><tspan x="0" y="0">Tercer Sector</tspan></text><text transform="translate(427.396 942.929)" fill="#12263f" font-size="12" font-family="Roboto-Regular, Roboto"><tspan x="0" y="0">Internacional</tspan></text><text transform="translate(587.624 1029.784)" fill="#12263f" font-size="12" font-family="Roboto-Regular, Roboto"><tspan x="0" y="0">Líneas </tspan></text><text transform="translate(576.986 1045.784)" fill="#12263f" font-size="12" font-family="Roboto-Regular, Roboto"><tspan x="0" y="0">Temáticas</tspan></text><text transform="translate(374.399 819.364)" fill="#12263f" font-size="12" font-family="Roboto-Regular, Roboto"><tspan x="0" y="0">Instrument</tspan></text><text transform="translate(432.366 819.364)" fill="#12263f" font-size="12" font-family="Roboto-Regular, Roboto"><tspan x="0" y="0">os</tspan></text><text transform="translate(745.668 822.193)" fill="#12263f" font-size="12" font-family="Roboto-Regular, Roboto"><tspan x="0" y="0">Planiﬁcación del </tspan></text><text transform="translate(724.63 838.193)" fill="#12263f" font-size="12" font-family="Roboto-Regular, Roboto"><tspan x="0" y="0">sistema agr</tspan></text><text transform="translate(787.413 838.193)" fill="#12263f" font-size="12" font-family="Roboto-Regular, Roboto"><tspan x="0" y="0">oalimentario</tspan></text><text transform="translate(1318.785 795.104)" fill="#12263f" font-size="12" font-family="Roboto-Regular, Roboto"><tspan x="0" y="0">Medir</tspan></text><text transform="translate(1309.169 899.273)" fill="#12263f" font-size="12" font-family="Roboto-Regular, Roboto"><tspan x="0" y="0">Técnicas</tspan></text><text transform="translate(952.19 550.902)" fill="#12263f" font-size="13" font-family="Roboto-Bold, Roboto" font-weight="700"><tspan x="0" y="0">Técnico</tspan></text><text transform="translate(1066.378 502.603)" fill="#12263f" font-size="13" font-family="Roboto-Regular, Roboto"><tspan x="0" y="0">Se necesita</tspan></text><text transform="translate(1036.189 665.019)" fill="#12263f" font-size="13" font-family="Roboto-Regular, Roboto"><tspan x="0" y="0">Analizada a tr</tspan></text><text transform="translate(1115.04 665.019)" fill="#12263f" font-size="13" font-family="Roboto-Regular, Roboto"><tspan x="0" y="0">a</tspan></text><text transform="translate(1122.016 665.019)" fill="#12263f" font-size="13" font-family="Roboto-Regular, Roboto"><tspan x="0" y="0">ves de</tspan></text><text transform="translate(673.019 670.738)" fill="#12263f" font-size="13" font-family="Roboto-Regular, Roboto"><tspan x="0" y="0">Según</tspan></text><text transform="translate(235.258 668.404)" fill="#12263f" font-size="13" font-family="Roboto-Regular, Roboto"><tspan x="0" y="0">Impulsadas por</tspan></text><text transform="translate(492.87 670.738)" fill="#12263f" font-size="13" font-family="Roboto-Regular, Roboto"><tspan x="0" y="0">Contempla</tspan></text><text transform="translate(363.492 668.404)" fill="#12263f" font-size="13" font-family="Roboto-Regular, Roboto"><tspan x="0" y="0">Conformada por</tspan></text><text transform="translate(385.153 866.646)" fill="#12263f" font-size="13" font-family="Roboto-Regular, Roboto"><tspan x="0" y="0">De índole</tspan></text><text transform="translate(766.824 670.738)" fill="#12263f" font-size="13" font-family="Roboto-Regular, Roboto"><tspan x="0" y="0">Permiten</tspan></text><text transform="translate(1306.505 741.6)" fill="#12263f" font-size="13" font-family="Roboto-Regular, Roboto"><tspan x="0" y="0">Permiten</tspan></text><text transform="translate(1299.399 845.77)" fill="#12263f" font-size="13" font-family="Roboto-Regular, Roboto"><tspan x="0" y="0">A tr</tspan></text><text transform="translate(1319.49 845.77)" fill="#12263f" font-size="13" font-family="Roboto-Regular, Roboto"><tspan x="0" y="0">a</tspan></text><text transform="translate(1326.466 845.77)" fill="#12263f" font-size="13" font-family="Roboto-Regular, Roboto"><tspan x="0" y="0">vés de</tspan></text><text transform="translate(958.457 902.468)" fill="#12263f" font-size="13" font-family="Roboto-Regular, Roboto"><tspan x="0" y="0">Conformada por</tspan></text><text transform="translate(951.405 1048.04)" fill="#12263f" font-size="13" font-family="Roboto-Regular, Roboto"><tspan x="0" y="0">Permiten determinar</tspan></text><text transform="translate(758.014 971.92)" fill="#12263f" font-size="13" font-family="Roboto-Regular, Roboto"><tspan x="0" y="0">Determinados por</tspan></text><text transform="translate(384.04 1081.226)" fill="#12263f" font-size="13" font-family="Roboto-Regular, Roboto"><tspan x="0" y="0">Determinados por</tspan></text><text transform="translate(565.531 1081.357)" fill="#12263f" font-size="13" font-family="Roboto-Regular, Roboto"><tspan x="0" y="0">Agrupadas en</tspan></text><text transform="translate(561.393 1176.172)" fill="#12263f" font-size="13" font-family="Roboto-Regular, Roboto"><tspan x="0" y="0">Los cuales son</tspan></text><text transform="translate(1000.119 1164.019)" fill="#12263f" font-size="13" font-family="Roboto-Regular, Roboto"><tspan x="0" y="0">Y de </tspan></text><text transform="translate(1181.781 1226.877)" fill="#12263f" font-size="13" font-family="Roboto-Regular, Roboto"><tspan x="0" y="0">El/la</tspan></text><text transform="translate(720.709 502.603)" fill="#12263f" font-size="13" font-family="Roboto-Regular, Roboto"><tspan x="0" y="0">Permite</tspan></text><text transform="translate(346.952 502.603)" fill="#12263f" font-size="13" font-family="Roboto-Regular, Roboto"><tspan x="0" y="0">Es necesario conocer</tspan></text><text transform="translate(960.559 624.386)" fill="#12263f" font-size="13" font-family="Roboto-Bold, Roboto" font-weight="700"><tspan x="0" y="0">Legal</tspan></text><path d="M925.982,862.938V819.193a10,10,0,0,1,10-10h102.177a10.005,10.005,0,0,1,10,10v43.745a10,10,0,0,1-6.174,9.238,10.025,10.025,0,0,1-3.826.762H935.982a10.006,10.006,0,0,1-10-10Z" fill="#eff5d6"/><path d="M1111.9,862.938V819.193a10,10,0,0,1,10-10H1224.08a10,10,0,0,1,10,10v43.745a10.01,10.01,0,0,1-1.686,5.555,10,10,0,0,1-4.488,3.683,10.025,10.025,0,0,1-3.826.762H1121.9a10,10,0,0,1-10-10Z" fill="#eff5d6"/><text transform="translate(948.413 836.474)" fill="#12263f" font-size="13" font-family="Roboto-Regular, Roboto"><tspan x="0" y="0">Z</tspan></text><text transform="translate(956.063 836.474)" fill="#12263f" font-size="13" font-family="Roboto-Regular, Roboto"><tspan x="0" y="0">oniﬁcación </tspan></text><text transform="translate(942.189 853.474)" fill="#12263f" font-size="13" font-family="Roboto-Regular, Roboto"><tspan x="0" y="0">Agr</tspan></text><text transform="translate(962.235 853.474)" fill="#12263f" font-size="13" font-family="Roboto-Regular, Roboto"><tspan x="0" y="0">oecológica</tspan></text><text transform="translate(1125.855 845.77)" fill="#12263f" font-size="13" font-family="Roboto-Regular, Roboto"><tspan x="0" y="0">Georreferenciar</tspan></text><line y2="31.651" transform="translate(744.935 511.164)" fill="none" stroke="#0b481e" stroke-width="3"/><path d="M736.229,537.8l8.854,5.311,8.854-5.311" fill="none" stroke="#0b481e" stroke-linecap="round" stroke-width="3"/><line y2="31.651" transform="translate(414.934 511.164)" fill="none" stroke="#0b481e" stroke-width="3"/><path d="M406.229,537.8l8.854,5.311,8.854-5.311" fill="none" stroke="#0b481e" stroke-linecap="round" stroke-width="3"/><line y2="31.651" transform="translate(1104.673 511.164)" fill="none" stroke="#0b481e" stroke-width="3"/><path d="M1095.968,537.8l8.854,5.311,8.854-5.311" fill="none" stroke="#0b481e" stroke-linecap="round" stroke-width="3"/><line y2="27.45" transform="translate(1102.901 675.504)" fill="none" stroke="#0b481e" stroke-width="3"/><line y2="39.853" transform="translate(745.083 445.876)" fill="none" stroke="#204623" stroke-width="3"/><path d="M1104.821,445.877H415.081V488.6" fill="none" stroke="#204623" stroke-width="3"/><line y2="31.651" transform="translate(1103.935 613.475)" fill="none" stroke="#0b481e" stroke-width="3"/><line y2="34.528" transform="translate(1335.893 612.763)" fill="none" stroke="#0b481e" stroke-width="3"/><line y2="19.611" transform="translate(1335.893 708.246)" fill="none" stroke="#0b481e" stroke-width="3"/><line y2="19.611" transform="translate(1335.893 749.877)" fill="none" stroke="#0b481e" stroke-width="3"/><line y2="19.611" transform="translate(1335.893 854.046)" fill="none" stroke="#0b481e" stroke-width="3"/><line y2="305.441" transform="translate(1335.893 916.434)" fill="none" stroke="#0b481e" stroke-width="3"/><line x1="118.635" transform="translate(1217.11 1221.874)" fill="none" stroke="#0b481e" stroke-width="3"/><line y2="19.611" transform="translate(1335.893 812.426)" fill="none" stroke="#0b481e" stroke-width="3"/><line y2="23.808" transform="translate(1103.935 764.041)" fill="none" stroke="#0b481e" stroke-width="3"/><line y2="21.039" transform="translate(692.612 679.021)" fill="none" stroke="#0b481e" stroke-width="3"/><line y2="28.282" transform="translate(281.56 678.705)" fill="none" stroke="#0b481e" stroke-width="3"/><line y2="43.57" transform="translate(413.288 610.954)" fill="none" stroke="#0b481e" stroke-width="3"/><line y2="21.039" transform="translate(413.104 874.994)" fill="none" stroke="#0b481e" stroke-width="3"/><line y2="15.799" transform="translate(413.104 836.701)" fill="none" stroke="#0b481e" stroke-width="3"/><line y2="111.557" transform="translate(413.104 679.406)" fill="none" stroke="#0b481e" stroke-width="3"/><line y2="308.032" transform="translate(525.304 679.406)" fill="none" stroke="#0b481e" stroke-width="3"/><line y2="21.039" transform="translate(745.735 610.386)" fill="none" stroke="#0b481e" stroke-width="3"/><line y2="119.662" transform="translate(797.609 679.021)" fill="none" stroke="#0b481e" stroke-width="3"/><line y2="23.808" transform="translate(871.387 422.069)" fill="none" stroke="#0b481e" stroke-width="3"/><line x1="6.92" transform="translate(1041.091 582.94)" fill="none" stroke="#0b481e" stroke-width="3"/><path d="M1010.09,809.191V787.563h185.921v21.629" fill="none" stroke="#0b481e" stroke-width="3"/><path d="M639.434,721.4V699.773H744.485V721.4" fill="none" stroke="#0b481e" stroke-width="3"/><path d="M223.343,728.329V706.7h109v21.629" fill="none" stroke="#0b481e" stroke-width="3"/><path d="M354.887,917.375V895.746h109v21.629" fill="none" stroke="#0b481e" stroke-width="3"/><path d="M440.531,1009.067V987.438H609.662v21.629" fill="none" stroke="#0b481e" stroke-width="3"/><path d="M692.558,652.767V631.138H797.609v21.629" fill="none" stroke="#0b481e" stroke-width="3"/><path d="M281.561,652.767V631.138H525.3v21.629" fill="none" stroke="#0b481e" stroke-width="3"/><line y2="14.921" transform="translate(1010.09 907.06)" fill="none" stroke="#0b481e" stroke-width="3"/><path d="M951.657,937.528V922.07h115.979v15.458" fill="none" stroke="#0b481e" stroke-width="3"/><line y1="14.921" transform="translate(1009.204 1013.225)" fill="none" stroke="#0b481e" stroke-width="3"/><path d="M1067.637,997.677v15.459H951.658V997.677" fill="none" stroke="#0b481e" stroke-width="3"/><path d="M1031.338,545.087h9.753v75.374h-9.753" fill="none" stroke="#0b481e" stroke-width="3"/><path d="M1335.893,445.877v45.912" transform="translate(0 51.726)" fill="none" stroke="#204623" stroke-width="3"/><path d="M1327.04,538.9l8.854,5.311,8.854-5.311" fill="none" stroke="#0b481e" stroke-linecap="round" stroke-width="3"/><line y2="42.725" transform="translate(1104.821 445.877)" fill="none" stroke="#204623" stroke-width="3"/><path d="M908.276,987.677V946.755a10,10,0,0,1,10-10h72.961a10,10,0,0,1,10,10v40.922a10,10,0,0,1-10,10H918.276a10,10,0,0,1-10-10Z" fill="#ffe9e1"/><path d="M908.276,1120.854v-40.922a10.014,10.014,0,0,1,2.929-7.072,10.044,10.044,0,0,1,1.516-1.243,10,10,0,0,1,5.555-1.685H1101.9a10,10,0,0,1,10,10v40.922a10,10,0,0,1-10,10H918.276a10,10,0,0,1-10-10Z" fill="#ffe9e1"/><path d="M730.324,1045.334v-40.922a10.005,10.005,0,0,1,4.444-8.315,10.107,10.107,0,0,1,1.729-.924,10,10,0,0,1,3.827-.761H888.538a10,10,0,0,1,3.827.761,10.107,10.107,0,0,1,1.729.924,10.027,10.027,0,0,1,2.759,2.759,10.1,10.1,0,0,1,.924,1.729,10,10,0,0,1,.761,3.827v40.922a10,10,0,0,1-10,10H740.324a10,10,0,0,1-10-10Z" fill="#ffe9e1"/><path d="M365.8,1241.189V1113.718a10,10,0,0,1,10-10H504.665a10,10,0,0,1,10,10v127.471a10,10,0,0,1-10,10H375.8a10,10,0,0,1-10-10Z" fill="#ffe9e1"/><path d="M535.227,1318.725V1208.664a10,10,0,0,1,10-10H842.4a10.006,10.006,0,0,1,8.315,4.444,10.1,10.1,0,0,1,.924,1.729,10,10,0,0,1,.761,3.827v110.061a10,10,0,0,1-10,10H545.227a10,10,0,0,1-10-10Z" fill="#ffe9e1"/><path d="M908.276,1240.374v-40.922a10.005,10.005,0,0,1,2.929-7.071,10,10,0,0,1,7.071-2.929H1101.9a10,10,0,0,1,10,10v40.922a10,10,0,0,1-10,10H918.276a10,10,0,0,1-10-10Z" fill="#ffe9e1"/><path d="M1018.942,987.677V946.755a10,10,0,0,1,10-10H1101.9a10,10,0,0,1,10,10v40.922a10,10,0,0,1-2.929,7.071,10,10,0,0,1-7.071,2.929h-72.961a10,10,0,0,1-10-10Z" fill="#ffe9e1"/><text transform="translate(921.881 963.592)" fill="#12263f" font-size="13" font-family="Roboto-Regular, Roboto"><tspan x="0" y="0">Inventario </tspan></text><text transform="translate(935.932 980.592)" fill="#12263f" font-size="13" font-family="Roboto-Regular, Roboto"><tspan x="0" y="0">Usos</tspan></text><text transform="translate(946.943 1105.097)" fill="#12263f" font-size="13" font-family="Roboto-Regular, Roboto"><tspan x="0" y="0">Aptitud del </tspan></text><text transform="translate(1012.419 1105.097)" fill="#12263f" font-size="13" font-family="Roboto-Regular, Roboto"><tspan x="0" y="0">Territ</tspan></text><text transform="translate(1043.136 1105.097)" fill="#12263f" font-size="13" font-family="Roboto-Regular, Roboto"><tspan x="0" y="0">orio</tspan></text><text transform="translate(740.193 1020.724)" fill="#12263f" font-size="13" font-family="Roboto-Regular, Roboto"><tspan x="0" y="0">Modelos de pr</tspan></text><text transform="translate(822.668 1020.724)" fill="#12263f" font-size="13" font-family="Roboto-Regular, Roboto"><tspan x="0" y="0">oducción </tspan></text><text transform="translate(742.266 1037.724)" fill="#12263f" font-size="13" font-family="Roboto-Regular, Roboto"><tspan x="0" y="0">F</tspan></text><text transform="translate(749.312 1037.724)" fill="#12263f" font-size="13" font-family="Roboto-Regular, Roboto"><tspan x="0" y="0">uentes de pr</tspan></text><text transform="translate(820.596 1037.724)" fill="#12263f" font-size="13" font-family="Roboto-Regular, Roboto"><tspan x="0" y="0">oducción</tspan></text><text transform="translate(933.467 1215.764)" fill="#12263f" font-size="13" font-family="Roboto-Regular, Roboto"><tspan x="0" y="0">Sistema Agr</tspan></text><text transform="translate(1003.9 1215.764)" fill="#12263f" font-size="13" font-family="Roboto-Regular, Roboto"><tspan x="0" y="0">oalimentario </tspan></text><text transform="translate(941.367 1232.764)" fill="#12263f" font-size="13" font-family="Roboto-Regular, Roboto"><tspan x="0" y="0">Unidad Agr</tspan></text><text transform="translate(1005.123 1232.764)" fill="#12263f" font-size="13" font-family="Roboto-Regular, Roboto"><tspan x="0" y="0">oecológica</tspan></text><text transform="translate(1032.532 963.592)" fill="#12263f" font-size="13" font-family="Roboto-Regular, Roboto"><tspan x="0" y="0">Inventario </tspan></text><text transform="translate(1034.167 980.592)" fill="#12263f" font-size="13" font-family="Roboto-Regular, Roboto"><tspan x="0" y="0">Recursos</tspan></text><line y1="14.921" transform="translate(1009.204 1055.335)" fill="none" stroke="#0b481e" stroke-width="3"/><line y1="14.921" transform="translate(1009.204 1130.53)" fill="none" stroke="#0b481e" stroke-width="3"/><line y1="14.921" transform="translate(1009.204 873.547)" fill="none" stroke="#0b481e" stroke-width="3"/><line y1="14.921" transform="translate(814.431 979.491)" fill="none" stroke="#0b481e" stroke-width="3"/><line y1="14.921" transform="translate(440.456 1088.797)" fill="none" stroke="#0b481e" stroke-width="3"/><line y1="14.921" transform="translate(440.456 1052.418)" fill="none" stroke="#0b481e" stroke-width="3"/><line y1="14.921" transform="translate(609.662 1088.929)" fill="none" stroke="#0b481e" stroke-width="3"/><line y1="14.921" transform="translate(609.662 1144.286)" fill="none" stroke="#0b481e" stroke-width="3"/><line y1="14.921" transform="translate(609.662 1183.743)" fill="none" stroke="#0b481e" stroke-width="3"/><line y1="14.921" transform="translate(609.662 1052.436)" fill="none" stroke="#0b481e" stroke-width="3"/><line x2="28.479" transform="translate(879.797 967.215)" fill="none" stroke="#0b481e" stroke-width="3"/><line y1="333.512" transform="translate(1196.01 873.546)" fill="none" stroke="#0b481e" stroke-width="3"/><line x2="62.859" transform="translate(1111.756 1222.174)" fill="none" stroke="#0b481e" stroke-width="3"/><line y1="14.921" transform="translate(1009.204 1174.503)" fill="none" stroke="#0b481e" stroke-width="3"/><text transform="translate(395.105 1133.903)" fill="#12263f" font-size="13" font-family="Roboto-Regular, Roboto"><tspan x="0" y="0">Territ</tspan></text><text transform="translate(425.822 1133.903)" fill="#12263f" font-size="13" font-family="Roboto-Regular, Roboto"><tspan x="0" y="0">orial </tspan></text><text transform="translate(395.105 1152.903)" fill="#12263f" font-size="13" font-family="Roboto-Regular, Roboto"><tspan x="0" y="0">Diferencial </tspan></text><text transform="translate(395.105 1171.903)" fill="#12263f" font-size="13" font-family="Roboto-Regular, Roboto"><tspan x="0" y="0">P</tspan></text><text transform="translate(403.237 1171.903)" fill="#12263f" font-size="13" font-family="Roboto-Regular, Roboto"><tspan x="0" y="0">ar</tspan></text><text transform="translate(415.024 1171.903)" fill="#12263f" font-size="13" font-family="Roboto-Regular, Roboto"><tspan x="0" y="0">ticipativ</tspan></text><text transform="translate(460.353 1171.903)" fill="#12263f" font-size="13" font-family="Roboto-Regular, Roboto"><tspan x="0" y="0">o </tspan></text><text transform="translate(395.105 1190.903)" fill="#12263f" font-size="13" font-family="Roboto-Regular, Roboto"><tspan x="0" y="0">Intersect</tspan></text><text transform="translate(445.861 1190.903)" fill="#12263f" font-size="13" font-family="Roboto-Regular, Roboto"><tspan x="0" y="0">orial </tspan></text><text transform="translate(395.105 1209.903)" fill="#12263f" font-size="13" font-family="Roboto-Regular, Roboto"><tspan x="0" y="0">Multidimensional </tspan></text><text transform="translate(395.105 1228.903)" fill="#12263f" font-size="13" font-family="Roboto-Regular, Roboto"><tspan x="0" y="0">Sostenibilidad</tspan></text><path d="M384.278,1126.953a2.416,2.416,0,1,1-.925.184A2.392,2.392,0,0,1,384.278,1126.953Z" fill="#0b481e"/><path d="M384.278,1146.3a2.417,2.417,0,1,1-.925.184A2.39,2.39,0,0,1,384.278,1146.3Z" fill="#0b481e"/><path d="M384.278,1165.643a2.417,2.417,0,1,1-.925.184A2.39,2.39,0,0,1,384.278,1165.643Z" fill="#0b481e"/><path d="M384.278,1184.987a2.417,2.417,0,0,1,2.234,3.344,2.419,2.419,0,0,1-4.468,0,2.418,2.418,0,0,1,2.234-3.344Z" fill="#0b481e"/><path d="M384.278,1204.332a2.416,2.416,0,1,1-.925.184A2.39,2.39,0,0,1,384.278,1204.332Z" fill="#0b481e"/><path d="M384.278,1223.677a2.416,2.416,0,1,1-.925.184A2.392,2.392,0,0,1,384.278,1223.677Z" fill="#0b481e"/><text transform="translate(555.289 1228.85)" fill="#12263f" font-size="13" font-family="Roboto-Regular, Roboto"><tspan x="0" y="0">1. Pr</tspan></text><text transform="translate(581.702 1228.85)" fill="#12263f" font-size="13" font-family="Roboto-Regular, Roboto"><tspan x="0" y="0">oducción agr</tspan></text><text transform="translate(656.82 1228.85)" fill="#12263f" font-size="13" font-family="Roboto-Regular, Roboto"><tspan x="0" y="0">oecológica y ﬁnanciamient</tspan></text><text transform="translate(811.195 1228.85)" fill="#12263f" font-size="13" font-family="Roboto-Regular, Roboto"><tspan x="0" y="0">o </tspan></text><text transform="translate(555.289 1247.85)" fill="#12263f" font-size="13" font-family="Roboto-Regular, Roboto"><tspan x="0" y="0">2. Comer</tspan></text><text transform="translate(607.664 1247.85)" fill="#12263f" font-size="13" font-family="Roboto-Regular, Roboto"><tspan x="0" y="0">cialización y consumo </tspan></text><text transform="translate(555.289 1266.85)" fill="#12263f" font-size="13" font-family="Roboto-Regular, Roboto"><tspan x="0" y="0">3. F</tspan></text><text transform="translate(576.281 1266.85)" fill="#12263f" font-size="13" font-family="Roboto-Regular, Roboto"><tspan x="0" y="0">ormación, extensión e investigación </tspan></text><text transform="translate(555.289 1285.85)" fill="#12263f" font-size="13" font-family="Roboto-Regular, Roboto"><tspan x="0" y="0">4. Biodiversidad y cambio climático </tspan></text><text transform="translate(555.289 1304.85)" fill="#12263f" font-size="13" font-family="Roboto-Regular, Roboto"><tspan x="0" y="0">5. Go</tspan></text><text transform="translate(585.402 1304.85)" fill="#12263f" font-size="13" font-family="Roboto-Regular, Roboto"><tspan x="0" y="0">bernanza, equidad de géner</tspan></text><text transform="translate(743.364 1304.85)" fill="#12263f" font-size="13" font-family="Roboto-Regular, Roboto"><tspan x="0" y="0">o y juventud.</tspan></text><path d="M535.227,1135.452v-21.734a10,10,0,0,1,10-10H674.095a10,10,0,0,1,10,10v21.734a10,10,0,0,1-10,10H545.227a10.011,10.011,0,0,1-5.556-1.686,10,10,0,0,1-3.683-4.488,10,10,0,0,1-.761-3.826Z" fill="#ffe9e1"/><text transform="translate(556.798 1129.396)" fill="#12263f" font-size="13" font-family="Roboto-Regular, Roboto"><tspan x="0" y="0">Ejes estr</tspan></text><text transform="translate(606.081 1129.396)" fill="#12263f" font-size="13" font-family="Roboto-Regular, Roboto"><tspan x="0" y="0">atégicos</tspan></text><line x1="201" transform="translate(1134.5 497.5)" fill="none" stroke="#0b481e" stroke-width="3"/></g></g><path d="M440.531,1009.067V987.438H609.662v21.629" transform="translate(105 9)" fill="none" stroke="#0b481e" stroke-width="3"/></g></svg>