<svg xmlns="http://www.w3.org/2000/svg" width="61" height="61" viewBox="0 0 61 61"><g transform="translate(-353 -6676)"><g transform="translate(0 -4)"><g transform="translate(358.637 6685.634)"><path d="M479.678,1088.408c.2.55.356,1.117.6,1.643.208.446.111.656-.352.745a1.091,1.091,0,0,0-.235.106c-.774.257-.778.259-1.08-.536q-4.188-11.043-8.363-22.09c-.184-.489-.41-.713-.925-.575h-4.237a1,1,0,0,0,.071.513q3.024,11.728,6.06,23.452c.131.5.092.767-.438.859a5.021,5.021,0,0,0-.78.17c-.223.085-.246-.072-.327-.18-.354-1.42-.7-2.841-1.063-4.258q-2.594-10.082-5.189-20.163a.467.467,0,0,0-.554-.426c-1.121.024-2.243.021-3.365,0-.353-.006-.409.083-.362.435.472,3.519.92,7.04,1.373,10.561.574,4.461,1.141,8.923,1.73,13.382.039.293-.04.4-.285.469-.45-.073-.895.22-1.347.022-.2-1.606-.4-3.213-.607-4.818q-.585-4.562-1.176-9.124-.655-5.074-1.306-10.149c-.1-.789-.081-.792-.885-.762a.49.49,0,0,0-.051.007c-.741-.005-1.484.016-2.223-.027-.388-.022-.488.118-.532.472-.277,2.257-.574,4.512-.865,6.767q-.652,5.049-1.3,10.1-.484,3.767-.957,7.535c-.419.2-.832-.091-1.25-.017-.349-.055-.421-.212-.366-.586.277-1.892.506-3.791.749-5.688q1.169-9.1,2.345-18.2c.042-.32-.032-.379-.325-.376-1.1.012-2.209.032-3.312-.008-.439-.016-.574.139-.675.536q-2.494,9.732-5.015,19.456c-.416,1.616-.81,3.238-1.214,4.858-.082.1-.1.268-.324.182a5.06,5.06,0,0,0-.774-.173c-.521-.1-.58-.354-.447-.863q3.02-11.566,5.993-23.144c.224-.866.227-.865-.591-.821-1.241-.006-2.483.008-3.724-.029-.39-.012-.52.148-.644.475q-4.209,11.127-8.438,22.247c-.29.763-.29.763-1.067.514-.766-.348-.762-.346-.469-1.133.168-.45.322-.906.482-1.36.064-.139.136-.275.191-.418q3.51-9.243,7.017-18.487c.224-.591.442-1.184.681-1.828-1.014,0-1.96.012-2.905-.007a.714.714,0,0,0-.678.345c-1.039,1.482-2.1,2.949-3.15,4.422-.467.655-.466.656-1.14.282-.155-.269-.645-.3-.616-.609.025-.267.321-.509.495-.764.038-.056.066-.118.1-.178l2.537-3.494h-2.531c0-.069-.016-.137-.015-.206.006-.464-.152-1.05.072-1.355.211-.288.835-.085,1.276-.086.253,0,.332-.077.313-.323a4.774,4.774,0,0,1,0-.776c.077-.875.044-1.554-1-2.006a2.764,2.764,0,0,1-1.485-2.663c-.021-1.121-.025-2.244,0-3.365a3.16,3.16,0,0,1,1.933-2.994,3.112,3.112,0,0,1,3.52.5c.3.257.424.208.7-.017a3.3,3.3,0,0,1,5.44,2.478c.032,1.121.016,2.244,0,3.365a3.274,3.274,0,0,1-2.129,3.077c-.267.1-.376.209-.363.507.027.638.016,1.277,0,1.915,0,.217.047.3.283.3,1.965-.009,3.93-.005,5.942-.005a3.516,3.516,0,0,1-.31-2.487c-.332,0-.637.014-.941,0a.8.8,0,0,1-.82-.823c-.019-.828-.01-1.657,0-2.485a.713.713,0,0,1,.473-.733c.345-.112.362-.331.358-.629-.013-1.191-.009-2.382,0-3.573a3.22,3.22,0,0,1,3.353-3.356c.1,0,.208-.008.311,0,.3.026.508.027.5-.4-.009-.383-.132-.44-.473-.434-.984.017-1.2-.221-1.2-1.219,0-.9,0-1.795,0-2.692,0-.774.285-1.086,1.064-1.039.51.031.664-.121.6-.615a6.742,6.742,0,0,1-.006-1.034.784.784,0,0,1,.831-.847c.725-.013,1.45.007,2.174-.009.254-.006.306.079.315.32.049,1.327.056,1.341-1.254,1.334-.346,0-.417.1-.423.429-.006.35.107.42.434.417,1.028-.011,1.237.213,1.237,1.237q0,1.295,0,2.589c0,.882-.256,1.147-1.137,1.133-.347-.005-.583,0-.535.471.029.284.083.373.377.369,1.191-.016,2.382-.024,3.572,0,.338.008.432-.133.5-.412q.666-2.708,1.35-5.411c.164-.651.382-.817,1.053-.817q4.349,0,8.7,0c.744,0,1.035.29,1.036,1.03,0,2,.008,4-.006,6.006,0,.325.063.443.416.431.845-.028,1.691,0,2.537-.016.284-.006.374.062.378.363.016,1.3.028,1.3-1.246,1.3-.966,0-1.933.008-2.9.011-.414,0-.828,0-1.242-.013a6.247,6.247,0,0,0-6.229,6.247c.031,1.292,0,1.284,1.315,1.219.275-.014.34-.11.357-.366a5.726,5.726,0,0,1,1.238-3.231c.609-.778.606-.78,1.319-.139.392.388.407.672.01,1.169a3.866,3.866,0,0,0-.487,4.362,3.956,3.956,0,0,0,3.731,2.334,4.114,4.114,0,0,0,4.1-3.585,4.186,4.186,0,0,0-4.751-4.641c-.813.166-.813.166-1.2-.567a1.049,1.049,0,0,0-.08-.3c-.268-.426-.042-.557.344-.64a7.136,7.136,0,0,1,1.577-.219,5.784,5.784,0,0,1,4.687,2.428.824.824,0,0,0,.506.31c2.635.711,5.267,1.434,7.9,2.152.948.258,1.115.531.884,1.485-.21.868-.432,1.732-.635,2.6-.068.291-.179.427-.486.266a1.407,1.407,0,0,0-.3-.074c-.959-.25-.958-.25-.7-1.235.108-.415.2-.837.32-1.247.069-.225.015-.328-.209-.357-.034,0-.068-.009-.1-.016-.427-.1-.932-.466-1.248-.243-.27.19-.249.782-.378,1.19s-.056,1-.387,1.174c-.277.142-.768-.167-1.172-.228-.318-.048-.391-.154-.3-.467.183-.625.314-1.266.487-1.894.061-.22.055-.354-.2-.42-.977-.256-1.951-.521-2.978-.8a5.979,5.979,0,0,1-1.621,5.328h.587c2.71,0,5.419.009,8.129-.01.384,0,.517.082.476.476s-.018.792-.023,1.189h-2.533l2.539,3.494c.033.059.062.122.1.177.536.778.537.777-.121,1.374-.672.376-.671.375-1.141-.283q-1.577-2.209-3.157-4.416c-.117-.164-.2-.351-.464-.348-1.015.012-2.03,0-3.047,0a1.052,1.052,0,0,0,.144.569q2.689,7.1,5.383,14.192C478.14,1084.432,478.912,1086.419,479.678,1088.408Zm-18.041-34.818h-3.6q-4.892,0-9.784,0a1.608,1.608,0,0,0-1.654,1.143c-.111.353-.087.546.37.521.619-.033,1.242-.011,1.863-.008.717,0,1.017.293,1.022.992.006.725-.01,1.45.005,2.174a.937.937,0,0,1-.674.982c-.979.381-1.952.778-2.927,1.17a.87.87,0,0,0-.542,1.163c.033.1.083.151.177.144.416-.034.829.085,1.237-.207a3.191,3.191,0,0,1,3.816.009,1.089,1.089,0,0,0,.668.207c1.657-.007,3.313,0,4.969,0,.73,0,.744,0,.728-.741a8.109,8.109,0,0,1,1.968-5.675A9.4,9.4,0,0,1,461.637,1053.59Zm-3.895-5.366c.317-.341.556-.583.778-.841.149-.173.258-.161.415,0,.971.982,1.951,1.955,2.926,2.934.091.091.236.181.077.335-.347.335-.645.8-1.06.956-.235.09-.529-.463-.813-.709a1.141,1.141,0,0,1-.11-.109c-.1-.115-.195-.114-.3,0-.351.361-.707.718-1.13,1.146,2.327,0,4.535,0,6.743.006.282,0,.345-.1.343-.358q-.016-2.149,0-4.3c0-.245-.073-.326-.322-.325-2.348.008-4.7,0-7.044.005-.133,0-.277-.026-.317.172A3.653,3.653,0,0,0,457.742,1048.225Zm-5.811,17.751h10.393a5.574,5.574,0,0,1-1.3-2.044.5.5,0,0,0-.584-.407c-1.793.02-3.586.01-5.379.01h-2.817A3.446,3.446,0,0,1,451.931,1065.976Zm-13.677-4.352c0-.444,0-.786,0-1.129,0-.115-.026-.267.154-.267a4.169,4.169,0,0,1,1.421.069c.235.09.042.633.083.969.011.094-.049.208.092.3a1.49,1.49,0,0,0,.727-1.317q.027-1.679,0-3.359a1.652,1.652,0,0,0-3.3,0c-.018,1.12-.016,2.24,0,3.359A1.555,1.555,0,0,0,438.255,1061.624Zm-3.315,0a1.5,1.5,0,0,0,.817-1.312c.026-1.171.033-2.343,0-3.514a1.648,1.648,0,0,0-3.289-.02c-.037,1.187-.031,2.377,0,3.565a1.4,1.4,0,0,0,.774,1.247c.1-.476-.153-1.032.127-1.288s.822-.046,1.248-.08c.242-.02.341.064.327.317C434.926,1060.87,434.939,1061.206,434.939,1061.619Zm1.524,4.4c.538,0,.987-.02,1.434.007.3.018.376-.093.363-.377a11.848,11.848,0,0,1,0-1.447.841.841,0,0,0-.614-1.024,1.912,1.912,0,0,0-2.118.007.785.785,0,0,0-.593.981,2.066,2.066,0,0,1,0,.258c.01.514-.179,1.208.082,1.494C435.322,1066.252,436.026,1065.974,436.464,1066.021Zm12.521,0a1.683,1.683,0,0,0,1.7-1.591,1.656,1.656,0,0,0-1.613-1.721,1.678,1.678,0,0,0-1.7,1.59A1.656,1.656,0,0,0,448.985,1066.02Zm1.7-17.444c0-.786,0-.786-.792-.786-.864,0-.864,0-.864.87,0,.787,0,.787.792.787C450.686,1049.446,450.686,1049.446,450.685,1048.576Zm-4.143,10.083c.519-.207.989-.4,1.465-.58.163-.06.183-.159.2-.308.075-.867.079-.866-.789-.866-.206,0-.412.011-.616,0s-.262.077-.258.27C446.549,1057.648,446.542,1058.124,446.542,1058.659Zm11.07-10.3-.636,2.586a11.66,11.66,0,0,0,1.5-1.357c.117-.119.071-.2-.023-.3C458.2,1049.011,457.952,1048.732,457.612,1048.356Z" transform="translate(-430.783 -1043.639)" fill="#020202"/><path d="M483.1,1184.23c.4-1.619.8-3.241,1.214-4.858q2.507-9.728,5.015-19.456c.1-.4.237-.552.676-.536,1.1.04,2.208.021,3.312.008.293,0,.367.056.325.376q-1.186,9.1-2.345,18.2c-.243,1.9-.472,3.8-.749,5.688-.055.374.017.531.366.586Z" transform="translate(-472.24 -1135.353)" fill="#76ac8e"/><path d="M570.154,1184.251c.245-.066.324-.176.285-.469-.589-4.459-1.156-8.921-1.73-13.382-.453-3.521-.9-7.043-1.373-10.561-.047-.352.008-.441.362-.435,1.121.019,2.243.022,3.365,0a.467.467,0,0,1,.555.426q2.586,10.084,5.189,20.163c.364,1.417.709,2.838,1.063,4.258Z" transform="translate(-538.978 -1135.37)" fill="#76ac8e"/><path d="M434.823,1182.625c.777.249.777.249,1.067-.514q4.223-11.122,8.438-22.247c.124-.327.253-.487.644-.475,1.241.037,2.483.023,3.724.029q-1.129,4.349-2.259,8.7a2.236,2.236,0,0,1-.3.917c-.086-.085-.171-.17-.258-.255-.271-.265-.514-.7-.822-.75-.372-.064-.575.456-.862.711-.182.162-.287.242-.5.025-.27-.281-.534-.8-.853-.745-.336.057-.6.522-.9.809a.357.357,0,0,1-.038.036c-.231.165-.184.3.007.483.452.426.878.879,1.323,1.313a.855.855,0,0,0,1.391.007c.5-.478.986-.962,1.479-1.444a2.532,2.532,0,0,1-.205.946c-.357,1.421-.682,2.85-1.122,4.248a1.92,1.92,0,0,1-.012-.412c.1-.521-.166-.575-.58-.479a3.078,3.078,0,0,0-1.653.9c-.2.219-.31.232-.513,0a3.028,3.028,0,0,0-1.752-.917c-.31-.06-.537-.043-.487.385a5.024,5.024,0,0,1,0,.93c-.017.237.063.323.3.371a1.494,1.494,0,0,1,1.156,1.127c.082.262.156.528.261.781a.837.837,0,0,0,1.559,0c.131-.317.222-.65.343-.971a1.3,1.3,0,0,1,1.032-.9c.2.155.094.333.047.515q-1.1,4.253-2.2,8.507l-2.181,0c.5-.27.564-.792.717-1.257s.368-.941.845-1.036c.635-.126.664-.492.615-.98a1.825,1.825,0,0,1,0-.465c.065-.4-.16-.423-.453-.37a3.062,3.062,0,0,0-1.8.938c-.188.21-.292.208-.477,0a2.969,2.969,0,0,0-1.7-.917c-.15-.03-.415-.074-.446-.016-.226.425-.057.9-.1,1.348-.012.127-.044.272.17.306.845.132,1.187.745,1.381,1.487a1.393,1.393,0,0,0,.62.962c-1.438.006-2.877.007-4.315.024-.274,0-.36-.094-.349-.358C434.832,1183.481,434.822,1183.053,434.823,1182.625Zm10.77-17.382c0-.87,0-.87-.839-.87-.818,0-.818,0-.818.839,0,.818,0,.818.839.818C445.593,1166.03,445.593,1166.03,445.593,1165.243Zm.85-4.185c-.849,0-.849,0-.849.859,0,.8,0,.8.807.8.85,0,.85,0,.85-.859C447.251,1161.058,447.251,1161.058,446.443,1161.058Z" transform="translate(-433.978 -1135.36)" fill="#f0ac5f"/><path d="M526.761,1184.257q.478-3.768.957-7.535.648-5.049,1.3-10.1c.291-2.255.588-4.51.865-6.767.043-.354.144-.495.532-.472.739.043,1.482.021,2.223.027.139,1.011.285,2.021.414,3.033.114.894.208,1.791.311,2.686-.6-.514-.6-.514-1.188.072a2.441,2.441,0,0,0-.217.22c-.161.208-.29.217-.489.016-.272-.276-.518-.782-.853-.739-.315.041-.575.5-.859.771a1.221,1.221,0,0,1-.11.109c-.188.139-.153.259,0,.409.469.454.922.925,1.391,1.379a.84.84,0,0,0,1.348,0c.36-.342.714-.692,1.071-1.038a14.618,14.618,0,0,1,.427,3.006,3.1,3.1,0,0,0-1.908.94c-.236.266-.352.2-.552-.022a3.014,3.014,0,0,0-1.612-.866c-.395-.091-.685-.091-.6.461a2.956,2.956,0,0,1,0,.774c-.029.275.07.39.339.445a1.412,1.412,0,0,1,1.075,1.011c.107.308.2.623.324.923a.827.827,0,0,0,1.507,0c.134-.315.228-.647.348-.969a1.333,1.333,0,0,1,1.052-.954l.125-.047.208-.033a11.293,11.293,0,0,0,.2,1.837c.222,1.767.423,3.536.649,5.3.261,2.037.541,4.071.812,6.107l-3.222.005c.112-.608.274-1.288.913-1.441.73-.174.678-.607.647-1.121a1.319,1.319,0,0,1,0-.31c.082-.454-.178-.475-.507-.408a3.065,3.065,0,0,0-1.744.931c-.187.21-.291.208-.477,0a2.868,2.868,0,0,0-1.644-.9c-.2-.038-.446-.19-.592.072a2.869,2.869,0,0,0,.154,1.545.28.28,0,0,0,.05.01,1.714,1.714,0,0,1,1.342,1.624ZM534.2,1176a2.36,2.36,0,0,1,0-.361c.072-.463-.138-.563-.548-.465a3.014,3.014,0,0,0-1.583.812c-.26.28-.416.336-.705.015a2.772,2.772,0,0,0-1.781-.844c-.147-.018-.365-.1-.361.2.007.413.011.827,0,1.24-.006.2.127.206.26.236a1.547,1.547,0,0,1,1.206,1.207,6.5,6.5,0,0,0,.229.683.84.84,0,0,0,1.58.018,7.474,7.474,0,0,0,.245-.732,1.5,1.5,0,0,1,1.181-1.164c.254-.048.3-.167.278-.383C534.188,1176.309,534.2,1176.153,534.2,1176Zm-2.476-14.944c-.839,0-.839,0-.839.818,0,.839,0,.839.818.839.839,0,.839,0,.839-.818C532.542,1161.054,532.542,1161.054,531.723,1161.054Z" transform="translate(-506.837 -1135.356)" fill="#f0ac5f"/><path d="M601.677,1184.383c.53-.093.568-.358.438-.859q-3.053-11.72-6.06-23.453a1,1,0,0,1-.071-.513h4.237a3.679,3.679,0,0,0,.119.55q1.586,4.2,3.186,8.386a.83.83,0,0,1,.093.595c-.065-.056-.131-.11-.193-.169-.287-.272-.551-.734-.864-.768-.329-.036-.577.473-.857.747-.171.168-.273.187-.458.01-.288-.276-.531-.81-.9-.741-.338.064-.591.54-.9.816-.192.173-.223.293-.015.487.466.436.9.9,1.36,1.347a.838.838,0,0,0,1.351,0c.518-.505,1.022-1.026,1.532-1.54.193.03.217.2.271.338.148.383.307.763.435,1.153.316.957.789,1.859,1.018,2.846a3.027,3.027,0,0,0-2.01.941c-.237.261-.349.2-.552-.021a2.931,2.931,0,0,0-1.866-.9c-.131-.015-.335-.09-.335.175,0,.431.006.861,0,1.292,0,.254.207.2.331.229a1.488,1.488,0,0,1,1.074,1.018c.078.227.167.451.232.682a.858.858,0,0,0,1.694.023c.083-.279.188-.552.289-.826a1.087,1.087,0,0,1,.759-.786c.641-.089.641-.468.6-.936a2.628,2.628,0,0,1,.014-.361q1.123,2.9,2.241,5.792a1.052,1.052,0,0,1,.021.306,3.011,3.011,0,0,0-2.01.939c-.236.26-.35.2-.552-.02a2.98,2.98,0,0,0-1.712-.884c-.133-.025-.373-.055-.4-.005a3.8,3.8,0,0,0-.092,1.355c-.011.13-.036.268.176.3.844.132,1.182.748,1.376,1.487a1.394,1.394,0,0,0,.62.961Zm-1.862-19.088c0,.87,0,.87.839.87.818,0,.818,0,.818-.839,0-.818,0-.818-.839-.818C599.815,1164.508,599.815,1164.508,599.815,1165.295Zm0-3.249c0-.853,0-.853-.855-.853-.8,0-.8,0-.8.8,0,.853,0,.853.855.853C599.815,1162.849,599.815,1162.849,599.815,1162.046Z" transform="translate(-561.679 -1135.495)" fill="#f0ac5f"/><path d="M434.876,1164.461c.674.374.673.373,1.14-.282,1.051-1.473,2.111-2.94,3.15-4.422a.714.714,0,0,1,.678-.345c.946.019,1.892.007,2.905.007-.24.644-.457,1.237-.681,1.827q-3.507,9.244-7.017,18.487c-.054.143-.127.278-.191.418q-.008-5.627-.015-11.254C434.846,1167.419,434.865,1165.94,434.876,1164.461Z" transform="translate(-434.003 -1135.38)" fill="#76ab8e"/><path d="M636.435,1180.159c-.766-1.989-1.538-3.976-2.3-5.968q-2.7-7.094-5.383-14.192a1.053,1.053,0,0,1-.144-.569c1.017,0,2.032.007,3.047,0,.265,0,.347.184.464.348q1.579,2.207,3.157,4.416c.47.658.469.659,1.141.283.019.9.054,1.793.054,2.689q0,6.37-.02,12.741C636.454,1179.988,636.442,1180.073,636.435,1180.159Z" transform="translate(-587.54 -1135.389)" fill="#76ab8e"/><path d="M570.784,1099.291c-.712-.641-.71-.639-1.319.139a5.725,5.725,0,0,0-1.238,3.231c-.016.256-.082.352-.357.366-1.31.065-1.283.073-1.315-1.219a6.247,6.247,0,0,1,6.229-6.247c.414.01.828.009,1.242.013q0,.817,0,1.634a7.121,7.121,0,0,0-1.577.219c-.386.084-.612.214-.344.64a1.037,1.037,0,0,1,.079.3A5.2,5.2,0,0,0,570.784,1099.291Z" transform="translate(-538.37 -1084.781)" fill="#7c1f3c"/><path d="M473.295,1174.473c.44-1.4.765-2.828,1.122-4.248a2.533,2.533,0,0,0,.205-.946l.029-.19a2.236,2.236,0,0,0,.3-.917q1.132-4.349,2.259-8.7c.818-.044.815-.046.591.821q-2.991,11.573-5.993,23.144c-.133.51-.074.767.447.863H470.8q1.1-4.254,2.2-8.507c.047-.182.151-.359-.047-.515C473.456,1175.181,473.217,1174.758,473.295,1174.473Z" transform="translate(-462.491 -1135.416)" fill="#c7813c"/><path d="M624.124,1180.091a1.051,1.051,0,0,0-.021-.306q-1.115-2.9-2.241-5.792c-.095-.17.153-.484-.225-.534-.23-.988-.7-1.889-1.018-2.846-.129-.39-.288-.77-.435-1.153-.054-.14-.078-.308-.271-.338,0-.037-.008-.074-.013-.111.066-.068.023-.084-.042-.089l-.008.015a.83.83,0,0,0-.093-.595q-1.6-4.191-3.186-8.386a3.681,3.681,0,0,1-.119-.55c.514-.138.74.086.925.575q4.162,11.052,8.363,22.09c.3.8.305.794,1.08.536,0,.391-.027.784.008,1.172s-.106.523-.482.469a5.011,5.011,0,0,0-.559-.02l-1.434-3.7C624.282,1180.375,624.448,1180.105,624.124,1180.091Z" transform="translate(-577.908 -1135.342)" fill="#c7813c"/><path d="M555.811,1165.181c-.1-.9-.2-1.792-.311-2.686-.129-1.012-.275-2.022-.414-3.033a.49.49,0,0,1,.051-.007c.8-.03.785-.027.885.762q.643,5.076,1.306,10.149.589,4.562,1.176,9.124c.206,1.606.4,3.212.607,4.818l-.8-.017c-.272-2.036-.551-4.07-.812-6.107-.226-1.766-.427-3.535-.649-5.3a11.306,11.306,0,0,1-.2-1.837c0-.447-.015-.894.008-1.34.013-.255-.085-.34-.318-.326a14.609,14.609,0,0,0-.427-3.006c.482-.545.482-.545-.044-1.107A.461.461,0,0,1,555.811,1165.181Z" transform="translate(-529.282 -1135.406)" fill="#c7813c"/><path d="M540.046,1266.451a1.714,1.714,0,0,0-1.342-1.624.26.26,0,0,1-.05-.01,2.869,2.869,0,0,1-.154-1.545c.146-.262.4-.11.592-.072a2.869,2.869,0,0,1,1.644.9c.185.208.29.211.477,0a3.065,3.065,0,0,1,1.744-.931c.329-.067.589-.046.507.408a1.318,1.318,0,0,0,0,.309c.031.514.083.947-.647,1.121-.639.153-.8.833-.913,1.441-.058.121-.114.243-.174.363a.835.835,0,0,1-1.51,0C540.16,1266.694,540.1,1266.572,540.046,1266.451Z" transform="translate(-516.099 -1217.56)" fill="#030302"/><path d="M635.176,1259.2c.324.015.158.285.226.433-.006.325-.016.65-.016.975,0,.148-.009.251-.2.283a1.648,1.648,0,0,0-1.329,1.391,1.5,1.5,0,0,1-.647,1.052h-.625a1.394,1.394,0,0,1-.62-.961c-.194-.739-.531-1.355-1.376-1.487-.211-.033-.187-.171-.176-.3a3.8,3.8,0,0,1,.092-1.355c.023-.05.263-.02.4.005a2.981,2.981,0,0,1,1.712.884c.2.222.315.28.552.02A3.012,3.012,0,0,1,635.176,1259.2Z" transform="translate(-588.96 -1214.456)" fill="#030302"/><path d="M448.922,1263.349a1.393,1.393,0,0,1-.62-.962c-.194-.742-.535-1.355-1.381-1.487-.214-.033-.182-.179-.17-.306.044-.452-.125-.924.1-1.348.031-.059.3-.014.446.016a2.968,2.968,0,0,1,1.7.917c.185.209.289.211.477,0a3.06,3.06,0,0,1,1.8-.938c.293-.053.517-.029.453.37a1.824,1.824,0,0,0,0,.465c.048.488.02.854-.615.98-.477.095-.693.575-.845,1.036s-.218.986-.717,1.256Z" transform="translate(-443.421 -1214.466)" fill="#030302"/><path d="M643.947,1264.991a1.5,1.5,0,0,0,.647-1.052,1.649,1.649,0,0,1,1.329-1.391c.191-.032.2-.135.2-.282,0-.325.01-.65.016-.975l1.434,3.7Z" transform="translate(-599.697 -1216.108)" fill="#f0ac5f"/><path d="M434.886,1159.432h2.531l-2.537,3.494Q434.883,1161.179,434.886,1159.432Z" transform="translate(-434.029 -1135.395)" fill="#f0ac5f"/><path d="M656.66,1162.925l-2.539-3.494h2.533Q656.657,1161.178,656.66,1162.925Z" transform="translate(-607.759 -1135.394)" fill="#f0ac5f"/><path d="M518.416,1091.577a9.406,9.406,0,0,0-2.356,1.87,8.108,8.108,0,0,0-1.968,5.675c.017.741,0,.741-.728.741-1.657,0-3.313,0-4.97,0a1.087,1.087,0,0,1-.668-.207,3.191,3.191,0,0,0-3.816-.009c-.408.292-.821.173-1.237.207-.094.008-.144-.045-.177-.144a.87.87,0,0,1,.542-1.162c.975-.392,1.948-.789,2.927-1.17a.937.937,0,0,0,.674-.982c-.015-.724,0-1.449-.005-2.174-.006-.7-.305-.988-1.022-.992-.621,0-1.244-.026-1.863.007-.456.025-.481-.169-.37-.521a1.609,1.609,0,0,1,1.654-1.143q4.892,0,9.784,0Zm-10.122,3.736c0,1.3,0,1.3,1.313,1.235a.3.3,0,0,1,.051,0c.225.027.3-.075.3-.3-.01-.636-.007-1.272,0-1.908,0-.185-.051-.262-.257-.287-1.348-.163-1.4-.122-1.4,1.2Zm4.972-.007a6.309,6.309,0,0,1,.006-.824c.064-.478-.27-.5-.532-.4-.373.14-1.031-.453-1.12.376-.06.561.008,1.134-.019,1.7-.015.328.1.4.41.4C513.266,1096.57,513.266,1096.58,513.266,1095.307Z" transform="translate(-487.561 -1081.625)" fill="#c9354f"/><path d="M583.36,1109.994a5.2,5.2,0,0,1,1.4-.928c.388.734.388.734,1.2.567a4.186,4.186,0,0,1,4.751,4.641,4.114,4.114,0,0,1-4.1,3.585,3.956,3.956,0,0,1-3.731-2.334,3.867,3.867,0,0,1,.487-4.362C583.767,1110.666,583.752,1110.382,583.36,1109.994Zm5.721,3.753a2.485,2.485,0,1,0-2.481,2.461A2.513,2.513,0,0,0,589.081,1113.747Z" transform="translate(-550.946 -1095.484)" fill="#1d4461"/><path d="M560.646,1060.888a3.65,3.65,0,0,1,.182-1.091c.04-.2.184-.172.317-.172,2.348,0,4.7,0,7.044-.005.249,0,.323.08.322.325q-.014,2.149,0,4.3c0,.262-.061.359-.343.358-2.207-.011-4.415-.006-6.743-.006.423-.428.779-.785,1.13-1.146.108-.111.2-.112.3,0a1.124,1.124,0,0,0,.11.109c.284.245.578.8.813.709.415-.158.713-.621,1.06-.956.159-.154.013-.244-.077-.335-.975-.979-1.955-1.952-2.926-2.934-.156-.158-.266-.17-.415,0C561.2,1060.3,560.963,1060.547,560.646,1060.888Z" transform="translate(-533.687 -1056.302)" fill="#4991c8"/><path d="M463.584,1105.942a1.555,1.555,0,0,1-.823-1.379c-.016-1.119-.019-2.239,0-3.359a1.652,1.652,0,0,1,3.3,0q.027,1.679,0,3.359a1.49,1.49,0,0,1-.727,1.317c-.141-.089-.081-.2-.092-.3-.041-.336.152-.879-.083-.969a4.169,4.169,0,0,0-1.421-.069c-.18,0-.153.152-.154.267C463.582,1105.156,463.584,1105.5,463.584,1105.942Z" transform="translate(-456.112 -1087.957)" fill="#76ab8e"/><path d="M441.271,1105.938c0-.413-.013-.75,0-1.085.013-.253-.085-.336-.327-.317-.425.035-.968-.175-1.248.08s-.024.813-.127,1.288a1.4,1.4,0,0,1-.774-1.247c-.032-1.188-.038-2.378,0-3.565a1.648,1.648,0,0,1,3.289.02c.033,1.17.026,2.343,0,3.514A1.5,1.5,0,0,1,441.271,1105.938Z" transform="translate(-437.115 -1087.957)" fill="#76ab8e"/><path d="M512.308,1138.811a1.656,1.656,0,0,1-1.612-1.722,1.677,1.677,0,0,1,1.7-1.59,1.656,1.656,0,0,1,1.613,1.721A1.683,1.683,0,0,1,512.308,1138.811Zm.019-.829a.828.828,0,1,0-.8-.839A.825.825,0,0,0,512.327,1137.981Z" transform="translate(-494.106 -1116.429)" fill="#1d4461"/><path d="M520.335,1064.421c0,.87,0,.87-.864.87-.792,0-.792,0-.792-.786,0-.87,0-.87.864-.87C520.335,1063.634,520.335,1063.634,520.335,1064.421Z" transform="translate(-500.433 -1059.483)" fill="#265f96"/><path d="M506.687,1109.284c0-.534.007-1.011,0-1.487,0-.193.051-.284.258-.27s.411,0,.616,0c.868,0,.864,0,.789.866-.013.149-.033.248-.2.308C507.675,1108.88,507.206,1109.077,506.687,1109.284Z" transform="translate(-490.927 -1094.264)" fill="#e8d378"/><path d="M557.6,1066.362c.34.377.587.655.84.926.095.1.141.184.023.3a11.666,11.666,0,0,1-1.5,1.357Z" transform="translate(-530.767 -1061.645)" fill="#4991c8"/><path d="M463.726,1228.224c-.078.285.162.708-.348.807a1.3,1.3,0,0,0-1.032.9c-.121.321-.212.654-.343.971a.838.838,0,0,1-1.559,0c-.105-.253-.179-.519-.261-.781a1.494,1.494,0,0,0-1.156-1.127c-.233-.047-.313-.134-.3-.371a5.023,5.023,0,0,0,0-.93c-.05-.427.177-.445.487-.385a3.028,3.028,0,0,1,1.752.917c.2.227.316.214.513,0a3.078,3.078,0,0,1,1.653-.9c.414-.1.675-.042.58.479A1.925,1.925,0,0,0,463.726,1228.224Z" transform="translate(-452.923 -1189.167)" fill="#030302"/><path d="M472.623,1201.963l-.029.19c-.493.482-.983.966-1.479,1.444a.855.855,0,0,1-1.391-.006c-.445-.434-.871-.887-1.323-1.313-.191-.18-.238-.318-.007-.484a.356.356,0,0,0,.038-.035c.3-.287.565-.753.9-.809.32-.054.583.464.853.745.209.217.314.137.5-.025.286-.255.49-.775.862-.711.308.053.551.485.822.75C472.452,1201.792,472.538,1201.878,472.623,1201.963Z" transform="translate(-460.464 -1168.29)" fill="#050503"/><path d="M480.411,1184.271c0,.787,0,.787-.818.787-.839,0-.839,0-.839-.818,0-.839,0-.839.818-.839C480.411,1183.4,480.411,1183.4,480.411,1184.271Z" transform="translate(-468.796 -1154.388)"/><path d="M487.588,1167.432c.807,0,.807,0,.807.8,0,.859,0,.859-.85.859-.807,0-.807,0-.807-.8C486.739,1167.432,486.739,1167.432,487.588,1167.432Z" transform="translate(-475.123 -1141.734)"/><path d="M543.6,1236.113c0,.155-.011.311,0,.465.019.216-.024.335-.278.383a1.5,1.5,0,0,0-1.18,1.164,7.507,7.507,0,0,1-.245.732.84.84,0,0,1-1.58-.018,6.483,6.483,0,0,1-.229-.683,1.547,1.547,0,0,0-1.206-1.207c-.134-.03-.267-.032-.26-.236.013-.413.009-.827,0-1.24,0-.3.214-.22.361-.2a2.77,2.77,0,0,1,1.78.844c.289.321.445.265.705-.015a3.014,3.014,0,0,1,1.583-.812c.41-.1.621,0,.548.465A2.354,2.354,0,0,0,543.6,1236.113Z" transform="translate(-516.234 -1195.472)" fill="#030302"/><path d="M543.211,1207.3c.233-.014.331.071.318.326-.023.446-.007.893-.008,1.34l-.208.033-.125.046a1.333,1.333,0,0,0-1.052.954c-.119.322-.214.654-.348.969a.827.827,0,0,1-1.507,0c-.125-.3-.217-.615-.324-.923a1.412,1.412,0,0,0-1.075-1.011c-.268-.056-.368-.17-.339-.445a2.957,2.957,0,0,0,0-.774c-.089-.552.2-.551.6-.461a3.016,3.016,0,0,1,1.612.866c.2.219.316.288.552.022A3.1,3.1,0,0,1,543.211,1207.3Z" transform="translate(-516.16 -1173.323)" fill="#030302"/><path d="M543.908,1185.415a.459.459,0,0,0,.052.086c.526.562.526.562.044,1.107-.356.346-.71.7-1.07,1.038a.841.841,0,0,1-1.348,0c-.469-.454-.922-.925-1.391-1.379-.155-.15-.189-.271,0-.409a1.227,1.227,0,0,0,.11-.108c.284-.274.544-.73.859-.771.334-.044.58.463.853.739.2.2.328.193.489-.016a2.427,2.427,0,0,1,.217-.22C543.307,1184.9,543.307,1184.9,543.908,1185.415Z" transform="translate(-517.38 -1155.64)" fill="#050503"/><path d="M547.464,1167.432c.818,0,.818,0,.818.839,0,.818,0,.818-.838.818-.818,0-.818,0-.818-.839C546.625,1167.432,546.625,1167.432,547.464,1167.432Z" transform="translate(-522.578 -1141.734)"/><path d="M560.981,1215.536l.125-.047Z" transform="translate(-533.953 -1179.816)" fill="#c7813c"/><path d="M623.246,1227.259c.378.05.131.364.225.534a2.628,2.628,0,0,0-.014.361c.044.468.043.847-.6.936a1.087,1.087,0,0,0-.759.786c-.1.274-.206.547-.289.826a.858.858,0,0,1-1.694-.023c-.065-.231-.154-.455-.232-.682a1.488,1.488,0,0,0-1.074-1.018c-.124-.033-.335.025-.331-.229.008-.431,0-.861,0-1.292,0-.265.2-.19.335-.175a2.931,2.931,0,0,1,1.866.9c.2.218.315.281.552.021A3.027,3.027,0,0,1,623.246,1227.259Z" transform="translate(-579.517 -1189.142)" fill="#030302"/><path d="M616.37,1201.96c0,.037.008.074.013.111-.51.514-1.014,1.034-1.532,1.54a.838.838,0,0,1-1.351,0c-.458-.444-.895-.911-1.36-1.347-.208-.194-.177-.314.015-.487.307-.276.56-.752.9-.816.365-.069.607.465.9.741.185.177.286.159.458-.01.279-.274.528-.783.857-.747.312.034.577.5.864.768.062.059.129.113.193.169l.008-.014A.089.089,0,0,0,616.37,1201.96Z" transform="translate(-574.379 -1168.291)" fill="#050503"/><path d="M614.5,1184.188c0-.787,0-.787.818-.787.839,0,.839,0,.839.818,0,.839,0,.839-.818.839C614.5,1185.058,614.5,1185.058,614.5,1184.188Z" transform="translate(-576.359 -1154.388)"/><path d="M608.168,1168.285c0,.8,0,.8-.8.8-.855,0-.855,0-.855-.853,0-.8,0-.8.8-.8C608.168,1167.432,608.168,1167.432,608.168,1168.285Z" transform="translate(-570.032 -1141.734)"/><path d="M632.9,1205.492a.089.089,0,0,1-.042-.089C632.924,1205.408,632.967,1205.424,632.9,1205.492Z" transform="translate(-590.909 -1171.823)" fill="#f0ac5f"/><path d="M530.655,1104.528v-.052c0-1.326.054-1.367,1.4-1.2.206.025.258.1.257.287-.006.636-.009,1.272,0,1.908,0,.221-.071.323-.3.3a.329.329,0,0,0-.051,0C530.655,1105.828,530.655,1105.828,530.655,1104.528Z" transform="translate(-509.923 -1090.84)"/><path d="M548.227,1104.573c0,1.274,0,1.263-1.254,1.25-.308,0-.425-.073-.41-.4.027-.566-.042-1.139.019-1.7.089-.829.747-.235,1.12-.376.262-.1.6-.076.532.4A6.309,6.309,0,0,0,548.227,1104.573Z" transform="translate(-522.523 -1090.892)"/><path d="M595.516,1122.039a2.485,2.485,0,1,1-2.488-2.509A2.515,2.515,0,0,1,595.516,1122.039Zm-2.458.8a.827.827,0,1,0-.853-.786A.833.833,0,0,0,593.058,1122.84Z" transform="translate(-557.381 -1103.776)"/><path d="M515.495,1141.142a.828.828,0,1,1,.851-.791A.822.822,0,0,1,515.495,1141.142Z" transform="translate(-497.273 -1119.59)" fill="#4991c8"/><path d="M599.388,1129.167a.827.827,0,1,1,.8-.841A.836.836,0,0,1,599.388,1129.167Z" transform="translate(-563.711 -1110.103)" fill="#4991c8"/></g><rect width="61" height="61" transform="translate(353 6680)" fill="none"/></g></g></svg>