<svg xmlns="http://www.w3.org/2000/svg" width="61" height="61" viewBox="0 0 61 61"><g transform="translate(-3130 5024)"><g transform="translate(2777 -11704)"><rect width="61" height="61" transform="translate(353 6680)" fill="none"/><g transform="translate(357.016 6686.963)"><ellipse cx="6.14" cy="6.14" rx="6.14" ry="6.14" transform="translate(0.679 0.506)" fill="#f6f8f9"/><g transform="translate(0 0)"><path d="M1198.166,1234.38l-1.085.012c-.178-.619-.366-.755-1.038-.755q-10.03,0-20.059,0a2.952,2.952,0,0,1-2.337-.893,2.775,2.775,0,0,1,2.078-4.665q10.909-.01,21.817,0c.206,0,.413.011.619.017Q1198.163,1231.238,1198.166,1234.38Z" transform="translate(-1155.539 -1188.296)" fill="#88d2a5"/><path d="M1183.995,1067.013q-6.982,0-13.965,0a4.324,4.324,0,1,1-.21-8.639q10.525-.017,21.05,0c2.483,0,4.965-.013,7.448.005a4.29,4.29,0,0,1,4.167,3.362,4.343,4.343,0,0,1-2.413,4.88,5.116,5.116,0,0,1-2.216.4Q1190.926,1067.01,1183.995,1067.013Zm1.217-7.07c-5.238,0-10.476-.035-15.714,0a2.721,2.721,0,0,0-2.434,3.432,2.775,2.775,0,0,0,2.9,2.076q7.393.008,14.785,0c.154,0,.308-.018.462-.028,1,.009,1.991.011,2.986.031.265.005.36-.082.359-.353q-.014-2.421,0-4.842c0-.279-.1-.348-.362-.344C1187.2,1059.936,1186.208,1059.937,1185.212,1059.943Zm9.328-.02c-1.326,0-2.652.01-3.978-.006-.335,0-.443.1-.439.437.016,1.549.014,3.1,0,4.649,0,.322.075.457.428.455,2.583-.014,5.167.012,7.749-.019a2.732,2.732,0,0,0,2.738-2.774,2.761,2.761,0,0,0-2.831-2.739C1196.985,1059.917,1195.763,1059.923,1194.54,1059.923Z" transform="translate(-1149.623 -1053.765)" fill="#030403"/><path d="M1184.035,1148.078q-7.086,0-14.172,0a4.328,4.328,0,1,1,.042-8.653c3.121-.015,6.241,0,9.362,0q9.388,0,18.776,0a4.341,4.341,0,0,1,4.473,3.506,4.3,4.3,0,0,1-4.2,5.142c-4.759.024-9.517.007-14.276.007Zm-4.191-1.569c1.014.006,2.027.006,3.041.021.246,0,.372-.04.37-.333-.012-1.632-.01-3.265,0-4.9,0-.243-.081-.339-.326-.334-1.03.018-2.06.025-3.089.037-.1-.01-.2-.03-.307-.03q-4.805,0-9.611,0a4.049,4.049,0,0,0-.565.047,2.761,2.761,0,0,0,.26,5.489C1173.024,1146.536,1176.434,1146.512,1179.844,1146.509Zm11.963.016c2.119,0,4.238.007,6.357,0a2.767,2.767,0,1,0,.046-5.529c-4.324-.014-8.648,0-12.972-.013-.39,0-.446.152-.442.487.015,1.5.023,3,0,4.495-.008.436.079.583.555.577C1187.5,1146.508,1189.653,1146.525,1191.807,1146.524Z" transform="translate(-1149.634 -1118.013)" fill="#030403"/><path d="M1192.242,1222.158c-.207-.006-.413-.017-.619-.017q-10.909,0-21.817,0a2.775,2.775,0,0,0-2.078,4.665,2.951,2.951,0,0,0,2.337.893q10.03-.007,20.059,0c.672,0,.86.137,1.038.756-.182.619-.4.8-1.025.8q-10.134,0-20.268,0a4.329,4.329,0,0,1-2.049-8.2,4.184,4.184,0,0,1,1.889-.454q14.3,0,28.591,0a4.311,4.311,0,0,1,.451,8.6c-1.733.171-3.478.047-5.218.053-.483,0-.73-.328-.848-.767a.88.88,0,0,1,1-.814c.5.008,1-.006,1.494.024.281.017.4-.039.395-.351q-.02-2.422,0-4.845c0-.263-.068-.36-.345-.355C1194.235,1222.156,1193.239,1222.153,1192.242,1222.158Zm4.882,2.741v1.447c0,1.526,0,1.526,1.524,1.3a2.77,2.77,0,0,0,2.38-2.487,2.8,2.8,0,0,0-1.85-2.862,5.557,5.557,0,0,0-1.686-.161c-.3-.015-.379.1-.373.388C1197.135,1223.315,1197.125,1224.108,1197.125,1224.9Z" transform="translate(-1149.62 -1182.358)" fill="#030303"/><path d="M1098.433,1132.772c-1.068,0-2.136.007-3.2,0a2.7,2.7,0,0,1-2.826-2.681q-.086-3.383,0-6.769a2.7,2.7,0,0,1,2.833-2.672c.277,0,.46,0,.511-.377a2.732,2.732,0,0,1,2.626-2.393,2.772,2.772,0,0,1,2.751,2.2c.09.466.25.581.714.583a2.74,2.74,0,0,1,2.7,2.658c.012.241.01.482,0,.724a1.393,1.393,0,0,1-1.456,1.467c-.258.009-.518-.011-.775.01a1.269,1.269,0,0,0-1.147,1.195,1.217,1.217,0,0,0,1.19,1.188c.275.014.552,0,.827.01a1.3,1.3,0,0,1,1.3,1.045,3.323,3.323,0,0,1-.513,2.706,2.627,2.627,0,0,1-2.121,1.1c-1.137.016-2.274,0-3.412,0Zm.833-1.574c.844.005,1.687.016,2.531.014a1.141,1.141,0,0,0,.985-.569,1.181,1.181,0,0,0,.171-1.038c-.114-.31-.484-.12-.736-.143a2.692,2.692,0,0,1-2.391-1.7,2.54,2.54,0,0,1,.489-2.834,2.787,2.787,0,0,1,2.245-.975c.16,0,.378.1.428-.213a1.3,1.3,0,0,0-1.224-1.533c-.344-.016-.689,0-1.034-.005-.807,0-1.056-.248-1.059-1.039a2.426,2.426,0,0,0-.1-.917,1.241,1.241,0,0,0-1.26-.8,1.183,1.183,0,0,0-1.035,1.115c-.021.273.006.549.012.823-.212.681-.389.812-1.108.816-.31,0-.62-.005-.929,0a1.207,1.207,0,0,0-1.3,1.282c-.019.481-.005.963-.005,1.445,0,1.634-.007,3.268,0,4.9.005.852.443,1.374,1.2,1.383C1096.515,1131.226,1097.891,1131.2,1099.266,1131.2Z" transform="translate(-1091.712 -1100.94)" fill="#040304"/><path d="M1100.119,1215.278a1.57,1.57,0,0,1-.759-.231,5.144,5.144,0,0,1-.77-.416,2.147,2.147,0,0,0-2.946.025,4.6,4.6,0,0,1-.911.48,1.48,1.48,0,0,1-1.606-.173,1.5,1.5,0,0,1-.582-1.511c.117-.713.239-1.426.379-2.135a.723.723,0,0,0-.247-.77c-.527-.469-1.015-.983-1.524-1.473a1.515,1.515,0,0,1-.444-1.647,1.532,1.532,0,0,1,1.381-1.076c.716-.1,1.43-.221,2.148-.3a.552.552,0,0,0,.5-.363c.315-.668.657-1.323.977-1.989a1.554,1.554,0,0,1,2.853-.012c.325.663.666,1.319.977,1.989a.585.585,0,0,0,.542.377c.735.08,1.467.195,2.2.312a1.519,1.519,0,0,1,1.29,1.052,1.482,1.482,0,0,1-.4,1.611c-.535.537-1.075,1.07-1.631,1.586a.6.6,0,0,0-.2.634c.144.726.284,1.454.377,2.187A1.555,1.555,0,0,1,1100.119,1215.278Zm-4.619-8.006c-1.018.488-2.172.353-3.144.641.557.6,1.114,1.206,1.684,1.8a1.6,1.6,0,0,1,.471,1.458c-.146.826-.276,1.655-.425,2.559.381-.2.69-.381,1.015-.53a7.551,7.551,0,0,1,1.964-.885,2.3,2.3,0,0,1,1.025.3c.674.365,1.358.71,2.107,1.1-.135-.806-.227-1.538-.386-2.255a1.871,1.871,0,0,1,.621-1.943c.55-.5,1.042-1.068,1.574-1.621-.679-.1-1.339-.25-2-.291a2.02,2.02,0,0,1-1.918-1.375c-.258-.637-.607-1.237-.945-1.911-.157.316-.262.552-.388.775A8.592,8.592,0,0,1,1095.5,1207.273Z" transform="translate(-1090.339 -1168.222)" fill="#040304"/><path d="M1095.023,1037.856c-.218.046-.436.09-.654.137a.785.785,0,1,1-.416-1.5,6.7,6.7,0,0,1,6.464,11.361.722.722,0,0,0-.26.578c.005.482-.012.965-.029,1.447a1.333,1.333,0,0,1-.873,1.232,1.189,1.189,0,0,1-1.482-.225,4.284,4.284,0,0,0-3.081-1.456,6.662,6.662,0,0,1-4.019-10.685c.4-.509.836-.624,1.229-.323s.4.745.008,1.265a5.141,5.141,0,0,0,2.873,8.216,1.568,1.568,0,0,0,.255.022,2.792,2.792,0,0,0,1.33.089,1.25,1.25,0,0,1,1.184.459c.306.337.661.629,1.059,1,0-.424.026-.8-.006-1.169a1.721,1.721,0,0,1,.73-1.583,5.111,5.111,0,0,0-4.311-8.862Z" transform="translate(-1089.239 -1036.176)" fill="#040304"/><path d="M1197.8,1122.37h-10.129a3.461,3.461,0,0,1-.464-.01.719.719,0,0,1-.69-.706.73.73,0,0,1,.625-.818,2.178,2.178,0,0,1,.515-.022h20.308a2.3,2.3,0,0,1,.464.014.732.732,0,0,1,.666.786.719.719,0,0,1-.7.747,3.634,3.634,0,0,1-.464.009Z" transform="translate(-1166.349 -1103.265)" fill="#030303"/><path d="M1117.14,1043.908a5.111,5.111,0,0,1,4.311,8.862,1.721,1.721,0,0,0-.73,1.583c.032.37.006.745.006,1.169-.4-.372-.753-.664-1.059-1a1.25,1.25,0,0,0-1.184-.459,2.79,2.79,0,0,1-1.33-.089,16.259,16.259,0,0,0,1.56-1.552,5.99,5.99,0,0,0,1.021-2.442c.045-.2.091-.4.136-.6a1.887,1.887,0,0,0,.314.329.767.767,0,0,0,1.12-.961.743.743,0,0,0-.841-.438.942.942,0,0,0-.593.449,6.393,6.393,0,0,0-1.878-4.119C1117.724,1044.379,1117.425,1044.151,1117.14,1043.908Z" transform="translate(-1111.356 -1042.227)" fill="#e3ebf4"/><path d="M1196.12,1202.036h8.634a.99.99,0,0,1,.729.185.764.764,0,0,1-.241,1.3,1.739,1.739,0,0,1-.664.066h-16.906c-.1,0-.207,0-.31,0-.556-.031-.877-.34-.858-.821.018-.461.325-.727.878-.729,1.43-.006,2.861,0,4.291,0Z" transform="translate(-1166.341 -1167.652)" fill="#040304"/><path d="M1194.488,1041.251q-3.435,0-6.869,0a2.267,2.267,0,0,1-.564-.042.761.761,0,0,1-.026-1.453,2.5,2.5,0,0,1,.665-.058q6.792,0,13.584,0c.086,0,.172,0,.258,0,.618.021.939.3.933.793s-.325.76-.956.761Q1198,1041.256,1194.488,1041.251Z" transform="translate(-1166.342 -1038.964)" fill="#080808"/><path d="M1294.841,1228.078c1-.006,1.993,0,2.989-.023.277-.006.346.092.345.355q-.015,2.422,0,4.845c0,.312-.114.367-.395.351-.5-.03-1-.016-1.494-.024a.88.88,0,0,0-1,.814l-.438-.033Q1294.843,1231.22,1294.841,1228.078Z" transform="translate(-1252.219 -1188.278)" fill="#66bfa4"/><path d="M1106.217,1066.987a.774.774,0,1,1-.055-1.547.774.774,0,0,1,.055,1.547Z" transform="translate(-1102.059 -1059.374)" fill="#080808"/><path d="M1119.309,1066.235a.767.767,0,0,1-.758.756.773.773,0,1,1,.034-1.545A.767.767,0,0,1,1119.309,1066.235Z" transform="translate(-1111.851 -1059.377)" fill="#080808"/><path d="M1130.312,1065.921a.94.94,0,0,1,.593-.449.743.743,0,0,1,.841.438.767.767,0,0,1-1.12.961,1.877,1.877,0,0,1-.314-.329Z" transform="translate(-1121.797 -1059.39)" fill="#080808"/><path d="M1191.179,1071.4c-.154.01-.308.028-.462.028q-7.393,0-14.785,0a2.775,2.775,0,0,1-2.9-2.076,2.721,2.721,0,0,1,2.434-3.431c5.238-.038,10.476-.007,15.714,0Q1191.177,1068.661,1191.179,1071.4Z" transform="translate(-1155.587 -1059.741)" fill="#88d3a6"/><path d="M1289.019,1065.857c1.223,0,2.445-.006,3.668,0a2.761,2.761,0,0,1,2.831,2.739,2.732,2.732,0,0,1-2.738,2.774c-2.583.031-5.167.005-7.75.019-.353,0-.431-.134-.428-.455q.019-2.325,0-4.649c0-.341.1-.441.439-.437C1286.367,1065.867,1287.693,1065.857,1289.019,1065.857Z" transform="translate(-1244.102 -1059.699)" fill="#8c818e"/><path d="M1260.917,1071.368q0-2.742,0-5.483c1-.007,1.992-.007,2.987-.025.26,0,.364.064.362.344q-.016,2.421,0,4.842c0,.271-.094.358-.359.353C1262.908,1071.38,1261.912,1071.377,1260.917,1071.368Z" transform="translate(-1225.325 -1059.706)" fill="#66bfa4"/><path d="M1265.845,1152.507c-2.153,0-4.307-.017-6.46.013-.477.007-.563-.141-.555-.577.026-1.5.018-3,0-4.495,0-.334.053-.488.442-.487,4.324.013,8.648,0,12.972.013a2.767,2.767,0,1,1-.046,5.529C1270.083,1152.513,1267.964,1152.507,1265.845,1152.507Z" transform="translate(-1223.673 -1123.996)" fill="#8c818e"/><path d="M1185.844,1152.461c-3.41,0-6.82.028-10.23,0a2.761,2.761,0,0,1-.26-5.489,4.015,4.015,0,0,1,.565-.047q4.805,0,9.611,0c.1,0,.2.02.307.03Q1185.84,1149.708,1185.844,1152.461Z" transform="translate(-1155.634 -1123.965)" fill="#88d3a6"/><path d="M1234.937,1152.438q0-2.753-.007-5.506c1.03-.011,2.06-.019,3.089-.037.245,0,.327.091.326.334-.007,1.632-.01,3.265,0,4.9,0,.292-.124.336-.37.333C1236.965,1152.445,1235.951,1152.444,1234.937,1152.438Z" transform="translate(-1204.728 -1123.943)" fill="#65ba9f"/><path d="M1318.37,1230.816c0-.792.01-1.585-.005-2.376-.005-.284.069-.4.373-.388a5.557,5.557,0,0,1,1.686.161,2.8,2.8,0,0,1,1.85,2.863,2.77,2.77,0,0,1-2.38,2.487c-1.524.226-1.524.226-1.524-1.3Z" transform="translate(-1270.866 -1188.274)" fill="#8c818e"/><path d="M1105.291,1144.6c-1.376.006-2.752.028-4.127.011-.753-.009-1.192-.531-1.2-1.383-.01-1.634,0-3.268,0-4.9,0-.482-.013-.964.006-1.444a1.207,1.207,0,0,1,1.3-1.282c.31-.007.619,0,.929,0,.718,0,.9-.135,1.108-.816a2.347,2.347,0,0,1,1.7.586c.748.684.613,1.555.563,2.4-.015.247-.265.328-.516.323a4.041,4.041,0,0,0-1.277.108,1.969,1.969,0,0,0-1.5,2.021,2.016,2.016,0,0,0,1.547,1.821,5.075,5.075,0,0,0,1.229.077c.36.01.54.168.543.533A3.371,3.371,0,0,1,1105.291,1144.6Z" transform="translate(-1097.737 -1114.339)" fill="#ea8588"/><path d="M1114.176,1137.151a3.37,3.37,0,0,0,.314-1.944c0-.365-.183-.523-.543-.533a5.068,5.068,0,0,1-1.229-.077,2.016,2.016,0,0,1-1.547-1.822,1.969,1.969,0,0,1,1.5-2.021,4.04,4.04,0,0,1,1.277-.108c.251.005.5-.076.516-.323.05-.849.185-1.719-.563-2.4a2.347,2.347,0,0,0-1.7-.586c-.005-.274-.033-.551-.012-.823a1.182,1.182,0,0,1,1.036-1.115,1.24,1.24,0,0,1,1.26.8,2.421,2.421,0,0,1,.1.917c0,.792.252,1.035,1.059,1.039.345,0,.69-.01,1.034.006a1.3,1.3,0,0,1,1.224,1.533c-.05.317-.268.216-.428.213a2.788,2.788,0,0,0-2.245.975,2.54,2.54,0,0,0-.489,2.834,2.692,2.692,0,0,0,2.391,1.7c.252.023.622-.167.736.143a1.181,1.181,0,0,1-.171,1.038,1.141,1.141,0,0,1-.985.569C1115.863,1137.167,1115.02,1137.156,1114.176,1137.151Z" transform="translate(-1106.622 -1106.893)" fill="#e96d72"/><path d="M1114.136,1213.282a8.588,8.588,0,0,0,1.25-2.171c.126-.224.231-.459.389-.775.337.675.686,1.275.945,1.911a2.02,2.02,0,0,0,1.918,1.375c.666.041,1.325.189,2,.291-.532.553-1.024,1.12-1.574,1.622a1.871,1.871,0,0,0-.621,1.943c.158.717.251,1.45.386,2.255-.749-.39-1.433-.735-2.107-1.1a2.3,2.3,0,0,0-1.025-.3,5.852,5.852,0,0,0-.214-3.243A3.285,3.285,0,0,0,1114.136,1213.282Z" transform="translate(-1108.975 -1174.232)" fill="#f5ce6e"/><path d="M1102.113,1224.548a3.285,3.285,0,0,1,1.351,1.8,5.852,5.852,0,0,1,.214,3.243,7.555,7.555,0,0,0-1.964.885c-.324.149-.634.33-1.015.53.149-.9.28-1.732.425-2.559a1.6,1.6,0,0,0-.471-1.458c-.57-.6-1.127-1.206-1.684-1.8C1099.942,1224.9,1101.1,1225.036,1102.113,1224.548Z" transform="translate(-1096.952 -1185.498)" fill="#f6de84"/></g></g></g></g></svg>