<svg xmlns="http://www.w3.org/2000/svg" width="105" height="102" viewBox="0 0 105 102"><g transform="translate(-180 -2470)"><rect width="105" height="102" transform="translate(180 2470)" fill="#ffa686"/><g transform="translate(-685.901 1724.822)"><path d="M956.175,841.152q-11.305,0-22.611,0c-.343,0-.687-.019-1.03-.028q.008-4.683.016-9.366a2.928,2.928,0,0,1,2.227-3.14A11.184,11.184,0,0,0,941.791,821a17.1,17.1,0,0,0,.414-5.893,13.194,13.194,0,0,0-2.01-6.338,18.934,18.934,0,0,0-3.625-4.046,1.7,1.7,0,0,1-.024-2.745c.439-.459.928-.872,1.337-1.355a7.42,7.42,0,0,0-2.337-11.67,2.708,2.708,0,0,1-1.716-2.458c-.023-5.239-.011-10.478-.007-15.718a1.844,1.844,0,0,1,.516-1.442,2.864,2.864,0,0,1,.792,2.308q-.007,7.8,0,15.607c0,1.014.4,1.567,1.134,1.617.7.047,1.137-.431,1.288-1.4a3.4,3.4,0,0,0,2.125-1.854,5.1,5.1,0,0,0,.49-2.366c.007-5.358.024-10.716-.012-16.073a5.912,5.912,0,0,1,.947-3.28,3.033,3.033,0,0,0,.186-.425,2.86,2.86,0,0,1,2.252,3.093q.011,7.652,0,15.3,0,4.322,0,8.643c0,1.059.418,1.635,1.18,1.653s1.195-.544,1.2-1.605c.01-1.03.024-2.059.036-3.089a3.811,3.811,0,0,0,2.611-3.918c.035-3.625.019-7.252.007-10.878-.006-1.847-.135-3.707.809-5.41a2.82,2.82,0,0,1,2.552,2.84c.034,2.037.013,4.075.013,6.112q0,7.1,0,14.209c0,1.136.4,1.718,1.176,1.739.812.022,1.2-.554,1.21-1.761.006-.978.023-1.956.035-2.933a3.539,3.539,0,0,0,2.3-2.227,5.492,5.492,0,0,0,.323-1.932c0-2.988.014-5.976-.007-8.963a5.075,5.075,0,0,1,.5-2.369,2.918,2.918,0,0,1,2.869,3.133c.013,4.179,0,8.357.005,12.536,0,1.123.2,1.395,1.234,1.715l-.011.333a5.06,5.06,0,0,0-2.977.628c-3.734,1.978-7.418,4.053-11.189,5.956a7.165,7.165,0,0,0-4.259,7.2c.1,4.339.011,8.682.033,13.023a15.765,15.765,0,0,0,.418,3.439,16.34,16.34,0,0,0,5.2,8.838,17.478,17.478,0,0,0,8.5,4.12q0,.447,0,.9a1.3,1.3,0,0,0-1.149,1.512C956.2,837.254,956.179,839.2,956.175,841.152Z" transform="translate(-29.872 -5.424)" fill="#fae4c5"/><path d="M1009.305,861.588a14.754,14.754,0,0,0,2.293,1.327c-.191,1.063-.064,1.326.893,1.838,1.443.773,2.881,1.557,4.335,2.31a2.1,2.1,0,0,1,1.226,2.04c-.012,4.606.069,9.214-.023,13.819-.172,8.649-7.669,13.034-14.744,12.588-.09-.09-.163-.216-.271-.264a13.432,13.432,0,0,1-4.958-3.674,12.736,12.736,0,0,1-3.143-8.093c-.1-4.837-.029-9.678-.025-14.517a3.079,3.079,0,0,1,1.8-2.924c2.666-1.392,5.319-2.81,7.97-4.232.337-.181.732-.325.893-.735.579.3,1.159.592,1.737.893C1008.253,862.47,1008.619,862.4,1009.305,861.588Zm-5.293,24.868c.873,0,1.747.022,2.619-.006a1.654,1.654,0,0,0,1.736-1.755c.021-.634.02-1.271,0-1.9-.012-.349.12-.458.457-.448.634.018,1.271.024,1.9,0a1.671,1.671,0,0,0,1.76-1.82q.03-2.461,0-4.922a1.712,1.712,0,0,0-1.808-1.868c-.737-.032-1.719.252-2.148-.119-.5-.431-.118-1.44-.158-2.2a1.682,1.682,0,0,0-1.718-1.792q-2.577-.066-5.158,0a1.633,1.633,0,0,0-1.719,1.768,13.793,13.793,0,0,0,.006,1.587c.05.569-.094.83-.724.761a11.023,11.023,0,0,0-1.586-.008,1.685,1.685,0,0,0-1.817,1.841q-.021,2.5,0,5a1.612,1.612,0,0,0,1.71,1.765c.633.032,1.27.024,1.9.007.373-.01.521.123.507.505-.023.608-.017,1.217,0,1.826a1.623,1.623,0,0,0,1.774,1.78C1002.372,886.475,1003.192,886.457,1004.012,886.456Z" transform="translate(-72.359 -71.955)" fill="#b4eadb"/><path d="M907.132,779.669a1.844,1.844,0,0,0-.516,1.442c0,5.24-.016,10.479.007,15.718a2.708,2.708,0,0,0,1.716,2.458,7.42,7.42,0,0,1,2.337,11.67c-.409.483-.9.9-1.337,1.355a1.7,1.7,0,0,0,.024,2.745,18.934,18.934,0,0,1,3.625,4.046,13.2,13.2,0,0,1,2.01,6.338,17.1,17.1,0,0,1-.414,5.893,11.184,11.184,0,0,1-7.014,7.611,2.928,2.928,0,0,0-2.227,3.14q-.007,4.683-.016,9.366l-4.609.019c-.01-.264-.028-.527-.028-.791,0-4.5-.019-9,.013-13.5a2.066,2.066,0,0,0-1.06-2.033c-1-.591-1.944-1.275-2.9-1.935a6.541,6.541,0,0,1-2.962-5.577c-.022-1.456-.025-2.912,0-4.367a1.3,1.3,0,0,0-1.16-1.518q0-1.322,0-2.643a1.31,1.31,0,0,0,1.157-1.524c-.033-.791-.025-1.586,0-2.378a8.237,8.237,0,0,1,2.911-6.354c2.187-1.829,4.463-3.552,6.73-5.282a2.773,2.773,0,0,1,3.056-.287.762.762,0,0,1-.333.6c-1.022.785-2.053,1.557-3.065,2.355a26.755,26.755,0,0,0-2.8,2.3,9.444,9.444,0,0,0-2.685,6.66c-.014,4.435-.213,8.875.117,13.308a7.157,7.157,0,0,0,2.962,5.35c.794.607,1.727,1.05,2.456,1.72,1.1,1.012,2.221.82,3.431.365a7.826,7.826,0,0,0,1.547-.783,7.732,7.732,0,0,0,3.585-5.6c1.057-.214,1.3-.5,1.318-1.527.008-.555,0-1.111,0-1.667a11.528,11.528,0,0,0-3.913-8.855c-1.17-1.072-2.339-2.146-3.539-3.184-.37-.32-.386-.492-.038-.848,1.258-1.284,2.507-2.581,3.706-3.921a5.361,5.361,0,0,0,.172-6.985,5.415,5.415,0,0,0-6.876-1.289c-.186.1-.334.371-.633.22,0-3.517-.015-7.035.01-10.554.006-.871-.292-1.426-1.174-1.6q0-1.32,0-2.64c.86-.131,1.171-.657,1.176-1.5a28.051,28.051,0,0,1,.076-4.112,2.962,2.962,0,0,1,5.153-1.443Z" transform="translate(-2.666 -15.754)" fill="#f4d1a8"/><path d="M921.821,763.915a2.962,2.962,0,0,0-5.153,1.443,28.052,28.052,0,0,0-.076,4.112c0,.839-.315,1.365-1.176,1.5a1.2,1.2,0,0,1-1.2-1.23,35.439,35.439,0,0,1,.052-4.36,5.351,5.351,0,0,1,7.828-4.276c.138.067.276.132.505.241a5.631,5.631,0,0,1,1.945-4.546,5.206,5.206,0,0,1,3.257-1.273c2.8-.1,4.842,1.619,5.62,4.74a5.439,5.439,0,0,1,8.419,4.618c.314.112.5-.134.728-.237a5.354,5.354,0,0,1,7.641,4.68c.078,4.417.016,8.836.034,13.253,0,.821-.469,1.166-1.155,1.365-1.034-.321-1.234-.592-1.234-1.715,0-4.179.008-8.357-.005-12.536a3,3,0,1,0-6-.263c-.05,4.207,0,8.415.011,12.622-.012.978-.029,1.956-.035,2.933-.007,1.207-.4,1.783-1.21,1.761-.78-.021-1.176-.6-1.176-1.739q0-7.1,0-14.208c0-2.037.021-4.075-.013-6.112a2.82,2.82,0,0,0-2.552-2.84,1.115,1.115,0,0,0-.842-.063,3.049,3.049,0,0,0-2.62,3.247q-.015,5.5,0,11.007c0,2,.024,4.009.037,6.014-.012,1.029-.026,2.059-.036,3.089-.01,1.061-.429,1.623-1.2,1.605s-1.179-.594-1.18-1.653q0-4.321,0-8.643,0-7.652,0-15.3a2.86,2.86,0,0,0-2.252-3.093,1.639,1.639,0,0,0-.363-.132A3.049,3.049,0,0,0,925,761.184q-.015,8.649,0,17.3c0,1.189.024,2.378.038,3.567-.151.966-.592,1.444-1.288,1.4-.738-.05-1.134-.6-1.134-1.617q0-7.8,0-15.607A2.863,2.863,0,0,0,921.821,763.915Z" transform="translate(-17.354)" fill="#050504"/><path d="M987.926,889.16c7.075.446,14.573-3.939,14.744-12.588.092-4.6.01-9.213.023-13.819a2.1,2.1,0,0,0-1.226-2.04c-1.454-.753-2.891-1.537-4.335-2.31-.957-.512-1.084-.776-.893-1.839.723-.713,1.066-.774,1.955-.3,1.514.805,3.022,1.622,4.533,2.435a4.2,4.2,0,0,1,2.339,3.94c.014,4.658.049,9.317-.006,13.974-.083,6.992-4.629,12.573-11.645,14.384a17.741,17.741,0,0,1-8.4.219,3.709,3.709,0,0,0-.551-.042c-.171-.062-.338-.137-.513-.183-7.953-2.109-11.812-8.585-11.612-15.15.132-4.337.046-8.682.016-13.022a4.42,4.42,0,0,1,2.594-4.264c3.762-1.977,7.5-4,11.241-6.019a6.041,6.041,0,0,1,2.55-.779c1.84.126,3.27,1.221,4.8,2.064.538.3.506.876.409,1.417-.686.815-1.052.882-2.021.376-.577-.3-1.158-.6-1.737-.893a2.421,2.421,0,0,0-2.869-.1q-5.623,3.072-11.3,6.051a2.178,2.178,0,0,0-1.289,2.149c.029,4.52.015,9.041.01,13.562a12.41,12.41,0,0,0,.268,2.755C976.493,885.718,982.239,888.969,987.926,889.16Z" transform="translate(-57.001 -65.606)" fill="#030403"/><path d="M898.076,812.344c.882.173,1.18.728,1.173,1.6-.025,3.518-.01,7.037-.01,10.554.3.152.448-.116.633-.22a5.415,5.415,0,0,1,6.876,1.289,5.361,5.361,0,0,1-.172,6.985c-1.2,1.34-2.448,2.636-3.706,3.921-.348.356-.331.528.038.848,1.2,1.038,2.369,2.112,3.539,3.184a11.529,11.529,0,0,1,3.912,8.855c0,.556.007,1.111,0,1.667-.014,1.031-.261,1.313-1.318,1.527a1.43,1.43,0,0,1-1.069-1.632c.024-.475,0-.952.005-1.428a9.293,9.293,0,0,0-3.323-7.408c-1.464-1.3-2.912-2.614-4.36-3.93-.939-.853-.952-1.4-.081-2.321,1.49-1.576,2.995-3.137,4.468-4.727a2.972,2.972,0,0,0-.856-4.841,2.773,2.773,0,0,0-3.056.287c-2.267,1.73-4.544,3.452-6.73,5.282a8.236,8.236,0,0,0-2.911,6.354c-.024.792-.031,1.587,0,2.378a1.31,1.31,0,0,1-1.157,1.524c-.975-.26-1.222-.564-1.232-1.542a15.935,15.935,0,0,1,.746-6.253,10.972,10.972,0,0,1,3.318-4.562c1.132-.913,2.271-1.818,3.442-2.679a1.352,1.352,0,0,0,.623-1.241c-.026-3.943-.016-7.885-.012-11.829C896.857,812.926,897.079,812.637,898.076,812.344Z" transform="translate(-0.011 -38.738)" fill="#050404"/><path d="M984.376,847.676a6.042,6.042,0,0,0-2.55.78c-3.738,2.022-7.479,4.041-11.241,6.019a4.42,4.42,0,0,0-2.594,4.264c.03,4.341.116,8.685-.016,13.023-.2,6.565,3.66,13.04,11.612,15.149.175.047.343.122.513.183q-.005.953-.01,1.906a17.479,17.479,0,0,1-8.5-4.12,16.34,16.34,0,0,1-5.2-8.839,15.765,15.765,0,0,1-.418-3.439c-.022-4.341.066-8.684-.033-13.023a7.165,7.165,0,0,1,4.259-7.2c3.771-1.9,7.455-3.978,11.189-5.956a5.059,5.059,0,0,1,2.977-.628Q984.367,846.737,984.376,847.676Z" transform="translate(-52.638 -61.524)" fill="#f4d0a8"/><path d="M889.959,914.1a1.3,1.3,0,0,1,1.16,1.518c-.029,1.455-.026,2.912,0,4.367a6.54,6.54,0,0,0,2.962,5.577c.957.66,1.9,1.344,2.9,1.935a2.066,2.066,0,0,1,1.06,2.033c-.032,4.5-.015,9-.013,13.5,0,.264.018.527.028.791-.206.7-.588,1.2-1.4,1.112-.684-.073-1.013-.588-1.014-1.543,0-4.391-.012-8.783.012-13.175a1.174,1.174,0,0,0-.623-1.149c-.831-.513-1.639-1.065-2.433-1.634a8.859,8.859,0,0,1-3.863-7.353c-.036-1.481-.012-2.963,0-4.444C888.734,914.655,889,914.332,889.959,914.1Z" transform="translate(0 -108.106)" fill="#050504"/><path d="M1006.806,991.752c0-1.949.027-3.9,0-5.846a1.3,1.3,0,0,1,1.149-1.512c.952.21,1.237.543,1.241,1.51.008,1.791,0,3.582,0,5.373,0,.694-.183,1.281-.936,1.442A1.159,1.159,0,0,1,1006.806,991.752Z" transform="translate(-80.503 -156.025)" fill="#040404"/><path d="M948.207,787.144c-.013-1.189-.037-2.378-.038-3.567q-.006-8.649,0-17.3a3.049,3.049,0,0,1,3.408-3.265,1.638,1.638,0,0,1,.363.132,3.026,3.026,0,0,1-.186.425,5.913,5.913,0,0,0-.947,3.28c.036,5.358.019,10.716.012,16.073a5.1,5.1,0,0,1-.49,2.366A3.4,3.4,0,0,1,948.207,787.144Z" transform="translate(-40.527 -5.094)" fill="#f1cea7"/><path d="M974.635,795.352c-.013-2-.033-4.01-.037-6.014q-.009-5.5,0-11.007a3.049,3.049,0,0,1,2.62-3.247,1.115,1.115,0,0,1,.842.063c-.944,1.7-.815,3.562-.809,5.41.012,3.626.028,7.252-.007,10.878A3.811,3.811,0,0,1,974.635,795.352Z" transform="translate(-58.543 -13.302)" fill="#f0cea6"/><path d="M1001.086,805.691c-.01-4.208-.061-8.416-.011-12.622a2.9,2.9,0,0,1,3.13-2.869,5.075,5.075,0,0,0-.5,2.369c.021,2.988.009,5.975.007,8.963a5.489,5.489,0,0,1-.323,1.932A3.539,3.539,0,0,1,1001.086,805.691Z" transform="translate(-76.581 -23.641)" fill="#f0cea6"/><path d="M993.073,894.395c-5.687-.192-11.433-3.442-12.914-10.022a12.412,12.412,0,0,1-.268-2.755c0-4.521.019-9.042-.01-13.562a2.178,2.178,0,0,1,1.289-2.149q5.666-2.992,11.3-6.051a2.421,2.421,0,0,1,2.869.1c-.161.41-.556.554-.893.735-2.65,1.422-5.3,2.84-7.97,4.232a3.079,3.079,0,0,0-1.8,2.924c0,4.839-.074,9.68.025,14.517a12.736,12.736,0,0,0,3.142,8.093,13.432,13.432,0,0,0,4.958,3.674C992.91,894.179,992.983,894.3,993.073,894.395Z" transform="translate(-62.148 -70.84)" fill="#9ce3cf"/><path d="M1005.7,904.694c-.82,0-1.641.019-2.46,0a1.623,1.623,0,0,1-1.774-1.78c-.015-.608-.02-1.218,0-1.826.014-.382-.134-.516-.507-.505-.634.017-1.271.025-1.9-.007a1.612,1.612,0,0,1-1.71-1.765q-.026-2.5,0-5a1.685,1.685,0,0,1,1.817-1.841,11.033,11.033,0,0,1,1.586.008c.63.069.774-.192.724-.761a13.874,13.874,0,0,1-.006-1.587,1.633,1.633,0,0,1,1.719-1.768q2.578-.06,5.158,0a1.682,1.682,0,0,1,1.718,1.792c.04.757-.339,1.766.158,2.2.428.371,1.411.088,2.147.119a1.712,1.712,0,0,1,1.809,1.868q.025,2.461,0,4.922a1.671,1.671,0,0,1-1.761,1.82c-.634.029-1.27.022-1.9,0-.337-.01-.469.1-.458.448.021.634.022,1.271,0,1.905a1.654,1.654,0,0,1-1.736,1.755C1007.448,904.715,1006.574,904.693,1005.7,904.694Zm0-2.385a11.592,11.592,0,0,1,1.19.008c.589.061.864-.091.8-.757a17.37,17.37,0,0,1-.012-1.984,1.2,1.2,0,0,1,1.355-1.376q1.11-.033,2.222,0c.4.013.566-.092.551-.527-.031-.925-.035-1.853,0-2.778.019-.48-.173-.576-.6-.56-.74.029-1.482.02-2.222,0a1.169,1.169,0,0,1-1.307-1.327c-.013-.767-.021-1.536,0-2.3.013-.388-.129-.5-.5-.493-.925.021-1.853.033-2.777,0-.477-.019-.583.164-.566.6.029.74.028,1.483,0,2.223a1.192,1.192,0,0,1-1.345,1.308c-.741.013-1.482.022-2.222,0-.4-.014-.569.08-.556.519.03.952.026,1.906,0,2.858-.01.385.116.5.495.489.766-.025,1.535-.027,2.3,0a1.219,1.219,0,0,1,1.329,1.344c.014.291,0,.582,0,.873C1003.846,902.309,1003.846,902.309,1005.7,902.309Z" transform="translate(-74.048 -90.193)" fill="#040404"/><path d="M916.974,856.081a2.972,2.972,0,0,1,.856,4.841c-1.474,1.591-2.978,3.152-4.468,4.727-.871.921-.857,1.468.081,2.321,1.448,1.316,2.9,2.633,4.36,3.93a9.293,9.293,0,0,1,3.323,7.408c-.007.476.018.953-.005,1.428a1.43,1.43,0,0,0,1.069,1.632,7.731,7.731,0,0,1-3.585,5.6,7.828,7.828,0,0,1-1.547.783c-1.21.455-2.331.647-3.431-.365-.729-.671-1.662-1.113-2.456-1.72a7.158,7.158,0,0,1-2.962-5.35c-.33-4.434-.131-8.873-.117-13.308a9.444,9.444,0,0,1,2.685-6.66,26.772,26.772,0,0,1,2.8-2.3c1.012-.8,2.043-1.57,3.065-2.355A.761.761,0,0,0,916.974,856.081Z" transform="translate(-13.161 -68.553)" fill="#fae4c5"/><path d="M1010.8,907.425c-1.858,0-1.858,0-1.858-1.889,0-.291.011-.583,0-.873a1.219,1.219,0,0,0-1.329-1.344c-.766-.027-1.535-.025-2.3,0-.378.012-.505-.1-.495-.489.024-.952.029-1.906,0-2.858-.014-.44.159-.533.556-.519.74.027,1.482.018,2.222,0a1.192,1.192,0,0,0,1.346-1.308c.026-.74.026-1.483,0-2.223-.017-.432.089-.615.566-.6.925.037,1.852.025,2.778,0,.374-.008.515.105.5.493-.025.767-.017,1.535,0,2.3a1.169,1.169,0,0,0,1.307,1.327c.74.015,1.482.024,2.222,0,.427-.016.619.08.6.56-.036.925-.032,1.853,0,2.778.015.435-.153.54-.551.527q-1.11-.036-2.222,0a1.2,1.2,0,0,0-1.356,1.376,17.384,17.384,0,0,0,.012,1.984c.066.665-.209.818-.8.757A11.575,11.575,0,0,0,1010.8,907.425Z" transform="translate(-79.145 -95.309)" fill="#f5f3f3"/></g></g></svg>