<svg xmlns="http://www.w3.org/2000/svg" width="113" height="113" viewBox="0 0 113 113"><g transform="translate(-428 -3486)"><circle cx="56.5" cy="56.5" r="56.5" transform="translate(428 3486)" fill="#ffa686"/><g transform="translate(-974.865 3406.795)"><path d="M1414.8,192.632l0-2.966h5.253c-.93-1.1-1.026-1.894-.353-2.559a1.49,1.49,0,0,1,2.528.914,1.839,1.839,0,0,1-.843,1.585h4.647c-.9-.938-1.032-1.709-.453-2.4a1.469,1.469,0,0,1,2.013-.242,1.486,1.486,0,0,1,.607,1.385c-.04.539-.483.849-.8,1.278h4.57c-.906-1.048-1-1.86-.324-2.525a1.491,1.491,0,0,1,2.525.924c.073.679-.338,1.134-.9,1.629h4.761c-.957-.986-1.09-1.761-.5-2.453a1.469,1.469,0,0,1,2.015-.234,1.5,1.5,0,0,1,.6,1.387c-.038.539-.495.837-.784,1.269h4.561c-.911-1.034-1.01-1.86-.324-2.526a1.492,1.492,0,0,1,2.51,1.306,2.043,2.043,0,0,1-.837,1.2h4.661c-.934-.951-1.052-1.79-.393-2.471a1.481,1.481,0,0,1,2.1-.039c.7.667.6,1.511-.325,2.529h4.557c-.915-1.024-1.013-1.858-.322-2.525a1.492,1.492,0,0,1,2.505,1.316,2.121,2.121,0,0,1-.821,1.187h4.651c-.94-.945-1.058-1.791-.393-2.472a1.481,1.481,0,0,1,2.1-.031c.691.667.592,1.5-.322,2.525h4.557c-.9-.99-1.015-1.785-.39-2.463a1.492,1.492,0,0,1,2.577,1.168,2.177,2.177,0,0,1-.805,1.271h4.629c-.947-.941-1.064-1.792-.394-2.474a1.48,1.48,0,0,1,2.1-.022c.685.666.586,1.492-.317,2.517h4.551c-.9-.983-1.02-1.786-.39-2.464a1.493,1.493,0,0,1,2.573,1.178,2.211,2.211,0,0,1-.8,1.262h4.628c-.953-.936-1.071-1.794-.395-2.475a1.48,1.48,0,0,1,2.029-.077c.749.647.671,1.512-.243,2.573h4.547c-.908-.975-1.026-1.787-.391-2.466a1.493,1.493,0,0,1,2.568,1.188c-.043.543-.46.874-.787,1.253h4.621c-.934-.906-1.069-1.717-.46-2.409a1.483,1.483,0,0,1,2.094-.136c.743.646.665,1.493-.285,2.622h5.253q0,1.483,0,2.967c-2.021,0-4.042.025-6.063,0a1.638,1.638,0,0,0-1.3.544c-3,3.026-6.019,6.028-9.026,9.044-.181.182-.461.31-.467.644a5.194,5.194,0,0,1,2.167,1.246c.448.475.713.436,1.165-.022,3.145-3.186,6.321-6.341,9.487-9.506,1.527-1.527,1.508-1.507,3.068.025.465.457.469.706,0,1.166-2.7,2.659-5.378,5.35-8.055,8.037a1.573,1.573,0,0,0-.6.784h9.615q0,1.481,0,2.963c-4.882,0-9.765,0-14.648.02a2.011,2.011,0,0,1-1.656-.856,2.821,2.821,0,0,0-4.341-.212,2.975,2.975,0,0,1-2.721,1.062c-.591-.083-.7.093-.589.715a4.213,4.213,0,0,1-1.951,4.5,4.454,4.454,0,0,1-6.833-4.446c.135-.779-.116-.786-.711-.783-4.105.018-8.211-.01-12.316.018a4.158,4.158,0,0,1-4.006-2.214,1.353,1.353,0,0,0-1.352-.787,4.01,4.01,0,0,1-2.665-.949,2.306,2.306,0,0,0-3.863,1.037,4.064,4.064,0,0,1-4.1,2.9c-2.955.011-5.909,0-8.864,0h-1c.287.415.507.705.7,1.014a5.226,5.226,0,1,1-9.422,4.365,5.113,5.113,0,0,1,2.154-6.017c.793-.5.67-1.023.34-1.626a1.447,1.447,0,0,0-2.108-.448c-1.351.814-1.757.737-2.7-.513a2.711,2.711,0,0,0-3.37-1.04,1.344,1.344,0,0,1-1.984-.42c-.941-1.294-.941-1.294.325-2.283-.25-.7-1.427-.928-1.2-1.678.193-.632.978-1.084,1.5-1.615q.262-.265.528-.527l4.2-4.15Zm78.367.227-.137-.216c-1.549,0-3.1.018-4.647-.01-.541-.01-.654.1-.548.674a4.42,4.42,0,0,1-4.521,5.282,1.509,1.509,0,0,0-1.213.5c-1.61,1.639-3.247,3.252-4.864,4.884-.155.157-.43.26-.38.611,1.245,0,2.483-.025,3.719.012a1.6,1.6,0,0,0,1.3-.535q4.094-4.139,8.23-8.237C1491.108,194.822,1492.141,193.846,1493.162,192.859Zm-40.434,8.73a4.423,4.423,0,0,1,3.068.746c.465.379.7.224,1.051-.131,3-3.02,6.015-6.02,9.018-9.034.131-.131.4-.22.292-.482-1.5,0-3.13-.372-4.44.111-1.168.43-1.987,1.806-2.959,2.766-.464.458-.923.922-1.384,1.383Zm4.734-8.946c-1.477,0-2.708.03-3.936-.013a1.694,1.694,0,0,0-1.379.572q-5.344,5.389-10.723,10.744c-.162.162-.406.279-.431.559,2.9.269,2.608-.025,3.233-1.818a3.769,3.769,0,0,1,3.183-2.532,10.822,10.822,0,0,1,1.952-.041,1.218,1.218,0,0,0,.99-.368C1452.647,197.431,1454.96,195.136,1457.462,192.642Zm-39.094,7.472a6.153,6.153,0,0,1,3.281.524c.524.287.816.123,1.185-.249,2.357-2.384,4.736-4.746,7.1-7.121.16-.161.4-.284.435-.626-1.4,0-2.757.008-4.114-.006a.945.945,0,0,0-.728.323C1423.205,195.289,1420.876,197.611,1418.368,200.114Zm7.324,1.468a4.745,4.745,0,0,1,2.685,1.351c.339.383.543.341.874,0,.946-.987,1.907-1.96,2.9-2.9a1.665,1.665,0,0,0,.556-1.377,4.3,4.3,0,0,1,4.092-4.456c1.264,0,1.861-.653,2.663-1.554-1.428,0-2.69.023-3.951-.011a1.514,1.514,0,0,0-1.217.509q-2.977,3.021-6,6C1427.509,199.921,1426.679,200.66,1425.692,201.582Zm53.3-8.353c-1.39,1.4-2.573,2.623-3.8,3.8a2.081,2.081,0,0,0-.73,1.68,4.287,4.287,0,0,1-4.213,4.329c-1.253-.027-1.751.712-2.518,1.543,1.527,0,2.887-.008,4.246.006a.941.941,0,0,0,.724-.332q3.45-3.46,6.913-6.909c.208-.207.38-.375.146-.7A4.992,4.992,0,0,1,1478.994,193.229Zm-30.645-.586c-1.471,0-2.832,0-4.192,0a.848.848,0,0,0-.66.265c-.828.84-1.669,1.668-2.5,2.507-.141.143-.407.287-.224.535a5.465,5.465,0,0,1,.9,3.376Zm17.205,5.3-6.612,6.637h3.562c.217,0,.435-.012.652,0a.711.711,0,0,0,.552-.293c.834-.834,1.663-1.673,2.509-2.5a.466.466,0,0,0,.079-.712A4.624,4.624,0,0,1,1465.554,197.946Zm-34.366,13.322a2.235,2.235,0,1,0-2.229,2.266A2.265,2.265,0,0,0,1431.188,211.268Zm44.228-18.626c-1.456,0-2.608.1-3.737-.025-1.256-.134-1.712.728-2.508,1.554a4.789,4.789,0,0,1,3.311.723.467.467,0,0,0,.71-.074C1473.859,194.146,1474.545,193.492,1475.416,192.642Zm-43.467,11.724.107.217a25.949,25.949,0,0,1,3.214.027c1.3.163,1.937-.585,2.669-1.536a4.846,4.846,0,0,1-3.284-.769c-.324-.23-.49-.067-.7.139C1433.292,203.09,1432.619,203.726,1431.95,204.366Zm5.192-7.242a1.488,1.488,0,1,0,1.512,1.441A1.5,1.5,0,0,0,1437.141,197.124Zm32.837,0a1.489,1.489,0,1,0,1.524,1.429A1.495,1.495,0,0,0,1469.979,197.125Zm13.451-4.478a1.489,1.489,0,1,0,1.51,1.443A1.495,1.495,0,0,0,1483.43,192.647Zm-7.459,14.926a1.488,1.488,0,1,0,1.5,1.45A1.494,1.494,0,0,0,1475.971,207.573Z" transform="translate(-0.196 -59.989)" fill="#020201"/><path d="M1416.321,230.032a1.345,1.345,0,0,0,1.984.42,2.711,2.711,0,0,1,3.37,1.04c.947,1.25,1.353,1.327,2.7.513a1.447,1.447,0,0,1,2.108.448c.329.6.453,1.13-.34,1.626a5.114,5.114,0,0,0-2.154,6.017,5.226,5.226,0,1,0,9.422-4.365c-.19-.308-.41-.6-.7-1.014h1c2.954,0,5.909.008,8.864,0a4.065,4.065,0,0,0,4.1-2.9,2.305,2.305,0,0,1,3.863-1.037,4.01,4.01,0,0,0,2.665.949,1.354,1.354,0,0,1,1.352.787,4.158,4.158,0,0,0,4.006,2.214c4.105-.028,8.211,0,12.316-.018.595,0,.846,0,.711.783a4.455,4.455,0,1,0,8.784-.058c-.109-.622,0-.8.589-.715a2.976,2.976,0,0,0,2.722-1.062,2.821,2.821,0,0,1,4.341.212,2.012,2.012,0,0,0,1.656.856c4.883-.018,9.766-.015,14.648-.02q0,7.66-.008,15.318c-.474-.6-.626-1.478-1.5-1.725,1.022-1.3,1.023-1.3-.2-2.5a7.9,7.9,0,0,0-.61-.575,3.5,3.5,0,0,0-3.553-.823,2.8,2.8,0,0,1-3.139-.567,7.253,7.253,0,0,0-.851-.571,4,4,0,0,0-4.079-.239c-.755.364-1.483.788-2.254,1.112a4.575,4.575,0,0,0-3.214,3.957c-.45-.133-.6-.374-.546-.781a5.022,5.022,0,0,0-1.107-3.643,4.255,4.255,0,0,0-5.985-1.557c-1.28.634-2.563,1.26-3.828,1.923-.526.275-.8.371-1.169-.317a5.622,5.622,0,0,0-8.745-1.6,34.783,34.783,0,0,0-2.687,2.713,1.679,1.679,0,0,1-.985.572c-1.929.4-3.979.475-5.557,1.9-.238.215-.441.1-.671-.032a7.374,7.374,0,0,0-5.931-.694c-.326.1-.507.068-.656-.269-1.073-2.421-3.374-3.013-5.6-3.513-2.019-.454-3.452.812-4.751,2.2-.9.961-1.379,1-2.545.375a4.527,4.527,0,0,0-5.916,1.252c-.628.81-1.239,1.633-1.843,2.461-.241.33-.366.477-.726.044-2.635-3.171-6.186-3.319-9.1-.4-.435.435-1.136.786-1.187,1.366-.033.378.574.811.895,1.22a3.653,3.653,0,0,0-1.481,2.258q0-10.638,0-21.277C1415.21,231.464,1415.408,230.508,1416.321,230.032Zm43.246,10.681a4.476,4.476,0,1,0-4.453,4.45A4.5,4.5,0,0,0,1459.567,240.713Z" transform="translate(-0.203 -87.137)" fill="#b18b63"/><path d="M1414.794,150.212v-7.484h29.3a2.682,2.682,0,0,1-2.849,1.492,6.507,6.507,0,0,0-5.081,1.873c-1.575,1.563-1.567,1.527,0,3.128.481.49.774.457,1.156-.04a5.16,5.16,0,0,1,4.534-2.021,5.605,5.605,0,0,0,5.337-3.7c.114-.252.05-.647.492-.7a1.944,1.944,0,0,1,.125.245,5.721,5.721,0,0,0,5.618,4.216,3.052,3.052,0,0,1,2.039.994c1.741,1.7,1.748,1.695,3.314-.218a.567.567,0,0,1,.065-.067.328.328,0,0,0,.015-.548c-1.529-1.623-3.077-3.18-5.559-3.169a2.411,2.411,0,0,1-2.328-1.477h1.22l52.133-.011q0,3.742,0,7.484-23.969-.006-47.939-.01Q1435.593,150.2,1414.794,150.212Z" transform="translate(-0.195 -32.476)" fill="#cf926b"/><path d="M1504.331,179.652h-5.253c.95-1.129,1.028-1.975.285-2.622a1.483,1.483,0,0,0-2.093.136c-.61.692-.475,1.5.46,2.409h-4.621c.327-.379.744-.71.787-1.253a1.493,1.493,0,0,0-2.568-1.188c-.635.679-.517,1.49.391,2.466h-4.547c.914-1.061.992-1.926.243-2.573a1.48,1.48,0,0,0-2.029.077c-.676.682-.559,1.539.395,2.475h-4.628a2.21,2.21,0,0,0,.8-1.262,1.493,1.493,0,0,0-2.572-1.178c-.63.679-.512,1.482.39,2.464h-4.552c.9-1.026,1-1.852.317-2.517a1.481,1.481,0,0,0-2.1.022c-.67.681-.553,1.533.394,2.474H1469.2a2.177,2.177,0,0,0,.8-1.271,1.492,1.492,0,0,0-2.577-1.168c-.624.678-.507,1.473.391,2.463h-4.557c.914-1.024,1.012-1.858.322-2.525a1.481,1.481,0,0,0-2.1.031c-.665.681-.547,1.527.393,2.472h-4.651a2.121,2.121,0,0,0,.821-1.187,1.492,1.492,0,0,0-2.505-1.316c-.691.667-.593,1.5.322,2.525h-4.557c.922-1.019,1.021-1.862.325-2.529a1.481,1.481,0,0,0-2.1.039c-.659.681-.542,1.52.393,2.471h-4.661a2.043,2.043,0,0,0,.837-1.2,1.492,1.492,0,0,0-2.51-1.306c-.686.666-.587,1.493.324,2.526h-4.561c.289-.431.746-.73.784-1.269a1.5,1.5,0,0,0-.6-1.387,1.469,1.469,0,0,0-2.015.234c-.585.692-.452,1.467.5,2.453h-4.761c.563-.5.975-.95.9-1.629a1.491,1.491,0,0,0-2.525-.924c-.679.665-.582,1.477.324,2.525h-4.57c.314-.429.757-.738.8-1.278a1.486,1.486,0,0,0-.607-1.385,1.469,1.469,0,0,0-2.014.242c-.579.69-.446,1.461.453,2.4h-4.648a1.839,1.839,0,0,0,.843-1.585,1.49,1.49,0,0,0-2.528-.914c-.673.664-.577,1.457.353,2.559H1414.8v-8.974h5.253c-.931,1.1-1.027,1.9-.351,2.56a1.491,1.491,0,0,0,2.526-.919c.073-.679-.334-1.136-.9-1.631h4.764c-.981,1.007-1.1,1.844-.441,2.524a1.48,1.48,0,0,0,2.1.041c.7-.666.6-1.511-.322-2.529h4.558c-.893.992-1.009,1.784-.387,2.462a1.493,1.493,0,0,0,2.578-1.166,2.173,2.173,0,0,0-.8-1.269H1438c-.95.938-1.067,1.794-.391,2.475a1.477,1.477,0,0,0,2.028.077c.749-.646.672-1.508-.238-2.57h4.544c-.911.97-1.028,1.788-.388,2.467a1.494,1.494,0,0,0,2.564-1.2c-.044-.538-.459-.867-.823-1.285h4.593c-.9,1.056-1,1.86-.321,2.525a1.491,1.491,0,0,0,2.525-.922,1.822,1.822,0,0,0-.841-1.575h4.651c-.931.952-1.048,1.791-.39,2.471a1.48,1.48,0,0,0,2.1.039c.7-.666.6-1.508-.321-2.528h4.558c-.9.991-1.011,1.785-.388,2.463a1.493,1.493,0,0,0,2.577-1.169,2.176,2.176,0,0,0-.8-1.267h4.628c-.952.936-1.068,1.794-.391,2.475a1.476,1.476,0,0,0,2.028.075q1.121-.969-.237-2.568h4.542c-.913.968-1.03,1.788-.388,2.467a1.494,1.494,0,0,0,2.563-1.2c-.042-.539-.467-.861-.813-1.283h4.583c-.9,1.051-1,1.86-.322,2.525a1.491,1.491,0,0,0,2.525-.925,1.818,1.818,0,0,0-.843-1.572h4.654c-.932.951-1.049,1.791-.39,2.471a1.481,1.481,0,0,0,2.1.037c.694-.666.6-1.506-.32-2.526h4.557c-.9.989-1.013,1.785-.388,2.463a1.493,1.493,0,0,0,2.575-1.172,2.18,2.18,0,0,0-.8-1.264h4.627c-.929.912-1.063,1.715-.455,2.408a1.479,1.479,0,0,0,2.092.141c.745-.646.669-1.5-.283-2.623h5.253Q1504.331,175.165,1504.331,179.652Zm-2.925-3a1.491,1.491,0,1,0-1.524-1.434A1.5,1.5,0,0,0,1501.406,176.656Zm-34.377-1.455a1.492,1.492,0,1,0-1.5,1.455A1.5,1.5,0,0,0,1467.029,175.2Zm29.862-.07a1.491,1.491,0,1,0-1.434,1.525A1.494,1.494,0,0,0,1496.891,175.131ZM1473,175.2a1.492,1.492,0,1,0-1.5,1.46A1.5,1.5,0,0,0,1473,175.2Zm-13.465,1.46a1.492,1.492,0,1,0-1.461-1.5A1.5,1.5,0,0,0,1459.536,176.656Zm19.437-1.484a1.491,1.491,0,1,0-1.475,1.484A1.494,1.494,0,0,0,1478.973,175.172Zm-25.414-1.5a1.491,1.491,0,1,0,1.525,1.432A1.493,1.493,0,0,0,1453.559,173.674Zm-4.447,1.511a1.491,1.491,0,1,0-1.488,1.471A1.495,1.495,0,0,0,1449.112,175.185Zm-7.5-1.511a1.491,1.491,0,1,0,1.527,1.431A1.493,1.493,0,0,0,1441.612,173.674Zm-5.963,2.982a1.492,1.492,0,1,0-1.464-1.495A1.5,1.5,0,0,0,1435.65,176.656Zm-5.944-2.982a1.491,1.491,0,1,0,1.489,1.469A1.492,1.492,0,0,0,1429.706,173.674Zm-6.009,0a1.491,1.491,0,1,0,1.525,1.433A1.493,1.493,0,0,0,1423.7,173.674Zm-6.01,2.982a1.492,1.492,0,1,0-1.418-1.54A1.5,1.5,0,0,0,1417.687,176.656Zm67.259-1.525a1.491,1.491,0,1,0-1.434,1.525A1.494,1.494,0,0,0,1484.946,175.131Zm5.972.045a1.491,1.491,0,1,0-1.479,1.48A1.494,1.494,0,0,0,1490.918,175.176Z" transform="translate(-0.199 -49.975)" fill="#a16a44"/><path d="M1455.109,94.812a15.4,15.4,0,0,1,5.111-2.358,1.534,1.534,0,0,1,1.966.762c.416.853.024,1.46-.661,2a4.61,4.61,0,0,0-1.629,5.231,1.1,1.1,0,0,0,1.261.881q15.76-.038,31.521-.017c3.574,0,7.149.013,10.724-.013.589,0,.826.119.771.752-.064.74-.031,1.489-.039,2.234-.4,0-.808.013-1.212.013h-87.109c-.4,0-.808-.009-1.212-.013.007-.957-.339-2.18.124-2.8.438-.583,1.739-.166,2.658-.169,4.972-.018,9.945-.024,14.917.01a1.011,1.011,0,0,0,1.13-.8,4.655,4.655,0,0,0-1.608-5.323c-.837-.673-1.053-1.354-.62-2.08a1.532,1.532,0,0,1,1.849-.687,14.057,14.057,0,0,1,5.038,2.313c.136-.9.245-1.691.376-2.476A1.473,1.473,0,0,1,1440.57,91a9.133,9.133,0,0,1,5.336,4.771c.134.27.255.547.424.909A12.715,12.715,0,0,1,1453,91.329c.467-.163.949-.289,1.43-.409a1.506,1.506,0,0,1,1.5,2.512,4.556,4.556,0,0,0-.929,1.269c-.076.075-.161.153-.032.246C1454.974,94.954,1455.058,94.859,1455.109,94.812Zm-11.83,6.5c.861-.007.879-.01.768-.772-.107-.734-.221-1.471-.39-2.193a6.145,6.145,0,0,0-2.042-3.353c-.168-.143-.469-.413-.514.038-.114,1.149-.715,2.3.224,3.448a7.269,7.269,0,0,1,1.036,2.165C1442.55,101.167,1442.795,101.428,1443.278,101.31Zm8.078-5.771a9.648,9.648,0,0,0-3.014,3.777c-.885,1.994-.885,1.994,1.274,1.993,1.155,0,1.723-.581,1.6-1.738A13.124,13.124,0,0,1,1451.356,95.539Zm-11.9,5.77a9.959,9.959,0,0,0-2.851-3.886,10.022,10.022,0,0,1-.155,3.365c-.128.431.065.535.458.526C1437.7,101.3,1438.506,101.308,1439.452,101.308Zm14.479,0c.953,0,1.755.006,2.556,0,.192,0,.532.059.44-.279a14.376,14.376,0,0,1-.229-3.592A9.755,9.755,0,0,0,1453.931,101.308Z" transform="translate(0 0)" fill="#010101"/><path d="M1504.327,165.694h-5.253c.952,1.125,1.029,1.976.283,2.623a1.479,1.479,0,0,1-2.092-.141c-.608-.693-.474-1.5.455-2.408h-4.627a2.181,2.181,0,0,1,.8,1.264,1.493,1.493,0,0,1-2.575,1.172c-.625-.678-.509-1.474.388-2.463h-4.557c.916,1.02,1.014,1.86.32,2.526a1.481,1.481,0,0,1-2.1-.037c-.659-.681-.543-1.52.39-2.471h-4.653a1.818,1.818,0,0,1,.843,1.572,1.491,1.491,0,0,1-2.525.925c-.679-.664-.582-1.473.322-2.525h-4.583c.346.422.771.744.813,1.283a1.494,1.494,0,0,1-2.563,1.2c-.642-.679-.525-1.5.388-2.467h-4.542q1.36,1.6.237,2.568a1.477,1.477,0,0,1-2.029-.075c-.676-.681-.56-1.539.392-2.475h-4.627a2.177,2.177,0,0,1,.8,1.267,1.493,1.493,0,0,1-2.577,1.169c-.624-.678-.508-1.472.388-2.463h-4.558c.919,1.02,1.017,1.862.321,2.528a1.48,1.48,0,0,1-2.1-.039c-.658-.68-.542-1.519.39-2.471h-4.651a1.822,1.822,0,0,1,.841,1.575,1.491,1.491,0,0,1-2.525.922c-.677-.665-.581-1.469.321-2.525h-4.593c.364.419.78.747.823,1.285a1.494,1.494,0,0,1-2.564,1.2c-.64-.679-.523-1.5.388-2.467h-4.544c.91,1.062.987,1.924.238,2.57a1.477,1.477,0,0,1-2.029-.077c-.675-.681-.558-1.537.392-2.475h-4.627a2.172,2.172,0,0,1,.8,1.269,1.493,1.493,0,0,1-2.578,1.166c-.623-.678-.507-1.469.387-2.462h-4.558c.921,1.018,1.019,1.863.322,2.529a1.48,1.48,0,0,1-2.1-.041c-.656-.681-.54-1.517.441-2.524h-4.764c.569.5.975.952.9,1.631a1.491,1.491,0,0,1-2.526.919c-.675-.664-.579-1.463.351-2.56H1414.8q0-1.483,0-2.966,20.8-.006,41.6-.01,23.969,0,47.939.01Q1504.328,164.211,1504.327,165.694Z" transform="translate(-0.195 -44.992)" fill="#020201"/><path d="M1504.329,137.747l-52.133.011h-1.22a2.411,2.411,0,0,0,2.328,1.477c2.482-.012,4.03,1.545,5.559,3.169a.328.328,0,0,1-.015.548.566.566,0,0,0-.065.067c-1.566,1.913-1.573,1.919-3.314.218a3.052,3.052,0,0,0-2.039-.994,5.721,5.721,0,0,1-5.618-4.216,1.948,1.948,0,0,0-.125-.245c-.442.05-.378.445-.492.7a5.605,5.605,0,0,1-5.337,3.7,5.16,5.16,0,0,0-4.534,2.021c-.382.5-.675.531-1.156.04-1.572-1.6-1.579-1.565,0-3.128a6.507,6.507,0,0,1,5.081-1.873,2.682,2.682,0,0,0,2.849-1.492h-29.3q0-1.481,0-2.962c.4,0,.808-.013,1.212-.013h85.057c1.088,0,2.176.008,3.264.013Q1504.329,136.266,1504.329,137.747Z" transform="translate(-0.195 -27.495)" fill="#010100"/><path d="M1414.789,307.71l.029-8.8c.614.453.682,1.37,1.445,1.7a2.9,2.9,0,0,1-.425.6c-.649.551-.369.873.221,1.2a5.523,5.523,0,0,0,5.187.314c.584-.259.806-.154,1.135.365a4.96,4.96,0,0,0,4.467,2.394,12.1,12.1,0,0,0,3.324-.85,33.686,33.686,0,0,1,5.533-1.606c1.821-.205,3.643-.411,5.452-.7,1.231-.194,2.389-.379,3.026,1.052.024.053.086.089.129.134,2.861,3.057,7.6,2.787,11.045.8a6.84,6.84,0,0,1,4.255-1.1c.361.033.77-.135,1.071.17a9.941,9.941,0,0,0,3.63,1.835,4.167,4.167,0,0,0,5.286-1.462c.529-.691,1.025-1.41,1.588-2.071.3-.352.741-.725,1.146-.131a14.17,14.17,0,0,0,3.119,2.918,7.3,7.3,0,0,0,9.293.158,1.125,1.125,0,0,1,1.187-.213,5.448,5.448,0,0,0,3.121.116,7.608,7.608,0,0,0,3.767-2.616c.386-.415.622-.46,1.012,0a3.4,3.4,0,0,0,2.522,1.256c1.957.06,3.92.065,5.877,0,1.238-.042,1.292-.214.811-1.305-.074-.168-.119-.349-.177-.524.811-.178,1.034-.931,1.455-1.49q.005,3.926.01,7.852c-.28-.006-.559-.019-.839-.019h-87.862C1415.348,307.691,1415.069,307.7,1414.789,307.71Z" transform="translate(-0.192 -130.258)" fill="#7f7f7f"/><path d="M1504.33,129.766c-1.088,0-2.176-.013-3.264-.013h-85.057c-.4,0-.808.008-1.212.013v-3.011c.4,0,.808.013,1.212.013h87.109c.4,0,.808-.009,1.212-.013Q1504.331,128.26,1504.33,129.766Z" transform="translate(-0.197 -22.475)" fill="#739653"/><path d="M1414.688,322.419c.28-.006.559-.018.839-.018h87.862c.279,0,.559.012.839.019-.011.957.332,2.182-.133,2.794-.44.578-1.742.164-2.662.165q-42.861.014-85.722.025c-.806,0-1.18-.138-1.061-1.029A16.24,16.24,0,0,0,1414.688,322.419Z" transform="translate(-0.091 -144.968)" fill="#010100"/><path d="M1626.034,214.57h-9.615a1.573,1.573,0,0,1,.6-.784c2.677-2.687,5.351-5.378,8.055-8.037.468-.46.463-.709,0-1.166-1.56-1.532-1.54-1.552-3.068-.025-3.166,3.165-6.342,6.32-9.487,9.506-.452.458-.717.5-1.165.022a5.2,5.2,0,0,0-2.167-1.246c.006-.334.286-.462.467-.644,3.007-3.016,6.028-6.019,9.026-9.044a1.639,1.639,0,0,1,1.3-.544c2.021.027,4.042,0,6.063,0Z" transform="translate(-121.9 -69.966)" fill="#cf926b"/><path d="M1626.814,283.139c-.421.559-.644,1.311-1.455,1.49-.322-1.045-1.062-1.219-2.063-1.143-1.267.1-2.548.039-3.823.017a1.88,1.88,0,0,1-1.727-2.007,5.712,5.712,0,0,0-6.724-6.807c-.179.039-.407.132-.524-.034-.14-.2,0-.418.129-.594.332-.449.9-.538,1.32-.843,1.856-1.345,3.569-1.431,5.374.212a3.3,3.3,0,0,0,3.613.463,1.593,1.593,0,0,1,2.129.485c.2.24.461.423.651.666.4.515.767.541,1.172.009a2.387,2.387,0,0,1,.425-.353c.878.247,1.029,1.127,1.5,1.726Z" transform="translate(-122.688 -113.539)" fill="#69727d"/><path d="M1416.275,290.341c-.764-.325-.832-1.242-1.446-1.7q-.012-1.112-.023-2.223a3.651,3.651,0,0,1,1.481-2.258c1.1.842,1.1.839,2.143-.2a4.238,4.238,0,0,1,1.852-1.349,2.6,2.6,0,0,1,2.93,1.071c.792,1.294.711,1.667-.166,2.744-.369.454-.639.987-.985,1.462-1,1.371-2.555,2.858-4.521,1.626-.282-.177-.461-.055-.629.162A1.914,1.914,0,0,1,1416.275,290.341Z" transform="translate(-0.203 -119.998)" fill="#4f565f"/><path d="M1416.314,212.864c-.913.476-1.111,1.432-1.512,2.252q0-6.252-.006-12.5h6.875l-4.2,4.15q-.265.263-.528.527c-.523.531-1.308.982-1.5,1.615-.23.75.947.983,1.2,1.678C1415.373,211.57,1415.373,211.57,1416.314,212.864Z" transform="translate(-0.196 -69.968)" fill="#ce916b"/><path d="M1597.066,202.839c-1.021.987-2.054,1.963-3.061,2.964q-4.128,4.105-8.23,8.237a1.6,1.6,0,0,1-1.3.535c-1.236-.037-2.474-.012-3.719-.012-.05-.351.225-.454.38-.611,1.617-1.632,3.254-3.245,4.864-4.884a1.509,1.509,0,0,1,1.213-.5,4.42,4.42,0,0,0,4.521-5.282c-.106-.574.007-.684.548-.675,1.549.027,3.1.01,4.647.01Z" transform="translate(-104.1 -69.969)" fill="#ce916b"/><path d="M1516.246,211.431l4.647-4.641c.462-.461.92-.925,1.384-1.383.971-.96,1.791-2.335,2.959-2.766,1.31-.483,2.935-.111,4.44-.111.11.262-.161.351-.292.482-3,3.014-6.02,6.014-9.018,9.034-.352.354-.587.51-1.051.131A4.424,4.424,0,0,0,1516.246,211.431Z" transform="translate(-63.714 -69.832)" fill="#ce916b"/><path d="M1501.33,202.615c-2.5,2.494-4.815,4.789-7.11,7.1a1.219,1.219,0,0,1-.991.368,10.82,10.82,0,0,0-1.952.041,3.769,3.769,0,0,0-3.183,2.532c-.625,1.793-.333,2.087-3.233,1.818.025-.28.269-.4.431-.559q5.361-5.372,10.723-10.744a1.694,1.694,0,0,1,1.379-.572C1498.622,202.645,1499.853,202.615,1501.33,202.615Z" transform="translate(-44.064 -69.962)" fill="#ce916b"/><path d="M1424.351,210.1c2.507-2.5,4.837-4.825,7.16-7.154a.945.945,0,0,1,.728-.323c1.357.013,2.715.006,4.115.006-.04.342-.275.465-.435.626-2.366,2.375-4.745,4.737-7.1,7.121-.369.373-.661.537-1.185.249A6.152,6.152,0,0,0,1424.351,210.1Z" transform="translate(-6.179 -69.977)" fill="#ce916b"/><path d="M1443.939,211.56c.987-.922,1.817-1.662,2.606-2.442q3.016-2.982,6-6a1.514,1.514,0,0,1,1.217-.509c1.261.034,2.524.011,3.951.011-.8.9-1.4,1.559-2.663,1.554a4.3,4.3,0,0,0-4.092,4.456,1.665,1.665,0,0,1-.556,1.377c-.994.938-1.955,1.912-2.9,2.9-.33.346-.535.387-.874,0A4.746,4.746,0,0,0,1443.939,211.56Z" transform="translate(-18.443 -69.967)" fill="#ce916b"/><path d="M1567.635,204.208a4.992,4.992,0,0,0,.766,3.417c.234.327.062.495-.146.7q-3.461,3.45-6.913,6.909a.942.942,0,0,1-.724.332c-1.359-.014-2.719-.006-4.246-.006.767-.831,1.265-1.57,2.518-1.543a4.287,4.287,0,0,0,4.213-4.329,2.081,2.081,0,0,1,.73-1.68C1565.062,206.831,1566.245,205.605,1567.635,204.208Z" transform="translate(-88.837 -70.968)" fill="#ce916b"/><path d="M1491.748,202.633l-6.674,6.679a5.467,5.467,0,0,0-.9-3.376c-.183-.248.083-.392.224-.535.829-.839,1.67-1.667,2.5-2.507a.848.848,0,0,1,.66-.266C1488.916,202.638,1490.277,202.633,1491.748,202.633Z" transform="translate(-43.595 -69.98)" fill="#ce916b"/><path d="M1539.476,216.824a4.625,4.625,0,0,0,.741,3.136.466.466,0,0,1-.079.712c-.845.823-1.675,1.662-2.509,2.5a.711.711,0,0,1-.552.293c-.217-.012-.435,0-.652,0h-3.562Z" transform="translate(-74.118 -78.867)" fill="#ce916b"/><path d="M1451.153,248.762a2.235,2.235,0,1,1-2.289-2.2A2.274,2.274,0,0,1,1451.153,248.762Z" transform="translate(-20.16 -97.484)" fill="#69727d"/><path d="M1566.469,202.573c-.871.85-1.558,1.5-2.224,2.177a.467.467,0,0,1-.71.074,4.789,4.789,0,0,0-3.311-.723c.8-.826,1.252-1.688,2.508-1.554C1563.862,202.669,1565.014,202.573,1566.469,202.573Z" transform="translate(-91.248 -69.92)" fill="#ce916b"/><path d="M1460.675,230.354c.669-.64,1.342-1.277,2.005-1.923.211-.206.377-.369.7-.139a4.846,4.846,0,0,0,3.284.769c-.732.951-1.367,1.7-2.669,1.536a25.947,25.947,0,0,0-3.214-.027Z" transform="translate(-28.921 -85.978)" fill="#ce916b"/><path d="M1472.108,214.625a1.488,1.488,0,1,1-1.464,1.488A1.5,1.5,0,0,1,1472.108,214.625Z" transform="translate(-35.163 -77.49)" fill="#69727d"/><path d="M1559.95,214.626a1.489,1.489,0,1,1-1.452,1.5A1.5,1.5,0,0,1,1559.95,214.626Z" transform="translate(-90.168 -77.491)" fill="#69727d"/><path d="M1595.9,202.651a1.489,1.489,0,1,1-1.466,1.487A1.5,1.5,0,0,1,1595.9,202.651Z" transform="translate(-112.669 -69.993)" fill="#69727d"/><path d="M1575.942,242.57a1.488,1.488,0,1,1-1.474,1.478A1.495,1.495,0,0,1,1575.942,242.57Z" transform="translate(-100.166 -94.987)" fill="#69727d"/><path d="M1417.255,275.305a1.916,1.916,0,0,0,.638-.66c.168-.216.347-.339.629-.162,1.966,1.232,3.522-.255,4.521-1.626.346-.474.615-1.008.985-1.462.877-1.077.958-1.451.166-2.744a2.6,2.6,0,0,0-2.931-1.071,4.238,4.238,0,0,0-1.852,1.349c-1.047,1.038-1.045,1.041-2.143.2-.32-.409-.928-.842-.895-1.22.051-.58.752-.931,1.187-1.366,2.914-2.916,6.465-2.768,9.1.4.36.433.485.286.726-.044.6-.828,1.215-1.652,1.843-2.461a4.527,4.527,0,0,1,5.916-1.252c1.165.621,1.644.587,2.544-.375,1.3-1.386,2.732-2.652,4.751-2.2,2.228.5,4.529,1.091,5.6,3.513.149.337.33.365.656.269a7.374,7.374,0,0,1,5.931.694c.229.13.433.247.67.032,1.579-1.426,3.628-1.505,5.557-1.9a1.68,1.68,0,0,0,.985-.572,34.831,34.831,0,0,1,2.687-2.713,5.623,5.623,0,0,1,8.745,1.6c.367.688.643.592,1.169.317,1.265-.662,2.548-1.289,3.828-1.923a4.255,4.255,0,0,1,5.985,1.557,5.022,5.022,0,0,1,1.107,3.643c-.057.407.1.648.546.781a4.575,4.575,0,0,1,3.213-3.957c.771-.324,1.5-.749,2.254-1.112a4,4,0,0,1,4.079.239,7.262,7.262,0,0,1,.851.571,2.8,2.8,0,0,0,3.139.567,3.5,3.5,0,0,1,3.553.823,7.882,7.882,0,0,1,.61.575c1.22,1.209,1.22,1.21.2,2.5a2.376,2.376,0,0,0-.425.353c-.4.533-.771.506-1.172-.009-.189-.243-.455-.427-.65-.666a1.593,1.593,0,0,0-2.129-.485,3.3,3.3,0,0,1-3.613-.463c-1.805-1.643-3.518-1.557-5.374-.212-.421.3-.988.393-1.32.843-.13.176-.269.4-.129.594.117.166.346.073.524.034a5.712,5.712,0,0,1,6.724,6.807,1.88,1.88,0,0,0,1.727,2.008c1.275.021,2.555.078,3.822-.017,1-.075,1.742.1,2.064,1.143.058.175.1.356.177.524.481,1.091.427,1.263-.811,1.305-1.957.067-3.919.062-5.877,0a3.4,3.4,0,0,1-2.522-1.256c-.39-.464-.626-.419-1.012,0a7.609,7.609,0,0,1-3.767,2.616,5.447,5.447,0,0,1-3.121-.116,1.124,1.124,0,0,0-1.186.213,7.3,7.3,0,0,1-9.294-.158,14.17,14.17,0,0,1-3.119-2.918c-.4-.594-.846-.221-1.146.131-.563.662-1.059,1.381-1.588,2.071a4.167,4.167,0,0,1-5.286,1.462,9.945,9.945,0,0,1-3.63-1.835c-.3-.3-.71-.136-1.071-.17a6.839,6.839,0,0,0-4.254,1.1c-3.445,1.986-8.184,2.256-11.045-.8-.042-.045-.1-.081-.129-.134-.636-1.431-1.794-1.246-3.026-1.052-1.809.285-3.631.491-5.452.7a33.709,33.709,0,0,0-5.533,1.606,12.093,12.093,0,0,1-3.324.85,4.959,4.959,0,0,1-4.466-2.394c-.33-.519-.552-.625-1.136-.365a5.523,5.523,0,0,1-5.187-.314c-.59-.332-.871-.653-.221-1.2A2.9,2.9,0,0,0,1417.255,275.305Zm10.494,1.885a3.281,3.281,0,0,0,1.216-.272c2.343-.7,4.577-1.772,7.021-2.113,2.241-.313,4.492-.559,6.74-.817,1.741-.2,2.4-1.04,1.927-2.7a5.232,5.232,0,0,1,.518-4.376,1.525,1.525,0,0,0-.193-2.05,5.953,5.953,0,0,0-3.033-1.3c-.9-.161-1.4.6-1.893,1.164a4.807,4.807,0,0,1-6.37,1.086,1.411,1.411,0,0,0-2,.373c-1.958,2.566-3.937,5.119-5.793,7.758A2.1,2.1,0,0,0,1427.749,277.19Zm37.759-.521c1.522.994,1.988.92,3.025-.456.374-.5.738-1,1.12-1.489a4.191,4.191,0,0,1,5.548-1.248c1.117.562,1.553.458,2.229-.614q2.188-3.467,4.341-6.956c.879-1.43.849-1.626-.16-2.978a1.26,1.26,0,0,0-1.779-.444c-1.826.934-3.666,1.842-5.5,2.752a1.146,1.146,0,0,0-.6.655,11.782,11.782,0,0,1-5.234,5.6c-.247.148-.459.225-.5.577A6.345,6.345,0,0,1,1465.508,276.669Zm-14.553-9.592c-2.763-.008-3.886,1.342-3.273,3.928a4.847,4.847,0,0,1-.313,3.17c-.581,1.317-.533,1.594.64,2.451a4.682,4.682,0,0,0,1.68.758,8.525,8.525,0,0,0,3.843-.356,4.321,4.321,0,0,0,1.9-7.518c-.672-.6-1.377-1.157-2.1-1.686A3.653,3.653,0,0,0,1450.955,267.077Zm14.072,3.435c0-.342.008-.684,0-1.025a3.243,3.243,0,0,0-3.662-3.3,24.513,24.513,0,0,0-3.1.632c-.669.158-.862.4-.269,1.025a7.056,7.056,0,0,1,1.959,5.45c-.093,1.669-.116,1.668,1.627,1.64a3.324,3.324,0,0,0,3.44-3.486C1465.031,271.134,1465.028,270.823,1465.027,270.512Zm12.832,5.958a4.54,4.54,0,0,0,4.409,1.3,4.317,4.317,0,0,0,3.261-3.345c.136-.54.229-1.091.323-1.64a4.427,4.427,0,0,0-1.348-4.059c-.435-.44-.7-.463-1.047.116-.989,1.647-2.048,3.252-3.046,4.894A6.381,6.381,0,0,1,1477.859,276.471Zm13.021-7.5c-1.423,0-2.311.618-2.125,1.445a11.282,11.282,0,0,1-.381,4.942c-.067.314-.4.671-.1.948s.71.136,1.06.008a2.647,2.647,0,0,0,.913-.429,29.915,29.915,0,0,0,2.615-2.632,2.41,2.41,0,0,0,.218-2.793A2.648,2.648,0,0,0,1490.88,268.967Zm-22.453-7.469c-1.741.015-2.489,1.282-3.453,2.211-.254.245.046.373.216.482a6.21,6.21,0,0,1,2.605,3.623c.112.38.243.492.546.184a28.863,28.863,0,0,0,2.131-2.212,2.445,2.445,0,0,0,.21-2.8A2.668,2.668,0,0,0,1468.427,261.5Z" transform="translate(-1.183 -104.962)" fill="#020202"/><path d="M1519.53,251.063a4.476,4.476,0,1,1-4.5-4.5A4.5,4.5,0,0,1,1519.53,251.063Zm-4.52,1.46a1.489,1.489,0,1,0-1.445-1.508A1.5,1.5,0,0,0,1515.009,252.524Z" transform="translate(-60.165 -97.487)" fill="#020201"/><path d="M1643.871,181.672a1.491,1.491,0,1,1,1.456-1.5A1.5,1.5,0,0,1,1643.871,181.672Z" transform="translate(-142.664 -54.992)" fill="#070503"/><path d="M1549.488,180.216a1.492,1.492,0,1,1-1.431-1.527A1.5,1.5,0,0,1,1549.488,180.216Z" transform="translate(-82.659 -54.99)" fill="#070503"/><path d="M1629.356,180.148a1.491,1.491,0,1,1-1.5-1.457A1.5,1.5,0,0,1,1629.356,180.148Z" transform="translate(-132.665 -54.992)" fill="#070503"/><path d="M1565.461,180.211a1.492,1.492,0,1,1-1.436-1.522A1.5,1.5,0,0,1,1565.461,180.211Z" transform="translate(-92.66 -54.99)" fill="#070503"/><path d="M1532,181.67a1.492,1.492,0,1,1,1.52-1.439A1.5,1.5,0,0,1,1532,181.67Z" transform="translate(-72.661 -54.989)" fill="#070503"/><path d="M1581.435,180.188a1.491,1.491,0,1,1-1.46-1.5A1.5,1.5,0,0,1,1581.435,180.188Z" transform="translate(-102.662 -54.992)" fill="#070503"/><path d="M1516.02,178.69a1.491,1.491,0,1,1-1.456,1.5A1.5,1.5,0,0,1,1516.02,178.69Z" transform="translate(-62.661 -54.992)" fill="#070503"/><path d="M1501.57,180.2a1.491,1.491,0,1,1-1.447-1.511A1.5,1.5,0,0,1,1501.57,180.2Z" transform="translate(-52.658 -54.991)" fill="#070503"/><path d="M1484.072,178.69a1.491,1.491,0,1,1-1.454,1.5A1.5,1.5,0,0,1,1484.072,178.69Z" transform="translate(-42.659 -54.991)" fill="#070503"/><path d="M1468.109,181.669a1.492,1.492,0,1,1,1.517-1.441A1.5,1.5,0,0,1,1468.109,181.669Z" transform="translate(-32.659 -54.989)" fill="#070503"/><path d="M1452.164,178.691a1.491,1.491,0,1,1-1.493,1.465A1.493,1.493,0,0,1,1452.164,178.691Z" transform="translate(-22.658 -54.992)" fill="#070503"/><path d="M1436.155,178.69a1.491,1.491,0,1,1-1.456,1.5A1.5,1.5,0,0,1,1436.155,178.69Z" transform="translate(-12.657 -54.992)" fill="#070503"/><path d="M1420.143,181.67a1.492,1.492,0,1,1,1.561-1.4A1.5,1.5,0,0,1,1420.143,181.67Z" transform="translate(-2.655 -54.99)" fill="#070503"/><path d="M1597.41,180.148a1.491,1.491,0,1,1-1.5-1.457A1.5,1.5,0,0,1,1597.41,180.148Z" transform="translate(-112.664 -54.992)" fill="#070503"/><path d="M1613.381,180.192a1.491,1.491,0,1,1-1.456-1.5A1.5,1.5,0,0,1,1613.381,180.192Z" transform="translate(-122.663 -54.991)" fill="#070503"/><path d="M1487.356,107.877c-.483.119-.728-.142-.917-.668a7.267,7.267,0,0,0-1.036-2.165c-.939-1.145-.338-2.3-.224-3.448.045-.451.346-.181.514-.038a6.142,6.142,0,0,1,2.042,3.353c.168.722.282,1.459.39,2.193C1488.235,107.866,1488.217,107.869,1487.356,107.877Z" transform="translate(-44.078 -6.567)" fill="#83aa5e"/><path d="M1507.121,103.377a13.14,13.14,0,0,0-.141,4.033c.124,1.156-.444,1.738-1.6,1.738-2.16,0-2.16,0-1.274-1.993A9.647,9.647,0,0,1,1507.121,103.377Z" transform="translate(-55.765 -7.838)" fill="#83aa5e"/><path d="M1476.163,112.3c-.946,0-1.748-.012-2.548,0-.393.008-.586-.1-.458-.526a10.022,10.022,0,0,0,.155-3.365A9.961,9.961,0,0,1,1476.163,112.3Z" transform="translate(-36.712 -10.992)" fill="#83aa5e"/><path d="M1519.988,112.317a9.757,9.757,0,0,1,2.767-3.875,14.358,14.358,0,0,0,.23,3.592c.092.338-.248.277-.44.279C1521.743,112.323,1520.942,112.317,1519.988,112.317Z" transform="translate(-66.057 -11.01)" fill="#83aa5e"/><path d="M1522.781,101.246c-.05.047-.135.142-.145.135-.129-.093-.044-.171.032-.246C1522.706,101.171,1522.744,101.209,1522.781,101.246Z" transform="translate(-67.672 -6.435)" fill="#f7f9fa"/><path d="M1443.074,285.623a2.1,2.1,0,0,1-1.858-3.247c1.856-2.639,3.834-5.193,5.792-7.758a1.411,1.411,0,0,1,2-.373,4.807,4.807,0,0,0,6.37-1.086c.495-.569.992-1.325,1.893-1.164a5.953,5.953,0,0,1,3.033,1.3,1.524,1.524,0,0,1,.193,2.05,5.233,5.233,0,0,0-.518,4.376c.47,1.66-.186,2.5-1.927,2.7-2.248.258-4.5.5-6.74.817-2.444.341-4.678,1.417-7.021,2.113A3.279,3.279,0,0,1,1443.074,285.623Z" transform="translate(-16.508 -113.395)" fill="#69727d"/><path d="M1547.786,283.006a6.345,6.345,0,0,0,2.492-4.6c.037-.352.25-.428.5-.577a11.779,11.779,0,0,0,5.234-5.6,1.147,1.147,0,0,1,.6-.655c1.838-.91,3.678-1.818,5.5-2.752a1.26,1.26,0,0,1,1.779.444c1.009,1.352,1.04,1.549.16,2.978q-2.148,3.492-4.341,6.956c-.677,1.072-1.112,1.175-2.229.614a4.191,4.191,0,0,0-5.548,1.248c-.382.489-.746.993-1.119,1.489C1549.774,283.926,1549.308,284,1547.786,283.006Z" transform="translate(-83.461 -111.299)" fill="#3e444b"/><path d="M1502.251,281.423a3.653,3.653,0,0,1,2.371.747c.726.528,1.431,1.09,2.1,1.686a4.321,4.321,0,0,1-1.9,7.518,8.525,8.525,0,0,1-3.843.356,4.682,4.682,0,0,1-1.68-.757c-1.172-.857-1.22-1.134-.64-2.451a4.847,4.847,0,0,0,.313-3.17C1498.364,282.765,1499.488,281.415,1502.251,281.423Z" transform="translate(-52.479 -119.309)" fill="#4f565f"/><path d="M1534.141,283.339c0,.311,0,.622,0,.932a3.324,3.324,0,0,1-3.44,3.486c-1.744.028-1.72.03-1.628-1.64a7.056,7.056,0,0,0-1.959-5.45c-.593-.623-.4-.867.269-1.025a24.532,24.532,0,0,1,3.1-.632,3.243,3.243,0,0,1,3.662,3.3C1534.148,282.655,1534.14,283,1534.141,283.339Z" transform="translate(-70.295 -117.789)" fill="#69727d"/><path d="M1580.819,293.053a6.379,6.379,0,0,0,2.552-2.73c1-1.642,2.057-3.247,3.046-4.894.348-.578.613-.555,1.047-.116a4.428,4.428,0,0,1,1.348,4.059c-.094.549-.188,1.1-.323,1.64a4.316,4.316,0,0,1-3.261,3.345A4.54,4.54,0,0,1,1580.819,293.053Z" transform="translate(-104.143 -121.545)" fill="#69727d"/><path d="M1611.075,286.487a2.648,2.648,0,0,1,2.2,1.49,2.41,2.41,0,0,1-.218,2.793,29.889,29.889,0,0,1-2.615,2.632,2.646,2.646,0,0,1-.912.429c-.35.128-.772.255-1.06-.008s.031-.634.1-.948a11.287,11.287,0,0,0,.381-4.942C1608.764,287.105,1609.652,286.484,1611.075,286.487Z" transform="translate(-121.378 -122.483)" fill="#4f565f"/><path d="M1549.646,266.511a2.668,2.668,0,0,1,2.255,1.484,2.445,2.445,0,0,1-.21,2.8,28.877,28.877,0,0,1-2.131,2.212c-.3.308-.433.2-.546-.184a6.211,6.211,0,0,0-2.605-3.623c-.17-.109-.47-.237-.216-.482C1547.157,267.793,1547.9,266.526,1549.646,266.511Z" transform="translate(-82.402 -109.976)" fill="#4f565f"/><path d="M1520.01,257.518a1.489,1.489,0,1,1,1.531-1.421A1.5,1.5,0,0,1,1520.01,257.518Z" transform="translate(-65.166 -102.482)" fill="#69727d"/></g></g></svg>