<svg xmlns="http://www.w3.org/2000/svg" width="63.049" height="63.037" viewBox="0 0 63.049 63.037">
  <g id="Grupo_86023" data-name="Grupo 86023" transform="translate(-830.395 -104.486)">
    <path id="Trazado_122079" data-name="Trazado 122079" d="M830.405,142.087q0-11.976-.01-23.951a1.885,1.885,0,0,1,.6-1.455q5.835-5.8,11.637-11.634a1.755,1.755,0,0,1,1.345-.561q16.933.018,33.867.009c1.037,0,1.36.325,1.361,1.367q0,14.231-.014,28.461c0,.555.125.688.682.683,3.41-.03,6.82-.016,10.23-.014a3.065,3.065,0,0,1,3.336,3.305q0,10.927,0,21.854a3.069,3.069,0,0,1-3.338,3.3c-3.452,0-6.9.01-10.357-.011-.451,0-.573.113-.549.556.04.739.014,1.482.01,2.223,0,.952-.348,1.3-1.3,1.3q-8.324,0-16.647,0H831.9c-1.217,0-1.5-.277-1.5-1.485Q830.4,154.062,830.405,142.087Zm56.549-5.036c-.126-.009-.253-.024-.379-.025H856.083a2.25,2.25,0,0,0-.443.021c-.654.132-.942.7-.829,1.686.077.669.61.305.892.306q14.96.035,29.921.019c.529,0,1.058-.012,1.587-.018,1.269.006,2.539.014,3.809.016.135,0,.289.048.378-.138a1.334,1.334,0,0,0-1.143-1.888C889.155,137.021,888.055,137.043,886.955,137.051Zm4.436,6.065a11.337,11.337,0,0,1,.029-1.33c.082-.615-.188-.706-.734-.705q-16.975.022-33.95.017c-.626,0-1.475-.282-1.821.118-.364.42-.1,1.25-.089,1.9a12.477,12.477,0,0,1-.028,1.33c-.072.6.165.724.732.723q16.976-.024,33.951-.018c.625,0,1.468.284,1.819-.13C891.665,144.591,891.4,143.768,891.391,143.116Zm-36.564,13.6c-.007,1.058-.017,2.117-.019,3.175,0,1.262.266,1.532,1.516,1.532h33.041c1.967,0,2.045-.077,2.045-2.021q0-5.813,0-11.626c0-.319.07-.61-.457-.6-1.757.041-3.515.027-5.272.034-.148-.007-.3-.02-.443-.02H855.391a1.439,1.439,0,0,1-.19,0c-.3-.04-.4.074-.4.385C854.818,150.622,854.82,153.669,854.827,156.716Zm-2.075-.378c.007-.232.02-.464.02-.7q0-8.729,0-17.457a3.062,3.062,0,0,1,2.007-3.008,3.923,3.923,0,0,1,1.373-.188q7.459,0,14.918-.018c1.821.007,3.643-.008,5.463.035.528.012.654-.12.653-.65q-.028-13.6-.013-27.193a1.743,1.743,0,0,1,0-.254c.046-.309-.088-.388-.389-.387q-5.845.025-11.69.028a.826.826,0,0,0-.126-.019q-9.944,0-19.889-.015c-.449,0-.45.191-.449.523q.012,5.146,0,10.292c0,1.081-.315,1.395-1.4,1.395-3.368,0-6.736.016-10.1-.014-.577-.005-.714.142-.714.715q.027,18.329.015,36.658c0,.211.013.422.02.634-.007,2.688,0,5.376-.034,8.063-.008.565.122.722.709.721q21.34-.028,42.681-.015c1.361,0,1.324,0,1.377-1.376.023-.589-.171-.671-.7-.669q-10.258.027-20.515.01a3.048,3.048,0,0,1-3.2-3.181Q852.76,158.306,852.753,156.339Zm-10.146-48.322c-1.313,1.164-8.251,8.167-8.593,8.677,2.353,0,4.674.009,6.994-.007.519,0,1.209.242,1.51-.117.254-.3.086-.968.087-1.472C842.608,112.777,842.606,110.457,842.606,108.017Z" transform="translate(0)"/>
    <path id="Trazado_122080" data-name="Trazado 122080" d="M877.015,140.914q-7.459.01-14.918.018a3.923,3.923,0,0,0-1.373.188,3.062,3.062,0,0,0-2.007,3.008q-.005,8.728,0,17.457c0,.232-.013.464-.02.7l-2.778,1c-3.54.008-7.08.034-10.62.005-.627-.005-.943.1-.837.778l-1.991-.254c.038-.386-.1-.554-.522-.516-.5.045-1.012.014-1.519.017l-2.027-.644c-.007-.211-.02-.422-.02-.634q0-18.329-.015-36.658c0-.574.137-.72.714-.715,3.368.03,6.736.015,10.1.014,1.083,0,1.4-.314,1.4-1.395q0-5.146,0-10.292c0-.332,0-.524.449-.523q9.944.027,19.889.015a.827.827,0,0,1,.126.019c.008.158.122.255.2.376a7.274,7.274,0,0,1,1.433,2.227,12.2,12.2,0,1,0-.974,23.479,12.9,12.9,0,0,0,6.071-3.49c.249.272.154.612.118.9A35.358,35.358,0,0,1,877.015,140.914ZM850.587,132.8H845.95c-1.475,0-1.454,0-1.481,1.456-.009.466.1.594.581.591,3.388-.024,6.776-.013,10.164-.013,1.486,0,1.471,0,1.479-1.519,0-.406-.092-.53-.515-.525C854.314,132.816,852.45,132.8,850.587,132.8Zm-4.008,4.066h-4.7c-1.471,0-1.449,0-1.477,1.46-.009.475.111.589.586.586,3.367-.023,6.733-.012,10.1-.012,1.546,0,1.53,0,1.539-1.524,0-.414-.105-.525-.52-.52C850.264,136.882,848.422,136.869,846.579,136.869Zm9.044,2.033c1.059,0,1.059,0,1.059-1.038,0-1,0-1-.975-1-1.059,0-1.059,0-1.059,1.038C854.648,138.9,854.648,138.9,855.623,138.9Zm-13.176-5.022c0-1.078,0-1.078-1.082-1.078-.951,0-.951,0-.951.955,0,1.078,0,1.078,1.082,1.078C842.448,134.836,842.448,134.836,842.448,133.88Z" transform="translate(-5.942 -5.943)" fill="#ecf6fc"/>
    <path id="Trazado_122081" data-name="Trazado 122081" d="M926.266,281.693c-.007-3.047-.009-6.095-.026-9.142,0-.311.1-.424.4-.385a1.437,1.437,0,0,0,.191,0h29.847c.148,0,.3.013.443.02a17.073,17.073,0,0,1-1.386,2.23,16.128,16.128,0,0,0-1.4,1.814,4.609,4.609,0,0,0-2.9.69,4.367,4.367,0,0,0-1.825,2.991,1.4,1.4,0,0,0-.361.094,23.251,23.251,0,0,1-5.374,2.22,17.88,17.88,0,0,1-4.709.863,6.451,6.451,0,0,0,1.312-3.752c.015-1.219.008-1.224-1.136-1.089a5.675,5.675,0,0,0-.468-1.4c.172-.262.335-.531.516-.786.974-1.37.971-1.361-.436-2.248-.256-.161-.383-.142-.551.1-.307.447-.645.873-.97,1.308-.284-.269-.7-.361-.943-.68a.733.733,0,0,1,.062-.242c.388-.558.067-.734-.431-.866a6.122,6.122,0,0,0-7.056,8.87c-.162.226-.363.141-.568.077C927.754,282.151,927.01,281.923,926.266,281.693Z" transform="translate(-71.439 -124.977)" fill="#5497ee"/>
    <path id="Trazado_122082" data-name="Trazado 122082" d="M939.186,283.077a17.88,17.88,0,0,0,4.709-.863,23.249,23.249,0,0,0,5.374-2.22,1.407,1.407,0,0,1,.361-.094c.007.126.019.252.022.378a4.051,4.051,0,0,0,5.193,3.9,1.7,1.7,0,0,1,.92.038,4.06,4.06,0,0,0,4.37-6.208,3.972,3.972,0,0,0-4.324-1.652,2.076,2.076,0,0,1-1.457-.14,16.132,16.132,0,0,1,1.4-1.814,17.069,17.069,0,0,0,1.386-2.23c1.758-.007,3.516.007,5.272-.034.527-.012.457.279.457.6q0,5.813,0,11.626c0,1.944-.078,2.021-2.045,2.021H927.783c-1.25,0-1.519-.27-1.516-1.532,0-1.058.012-2.117.019-3.175.744.23,1.488.458,2.231.691.2.064.406.149.568-.077.063.082.129.162.188.247a5.963,5.963,0,0,0,6.041,2.73A6.236,6.236,0,0,0,939.186,283.077Z" transform="translate(-71.459 -124.964)" fill="#3d74c3"/>
    <path id="Trazado_122083" data-name="Trazado 122083" d="M842.469,309.641l1.991.254a2.487,2.487,0,0,1,.016.5c-.1.62.11.794.761.787,3.418-.039,6.836-.018,10.254-.018,1.191,0,1.149,0,1.208-1.218.031-.636-.111-.94-.783-.838l2.778-1q.011,1.967.022,3.935a3.048,3.048,0,0,0,3.2,3.181q10.257.007,20.515-.01c.528,0,.722.081.7.669-.052,1.374-.016,1.376-1.377,1.376q-21.341,0-42.681.015c-.588,0-.717-.157-.709-.721.037-2.687.028-5.375.034-8.063l2.027.644c0,.549-.015,1.1-.01,1.648,0,.147-.086.375.193.374a4.831,4.831,0,0,0,1.743-.084c.287-.119.05-.815.1-1.249C842.455,309.766,842.462,309.7,842.469,309.641Zm4.023,5.593h4.636c1.5,0,1.48,0,1.5-1.5.006-.462-.138-.544-.566-.542-3.366.018-6.731.01-10.1.01-1.583,0-1.564,0-1.563,1.565,0,.412.13.48.5.476C842.766,315.224,844.629,315.234,846.492,315.234Zm9.2-2.033c-1.043,0-1.043,0-1.043,1.054,0,.979,0,.979.991.979,1.043,0,1.043,0,1.043-1.054C856.682,313.2,856.682,313.2,855.691,313.2Z" transform="translate(-5.942 -151.777)" fill="#cbe0f8"/>
    <path id="Trazado_122084" data-name="Trazado 122084" d="M972.654,140.93a35.376,35.376,0,0,0,.878-4.927c.036-.291.131-.631-.118-.9.091-.114.179-.23.274-.342a11.774,11.774,0,0,0,2.816-10.21,11.992,11.992,0,0,0-8.187-9.439,7.273,7.273,0,0,0-1.433-2.227c-.083-.12-.2-.217-.2-.376q5.845-.011,11.69-.028c.3,0,.434.078.389.387a1.761,1.761,0,0,0,0,.254q0,13.6.013,27.193c0,.53-.125.663-.653.65C976.3,140.922,974.475,140.937,972.654,140.93Z" transform="translate(-101.581 -5.959)" fill="#cbe0f7"/>
    <path id="Trazado_122085" data-name="Trazado 122085" d="M926.037,250c-.011-.651-.275-1.481.089-1.9.347-.4,1.2-.117,1.821-.118q16.975-.012,33.95-.017c.546,0,.816.09.734.705A11.351,11.351,0,0,0,962.6,250Z" transform="translate(-71.211 -106.883)" fill="#89919e"/>
    <path id="Trazado_122086" data-name="Trazado 122086" d="M926.219,256.19h36.565c.01.652.274,1.475-.091,1.905-.352.414-1.195.13-1.819.13q-16.975.013-33.951.018c-.568,0-.8-.126-.732-.723A12.541,12.541,0,0,0,926.219,256.19Z" transform="translate(-71.393 -113.074)" fill="#505d78"/>
    <path id="Trazado_122087" data-name="Trazado 122087" d="M958.609,234.285c-.529.006-1.058.018-1.587.018q-14.96,0-29.921-.019c-.282,0-.815.363-.892-.306-.113-.983.175-1.555.829-1.686a2.251,2.251,0,0,1,.443-.021h30.492c.127,0,.253.016.379.025C958.337,232.972,958.68,233.6,958.609,234.285Z" transform="translate(-71.398 -95.245)" fill="#5497ee"/>
    <path id="Trazado_122088" data-name="Trazado 122088" d="M853.2,118.352c0,2.44,0,4.76,0,7.081,0,.5.167,1.169-.087,1.472-.3.359-.991.113-1.51.117-2.32.015-4.641.007-6.994.007C844.945,126.519,851.883,119.516,853.2,118.352Z" transform="translate(-10.589 -10.335)" fill="#89919e"/>
    <path id="Trazado_122089" data-name="Trazado 122089" d="M1052.765,234.292c.071-.683-.271-1.313-.256-1.989,1.1-.008,2.2-.03,3.3-.021a1.334,1.334,0,0,1,1.143,1.888c-.089.186-.243.138-.378.138C1055.3,234.306,1054.034,234.3,1052.765,234.292Z" transform="translate(-165.554 -95.252)" fill="#3d74c3"/>
    <path id="Trazado_122090" data-name="Trazado 122090" d="M926.36,121.041a11.992,11.992,0,0,1,8.187,9.439,11.774,11.774,0,0,1-2.816,10.21c-.094.112-.182.228-.274.342a12.9,12.9,0,0,1-6.071,3.49,12.2,12.2,0,1,1,.974-23.479Zm4.356,5.6c-.08-.122-.15-.253-.241-.366a10.135,10.135,0,0,0-16.037.3,9.69,9.69,0,0,0-1.3,9.769,2.8,2.8,0,0,0,.115.358,10.142,10.142,0,1,0,17.464-10.058Z" transform="translate(-59.624 -11.889)" fill="#040303"/>
    <path id="Trazado_122091" data-name="Trazado 122091" d="M873.691,311.97c.672-.1.814.2.783.838-.059,1.216-.017,1.218-1.208,1.218-3.418,0-6.837-.021-10.254.018-.65.007-.865-.167-.761-.787a2.482,2.482,0,0,0-.016-.5c-.107-.677.21-.783.836-.778C866.611,312,870.152,311.978,873.691,311.97Z" transform="translate(-23.717 -154.636)"/>
    <path id="Trazado_122092" data-name="Trazado 122092" d="M868.446,192.317c1.863,0,3.727.014,5.59-.011.424-.006.517.119.515.525-.008,1.519.007,1.519-1.479,1.519-3.388,0-6.776-.011-10.164.013-.484,0-.589-.125-.581-.591.027-1.455.006-1.456,1.481-1.456Z" transform="translate(-23.801 -65.458)"/>
    <path id="Trazado_122093" data-name="Trazado 122093" d="M852.532,208.288c1.842,0,3.685.013,5.526-.01.415-.005.523.106.52.52-.009,1.524.007,1.524-1.539,1.524-3.367,0-6.734-.011-10.1.012-.475,0-.6-.11-.586-.586.029-1.459.006-1.46,1.477-1.46Z" transform="translate(-11.895 -77.362)"/>
    <path id="Trazado_122094" data-name="Trazado 122094" d="M903.281,210.351c-.975,0-.975,0-.975-1,0-1.038,0-1.038,1.059-1.038.975,0,.975,0,.975,1C904.34,210.351,904.34,210.351,903.281,210.351Z" transform="translate(-53.6 -77.392)"/>
    <path id="Trazado_122095" data-name="Trazado 122095" d="M848.437,312.577c-.007.063-.014.126-.02.188-.045.434.192,1.13-.1,1.249a4.832,4.832,0,0,1-1.743.084c-.279,0-.192-.227-.193-.374,0-.549.006-1.1.01-1.648.506,0,1.016.028,1.519-.017C848.341,312.023,848.475,312.191,848.437,312.577Z" transform="translate(-11.91 -154.714)"/>
    <path id="Trazado_122096" data-name="Trazado 122096" d="M848.44,193.427c0,.955,0,.955-.951.955-1.082,0-1.082,0-1.082-1.078,0-.955,0-.955.951-.955C848.44,192.349,848.44,192.349,848.44,193.427Z" transform="translate(-11.934 -65.49)"/>
    <path id="Trazado_122097" data-name="Trazado 122097" d="M1022.737,288.132a2.076,2.076,0,0,0,1.457.14,3.972,3.972,0,0,1,4.324,1.652,4.06,4.06,0,0,1-4.37,6.208,1.7,1.7,0,0,0-.919-.038,4.051,4.051,0,0,1-5.193-3.9c0-.126-.014-.252-.022-.378a4.367,4.367,0,0,1,1.825-2.991A4.609,4.609,0,0,1,1022.737,288.132Zm2.936,2.135a4.073,4.073,0,0,1,.015,3.821,1.908,1.908,0,0,0,1.494-1.8A2.028,2.028,0,0,0,1025.673,290.268Zm-4.13.067a1.882,1.882,0,0,0-1.472,1.939,1.811,1.811,0,0,0,1.482,1.769A4.023,4.023,0,0,1,1021.543,290.334Zm2.615,1.865c-.056-.474-.133-1.19-.51-1.174-.454.018-.528.707-.53,1.189,0,.466.118,1.178.489,1.162C1024.087,293.356,1024.087,292.656,1024.157,292.2Z" transform="translate(-139.844 -136.877)" fill="#010202"/>
    <path id="Trazado_122098" data-name="Trazado 122098" d="M945.141,286.109a6.235,6.235,0,0,1-3.871,2.194,5.963,5.963,0,0,1-6.041-2.73c-.059-.085-.125-.165-.188-.247a6.122,6.122,0,0,1,7.056-8.87c.5.132.819.308.431.866a.73.73,0,0,0-.062.242.8.8,0,0,0-.128.216c-.147.7-.529.723-1.172.571a4.02,4.02,0,0,0-4.852,3.454,4.105,4.105,0,0,0,3.682,4.55,4.009,4.009,0,0,0,4.39-3.958c-.017-.8.223-1.08.932-1.131,1.144-.134,1.151-.13,1.136,1.089A6.45,6.45,0,0,1,945.141,286.109Z" transform="translate(-77.414 -127.995)" fill="#040303"/>
    <path id="Trazado_122099" data-name="Trazado 122099" d="M951.234,285.236c-.709.051-.949.329-.932,1.131a4.009,4.009,0,0,1-4.39,3.958,4.105,4.105,0,0,1-3.682-4.55,4.02,4.02,0,0,1,4.852-3.454c.644.152,1.026.134,1.173-.571a.8.8,0,0,1,.127-.216c.247.32.659.412.943.68l-3,4.27c-.153-.208-.267-.355-.371-.509-.924-1.371-.917-1.362-2.264-.376-.247.181-.273.294-.1.539.551.8,1.079,1.611,1.619,2.417.7,1.041,1.385,1.055,2.112.049q1.722-2.384,3.448-4.766A5.679,5.679,0,0,1,951.234,285.236Z" transform="translate(-83.331 -131.964)" fill="#e7f1f8"/>
    <path id="Trazado_122100" data-name="Trazado 122100" d="M954.528,281.4q-1.724,2.383-3.448,4.766c-.727,1.006-1.414.992-2.112-.049-.54-.805-1.068-1.619-1.619-2.417-.169-.245-.143-.358.1-.539,1.346-.986,1.34-.994,2.264.376.1.154.219.3.371.509l3-4.27c.325-.435.664-.86.97-1.308.168-.244.295-.264.551-.1,1.407.887,1.411.878.436,2.248C954.862,280.866,954.7,281.135,954.528,281.4Z" transform="translate(-87.093 -129.523)" fill="#040303"/>
    <path id="Trazado_122101" data-name="Trazado 122101" d="M852.448,330.087c-1.863,0-3.726-.01-5.588.008-.372,0-.5-.064-.5-.476,0-1.566-.02-1.566,1.563-1.566,3.366,0,6.732.008,10.1-.01.428,0,.572.079.566.542-.02,1.5,0,1.5-1.5,1.5Z" transform="translate(-11.898 -166.631)"/>
    <path id="Trazado_122102" data-name="Trazado 122102" d="M903.349,328.084c.991,0,.991,0,.991.979,0,1.054,0,1.054-1.043,1.054-.991,0-.991,0-.991-.979C902.306,328.084,902.306,328.084,903.349,328.084Z" transform="translate(-53.6 -166.661)"/>
    <path id="Trazado_122103" data-name="Trazado 122103" d="M918.94,142.343a9.69,9.69,0,0,1,1.3-9.769,10.135,10.135,0,0,1,16.037-.3c.091.114.161.244.241.366a10.744,10.744,0,0,1-4.107,8.313,4.191,4.191,0,0,0-4.214-3.346,2,2,0,0,1-1.856-1.859,2.054,2.054,0,0,1,1.557-2.117,1.848,1.848,0,0,1,2.271,1.14c.211.86.683.882,1.333.827a2.3,2.3,0,0,1,.508,0c.393.055.465-.131.413-.472a4.268,4.268,0,0,0-1.661-2.821c-.429-.335-1.155-.315-1.337-.825a4.9,4.9,0,0,1-.037-1.638c0-.219-.028-.327-.3-.356-1.719-.184-1.737-.177-1.738,1.52a2.236,2.236,0,0,0,0,.317c.037.261-.1.358-.324.454a4.057,4.057,0,0,0-2.693,4.448,4.1,4.1,0,0,0,4.105,3.438,2,2,0,0,1,1.758,2.822c-.138.049-.275.1-.413.147a7.055,7.055,0,0,1-2.529.714,1.167,1.167,0,0,1-.716-.836c-.084-.928-.683-.865-1.321-.818a2.332,2.332,0,0,1-.506,0c-.413-.061-.442.163-.4.482a6.463,6.463,0,0,0,.492,1.558A12.788,12.788,0,0,1,918.94,142.343Z" transform="translate(-65.427 -17.889)" fill="#f0cf93"/>
    <path id="Trazado_122104" data-name="Trazado 122104" d="M921.18,154.511a12.789,12.789,0,0,0,5.867,1.392,4.18,4.18,0,0,0,2.054,1.713c.451.148.5.388.5.784-.013,1.631,0,1.631,1.611,1.567a.351.351,0,0,1,.063,0c.28.041.368-.085.358-.358-.018-.486,0-.972-.008-1.459,0-.207.027-.354.254-.441a4.08,4.08,0,0,0,2.776-4.584,10.745,10.745,0,0,0,4.107-8.313,9.882,9.882,0,0,1,.877,10.632,10.161,10.161,0,0,1-18.341-.574A2.81,2.81,0,0,1,921.18,154.511Z" transform="translate(-67.667 -30.057)" fill="#e9b864"/>
    <path id="Trazado_122105" data-name="Trazado 122105" d="M1048.092,296.541a2.027,2.027,0,0,1,1.509,2.025,1.908,1.908,0,0,1-1.493,1.8A4.073,4.073,0,0,0,1048.092,296.541Z" transform="translate(-162.262 -143.15)" fill="#e9b864"/>
    <path id="Trazado_122106" data-name="Trazado 122106" d="M1027.56,296.8a4.023,4.023,0,0,0,.01,3.709,1.811,1.811,0,0,1-1.482-1.769A1.882,1.882,0,0,1,1027.56,296.8Z" transform="translate(-145.861 -143.345)" fill="#b16a5f"/>
    <path id="Trazado_122107" data-name="Trazado 122107" d="M1039.1,300.69c-.07.457-.07,1.156-.55,1.176-.371.016-.491-.7-.489-1.162,0-.482.075-1.171.53-1.189C1038.964,299.5,1039.041,300.216,1039.1,300.69Z" transform="translate(-154.784 -145.367)" fill="#b16a5f"/>
    <path id="Trazado_122108" data-name="Trazado 122108" d="M950.279,143.665a4.08,4.08,0,0,1-2.776,4.584c-.227.087-.257.234-.254.441.009.486-.01.973.008,1.459.01.274-.077.4-.358.358a.351.351,0,0,0-.063,0c-1.614.065-1.624.065-1.611-1.567,0-.4-.047-.637-.5-.784a4.181,4.181,0,0,1-2.054-1.713,6.461,6.461,0,0,1-.492-1.558c-.041-.319-.012-.543.4-.482a2.335,2.335,0,0,0,.506,0c.638-.047,1.237-.11,1.321.818a1.166,1.166,0,0,0,.716.836,1.922,1.922,0,0,0,2.942-.86,2,2,0,0,0-1.758-2.822,4.1,4.1,0,0,1-4.105-3.438,4.057,4.057,0,0,1,2.693-4.448c.223-.1.361-.193.324-.454a2.236,2.236,0,0,1,0-.317c0-1.7.019-1.7,1.738-1.52.271.029.3.137.3.356a4.9,4.9,0,0,0,.037,1.638c.182.51.909.49,1.337.825a4.268,4.268,0,0,1,1.661,2.821c.052.341-.02.527-.413.472a2.3,2.3,0,0,0-.508,0c-.65.054-1.122.033-1.333-.827a1.848,1.848,0,0,0-2.271-1.14,2.054,2.054,0,0,0-1.557,2.117,2,2,0,0,0,1.856,1.859A4.191,4.191,0,0,1,950.279,143.665Z" transform="translate(-83.294 -20.598)" fill="#030202"/>
    <path id="Trazado_122109" data-name="Trazado 122109" d="M956.787,183.482a1.922,1.922,0,0,1-2.942.86,7.049,7.049,0,0,0,2.529-.714C956.513,183.582,956.65,183.531,956.787,183.482Z" transform="translate(-92.015 -58.88)" fill="#e9b864"/>
  </g>
</svg>
