<svg xmlns="http://www.w3.org/2000/svg" width="61" height="61" viewBox="0 0 61 61"><g transform="translate(-2997 5024)"><g transform="translate(2644 -11704)"><rect width="61" height="61" transform="translate(353 6680)" fill="none"/><g transform="translate(358.867 6685.996)"><path d="M783.953,1079q-11.979,0-23.958.009c-.414,0-.543-.07-.54-.521.024-3.243,0-6.486.017-9.729a5.531,5.531,0,1,1,11.062-.035c.012.792.012.792.791.792s.781,0,.79-.793a5.407,5.407,0,0,1,1.146-3.34.534.534,0,0,0,.106-.578,20.4,20.4,0,0,1-1.209-5.969c-.017-.328-.127-.411-.433-.39-.377.025-.757.011-1.136,0a1.561,1.561,0,0,1-1.63-1.61,20.479,20.479,0,0,1,.063-2.957c.04-.267-.123-.244-.285-.277a5.524,5.524,0,0,1-4.52-5.7,5.029,5.029,0,0,1,.47-1.952.974.974,0,0,0,.1-.616,24.87,24.87,0,0,1-.384-2.635c-.02-.256-.108-.292-.343-.225a3.622,3.622,0,0,1-3.812-1.095c-.287-.3-.569-.6-.877-.868-.223-.2-.184-.318.014-.5.387-.357.734-.759,1.133-1.1.218-.188.2-.288.044-.5a5.749,5.749,0,0,1,1.427-8.141c.732-.509,1.277-.3,1.451.595a6.905,6.905,0,0,0,1.293,3.31,8.416,8.416,0,0,0,.638.686c.485.459.935.846,1.675.308a3.132,3.132,0,0,1,1.849-.428q2.421,0,4.841,0a4.314,4.314,0,0,1,2.3.633.5.5,0,0,0,.651-.039,5.616,5.616,0,0,0,2.424-4.068c.187-1.458.93-1.556,1.937-.722a5.784,5.784,0,0,1,1.076,7.809c-.191.272-.188.4.067.616.4.339.748.742,1.13,1.1.154.146.166.24,0,.392-.443.418-.849.878-1.309,1.274a3.49,3.49,0,0,1-3.363.759c-.319-.088-.4-.033-.416.284a4.61,4.61,0,0,1-.127,1.026c-.1.379.029.422.367.421,4.314-.01,8.628.012,12.942-.013a10.429,10.429,0,0,1,7.268,2.678c.215.191.311.154.5-.025a3.42,3.42,0,0,1,3.956-.757,3.476,3.476,0,0,1,2.172,3.449q0,3.186,0,6.371c0,.58.309.933.789.933a.8.8,0,0,0,.787-.885c.008-1.152.015-2.305-.005-3.457-.006-.322.081-.407.4-.405,1.186.007,1.186-.005,1.186,1.2,0,.905.007,1.811,0,2.716a2.37,2.37,0,1,1-4.739-.006c-.009-2.19,0-4.379,0-6.569a2.009,2.009,0,0,0-3.525-1.381c-.135.143-.206.232-.055.44a10.727,10.727,0,0,1,1.783,8.482c-.347,2.025-.582,4.069-.891,6.1-.06.395,0,.424.374.319a5.51,5.51,0,0,1,6.91,4.059,6.094,6.094,0,0,1,.151,1.468c0,3.194-.009,6.388.007,9.582,0,.379-.084.484-.476.483Q795.982,1078.991,783.953,1079Zm-2.352-14.15c0-.568,0-1.023,0-1.478a4.743,4.743,0,0,1,4.912-4.919c2.173,0,4.347,0,6.521,0a.881.881,0,0,0,.495-.053c-.147-.369-.3-.73-.435-1.1a5.925,5.925,0,0,1,.622-5.6c.625-.944.64-.934,1.452-.191a1.235,1.235,0,0,0,.147.132c.25.164.242.295.039.534a4.28,4.28,0,0,0-.809,4.471c.227.633.484,1.256.745,1.876a6.929,6.929,0,0,1,.545,2.784c-.018,2.371-.006,4.741-.006,7.112,0,1.1,0,1.079,1.08,1.109.407.011.528-.086.51-.5a5.375,5.375,0,0,1,1.624-4.193.921.921,0,0,0,.243-.572c.381-2.687.758-5.374,1.155-8.058a8.758,8.758,0,0,0-2.516-7.856,8.32,8.32,0,0,0-3.659-2.155c-.009.107-.017.172-.018.237a2.377,2.377,0,0,1-2.377,2.544.8.8,0,0,0-.783.891c-.008,1.021.008,2.042-.006,3.062a2.366,2.366,0,0,1-2.351,2.366c-.51.011-1.021.006-1.531,0a2.372,2.372,0,0,1-2.436-2.282c-.049-.618-.318-.871-.95-.877-.494-.005-.988.01-1.482,0a2.369,2.369,0,0,1,.024-4.736c.444-.011.889,0,1.334,0,.7,0,1.078-.286,1.068-.8s-.372-.775-1.047-.776h-5.778a5.537,5.537,0,0,1-1.438,6.564c-.087.08-.187.154-.11.287a5.929,5.929,0,0,1,.468,3.178.505.505,0,0,0,.2.418,4.021,4.021,0,0,1,1.387,3.241c-.015,1.136-.005,2.272,0,3.408,0,.164-.069.349.221.4A5.572,5.572,0,0,1,781.6,1064.85Zm-20.552,7.927c0,1.4.015,2.8-.01,4.2-.007.384.117.457.473.455q3.48-.023,6.96,0c.386,0,.492-.1.49-.488-.018-2.7,0-5.4-.011-8.094a3.952,3.952,0,1,0-7.9-.017C761.045,1070.145,761.049,1071.461,761.049,1072.777Zm12.647,0c0,1.4.015,2.8-.01,4.2-.007.384.116.457.473.455q3.48-.023,6.96,0c.386,0,.492-.1.49-.487-.018-2.7,0-5.4-.011-8.094a3.952,3.952,0,1,0-7.9-.018C773.692,1070.145,773.7,1071.461,773.7,1072.777Zm12.647-.04c0,1.415.01,2.83-.008,4.244,0,.336.073.448.43.446q3.53-.024,7.059,0c.358,0,.431-.113.429-.447-.013-2.714,0-5.429-.009-8.144a3.952,3.952,0,1,0-7.9,0C786.34,1070.138,786.344,1071.438,786.344,1072.737Zm12.648.024c0,1.4.012,2.8-.008,4.2-.005.357.072.475.455.472q3.5-.029,7.01,0c.383,0,.457-.115.455-.472-.015-2.715,0-5.429-.01-8.144a3.951,3.951,0,1,0-7.9,0C798.987,1070.129,798.992,1071.445,798.992,1072.761Zm-22.546-28.841a.7.7,0,0,0,.078-.16,25.761,25.761,0,0,0,.324-4.425,3.137,3.137,0,0,0-3.122-3.009q-2.4-.025-4.791,0a3.138,3.138,0,0,0-3.137,3.193c0,.838.044,1.679.118,2.514a9.39,9.39,0,0,0,.278,1.906,5.115,5.115,0,0,1,2.514-1.183,25.076,25.076,0,0,1,4.878-.054A5.166,5.166,0,0,1,776.446,1043.921Zm17.8,20.923c0-.908.011-1.724,0-2.538a13.3,13.3,0,0,0-.055-1.969c-.042-.252-.141-.308-.377-.308-2.518.008-5.036-.01-7.553.012a3.066,3.066,0,0,0-3.049,2.859c-.075,2.12-.022,4.244-.031,6.367,0,.189.051.271.248.253.147-.013.3,0,.444,0,.874,0,.874,0,.894-.887a5.532,5.532,0,0,1,6.928-5.248A5.912,5.912,0,0,1,794.248,1064.844ZM771.3,1048.968c1.662,0,3.325-.022,4.987.015.466.01.546-.167.565-.556a3.9,3.9,0,0,0-3.225-4.108,17.653,17.653,0,0,0-4.333-.048,3.908,3.908,0,0,0-3.5,4.215c.025.359.122.5.523.494C767.98,1048.952,769.643,1048.968,771.3,1048.968Zm18.131-3.155v-.006c-.938,0-1.875.005-2.813,0-.268,0-.409-.007-.335.364a2.346,2.346,0,0,1-2.252,2.8c-.526.016-1.053-.005-1.579.007a.79.79,0,1,0,.016,1.575c.444.01.888,0,1.332,0a2.376,2.376,0,0,1,2.54,2.328.8.8,0,0,0,.894.831c.427.009.855,0,1.283,0,.707-.006.981-.279.984-.989,0-1-.012-2.007.005-3.01a2.375,2.375,0,0,1,2.144-2.316c.838-.084,1-.287,1.024-1.115.012-.386-.132-.476-.479-.471C791.278,1045.823,790.357,1045.813,789.436,1045.813Zm-16.528,11.058c.69,0,1.38-.009,2.07.005.237,0,.309-.068.3-.3-.015-.723-.005-1.445-.01-2.168a2.128,2.128,0,0,0-.208-.855c-.048-.107-.074-.259-.274-.18a8.914,8.914,0,0,1-3.6.324c-.508-.013-.631.222-.641.616-.018.772,0,1.544-.017,2.316-.005.251.129.249.308.248C771.528,1056.868,772.218,1056.871,772.908,1056.871Zm3.527,1.084a1.856,1.856,0,0,1-1.474.5c-.311-.018-.624,0-.936-.005-.194,0-.291.025-.277.269a19.925,19.925,0,0,0,.914,4.969c.083.261.166.309.4.167a4.316,4.316,0,0,1,1.472-.536c.285-.051.329-.174.327-.422-.01-1.215,0-2.43-.007-3.645A2.2,2.2,0,0,0,776.435,1057.955ZM762.117,1032.3a4.136,4.136,0,0,0-.428,4.977c.283.456.573.838,1.2.638a.805.805,0,0,1,.344,0c.385.055.869.288,1.127.135.295-.174.388-.689.569-1.055a.381.381,0,0,1,.056-.081c.136-.155.122-.263-.059-.393A7.165,7.165,0,0,1,762.117,1032.3Zm18.414.013a6.835,6.835,0,0,1-2.441,3.9c-.484.371-.574.64-.194,1.1a1.47,1.47,0,0,1,.24.537c.07.25.192.3.433.22a3.105,3.105,0,0,1,1.606-.117.333.333,0,0,0,.348-.109A4.1,4.1,0,0,0,780.531,1032.311Zm-13.918,18.248a4.032,4.032,0,0,0,2.3,1.475,9.552,9.552,0,0,0,2.212.088,12.17,12.17,0,0,0,2.606-.092,3.8,3.8,0,0,0,2.283-1.472Zm3.922,22.118c0,.378-.009.757,0,1.135.025.9.7.294,1.053.429.329.126.581.017.536-.453-.048-.505-.011-1.019-.011-1.529,0-1.2,0-1.189-1.221-1.168-.269,0-.381.063-.364.352C770.552,1071.853,770.535,1072.266,770.535,1072.677Zm14.228.014v-.4c0-1.279,0-1.271-1.283-1.206-.24.012-.307.084-.3.315.013.559,0,1.119,0,1.678,0,1.2,0,1.2,1.208,1.174a.62.62,0,0,1,.1,0c.222.03.282-.075.276-.284C784.754,1073.547,784.762,1073.119,784.763,1072.691Zm12.647,0v-.395c0-1.279,0-1.272-1.279-1.209-.235.011-.311.076-.305.311.014.559,0,1.119,0,1.678,0,1.2,0,1.2,1.2,1.178a.65.65,0,0,1,.1,0c.217.029.287-.067.28-.28C797.4,1073.551,797.41,1073.123,797.41,1072.695Zm-33.2-32.429c.084-.35-.107-.5-.407-.61a2.1,2.1,0,0,0-1.971.213c-.493.329-.5.474-.02.8a2.1,2.1,0,0,0,2.014.22C764.13,1040.772,764.308,1040.611,764.211,1040.266Zm15.337-.765c-.137.028-.394.075-.648.135-.35.083-.478.291-.487.67-.01.4.211.511.5.609a2.18,2.18,0,0,0,.821.131c.564-.03,1.454-.484,1.479-.754C781.237,1040,780.279,1039.506,779.547,1039.5Zm-7.432,37.154c0-.816,0-.816-.814-.816-.767,0-.767,0-.767.764,0,.816,0,.816.814.816C772.115,1077.419,772.115,1077.419,772.115,1076.655Zm11.9-.816c-.829,0-.829,0-.829.8,0,.78,0,.78.8.78.78,0,.78,0,.78-.8C784.763,1075.839,784.763,1075.839,784.012,1075.839Zm12.622,0c-.8,0-.8,0-.8.826,0,.754,0,.754.777.754.8,0,.8,0,.8-.826C797.41,1075.839,797.41,1075.839,796.633,1075.839Z" transform="translate(-759.221 -1030.002)" fill="#020201"/><path d="M851.026,1128.875a5.572,5.572,0,0,0-2.938-1.548c-.289-.05-.22-.235-.221-.4,0-1.136-.014-2.272,0-3.408a4.021,4.021,0,0,0-1.387-3.241.505.505,0,0,1-.2-.418,5.929,5.929,0,0,0-.468-3.178c-.078-.133.023-.207.11-.287a5.537,5.537,0,0,0,1.438-6.564h1.233q2.272,0,4.545,0c.675,0,1.037.271,1.047.776s-.367.8-1.068.8c-.445,0-.89-.008-1.334,0a2.369,2.369,0,0,0-.024,4.736c.494.015.988,0,1.482,0,.632.007.9.259.95.877a2.372,2.372,0,0,0,2.436,2.282c.51.005,1.021.01,1.531,0a2.367,2.367,0,0,0,2.351-2.366c.014-1.021,0-2.042.006-3.062a.8.8,0,0,1,.783-.891,2.376,2.376,0,0,0,2.377-2.544c0-.065.01-.13.018-.237a8.317,8.317,0,0,1,3.659,2.155,8.758,8.758,0,0,1,2.516,7.856c-.4,2.684-.774,5.371-1.155,8.058a.922.922,0,0,1-.243.572,5.375,5.375,0,0,0-1.624,4.193c.018.418-.1.516-.51.5-1.08-.03-1.08-.009-1.08-1.109,0-2.371-.013-4.742.006-7.112a6.928,6.928,0,0,0-.545-2.784c-.261-.62-.519-1.243-.745-1.876a4.28,4.28,0,0,1,.809-4.471c.2-.24.211-.371-.039-.534a1.231,1.231,0,0,1-.147-.132c-.812-.744-.827-.753-1.452.191a5.925,5.925,0,0,0-.622,5.6c.135.367.288.728.435,1.1a.881.881,0,0,1-.495.053c-2.174,0-4.347,0-6.521,0a4.743,4.743,0,0,0-4.912,4.919C851.025,1127.852,851.026,1128.307,851.026,1128.875Z" transform="translate(-828.646 -1094.026)" fill="#cbcfd6"/><path d="M768.415,1213.646c0-1.316,0-2.632,0-3.949a3.952,3.952,0,1,1,7.9.018c.006,2.7-.007,5.4.011,8.094,0,.39-.1.49-.49.487q-3.48-.027-6.96,0c-.356,0-.48-.07-.473-.455C768.43,1216.443,768.415,1215.044,768.415,1213.646Z" transform="translate(-766.586 -1170.87)" fill="#a97a4e"/><path d="M832.3,1213.646c0-1.316,0-2.632,0-3.949a3.952,3.952,0,1,1,7.9.018c.007,2.7-.007,5.4.011,8.094,0,.391-.1.49-.49.487q-3.48-.027-6.96,0c-.356,0-.48-.071-.473-.455C832.312,1216.443,832.3,1215.044,832.3,1213.646Z" transform="translate(-817.821 -1170.87)" fill="#a97a4e"/><path d="M896.189,1213.606c0-1.3,0-2.6,0-3.9a3.952,3.952,0,1,1,7.9,0c.007,2.715,0,5.429.009,8.144,0,.334-.071.449-.429.447q-3.529-.025-7.059,0c-.357,0-.435-.11-.43-.446C896.2,1216.436,896.189,1215.021,896.189,1213.606Z" transform="translate(-869.066 -1170.87)" fill="#a97a4e"/><path d="M960.067,1213.63c0-1.316-.005-2.632,0-3.948a3.951,3.951,0,1,1,7.9,0c.008,2.714,0,5.429.01,8.144,0,.357-.072.475-.455.472q-3.5-.029-7.01,0c-.383,0-.46-.115-.455-.472C960.079,1216.427,960.067,1215.028,960.067,1213.63Z" transform="translate(-920.297 -1170.87)" fill="#a97a4e"/><path d="M803.09,1069.492a5.165,5.165,0,0,0-2.861-1.218,25.067,25.067,0,0,0-4.878.054,5.114,5.114,0,0,0-2.514,1.183,9.394,9.394,0,0,1-.278-1.906c-.073-.835-.114-1.675-.118-2.514a3.138,3.138,0,0,1,3.137-3.193q2.4-.024,4.791,0a3.137,3.137,0,0,1,3.122,3.009,25.763,25.763,0,0,1-.325,4.425A.7.7,0,0,1,803.09,1069.492Zm-9.072-3.685a.79.79,0,1,0,.815-.751A.8.8,0,0,0,794.017,1065.807Zm7.9.057a.79.79,0,1,0-.8.771A.8.8,0,0,0,801.92,1065.865Z" transform="translate(-785.865 -1055.574)" fill="#cbcfd6"/><path d="M797.9,1106.324c-1.662,0-3.325-.016-4.987.011-.4.007-.5-.135-.523-.494a3.907,3.907,0,0,1,3.5-4.215,17.653,17.653,0,0,1,4.333.047,3.9,3.9,0,0,1,3.225,4.108c-.019.39-.1.567-.565.556C801.223,1106.3,799.56,1106.324,797.9,1106.324Zm-.772-2.376a.79.79,0,1,0-.773.794A.795.795,0,0,0,797.126,1103.948Zm2.371.794a.79.79,0,1,0-.788-.778A.8.8,0,0,0,799.5,1104.743Z" transform="translate(-785.814 -1087.358)" fill="#e4e7ea"/><path d="M880.111,1109.824c.921,0,1.843.01,2.764,0,.347-.005.491.084.479.471-.026.828-.186,1.031-1.024,1.115a2.375,2.375,0,0,0-2.144,2.316c-.017,1,0,2.007-.005,3.01,0,.71-.277.983-.984.989-.428,0-.856.007-1.283,0a.8.8,0,0,1-.894-.831,2.376,2.376,0,0,0-2.54-2.328c-.444,0-.889.008-1.332,0a.79.79,0,1,1-.016-1.575c.526-.012,1.053.009,1.579-.007a2.346,2.346,0,0,0,2.252-2.8c-.074-.371.068-.367.335-.364.938.008,1.875,0,2.813,0Z" transform="translate(-849.896 -1094.012)" fill="#848d98"/><path d="M818.72,1151.444c-.69,0-1.38,0-2.07,0-.178,0-.313,0-.308-.248.016-.772,0-1.544.017-2.316.009-.394.132-.629.641-.616a8.914,8.914,0,0,0,3.6-.324c.2-.079.227.073.274.18a2.128,2.128,0,0,1,.207.855c0,.723,0,1.446.01,2.168,0,.237-.068.309-.3.3C820.1,1151.434,819.41,1151.444,818.72,1151.444Z" transform="translate(-805.033 -1124.574)" fill="#f4d57e"/><path d="M835.278,1171.195a2.2,2.2,0,0,1,.421,1.3c0,1.215,0,2.43.007,3.645,0,.248-.042.371-.327.422a4.313,4.313,0,0,0-1.472.536c-.236.141-.319.094-.4-.167a19.92,19.92,0,0,1-.914-4.969c-.013-.245.084-.274.277-.269.312.007.625-.013.936.005A1.856,1.856,0,0,0,835.278,1171.195Z" transform="translate(-818.064 -1143.241)" fill="#838d98"/><path d="M769.547,1041.6a7.164,7.164,0,0,0,2.807,4.22c.18.13.195.238.058.393a.381.381,0,0,0-.056.081c-.182.366-.274.881-.569,1.055-.258.153-.741-.081-1.126-.135a.807.807,0,0,0-.344,0c-.625.2-.915-.182-1.2-.638A4.136,4.136,0,0,1,769.547,1041.6Z" transform="translate(-766.651 -1039.302)" fill="#949ca6"/><path d="M855.226,1041.665a4.1,4.1,0,0,1-.008,5.535.333.333,0,0,1-.348.109,3.105,3.105,0,0,0-1.606.117c-.241.081-.363.03-.433-.22a1.467,1.467,0,0,0-.24-.537c-.38-.46-.291-.73.194-1.1A6.835,6.835,0,0,0,855.226,1041.665Z" transform="translate(-833.916 -1039.356)" fill="#949ca6"/><path d="M796.555,1133.837h9.4a3.8,3.8,0,0,1-2.283,1.472,12.162,12.162,0,0,1-2.606.091,9.551,9.551,0,0,1-2.212-.088A4.032,4.032,0,0,1,796.555,1133.837Z" transform="translate(-789.164 -1113.28)" fill="#e3e6e9"/><path d="M816.337,1239.109c0-.411.017-.824-.006-1.234-.016-.29.1-.348.364-.352,1.222-.021,1.222-.029,1.222,1.168,0,.51-.037,1.024.011,1.529.045.47-.207.579-.536.453-.352-.135-1.028.471-1.053-.429C816.329,1239.866,816.337,1239.487,816.337,1239.109Z" transform="translate(-805.024 -1196.433)" fill="#caa073"/><path d="M881.811,1239.05c0,.428-.009.856,0,1.283.006.208-.055.314-.276.284a.62.62,0,0,0-.1,0c-1.208.028-1.208.028-1.208-1.174,0-.559.009-1.119,0-1.678-.006-.23.061-.3.3-.315,1.283-.065,1.283-.073,1.283,1.206Z" transform="translate(-856.27 -1196.361)" fill="#caa073"/><path d="M945.692,1239.06c0,.428-.009.856,0,1.284.006.213-.064.309-.28.28a.636.636,0,0,0-.1,0c-1.2.027-1.2.027-1.2-1.178,0-.56.01-1.119,0-1.678-.006-.235.07-.3.305-.311,1.28-.063,1.279-.07,1.279,1.209Z" transform="translate(-907.503 -1196.367)" fill="#caa073"/><path d="M773.273,1078.769c.1.344-.08.506-.384.62a2.1,2.1,0,0,1-2.014-.221c-.478-.323-.473-.467.02-.8a2.1,2.1,0,0,1,1.971-.213C773.166,1078.265,773.357,1078.419,773.273,1078.769Z" transform="translate(-768.284 -1068.505)" fill="#a6adb6"/><path d="M857.287,1077.983c.732,0,1.69.5,1.663.792-.025.269-.914.724-1.479.754a2.18,2.18,0,0,1-.821-.131c-.289-.1-.509-.211-.5-.609.01-.379.137-.586.487-.67C856.893,1078.058,857.15,1078.011,857.287,1077.983Z" transform="translate(-836.961 -1068.484)" fill="#a6adb6"/><path d="M800.4,1078.649a.79.79,0,1,1,.738.827A.794.794,0,0,1,800.4,1078.649Z" transform="translate(-792.244 -1068.415)" fill="#090a0a"/><path d="M833.916,1078.706a.79.79,0,1,1-.758-.808A.8.8,0,0,1,833.916,1078.706Z" transform="translate(-817.861 -1068.414)" fill="#090a0a"/><path d="M809.961,1110.62a.79.79,0,1,1-.782-.785A.8.8,0,0,1,809.961,1110.62Z" transform="translate(-798.648 -1094.029)" fill="#0b0b0b"/><path d="M825.143,1111.412a.79.79,0,1,1,.79-.777A.8.8,0,0,1,825.143,1111.412Z" transform="translate(-811.459 -1094.028)" fill="#0b0b0b"/></g></g></g></svg>