<svg xmlns="http://www.w3.org/2000/svg" width="113" height="113" viewBox="0 0 113 113"><g transform="translate(-1059 -3486)"><circle cx="56.5" cy="56.5" r="56.5" transform="translate(1059 3486)" fill="#ffa686"/><g transform="translate(-336.712 3718.013)"><path d="M1465.948-197.518c2.737-1.281,5.157-.98,7.261,1.144.251.254.364.211.591-.016a5.683,5.683,0,0,1,6.931-1.238.936.936,0,0,0,.882-.084,5.96,5.96,0,0,1,5.043.008.887.887,0,0,0,.881.066c4.285-2.241,9.415,1.508,8.676,6.945a12.146,12.146,0,0,1-1.8,4.935c-1.369,2.159-2.7,4.343-4.073,6.5-.267.417-.309.625.133.974a6.879,6.879,0,0,1,2.437,3.744,1.036,1.036,0,0,0,.818.857,7.5,7.5,0,0,1,5.58,7.454q.018,4.364,0,8.728a7.579,7.579,0,0,1-7.782,7.793q-10.816.023-21.633-.016c-.792,0-1.053.182-.964.974a15.462,15.462,0,0,1,.012,1.99,2.932,2.932,0,0,1-2.362,3.019c-.657.133-.68.422-.678.93.012,3.478-.021,6.957.027,10.435.011.773-.23.909-.939.9-4.554-.032-9.109-.008-13.663-.026a1.154,1.154,0,0,0-1.235.693,4.247,4.247,0,0,1-3.943,2.346c-10.153.014-20.305.03-30.458-.008a7.533,7.533,0,0,1-7.474-7.516c-.03-2.276-.015-4.553,0-6.83,0-.508-.022-.8-.68-.928a2.612,2.612,0,0,1-2.293-2.453c-.094-2.8-.36-5.632.257-8.409a13.621,13.621,0,0,1,11.131-10.659c4.13-.75,8.249-1.563,12.384-2.283,1.152-.2.835-1.152,1.145-1.787.284-.584-.118-.828-.528-1.117a20.4,20.4,0,0,1-6.988-8.2,2.062,2.062,0,0,0-2.283-1.456,5.89,5.89,0,0,1-5.784-4.2,5.063,5.063,0,0,1-.142-2.985.853.853,0,0,0-.371-1.043c-.834-.625-1.663-1.263-2.44-1.957a9.314,9.314,0,0,1-3.16-9.478,9.327,9.327,0,0,1,6.875-7.24,1.031,1.031,0,0,0,.858-.93q.809-4.279,1.7-8.542a7.552,7.552,0,0,1,7.447-6.086q11.718-.031,23.437,0a7.541,7.541,0,0,1,7.441,6.092c.593,2.842,1.152,5.691,1.708,8.541.084.429.183.719.677.877C1463.258-205.571,1465.558-202.587,1465.948-197.518Zm-28.972-9.875q8.584,0,17.168,0c.366,0,.863.185.7-.572-.572-2.685-1.068-5.386-1.658-8.067a4.342,4.342,0,0,0-4.108-3.475c-6.354-.051-12.71-.017-19.065-.036-.61,0-.574.274-.472.7a3.1,3.1,0,0,0,3.161,2.342q6.4.013,12.8,0c2.2,0,2.157,0,2.2,2.209.016.784-.288.844-.928.84-4.585-.023-9.169-.011-13.754-.013-3.7,0-5.954-1.9-6.573-5.584-.058-.343-.131-.464-.5-.5a4.6,4.6,0,0,0-5.054,3.63c-.551,2.528-.989,5.08-1.555,7.6-.173.774-.039.94.745.936C1425.721-207.407,1431.349-207.393,1436.977-207.393Zm-10.443,29.414a6.619,6.619,0,0,1,3.407-4.407,6.225,6.225,0,0,1,6.076.12,1.82,1.82,0,0,0,2.071.007,5.812,5.812,0,0,1,2.878-.835c3.1-.124,5.37,1.6,6.636,5.091a18.972,18.972,0,0,0,3.128-11.053c-.008-.47-.324-.448-.627-.525a25.444,25.444,0,0,1-12.566-7.352c-.361-.386-.548-.439-.939-.022a25.164,25.164,0,0,1-12.652,7.372c-.508.124-.559.364-.559.785a21.757,21.757,0,0,0,.19,3.023A18.5,18.5,0,0,0,1426.534-177.979Zm4.278,46.487q7.447,0,14.9,0c1.475,0,1.973-.51,1.978-2,0-.822.021-1.645-.006-2.466a1.505,1.505,0,0,0-1.614-1.595c-.885-.025-1.771-.006-2.657-.006-1.76,0-1.76,0-1.8-1.724-.025-1.2-.627-1.57-1.727-1.028-1.612.794-3.225,1.587-4.82,2.416a2.979,2.979,0,0,1-1.442.343q-8.539-.015-17.077-.006c-2.3,0-2.271,0-2.285-2.3,0-.67.239-.751.811-.75,2.333.006,2.316-.011,2.26-2.4-.012-.5-.136-.643-.637-.633-1.58.032-3.163.043-4.743,0-.609-.019-.729.177-.72.744.033,2.149.011,4.3.014,6.45a4.583,4.583,0,0,0,4.955,4.965Q1423.507-131.487,1430.813-131.492Zm36.194-27.323a14.4,14.4,0,0,1,1.851,5.623c.053.541.416.448.751.448,7.37,0,14.74.015,22.11-.008a4.507,4.507,0,0,0,4.547-4.511q.05-4.6,0-9.2a4.351,4.351,0,0,0-2.084-3.727c-.251-.166-.535-.481-.834-.312-.251.142-.1.52-.1.79-.009,3.352-.021,6.7.008,10.056.005.628-.106.865-.808.862q-8.3-.047-16.606,0c-.662,0-.846-.162-.837-.833.037-3.067.016-6.135.016-9.2,0-2.141,0-2.107-2.169-2.144-.712-.012-.893.175-.885.885.04,3.383-.014,6.768.04,10.15.014.874-.139,1.227-1.1,1.151C1469.652-158.889,1468.392-158.815,1467.007-158.815Zm-52.719-33.31c0-.4,0-.674,0-.949a8.016,8.016,0,0,1,8.007-8.234q14.8-.048,29.6,0a7.992,7.992,0,0,1,7.8,6.61c.157.822.055,1.66.176,2.6a6.644,6.644,0,0,0,2.974-5.165,6.645,6.645,0,0,0-6.757-7.085q-15.134-.026-30.268-.006c-2.72,0-5.441-.036-8.16.017a6.65,6.65,0,0,0-6.152,4.807A6.621,6.621,0,0,0,1414.288-192.125Zm39.473,36.17h-.006c0-1.392.06-2.786-.011-4.174a11.682,11.682,0,0,0-6.775-10.409,1.61,1.61,0,0,0-1.607,0,11.6,11.6,0,0,0-6.759,10.412c-.112,2.715-.024,5.439-.025,8.158,0,1.846.447,2.249,2.3,2.276.664.01.765-.227.753-.806-.034-1.707-.022-3.415-.009-5.123a3.042,3.042,0,0,1,3.226-3.2c.854-.008,1.708-.005,2.562,0a3.052,3.052,0,0,1,3.318,3.3c.009,1.708,0,3.416.009,5.123,0,.227-.134.513.171.672a2.025,2.025,0,0,0,2.853-1.68C1453.779-152.919,1453.76-154.438,1453.76-155.956Zm31.052-30.693c.119-.349.192-.585.278-.816.252-.676.17-1.72.713-1.965.513-.232,1.351.309,2.058.439s.713.463.533,1.06c-.7,2.326-1.349,4.667-1.994,7.008-.076.278-.456.653.022.884a.765.765,0,0,0,1.092-.385c1.511-2.482,3.072-4.933,4.592-7.409a7.562,7.562,0,0,0,1.125-3.961,3.281,3.281,0,0,0-1.953-3.206,2.739,2.739,0,0,0-3.35.8c-.63.68-1.008.479-1.578-.052a2.89,2.89,0,0,0-4.445.014c-.666.645-1.05.594-1.655-.031a2.72,2.72,0,0,0-3.283-.728,3.253,3.253,0,0,0-1.943,3.021,6.314,6.314,0,0,0,.782,3.475c1.639,2.772,3.361,5.494,5.062,8.229.207.332,2.016.373,2.111.03.24-.87.858-1.684.31-2.7-.9-1.665-1.712-3.378-2.559-5.071-1.026-2.05-1.016-2.033,1.056-3.055.517-.255.752-.2,1,.33C1483.412-189.393,1484.1-188.08,1484.813-186.649ZM1420.357-146.9c0,1.888.03,3.718-.016,5.545-.017.647.2.771.8.766,3.129-.027,6.262-.114,9.385.022a10.454,10.454,0,0,0,6.029-1.445,14.123,14.123,0,0,1,3.426-1.584c.54-.149,1.3.349,1.58-.267.226-.5-.013-1.189.069-1.778.127-.915-.269-1.09-1.089-1.047a4.409,4.409,0,0,1-4.479-2.548.814.814,0,0,0-.893-.477c-2.307.009-4.616.047-6.921-.013a2.8,2.8,0,0,0-2.925,1.321C1424.24-146.7,1422.383-146.368,1420.357-146.9Zm69.478-27.1a4.391,4.391,0,0,0-4.076-3.028c-1.012-.027-2.024-.016-3.036,0a4.54,4.54,0,0,0-4.665,4.683c-.016,3.225.016,6.451-.02,9.676-.008.665.165.843.833.835,3-.038,6.009-.016,9.014-.016,2.386,0,2.368,0,2.329-2.356-.009-.531-.138-.7-.685-.692-2.055.031-4.111.012-6.167.012-2.318,0-2.3,0-2.286-2.3,0-.565.12-.76.727-.748,2.023.041,4.048.015,6.072.015,2.451,0,2.431,0,2.342-2.44-.02-.539-.224-.613-.676-.6-1.043.025-2.087.008-3.131.008-2.37,0-2.347,0-2.3-2.389.011-.572.216-.666.717-.658C1486.469-173.98,1488.111-174,1489.836-174ZM1456.8-154.451c0,2.37.016,4.741-.012,7.111-.006.54.152.686.685.68q3.888-.039,7.776,0c.551.006.683-.17.672-.693-.033-1.548.01-3.1-.021-4.645a10.673,10.673,0,0,0-8.373-10.174c-.6-.132-.751-.009-.742.61C1456.818-159.192,1456.8-156.821,1456.8-154.451Zm-39.478.009c0-2.37-.018-4.741.013-7.111.008-.6-.11-.779-.731-.618a10.483,10.483,0,0,0-8.049,7.828c-.645,2.388-.239,4.843-.343,7.266-.023.543.372.4.653.4,2.592.007,5.185-.021,7.776.022.647.011.7-.249.692-.771C1417.307-149.764,1417.32-152.1,1417.319-154.442ZM1457.171-174h6.524c2.247,0,2.223,0,2.228,2.266,0,.616-.159.8-.783.786-2.5-.036-4.995.017-7.49-.035-.735-.015-.9.208-.868.9.056,1.325.039,2.655.005,3.981-.014.541.132.763.705.855a11.412,11.412,0,0,1,5.54,2.286,4.982,4.982,0,0,0,3.625,1.132c2.368-.09,2.349-.024,2.3-2.4-.011-.562-.2-.682-.71-.665-1.011.034-2.023.01-3.034.01-2.448,0-2.43,0-2.359-2.418.015-.507.162-.637.65-.629,1.612.027,3.224,0,4.836.017.425,0,.623-.08.612-.565-.031-1.422.032-2.846-.028-4.266a4.526,4.526,0,0,0-4.385-4.275c-1.105-.034-2.213-.03-3.319,0A4.353,4.353,0,0,0,1457.171-174Zm6.41-12.678c.109-.354.2-.622.274-.89.6-2.035.59-2.009,2.665-1.448.658.178.836.39.622,1.089-.74,2.411-1.405,4.845-2.09,7.272-.06.213-.285.519.114.617.28.069.617.261.872-.082.094-.126.173-.263.256-.4q2.208-3.534,4.416-7.068a8.5,8.5,0,0,0,1.229-3.45,3.59,3.59,0,0,0-1.741-3.883c-1.488-.765-2.671-.158-3.75.883-.17.164-.41.523-.6.353-.852-.754-.816.178-1.064.527a16.193,16.193,0,0,0-1.09,1.658c-.408.758-1.671.987-1.523,1.951a8.89,8.89,0,0,0,1.125,2.379C1463.363-187.024,1463.451-186.895,1463.581-186.674Zm-22.784-11.6-.088.227c3.6,3.2,7.653,5.461,12.588,5.816a6.727,6.727,0,0,1,2.409.388c.731.34.9.031,1.03-.614a4.947,4.947,0,0,0-4.5-5.781C1448.429-198.379,1444.611-198.27,1440.8-198.27Zm-7.288-.008c-3.956,0-7.712-.069-11.465.022a4.933,4.933,0,0,0-4.593,6c.063.239.029.74.43.561,1.38-.614,2.865-.359,4.277-.617a21.773,21.773,0,0,0,8.958-3.868A11.959,11.959,0,0,0,1433.509-198.278Zm39.991,11.97c-1.563,2.5-3.041,4.877-4.544,7.24-.257.4-.028.53.232.736a4.632,4.632,0,0,1,1.906,2.42c.4,2.041,1.729,2.082,3.29,1.917a.672.672,0,0,1,.189,0c.47.09.645-.144.76-.576a7.069,7.069,0,0,1,2.455-3.734c.374-.3.427-.487.167-.9C1476.483-181.514,1475.039-183.846,1473.5-186.308Zm-16.7,47.132c0,1.358.018,2.716-.01,4.073-.009.453.125.593.582.586q2.462-.038,4.926,0c.456.007.586-.131.583-.584q-.029-3.978,0-7.957c0-.452-.125-.593-.582-.586q-2.463.038-4.927,0c-.456-.007-.593.13-.583.585C1456.816-141.766,1456.8-140.471,1456.8-139.177Zm-3.037-7.708a6.906,6.906,0,0,1-2.217.2c-.665-.078-.844.149-.835.821.039,3,.017,6,.017,9.007,0,2.439,0,2.418,2.435,2.34.529-.017.619-.2.61-.665-.026-1.327-.009-2.655-.009-3.982Zm-9.159-30.175c-.533-2.539-2.677-3.649-4.9-2.625-.716.33-1.425.681-2.115,1.062a.981.981,0,0,1-1.051,0,24.884,24.884,0,0,0-2.375-1.175,3.283,3.283,0,0,0-4.586,2.739Zm3.831,3.064c1.713,0,3.231-.035,4.745.017.6.021.8-.2.945-.73a6.219,6.219,0,0,1,2.1-3.3c.708-.56.788-1.018.183-1.623-.27-.27-.212-.96-.9-.718a7.768,7.768,0,0,1-2.813.279c-.337-.008-.567.035-.726.416A21.792,21.792,0,0,1,1448.433-174Zm-4.6.1c-.893-.138-12.623-.14-13.55,0A9.37,9.37,0,0,0,1443.834-173.895ZM1426.6-158.11l-.173.036c0,1.6.013,3.2-.009,4.8-.005.415.123.538.536.535,2.682-.016,5.365-.01,8.047-.006.3,0,.547.009.541-.428-.021-1.435-.008-2.87-.008-4.409-.233.105-.344.143-.443.2-1.893,1.13-3.8,2.247-5.671,3.407-.469.29-.668.228-.9-.258C1427.911-155.533,1427.248-156.817,1426.6-158.11Zm8.019-2.527c-1.321-1.315-2.6-2.582-3.87-3.855a.619.619,0,0,0-.59-.212c-1.031.2-2.064.4-3.16.606.978,1.949,1.9,3.779,2.811,5.618.179.363.306.562.757.278C1431.877-159.022,1433.214-159.795,1434.623-160.637Zm-11.231,5.118c0-2.539,0-4.991,0-7.442,0-.169.051-.446-.233-.4-.87.133-1.735.3-2.6.475-.229.047-.2.29-.2.476,0,2.265,0,4.53,0,6.881A4.777,4.777,0,0,1,1423.392-155.519Zm24.294,12.117v-1.042c0-2.4,0-2.382-2.455-2.239-.454.027-.593.165-.588.608.02,1.61.023,3.22,0,4.829-.007.482.122.676.635.657a5.783,5.783,0,0,1,1.975.128c.457.143.433-.19.433-.479Q1447.687-142.171,1447.686-143.4Zm0-9.341v-.756c0-2.389,0-2.375-2.392-2.291-.48.017-.669.129-.653.638.034,1.07.01,2.142.01,3.213,0,2.385,0,2.372,2.44,2.242.435-.023.619-.128.6-.589C1447.665-151.1,1447.685-151.925,1447.686-152.744Zm9.108-33.408a3.114,3.114,0,0,0-2.343-2.954c-.534-.136-.718-.029-.7.556a18.685,18.685,0,0,1-.512,4.865c-.11.46,0,.591.486.593A3.094,3.094,0,0,0,1456.794-186.152Zm-39.472.017a3.079,3.079,0,0,0,3.089,3.037c.38-.007.6-.042.483-.511a19.273,19.273,0,0,1-.528-5.054c.015-.542-.226-.543-.626-.46A3.09,3.09,0,0,0,1417.323-186.135Zm42.644-.88a6.927,6.927,0,0,1-1.1,4.055,1.109,1.109,0,0,0,.019,1.57,10.734,10.734,0,0,1,.714,1.116c.1.164.221.393.414.326.564-.2,1.388.185,1.679-.3a2.628,2.628,0,0,0,.514-2.231C1461.555-184.034,1460.724-185.509,1459.967-187.015Zm-22.05,19.067a13.53,13.53,0,0,1-3.955-.393c-.3-.067-.7-.443-.882.008-.2.493-.63,1.125-.228,1.588.964,1.1,2.05,2.1,3.163,3.22A17.563,17.563,0,0,1,1437.917-167.948Zm-16.033,15.218a1.523,1.523,0,0,0-1.513,1.493,1.525,1.525,0,0,0,1.493,1.514,1.526,1.526,0,0,0,1.513-1.494A1.524,1.524,0,0,0,1421.885-152.73ZM1453.672-169c.256-2.079-.009-2.348-1.667-1.79Z" transform="translate(0 0)" fill="#010101"/><path d="M1460.086-202.483c-5.628,0-11.256-.014-16.883.016-.784,0-.919-.162-.745-.936.566-2.525,1-5.077,1.555-7.6a4.6,4.6,0,0,1,5.054-3.63c.367.034.441.155.5.5.619,3.681,2.869,5.583,6.573,5.585,4.584,0,9.169-.011,13.754.013.64,0,.943-.057.928-.84-.044-2.208,0-2.209-2.2-2.209q-6.4,0-12.8,0a3.1,3.1,0,0,1-3.161-2.342c-.1-.426-.137-.7.472-.7,6.355.019,12.71-.015,19.065.036a4.342,4.342,0,0,1,4.108,3.475c.591,2.68,1.087,5.382,1.658,8.067.161.757-.336.572-.7.572Q1468.671-202.479,1460.086-202.483Z" transform="translate(-23.109 -4.909)" fill="#c79e7b"/><path d="M1456.336-136.679a18.5,18.5,0,0,1-2.957-7.8,21.757,21.757,0,0,1-.191-3.023c0-.421.051-.661.559-.785a25.163,25.163,0,0,0,12.652-7.372c.391-.417.578-.363.939.022a25.442,25.442,0,0,0,12.565,7.352c.3.077.619.055.627.525A18.972,18.972,0,0,1,1477.4-136.7c-1.266-3.495-3.531-5.214-6.636-5.091a5.813,5.813,0,0,0-2.878.835,1.82,1.82,0,0,1-2.071-.007,6.225,6.225,0,0,0-6.076-.12A6.62,6.62,0,0,0,1456.336-136.679Zm18.109-9.659a1.526,1.526,0,0,0-1.468-1.533,1.524,1.524,0,0,0-1.556,1.443,1.527,1.527,0,0,0,1.514,1.581A1.53,1.53,0,0,0,1474.445-146.338Zm-13.677-1.533a1.52,1.52,0,0,0-1.494,1.506,1.525,1.525,0,0,0,1.482,1.519,1.528,1.528,0,0,0,1.542-1.554A1.525,1.525,0,0,0,1460.768-147.871Z" transform="translate(-29.801 -41.3)" fill="#e8cfb5"/><path d="M1440.8-2.826q-7.3,0-14.611,0a4.583,4.583,0,0,1-4.954-4.965c0-2.15.019-4.3-.014-6.45-.009-.567.112-.762.72-.744,1.58.048,3.162.036,4.743,0,.5-.01.625.135.637.633.056,2.39.073,2.407-2.26,2.4-.572,0-.814.081-.811.75.013,2.3-.018,2.3,2.285,2.3q8.538,0,17.077.006a2.982,2.982,0,0,0,1.442-.343c1.594-.829,3.208-1.622,4.819-2.416,1.1-.542,1.7-.176,1.727,1.028.036,1.724.036,1.724,1.8,1.724.885,0,1.772-.019,2.656.006A1.5,1.5,0,0,1,1457.67-7.3c.028.821.01,1.644.007,2.466-.005,1.493-.5,2-1.978,2Q1448.25-2.822,1440.8-2.826Z" transform="translate(-9.99 -128.666)" fill="#ead0b6"/><path d="M1567.915-74.7c1.385,0,2.645-.074,3.892.024.965.076,1.118-.276,1.1-1.151-.054-3.383,0-6.767-.04-10.15-.008-.711.173-.9.885-.886,2.169.036,2.169,0,2.169,2.144,0,3.068.021,6.135-.016,9.2-.008.67.175.836.838.833q8.3-.042,16.606,0c.7,0,.813-.234.808-.862-.03-3.352-.017-6.7-.008-10.056,0-.27-.15-.648.1-.79.3-.169.583.146.834.312a4.351,4.351,0,0,1,2.084,3.727q.052,4.6,0,9.2a4.508,4.508,0,0,1-4.547,4.511c-7.37.023-14.74.009-22.11.008-.335,0-.7.094-.751-.448A14.4,14.4,0,0,0,1567.915-74.7Z" transform="translate(-100.908 -84.12)" fill="#c79e7b"/><path d="M1424.3-162.434a6.621,6.621,0,0,1-2.777-7.407,6.65,6.65,0,0,1,6.153-4.807c2.719-.053,5.44-.017,8.16-.017q15.134,0,30.268.006a6.645,6.645,0,0,1,6.757,7.085,6.644,6.644,0,0,1-2.974,5.165c-.121-.937-.019-1.774-.177-2.6a7.991,7.991,0,0,0-7.8-6.61q-14.8-.048-29.6,0a8.016,8.016,0,0,0-8.007,8.234C1424.3-163.109,1424.3-162.834,1424.3-162.434Z" transform="translate(-10.012 -29.691)" fill="#c99f72"/><path d="M1508.273-71.465c0,1.518.019,3.036-.005,4.554a2.025,2.025,0,0,1-2.853,1.68c-.3-.159-.17-.445-.171-.672-.012-1.708,0-3.415-.009-5.123a3.052,3.052,0,0,0-3.318-3.3c-.854,0-1.708-.008-2.562,0a3.042,3.042,0,0,0-3.226,3.2c-.013,1.708-.024,3.416.009,5.123.011.579-.089.816-.753.806-1.848-.027-2.3-.429-2.295-2.276,0-2.72-.087-5.443.025-8.159a11.6,11.6,0,0,1,6.759-10.412,1.61,1.61,0,0,1,1.607,0,11.682,11.682,0,0,1,6.775,10.409c.071,1.388.011,2.782.011,4.174Z" transform="translate(-54.513 -84.491)" fill="#cbcfd6"/><path d="M1598.782-142.153c-.715-1.431-1.4-2.744-2.027-4.084-.248-.53-.483-.585-1-.33-2.073,1.022-2.082,1-1.056,3.055.847,1.693,1.658,3.407,2.559,5.071.548,1.012-.07,1.826-.31,2.7-.094.343-1.9.3-2.11-.03-1.7-2.735-3.423-5.458-5.062-8.229a6.314,6.314,0,0,1-.782-3.475,3.252,3.252,0,0,1,1.943-3.021,2.72,2.72,0,0,1,3.283.728c.6.625.989.676,1.655.031a2.89,2.89,0,0,1,4.445-.014c.57.531.948.732,1.578.052a2.739,2.739,0,0,1,3.35-.8,3.281,3.281,0,0,1,1.953,3.206,7.562,7.562,0,0,1-1.125,3.961c-1.52,2.476-3.081,4.927-4.592,7.409a.765.765,0,0,1-1.092.385c-.479-.23-.1-.605-.022-.884.645-2.342,1.3-4.682,1.994-7.008.179-.6.17-.931-.533-1.06s-1.545-.671-2.058-.44c-.543.245-.461,1.29-.713,1.965C1598.974-142.738,1598.9-142.5,1598.782-142.153Z" transform="translate(-113.969 -44.496)" fill="#b9d888"/><path d="M1445.193-28.139c2.026.53,3.882.194,4.963-1.5a2.8,2.8,0,0,1,2.925-1.321c2.306.06,4.614.022,6.921.013a.814.814,0,0,1,.893.477,4.409,4.409,0,0,0,4.48,2.548c.82-.043,1.216.132,1.089,1.047-.082.589.157,1.279-.069,1.778-.28.616-1.04.117-1.58.267a14.126,14.126,0,0,0-3.426,1.584,10.453,10.453,0,0,1-6.029,1.445c-3.123-.135-6.257-.049-9.385-.022-.595.005-.815-.118-.8-.766C1445.223-24.421,1445.193-26.251,1445.193-28.139Z" transform="translate(-24.835 -118.76)" fill="#bbda89"/><path d="M1608.727-99.759c-1.724,0-3.366.016-5.007-.01-.5-.008-.706.086-.717.658-.049,2.389-.071,2.389,2.3,2.389,1.044,0,2.088.017,3.131-.008.453-.011.656.064.676.6.089,2.441.11,2.44-2.342,2.44-2.024,0-4.049.025-6.072-.015-.607-.012-.724.183-.727.748-.011,2.3-.031,2.3,2.286,2.3,2.056,0,4.112.019,6.167-.012.547-.008.676.161.685.692.039,2.356.057,2.356-2.329,2.356-3,0-6.009-.021-9.014.016-.668.008-.841-.17-.833-.835.036-3.225,0-6.451.02-9.676a4.541,4.541,0,0,1,4.665-4.683c1.012-.011,2.025-.022,3.036,0A4.391,4.391,0,0,1,1608.727-99.759Z" transform="translate(-118.891 -74.237)" fill="#ee8773"/><path d="M1541.04-56.052c0-2.371.021-4.741-.014-7.111-.009-.619.141-.742.742-.61A10.674,10.674,0,0,1,1550.14-53.6c.031,1.548-.013,3.1.021,4.645.011.523-.121.7-.672.693q-3.888-.043-7.776,0c-.532.006-.691-.14-.685-.68C1541.056-51.311,1541.04-53.682,1541.04-56.052Z" transform="translate(-84.242 -98.399)" fill="#f4d67e"/><path d="M1422.329-56.053c0,2.339-.013,4.677.009,7.016.005.522-.044.782-.691.771-2.591-.042-5.184-.014-7.776-.022-.281,0-.676.143-.653-.4.1-2.423-.3-4.878.343-7.266a10.483,10.483,0,0,1,8.048-7.828c.621-.161.739.022.731.618C1422.31-60.794,1422.328-58.424,1422.329-56.053Z" transform="translate(-5.009 -98.388)" fill="#f4d67e"/><path d="M1541.406-99.768a4.353,4.353,0,0,1,4.05-3.027c1.106-.03,2.214-.033,3.319,0a4.526,4.526,0,0,1,4.385,4.275c.061,1.42,0,2.844.029,4.266.011.485-.187.57-.612.565-1.612-.019-3.224.01-4.836-.017-.487-.008-.635.122-.649.629-.071,2.419-.088,2.418,2.359,2.418,1.011,0,2.023.024,3.034-.01.51-.017.7.1.71.665.047,2.38.065,2.315-2.3,2.4a4.982,4.982,0,0,1-3.625-1.132,11.412,11.412,0,0,0-5.541-2.286c-.572-.092-.718-.314-.7-.855.034-1.326.05-2.656-.006-3.981-.029-.689.133-.913.869-.9,2.5.052,4.994,0,7.49.035.625.009.785-.171.783-.786,0-2.266.019-2.266-2.228-2.266Z" transform="translate(-84.234 -74.228)" fill="#ee8773"/><path d="M1556.584-142.134c-.13-.22-.217-.349-.287-.488a8.89,8.89,0,0,1-1.125-2.379c-.147-.964,1.115-1.193,1.524-1.951a16.233,16.233,0,0,1,1.09-1.658c.248-.349.212-1.281,1.064-.527.191.17.431-.189.6-.353,1.078-1.041,2.262-1.648,3.749-.883a3.589,3.589,0,0,1,1.741,3.883,8.5,8.5,0,0,1-1.229,3.45q-2.217,3.528-4.416,7.068c-.083.134-.162.271-.256.4-.255.343-.592.151-.872.082-.4-.1-.174-.4-.114-.617.685-2.428,1.35-4.862,2.09-7.272.214-.7.036-.911-.622-1.089-2.074-.561-2.067-.587-2.664,1.448C1556.779-142.755,1556.693-142.488,1556.584-142.134Z" transform="translate(-93.003 -44.541)" fill="#b9d888"/><path d="M1498.839-158.7c3.813,0,7.631-.109,11.44.035a4.947,4.947,0,0,1,4.5,5.781c-.126.646-.3.955-1.03.614a6.727,6.727,0,0,0-2.409-.388c-4.935-.355-8.987-2.615-12.588-5.816Z" transform="translate(-58.041 -39.567)" fill="#656c76"/><path d="M1453.4-158.7a11.959,11.959,0,0,1-2.392,2.1,21.773,21.773,0,0,1-8.958,3.868c-1.412.257-2.9,0-4.277.617-.4.178-.367-.322-.43-.561a4.933,4.933,0,0,1,4.593-6C1445.691-158.77,1449.447-158.7,1453.4-158.7Z" transform="translate(-19.893 -39.577)" fill="#656c76"/><path d="M1541.047-10.5c0-1.295.018-2.59-.01-3.883-.01-.454.127-.592.583-.585q2.463.038,4.927,0c.457-.007.585.133.582.586q-.029,3.978,0,7.957c0,.453-.127.591-.583.584q-2.463-.038-4.926,0c-.458.007-.591-.133-.582-.586C1541.065-7.783,1541.047-9.142,1541.047-10.5Z" transform="translate(-84.249 -128.677)" fill="#ead0b6"/><path d="M1528.1-23.487v7.725c0,1.327-.017,2.655.009,3.982.009.463-.081.648-.61.665-2.436.079-2.435.1-2.435-2.34,0-3,.022-6.005-.017-9.007-.009-.671.17-.9.835-.821A6.906,6.906,0,0,0,1528.1-23.487Z" transform="translate(-74.338 -123.397)" fill="#bbda89"/><path d="M1484.483-107.751h-15.032a3.283,3.283,0,0,1,4.586-2.739,24.861,24.861,0,0,1,2.375,1.175.981.981,0,0,0,1.051,0c.69-.381,1.4-.733,2.115-1.062C1481.806-111.4,1483.95-110.29,1484.483-107.751Z" transform="translate(-39.881 -69.309)" fill="#959da6"/><path d="M1484.88-94.7a9.37,9.37,0,0,1-13.55,0C1472.256-94.84,1483.987-94.838,1484.88-94.7Z" transform="translate(-41.046 -79.195)" fill="#e8cfb5"/><path d="M1461.354-53.012c.644,1.293,1.307,2.577,1.924,3.883.23.486.429.548.9.258,1.875-1.16,3.777-2.277,5.671-3.407.1-.059.21-.1.443-.2,0,1.539-.013,2.975.008,4.409.006.437-.236.428-.541.428-2.683,0-5.365-.01-8.047.006-.413,0-.541-.12-.536-.535.021-1.6.009-3.2.009-4.8Z" transform="translate(-34.75 -105.098)" fill="#f4d67e"/><path d="M1470.319-66.307c-1.408.842-2.746,1.614-4.052,2.436-.451.284-.578.085-.757-.278-.908-1.839-1.833-3.669-2.811-5.618,1.1-.21,2.129-.407,3.16-.606a.619.619,0,0,1,.59.212C1467.722-68.889,1469-67.621,1470.319-66.307Z" transform="translate(-35.696 -94.33)" fill="#f3c54e"/><path d="M1448.256-58.994a4.776,4.776,0,0,0-3.034-.013c0-2.351,0-4.616,0-6.881,0-.187-.027-.429.2-.476.861-.178,1.727-.341,2.6-.474.283-.043.232.234.233.4C1448.258-63.985,1448.256-61.533,1448.256-58.994Z" transform="translate(-24.864 -96.525)" fill="#bbda89"/><path d="M1512.137-19.761q0,1.231,0,2.462c0,.289.024.622-.433.479a5.783,5.783,0,0,0-1.975-.128c-.512.019-.642-.174-.635-.657.024-1.609.021-3.22,0-4.829-.005-.443.133-.581.588-.608,2.456-.143,2.455-.157,2.455,2.239Q1512.137-20.283,1512.137-19.761Z" transform="translate(-64.451 -123.641)" fill="#a97a4e"/><path d="M1512.134-43.906c0,.819-.021,1.639.008,2.457.016.462-.167.566-.6.589-2.441.13-2.44.142-2.44-2.242,0-1.071.024-2.143-.01-3.213-.016-.509.173-.621.653-.638,2.393-.084,2.392-.1,2.392,2.291Q1512.135-44.285,1512.134-43.906Z" transform="translate(-64.448 -108.837)" fill="#a97a4e"/><path d="M1535.192-131.669a3.094,3.094,0,0,1-3.072,3.06c-.485,0-.6-.133-.486-.593a18.691,18.691,0,0,0,.512-4.865c-.016-.585.169-.692.7-.556A3.113,3.113,0,0,1,1535.192-131.669Z" transform="translate(-78.397 -54.483)" fill="#e8cfb5"/><path d="M1437.239-131.656a3.089,3.089,0,0,1,2.418-2.988c.4-.083.641-.081.626.46a19.273,19.273,0,0,0,.528,5.054c.113.469-.1.5-.483.511A3.079,3.079,0,0,1,1437.239-131.656Z" transform="translate(-19.916 -54.479)" fill="#e8cfb5"/><path d="M1547.093-129.036c.757,1.506,1.588,2.981,2.241,4.531a2.628,2.628,0,0,1-.514,2.231c-.292.49-1.116.107-1.679.3-.192.067-.312-.162-.414-.326a10.753,10.753,0,0,0-.714-1.116,1.109,1.109,0,0,1-.019-1.57A6.929,6.929,0,0,0,1547.093-129.036Z" transform="translate(-87.126 -57.979)" fill="#b9d888"/><path d="M1482.879-79.871a17.563,17.563,0,0,0-1.9,4.423c-1.113-1.117-2.2-2.115-3.163-3.22-.4-.462.026-1.095.227-1.588.183-.451.587-.075.882-.008A13.531,13.531,0,0,0,1482.879-79.871Z" transform="translate(-44.962 -88.077)" fill="#e8cfb5"/><path d="M1446.772-38.861a1.524,1.524,0,0,1,1.493,1.513,1.526,1.526,0,0,1-1.513,1.494,1.525,1.525,0,0,1-1.493-1.514A1.523,1.523,0,0,1,1446.772-38.861Z" transform="translate(-24.887 -113.868)" fill="#b9d888"/><path d="M1530.125-85l-1.667-1.79C1530.116-87.344,1530.381-87.075,1530.125-85Z" transform="translate(-76.453 -84.008)" fill="#c79e7b"/><path d="M1504.165-133.174a1.53,1.53,0,0,1-1.51,1.492,1.527,1.527,0,0,1-1.514-1.581,1.524,1.524,0,0,1,1.556-1.443A1.526,1.526,0,0,1,1504.165-133.174Z" transform="translate(-59.522 -54.463)" fill="#010101"/><path d="M1470.69-134.706a1.525,1.525,0,0,1,1.53,1.47,1.528,1.528,0,0,1-1.542,1.554,1.525,1.525,0,0,1-1.482-1.519A1.52,1.52,0,0,1,1470.69-134.706Z" transform="translate(-39.724 -54.464)" fill="#010101"/></g></g></svg>