<svg xmlns="http://www.w3.org/2000/svg" width="295" height="260.008" viewBox="0 0 295 260.008"><g transform="translate(-1020 -2186.262)"><g transform="translate(109.722 2033.121)"><path d="M935.37,406.186a403.721,403.721,0,0,0,178.667,0,403.683,403.683,0,0,0-178.667,0Z" transform="translate(-0.4 -3.879)" fill="#e2dab3"/><path d="M1028.5,407.034a403.722,403.722,0,0,0,178.667,0,403.682,403.682,0,0,0-178.667,0Z" transform="translate(-1.887 -3.893)" fill="#e2dab3"/><g transform="translate(910.278 160.853)"><g transform="translate(0 152.688)"><rect width="162.899" height="6.615" transform="translate(162.899 25.481) rotate(180)" fill="#59302d"/><rect width="162.899" height="6.616" transform="translate(162.899 63.213) rotate(180)" fill="#59302d"/><path d="M1054.067,386.164H1069.3V321.585l-7.619-5.442-7.619,5.442Z" transform="translate(-912.573 -316.143)" fill="#82473e"/><path d="M1026.292,386.164h15.238V321.585l-7.619-5.442-7.619,5.442Z" transform="translate(-912.13 -316.143)" fill="#82473e"/><path d="M998.517,386.164h15.238V321.585l-7.619-5.442-7.619,5.442Z" transform="translate(-911.686 -316.143)" fill="#82473e"/><path d="M970.743,386.164h15.238V321.585l-7.619-5.442-7.619,5.442Z" transform="translate(-911.243 -316.143)" fill="#82473e"/><path d="M942.968,386.164h15.238V321.585l-7.619-5.442-7.619,5.442Z" transform="translate(-910.8 -316.143)" fill="#82473e"/><path d="M915.194,386.164h15.238V321.585l-7.619-5.442-7.619,5.442Z" transform="translate(-910.357 -316.143)" fill="#82473e"/></g><g transform="translate(133.751 83.111)"><path d="M1190.908,404.614H1047.576c-.7-4.522.928-9.209,2.961-13.867,2.031-4.632,4.413-9.264,5.283-13.731,1.219-6.166-.348-12.662,1.424-18.691,1.335-4.44,4.325-8.249,6.385-12.416a32.55,32.55,0,0,0,1.713-4.193c1.916-5.509,2.7-11.4,4.094-17.074a82.064,82.064,0,0,1,5.4-15.266,82.972,82.972,0,0,1,4.818-8.879c3.8-6.112,8.42-11.786,11.962-18.061,4.441-7.894,7.113-16.664,12.309-24.173,4.587-6.632,11.961-12.333,20.12-12.8a18.856,18.856,0,0,1,3.281.109c8.187.959,14.574,7.236,18.64,14.032,4.035,6.769,6.473,14.361,10.8,20.994,2.352,3.617,5.256,6.878,7.432,10.578,4.5,7.592,5.777,16.444,6.968,25.05.987,7.154,2,14.333,2.991,21.487,1.683,12.059,3.366,24.2,7.577,35.683C1185.48,383.676,1190.531,393.734,1190.908,404.614Z" transform="translate(-1046.218 -245.438)" fill="#ffd26e"/><path d="M1190.908,404.614H1047.576c-.7-4.522.928-9.209,2.961-13.867.842,1.37,1.741,2.713,2.671,4a49.314,49.314,0,0,1,3.252-11.456,37.565,37.565,0,0,0,4.7,13.594,69.853,69.853,0,0,0,9.784-9.812,26.6,26.6,0,0,1,2.033,8.687,31.179,31.179,0,0,0,5.255-6.331,11.832,11.832,0,0,0-.348,6.661,33.8,33.8,0,0,0,25.578-15.568q1.7,5.55,3.4,11.1a43.35,43.35,0,0,0,9.406-11.566,32.457,32.457,0,0,0,5.634,11.867,78.174,78.174,0,0,0,8.593-10.77c.9,2.494,1.771,4.987,2.641,7.482a19.209,19.209,0,0,0,8.158-9.455c4.327,4.357,8.623,8.715,12.948,13.073a26.418,26.418,0,0,0,3.542-12.471,28.515,28.515,0,0,0,12.977,9.921c-4.615-6.495-4.3-14.909-6.1-22.528a42.176,42.176,0,0,0-18.32-25.489c-.522,2.9-1.074,5.838-1.6,8.771a92.037,92.037,0,0,1-12.891-12.333,73.572,73.572,0,0,1-3.571,14.278,51.8,51.8,0,0,1-12.25-13.348q-1.743,5.181-3.484,10.36a29.5,29.5,0,0,1-8.884-11.676c-1.6,2.275-3.194,4.55-4.762,6.824a60.349,60.349,0,0,1-.464-13.155,28.839,28.839,0,0,1-22.384,13.457c1.073-1.919,2.147-3.81,3.222-5.7a33.158,33.158,0,0,1-13.936,2.549c1.916-5.509,2.7-11.4,4.094-17.074a82.064,82.064,0,0,1,5.4-15.266,26.7,26.7,0,0,1,10.567-5.454c-.551,3.425-1.1,6.852-1.654,10.3a29.161,29.161,0,0,0,12.571-10.634,41.659,41.659,0,0,1,1.422,11.017,41.076,41.076,0,0,0,7.751-12.059,36.543,36.543,0,0,0,11.962,14.088,58.1,58.1,0,0,1,2.99-14,27.612,27.612,0,0,0,5.6,8.716c.957-2.877,1.916-5.783,2.874-8.688a63.39,63.39,0,0,0,12.251,20.253c1.858-7.7,3.687-15.376,5.545-23.077,2.062,3.1,4.153,6.221,6.242,9.319.988-6.221-2.438-12.305-6.474-17.321-4.064-5.016-8.884-9.62-11.438-15.43-2.787-6.359-2.526-13.539-4.325-20.2a21.225,21.225,0,0,0-6.679-10.743,18.856,18.856,0,0,1,3.281.109c8.187.959,14.574,7.236,18.64,14.032,4.035,6.769,6.473,14.361,10.8,20.994,2.352,3.617,5.256,6.878,7.432,10.578,4.5,7.592,5.777,16.444,6.968,25.05.987,7.154,2,14.333,2.991,21.487,1.683,12.059,3.366,24.2,7.577,35.683C1185.48,383.676,1190.531,393.734,1190.908,404.614Z" transform="translate(-1046.218 -245.438)" fill="#fcaa5a"/><g transform="translate(0 5.57)"><path d="M1107.455,264.835a16.461,16.461,0,0,0-2.416-2.274c-.445-.373-.908-.714-1.391-1.043a4.123,4.123,0,0,0-.625-.383c-.1-.046-.2-.092-.306-.136a1.61,1.61,0,0,0-.433-.1c.126.02.012,0-.048-.016a.574.574,0,0,0-.666.818c.015.029.058.183.023.053a.861.861,0,0,0,.093.219,3.014,3.014,0,0,0,.21.271,6.141,6.141,0,0,0,.594.636c.364.354.725.7,1.1,1.047s.763.7,1.136,1.061a14.009,14.009,0,0,0,1.107,1.029,1.1,1.1,0,0,0,1.356.076A.929.929,0,0,0,1107.455,264.835Z" transform="translate(-1047.081 -251.254)" fill="#fcaa5a"/><path d="M1119.257,266.79a1.091,1.091,0,0,0-1.317.407,13.018,13.018,0,0,0-.643,1.25q-.338.652-.719,1.284a24.846,24.846,0,0,1-1.634,2.41.841.841,0,0,0,.238,1.133.97.97,0,0,0,1.222-.068,15.983,15.983,0,0,0,1.986-2.476c.267-.412.519-.834.758-1.263a7.738,7.738,0,0,0,.719-1.5A.983.983,0,0,0,1119.257,266.79Z" transform="translate(-1047.293 -251.348)" fill="#fcaa5a"/><path d="M1107.219,286.764a2.209,2.209,0,0,0-.394-.426q-.273-.254-.555-.5c-.415-.367-.835-.725-1.252-1.092s-.812-.733-1.194-1.123c-.188-.193-.371-.391-.545-.6-.015-.017-.148-.178-.074-.087s-.055-.072-.07-.09c-.091-.119-.181-.241-.268-.364a.968.968,0,0,0-1.258-.311.853.853,0,0,0-.329,1.186,14.887,14.887,0,0,0,2.264,2.613c.391.374.791.739,1.183,1.11a5.376,5.376,0,0,0,1.372,1.138.968.968,0,0,0,1.008-.067.821.821,0,0,0,.326-.9A2.922,2.922,0,0,0,1107.219,286.764Z" transform="translate(-1047.076 -251.592)" fill="#fcaa5a"/><path d="M1123.749,286.05a1.188,1.188,0,0,0-1.49.084,12.89,12.89,0,0,0-1.556,1.972c-.439.621-.825,1.271-1.282,1.88a.916.916,0,0,0-.1.743,1,1,0,0,0,.366.5,1.059,1.059,0,0,0,1.339-.076c.456-.48.878-.988,1.3-1.5.468-.57.892-1.171,1.358-1.742-.061.074-.122.149-.181.222.19-.231.375-.461.545-.706A1.029,1.029,0,0,0,1123.749,286.05Z" transform="translate(-1047.365 -251.653)" fill="#fcaa5a"/><path d="M1136.939,295.194a1.812,1.812,0,0,0-.279-.4c-.064-.077-.127-.153-.193-.227-.138-.159-.277-.314-.421-.467-.284-.3-.58-.6-.877-.892-.6-.589-1.219-1.169-1.8-1.779a1.189,1.189,0,0,0-1.6,0,1.051,1.051,0,0,0,0,1.513c.569.606,1.174,1.18,1.766,1.764.289.285.576.574.852.871.135.145.268.291.4.442.072.083.149.165.215.253-.033-.039-.064-.077-.1-.116l.179.218a2.493,2.493,0,0,0,.336.241,1.153,1.153,0,0,0,1.228-.082,1,1,0,0,0,.4-1.1C1137.01,295.355,1136.974,295.276,1136.939,295.194Z" transform="translate(-1047.559 -251.737)" fill="#fcaa5a"/><path d="M1131.628,274.182a1.138,1.138,0,0,0-1.053,0,1.793,1.793,0,0,0-.652.629c-.109.147-.218.293-.319.445-.2.3-.394.6-.578.912a6.461,6.461,0,0,0-.563,1.117c-.063.171-.121.342-.172.516a1.565,1.565,0,0,0-.079.433.518.518,0,0,0,.017.152c.013.133.019.162.019.09,0-.093-.009.088-.009.089a.8.8,0,0,0,.608.754.89.89,0,0,0,.936-.36c.034-.047.068-.1.1-.143a6.515,6.515,0,0,0,.593-.794c.194-.28.351-.583.534-.869s.373-.565.564-.842a2.435,2.435,0,0,0,.569-1.276A.979.979,0,0,0,1131.628,274.182Z" transform="translate(-1047.508 -251.465)" fill="#fcaa5a"/><path d="M1126.911,256.274a3,3,0,0,0-.65-1.039,13.278,13.278,0,0,0-1.181-1.209c-.849-.778-1.753-1.5-2.607-2.274a1.15,1.15,0,0,0-1.54,0,1,1,0,0,0,0,1.453c.8.783,1.657,1.518,2.459,2.3.4.387.781.784,1.142,1.2a1.466,1.466,0,0,1,.1.121l.03.037a2.5,2.5,0,0,0,.417.412,1.892,1.892,0,0,0,1.1.38.643.643,0,0,0,.567-.308A1.467,1.467,0,0,0,1126.911,256.274Z" transform="translate(-1047.386 -251.104)" fill="#fcaa5a"/><path d="M1092.253,291.249a4.291,4.291,0,0,0-.648-1.05,17.921,17.921,0,0,0-1.509-1.761,12.677,12.677,0,0,0-1.545-1.4,5.358,5.358,0,0,0-1.072-.728.79.79,0,0,0-.193-.04,1.393,1.393,0,0,0-.207-.112,3.929,3.929,0,0,0-.594-.215.661.661,0,0,0-.769.944,3.173,3.173,0,0,0,.227.406c.036.051.085.1.117.154-.081-.139.063.171.054.152a4.592,4.592,0,0,0,.767.942c.449.524.938,1.017,1.391,1.539.1.11.19.221.281.333l.063.076c.055.069.109.138.164.206q.31.385.6.787a5.274,5.274,0,0,0,1.538,1.691,1.082,1.082,0,0,0,1.033,0,1,1,0,0,0,.506-.833A2.826,2.826,0,0,0,1092.253,291.249Z" transform="translate(-1046.828 -251.654)" fill="#fcaa5a"/><path d="M1099.443,275.019a7.813,7.813,0,0,0-1.7-.238l-.235-.029c.09.011.067.008-.068-.01l-.353-.048c-.254-.036-.506-.075-.76-.113-1.035-.161-2.066-.342-3.1-.5a1.02,1.02,0,0,0-1.213.65.937.937,0,0,0,.689,1.145c1.064.2,2.124.425,3.186.628.521.1,1.045.192,1.57.273.274.042.549.081.824.116.172.022.356.053.531.066a2.546,2.546,0,0,0,.634-.064.99.99,0,0,0,.759-.94A1.038,1.038,0,0,0,1099.443,275.019Z" transform="translate(-1046.929 -251.465)" fill="#fcaa5a"/><path d="M1065.874,356.056a5.779,5.779,0,0,0-1.443-1.52c-.607-.515-1.248-.995-1.9-1.459a13.1,13.1,0,0,0-3.649-1.946.993.993,0,0,0-.8,1.8,16.279,16.279,0,0,1,1.451.919c.276.18.55.356.818.543l.217.154c.028.02.271.2.13.093l.131.1.215.163c.55.421,1.085.862,1.6,1.324.237.216.469.437.694.664.094.094.184.194.277.289a1.78,1.78,0,0,0,.252.215c.061.045.122.09.183.132l-.091-.066a1.3,1.3,0,0,0,1.6.087A1.124,1.124,0,0,0,1065.874,356.056Z" transform="translate(-1046.38 -252.694)" fill="#fcaa5a"/><path d="M1068.955,377.922c-.058-.105-.119-.208-.177-.312-.122-.212-.244-.422-.368-.632-.268-.454-.546-.9-.842-1.338a13.7,13.7,0,0,0-2.139-2.54,1.3,1.3,0,0,0-1.732,0,1.129,1.129,0,0,0,0,1.634c.18.167.352.34.519.519.085.091.165.183.247.277.034.038.066.078.1.116q.463.592.873,1.218c.266.406.515.823.756,1.243.122.213.243.426.36.64a2.617,2.617,0,0,0,.552.809,1.308,1.308,0,0,0,1.346.241,1.146,1.146,0,0,0,.757-1.063A2.006,2.006,0,0,0,1068.955,377.922Z" transform="translate(-1046.472 -253.04)" fill="#fcaa5a"/><path d="M1083.258,359.331a1.839,1.839,0,0,0-1.125.039,15.11,15.11,0,0,0-2.641,1.192c-.463.251-.923.506-1.4.739-.228.112-.463.213-.7.319h0c-.047.019-.1.038-.144.054-.135.05-.272.094-.408.137a1.2,1.2,0,0,0-.88,1.461,1.289,1.289,0,0,0,1.549.831,15.271,15.271,0,0,0,2.737-1.222c.391-.213.778-.43,1.173-.635.2-.1.391-.2.59-.292.1-.046.2-.091.3-.135l.128-.053h0c.746-.249,1.6-.5,1.652-1.392A1.116,1.116,0,0,0,1083.258,359.331Z" transform="translate(-1046.673 -252.825)" fill="#fcaa5a"/><path d="M1085.727,376.374a4.484,4.484,0,0,0-.184-.416,2.672,2.672,0,0,0-.3-.393q-.176-.211-.358-.418c-.306-.351-.618-.7-.926-1.048-.163-.184-.323-.368-.483-.554-.083-.1-.166-.194-.247-.292-.033-.037-.064-.075-.095-.113a12.822,12.822,0,0,1-.793-1.068,1.155,1.155,0,0,0-1.505-.373,1.023,1.023,0,0,0-.394,1.421,20.7,20.7,0,0,0,1.86,2.369c.3.35.608.7.91,1.049.13.151.258.3.386.454l.02.023a1.151,1.151,0,0,0,.154.184c.059.052.126.1.187.149a1.139,1.139,0,0,0,1.283.156A.986.986,0,0,0,1085.727,376.374Z" transform="translate(-1046.743 -253.021)" fill="#fcaa5a"/><path d="M1103.451,356.8a4.333,4.333,0,0,0-1.835-.422c-.509-.048-1.018-.057-1.529-.069a7.4,7.4,0,0,1-2.767-.4,1.06,1.06,0,0,0-1.367.338.927.927,0,0,0,.359,1.289,9.64,9.64,0,0,0,3.446.76c.51.034,1.021.055,1.531.106l.164.018.089.013c.108.019.217.035.325.056a6.288,6.288,0,0,0,1.049.174,1.058,1.058,0,0,0,1.02-.732A1.012,1.012,0,0,0,1103.451,356.8Z" transform="translate(-1046.991 -252.769)" fill="#fcaa5a"/><path d="M1112.413,372.08a9.031,9.031,0,0,0-1.628-.469c-.071-.023-.142-.047-.212-.072l-.127-.048-.067-.029c-.074-.03-.146-.063-.218-.1-.281-.128-.56-.268-.834-.411a23.678,23.678,0,0,0-3.462-1.655,1.093,1.093,0,0,0-1.325.71,1.039,1.039,0,0,0,.753,1.252.428.428,0,0,0,.045.016l.2.088c.131.058.259.119.385.182.277.14.548.288.818.441.567.322,1.12.662,1.692.977a11.538,11.538,0,0,0,1.81.822,2.655,2.655,0,0,0,2.171-.043A.948.948,0,0,0,1112.413,372.08Z" transform="translate(-1047.129 -252.984)" fill="#fcaa5a"/><path d="M1131.992,361.776a.929.929,0,0,0-.76-.624,2.421,2.421,0,0,0-.846-.011,3.482,3.482,0,0,0-1.077.452,9.608,9.608,0,0,0-.986.7,15.666,15.666,0,0,0-1.726,1.642.935.935,0,0,0,0,1.347,1.069,1.069,0,0,0,1.428,0,17.111,17.111,0,0,1,1.535-1.4c.073-.058.146-.114.221-.17l.016-.013.017-.012c.154-.107.311-.211.47-.306.128-.077.259-.151.389-.221.063-.033.126-.066.19-.1.038-.019.08-.033.118-.053s.017-.012-.015,0c.164-.069.312-.145.471-.227.059-.031.182-.075-.084.031a1.029,1.029,0,0,0,.4-.22A.83.83,0,0,0,1131.992,361.776Z" transform="translate(-1047.477 -252.854)" fill="#fcaa5a"/><path d="M1140.209,371.979a6.53,6.53,0,0,0-1.432-.977c-.424-.25-.846-.5-1.278-.737q-1.331-.738-2.644-1.506a1.1,1.1,0,0,0-1.443.357.99.99,0,0,0,.378,1.362q1.264.844,2.549,1.659c.416.264.839.511,1.27.753a6.14,6.14,0,0,0,1.589.727,1.078,1.078,0,0,0,1.011-.252,1.323,1.323,0,0,0,.268-.433A.939.939,0,0,0,1140.209,371.979Z" transform="translate(-1047.588 -252.974)" fill="#fcaa5a"/><path d="M1149.236,365.145c-.05-.106-.1-.216-.157-.317a1.519,1.519,0,0,0-.212-.283c-.071-.076-.091-.062-.016.01-.089-.087-.148-.213-.235-.3a2.537,2.537,0,0,0-.367-.262c-.11-.075-.222-.15-.338-.218-.477-.278-.988-.516-1.491-.749-.559-.259-1.128-.487-1.7-.714l-.378-.151c.156.063.047.02-.047-.019-.062-.026-.125-.05-.189-.075-.265-.108-.531-.217-.8-.329a1.215,1.215,0,0,0-1.568.388,1.065,1.065,0,0,0,.411,1.479c.995.5,2.005.967,3.016,1.436.492.227.973.47,1.449.725.117.063.239.12.358.181s.212.1.323.149a.627.627,0,0,0,.3.078c.181.02.214.026.1.016-.128-.063.028.031.071.044a2.133,2.133,0,0,0,.373.058c.124.014.248.026.371.04a.827.827,0,0,0,.719-.39A.781.781,0,0,0,1149.236,365.145Z" transform="translate(-1047.721 -252.862)" fill="#fcaa5a"/><path d="M1158.78,371.757a1.019,1.019,0,0,0-1.019-.328,3.9,3.9,0,0,0-1.66,1.026c-.4.361-.794.731-1.165,1.12s-.732.759-1.123,1.116c-.2.179-.4.352-.608.518l-.151.116c-.125.087-.25.17-.377.251a1.057,1.057,0,0,0-.407,1.464,1.193,1.193,0,0,0,1.553.385,14.478,14.478,0,0,0,2.726-2.173c.379-.365.73-.756,1.1-1.128.195-.194.386-.392.584-.584a3.35,3.35,0,0,0,.622-.767A.889.889,0,0,0,1158.78,371.757Z" transform="translate(-1047.889 -253.019)" fill="#fcaa5a"/><path d="M1117.08,357.1a7.034,7.034,0,0,0-.758,1.622c-.145.515-.271,1.033-.386,1.554a17.977,17.977,0,0,0-.4,3.289.869.869,0,0,0,.787.84.9.9,0,0,0,.995-.613c.173-1.021.4-2.042.628-3.052.115-.5.245-1,.385-1.494a10.4,10.4,0,0,0,.274-1.755C1118.692,356.71,1117.455,356.468,1117.08,357.1Z" transform="translate(-1047.305 -252.785)" fill="#fcaa5a"/><path d="M1086.026,326.187c-.237-.185-.481-.361-.725-.538-.413-.3-.834-.586-1.249-.883-.132-.094.07.052-.014-.011-.054-.039-.109-.08-.163-.121-.1-.073-.2-.149-.293-.226-.192-.152-.38-.309-.56-.474a7.07,7.07,0,0,1-.512-.517c-.044-.048-.087-.1-.129-.15.124.147-.017-.026-.032-.045-.082-.106-.156-.216-.23-.328a.882.882,0,0,0-1.148-.284.782.782,0,0,0-.3,1.084,8.8,8.8,0,0,0,2.214,2.288c.412.316.836.617,1.252.93.2.149.4.3.589.457.328.268.627.619,1.1.6a.848.848,0,0,0,.858-.81C1086.674,326.7,1086.366,326.454,1086.026,326.187Z" transform="translate(-1046.747 -252.238)" fill="#ffd26e"/><path d="M1095.472,318.906a1.11,1.11,0,0,0-.794-.093,1.651,1.651,0,0,0-.354.156c-.105.057-.21.116-.312.178-.26.158-.506.337-.747.519a6.558,6.558,0,0,0-1.011.95.986.986,0,0,0-.292.667.924.924,0,0,0,.292.665,1.033,1.033,0,0,0,.705.277,1,1,0,0,0,.706-.277,6.7,6.7,0,0,1,1.135-1.065c.105-.071.209-.145.318-.21.078-.047.157-.093.236-.137a1.37,1.37,0,0,0,.285-.2.968.968,0,0,0,.212-.305,1.14,1.14,0,0,0,.085-.366A.857.857,0,0,0,1095.472,318.906Z" transform="translate(-1046.929 -252.179)" fill="#ffd26e"/><path d="M1109.351,326.742c-.227-.488-.9-.755-1.357-1.029-.422-.254-.842-.516-1.255-.785-.194-.128-.387-.258-.577-.389-.1-.065-.192-.132-.285-.2l-.177-.126c.08.056.055.042-.009-.006-.4-.294-.785-.6-1.159-.919a1.062,1.062,0,0,0-1.412,0,.917.917,0,0,0,0,1.332,26.086,26.086,0,0,0,2.539,1.885c.412.272.83.533,1.254.789a3.2,3.2,0,0,0,1.667.714A.857.857,0,0,0,1109.351,326.742Z" transform="translate(-1047.102 -252.246)" fill="#ffd26e"/><path d="M1123.273,326.86a.938.938,0,0,0-.588-.622,1.081,1.081,0,0,0-.9.049c-.347.166-.55.637-.776.934-.1.129-.2.255-.3.38l-.058.071c-.053.063-.105.127-.157.19-.5.6-1.016,1.189-1.453,1.827a.973.973,0,0,0,.377,1.362,1.113,1.113,0,0,0,1.443-.357c.4-.591.865-1.139,1.314-1.695.22-.27.438-.541.644-.822.082-.11.159-.221.231-.336.033-.051.064-.1.093-.153A1.109,1.109,0,0,0,1123.273,326.86Z" transform="translate(-1047.359 -252.296)" fill="#ffd26e"/><path d="M1132.11,336.428a8.116,8.116,0,0,0-.909-.841c-.31-.269-.628-.531-.948-.791-.636-.518-1.282-1.025-1.907-1.557a1.023,1.023,0,0,0-1.364,0,.888.888,0,0,0,0,1.287c.616.538,1.256,1.054,1.885,1.579.306.256.61.515.91.779.314.281.6.6.931.867a1.056,1.056,0,0,0,1.4,0,.912.912,0,0,0,.289-.662A1.057,1.057,0,0,0,1132.11,336.428Z" transform="translate(-1047.483 -252.405)" fill="#ffd26e"/><path d="M1134.891,327.4a3.664,3.664,0,0,0-.715-.724c-.212-.193-.449-.362-.669-.546q-.675-.561-1.29-1.18a1.038,1.038,0,0,0-1.4,0,.91.91,0,0,0,0,1.317c.417.417.852.818,1.309,1.2a7.927,7.927,0,0,0,.846.644,3.09,3.09,0,0,0,.953.474.9.9,0,0,0,.9-.288A.771.771,0,0,0,1134.891,327.4Z" transform="translate(-1047.545 -252.273)" fill="#ffd26e"/><path d="M1153.95,327.1a.7.7,0,0,0-.878.049,16.807,16.807,0,0,0-2.137,2.6c-.62.9-1.137,1.849-1.782,2.731-.443.605.576,1.356,1.087.791a19.874,19.874,0,0,0,2.049-2.668,29.549,29.549,0,0,1,1.834-2.685A.6.6,0,0,0,1153.95,327.1Z" transform="translate(-1047.84 -252.309)" fill="#ffd26e"/><g transform="translate(103.144 62.858)"><path d="M1154.147,315.2a.885.885,0,0,0-1-.122c-.464.21-.521.83-.691,1.244-.009.021-.019.045-.03.069,0,0,0,0,0,0v.006a.155.155,0,0,0-.014.033.082.082,0,0,1,.008-.023c-.036.077-.074.154-.113.23-.078.154-.163.305-.249.456-.33.579-.657,1.171-.932,1.774a.821.821,0,0,0-.085.611.813.813,0,0,0,.385.473.882.882,0,0,0,1.148-.283c.34-.61.782-1.166,1.112-1.781a9.315,9.315,0,0,0,.513-1.117C1154.393,316.264,1154.594,315.631,1154.147,315.2Z" transform="translate(-1151.015 -314.976)" fill="#ffd26e"/><path d="M1152.454,316.408c.031-.067.006-.024-.009.021l.006-.011Z" transform="translate(-1151.038 -314.999)" fill="#ffd26e"/></g><path d="M1168.625,317.359a50.534,50.534,0,0,1-6.621-4.313,1.05,1.05,0,0,0-1.38,0,.892.892,0,0,0,0,1.3,39.133,39.133,0,0,0,6.958,4.695,1.092,1.092,0,0,0,1.411-.349A.957.957,0,0,0,1168.625,317.359Z" transform="translate(-1048.02 -252.083)" fill="#ffd26e"/><path d="M1163.6,296.115a7,7,0,0,0-.415,1.175c-.123.361-.255.719-.4,1.076-.068.165-.139.331-.21.495l-.057.124c-.039.084-.079.168-.119.252-.168.344-.347.685-.538,1.018a.917.917,0,0,0,.352,1.273,1.036,1.036,0,0,0,1.351-.334,19.146,19.146,0,0,0,1.071-2.267q.214-.533.394-1.077a4.791,4.791,0,0,0,.334-1.285A.964.964,0,0,0,1163.6,296.115Z" transform="translate(-1048.043 -251.81)" fill="#ffd26e"/><path d="M1160.361,279.086c0,.141.019.023.022-.052a1.456,1.456,0,0,0-.274-1.008.421.421,0,0,0-.4-.1,2.427,2.427,0,0,0-.856.625,1.443,1.443,0,0,0-.435.37c-.042.053-.083.107-.125.161.106-.136-.035.042-.055.066-.26.309-.482.641-.729.956-.015.02-.187.236-.117.152s-.077.092-.09.106q-.185.22-.374.435c-.245.277-.5.545-.747.823-.967,1.087-1.978,2.149-2.853,3.306a1.038,1.038,0,0,0,.4,1.451,1.192,1.192,0,0,0,1.537-.381c-.144.175.065-.075.075-.087.067-.078.134-.155.2-.231.116-.131.235-.261.354-.391.277-.3.561-.6.844-.89.611-.632,1.225-1.257,1.788-1.927a10.032,10.032,0,0,0,1.545-2.111,5.1,5.1,0,0,0,.285-.666A1.975,1.975,0,0,0,1160.361,279.086Z" transform="translate(-1047.906 -251.526)" fill="#ffd26e"/><path d="M1149.432,273.262a.772.772,0,0,0-.475-.185.971.971,0,0,0-.365.021c-.04.013-.074.035-.112.051h0a1.049,1.049,0,0,0-.534.242,2.812,2.812,0,0,0-.441.432,7.7,7.7,0,0,0-.5.637,5.977,5.977,0,0,0-.63,1.243.859.859,0,0,0,.1.693.963.963,0,0,0,.57.413.957.957,0,0,0,1.171-.627c.013-.033.027-.065.04-.1a5.12,5.12,0,0,1,.644-1.035c.121-.138.246-.274.366-.413a1.178,1.178,0,0,0,.135-.268h0a1.173,1.173,0,0,0,.187-.332,1.742,1.742,0,0,0,.044-.325A.614.614,0,0,0,1149.432,273.262Z" transform="translate(-1047.797 -251.449)" fill="#ffd26e"/><path d="M1146.962,268.961a5.719,5.719,0,0,0-.59-.763,10.508,10.508,0,0,0-1.378-1.145,14.669,14.669,0,0,0-2.75-1.584,1.177,1.177,0,0,0-1.52.377,1.032,1.032,0,0,0,.4,1.436,13.357,13.357,0,0,1,1.313.71c.221.137.439.278.651.424a2.056,2.056,0,0,0,.3.215c-.026.013-.193-.144,0,0,.056.041.111.083.165.125.4.308.79.62,1.17.949.151.13.318.24.481.356l.032.024c.034.024.081.06.093.069a1.745,1.745,0,0,0,1.089.543.915.915,0,0,0,.868-.624A1.323,1.323,0,0,0,1146.962,268.961Z" transform="translate(-1047.705 -251.326)" fill="#ffd26e"/><path d="M1147.564,251.1c-.443-.05-.81.325-1.119.567-.133.1-.268.2-.4.3-.154.116.074-.044-.026.019a2.844,2.844,0,0,0-.312.237c-.48.412-.968.824-1.428,1.258a12.454,12.454,0,0,0-2.484,3.025,1.014,1.014,0,0,0,.392,1.405,1.141,1.141,0,0,0,1.489-.368,7.788,7.788,0,0,1,.494-.781c.09-.126.185-.246.278-.368.079-.1-.116.136.016-.017.055-.063.108-.127.165-.19a18.1,18.1,0,0,1,1.313-1.311c.451-.414.927-.833,1.332-1.286.23-.256.434-.536.637-.81a1.306,1.306,0,0,0,.387-1.156A.792.792,0,0,0,1147.564,251.1Z" transform="translate(-1047.722 -251.098)" fill="#ffd26e"/><path d="M1174.646,338.062c-.728-.446-1.461-.884-2.186-1.331a30.2,30.2,0,0,1-4.075-2.907,1.145,1.145,0,0,0-1.523,0,.987.987,0,0,0,0,1.439,32.764,32.764,0,0,0,4.329,3.112c.724.451,1.457.889,2.187,1.332.364.222.724.451,1.086.673.439.27,1.025.627,1.556.427a.882.882,0,0,0,.65-.807C1176.7,339.076,1175.356,338.5,1174.646,338.062Z" transform="translate(-1048.119 -252.414)" fill="#ffd26e"/><path d="M1176.042,325.6a.556.556,0,0,0-.656-.351.945.945,0,0,0-.3.117.977.977,0,0,0-.491.221c-.043.038-.089.08-.13.121-.058.059-.049.052.013,0-.1.08-.225.138-.331.215-.069.051-.14.1-.208.155-.012.011,0,0-.011.011a2.3,2.3,0,0,1-.5.32c-.2.115-.4.222-.6.333a12.752,12.752,0,0,1-1.184.558h0l-.148.057c-.1.039-.207.077-.311.115-.217.078-.436.153-.656.224a.889.889,0,0,0-.648,1.079.951.951,0,0,0,1.143.613,16.143,16.143,0,0,0,2.837-1.047,6.474,6.474,0,0,0,1.259-.861,2.933,2.933,0,0,0,.567-.633c-.1.156.057-.073.085-.108s.072-.09.107-.135a.8.8,0,0,0,.142-.622A.934.934,0,0,0,1176.042,325.6Z" transform="translate(-1048.172 -252.282)" fill="#ffd26e"/><path d="M1169.255,353.152a13.275,13.275,0,0,0-3-3.162c-1.075-.946-2.258-1.785-3.357-2.706-.721-.605-1.7.319-1.059,1,.973,1.028,1.959,2.072,3,3.041a35.517,35.517,0,0,0,3.229,2.947.908.908,0,0,0,1.05-.128A.8.8,0,0,0,1169.255,353.152Z" transform="translate(-1048.041 -252.63)" fill="#ffd26e"/><path d="M1181.665,359.456a1.409,1.409,0,0,0-.552-.022,2.7,2.7,0,0,0-.449.18c-.279.119-.3.123-.547.22-.518.2-1.01.462-1.511.694a29.016,29.016,0,0,0-2.682,1.355.856.856,0,0,0-.329,1.188.965.965,0,0,0,1.258.31,28.927,28.927,0,0,1,2.7-1.329,10.989,10.989,0,0,0,1.325-.633c.482-.305,1.107-.617,1.267-1.173A.646.646,0,0,0,1181.665,359.456Z" transform="translate(-1048.262 -252.827)" fill="#ffd26e"/><path d="M1179.325,381.29a1.768,1.768,0,0,0-.149-.287c-.022-.032-.044-.064-.067-.1-.047-.076-.045-.063,0,.036v0a.9.9,0,0,0-.224-.438c-.245-.252-.563-.455-.832-.685s-.548-.48-.824-.718c-.553-.477-1.089-.973-1.628-1.464a.922.922,0,0,0-1.235,0,.807.807,0,0,0,0,1.165c.515.529,1.024,1.062,1.557,1.577.262.253.537.49.822.719q.205.167.415.326a4.006,4.006,0,0,0,.62.431,1.08,1.08,0,0,0,.513.093h0c-.12-.021-.133-.02-.04,0l.12.03a1.753,1.753,0,0,0,.35.047C1179.092,382.037,1179.48,381.646,1179.325,381.29Z" transform="translate(-1048.24 -253.114)" fill="#ffd26e"/><path d="M1185.182,374.632a5.347,5.347,0,0,0-2.539.248,18.471,18.471,0,0,1-2.286.53.838.838,0,0,0-.642.928.865.865,0,0,0,.88.733,19.731,19.731,0,0,0,2.464-.475,9.228,9.228,0,0,0,2.287-.773A.645.645,0,0,0,1185.182,374.632Z" transform="translate(-1048.329 -253.069)" fill="#ffd26e"/><path d="M1187.181,397.556a5.482,5.482,0,0,0-.971-1.187c-.415-.345-.854-.666-1.3-.981-.388-.277-.783-.547-1.177-.818-.2-.141-.41-.282-.613-.426l-.271-.193c-.093-.065.126.094-.015-.012l-.175-.13a1.051,1.051,0,0,0-.665-.261.988.988,0,0,0-.666.261.866.866,0,0,0,0,1.257c.743.6,1.528,1.147,2.289,1.725.375.286.745.579,1.1.889.2.18.433.324.646.493.013.009.02.016.048.037l.142.109c.092.073.182.149.272.224a.909.909,0,0,0,1.134.064A.782.782,0,0,0,1187.181,397.556Z" transform="translate(-1048.351 -253.372)" fill="#ffd26e"/><path d="M1171.475,401.042c-.408-.245-.851-.445-1.282-.651-.853-.407-1.712-.806-2.531-1.275a.8.8,0,0,0-1.041.258.711.711,0,0,0,.273.981c.8.494,1.647.919,2.487,1.353.41.214.813.444,1.227.651a2.738,2.738,0,0,0,1.6.538.635.635,0,0,0,.463-.771C1172.575,401.625,1171.893,401.294,1171.475,401.042Z" transform="translate(-1048.119 -253.459)" fill="#ffd26e"/><path d="M1146.109,394.876a.772.772,0,0,0-.418-.69,1.211,1.211,0,0,0-1.242.1,5.144,5.144,0,0,0-.624.495,7.4,7.4,0,0,0-.949,1.137,16.688,16.688,0,0,0-1.233,2.348.808.808,0,0,0,.309,1.113.906.906,0,0,0,1.18-.292c.428-.731.853-1.457,1.343-2.154.117-.165.247-.325.36-.491.029-.032.055-.065.086-.1.074-.082.149-.161.228-.238.064-.063.13-.124.2-.182.04-.034.083-.067.124-.1.006,0-.006,0,0,0a2.034,2.034,0,0,0,.337-.24A1.07,1.07,0,0,0,1146.109,394.876Z" transform="translate(-1047.72 -253.38)" fill="#ffd26e"/><path d="M1152.125,399.463a.741.741,0,0,0-.684-.435,3.234,3.234,0,0,0-1.406.6c-.389.248-.765.518-1.125.8a13.529,13.529,0,0,0-1.809,1.726.715.715,0,0,0,0,1.029.814.814,0,0,0,1.09,0,13.6,13.6,0,0,1,1.77-1.633l.1-.078s.161-.116.074-.055.075-.051.075-.051l.1-.074c.167-.113.337-.224.508-.329s.347-.2.522-.3a2.583,2.583,0,0,0,.624-.426A.687.687,0,0,0,1152.125,399.463Z" transform="translate(-1047.806 -253.459)" fill="#ffd26e"/><path d="M1120.808,400.691a5.015,5.015,0,0,0-.533-.51c-.2-.148-.422-.277-.634-.415-.378-.251-.751-.51-1.124-.767s-.724-.495-1.1-.729a8.167,8.167,0,0,0-1.217-.6.964.964,0,0,0-1.242.307.849.849,0,0,0,.326,1.172c.186.118.364.242.544.367.006,0,0,0,0,0l.014.01.121.092c.13.1.261.189.395.279.182.122.362.248.54.375.1.067.189.135.282.2l.138.1c.4.3.808.6,1.217.886a5.358,5.358,0,0,0,.547.377,4.92,4.92,0,0,0,.828.291.946.946,0,0,0,1.031-.4A.852.852,0,0,0,1120.808,400.691Z" transform="translate(-1047.294 -253.436)" fill="#ffd26e"/><path d="M1129.722,398.564a.5.5,0,0,0-.252-.183.815.815,0,0,0-.2-.03l-.093-.009a.772.772,0,0,0-.436.112,4.127,4.127,0,0,0-.382.226,5.393,5.393,0,0,0-.786.626.6.6,0,0,0-.183.416.583.583,0,0,0,.183.417.646.646,0,0,0,.441.172.63.63,0,0,0,.442-.172,4.429,4.429,0,0,1,.656-.593c.081-.056.161-.112.245-.162a.738.738,0,0,0,.289-.284,1.009,1.009,0,0,0,.113-.228A.381.381,0,0,0,1129.722,398.564Z" transform="translate(-1047.495 -253.448)" fill="#ffd26e"/><path d="M1101.338,401.351c-.073-.085-.145-.168-.219-.252l.239.388c-.066-.4-.509-.645-.84-.836-.186-.107-.373-.216-.557-.327-.357-.215-.707-.441-1.043-.682-.112-.086-.224-.169-.33-.261a1.084,1.084,0,0,0-1.444,0,.938.938,0,0,0,0,1.363,12.035,12.035,0,0,0,1.517,1.051c.237.142.478.279.719.414a2.423,2.423,0,0,0,1.011.394l.155.031a.868.868,0,0,0,.943-.338.709.709,0,0,0,.081-.583A1.1,1.1,0,0,0,1101.338,401.351Z" transform="translate(-1047.007 -253.461)" fill="#ffd26e"/><path d="M1068.588,401.132a.982.982,0,0,0-.638-.539,1.888,1.888,0,0,0-1.367.254,6,6,0,0,0-.676.36,8.165,8.165,0,0,0-1.411,1.081,1,1,0,0,0,0,1.453,1.153,1.153,0,0,0,1.54,0,7.027,7.027,0,0,1,.662-.569,6.489,6.489,0,0,1,1.318-.737l-.255.1a1.6,1.6,0,0,0,.544-.3,1.309,1.309,0,0,0,.234-.278A.867.867,0,0,0,1068.588,401.132Z" transform="translate(-1046.485 -253.484)" fill="#ffd26e"/><path d="M1051.228,399.526a2.634,2.634,0,0,0-.129-.264,2.1,2.1,0,0,0-.6-.529c-.1-.074-.2-.151-.314-.215-.236-.139-.477-.272-.717-.4-.272-.152-.542-.307-.819-.45a1.79,1.79,0,0,0-.182-.081c.031.012.041.016-.013-.007l-.213-.087-.2-.083a1.76,1.76,0,0,0-.35-.1h.028a1.441,1.441,0,0,0-1.237.021.506.506,0,0,0-.092.057c-.016.013-.032.015-.047.03l.028-.012a.472.472,0,0,0-.158.254l0-.027c-.005.019,0,.032,0,.049a.39.39,0,0,0-.008.117c-.033.43.27.73.584,1.031q-.125-.2-.248-.4a1.784,1.784,0,0,0,.734.819c.276.214.586.391.879.581.447.288.879.592,1.35.844a1.52,1.52,0,0,0,1.594-.054.864.864,0,0,0,.24-.388A1.009,1.009,0,0,0,1051.228,399.526Z" transform="translate(-1046.198 -253.43)" fill="#ffd26e"/></g></g><g transform="translate(4.827)"><g transform="translate(0 20.258)"><g transform="translate(117.918 19.116)"><path d="M1035.021,201.85v.058a1.523,1.523,0,0,0,.378.995c.126.172.263.355.4.526.549.664,1.144,1.294,1.683,1.957a8.733,8.733,0,0,1,.881,1.27,7.993,7.993,0,0,1,.469,1c.138.343.264.687.378,1.041h.011c.172.481.344.961.538,1.431a23.774,23.774,0,0,0,5.448,7.553l-.824,4.727,1.785.194,3.228.343v.012l.915.092,1.774.195c.309-1.27.481-2,.481-2l.194-1.236.252-1.614c.183-.411.355-.812.526-1.236.3-.71.584-1.43.882-2.151.332-.87.687-1.728,1.064-2.563a7.579,7.579,0,0,0,.767-2.335h.011a3.377,3.377,0,0,0-.035-1.018,4.967,4.967,0,0,0-1.281-2.175,25.421,25.421,0,0,0-3.433-3.307c-.15-.138-.309-.264-.469-.39a5.342,5.342,0,0,0-1.008-.629.448.448,0,0,0-.08-.034,1.894,1.894,0,0,0-1.408-.138,3.432,3.432,0,0,0-1.385,1.213c0,.012,0,.012-.012.012a10.479,10.479,0,0,1-1.041,1.1,5.955,5.955,0,0,1-2.632,1.408,1.151,1.151,0,0,1-.732-.034,1.393,1.393,0,0,1-.526-.618,9.909,9.909,0,0,0-4.738-4.177,1.36,1.36,0,0,0-.138-.057,3.043,3.043,0,0,0-1.179-.264.575.575,0,0,0-.195.023,1.231,1.231,0,0,0-.48.184,1.25,1.25,0,0,0-.138.1.919.919,0,0,0-.285.4A.735.735,0,0,0,1035.021,201.85Z" transform="translate(-1035.013 -200.991)" fill="#ff7d6f"/><path d="M1035.017,201.9a1.549,1.549,0,0,0,.386,1c.128.175.262.35.4.52a23.443,23.443,0,0,1,2.557,3.231,12.591,12.591,0,0,1,.858,2.034c0,.007.006.006.006.006.173.478.34.962.538,1.434a23.884,23.884,0,0,0,5.448,7.549l-.824,4.729,1.788.194,3.227.354,2.689.289-1.422-5.237c-2.427-1.744-7.29-5.081-9.559-8.033a7.371,7.371,0,0,1-.934-1.525c-.24-.569-.467-1.158-.708-1.74a8.28,8.28,0,0,0-1.889-3.045c-.046-.045-.093-.084-.14-.129-.482-.46-1.013-1.063-.81-1.58a.718.718,0,0,1,.1-.186,2.132,2.132,0,0,1,.756-.454c-.039-.02-.093-.045-.14-.064a3.047,3.047,0,0,0-1.176-.257.96.96,0,0,0-.2.017,1.106,1.106,0,0,0-.941.845A.135.135,0,0,0,1035.017,201.9Z" transform="translate(-1035.013 -200.991)" fill="#ffa07f"/><path d="M1049.362,210.628a10.582,10.582,0,0,1,2.652,4.169,8.444,8.444,0,0,0-1.621-4.533,5.013,5.013,0,0,0-4.238-2,2.247,2.247,0,0,0-.894.2c.418.423,1.5.491,2.065.763A8.1,8.1,0,0,1,1049.362,210.628Z" transform="translate(-1035.177 -201.107)" fill="#fc5b68"/></g><path d="M946.3,196.463a23.457,23.457,0,0,1-4.909,8.22c-3.976,3.951-26.212-2.885-26.212-2.885l1.1-1.706s19.5,3.915,22.167,2.914c2.645-.991,3.021-6.718,3.021-6.718l-24.3-3.352.469-2.081,24.451,2.232s1.234-5.629-1.043-7.184c-2.3-1.571-22.277-2.171-22.277-2.171l-.584-1.9s23.434-1.609,26.176,3.11a21.271,21.271,0,0,1,2.383,8.237l171.086,21.731a1.808,1.808,0,1,1-.459,3.587Z" transform="translate(-915.183 -181.565)" fill="#82473e"/><g transform="translate(127.464 20.133)"><path d="M1057.38,206.335a10.848,10.848,0,0,1-1.607,5.316,6.313,6.313,0,0,1-1.86-.139c-.278-.051-.562-.121-.849-.2a16.992,16.992,0,0,1-1.937-.693c-.286-.116-.57-.24-.85-.37-.747-.347-1.472-.722-2.138-1.094-.288-.155-.563-.313-.826-.464-.709-.416-1.317-.8-1.767-1.091-.521-.339-.83-.556-.83-.556.6-2.317,3.261-5.016,3.261-5.016a9.3,9.3,0,0,1,2.75.465A21.486,21.486,0,0,1,1057.38,206.335Z" transform="translate(-1044.714 -202.025)" fill="#ffa07f"/><g transform="translate(2.598 3.452)"><path d="M1049.417,205.533s-.06.33-.182.81a14.393,14.393,0,0,1-.556,1.771c-.158.4-.333.769-.5,1.094-.288-.155-.563-.313-.826-.464a4.643,4.643,0,0,1,.272-1.047,4.711,4.711,0,0,1,1.126-1.644A3.9,3.9,0,0,1,1049.417,205.533Z" transform="translate(-1047.354 -205.533)" fill="#cf4a57"/><g transform="translate(2.964 1.614)"><path d="M1052.247,207.173s-.031.322-.116.784a10.674,10.674,0,0,1-.456,1.71,9.923,9.923,0,0,1-.46,1.031c-.286-.116-.57-.24-.85-.37a4.428,4.428,0,0,1,.245-1.057,4.573,4.573,0,0,1,1.02-1.579A4.015,4.015,0,0,1,1052.247,207.173Z" transform="translate(-1050.366 -207.173)" fill="#cf4a57"/></g><g transform="translate(5.752 2.27)"><path d="M1055.191,207.84s-.028.335-.117.828a10.571,10.571,0,0,1-.5,1.819,9.077,9.077,0,0,1-.525,1.118c-.278-.051-.562-.121-.849-.2a5.192,5.192,0,0,1,.317-1.323,5.283,5.283,0,0,1,1.052-1.668A4.558,4.558,0,0,1,1055.191,207.84Z" transform="translate(-1053.199 -207.84)" fill="#cf4a57"/></g></g><path d="M1050.725,202.49a6.444,6.444,0,0,0-2.148,1.017,7.815,7.815,0,0,0-1.474,1.612,14.9,14.9,0,0,0-1.431,2.119,2.125,2.125,0,0,0-.128.359c-.521-.339-.83-.556-.83-.556.6-2.317,3.261-5.016,3.261-5.016A9.3,9.3,0,0,1,1050.725,202.49Z" transform="translate(-1044.714 -202.025)" fill="#ffbf90"/></g></g><path d="M1023.263,234.281s13.379,18.243,18.6,17.121c6.433-1.442,10.037-27.891,10.037-27.891l-1.557-1.26-5.322-4.3-5.642,17.179-10.54-11.147-4.7,8.686Z" transform="translate(-916.908 -161.888)" fill="#ffa07f"/><path d="M1023.263,234.31s13.379,18.243,18.6,17.121c6.433-1.442,10.037-27.891,10.037-27.891.309-1.27.481-2,.481-2l.194-1.236-1.693-.526v.012c-.023.126-.218,1.041-.538,2.495-.057.321-.137.676-.218,1.065-1.625,7.439-5.458,24.1-7.7,25.648-2.495,1.728-14.878-12.338-18.288-16.3Z" transform="translate(-916.908 -161.917)" fill="#ff7d6f"/><path d="M1009.507,204.954l5.978,2.028,19.543,19.968-10.92,11.45-8.328-9.907Z" transform="translate(-916.688 -161.68)" fill="#ff5656"/><path d="M1036.349,227.777l-11.946,11.8-2.307-3.589,11.473-11.279Z" transform="translate(-916.889 -161.996)" fill="#fff"/><path d="M1009.546,205.008s12.805,14.979,14.513,19.53-2.56,11.1-2.56,11.1l2.963,32.716s-23.947,4.552-39.878,1.992L988.5,237.5V205.477l10.242-3.129Z" transform="translate(-916.291 -161.639)" fill="#ff5656"/><path d="M1022.047,235.855s3.4-3.833,2.963-8.315-6.052-11.365-6.052-11.365,4.487,8.5,4.537,11.579-3.527,9.2-3.527,9.2Z" transform="translate(-916.839 -161.859)" fill="#e43939"/><path d="M988.506,228.009s3.29-7.207,1.289-12.715a13.6,13.6,0,0,1-1.289,14.592Z" transform="translate(-916.353 -161.845)" fill="#e43939"/><path d="M1009.768,235.656s-2.855,3.5-6.361,3.234a8.527,8.527,0,0,1-5.259-2.067s3.942,1.262,6.59.857A14.078,14.078,0,0,0,1009.768,235.656Z" transform="translate(-916.507 -162.17)" fill="#e43939"/><path d="M999.781,210.151l-11.522-4.623a36.97,36.97,0,0,0-6.827,4.623c-2.134,2.133-11.719,17.013-11.719,17.013l13.337,8.575Z" transform="translate(-916.053 -161.69)" fill="#ff5656"/><path d="M979.893,288.6c0,4.269,7.393,51.2,7.393,51.2l1.133,28.452,3.892-.263,12.9-.87,1.191-71.416,13.883,40.4-6.821,26.174,2.334,1.293,11.033,6.1s12.521-26.173,12.235-29.012-16.949-98.117-16.949-98.117l-1.408-1.442H999.944s-2.952,18.54-11.375,24.343c-.046.034-.1.068-.15.1l-5.688,6.192S979.893,284.333,979.893,288.6Z" transform="translate(-916.216 -162.257)" fill="#456997"/><path d="M1020.711,336.913l-6.821,26.174,2.335,1.293,8.286-27.5-13.345-38.729,4.189-6.672-8.526,5.036Z" transform="translate(-916.646 -163.061)" fill="#254f79"/><path d="M979.893,289c0,4.269,7.393,51.2,7.393,51.2l1.133,28.452,3.892-.263-1.705-27.342-6.959-52.84,4.922-22.363c-.046.034-.1.068-.15.1l-5.688,6.192S979.893,284.728,979.893,289Z" transform="translate(-916.216 -162.652)" fill="#254f79"/><path d="M1017.878,247.687s0-19.2-1.067-23.9-9.455-19.348-9.455-19.348l3.7.541s10.731,18.494,10.268,20.784,0,21.92,0,21.92Z" transform="translate(-916.654 -161.672)" fill="#456997"/><path d="M1004.533,247.693s-2.56-17.851-7.255-27.7-7.771-15.13-7.771-15.13l-2.859,1.276s7.749,15.951,9.083,21.925,4.321,20.7,4.321,20.7Z" transform="translate(-916.324 -161.679)" fill="#456997"/><g transform="translate(63.286)"><path d="M990.539,204.894c.226.578.4.323.945,1.094,1.006,1.429,7.42,10.588,13.316,9.4,5.164-1.036,2.924-9,2.289-10.969l-2.809-.65-8.674-.7Z" transform="translate(-979.672 -161.65)" fill="#ffa07f"/><path d="M981.836,198.912a9.823,9.823,0,0,0,5.868,3.663,7.822,7.822,0,0,0,4.651-.585c4.724-2.138,7.411-8.675,4.978-13.423a11.552,11.552,0,0,0-3.994-4.442,9.731,9.731,0,0,0-4.573-1.6,7.979,7.979,0,0,0-3.784.625,9.015,9.015,0,0,0-4.284,4.1A10.852,10.852,0,0,0,981.836,198.912Z" transform="translate(-979.496 -161.322)" fill="#3f0727"/><path d="M1009.3,172.767c.079.151.158.293.222.442.136.277.274.552.4.828.252.535.48,1.077.7,1.625a30.914,30.914,0,0,1,2.118,9.386c1.883-2.49,3.834-5.171,4.469-8.157a9.315,9.315,0,0,0,.221-2,6.807,6.807,0,0,0-.093-1.09,9.234,9.234,0,0,0-3.459-6,6.577,6.577,0,0,0-1.97-1.016,2.727,2.727,0,0,0-3.355,1.023C1007.516,169.465,1008.513,171.257,1009.3,172.767Z" transform="translate(-979.952 -161.068)" fill="#3f0727"/><g transform="translate(15.037 31.747)"><path d="M1000.756,208.753l-4.914-3.9c-.156-1.26-.113-1.747-.416-4.874-.341-3.477-.649-6.738-.649-6.738l10.283,2.554a23.241,23.241,0,0,0-.692,8.109c.08,1.108.132,2.082.163,2.931A2.329,2.329,0,0,1,1000.756,208.753Z" transform="translate(-994.776 -193.24)" fill="#ffa07f"/><path d="M1005.059,195.794a23.241,23.241,0,0,0-.692,8.109c-.291.17-.576.33-.846.466-1.081.546-5.156-2.2-8.1-4.392-.341-3.477-.649-6.738-.649-6.738Z" transform="translate(-994.776 -193.24)" fill="#ff7d6f"/></g><g transform="translate(10.156 6.251)"><path d="M1013.67,182.405q-.115,1.395-.383,2.946s1.092,4.832.725,6-2.744,8.439-6.256,8.479c-2.931.034-10.551-3.246-13.34-5.435a2.93,2.93,0,0,1-1.02-1.141c-.6-1.9-2.9-10.3-3.1-11-.553-1.9-3.336-16.489,14.979-14.78a8.637,8.637,0,0,1,7.309,5.558A21.615,21.615,0,0,1,1013.67,182.405Z" transform="translate(-989.816 -167.331)" fill="#ffa07f"/><g transform="translate(10.325 24.646)"><path d="M1009.36,193.755s-4.5-2.646-9.051-.6c0,0,1.779,3.852,4.128,3.947C1007.289,197.213,1009.36,193.755,1009.36,193.755Z" transform="translate(-1000.309 -192.377)" fill="#fc5b68"/><path d="M1009.092,193.86a21.737,21.737,0,0,0-8.513-.61,4.737,4.737,0,0,0,4.145,3.124A4.857,4.857,0,0,0,1009.092,193.86Z" transform="translate(-1000.313 -192.389)" fill="#fff"/></g><path d="M1013.362,185.6s1.092,4.832.725,6-2.744,8.439-6.256,8.479c-2.931.034-10.551-3.246-13.34-5.435,3.283,1.682,12,5.93,14.241,4.8,2.774-1.4,5.2-8.281,5.052-8.909s-.9-4.778-.9-4.778.41-1.4.857-3.1Q1013.63,184.045,1013.362,185.6Z" transform="translate(-989.891 -167.575)" fill="#ffbf90"/></g><path d="M983.283,178.138a9.486,9.486,0,0,0,.338,1.444,14.108,14.108,0,0,0,1.189,2.806c.072.143.151.278.231.42.02.039.046.08.066.119.053.1.106.183.16.271.432.739.936,1.529,1.512,2.356.237.345.489.691.748,1.053,0,0,1.045-3.459,3.4-2.026a23.26,23.26,0,0,0,2.465-.8c2.7-1.031,6.747-3.081,7.662-6.354,0,0-.047,3.4-1.632,4.168.568-.188,6.8-2.236,10.8-6.023a11.939,11.939,0,0,0,2.5-3.228,7.4,7.4,0,0,0,.684-1.906,1.925,1.925,0,0,0,.048-.215,7.571,7.571,0,0,0,.125-1.361c0-.242-.021-.494-.046-.745a3.4,3.4,0,0,0-.057-.406,5.483,5.483,0,0,0-.564-1.643c-.072-.142-.159-.285-.239-.421a7.65,7.65,0,0,0-1.821-1.911c-4.073-3.094-11.938-3.776-18.148-1.053,0,0,0,.016-.009.015a14.662,14.662,0,0,0-7.28,6.581C983.592,172.817,982.871,175.462,983.283,178.138Z" transform="translate(-979.554 -160.978)" fill="#3f0727"/><path d="M981.836,198.568a9.823,9.823,0,0,0,5.868,3.663,7.822,7.822,0,0,0,4.651-.585,10.978,10.978,0,0,1-9.264-9.4c-.292-2.749.963-6.01,3.63-6.688a.874.874,0,0,1,.124-.035,8.231,8.231,0,0,1,1.921-3.335,18.345,18.345,0,0,1,6.306-4.1c3.508-1.526,7.365-2.858,9.692-5.888q-.307,2.543-.616,5.092a14.353,14.353,0,0,0,5.321-3.341,14.19,14.19,0,0,0,3.045-4.4,11.721,11.721,0,0,1,.843.894,15.6,15.6,0,0,1,3.4,6.363,9.315,9.315,0,0,0,.221-2,6.807,6.807,0,0,0-.093-1.09,9.234,9.234,0,0,0-3.459-6,5.483,5.483,0,0,0-.564-1.643c-.072-.142-.159-.285-.239-.421a7.5,7.5,0,0,0-1.438-1.6c-.12-.108-.248-.21-.384-.311-4.073-3.094-11.938-3.776-18.148-1.053,0,0,0,.016-.009.015a14.662,14.662,0,0,0-7.28,6.581c-1.831,3.54-2.553,6.185-2.14,8.86a9.486,9.486,0,0,0,.338,1.444,1.228,1.228,0,0,0,.048.148,13.785,13.785,0,0,0,1.141,2.659c.072.143.151.278.231.42a9.015,9.015,0,0,0-4.284,4.1A10.852,10.852,0,0,0,981.836,198.568Z" transform="translate(-979.496 -160.978)" fill="#55062c"/><g transform="translate(7.978 22.669)"><path d="M994.123,193.165a6.857,6.857,0,0,1-5.073-1.974,5.431,5.431,0,0,1-.564-.638c-.792-1.071-1.511-5.053,0-6.2a1.772,1.772,0,0,1,2.506.6v0a3.834,3.834,0,0,1,.323.439Z" transform="translate(-987.603 -184.016)" fill="#ffbf90"/><path d="M994.128,193.17a6.857,6.857,0,0,1-5.073-1.974c-.091-.1-.17-.2-.24-.3-.792-1.07-1.511-5.052,0-6.2a1.588,1.588,0,0,1,2.183.258v0a3.834,3.834,0,0,1,.323.439Z" transform="translate(-987.609 -184.021)" fill="#ffa07f"/><path d="M988.412,187.647a1.726,1.726,0,0,0,.206.959c.628,1.285,2.108,2.131,3.521,2.912a3.408,3.408,0,0,1-.732-2.045,7.531,7.531,0,0,0-.017-.76C991.265,187.7,988.644,185.686,988.412,187.647Z" transform="translate(-987.616 -184.06)" fill="#ff7d6f"/><g transform="translate(1.073 2.719)"><path d="M992.841,191.813l-.079-.031c-.05-.023-.131-.049-.224-.1a2.92,2.92,0,0,1-.71-.488,2.614,2.614,0,0,1-.665-1,2.253,2.253,0,0,1-.027-1.434,1.128,1.128,0,0,1,.07-.189l.02-.046c0-.012,0,0,0-.006h0l0-.007-.027-.036-.053-.07c-.036-.047-.072-.093-.109-.138a6.023,6.023,0,0,0-.462-.5,6.313,6.313,0,0,0-.476-.42,3.767,3.767,0,0,0-.457-.324.922.922,0,0,0-.441-.128.662.662,0,0,0-.346.106.341.341,0,0,0-.139.164.35.35,0,0,0-.014.07.161.161,0,0,1,0-.072.316.316,0,0,1,.107-.2.728.728,0,0,1,.389-.182,1.152,1.152,0,0,1,.573.084,3.571,3.571,0,0,1,.549.292,5.659,5.659,0,0,1,.556.4,5.12,5.12,0,0,1,.532.506c.043.046.084.094.124.143l.061.074.081.105.055.074a.764.764,0,0,1-.033.086l-.05.123a1.139,1.139,0,0,0-.059.164,2.37,2.37,0,0,0-.04,1.276,2.691,2.691,0,0,0,.476.974,2.961,2.961,0,0,0,.569.555c.078.06.146.1.189.129Z" transform="translate(-988.694 -186.778)" fill="#fc5b68"/></g></g><g transform="translate(16.817 15.846)"><path d="M1015.143,178.828s-2.675-2.733-3.779-1.361-.518,1.421-.518,1.421Z" transform="translate(-996.81 -177.082)" fill="#55062c"/><path d="M997.036,181.7s3.54-5.381,5.482-3.9c1.134.866.53,1.639.53,1.639Z" transform="translate(-996.592 -177.089)" fill="#55062c"/><path d="M1001.77,182.31a2.739,2.739,0,0,1-1.193,1.331,1.158,1.158,0,0,0-.915-.327c-.815.109-1.333,1.259-1.158,2.567s.978,2.282,1.793,2.173,1.334-1.26,1.158-2.568a3.57,3.57,0,0,0-.325-1.1A4.4,4.4,0,0,0,1001.77,182.31Z" transform="translate(-996.615 -177.165)" fill="#161818"/><path d="M996.893,184.785a3.062,3.062,0,0,0,3.433.882,3.063,3.063,0,0,0-3.433-.882Z" transform="translate(-996.59 -177.201)" fill="#fff"/><path d="M1012.1,182.233a1.889,1.889,0,0,1-.816.918.841.841,0,0,0-.612-.184c-.614.083-1,.949-.873,1.936s.737,1.72,1.352,1.637,1-.949.873-1.936a2.62,2.62,0,0,0-.328-.979A3.255,3.255,0,0,0,1012.1,182.233Z" transform="translate(-996.796 -177.164)" fill="#161818"/><path d="M1012.88,183.633a2.48,2.48,0,0,1-2.191,1.248,2.475,2.475,0,0,1,2.191-1.248Z" transform="translate(-996.81 -177.186)" fill="#fff"/><g transform="translate(9.561 5.255)"><path d="M1007.449,189.716a2.6,2.6,0,0,0-1.148-.144,3.736,3.736,0,0,0,2.273,1.672.426.426,0,0,0,.46-.105,4.394,4.394,0,0,0,1.12-1.3.856.856,0,0,0,.123-.325c.038-.385-.208-.269-.417-.153a3.486,3.486,0,0,1-2.41.357Z" transform="translate(-1006.301 -182.531)" fill="#ff7d6f"/><path d="M1008.658,190.911c.2-.233.432-.44.639-.67a5.83,5.83,0,0,0,.683-.913c-1.324-.673-1.481-1.942-1.615-3.384a4.219,4.219,0,0,1,.274-1.923,4.29,4.29,0,0,1,.489-.9,4.216,4.216,0,0,1,.33-.406,1.5,1.5,0,0,1,.388-.289c-.063.1-.1.2-.156.3a8.133,8.133,0,0,0-.42.76,5.282,5.282,0,0,0-.285.832,5.133,5.133,0,0,0-.135,1.749,4.232,4.232,0,0,0,.5,1.642,3.341,3.341,0,0,0,1.423,1.4s-.7,1.077-.77,1.166a4.353,4.353,0,0,1-.614.634,1.527,1.527,0,0,1-.773.433.482.482,0,0,1-.274-.043.95.95,0,0,0,.126-.133l.048-.065C1008.557,191.032,1008.607,190.971,1008.658,190.911Z" transform="translate(-1006.333 -182.422)" fill="#fc5b68"/></g><path d="M1012.177,189.578c.264.493,1.392.4,2.521-.2s1.829-1.493,1.566-1.986-1.392-.4-2.521.2S1011.913,189.085,1012.177,189.578Z" transform="translate(-996.833 -177.241)" fill="#ff7d6f"/><path d="M996.59,189.512c-.1.809,1.325,1.647,3.179,1.872s3.435-.251,3.534-1.06-1.326-1.648-3.179-1.872S996.687,188.7,996.59,189.512Z" transform="translate(-996.585 -177.262)" fill="#ff7d6f"/></g><path d="M983.283,178.138a9.486,9.486,0,0,0,.338,1.444,1.228,1.228,0,0,0,.048.148,27.258,27.258,0,0,1,3.569-4.428,10.382,10.382,0,0,0,1.44,4.288c1.654-3.592,5.341-5.739,8.869-7.513s7.308-3.573,9.5-6.864q.62,2.992,1.241,5.992a14.529,14.529,0,0,0,2.957-7.159c-.12-.108-.248-.21-.384-.311-4.073-3.094-11.938-3.776-18.148-1.053,0,0,0,.016-.009.015a14.662,14.662,0,0,0-7.28,6.581C983.592,172.817,982.871,175.462,983.283,178.138Z" transform="translate(-979.554 -160.978)" fill="#6f0a32"/></g><g transform="translate(84.404 193.872)"><path d="M1030.422,407.756l-29.467-10,.972-2.908,29.467,10Z" transform="translate(-1000.956 -358.583)" fill="#3f3634"/><path d="M1001.946,394.259l5.94,2.017,1.128.381,22.4,7.6a1.829,1.829,0,0,0-.47-1.725c-1.594-1.524-7.6-6.647-8.947-8.805a13.934,13.934,0,0,1-1.456-5.062c-.039-.309-.071-.586-.091-.8l.194-.417,5.538-12.035,2.877-6.258,2.107-4.576s-11.622-5.4-16.844-6.586l-7.034,25.776A103.584,103.584,0,0,0,1001.946,394.259Z" transform="translate(-1000.972 -357.995)" fill="#ff9000"/><path d="M1007.982,396.754l1.128.381a18.356,18.356,0,0,1,11.525-7.987c-.039-.309-.071-.586-.091-.8l.194-.417A19.424,19.424,0,0,0,1007.982,396.754Z" transform="translate(-1001.068 -358.473)" fill="#3f3634"/><path d="M1015.162,370.869c.224.569,7.553,3.313,11.227,4.657l2.877-6.258c-3.075-1.288-10.511-4.358-11.676-4.313C1016.112,365.019,1014.865,370.109,1015.162,370.869Z" transform="translate(-1001.182 -358.106)" fill="#3f3634"/></g><g transform="translate(70.631 201.244)"><path d="M1018.072,408.135l-31.112-.567L987,404.5l31.112.567Z" transform="translate(-986.959 -366.11)" fill="#3f3634"/><path d="M987,403.878l5.955.112,1.207.02,23.95.438a1.8,1.8,0,0,0-.972-1.5c-1.976-.967-9.257-4.021-11.2-5.668a14.028,14.028,0,0,1-2.96-4.45c-.12-.253-.217-.483-.3-.665l.072-.574,1.7-13.863.843-6.813.513-4.192s-12.714-1.611-18.048-1.153l1.136,26.7A105.415,105.415,0,0,0,987,403.878Z" transform="translate(-986.96 -365.487)" fill="#ffb447"/><path d="M993.051,404.414l1.207.02a21.262,21.262,0,0,1,8.822-11.181c-.12-.253-.217-.483-.3-.665l.072-.574A22.323,22.323,0,0,0,993.051,404.414Z" transform="translate(-987.057 -365.91)" fill="#3f3634"/><path d="M992.046,376.771c.4.491,8.725.884,12.487,1.033l.843-6.813c-3.04-.272-11.673-1-12.814-.586C991.177,370.909,991.531,376.137,992.046,376.771Z" transform="translate(-987.033 -365.563)" fill="#3f3634"/></g><g transform="translate(42.645 66.167)"><g transform="translate(18.502 36.274)"><path d="M977.322,269.792a9.154,9.154,0,0,0,.687,1.087l.012.011c1.27,1.831,3.822,5.128,4.039,5.265.711.469,6.329.893,6.329.893l2.335,3.342a1.4,1.4,0,0,0,.675-.195,6.277,6.277,0,0,0,.778-.481c.057-.045.114-.08.16-.125a19.415,19.415,0,0,0,1.694-1.431c.126-.115.24-.217.354-.333.893-.858,1.591-1.6,1.591-1.6l-1.992-4.84-2.781-2.266,1.935-1.386s7.107,4.762,7.679,3.663-3.228-3.73-5.711-5.436a4.159,4.159,0,0,0-1.385-.561,16.939,16.939,0,0,0-4.532-.286c-.435.023-.858.045-1.259.08-.813.069-1.545.15-2.1.217l-4.017.39-.652.057-2.758,2.827Z" transform="translate(-977.322 -265.081)" fill="#ffa07f"/><g transform="translate(11.475 8.303)"><g transform="translate(0 1.062)"><path d="M992.524,279.745c-.051.041-.107.081-.158.12-.079-.151-.178-.35-.3-.588-.279-.539-.669-1.264-1.106-2.038a13.567,13.567,0,0,0-1.28-1.9c-.1-.116-.192-.22-.272-.315s-.163-.161-.227-.221l-.2-.2s.1.033.274.1c.087.033.195.077.318.13s.247.137.393.223a5.348,5.348,0,0,1,1.754,1.838,6.369,6.369,0,0,1,.76,2.288C992.508,279.4,992.52,279.591,992.524,279.745Z" transform="translate(-988.983 -274.598)" fill="#cf4a57"/></g><g transform="translate(2.108)"><path d="M994.6,277.962c-.112.108-.229.216-.346.327a1.049,1.049,0,0,1-.05-.094c-.281-.539-.67-1.263-1.107-2.035a13.447,13.447,0,0,0-1.28-1.906c-.1-.116-.189-.22-.269-.312s-.166-.161-.227-.223l-.2-.2s.094.032.271.1c.087.034.2.076.318.131s.249.137.394.222a5.326,5.326,0,0,1,1.753,1.84A6.293,6.293,0,0,1,994.6,277.962Z" transform="translate(-991.125 -273.519)" fill="#cf4a57"/></g></g></g><path d="M977.709,270.291l.012.011,1.087-1.373,2.8-3.559-.092-.16-9.224-16.55,8.286-14.088-7.7-4.909-2.277-1.443s-11.628,16.492-12.063,19.216C957.829,251.887,977.113,269.741,977.709,270.291Z" transform="translate(-958.52 -228.219)" fill="#ffa07f"/><path d="M977.709,270.291l.012.011c1.27,1.831,3.822,5.128,4.039,5.265.711.469,6.329.893,6.329.893l-5.86-2.6-3.422-4.932-.012-.012s-.252-.3-.687-.824c-3.2-3.777-16.24-19.342-16.114-20.979.114-1.522,8.056-13.31,10.883-17.453l-2.277-1.443s-11.628,16.492-12.063,19.216C957.829,251.887,977.113,269.741,977.709,270.291Z" transform="translate(-958.52 -228.219)" fill="#ff7d6f"/></g><path d="M983.359,236.639l2.575-3.219-14.807-9.227-1.931,3.433Z" transform="translate(-916.045 -161.987)" fill="#fff"/><path d="M1018.356,245.409c0,1.187.589,2.149,1.318,2.149s1.318-.962,1.318-2.149-.59-2.15-1.318-2.15S1018.356,244.221,1018.356,245.409Z" transform="translate(-916.83 -162.292)" fill="#5783b2"/><path d="M1001.375,246.169c0,1.187.589,2.149,1.318,2.149s1.318-.962,1.318-2.149-.59-2.15-1.318-2.15S1001.375,244.981,1001.375,246.169Z" transform="translate(-916.559 -162.304)" fill="#5783b2"/></g></g><g transform="translate(948.859 153.141)"><g transform="translate(73.878 15.509)"><g transform="translate(4.063 6)"><path d="M1028.69,180.8l13.768-5.8.813,8.276Z" transform="translate(-1028.69 -174.999)" fill="#ffb447"/></g><path d="M1024.561,178.048l2.108-9.146,4.6,2.354Z" transform="translate(-1024.561 -168.901)" fill="#ffb447"/><g transform="translate(2.308 18.11)"><path d="M1026.906,187.305l9.372,3.38-2.013,4.294Z" transform="translate(-1026.906 -187.305)" fill="#ffb447"/></g></g><path d="M960.583,208.75l-.578-1.824-.579,1.824a8.1,8.1,0,0,1-3.835,4.659h0a8.094,8.094,0,0,1,3.834,4.659l.579,1.823.578-1.823a8.092,8.092,0,0,1,3.835-4.659h0A8.1,8.1,0,0,1,960.583,208.75Z" transform="translate(-949.582 -153.999)" fill="#fff"/><path d="M1042.283,272.509l-.578-1.823-.578,1.823a8.1,8.1,0,0,1-3.835,4.659h0a8.106,8.106,0,0,1,3.835,4.659l.578,1.824.578-1.824a8.105,8.105,0,0,1,3.835-4.659h0A8.1,8.1,0,0,1,1042.283,272.509Z" transform="translate(-950.886 -155.017)" fill="#fff"/><path d="M954.476,258.86l-.579-1.823-.578,1.823a8.092,8.092,0,0,1-3.835,4.659h0a8.1,8.1,0,0,1,3.835,4.659L953.9,270l.579-1.824a8.1,8.1,0,0,1,3.834-4.659h0A8.094,8.094,0,0,1,954.476,258.86Z" transform="translate(-949.485 -154.799)" fill="#fff"/><path d="M1055.524,247.069l-.344-1.084-.343,1.084a4.816,4.816,0,0,1-2.281,2.771h0a4.821,4.821,0,0,1,2.281,2.772l.343,1.084.344-1.084a4.817,4.817,0,0,1,2.281-2.772h0A4.813,4.813,0,0,1,1055.524,247.069Z" transform="translate(-951.13 -154.623)" fill="#fff"/><path d="M966.831,301.056l-.344-1.085-.343,1.085a4.816,4.816,0,0,1-2.281,2.771h0a4.816,4.816,0,0,1,2.281,2.771l.343,1.085.344-1.085a4.818,4.818,0,0,1,2.28-2.771h0A4.818,4.818,0,0,1,966.831,301.056Z" transform="translate(-949.714 -155.485)" fill="#fff"/><path d="M1022.4,154.226l-.343-1.085-.344,1.085a4.814,4.814,0,0,1-2.28,2.771h0a4.814,4.814,0,0,1,2.28,2.771l.344,1.085.343-1.085a4.816,4.816,0,0,1,2.281-2.771h0A4.816,4.816,0,0,1,1022.4,154.226Z" transform="translate(-950.601 -153.141)" fill="#fff"/><path d="M969.5,176.37l-.344-1.084-.343,1.084a4.816,4.816,0,0,1-2.281,2.771h0a4.816,4.816,0,0,1,2.281,2.771l.343,1.085.344-1.085a4.818,4.818,0,0,1,2.28-2.771h0A4.818,4.818,0,0,1,969.5,176.37Z" transform="translate(-949.757 -153.494)" fill="#fff"/></g></g></g></svg>