<svg xmlns="http://www.w3.org/2000/svg" width="400" height="295.136" viewBox="0 0 400 295.136"><g transform="translate(-1020 -399.932)"><g transform="translate(161.252 179.187)"><g transform="translate(1079.796 220.745)"><path d="M1303.723,546.019a391.31,391.31,0,0,1-178.952,0,391.307,391.307,0,0,1,178.952,0Z" transform="translate(-1124.771 -283.258)" fill="#e8e8e8"/><g transform="translate(26.215)"><g transform="translate(10.361 16.847)"><g transform="translate(3.051)"><path d="M1192.493,257.718l-17.809-5.881,6.063-8.5Z" transform="translate(-1174.684 -239.867)" fill="#ffb447"/><path d="M1196.094,268.837l-9.544,6.91-2.409-6.025Z" transform="translate(-1176.633 -245.121)" fill="#ffb447"/><path d="M1204.192,252.3l-6.074-10.934,5.449-2.4Z" transform="translate(-1179.513 -238.966)" fill="#ffb447"/></g><path d="M1188.713,364.608l-.656-2.071-.657,2.071a9.2,9.2,0,0,1-4.354,5.291h0a9.2,9.2,0,0,1,4.354,5.291l.657,2.071.656-2.071a9.2,9.2,0,0,1,4.355-5.291h0A9.2,9.2,0,0,1,1188.713,364.608Z" transform="translate(-1173.356 -264.431)" fill="#fff"/><path d="M1310.2,388.41l-.656-2.071-.657,2.071a9.2,9.2,0,0,1-4.354,5.292h0a9.2,9.2,0,0,1,4.354,5.291l.657,2.071.656-2.071a9.2,9.2,0,0,1,4.355-5.291h0A9.2,9.2,0,0,1,1310.2,388.41Z" transform="translate(-1198.391 -269.335)" fill="#fff"/><path d="M1200.046,396.338l-.391-1.232-.391,1.232a5.468,5.468,0,0,1-2.59,3.147h0a5.464,5.464,0,0,1,2.59,3.146l.391,1.232.391-1.232a5.464,5.464,0,0,1,2.59-3.146h0A5.468,5.468,0,0,1,1200.046,396.338Z" transform="translate(-1176.165 -271.142)" fill="#fff"/><path d="M1174.211,306.114l-.391-1.231-.39,1.231a5.475,5.475,0,0,1-2.59,3.147h0a5.475,5.475,0,0,1,2.59,3.147l.39,1.231.391-1.231a5.471,5.471,0,0,1,2.59-3.147h0A5.471,5.471,0,0,1,1174.211,306.114Z" transform="translate(-1170.841 -252.549)" fill="#fff"/><path d="M1297.356,285.654l-.391-1.232-.391,1.232a5.469,5.469,0,0,1-2.59,3.147h0a5.468,5.468,0,0,1,2.59,3.146l.391,1.232.391-1.232a5.467,5.467,0,0,1,2.59-3.146h0A5.469,5.469,0,0,1,1297.356,285.654Z" transform="translate(-1196.218 -248.333)" fill="#fff"/></g><path d="M1261.357,220.623l23.847,29.409-26.214,10.8-7.617-28.359,6.766-14.118Z" transform="translate(-1177.075 -217.871)" fill="#3f3634"/><path d="M1221.161,294.488s-3.335,3.263-3.766,5.169-2.337,25.929-2.337,25.929l9.621,3.868.4-19.357Z" transform="translate(-1169.592 -233.56)" fill="#ff663a"/><g transform="translate(28.517 62.939)"><path d="M1193.737,307.1a3.3,3.3,0,0,0,.04,1.084l0,.01a8.5,8.5,0,0,0,.988,2.445c.466.868.9,1.768,1.328,2.672.361.757.716,1.512,1.086,2.249.211.439.431.859.657,1.282l.672,3.033s.235.777.656,2.115l2.868-.5,0-.009,3.434-.6,1.9-.333-.637-2.634-.577-2.375a25.619,25.619,0,0,0,5.311-8.478c.182-.515.325-1.05.479-1.57a.01.01,0,0,0,.006-.013,13.983,13.983,0,0,1,.776-2.237,25,25,0,0,1,2.521-3.646c.133-.188.262-.386.385-.586a1.652,1.652,0,0,0,.346-1.095c0-.016-.013-.037-.014-.053a1.2,1.2,0,0,0-1.07-.841,1.641,1.641,0,0,0-.215-.006,3.358,3.358,0,0,0-1.239.358c-.05.024-.106.061-.146.081a10.635,10.635,0,0,0-4.8,4.806,1.508,1.508,0,0,1-.518.705,1.276,1.276,0,0,1-.782.077,6.281,6.281,0,0,1-2.914-1.32,10.582,10.582,0,0,1-1.205-1.105c-.006,0-.006,0-.01-.013a3.7,3.7,0,0,0-1.563-1.207,2.08,2.08,0,0,0-1.509.25.694.694,0,0,0-.081.04,5.961,5.961,0,0,0-1.029.75c-.166.142-.325.287-.485.447a27.955,27.955,0,0,0-3.446,3.783A5.3,5.3,0,0,0,1193.737,307.1Z" transform="translate(-1193.709 -297.021)" fill="#ff7d6f"/><path d="M1217.4,297.918a1.66,1.66,0,0,1-.343,1.1c-.125.2-.257.4-.39.586a25.16,25.16,0,0,0-2.515,3.643,13.39,13.39,0,0,0-.777,2.24.007.007,0,0,1-.007.007c-.152.525-.3,1.056-.476,1.575a25.655,25.655,0,0,1-5.314,8.474l1.214,5.014-1.9.333-3.435.606-2.864.5,1.159-5.715c2.48-2.04,7.462-5.958,9.688-9.281a7.966,7.966,0,0,0,.9-1.7c.218-.626.42-1.274.637-1.915a8.9,8.9,0,0,1,1.812-3.4c.047-.052.094-.1.142-.148.484-.526,1.011-1.211.758-1.751a.8.8,0,0,0-.123-.192,2.293,2.293,0,0,0-.842-.434c.041-.023.1-.054.144-.078a3.282,3.282,0,0,1,1.244-.357,1,1,0,0,1,.213,0,1.188,1.188,0,0,1,1.068.841A.123.123,0,0,1,1217.4,297.918Z" transform="translate(-1195.126 -297.021)" fill="#ffa07f"/><path d="M1202.7,310.312a11.361,11.361,0,0,0-2.552,4.655,9.056,9.056,0,0,1,1.421-4.974,5.386,5.386,0,0,1,4.4-2.438,2.4,2.4,0,0,1,.972.158c-.418.483-1.572.63-2.162.961A8.734,8.734,0,0,0,1202.7,310.312Z" transform="translate(-1195.036 -299.191)" fill="#fc5b68"/></g><path d="M1238.452,218.68l-80.309,124.9a2.222,2.222,0,0,0,.539,2.982h0a2.222,2.222,0,0,0,3.2-.583l80-125.1a2.037,2.037,0,0,0-.8-2.916h0A2.036,2.036,0,0,0,1238.452,218.68Z" transform="translate(-1157.79 -217.745)" fill="#a97149"/><g transform="translate(28.043 63.81)"><path d="M1193.112,307.68a11.651,11.651,0,0,0,4.672,3.712,6.8,6.8,0,0,0,1.558-1.26c.214-.216.422-.451.625-.7a18.052,18.052,0,0,0,1.288-1.8c.181-.277.356-.561.525-.846.447-.765.858-1.539,1.219-2.275.16-.314.3-.621.445-.915.372-.8.674-1.512.892-2.046.253-.618.393-1,.393-1-1.949-1.678-5.949-2.435-5.949-2.435a9.972,9.972,0,0,0-2.144,2.094A23.058,23.058,0,0,0,1193.112,307.68Z" transform="translate(-1193.112 -298.118)" fill="#ffa07f"/><g transform="translate(2.917 3.9)"><g transform="translate(3.628)"><path d="M1201.356,303.036s.255.255.657.6a15.533,15.533,0,0,0,1.574,1.225c.384.256.765.475,1.111.66.16-.314.3-.621.445-.915a4.951,4.951,0,0,0-.881-.759,5.044,5.044,0,0,0-2-.764A4.2,4.2,0,0,0,1201.356,303.036Z" transform="translate(-1201.356 -303.031)" fill="#cf4a57"/></g><g transform="translate(2.159 3.133)"><path d="M1199.505,306.978s.223.264.582.621a11.4,11.4,0,0,0,1.45,1.233,10.552,10.552,0,0,0,1.036.629c.181-.277.357-.561.525-.846a4.681,4.681,0,0,0-.864-.784,4.914,4.914,0,0,0-1.867-.772A4.3,4.3,0,0,0,1199.505,306.978Z" transform="translate(-1199.505 -306.977)" fill="#cf4a57"/></g><g transform="translate(0 5.486)"><path d="M1196.786,309.941s.229.279.61.66a11.343,11.343,0,0,0,1.555,1.3,9.761,9.761,0,0,0,1.148.668c.214-.216.422-.451.625-.7a5.556,5.556,0,0,0-1.089-.974,5.686,5.686,0,0,0-1.949-.83A4.878,4.878,0,0,0,1196.786,309.941Z" transform="translate(-1196.786 -309.941)" fill="#cf4a57"/></g></g><path d="M1197.553,300.212a6.917,6.917,0,0,1,2.519-.418,8.4,8.4,0,0,1,2.288.522,16.046,16.046,0,0,1,2.56,1,2.207,2.207,0,0,1,.333.239c.253-.618.393-1,.393-1-1.949-1.678-5.949-2.435-5.949-2.435A9.97,9.97,0,0,0,1197.553,300.212Z" transform="translate(-1194.027 -298.118)" fill="#ffbf90"/></g><path d="M1219.734,332.4l-1.405,7.695-.014.064-3.9,11.946c-8.822-2.668-13.827-25.214-13.827-25.214l6.8-6.088,4.693,8.316Z" transform="translate(-1166.609 -238.984)" fill="#ffa07f"/><path d="M1222.715,334.563l-1.405,7.7-6.255-10.976Z" transform="translate(-1169.591 -241.142)" fill="#d9471c"/><g transform="translate(25.752 130.241)"><path d="M1239.234,430.435l-16.915,17.341s11.912,26.9,20.539,28.235c5.717.883,18.293-7.961,18.62-13.737C1262.028,452.579,1239.234,430.435,1239.234,430.435Z" transform="translate(-1196.84 -391.816)" fill="#a97149"/><path d="M1212.707,382.5l23.855-.706c-.844,12.892-2.018,36.191.153,40.982.065.144.551.9,1.346,2.109l-19.006,17.855s-7.322-11.227-8.292-15.517C1208.294,416.3,1212.717,384.668,1212.707,382.5Z" transform="translate(-1194.304 -381.792)" fill="#a97149"/><g transform="translate(15.179 0.65)"><path d="M1258.913,382.611a.286.286,0,0,0-.014.037.635.635,0,0,0-.039.115c-1.151,3.095-19.516,52.8-24.112,64.821,0,0,.761,21.832-2.964,24.74A9.2,9.2,0,0,1,1228,473.8c-5.519,1.1-14.118.047-16.774-3.128-5.037-6.008,1.65-31.314,1.65-31.314l16.373-56.009,23.6-.583Z" transform="translate(-1209.345 -382.611)" fill="#c78b5f"/></g><path d="M1216.87,460.343c1.339,2.4,4.055,2.237,6.127-.114a9.918,9.918,0,0,0,2.352-4.513,6.706,6.706,0,0,0-.846-5.01,3.93,3.93,0,0,0-4.187-1.75c-1.819.522-2.979,2.513-3.609,4.475a10.38,10.38,0,0,0-.491,5A6.253,6.253,0,0,0,1216.87,460.343Z" transform="translate(-1195.555 -395.608)" fill="#e0a27b"/><path d="M1263.755,382.611a.286.286,0,0,0-.014.037.833.833,0,0,1-.039.115c-1.151,3.095-19.516,52.8-24.112,64.821,0,0,.761,21.832-2.964,24.74a9.2,9.2,0,0,1-3.788,1.481c1.128-11.784,2.371-26.94,2.908-29.3.955-4.131,18.786-53.083,21.94-61.738Z" transform="translate(-1199.007 -381.961)" fill="#a97149"/><g transform="translate(0 89.325)"><path d="M1190.226,547.5l34.14,2.541.266-3.363-34.14-2.541Z" transform="translate(-1190.226 -504.573)" fill="#3f3634"/><path d="M1224.7,536.409l-6.536-.483-1.324-.1-26.281-1.955a1.986,1.986,0,0,1,1.219-1.545c2.263-.859,10.548-3.464,12.839-5.071a15.446,15.446,0,0,0,3.7-4.574c.157-.265.286-.507.393-.7l-.02-.636-.455-15.358-.231-7.55-.121-4.134s13.941.017,19.738,1.061l-3.821,28.127A115.727,115.727,0,0,1,1224.7,536.409Z" transform="translate(-1190.296 -494.303)" fill="#ffb447"/><path d="M1222.777,542.945l-1.324-.1a23.393,23.393,0,0,0-8.528-13.144c.157-.265.287-.507.393-.7l-.02-.636A24.556,24.556,0,0,1,1222.777,542.945Z" transform="translate(-1194.904 -501.322)" fill="#3f3634"/><path d="M1226.546,507.2c-.487.5-9.647.081-13.784-.137l-.231-7.55c3.357.012,12.889.09,14.1.66C1228.094,500.864,1227.174,506.555,1226.546,507.2Z" transform="translate(-1194.823 -495.376)" fill="#3f3634"/></g><g transform="translate(48.434 72.069)"><path d="M1268.916,536.987l27.634-20.208-1.979-2.732-27.634,20.208Z" transform="translate(-1254.469 -481.116)" fill="#3f3634"/><path d="M1291.336,505.5l-5.287,3.871-1.073.783L1263.7,525.707a1.985,1.985,0,0,1-.075-1.966c1.166-2.122,5.783-9.478,6.484-12.188a15.426,15.426,0,0,0-.153-5.877c-.052-.3-.111-.572-.155-.788l-.427-.471-10.307-11.4-5.073-5.6-2.766-2.83s10.747-9.063,15.836-12.028l15.2,23.684A115.483,115.483,0,0,1,1291.336,505.5Z" transform="translate(-1251.232 -472.568)" fill="#ff9000"/><path d="M1290.759,517.616l-1.073.783a23.382,23.382,0,0,0-15.016-4.475c-.052-.3-.111-.572-.155-.788l-.427-.471A24.555,24.555,0,0,1,1290.759,517.616Z" transform="translate(-1255.942 -480.816)" fill="#3f3634"/><path d="M1270.369,485.793c-.048.695-7.291,6.319-10.58,8.836l-5.073-5.6c2.564-2.168,9.869-8.291,11.159-8.641C1267.439,479.97,1270.431,484.9,1270.369,485.793Z" transform="translate(-1251.95 -474.175)" fill="#3f3634"/></g></g><g transform="translate(77.042 105.16)"><g transform="translate(4.356 32.841)"><path d="M1260.553,414.849c-.067-.53-1.57-13.038,3.947-19.513a11.31,11.31,0,0,1,16.3-.576c6.008,6.132,5.376,18.938,5.346,19.48l-2.136-.118c.007-.123.608-12.413-4.741-17.868a9.174,9.174,0,0,0-13.143.469c-4.91,5.764-3.467,17.737-3.452,17.858Z" transform="translate(-1260.317 -391.566)" fill="#86938e"/></g><g transform="translate(6.437)"><g transform="translate(0 27.335)"><path d="M1263.166,398c.992.8,5.683-6.631,5.683-6.631l2.39.491-1.67,3.287.146,5.371s.961.41,2.167.842c.15.056.3.108.461.162a20.805,20.805,0,0,0,2.19.644c.065.018.134.031.2.047a6.516,6.516,0,0,0,.937.129,1.454,1.454,0,0,0,.715-.1l.8-4.111s5.091-2.722,5.565-3.46a12.945,12.945,0,0,0,.161-3.55c-.024-.83-.139-4.06-.179-4.873l-3.429-1.62-4.569,1.529c-.546.161-1.266.387-2.058.668l0,0c-.39.137-.8.289-1.209.449a17.7,17.7,0,0,0-4.138,2.156,4.28,4.28,0,0,0-1.059,1.1C1264.636,393.17,1262.176,397.21,1263.166,398Z" transform="translate(-1262.938 -384.631)" fill="#ffa07f"/><g transform="translate(8.714 11.12)"><g transform="translate(2.418 0.12)"><path d="M1277.423,405.089c.065.018.134.031.2.047.011-.174.021-.4.037-.676.038-.623.1-1.465.19-2.373a14.014,14.014,0,0,1,.409-2.318c.046-.15.087-.287.124-.407s.086-.22.121-.3l.1-.269s-.078.071-.214.207c-.068.067-.152.153-.245.254s-.174.23-.275.374a5.487,5.487,0,0,0-.88,2.453,6.554,6.554,0,0,0,.24,2.462C1277.3,404.76,1277.363,404.943,1277.423,405.089Z" transform="translate(-1276.96 -398.788)" fill="#cf4a57"/></g><path d="M1274.144,404.252c.15.056.3.108.461.162.006-.035.006-.073.009-.109.037-.622.1-1.464.191-2.37a13.832,13.832,0,0,1,.408-2.321c.045-.15.085-.285.122-.4s.088-.221.12-.3l.1-.268s-.075.07-.214.2c-.067.069-.152.153-.244.256s-.176.232-.276.372a5.476,5.476,0,0,0-.879,2.456A6.463,6.463,0,0,0,1274.144,404.252Z" transform="translate(-1273.914 -398.637)" fill="#cf4a57"/></g></g><path d="M1277.834,380.842l2.024-28.738,12.2-1.9-6.186,30.753Z" transform="translate(-1266.008 -350.201)" fill="#ffa07f"/></g><g transform="translate(0 37.971)"><g transform="translate(4.212 2.059)"><path d="M1267.336,406.087a6.317,6.317,0,0,1,3.073.017,4.88,4.88,0,0,1,2.911,2.828,6.412,6.412,0,0,1-2.555,7.733,7.129,7.129,0,0,1-8.038-1.058c-1.752-1.666-1.605-5.306-.145-7.062A8.085,8.085,0,0,1,1267.336,406.087Z" transform="translate(-1260.406 -401.711)" fill="#e14545"/><path d="M1267.948,406.973a12.592,12.592,0,0,1-.808-6.351c.386.054.76.173,1.146.227C1268.276,402.876,1267.726,404.958,1267.948,406.973Z" transform="translate(-1261.557 -400.622)" fill="#3f3634"/><path d="M1266.4,406.959a5.162,5.162,0,0,0-6.26-4.167,5.036,5.036,0,0,0,1.99,3.354A6.211,6.211,0,0,0,1266.4,406.959Z" transform="translate(-1260.135 -401.042)" fill="#009f78"/></g><g transform="translate(16.643)"><path d="M1285.856,406.166a6.311,6.311,0,0,1,2.113,2.229,4.882,4.882,0,0,1-.027,4.059,6.413,6.413,0,0,1-7.351,3.506,7.129,7.129,0,0,1-4.8-6.536c-.01-2.417,2.72-4.83,5-4.991A8.092,8.092,0,0,1,1285.856,406.166Z" transform="translate(-1275.793 -399.345)" fill="#e14545"/><path d="M1286.2,406.557a12.6,12.6,0,0,1,4.026-4.977c.228.316.4.668.629.984C1289.387,403.96,1287.5,405,1286.2,406.557Z" transform="translate(-1277.938 -398.76)" fill="#3f3634"/><path d="M1285.855,405.431a5.161,5.161,0,0,0-1.323-7.4,5.034,5.034,0,0,0-1.044,3.756A6.206,6.206,0,0,0,1285.855,405.431Z" transform="translate(-1277.368 -398.028)" fill="#009f78"/></g><g transform="translate(21.384 5.399)"><path d="M1291.822,412.961a6.312,6.312,0,0,1,2.117,2.225,4.879,4.879,0,0,1-.019,4.059,6.414,6.414,0,0,1-7.344,3.52,7.13,7.13,0,0,1-4.81-6.527c-.015-2.418,2.711-4.835,4.989-5A8.083,8.083,0,0,1,1291.822,412.961Z" transform="translate(-1281.765 -406.146)" fill="#ff5656"/><path d="M1292.169,413.353a12.6,12.6,0,0,1,4.017-4.985c.229.315.4.668.631.983C1295.349,410.75,1293.467,411.8,1292.169,413.353Z" transform="translate(-1283.909 -405.558)" fill="#3f3634"/><path d="M1291.818,412.228a5.161,5.161,0,0,0-1.337-7.4,5.032,5.032,0,0,0-1.037,3.758A6.212,6.212,0,0,0,1291.818,412.228Z" transform="translate(-1283.336 -404.828)" fill="#009f78"/></g><g transform="translate(0 7.542)"><path d="M1262.031,412.993a6.315,6.315,0,0,1,3.073.017,4.88,4.88,0,0,1,2.911,2.828,6.413,6.413,0,0,1-2.555,7.733,7.129,7.129,0,0,1-8.038-1.057c-1.752-1.666-1.605-5.306-.145-7.063A8.089,8.089,0,0,1,1262.031,412.993Z" transform="translate(-1255.101 -408.617)" fill="#ff5656"/><path d="M1262.643,413.879a12.6,12.6,0,0,1-.808-6.351c.386.054.76.172,1.146.227C1262.971,409.782,1262.421,411.863,1262.643,413.879Z" transform="translate(-1256.251 -407.528)" fill="#3f3634"/><path d="M1261.09,413.865a5.162,5.162,0,0,0-6.26-4.167,5.036,5.036,0,0,0,1.99,3.354A6.209,6.209,0,0,0,1261.09,413.865Z" transform="translate(-1254.83 -407.948)" fill="#009f78"/></g><g transform="translate(10.891 4.689)"><path d="M1275.748,409.4a6.315,6.315,0,0,1,3.073.016,4.882,4.882,0,0,1,2.911,2.828,6.414,6.414,0,0,1-2.554,7.734,7.128,7.128,0,0,1-8.038-1.058c-1.753-1.665-1.606-5.3-.145-7.062A8.086,8.086,0,0,1,1275.748,409.4Z" transform="translate(-1268.819 -405.023)" fill="#ff5656"/><path d="M1276.36,410.285a12.592,12.592,0,0,1-.808-6.351c.386.055.76.173,1.146.227C1276.688,406.189,1276.138,408.27,1276.36,410.285Z" transform="translate(-1269.969 -403.934)" fill="#3f3634"/><path d="M1274.808,410.272a5.161,5.161,0,0,0-6.26-4.167,5.033,5.033,0,0,0,1.989,3.353A6.212,6.212,0,0,0,1274.808,410.272Z" transform="translate(-1268.548 -404.354)" fill="#009f78"/></g><g transform="translate(0.257 17.963)"><path d="M1288.515,420.653s-.194,1.669-.551,4.258c-.093.68-.2,1.425-.3,2.22-1.39,9.728-4.278,27.009-7.321,27.231l-16.634.959c-3.407-4.4-6.2-18.7-7.6-27.043-.132-.785-.252-1.519-.359-2.188-.383-2.461-.6-4.021-.6-4.021Z" transform="translate(-1255.154 -420.653)" fill="#adb9b4"/><path d="M1288.118,426.016c-.093.68-.2,1.425-.3,2.22l-31.554,1.146c-.132-.785-.252-1.519-.359-2.188Z" transform="translate(-1255.309 -421.758)" fill="#d0e2d9"/></g></g></g><g transform="translate(41.984 52.489)"><path d="M1259.418,366.625s-3.431.228-8.323.407c-1.662.064-3.495.113-5.42.156-3.866.079-8.109.093-12.089-.05-.491-.013-1-.035-1.5-.064a82.476,82.476,0,0,1-11.24-1.262c-1.477-.272-2.938-.6-4.358-.977a42.682,42.682,0,0,1-5.819-1.982s10.106-36.4,9.556-38.669.029-31.573.029-31.573l2.718-1.055,4.158-1.612,9.243-3.58,9.207-.984,7.388,2.668h.007l4.2,1.512,3.573,1.291S1263.262,343.918,1259.418,366.625Z" transform="translate(-1210.672 -284.172)" fill="#ff663a"/><path d="M1241.032,285.065s-6.719,2.782-7.147,3.8,1.344,2.459,1.344,2.459L1240.006,326l12.2-35.269s4.125-2.526,4.129-3.508-5.967-3.363-5.967-3.363Z" transform="translate(-1215.442 -283.859)" fill="#fff"/><path d="M1228.643,291.127v34.4L1222.36,367c-1.477-.272-2.938-.6-4.358-.977l5.819-40.409.664-32.87S1225.227,291.05,1228.643,291.127Z" transform="translate(-1212.183 -285.356)" fill="#3f3634"/><path d="M1260.109,367.7c-1.662.064-3.495.114-5.42.156-.086-5.469-.585-39.175.014-42.206.641-3.309,7.281-36.936,7.281-36.936h.007c2.111-.507,4.2,1.512,4.2,1.512s-6.8,34.276-7.053,35.424C1258.9,326.744,1260.016,364.493,1260.109,367.7Z" transform="translate(-1219.686 -284.843)" fill="#3f3634"/></g><g transform="translate(52.415 12.066)"><path d="M1224.372,237.01s-3,3.8,4.86,8.051,28.621,12.285,30.57,12a3.744,3.744,0,0,0,2.7-2.252l-7.651-5.484-22.51-10.655Z" transform="translate(-1223.81 -233.781)" fill="#ff9000"/><g transform="translate(2.672 5.466)"><g transform="translate(11.45 26.869)"><path d="M1241.6,289.848l10.158-4.649a32.24,32.24,0,0,0,.1-6.56c-.16-2.674-.442-4.968-.442-4.968l-9.612,2.244.735,6.233.214,1.8Z" transform="translate(-1241.598 -273.671)" fill="#ffa07f"/><path d="M1241.856,275.915l.735,6.233a10.465,10.465,0,0,0,6.062-1.333,25.358,25.358,0,0,0,3.257-2.177c-.16-2.674-.442-4.968-.442-4.968Z" transform="translate(-1241.651 -273.671)" fill="#ff7d6f"/></g><g transform="translate(1.457 3.882)"><g transform="translate(1.077)"><path d="M1251.216,268.262a4.9,4.9,0,0,1-1.547,1.644h0a10.383,10.383,0,0,1-.877.59c-1.276.769-12.958,4.7-14.679,4.324s-2.879-6.482-2.918-7.118c-.248-3.9-.825-15.946-.825-15.946,5.338-12.644,20.1-4.683,21.742-3.267S1251.216,268.262,1251.216,268.262Z" transform="translate(-1230.368 -244.717)" fill="#ffa07f"/><path d="M1249.881,275.873a10.4,10.4,0,0,1-.876.59c-1.276.769-12.958,4.7-14.679,4.325s-2.879-6.482-2.918-7.118c.872,2.713,1.8,6.443,3.045,6.426C1236.321,280.07,1248.452,276.484,1249.881,275.873Z" transform="translate(-1230.582 -250.683)" fill="#ffbf90"/></g><g transform="translate(0 6.557)"><path d="M1232.35,257.523s.952-3.353,2.433-2.735,1.034.913,1.034.913Z" transform="translate(-1229.7 -253.334)" fill="#55062c"/><path d="M1250.924,255.756s-4.231-4.07-5.659-2.361c-.834,1-.141,1.564-.141,1.564Z" transform="translate(-1232.276 -252.976)" fill="#55062c"/><path d="M1232.877,268.79c-.217.461-1.248.434-2.3-.062s-1.737-1.271-1.521-1.732,1.248-.434,2.3.062S1233.093,268.329,1232.877,268.79Z" transform="translate(-1229.012 -255.797)" fill="#ff7d6f"/><path d="M1249.784,267.7c.128.733-1.127,1.563-2.8,1.857s-3.14-.063-3.268-.8,1.127-1.563,2.8-1.856S1249.656,266.971,1249.784,267.7Z" transform="translate(-1232.039 -255.826)" fill="#ff7d6f"/><g transform="translate(6.121 6.157)"><path d="M1237.236,268.262a.928.928,0,0,0,.577.461,3.707,3.707,0,0,0,1.066.332c.372.046.657-.191,1.01-.315a1.245,1.245,0,0,0,.738-1.613,3.93,3.93,0,0,1-2.959.323C1237.5,267.684,1237.143,268,1237.236,268.262Z" transform="translate(-1236.824 -262.049)" fill="#ff7d6f"/><path d="M1238.928,260.731a8.7,8.7,0,0,1-1.472,6.2,2.954,2.954,0,0,0,2.727.271,2.042,2.042,0,0,1-1.816.77,2.1,2.1,0,0,1-1.647-1.136A20.606,20.606,0,0,0,1238.928,260.731Z" transform="translate(-1236.721 -260.731)" fill="#fc5b68"/></g><path d="M1235.6,271.934l6.241-.466s.216,3.269-2.812,3.338A3.338,3.338,0,0,1,1235.6,271.934Z" transform="translate(-1230.369 -256.787)" fill="#fff"/><g transform="translate(2.548 5.634)"><path d="M1233.327,261.749c-.061.963.376,1.774.976,1.812s1.135-.713,1.195-1.675-.376-1.774-.976-1.812S1233.387,260.786,1233.327,261.749Z" transform="translate(-1232.448 -260.072)" fill="#161818"/><path d="M1232.221,261.043a2.4,2.4,0,0,0,2.2,1.057,2.4,2.4,0,0,0-2.2-1.057Z" transform="translate(-1232.221 -260.271)" fill="#fff"/></g><g transform="translate(14.16 3.986)"><path d="M1249.491,260.2c-.074,1.169-.723,2.08-1.452,2.035s-1.258-1.031-1.185-2.2.723-2.08,1.451-2.035S1249.564,259.03,1249.491,260.2Z" transform="translate(-1246.847 -257.997)" fill="#161818"/><path d="M1250.953,259.551a2.915,2.915,0,0,1-2.817.939,2.92,2.92,0,0,1,2.817-.939Z" transform="translate(-1247.112 -258.305)" fill="#fff"/></g></g></g><g transform="translate(21.684 18.021)"><path d="M1254.488,272.258a7.107,7.107,0,0,0,5.144-2.321,5.613,5.613,0,0,0,.549-.691c.761-1.151,1.288-5.313-.343-6.421-1.143-.776-2.1.139-2.562.758v0a4.064,4.064,0,0,0-.31.472Z" transform="translate(-1254.488 -262.527)" fill="#ffbf90"/><path d="M1254.488,272.355a7.107,7.107,0,0,0,5.144-2.321c.088-.111.166-.218.233-.32.761-1.151,1.289-5.312-.343-6.42a1.647,1.647,0,0,0-2.245.387v0a4.062,4.062,0,0,0-.31.472Z" transform="translate(-1254.488 -262.623)" fill="#ffa07f"/><path d="M1260.623,266.924a1.8,1.8,0,0,1-.16,1.005c-.581,1.364-2.067,2.321-3.487,3.206a3.531,3.531,0,0,0,.647-2.157c-.008-.262-.043-.526-.025-.787C1257.673,267.14,1260.276,264.908,1260.623,266.924Z" transform="translate(-1255.001 -263.265)" fill="#ff7d6f"/><g transform="translate(1.27 2.809)"><path d="M1256.088,271.471l.079-.037c.051-.026.133-.058.226-.112a3.019,3.019,0,0,0,.71-.544,2.7,2.7,0,0,0,.634-1.069,2.337,2.337,0,0,0-.05-1.486,1.376,1.376,0,0,0-.083-.191l-.023-.047,0-.006v0h0l0-.007.025-.038.052-.076c.035-.05.069-.1.106-.148a6.071,6.071,0,0,1,.451-.545,6.512,6.512,0,0,1,.47-.46,3.862,3.862,0,0,1,.456-.36.946.946,0,0,1,.449-.156.687.687,0,0,1,.364.091.356.356,0,0,1,.152.162.27.27,0,0,1,.017.072.165.165,0,0,0,0-.075.332.332,0,0,0-.123-.2.762.762,0,0,0-.413-.168,1.185,1.185,0,0,0-.587.118,3.733,3.733,0,0,0-.552.332,5.607,5.607,0,0,0-.554.442,5.105,5.105,0,0,0-.524.552c-.042.051-.081.1-.121.155l-.059.08-.078.113-.054.079c.01.029.027.058.04.087l.059.124a1.183,1.183,0,0,1,.071.167,2.465,2.465,0,0,1,.111,1.319,2.8,2.8,0,0,1-.44,1.035,3.1,3.1,0,0,1-.558.6c-.077.066-.146.11-.189.144Z" transform="translate(-1256.088 -266.065)" fill="#cf4a57"/></g></g><path d="M1256.285,254.56a4.91,4.91,0,0,1-.859,2.08,9.309,9.309,0,0,1-1.218,1.506c-2.382-.422-3.508,2.993-3.508,2.993l-.975-9.56a7.56,7.56,0,0,1-3.542-1.8c.188.323.369.645.549.969a10.506,10.506,0,0,1-5.795-5.586,7.709,7.709,0,0,1-5.957,4.6,9.9,9.9,0,0,0,1.208-3.046c-2.138,2.981-4.387,6.058-7.618,7.8a9.66,9.66,0,0,1-1.141-2.87,9.8,9.8,0,0,1,.468-5.915c1.165-2.817,3.9-4.5,6.672-5.756,1.07-.481,3.725.275,6.75,1.456l.152.06c5.7,2.258,12.607,6.006,12.607,6.006l2.2,6.8S1256.482,252.806,1256.285,254.56Z" transform="translate(-1227.176 -239.828)" fill="#3f0727"/><path d="M1251.6,262.63l-1.923,10s-3.076,1.789-3.735,1.724-2.541-5.347-3.509-5.982-6.669-.025-7.817.23-2.624,5.13-2.624,5.13.888,5.168,2.884,5.095,14.254-4.632,14.254-4.632a5.134,5.134,0,0,0,2.254-1.95c.469-.571,1.34-9.208,1.34-9.208Zm-8.91,12.7c-.277.514-7.175,2.121-7.625,1.863s-1.4-2.767-1.544-3.448,1.191-3.889,1.191-3.889a27.942,27.942,0,0,1,6.528-.507C1241.462,269.524,1242.971,274.823,1242.687,275.331Z" transform="translate(-1228.168 -244.526)" fill="#3f0727"/><path d="M1241.32,241.432a18.3,18.3,0,0,1-3.816,5.136,5.132,5.132,0,0,0-2.108-3.241,15.9,15.9,0,0,1-7.966,8.32,9.974,9.974,0,0,1-.208-3.184,9.715,9.715,0,0,1,.676-2.731c1.165-2.817,3.9-4.5,6.672-5.756.654-.3,1.908-.127,3.484.326C1239.04,240.586,1240.15,240.973,1241.32,241.432Z" transform="translate(-1227.176 -239.827)" fill="#55062c"/><path d="M1260,254.992a4.909,4.909,0,0,1-.859,2.08c-.022-.021-.051-.041-.073-.062a3.381,3.381,0,0,0-3.539-.267,46.279,46.279,0,0,1-.973-8.034,2.715,2.715,0,0,0,.034,2.61,5.614,5.614,0,0,1-5.2-5.725c-.111,1.059-.23,2.118-.349,3.178a11.684,11.684,0,0,1-3.855-6.85c5.7,2.258,12.607,6.006,12.607,6.006l2.625,3.965S1260.193,253.237,1260,254.992Z" transform="translate(-1230.887 -240.259)" fill="#55062c"/><path d="M1238.065,240.3a5.423,5.423,0,0,1-.883,2.709,6.625,6.625,0,0,0-3.1-1.649,19.944,19.944,0,0,1-3.316,4.864,9.023,9.023,0,0,1-3.53,2.237,9.71,9.71,0,0,1,.676-2.731c1.165-2.817,3.9-4.5,6.672-5.756C1235.236,239.679,1236.49,239.849,1238.065,240.3Z" transform="translate(-1227.188 -239.827)" fill="#6f0a32"/></g><g transform="translate(7.777)"><path d="M1258.916,248.849l-25.31-11.176a20.386,20.386,0,0,1,3.9-2.7c2.825-1.52,6.883-2.853,11.1-1.427a14.4,14.4,0,0,1,10.1,11.3A15.983,15.983,0,0,1,1258.916,248.849Z" transform="translate(-1233.606 -232.943)" fill="#ffb447"/><path d="M1258.916,249.377l-25.31-11.176a20.386,20.386,0,0,1,3.9-2.7l21.2,9.877A15.983,15.983,0,0,1,1258.916,249.377Z" transform="translate(-1233.606 -233.471)" fill="#ff663a"/></g><path d="M1262.649,254.365s.932-2.62.339-3.344-33.686-16.145-35.4-16.145a4.629,4.629,0,0,0-3.07,1.694Z" transform="translate(-1223.956 -233.341)" fill="#ffb447"/></g><path d="M1273.036,292.269s-2.916,10.871-2.747,15.108,6.1,32.538,6.1,32.538l15.252-4.067s-4.406-24.234-5.253-27.284-5.677-12.541-7.584-13.812A39.171,39.171,0,0,0,1273.036,292.269Z" transform="translate(-1180.972 -233.103)" fill="#ff663a"/><path d="M1293.89,344.384l-18.049,5.254,1.356,3.982,17.54-2.966Z" transform="translate(-1182.118 -243.842)" fill="#d9471c"/><path d="M1272.1,325.275s-3.179-16.089-2.861-17.7,2.861-10.893,2.861-10.893-1.739,10.549-1.442,11.947,2.96,17.921,2.96,17.921Z" transform="translate(-1180.753 -234.011)" fill="#d9471c"/></g></g><g transform="translate(858.748 268.223)"><path d="M1135.82,575.428s-51.329,11.743-114.647,11.743-114.647-11.743-114.647-11.743,51.329-11.742,114.647-11.742S1135.82,575.428,1135.82,575.428Z" transform="translate(-906.526 -339.512)" fill="#e8e8e8"/><g transform="translate(10.004)"><path d="M1027.459,370.515l4.226,15.422,18.662,24.793-5.99,4.024s-17.6-14.507-21.619-20.852c-2.8-4.429-6.694-19.869-6.694-19.869Z" transform="translate(-939.099 -299.705)" fill="#cc7256"/><path d="M1030.45,349.173a8.1,8.1,0,0,1-2.268-.446,3.577,3.577,0,0,1-2.269-2.271,4.9,4.9,0,0,1,.083-2.2,9.06,9.06,0,0,1-2.432-.5,4.2,4.2,0,0,1-2.659-2.661,7.437,7.437,0,0,1,.225-3.246,12.221,12.221,0,0,1-3.636-.657,4.962,4.962,0,0,1-3.146-3.149,6.53,6.53,0,0,1,.09-2.93,10.747,10.747,0,0,1-2.494.361,5.511,5.511,0,0,1-4.54-1.963c-1.318-1.788-.989-4.325-1.986-6.309.256.51,5.007-.291,5.646-.233a6.163,6.163,0,0,1,3.483,1.335,7.639,7.639,0,0,1,2.171,4.655c1.208.356,2.584.688,2.864.83a5.54,5.54,0,0,1,2.469,2.271,6.811,6.811,0,0,1,.282,4.556c1.1.363,2.714.737,3,.88a4.687,4.687,0,0,1,2.087,1.921,5.332,5.332,0,0,1,.318,3.408c.842.244,1.76.468,1.953.566a4,4,0,0,1,1.781,1.639,4.867,4.867,0,0,1,.213,3.239c1.675.437,4.791,1.539,6.585,3.98,0,0-1.034,3.464-5.885,4.267C1032.382,356.512,1030.047,356.209,1030.45,349.173Z" transform="translate(-936.909 -289.905)" fill="#3f0727"/><path d="M1017.011,340s5.257.342,6.508,1.352,7.012,23.719,7.012,23.719l-10.846,2.372Z" transform="translate(-939.298 -293.417)" fill="#ffb447"/><path d="M959.66,353.109a8.1,8.1,0,0,0,2.268-.446,3.578,3.578,0,0,0,2.269-2.271,4.895,4.895,0,0,0-.083-2.2,9.092,9.092,0,0,0,2.432-.5,4.193,4.193,0,0,0,2.659-2.662,7.435,7.435,0,0,0-.225-3.245,12.219,12.219,0,0,0,3.636-.657,4.957,4.957,0,0,0,3.146-3.148,6.535,6.535,0,0,0-.09-2.931,10.705,10.705,0,0,0,2.495.361,5.511,5.511,0,0,0,4.541-1.962c1.318-1.788.989-4.325,1.986-6.31-.256.51-5.006-.291-5.646-.233a6.163,6.163,0,0,0-3.483,1.335,7.636,7.636,0,0,0-2.171,4.654c-1.208.356-2.584.689-2.864.831a5.541,5.541,0,0,0-2.469,2.271,6.809,6.809,0,0,0-.282,4.556c-1.1.364-2.714.738-3,.881a4.684,4.684,0,0,0-2.087,1.921,5.331,5.331,0,0,0-.318,3.408c-.842.244-1.76.468-1.953.566a4,4,0,0,0-1.782,1.639,4.865,4.865,0,0,0-.213,3.239c-1.675.437-4.791,1.539-6.585,3.98,0,0,1.034,3.464,5.885,4.266C957.728,360.447,960.063,360.145,959.66,353.109Z" transform="translate(-925.868 -290.716)" fill="#3f0727"/><g transform="translate(127.744 118.935)"><g transform="translate(16.486)"><path d="M1101.236,439.13a10.34,10.34,0,0,1-.283-4.631,4.224,4.224,0,0,1,2.965-3.3c1.99-.43,3.9,1.122,4.94,2.871a14.45,14.45,0,0,1,1.8,7.483c-.013,2.354.059,10.575-3.439,9C1103.845,449.035,1101.989,442.319,1101.236,439.13Z" transform="translate(-1100.793 -431.131)" fill="#007656"/><path d="M1109.549,454.053l-1.1-.044c-.221-.641-.427-1.287-.625-1.939a52.4,52.4,0,0,1-2.124-12.034.509.509,0,0,1,1.014-.078,51.473,51.473,0,0,0,2.3,12.513C1109.181,453,1109.358,453.527,1109.549,454.053Z" transform="translate(-1101.804 -432.856)" fill="#47b695"/></g><g transform="translate(0 6.739)"><path d="M1088.931,441.6a10.336,10.336,0,0,0-4.218-1.932,4.224,4.224,0,0,0-4.142,1.581c-1.118,1.7-.357,4.04.9,5.643a14.439,14.439,0,0,0,6.334,4.371c2.2.837,9.845,3.863,9.633.031C1097.233,447.6,1091.636,443.453,1088.931,441.6Z" transform="translate(-1080.028 -439.618)" fill="#007656"/><path d="M1102.619,455.2l-.1,0-1.467-.068-.037,0c-.683-.611-1.376-1.193-2.08-1.755a51.335,51.335,0,0,0-10.843-6.655.512.512,0,0,1,.435-.926,52.123,52.123,0,0,1,10.451,6.317C1100.24,453.073,1101.457,454.113,1102.619,455.2Z" transform="translate(-1081.631 -440.879)" fill="#47b695"/></g></g><g transform="translate(114.625 112.459)"><path d="M1076.17,426.987a2.886,2.886,0,0,0-.029-1.2,1.036,1.036,0,0,0-.847-.765c-.528-.035-.926.457-1.2.909a15.592,15.592,0,0,0-1.874,4.651,12.348,12.348,0,0,0-2.134-6.641c-.431-.63-1.272-1.273-1.867-.794a1.463,1.463,0,0,0-.329,1.29,24.238,24.238,0,0,0,1.033,5.292,6.126,6.126,0,0,0-4.164-2.5c-.445-.056-1-.006-1.193.4-.181.374.065.807.318,1.137a11.953,11.953,0,0,0,3.716,3.191,4.213,4.213,0,0,0-2.146-.682c-.76.044-1.539.68-1.44,1.435a2.008,2.008,0,0,0,1.132,1.294c1.571.931,6.871,3.6,8.593,2.241.815-.642,1.176-3.207,1.438-4.179A36.908,36.908,0,0,0,1076.17,426.987Z" transform="translate(-1063.505 -422.975)" fill="#009f78"/><g transform="translate(5.032 11.275)"><path d="M1069.856,442.56a11.577,11.577,0,0,0,1.454,4.487c.106.208.226.422.343.626.077.154.16.3.24.444a96.114,96.114,0,0,0,6.539,10.32c.138.191.283.386.431.574a54.453,54.453,0,0,0,4.8,5.6c2.44,2.467,3.744,1.273,3.26-1.742-.172-1.073-.369-2.141-.6-3.21-.04-.231-.094-.469-.141-.7-.514-2.384-1.147-4.752-1.893-7.08-.075-.225-.15-.449-.225-.673q-.592-1.778-1.272-3.52c-.085-.221-.172-.436-.267-.653q-.782-1.951-1.678-3.846a20.14,20.14,0,0,0-1.521-2.757c-.148-.22-.3-.433-.461-.627a8.325,8.325,0,0,0-1.2-1.261,4.569,4.569,0,0,0-7.805,4.018Z" transform="translate(-1069.843 -437.177)" fill="#d9471c"/><path d="M1087.5,466.2c.784-.291,1.578-.584,2.365-.882-.04-.231-.094-.469-.141-.7l-2.466.912A.358.358,0,0,0,1087.5,466.2Z" transform="translate(-1073.386 -442.83)" fill="#ff663a"/><path d="M1080.66,463.387c.138.191.283.386.431.574q2.375-1.146,4.85-2.07a.358.358,0,0,0-.242-.672Q1083.128,462.176,1080.66,463.387Z" transform="translate(-1072.072 -442.126)" fill="#ff663a"/><path d="M1081.795,457.752a30.758,30.758,0,0,1,4.84-2.232c-.075-.225-.15-.449-.225-.673a31.049,31.049,0,0,0-5.017,2.321C1080.993,457.4,1081.4,457.98,1081.795,457.752Z" transform="translate(-1072.189 -440.818)" fill="#ff663a"/><path d="M1077.475,452.956a33.6,33.6,0,0,1,6.771-2.713c-.085-.221-.172-.436-.267-.653a34.423,34.423,0,0,0-6.913,2.78C1076.666,452.582,1077.075,453.168,1077.475,452.956Z" transform="translate(-1071.298 -439.735)" fill="#ff663a"/><path d="M1071.69,448.9c.106.208.226.422.343.626a22.188,22.188,0,0,1,6.84-2.625c.437-.092.386-.8-.068-.708A23.515,23.515,0,0,0,1071.69,448.9Z" transform="translate(-1070.224 -439.034)" fill="#ff663a"/><path d="M1073.958,442.99a.383.383,0,0,0,.5.094,21.057,21.057,0,0,1,5.7-1.973c-.148-.22-.3-.433-.461-.627a22.543,22.543,0,0,0-5.649,2.007A.365.365,0,0,0,1073.958,442.99Z" transform="translate(-1070.679 -437.858)" fill="#ff663a"/></g></g><g transform="translate(118.646 120.915)"><path d="M1111.046,446.255a2.889,2.889,0,0,0,1.2-.068,1.035,1.035,0,0,0,.737-.872c.018-.529-.487-.91-.947-1.169a15.6,15.6,0,0,0-4.71-1.72,12.342,12.342,0,0,0,6.568-2.351c.616-.452,1.231-1.313.732-1.891a1.46,1.46,0,0,0-1.3-.287,24.213,24.213,0,0,0-5.255,1.206,6.125,6.125,0,0,0,2.356-4.244c.042-.447-.026-1-.437-1.179-.38-.168-.805.091-1.127.355a11.955,11.955,0,0,0-3.067,3.819,4.209,4.209,0,0,0,.611-2.167c-.069-.757-.73-1.516-1.481-1.393-.586.1-.97.653-1.256,1.175-.879,1.6-3.37,6.986-1.958,8.663.668.793,3.243,1.069,4.224,1.3A36.806,36.806,0,0,0,1111.046,446.255Z" transform="translate(-1075.312 -433.626)" fill="#009f78"/><g transform="translate(0 5.399)"><path d="M1091.413,440.454a11.592,11.592,0,0,0-4.438,1.6c-.2.114-.414.241-.615.364-.152.082-.291.169-.435.254a95.955,95.955,0,0,0-10.1,6.874c-.187.144-.376.3-.56.45a54.347,54.347,0,0,0-5.442,4.98c-2.385,2.519-1.15,3.784,1.848,3.2,1.066-.207,2.128-.439,3.188-.7.229-.048.465-.109.7-.164,2.366-.593,4.712-1.3,7.014-2.125l.666-.248q1.758-.649,3.476-1.386c.218-.092.43-.187.645-.288,1.283-.564,2.545-1.168,3.789-1.8a20.179,20.179,0,0,0,2.706-1.612c.214-.156.422-.314.611-.481a8.331,8.331,0,0,0,1.22-1.243,4.569,4.569,0,0,0-4.271-7.669Z" transform="translate(-1068.568 -440.426)" fill="#ff663a"/><path d="M1075.277,458.835c.316.774.636,1.558.959,2.334.229-.048.465-.109.7-.164l-.993-2.435A.358.358,0,0,0,1075.277,458.835Z" transform="translate(-1069.945 -444.121)" fill="#d9471c"/><path d="M1077.564,451.913c-.187.144-.376.3-.56.45q1.223,2.335,2.228,4.779a.358.358,0,0,0,.664-.264Q1078.854,454.34,1077.564,451.913Z" transform="translate(-1070.307 -442.793)" fill="#d9471c"/><path d="M1083.183,452.866a30.776,30.776,0,0,1,2.389,4.764l.666-.248a31.147,31.147,0,0,0-2.485-4.937C1083.512,452.053,1082.942,452.475,1083.183,452.866Z" transform="translate(-1071.568 -442.87)" fill="#d9471c"/><path d="M1087.717,448.4a33.622,33.622,0,0,1,2.933,6.678c.218-.092.43-.187.645-.288a34.408,34.408,0,0,0-3-6.818C1088.064,447.575,1087.491,448,1087.717,448.4Z" transform="translate(-1072.504 -441.948)" fill="#d9471c"/><path d="M1091.594,442.477c-.2.114-.413.241-.615.364a22.177,22.177,0,0,1,2.848,6.749c.106.435.814.36.706-.091A23.508,23.508,0,0,0,1091.594,442.477Z" transform="translate(-1073.187 -440.848)" fill="#d9471c"/><path d="M1097.76,444.546a.384.384,0,0,0-.079.5,21.055,21.055,0,0,1,2.16,5.635c.214-.156.422-.314.611-.481a22.519,22.519,0,0,0-2.191-5.58A.364.364,0,0,0,1097.76,444.546Z" transform="translate(-1074.556 -441.261)" fill="#d9471c"/></g></g><g transform="translate(0 42.735)"><g transform="translate(0 60.476)"><path d="M946.078,511.693l47.38-37.06,7.963,15.641L950.74,518.645Z" transform="translate(-924.681 -424.372)" fill="#254f79"/><path d="M1016.709,426.02c-.464,8.786-1.113,19.041-1.74,27.714-.271,3.851-.549,7.4-.8,10.362a86.208,86.208,0,0,1-.963,8.665,23.729,23.729,0,0,1-2.018,3.366l-11.682-9.934c.627-.442,1-.656,1-.656l-1.854-13.458-5.62-40.751h21.06C1015.368,415.864,1016.752,421.79,1016.709,426.02Z" transform="translate(-934.356 -411.326)" fill="#254f79"/><path d="M1019.125,428.779c-.463,8.786-1.205,16.282-1.832,24.955-.271,3.851-.549,7.4-.8,10.362l-12.187-35.055,12.109-17.713C1017.692,415.864,1019.168,424.55,1019.125,428.779Z" transform="translate(-936.68 -411.326)" fill="#456997"/><g transform="translate(42.399)"><path d="M1003.04,455.3l-8.846-43.972H975.013c-1.549,7.583-3.689,20.176-1.639,23.637,1.826,3.088,7.713,15.416,12.009,24.523,1.246,2.639,2.359,5.011,3.2,6.807.037.08.075.158.11.235.07.148.137.291.2.431q.315.675.563,1.205c.04.088.08.173.117.252.113.243.213.458.3.638.013.03.028.06.04.087.186.4.286.611.286.611s.818,14.838,1.854,16.434c.007.013.017.028.027.045,1.329,2.227,21.773,45.127,21.773,45.127l6.424-1.35v0L1004.791,464Z" transform="translate(-972.531 -411.326)" fill="#456997"/><path d="M995.412,485.426c-1.271-2.654-1.764-18.55-1.764-18.55l-.711-1.347c-.022-.045-.045-.087-.07-.133-.065-.122-.133-.252-.2-.391-.04-.07-.078-.145-.118-.22s-.092-.177-.142-.27c-.063-.12-.13-.245-.2-.376s-.135-.26-.208-.4c-.083-.155-.165-.315-.252-.48s-.175-.333-.265-.5q-.408-.773-.868-1.651c-.058-.1-.113-.213-.171-.32a.9.9,0,0,0-.042-.083c-.2-.376-.4-.764-.613-1.164-.015-.033-.032-.065-.05-.1-.152-.287-.308-.583-.463-.883-4.981-9.477-12.526-23.925-13.335-25.951-.742-1.862.425-12.934,1.444-21.285h-2.369c-1.549,7.583-3.689,20.176-1.639,23.637,1.826,3.088,7.713,15.416,12.009,24.523.08.165.157.33.233.493,1.153,2.441,2.179,4.631,2.967,6.314.037.08.075.158.11.235.07.148.135.291.2.431.21.45.4.855.563,1.205.04.088.08.173.117.252.115.245.213.458.3.638.015.03.028.06.04.087.048.1.088.186.123.263.015.033.03.063.043.091s.022.048.032.067l.015.033c.02.048.038.083.05.11s.023.048.023.048.818,14.838,1.854,16.434c.007.013.017.028.027.045,1.276,2.139,20.193,41.813,21.681,44.933-3.488-7.46-17.042-42.889-18.321-45.678C995.429,485.464,995.419,485.444,995.412,485.426Z" transform="translate(-972.531 -411.326)" fill="#254f79"/></g><g transform="translate(70.075 94.138)"><path d="M1054.205,575.16l-31.115,9.559-.956-3.062,31.115-9.559Z" transform="translate(-1010.429 -538.595)" fill="#763231"/><path d="M1019.093,572.961l5.957-1.826,1.208-.373,23.952-7.357a1.887,1.887,0,0,0-1.455-1.175c-2.279-.319-10.511-.986-12.974-1.993a14.667,14.667,0,0,1-4.391-3.461c-.2-.213-.373-.41-.512-.565l-.115-.594-2.819-14.335-1.379-7.049-.853-4.334s-13.165,2.535-18.319,4.726l9.814,26.169A110.091,110.091,0,0,0,1019.093,572.961Z" transform="translate(-1007.391 -529.899)" fill="#925551"/><path d="M1029.633,577.81l1.208-.373a22.237,22.237,0,0,1,5.132-13.986c-.2-.213-.373-.41-.512-.565l-.115-.594A23.351,23.351,0,0,0,1029.633,577.81Z" transform="translate(-1011.974 -536.574)" fill="#763231"/><path d="M1016.714,545.442c.557.359,8.962-1.96,12.751-3.035l-1.379-7.049c-3.11.72-11.93,2.8-12.931,3.586C1013.944,539.9,1016,544.98,1016.714,545.442Z" transform="translate(-1008.914 -531.024)" fill="#763231"/></g><g transform="translate(0 73.054)"><path d="M938.539,561.435l-19.412-26.128,2.566-1.925L941.1,559.51Z" transform="translate(-919.126 -509.532)" fill="#763231"/><path d="M922.357,527.188l3.713,5,.755,1.013,14.943,20.114a1.889,1.889,0,0,0,.621-1.765c-.461-2.255-2.586-10.235-2.46-12.893a14.672,14.672,0,0,1,1.793-5.295c.133-.262.261-.489.362-.672l.521-.308,12.567-7.449,6.182-3.656,3.8-2.254s-6.791-11.56-10.579-15.685l-21.382,18A110.045,110.045,0,0,0,922.357,527.188Z" transform="translate(-919.792 -503.342)" fill="#925551"/><path d="M927.034,539.312l.755,1.013a22.236,22.236,0,0,1,14.9.161c.133-.262.261-.489.362-.672l.521-.308A23.353,23.353,0,0,0,927.034,539.312Z" transform="translate(-920.756 -510.463)" fill="#763231"/><path d="M954.716,515.707c-.152.644,4.844,7.79,7.123,11l6.182-3.656c-1.718-2.691-6.631-10.307-7.7-10.988C959.015,511.242,954.912,514.877,954.716,515.707Z" transform="translate(-926.46 -505.115)" fill="#763231"/></g><g transform="translate(64.873 48.825)"><path d="M1007.316,482.906a4.426,4.426,0,0,1-4.2-.581c-3.819-2.63-2.754-10,2.56-9.474C1010.166,473.292,1011.393,481.092,1007.316,482.906Z" transform="translate(-1000.838 -472.825)" fill="#698bb1"/></g></g><path d="M1012.47,363.9a110.264,110.264,0,0,1-5.577,10.612s5.991,25.482,5.592,28.364a61.846,61.846,0,0,0-.064,8.643c-4.7,1.862-39.888,0-39.888,0L974.4,378.3v-.007l.179-3.209s.342-33.9,1.191-34.233c.392-.156,1.919-1.069,3.431-2,1.747-1.069,3.488-2.161,3.488-2.161l16.8-1.533,5.684,1.847,2.218.721s.97,2.667,2.154,6.176c0,.007.007.021.007.029,1.925,5.7,4.407,13.6,4.215,15.9A14.994,14.994,0,0,1,1012.47,363.9Z" transform="translate(-930.132 -335.152)" fill="#ffb447"/><path d="M1012.577,413.479l-16.98.3-19.805-1.6-3.259-.264L974.4,378.7v-.007l2.8-3.259,2-2.325V337.889l3.488-.806,2.425,22.979s15.227,2.033,20.055.678V337.4l3.138.492s.542,2.675,1.234,6.4c0,.007.007.021.007.029,1.155,6.2,2.724,15.319,2.924,19.977.029.577.036,1.091.014,1.519a13.811,13.811,0,0,1-3.837,9.157S1014.824,402.632,1012.577,413.479Z" transform="translate(-930.132 -335.55)" fill="#456997"/><path d="M977.2,385.385l-1.412,36.75-3.259-.264,1.869-33.22v-.007Z" transform="translate(-930.132 -345.504)" fill="#254f79"/><g transform="translate(57.31 30.61)"><path d="M992.847,377.816l-.711,11.121a44.592,44.592,0,0,0,7.657,1.377,45.216,45.216,0,0,0,7.658-.869l-1.081-11.63Z" transform="translate(-991.482 -374.554)" fill="#254f79"/><path d="M1007.791,374.385v3.728l-8.1,2.711-8.381-3.22v-3.9Z" transform="translate(-991.312 -373.707)" fill="#698bb1"/><path d="M1002.617,379.317a1.128,1.128,0,1,1-1.128-1.127A1.128,1.128,0,0,1,1002.617,379.317Z" transform="translate(-993.177 -374.631)" fill="#254f79"/></g></g><g transform="translate(43.015)"><path d="M1006.576,295.57c-.307,5.142-3.038,9.928-6.625,13.729A70.265,70.265,0,0,1,987.9,319.5c-1.427-1.077-4.583-1.915-4.554-.973a32.589,32.589,0,0,1-8.338-11.3,19.508,19.508,0,0,1-.934-2.753c-2.675-10.234,1.8-18.785,11.617-22.058,3.773-1.262,10.477-1.69,14.007.121a13.093,13.093,0,0,1,6.5,8.73A14.83,14.83,0,0,1,1006.576,295.57Z" transform="translate(-973.307 -281.325)" fill="#3f0727"/><g transform="translate(8.601 5.071)"><path d="M1007.805,336.6l-7.379-2.755-.992-.6-.546.021-7.431.276-.6.022-.886.457-4.648,2.269C990.936,343.043,1001.493,341.847,1007.805,336.6Z" transform="translate(-984.384 -297.097)" fill="#cc7256"/><path d="M990.187,331.749s7.869,1.591,9.04,1.088,2.779-1.317,2.779-1.317c-.263-.293-2.082-3.044-2.041-3.978a40.061,40.061,0,0,1,.73-5.18l-7.314-2.117s-.195,2.072-.5,4.27A25.145,25.145,0,0,1,990.187,331.749Z" transform="translate(-985.387 -294.416)" fill="#cc7256"/><path d="M993.582,324.511a36.957,36.957,0,0,0,5.372,3.233,2.344,2.344,0,0,0,1.708-.2,40.375,40.375,0,0,1,.735-5.179l-7.314-2.117S993.886,322.32,993.582,324.511Z" transform="translate(-986.086 -294.417)" fill="#a04f39"/><path d="M987.3,293.808a12.66,12.66,0,0,1,15.6-3.658,6.354,6.354,0,0,1,2.692,2.2c1.887,3.36,4.964,15.916,2.64,22.14s-6.5,5.6-8,5.241-8.562-2.9-10.274-5.074-5.726-13.658-5.113-16.733A12.312,12.312,0,0,1,987.3,293.808Z" transform="translate(-984.275 -287.944)" fill="#e1836c"/><path d="M986.651,292.687a12.66,12.66,0,0,1,15.6-3.658,6.348,6.348,0,0,1,2.692,2.2c1.887,3.36,4.964,15.917,2.641,22.141s-6.5,5.6-8,5.241-8.561-2.9-10.274-5.074-5.726-13.659-5.113-16.733A12.306,12.306,0,0,1,986.651,292.687Z" transform="translate(-984.141 -287.713)" fill="#cc7256"/><g transform="translate(11.526 14.109)"><path d="M1004.759,313a2.156,2.156,0,0,0-.954-.014,3.079,3.079,0,0,0,2.013,1.166.352.352,0,0,0,.367-.128,3.605,3.605,0,0,0,.8-1.168.682.682,0,0,0,.072-.277c0-.319-.194-.2-.356-.087a2.8,2.8,0,0,1-.606.326A2.844,2.844,0,0,1,1004.759,313Z" transform="translate(-999.719 -306.904)" fill="#e1836c"/><path d="M1006.171,312.547c.143-.21.315-.4.464-.606a4.853,4.853,0,0,0,.478-.81c-1.146-.434-1.388-1.458-1.627-2.628a3.466,3.466,0,0,1,.371-2.384,3.355,3.355,0,0,1,.233-.363,1.241,1.241,0,0,1,.292-.272c-.044.084-.065.175-.1.259a6.582,6.582,0,0,0-.276.66,4.323,4.323,0,0,0-.16.707,4.243,4.243,0,0,0,.046,1.444,3.5,3.5,0,0,0,.555,1.3,2.761,2.761,0,0,0,1.292,1.022s-.476.945-.526,1.024a3.643,3.643,0,0,1-.447.575,1.264,1.264,0,0,1-.595.425.407.407,0,0,1-.229-.011.846.846,0,0,0,.092-.121c.012-.019.022-.038.033-.057C1006.1,312.656,1006.135,312.6,1006.171,312.547Z" transform="translate(-1000.051 -305.484)" fill="#a04f39"/><g transform="translate(0 9.238)"><path d="M998.658,317.12a9.848,9.848,0,0,0,8.14.179,6.67,6.67,0,0,1-4.186,1.584A6.268,6.268,0,0,1,998.658,317.12Z" transform="translate(-998.658 -317.12)" fill="#a04f39"/><path d="M1001.869,320.372a3.781,3.781,0,0,0,3.456.044,2.109,2.109,0,0,1-1.626.942A2.571,2.571,0,0,1,1001.869,320.372Z" transform="translate(-999.32 -317.79)" fill="#a04f39"/></g></g><path d="M988.869,313.085c-.379-.157-2.371-2.5-3.6-.944s-1.447,4.028-.138,5.338c1.194,1.2,2.835,2.468,4.724,1.877Z" transform="translate(-984.162 -292.637)" fill="#cc7256"/><path d="M985.71,314.434a1.866,1.866,0,0,0,.135.985c.517,1.343,1.87,2.308,3.164,3.2a3.63,3.63,0,0,1-.568-2.119c.01-.256.045-.512.032-.768C988.416,314.7,986.053,312.473,985.71,314.434Z" transform="translate(-984.46 -293.059)" fill="#e1836c"/><g transform="translate(1.541 20.564)"><path d="M989.732,318.962l-.072-.037c-.047-.026-.122-.06-.207-.114a2.88,2.88,0,0,1-.645-.545,2.731,2.731,0,0,1-.569-1.057,2.421,2.421,0,0,1,.064-1.45,1.333,1.333,0,0,1,.078-.185l.022-.045,0-.006h0s0,0,0-.007l-.023-.038-.046-.075c-.032-.05-.064-.1-.1-.148a6.045,6.045,0,0,0-.407-.541c-.141-.168-.284-.32-.426-.459a3.611,3.611,0,0,0-.414-.361.85.85,0,0,0-.411-.162.6.6,0,0,0-.335.082.332.332,0,0,0-.142.155.29.29,0,0,0-.017.071.259.259,0,0,1,0-.074.325.325,0,0,1,.115-.194.668.668,0,0,1,.381-.155,1.039,1.039,0,0,1,.538.127,3.472,3.472,0,0,1,.5.336,5.478,5.478,0,0,1,.5.442,4.869,4.869,0,0,1,.474.55c.038.05.073.1.11.153l.052.079.07.112.049.079c-.01.028-.025.056-.037.084l-.055.12a1.015,1.015,0,0,0-.067.161,2.53,2.53,0,0,0-.118,1.286,2.841,2.841,0,0,0,.391,1.019,3.022,3.022,0,0,0,.5.6c.071.066.133.11.172.145Z" transform="translate(-986.082 -313.615)" fill="#a04f39"/></g><path d="M1011.7,300.826s-1.9-1.31-3.033-1.141-1.422,1.233-.962,1.416A24.682,24.682,0,0,0,1011.7,300.826Z" transform="translate(-988.954 -290.177)" fill="#55062c"/><path d="M992.616,303.66s2.507-2.451,4.259-2.881,2.468.57,1.825,1.019A55.685,55.685,0,0,1,992.616,303.66Z" transform="translate(-985.887 -290.384)" fill="#55062c"/><g transform="translate(2.863 10.979)"><path d="M997.641,313.988c-.044.545-1.247.9-2.69.782s-2.575-.649-2.532-1.195,1.247-.9,2.689-.782S997.684,313.442,997.641,313.988Z" transform="translate(-988.71 -303.856)" fill="#e1836c"/><path d="M1015.349,309.827c.2.365-.537,1.142-1.638,1.733s-2.152.775-2.349.41.537-1.141,1.638-1.733S1015.153,309.462,1015.349,309.827Z" transform="translate(-992.607 -303.21)" fill="#e1836c"/><g transform="translate(15.252)"><path d="M1006.965,305.256a3.78,3.78,0,0,1,3.735-3.712,3.635,3.635,0,0,1,3.281,4.01,3.778,3.778,0,0,1-3.734,3.712A3.635,3.635,0,0,1,1006.965,305.256Zm.95.04a2.723,2.723,0,0,0,2.387,3.048,2.83,2.83,0,0,0,2.73-2.83,2.721,2.721,0,0,0-2.386-3.047A2.829,2.829,0,0,0,1007.915,305.3Z" transform="translate(-1006.958 -301.541)" fill="#fff"/></g><g transform="translate(2.888 1.029)"><path d="M991.393,307.572a5.132,5.132,0,0,1,5.384-4.73,4.938,4.938,0,0,1,4.8,5.164,5.133,5.133,0,0,1-5.384,4.73A4.936,4.936,0,0,1,991.393,307.572Zm.949.04a4.017,4.017,0,0,0,3.908,4.2,4.176,4.176,0,0,0,4.381-3.849,4.016,4.016,0,0,0-3.908-4.2A4.176,4.176,0,0,0,992.342,307.612Z" transform="translate(-991.385 -302.837)" fill="#fff"/></g><g transform="translate(12.076 3.405)"><path d="M1003.666,307.4a2.345,2.345,0,0,1,2.756-.337l.471-.808a3.266,3.266,0,0,0-3.935.539Z" transform="translate(-1002.958 -305.83)" fill="#fff"/></g><g transform="translate(0 6.852)"><path d="M988.378,311.777c.842-.863,2.127-.558,2.76-.493l.106-.919c-.11-.009-2.162-.722-3.5.647Z" transform="translate(-987.747 -310.172)" fill="#fff"/></g></g></g><path d="M982.956,309.341a24.664,24.664,0,0,1-4.761-10.012,13.55,13.55,0,0,1,2.1-10.187,15.131,15.131,0,0,1,7.957-5.218c4.4-1.339,9.425-1.25,13.347,1.161s6.344,7.445,4.916,11.821a10.877,10.877,0,0,0-4.921-3.833,5.8,5.8,0,0,1-.946,2.324,9.081,9.081,0,0,0-1.984-3.4,4.923,4.923,0,0,1-2.275,3.386,7.81,7.81,0,0,0-1.508-3.7,8.52,8.52,0,0,1-4,4.525q0-1.878,0-3.756a9.669,9.669,0,0,1-4.892,6.713s.5,6.418.226,7.52a1.816,1.816,0,0,0-2.121-.032A4.282,4.282,0,0,0,982.956,309.341Z" transform="translate(-974.269 -281.682)" fill="#3f0727"/><path d="M997.266,306.708a4.576,4.576,0,0,0-2.927,1.8,10.3,10.3,0,0,1,5.35-.416l.558.051A2.954,2.954,0,0,0,997.266,306.708Z" transform="translate(-977.641 -286.551)" fill="#161818"/><path d="M1009.993,305.328a3.2,3.2,0,0,1,2.341.541,7.2,7.2,0,0,0-3.634.92l-.358.158A2.064,2.064,0,0,1,1009.993,305.328Z" transform="translate(-980.527 -286.261)" fill="#161818"/><path d="M998.711,286.556a3.771,3.771,0,0,1-.007,2.8,8.326,8.326,0,0,0-4.165-3.651,10.989,10.989,0,0,1,.406,3.794,6.793,6.793,0,0,0-4.186-2.782,7.376,7.376,0,0,1-.107,4.087,7.4,7.4,0,0,0-3.859-3.409,18.666,18.666,0,0,1-9.392,13.886,23.514,23.514,0,0,0-2.4,5.948,19.516,19.516,0,0,1-.934-2.753,22.051,22.051,0,0,1-.757-5.948c.1-7.517,4.529-13.494,12.374-16.11,3.773-1.262,10.477-1.69,14.007.121a11.851,11.851,0,0,1,4.386,3.937,14.178,14.178,0,0,1,2.118,4.793A24.658,24.658,0,0,0,998.711,286.556Z" transform="translate(-973.308 -281.325)" fill="#55062c"/><path d="M996.444,285.358a7.159,7.159,0,0,0-4.806-2.2q.224,1.209.449,2.418a5.868,5.868,0,0,0-3.595-1.355l.15,2.182a6.63,6.63,0,0,0-4.043-1.569,17.789,17.789,0,0,1-11.283,13.7c.1-7.517,4.529-13.494,12.374-16.11,3.773-1.262,10.477-1.69,14.007.121a11.851,11.851,0,0,1,4.386,3.937,26.8,26.8,0,0,0-8.045-2.76C996.173,284.266,996.309,284.809,996.444,285.358Z" transform="translate(-973.309 -281.325)" fill="#6f0a32"/></g><g transform="translate(60.896 108.38)"><path d="M1024.975,450.514c-6-11.82-12.945-24.964-14.526-27.039-2.529-.508-14.491-2.813-14.62-2.838l.54-2.8c.566.109,13.883,2.676,15.068,2.93.869.186,1.393.3,8.962,14.68,3.593,6.825,7.086,13.71,7.121,13.778Z" transform="translate(-995.829 -417.836)" fill="#d0e2d9"/></g><rect width="20.612" height="5.311" transform="matrix(0.985, 0.174, -0.174, 0.985, 45.66, 104.509)" fill="#ff663a"/><g transform="translate(85.623 102.209)"><path d="M1060.145,452.967c-.014.121-.029.235-.049.356a17.03,17.03,0,0,1-.814,3.109,14.229,14.229,0,0,1-3.358,5.342,9.863,9.863,0,0,1-1.255,1.055,9.259,9.259,0,0,1-1.135.727,11.379,11.379,0,0,1-6.925,1.22,12.955,12.955,0,0,1-1.626-.3,16.171,16.171,0,0,1-5.477-2.51,15.9,15.9,0,0,1-2.182-1.847q-.172-.171-.321-.343c-3.958-4.193-5.884-9.92-7.2-15.532-1.9-8.123-4.529-19.178-1.312-27.322a10.043,10.043,0,0,1,4.222-4.829,13.136,13.136,0,0,1,2.346-1.127,11.24,11.24,0,0,1,1.262-.4,13.668,13.668,0,0,1,1.52-.329q.685-.106,1.369-.149a13.452,13.452,0,0,1,1.42-.014,13.145,13.145,0,0,1,1.982.214,10.73,10.73,0,0,1,1.534.4,10.179,10.179,0,0,1,1.725.727c5.064,2.731,7.567,8.515,9.35,13.978a137.33,137.33,0,0,1,4.079,15.441C1060.11,444.829,1060.745,448.944,1060.145,452.967Z" transform="translate(-1026.974 -410.063)" fill="#007656"/><path d="M1040.217,462.2a15.9,15.9,0,0,1-2.182-1.847q-.172-.172-.321-.343c-.1-.242-.2-.484-.293-.734-2.988-7.766-4.7-16.132-6.1-24.32-1.291-7.531-1.633-15.768,2.1-22.629a13.133,13.133,0,0,1,2.346-1.127l-.064.106a24.446,24.446,0,0,0-3.858,12.709,56.535,56.535,0,0,0,1.327,13.144c.77,3.993,1.6,7.981,2.588,11.925A74.786,74.786,0,0,0,1040.217,462.2Z" transform="translate(-1027.685 -410.298)" fill="#47b695"/><path d="M1048.678,464.823a12.961,12.961,0,0,1-1.626-.3c-.784-2.132-1.577-4.258-2.361-6.39-1.511-4.1-3.388-8.231-4.278-12.524-.857-4.144-.728-8.416-1.57-12.566-.834-4.093-1.9-8.123-1.826-12.33a52.548,52.548,0,0,1,1.37-10.1,13.692,13.692,0,0,1,1.52-.329,47.151,47.151,0,0,0-1.419,12.5c.228,4.136,1.511,8.109,2.154,12.181.656,4.143.492,8.366,1.7,12.416,1.212,4.072,2.874,8.045,4.344,12.032C1047.352,461.221,1048.015,463.018,1048.678,464.823Z" transform="translate(-1029.043 -410.109)" fill="#47b695"/><path d="M1059.1,461.775a9.871,9.871,0,0,1-1.255,1.055,75.438,75.438,0,0,0-2.04-8.936c-2.21-7.645-5.363-14.948-8.158-22.379-2.6-6.9-4.814-14.029-5.264-21.424a13.452,13.452,0,0,1,1.42-.014,56.266,56.266,0,0,0,2.147,11.9c2.154,7.617,5.4,14.87,8.137,22.281A100.994,100.994,0,0,1,1059.1,461.775Z" transform="translate(-1030.149 -410.063)" fill="#47b695"/><path d="M1064.2,453.025c-.014.121-.029.235-.049.357a17.02,17.02,0,0,1-.814,3.109q-.278-1.946-.663-3.879a88.069,88.069,0,0,0-7.888-22.665c-3.181-6.312-6.79-12.595-8.123-19.6a10.736,10.736,0,0,1,1.534.4,46.821,46.821,0,0,0,3.623,10.134c1.683,3.566,3.594,7.018,5.3,10.577a85.579,85.579,0,0,1,7.082,21.567Z" transform="translate(-1031.032 -410.122)" fill="#47b695"/></g><g transform="translate(88.516 137.69)"><circle cx="18.799" cy="18.799" r="18.799" transform="translate(63.774 78.258) rotate(-45)" fill="#414156"/><circle cx="9.278" cy="9.278" r="9.278" transform="translate(81.081 68.979)" fill="#adb9b4"/><path d="M1117.16,506.713l20.737,39.735,3.77-2.272-18.852-39.282Z" transform="translate(-1048.452 -465.087)" fill="#86938e"/><g transform="translate(11.264 36.904)"><path d="M1047.621,550.839a1.989,1.989,0,0,1-1.334-.52c-.9-.811-1.915-1.73-1.289-25.913.3-11.568.861-23.054.867-23.169l3.561.176c-.752,15.264-1.392,36.807-.838,44.222,5.372-6.512,20.288-28.015,29.689-41.915l2.953,2c-.075.11-7.532,11.132-15.183,22.058-15.9,22.7-17.036,22.876-18.135,23.043A1.909,1.909,0,0,1,1047.621,550.839Z" transform="translate(-1044.805 -501.237)" fill="#d0e2d9"/></g><path d="M1132.739,458.512s-.392,2.032-1.091,5.185c-.271,1.2-.585,2.56-.934,4.036-2.589,10.847-7.353,27.807-12.459,31.038-1.448.913-5.192,1.547-10.306,1.975-1.875.157-3.936.285-6.14.385-23.5,1.127-62.917-.492-62.917-.492l-6.547-36.293-.734-4.093-.992-5.5Z" transform="translate(-1030.618 -454.754)" fill="#adb9b4"/><path d="M1131.906,465.125c-.271,1.2-.585,2.56-.935,4.036l-98.37-3.388-.734-4.093Z" transform="translate(-1030.875 -456.181)" fill="#d0e2d9"/></g><g transform="translate(37.85 99.995)"><path d="M989.268,414.147c-.624,1.1-7.716-4.041-7.716-4.041l-2.033,1.339,2.763,2.428,1.851,5.03s-.738.735-1.7,1.582c-.118.106-.242.213-.367.321a20.97,20.97,0,0,1-1.791,1.406c-.054.041-.113.079-.167.117a6.554,6.554,0,0,1-.82.466,1.457,1.457,0,0,1-.7.169l-2.259-3.514s-5.723-.638-6.436-1.146a12.957,12.957,0,0,1-1.462-3.229c-.285-.778-1.373-3.812-1.636-4.582l2.578-2.768,4.8-.274c.565-.053,1.315-.109,2.154-.142v0c.412-.017.845-.027,1.287-.031a17.6,17.6,0,0,1,4.631.467,4.281,4.281,0,0,1,1.389.63C986.118,410.212,989.892,413.045,989.268,414.147Z" transform="translate(-966.801 -407.275)" fill="#cc7256"/><g transform="translate(10.054 8.531)"><g transform="translate(0 1.005)"><path d="M982.889,424.687c-.054.041-.113.079-.167.117-.075-.157-.169-.365-.285-.614-.265-.563-.636-1.319-1.054-2.128a13.87,13.87,0,0,0-1.236-2c-.1-.123-.187-.233-.265-.333s-.161-.171-.224-.235l-.194-.213s.1.037.276.113c.087.037.2.086.321.144s.247.149.393.245a5.47,5.47,0,0,1,1.723,1.948,6.52,6.52,0,0,1,.688,2.37C982.885,424.336,982.891,424.531,982.889,424.687Z" transform="translate(-979.465 -419.287)" fill="#a04f39"/></g><g transform="translate(2.197)"><path d="M985.617,422.7c-.118.106-.242.213-.367.321-.018-.031-.033-.066-.048-.1-.265-.563-.636-1.318-1.054-2.125a13.842,13.842,0,0,0-1.236-2c-.1-.122-.184-.233-.263-.329s-.164-.172-.224-.237l-.194-.21s.1.036.273.11c.087.039.2.086.321.147s.249.149.393.242a5.456,5.456,0,0,1,1.723,1.95A6.443,6.443,0,0,1,985.617,422.7Z" transform="translate(-982.232 -418.021)" fill="#a04f39"/></g></g></g><path d="M952.922,366.129s-13.99,22.37-12.974,26.946S962.893,406.6,962.893,406.6l3.529-7.8-11.107-8.263,8.551-15.125Z" transform="translate(-923.406 -298.801)" fill="#cc7256"/><path d="M973.493,340s-12.856,5.235-15.008,7.268-12.407,19.489-12.407,19.489l19.062,9.512,5.178-12.986Z" transform="translate(-924.68 -293.417)" fill="#ffb447"/><g transform="translate(155.332 125.632)"><path d="M1114.778,454.091l.008,0,.949,0,7.761.048c4.461,0,8.682-.183,12.994.953,4.1,1.081,8.258,2.187,11.9,4.363,8.626,5.161,9.47,16.163,10.351,25.477,2.722-3.843,3.088-8.866,2.764-13.56-.465-6.623.466-15.477-1.978-21.691-.992-2.52-3.02-4.8-5.676-5.354-3.047-.641-6.187,1.069-9.274.638-2.775-.39-4.995-2.409-7.478-3.71a15.424,15.424,0,0,0-14.9.474C1117.756,444.433,1114.749,448.9,1114.778,454.091Z" transform="translate(-1114.778 -439.567)" fill="#009f78"/><path d="M1121.055,449.318a16.425,16.425,0,0,1,4.7-1.851,26.721,26.721,0,0,0,2.74-2.764c.317-.372.827.191.515.559a26.33,26.33,0,0,1-1.867,1.955,14.285,14.285,0,0,1,5.293.242c.282.068.546.168.817.258l4.2-1.418c.463-.156.621.587.162.742l-3.263,1.1a20.612,20.612,0,0,1,3.209,1.844,12.978,12.978,0,0,0,3.819,2.013,2.2,2.2,0,0,1,.477-.715c.291-.314.592-.619.888-.928l1.875-1.958c.339-.354.85.207.514.559l-1.667,1.74-.833.87a2.817,2.817,0,0,0-.5.59,5.992,5.992,0,0,0,.895.073c1.143,0,2.27-.215,3.408-.269a8.4,8.4,0,0,1,2.887.334c.037.012.073.027.11.039a20.955,20.955,0,0,1,5.382-.569.38.38,0,0,1-.041.758,20.1,20.1,0,0,0-4.1.323,10.672,10.672,0,0,1,3.075,2.37,12.6,12.6,0,0,1,1.892,2.741l3.564,1.74a.381.381,0,0,1,.115.524.389.389,0,0,1-.525.114l-2.644-1.29c1.345,3.225,1.611,6.921,1.833,10.388.028.483-.727.446-.763-.043-.229-3.627-.477-7.554-2.124-10.86l-.137-.067-.672,3.865a.393.393,0,0,1-.4.359.383.383,0,0,1-.359-.4q.383-2.2.765-4.4a.391.391,0,0,1,.264-.323c-.2-.333-.419-.662-.66-.979a10.042,10.042,0,0,0-4.119-3.315c-.129-.054-.262-.1-.395-.144l-.075.018,1.468,3.644c.181.449-.49.807-.672.353l-1.647-4.089a.456.456,0,0,1-.032-.2,7.012,7.012,0,0,0-1.272-.148,30.6,30.6,0,0,0-3.234.247,9.555,9.555,0,0,1-1.7-.01,3.639,3.639,0,0,0,1.034.8,2.7,2.7,0,0,1,1.265,1.366c.163.46-.581.618-.742.162-.228-.642-1.04-.9-1.539-1.279a2.354,2.354,0,0,1-.9-1.2c-.126-.03-.252-.052-.376-.091a10.116,10.116,0,0,1-2.375-1.123,36.117,36.117,0,0,0-4.578-2.791,15.605,15.605,0,0,1,2.585,3.866c.147.314-.223.748-.542.5l-.379-.3a.4.4,0,0,1-.1-.5,15.014,15.014,0,0,0-2.916-3.872.322.322,0,0,1-.1-.185,13.706,13.706,0,0,0-6.456-.138q-.855.736-1.77,1.4l2.009,1.521c.387.294-.02.934-.41.639l-2.431-1.842a.387.387,0,0,1,.029-.656c.249-.173.486-.362.729-.545a15.163,15.163,0,0,0-1.578.639,19.707,19.707,0,0,0-6.948,5.814l-.949,0A21.485,21.485,0,0,1,1121.055,449.318Z" transform="translate(-1114.78 -440.6)" fill="#007656"/></g><g transform="translate(158.145 131.281)"><path d="M1118.32,455.607c.088.012.184.022.273.042a15.608,15.608,0,0,1,10.855,6.859c3.115,4.809,3.308,10.861,4.1,16.541a69.891,69.891,0,0,0,13.79,32.734c3.365-4.208,2.8-10.335,1.166-15.474s-4.2-10.123-4.293-15.52c-.062-3.562.967-7.044,1.846-10.5s1.616-7.06.976-10.566-2.964-6.925-6.4-7.862c-1.7-.46-3.524-.3-5.239-.676-2.753-.613-4.987-2.551-7.55-3.718s-5.982-1.2-7.677,1.045c-1.254,1.664-1.66,4.435-1.784,5.97C1118.325,455.163,1118.32,455.607,1118.32,455.607Z" transform="translate(-1118.32 -446.681)" fill="#47b695"/><path d="M1118.32,456.206c.088.012.184.022.273.042a7.18,7.18,0,0,1,4.556-3.668c.156,1.249,1.28,2.162,2.236,2.84.4.287.809-.355.414-.634-.783-.56-1.8-1.317-1.912-2.351a.027.027,0,0,1,0-.024,7.415,7.415,0,0,1,2.406-.089,8.544,8.544,0,0,1,3.05,1.014l.5,3.77a.379.379,0,1,0,.741-.161c-.133-1.036-.274-2.078-.406-3.114a12.967,12.967,0,0,1,3.832,4.062l-.985,3.681c-.123.47.6.709.728.237.259-.989.526-1.973.786-2.954a21.62,21.62,0,0,1,2.029,7.1.541.541,0,0,0-.046.072,23.08,23.08,0,0,1-2.206,4.608c-.252.413.383.826.641.412a24.182,24.182,0,0,0,1.783-3.482c.139,1.493.2,2.98.256,4.453.046,1.14.093,2.28.164,3.423-.847,1.5-1.687,3-2.534,4.494-.233.424.4.838.641.412.668-1.179,1.329-2.357,2-3.544.054.711.124,1.427.222,2.128a29.987,29.987,0,0,0,1,4.562c-.587,1.582-1.184,3.158-1.773,4.74-.172.457.547.689.719.232l1.426-3.8c.1.3.193.6.3.9,1.52,4.224,3.579,8.392,3.78,12.95.02.485.784.529.763.044-.216-4.912-2.484-9.291-4.048-13.863l3.73,3.773c.347.344.9-.166.564-.512q-2.377-2.4-4.745-4.8c-.018-.011-.035-.015-.045-.029a32.877,32.877,0,0,1-1.13-6.609l3.8,4.613c.309.383.865-.134.557-.51-1.482-1.807-2.97-3.6-4.452-5.411-.134-2.148-.192-4.3-.342-6.455-.023-.391-.062-.78-.094-1.177,1.1,1.447,2.2,2.887,3.292,4.335.3.385.857-.133.564-.519q-2.008-2.628-4.009-5.267a23.477,23.477,0,0,0-2.045-7.42l4,2.244c.426.241.838-.4.4-.641q-2.525-1.42-5.066-2.844c-.01-.006-.017,0-.018-.012-.288-.465-.589-.92-.928-1.368a13.309,13.309,0,0,0-2.664-2.59c.644-.009,1.287-.017,1.932-.017.488-.006.524-.767.036-.762l-3.142.033a9.082,9.082,0,0,0-5.346-1.205c-.159.019-.31.037-.46.061a4.409,4.409,0,0,1,1.346-1.381c.387-.295-.131-.85-.518-.556a4.088,4.088,0,0,0-1.684,2.116,8.26,8.26,0,0,0-4.808,3.295C1118.325,455.762,1118.32,456.206,1118.32,456.206Z" transform="translate(-1118.32 -447.28)" fill="#007656"/></g><g transform="translate(17.665 15.491)"><g transform="translate(72.269)"><g transform="translate(8.218)"><path d="M1042.756,313.958l10.753-13.122,5.2,7.88Z" transform="translate(-1042.756 -300.837)" fill="#ffb447"/></g><g transform="translate(0 2.232)"><path d="M1035.136,314.026l-2.731-10.3,5.869-.075Z" transform="translate(-1032.405 -303.648)" fill="#ffb447"/></g><g transform="translate(9.8 18.815)"><path d="M1044.748,326.109l11.2-1.573.254,5.38Z" transform="translate(-1044.748 -324.536)" fill="#ffb447"/></g></g><path d="M947.044,327.95l-.657-2.071-.657,2.071a9.2,9.2,0,0,1-4.354,5.291h0a9.2,9.2,0,0,1,4.354,5.291l.657,2.071.657-2.071a9.2,9.2,0,0,1,4.354-5.291h0A9.2,9.2,0,0,1,947.044,327.95Z" transform="translate(-941.377 -305.997)" fill="#fff"/><path d="M954.578,465.622l-.657-2.071-.656,2.071a9.2,9.2,0,0,1-4.355,5.291h0a9.2,9.2,0,0,1,4.355,5.291l.656,2.071.657-2.071a9.2,9.2,0,0,1,4.354-5.291h0A9.2,9.2,0,0,1,954.578,465.622Z" transform="translate(-942.93 -334.368)" fill="#fff"/><path d="M1089.956,397.724l-.656-2.071-.656,2.071a9.2,9.2,0,0,1-4.355,5.291h0a9.2,9.2,0,0,1,4.354,5.291l.656,2.071.656-2.071a9.2,9.2,0,0,1,4.355-5.291h0A9.2,9.2,0,0,1,1089.956,397.724Z" transform="translate(-970.828 -320.376)" fill="#fff"/><path d="M1063.121,389.276l-.39-1.232-.391,1.232a5.468,5.468,0,0,1-2.59,3.146h0a5.472,5.472,0,0,1,2.59,3.147l.391,1.232.39-1.232a5.472,5.472,0,0,1,2.59-3.147h0A5.468,5.468,0,0,1,1063.121,389.276Z" transform="translate(-965.771 -318.808)" fill="#fff"/><path d="M1086.651,338.381l-.39-1.232-.391,1.232a5.472,5.472,0,0,1-2.59,3.147h0a5.468,5.468,0,0,1,2.59,3.146l.391,1.232.39-1.232a5.471,5.471,0,0,1,2.59-3.146h0A5.475,5.475,0,0,1,1086.651,338.381Z" transform="translate(-970.62 -308.32)" fill="#fff"/><path d="M962.96,313.08l-.39-1.231-.391,1.231a5.472,5.472,0,0,1-2.59,3.147h0a5.472,5.472,0,0,1,2.59,3.147l.391,1.231.39-1.231a5.471,5.471,0,0,1,2.59-3.147h0A5.471,5.471,0,0,1,962.96,313.08Z" transform="translate(-945.13 -303.106)" fill="#fff"/></g></g></g></g></g></svg>