<svg xmlns="http://www.w3.org/2000/svg" width="73.606" height="73.56" viewBox="0 0 73.606 73.56">
  <g id="Grupo_86026" data-name="Grupo 86026" transform="translate(-848.528 -239.993)">
    <path id="Trazado_122192" data-name="Trazado 122192" d="M897.192,281.194a4.216,4.216,0,0,1,1.2,3.22c-.041,3.039-.006,6.079-.021,9.118a1.5,1.5,0,0,0,.382,1.062q2.327,2.74,4.605,5.52a.924.924,0,0,0,.806.387c1.854-.017,3.708-.021,5.561,0,.422.005.533-.116.529-.532q-.032-3.039,0-6.079c0-.425-.122-.528-.535-.527a13.532,13.532,0,0,1-3.754-.258,7.136,7.136,0,0,1-5.2-6.559c-.023-.741-.01-1.483-.01-2.224,0-.214-.06-.457.305-.441,2.045.089,4.107-.22,6.134.221a6.8,6.8,0,0,1,3.41,1.955c.265-.056.251-.3.333-.46a7.022,7.022,0,0,1,6.462-4.079c1.408-.034,2.818-.008,4.227,0,.228,0,.509-.1.492.329a16.529,16.529,0,0,1-.264,3.9,7.126,7.126,0,0,1-6.675,5.25c-.716.018-1.434.022-2.15,0-.327-.01-.417.094-.415.417.012,2.891.018,5.783,0,8.674,0,.5.29.405.571.405,2.768,0,5.537.017,8.305-.013.529-.006.647.138.64.651-.024,1.736,0,1.736-1.765,1.736-5.71,0-11.42-.007-17.13.012a1.281,1.281,0,0,1-1.115-.533c-1.19-1.466-2.408-2.908-3.736-4.505,0,.771-.01,1.353,0,1.935a6.138,6.138,0,0,1-1.426,4.1c-.746.921-1.46,1.87-2.23,2.77a4.318,4.318,0,0,0-1.1,3.122c.047,1.085-.012,2.175.021,3.261.013.435-.136.52-.541.519q-8.973-.019-17.946,0c-.435,0-.527-.137-.519-.541.025-1.21,0-2.422.011-3.633a3.675,3.675,0,0,0-.837-2.393c-.773-.963-1.37-2.28-2.374-2.784-.971-.486-2.363-.133-3.57-.15a11.808,11.808,0,0,1-3.094-.213,5.922,5.922,0,0,1-4.36-5.69c-.022-2.965-.012-5.931,0-8.9,0-.426-.035-.626-.567-.656a7.429,7.429,0,0,1-4.724-1.888,6.125,6.125,0,0,0-5.035-1.665c-1.537.144-1.547.029-1.547-1.538,0-5.56.013-11.12-.017-16.68,0-.634.167-.775.77-.748a12.453,12.453,0,0,0,3.47-.048c1.07-.267,1.848-1.261,2.771-1.914a8.191,8.191,0,0,1,4.256-1.546c.523-.034.631-.173.629-.675-.02-5.189-.014-10.379-.012-15.568a5.949,5.949,0,0,1,6.362-6.331q12.644,0,25.288,0a5.946,5.946,0,0,1,6.321,6.3c0,6.351.011,12.7-.014,19.053,0,.61.132.764.755.762,7.416-.025,14.832-.008,22.247-.031.611,0,.781.132.763.756-.048,1.631-.015,1.632-1.649,1.632h-22.47c-.271,0-.543.015-.814.023-1.19-.061-1.19-.061-1.19-1.286q0-7.337.008-14.674c0-.459-.027-.687-.607-.686q-16.013.03-32.026,0c-.481,0-.616.119-.612.607.024,2.767.012,5.534.012,8.3,0,1.808,0,1.785,1.789,1.793.511,0,.6-.169.593-.627-.021-2.3.013-4.6-.024-6.892-.01-.617.1-.82.783-.818q13.455.043,26.91,0c.717,0,.815.23.813.86q-.029,12.3-.01,24.6a1.649,1.649,0,0,0,.078.826A3.68,3.68,0,0,1,897.192,281.194ZM879.4,283.65V292.7c0,1.631,0,3.262-.006,4.893,0,.207.143.5-.286.537-2.651.232-4.413-1.154-4.866-3.333-.236-1.135-.417-2.281-.623-3.423-.3-1.675-.6-3.352-.909-5.025a1.4,1.4,0,0,0-2.8.239,6.657,6.657,0,0,0,.066,1.18c.516,3.166,1.017,6.335,1.58,9.493.832,4.667.11,3.2,3.007,6.864.138.175.268.357.421.518a7.086,7.086,0,0,1,2.034,5.816c-.056.57.116.735.709.73q6.378-.042,12.756,0c.657.005.856-.154.79-.8a7.033,7.033,0,0,1,1.977-5.688c.634-.689,1.162-1.475,1.769-2.19a4.2,4.2,0,0,0,1-2.861c-.02-4.794-.009-9.589-.009-14.383,0-.494.027-.991-.016-1.482a1.177,1.177,0,0,0-2.343-.013,4.176,4.176,0,0,0-.013.666q0,4.782,0,9.564c0,1.766,0,1.743-1.742,1.766-.526.007-.647-.137-.644-.652.022-4.35.013-8.7.012-13.049a3.6,3.6,0,0,0-.024-.739,1.143,1.143,0,0,0-1.13-.987,1.161,1.161,0,0,0-1.2,1,4.211,4.211,0,0,0-.02.666q0,6.043,0,12.085c0,1.673,0,1.64-1.678,1.683-.612.016-.709-.19-.707-.74.02-5.116.012-10.231.011-15.347a3.433,3.433,0,0,0-.026-.739,1.178,1.178,0,0,0-2.325.031,3.783,3.783,0,0,0-.021.739q0,7.229,0,14.458c0,1.584,0,1.554-1.615,1.6-.6.015-.776-.111-.775-.749.025-8.254.017-16.509.016-24.763,0-.222.013-.446-.009-.667a1.179,1.179,0,0,0-2.354-.02,6.224,6.224,0,0,0-.01.667Q879.4,276.941,879.4,283.65Zm-.033-34.167c5.311,0,10.622-.01,15.933.014.585,0,.756-.15.726-.73-.05-.961,0-1.926-.018-2.889a3.519,3.519,0,0,0-3.495-3.5q-13.117-.026-26.234,0a3.521,3.521,0,0,0-3.487,3.51c-.019.963.035,1.929-.018,2.889-.034.6.165.725.734.722C868.791,249.475,874.077,249.484,879.364,249.484Zm-18.953,23.967c-.557.223-1.02.448-1.506.594a8.714,8.714,0,0,1-1.518.318c-1.722.2-1.691.183-1.738-1.512-.018-.657.137-.856.828-.847a4.923,4.923,0,0,0,5.145-3.9c.176-.695.472-.851,1.145-.841,2.717.042,5.435.014,8.153.02a1.231,1.231,0,0,0,1.253-.735,1.089,1.089,0,0,0-.16-1.181,1.287,1.287,0,0,0-1.115-.462c-3.508.006-7.017,0-10.525.008a7.562,7.562,0,0,0-.956.092,7.429,7.429,0,0,0-3.851,2.081,4.742,4.742,0,0,1-4.077,1.382c-.44-.076-.584.075-.582.551q.031,6.557,0,13.115c0,.441.086.651.561.571a4.545,4.545,0,0,1,4.075,1.377,13.413,13.413,0,0,0,1.418,1.069,6.547,6.547,0,0,0,2.8,1.091c.533.093.663-.071.661-.594-.02-3.754-.011-7.509-.011-11.263Zm23.733,2.32a3.566,3.566,0,0,1,3.734.9c.415.409.509,1.125.924,1.382s1.067-.2,1.638-.086a1.5,1.5,0,0,1,.289.058c.52.226.541-.055.541-.47q-.013-10.188,0-20.375c0-.418-.05-.593-.545-.592q-11.34.028-22.679,0c-.427,0-.535.125-.525.536.026,1.185.009,2.371.009,3.556,0,1.954,0,1.941,1.937,1.859.367-.016.452-.127.443-.469-.022-.839.012-1.68-.015-2.519-.014-.414.042-.6.542-.6q8.968.031,17.936,0c.425,0,.527.124.525.535q-.021,6.594,0,13.188c0,.418-.111.54-.531.531-1.235-.027-2.471.008-3.705-.02-.422-.009-.55.115-.529.533C884.169,274.395,884.144,275.06,884.144,275.771ZM876.927,295.2a1.384,1.384,0,0,0,.085-.205q.007-10.666.022-21.333c0-.438-.187-.46-.527-.457-1.581.013-3.161.02-4.742,0-.607-.008-1.413.278-1.764-.126-.3-.343-.093-1.127-.1-1.715-.005-1.719,0-1.693-1.7-1.725-.552-.011-.688.126-.685.683.025,4.889.013,9.778.018,14.667,0,.15-.073.327.1.492.052-.115.091-.2.127-.28a3.777,3.777,0,0,1,7.3.788c.376,2.011.7,4.031,1.1,6.039A11.233,11.233,0,0,0,876.927,295.2Zm2.457-33.852q-3.262,0-6.525,0c-.188,0-.412-.087-.557.1a1.578,1.578,0,0,0,.366,1.483,3.471,3.471,0,0,1,1.822,2.135,3.4,3.4,0,0,1-1.752,4.128c-.724.364-.449.916-.432,1.385.017.485.5.236.762.246.864.034,1.73.012,2.595.012,1.312,0,1.312,0,1.366-1.316a3.576,3.576,0,0,1,3.43-3.426,3.612,3.612,0,0,1,3.678,3.173c.063.519-.268,1.233.186,1.508.4.242,1.06.024,1.6.07.492.042.612-.13.608-.61q-.034-4.151,0-8.3c0-.5-.154-.6-.621-.6C883.734,261.36,881.559,261.347,879.384,261.347Zm-16.6,20.244v1.037q0,4.48,0,8.96c0,.312-.089.625.446.613,1.554-.033,3.111-.021,4.666,0,.36,0,.39-.132.352-.439-.239-1.939-.233-1.94-2.208-1.94a.768.768,0,0,0-.148,0c-.637.125-.751-.163-.749-.759q.035-9.329.007-18.66c0-.244.166-.654-.146-.711-.44-.08-1.121-.263-1.332.081a3.8,3.8,0,0,0-.9,2.046C862.806,275.075,862.785,278.333,862.785,281.591Zm7.115,20.066c-.383-2.247-.769-4.455-1.128-6.666-.056-.342-.18-.44-.519-.437q-2.483.025-4.965,0c-.374,0-.522.083-.512.489.028,1.086-.018,2.174.02,3.259a3.477,3.477,0,0,0,3.107,3.334C867.224,301.743,868.56,301.658,869.9,301.658Zm44.312-13.026v0c.3,0,.593.007.89,0a4.791,4.791,0,0,0,4.611-4.138c.053-.39.055-.658-.488-.617-.688.052-1.384,0-2.075.021a4.76,4.76,0,0,0-4.369,3.514c-.314,1.223-.314,1.223.912,1.223Zm-9.332-2.373a10.262,10.262,0,0,1-1.2-.008c-.571-.076-.587.217-.522.649a4.768,4.768,0,0,0,3.762,4,18.046,18.046,0,0,0,3.03.11c.379.017.3-.252.275-.456a4.724,4.724,0,0,0-.889-2.323A4.819,4.819,0,0,0,904.88,286.258Z" transform="translate(0)" fill="#010101"/>
    <path id="Trazado_122193" data-name="Trazado 122193" d="M930.883,309.218a3.68,3.68,0,0,0-3.473-.693,1.649,1.649,0,0,1-.078-.826q-.006-12.3.01-24.605c0-.63-.1-.862-.813-.86q-13.455.044-26.91,0c-.685,0-.793.2-.783.818.037,2.3,0,4.595.024,6.892,0,.458-.082.63-.593.627-1.789-.009-1.789.014-1.789-1.793,0-2.767.013-5.534-.012-8.3,0-.487.131-.608.612-.607q16.013.02,32.026,0c.58,0,.609.227.607.686q-.021,7.337-.008,14.674c0,1.225,0,1.225,1.19,1.286Q930.887,302.866,930.883,309.218Z" transform="translate(-33.692 -28.025)" fill="#83d3ef"/>
    <path id="Trazado_122194" data-name="Trazado 122194" d="M1042.041,250c1.919,4.34,3.8,8.453,5.555,12.624a5.954,5.954,0,0,1-8.988,7.022,5.808,5.808,0,0,1-2.169-6.827C1038.169,258.569,1040.106,254.4,1042.041,250Zm.054,6.014c-.439.65-3.4,7.308-3.534,7.92a3.655,3.655,0,0,0,1.558,3.868,3.519,3.519,0,0,0,4.143-.208,3.636,3.636,0,0,0,1.089-4.211c-.577-1.438-1.235-2.844-1.863-4.262C1043.035,258.1,1042.572,257.077,1042.1,256.017Z" transform="translate(-131.796 -7.035)" fill="#030404"/>
    <path id="Trazado_122195" data-name="Trazado 122195" d="M1033.746,346.125c-2.966,0-5.932-.011-8.9.012-.481,0-.612-.118-.609-.6.011-1.779-.009-1.78,1.794-1.78,5.511,0,11.023.009,16.534-.014.551,0,.7.123.686.681-.034,1.7-.007,1.705-1.723,1.705Z" transform="translate(-123.496 -72.916)"/>
    <path id="Trazado_122196" data-name="Trazado 122196" d="M1038.636,360.976c0,1.151,0,1.151-1.148,1.151-1.225,0-1.225,0-1.225-1.222,0-1.151,0-1.151,1.148-1.151C1038.636,359.754,1038.636,359.754,1038.636,360.976Z" transform="translate(-131.947 -84.172)"/>
    <path id="Trazado_122197" data-name="Trazado 122197" d="M1053.433,359.754c1.176,0,1.176,0,1.176,1.2,0,1.175,0,1.175-1.2,1.175-1.176,0-1.176,0-1.176-1.2C1052.235,359.754,1052.235,359.754,1053.433,359.754Z" transform="translate(-143.172 -84.172)"/>
    <path id="Trazado_122198" data-name="Trazado 122198" d="M1070.581,360.872c0,1.254,0,1.254-1.267,1.254-1.106,0-1.106,0-1.106-1.119,0-1.254,0-1.254,1.267-1.254C1070.581,359.754,1070.581,359.754,1070.581,360.872Z" transform="translate(-154.399 -84.172)"/>
    <path id="Trazado_122199" data-name="Trazado 122199" d="M929.963,351q0-6.71,0-13.419a6.24,6.24,0,0,1,.01-.667,1.179,1.179,0,0,1,2.354.02c.022.221.009.445.009.667q0,12.382-.016,24.763c0,.638.177.765.775.749,1.615-.042,1.615-.013,1.615-1.6q0-7.229,0-14.458a3.783,3.783,0,0,1,.021-.739,1.178,1.178,0,0,1,2.325-.031,3.433,3.433,0,0,1,.026.739c0,5.116.009,10.231-.011,15.347,0,.549.095.756.707.74,1.677-.043,1.678-.011,1.678-1.683q0-6.043,0-12.085a4.218,4.218,0,0,1,.02-.666,1.161,1.161,0,0,1,1.2-1,1.143,1.143,0,0,1,1.13.987,3.6,3.6,0,0,1,.024.739c0,4.35.01,8.7-.012,13.049,0,.515.118.659.644.652,1.742-.023,1.742,0,1.742-1.766q0-4.782,0-9.564a4.177,4.177,0,0,1,.013-.666,1.177,1.177,0,0,1,2.343.013c.042.491.015.988.015,1.482,0,4.794-.011,9.589.009,14.383a4.2,4.2,0,0,1-1,2.861c-.607.716-1.135,1.5-1.769,2.19a7.034,7.034,0,0,0-1.977,5.688c.066.65-.133.809-.79.8q-6.378-.052-12.756,0c-.593,0-.766-.16-.709-.73a7.086,7.086,0,0,0-2.034-5.816c-.153-.16-.283-.343-.421-.518-2.9-3.669-2.175-2.2-3.007-6.864-.563-3.158-1.064-6.327-1.58-9.493a6.657,6.657,0,0,1-.066-1.18,1.4,1.4,0,0,1,2.8-.239c.312,1.673.607,3.35.909,5.025.206,1.141.387,2.288.623,3.423.454,2.179,2.215,3.565,4.866,3.333.429-.037.284-.33.286-.537.01-1.631.006-3.262.006-4.893Z" transform="translate(-50.566 -67.349)" fill="#e9d0b6"/>
    <path id="Trazado_122200" data-name="Trazado 122200" d="M913.041,255.088c-5.286,0-10.573-.009-15.859.013-.57,0-.768-.125-.734-.722.054-.96,0-1.926.018-2.889a3.521,3.521,0,0,1,3.487-3.51q13.117-.027,26.234,0a3.519,3.519,0,0,1,3.495,3.5c.021.963-.031,1.928.018,2.889.03.581-.141.733-.726.73C923.663,255.078,918.352,255.088,913.041,255.088Zm0-2.373h3.04c1.766,0,1.748,0,1.75-1.766,0-.478-.121-.623-.612-.618-2.372.026-4.745.012-7.117.012-1.815,0-1.8,0-1.787,1.8,0,.45.11.592.575.581C910.274,252.7,911.658,252.715,913.042,252.715Zm-7.088-1.173c0-1.2,0-1.2-1.192-1.2h-.074c-1.107,0-1.107,0-1.107,1.136,0,1.237,0,1.237,1.229,1.236C905.954,252.715,905.954,252.715,905.954,251.542Zm15.419,1.173c1.194,0,1.194,0,1.194-1.123,0-1.249,0-1.249-1.216-1.249-1.157,0-1.157,0-1.157,1.16C920.194,252.715,920.194,252.715,921.373,252.715Z" transform="translate(-33.677 -5.604)" fill="#969ea8"/>
    <path id="Trazado_122201" data-name="Trazado 122201" d="M866.037,332.364v.93c0,3.754-.009,7.508.011,11.263,0,.523-.128.687-.661.594a6.546,6.546,0,0,1-2.8-1.091,13.422,13.422,0,0,1-1.418-1.069,4.545,4.545,0,0,0-4.075-1.377c-.476.081-.563-.13-.561-.571q.025-6.558,0-13.115c0-.475.142-.626.582-.551A4.742,4.742,0,0,0,861.19,326a7.429,7.429,0,0,1,3.851-2.081,7.566,7.566,0,0,1,.956-.092c3.508-.007,7.017,0,10.525-.008a1.286,1.286,0,0,1,1.115.462,1.089,1.089,0,0,1,.161,1.181,1.231,1.231,0,0,1-1.253.735c-2.718-.005-5.436.022-8.153-.02-.673-.01-.969.146-1.145.841a4.923,4.923,0,0,1-5.145,3.9c-.691-.01-.846.19-.828.847.047,1.7.016,1.708,1.738,1.512a8.717,8.717,0,0,0,1.518-.318C865.017,332.812,865.48,332.588,866.037,332.364Z" transform="translate(-5.625 -58.914)" fill="#e9d0b6"/>
    <path id="Trazado_122202" data-name="Trazado 122202" d="M929.066,315.022c0-.711.025-1.376-.009-2.038-.021-.418.107-.542.529-.533,1.235.028,2.471-.008,3.705.02.42.01.532-.113.531-.531q-.023-6.594,0-13.189c0-.411-.1-.536-.525-.535q-8.967.021-17.936,0c-.5,0-.556.182-.542.6.027.839-.007,1.68.015,2.519.009.342-.076.453-.443.469-1.937.082-1.937.095-1.937-1.859,0-1.185.017-2.371-.009-3.556-.009-.412.1-.537.525-.536q11.339.02,22.679,0c.5,0,.546.174.545.592q-.017,10.188,0,20.375c0,.415-.02.7-.541.47a1.5,1.5,0,0,0-.289-.058c-.571-.117-1.226.342-1.638.086s-.509-.973-.924-1.382A3.566,3.566,0,0,0,929.066,315.022Z" transform="translate(-44.922 -39.252)" fill="#e5e8eb"/>
    <path id="Trazado_122203" data-name="Trazado 122203" d="M921.839,365.306a11.233,11.233,0,0,1-.773-3.175c-.393-2.007-.719-4.028-1.1-6.039a3.777,3.777,0,0,0-7.3-.788c-.035.083-.074.165-.127.28-.168-.165-.095-.342-.1-.492,0-4.889.007-9.778-.018-14.667,0-.557.133-.693.685-.683,1.7.033,1.7.007,1.7,1.725,0,.589-.2,1.373.1,1.715.351.4,1.157.118,1.764.126,1.581.021,3.162.014,4.742,0,.34,0,.528.019.527.457q-.027,10.666-.022,21.333A1.382,1.382,0,0,1,921.839,365.306Z" transform="translate(-44.911 -70.107)" fill="#e4e7ea"/>
    <path id="Trazado_122204" data-name="Trazado 122204" d="M935.439,311.811c2.175,0,4.35.013,6.525-.01.466-.005.626.1.621.6q-.04,4.15,0,8.3c0,.48-.116.651-.608.61-.54-.045-1.2.172-1.6-.07-.453-.275-.122-.989-.186-1.508a3.612,3.612,0,0,0-3.678-3.173,3.576,3.576,0,0,0-3.43,3.426c-.053,1.316-.053,1.316-1.366,1.316-.865,0-1.731.021-2.595-.012-.264-.01-.744.238-.762-.246-.017-.47-.292-1.021.432-1.385a3.4,3.4,0,0,0,1.752-4.128,3.471,3.471,0,0,0-1.822-2.135,1.579,1.579,0,0,1-.366-1.483c.145-.184.37-.1.557-.1Q932.177,311.806,935.439,311.811Z" transform="translate(-56.055 -50.464)" fill="#f4d57e"/>
    <path id="Trazado_122205" data-name="Trazado 122205" d="M896.469,351.541c0-3.258.022-6.516-.015-9.774a3.8,3.8,0,0,1,.9-2.046c.211-.345.892-.162,1.332-.081.312.057.146.467.146.711q.015,9.33-.007,18.66c0,.6.112.884.749.759a.767.767,0,0,1,.148,0c1.976,0,1.97,0,2.208,1.94.038.307.008.443-.352.439-1.555-.017-3.111-.029-4.666,0-.535.011-.446-.3-.446-.613q0-4.48,0-8.96Z" transform="translate(-33.684 -69.95)" fill="#83d3ef"/>
    <path id="Trazado_122206" data-name="Trazado 122206" d="M903.6,430.7c-1.339,0-2.676.085-4-.021a3.477,3.477,0,0,1-3.107-3.334c-.039-1.085.007-2.173-.02-3.259-.01-.406.138-.493.512-.489q2.482.026,4.965,0c.339,0,.463.095.519.437C902.828,426.248,903.213,428.455,903.6,430.7Z" transform="translate(-33.697 -129.045)" fill="#969ea8"/>
    <path id="Trazado_122207" data-name="Trazado 122207" d="M1065.763,392.4h-.519c-1.226,0-1.226,0-.912-1.223a4.76,4.76,0,0,1,4.369-3.514c.691-.025,1.387.031,2.075-.021.543-.041.541.227.488.617a4.791,4.791,0,0,1-4.611,4.138c-.3.008-.593,0-.89,0Z" transform="translate(-151.551 -103.772)" fill="#b9d888"/>
    <path id="Trazado_122208" data-name="Trazado 122208" d="M1034.035,395.632a4.819,4.819,0,0,1,4.46,1.968,4.725,4.725,0,0,1,.889,2.323c.024.2.1.473-.275.456a18.052,18.052,0,0,1-3.03-.11,4.768,4.768,0,0,1-3.762-4c-.065-.431-.049-.724.522-.649A10.258,10.258,0,0,0,1034.035,395.632Z" transform="translate(-129.155 -109.374)" fill="#b9d888"/>
    <path id="Trazado_122209" data-name="Trazado 122209" d="M1047.827,270.24c.476,1.06.94,2.081,1.394,3.106.628,1.418,1.286,2.824,1.863,4.262A3.637,3.637,0,0,1,1050,281.82a3.519,3.519,0,0,1-4.143.208,3.655,3.655,0,0,1-1.558-3.868C1044.43,277.548,1047.388,270.89,1047.827,270.24Z" transform="translate(-137.528 -21.259)" fill="#82d1ed"/>
    <path id="Trazado_122210" data-name="Trazado 122210" d="M941.117,258.309c-1.384,0-2.768-.02-4.152.012-.465.011-.572-.131-.575-.581-.011-1.8-.027-1.8,1.787-1.8,2.373,0,4.745.014,7.117-.012.491-.005.612.14.612.618,0,1.766.016,1.766-1.75,1.766Z" transform="translate(-61.752 -11.197)"/>
    <path id="Trazado_122211" data-name="Trazado 122211" d="M922.835,257.163c0,1.173,0,1.173-1.144,1.173-1.229,0-1.229,0-1.229-1.236,0-1.136,0-1.136,1.107-1.136h.074C922.835,255.964,922.835,255.964,922.835,257.163Z" transform="translate(-50.558 -11.225)"/>
    <path id="Trazado_122212" data-name="Trazado 122212" d="M977.545,258.336c-1.179,0-1.179,0-1.179-1.212,0-1.16,0-1.16,1.157-1.16,1.216,0,1.216,0,1.216,1.249C978.739,258.337,978.739,258.337,977.545,258.336Z" transform="translate(-89.849 -11.225)"/>
  </g>
</svg>
