<svg xmlns="http://www.w3.org/2000/svg" width="190" height="190" viewBox="0 0 190 190"><g transform="translate(-1230 -5094)"><g transform="translate(0 2876)"><rect width="190" height="190" transform="translate(1230 2218)" fill="none"/><g transform="translate(284.66 2195.59)"><path d="M987.692,59.881c-1.265-.261-2.227-.947-2.234-2.3-.02-3.652-.367-7.329.171-10.954.781-5.263,3.855-8.654,8.929-10.261a6.512,6.512,0,0,1,2.039-.185c16.906-.006,33.811.09,50.716-.068,4.572-.043,9.638,3.579,11.211,8.132a8.24,8.24,0,0,1,.69,3.079c-.048,1,.454,1.211,1.37,1.2,3.762-.045,7.525-.033,11.288-.014,3.266.017,4.915,1.262,5.623,4.42.2.9.629.9,1.306.9,3.392-.017,6.783-.025,10.175,0,4.232.027,6.35,2.138,6.362,6.37q.029,9.7,0,19.4c-.013,4.212-2.15,6.33-6.381,6.356-3.339.02-6.678.023-10.016-.01-.823-.008-1.28.064-1.484,1.081-.568,2.831-2.359,4.207-5.291,4.232-3.816.031-7.632.038-11.446-.011-.991-.012-1.408.183-1.37,1.3.087,2.594.061,5.194.009,7.79-.016.834.223,1.108,1.06,1.06,1.162-.067,2.332-.044,3.5-.006a5.424,5.424,0,0,1,5.493,5.419q.129,5.96.006,11.924a5.449,5.449,0,0,1-5.583,5.511c-1.906.06-3.816.052-5.722,0-.785-.022-.994.233-.973.991q.076,2.7,0,5.406c-.024.8.282.975,1.013.958,1.8-.044,3.6-.033,5.4-.01,3.589.044,5.813,2.252,5.886,5.855.035,1.749.031,3.5,0,5.247-.063,3.7-2.218,5.887-5.956,5.977-2.6.061-5.194.064-7.79-.011-1.206-.035-1.385.232-1.026,1.408q6.7,21.9,13.29,43.832a12.69,12.69,0,0,1,.53,2.31,2.142,2.142,0,0,1-1.677,2.384,2.2,2.2,0,0,1-2.687-1.158,6.126,6.126,0,0,1-.489-1.335q-6.99-23.053-13.948-46.117c-.29-.964-.642-1.435-1.706-1.317-1.715.19-4.026-.746-5,.374-.851.978-.259,3.225-.271,4.912-.02,2.65.055,5.3-.034,7.95a8.939,8.939,0,0,1-5.875,8.454,1.55,1.55,0,0,0-1.087,1.747c.025,7.632.016,15.264.013,22.9a13.142,13.142,0,0,1-.051,1.587,2.18,2.18,0,0,1-2.22,2.072,2.106,2.106,0,0,1-2.316-1.749,8.5,8.5,0,0,1-.18-1.884q-.018-11.448.009-22.9a1.642,1.642,0,0,0-1.2-1.837c-3.975-1.716-5.769-4.942-5.8-9.2-.027-3.71-.045-7.421.019-11.13.018-1.043-.273-1.4-1.315-1.3-1.725.167-3.889-.694-5.073.338-1.086.947-1.17,3.062-1.658,4.675q-6.407,21.161-12.8,42.325c-.077.253-.155.506-.244.755-.537,1.5-1.775,2.243-3.032,1.835a2.407,2.407,0,0,1-1.517-3.2c1.218-4.157,2.479-8.3,3.736-12.448q4.988-16.456,9.985-32.91c.12-.4.2-.809.335-1.359-2.883,0-5.682.005-8.482,0-4.547-.011-6.685-2.167-6.691-6.739,0-1.537-.044-3.076.011-4.611a5.609,5.609,0,0,1,5.891-5.74c1.854-.025,3.71-.034,5.563.01.7.017.916-.2.9-.894q-.064-2.781,0-5.564c.017-.7-.2-.91-.894-.894-1.854.044-3.71.042-5.564.008a5.593,5.593,0,0,1-5.887-5.755c-.078-3.814-.086-7.633,0-11.447a5.561,5.561,0,0,1,5.794-5.671c.053,0,.106,0,.159,0,1.355-.1,3.213.6,3.929-.288.679-.846.2-2.627.216-4s-.067-2.761.025-4.133c.073-1.08-.208-1.465-1.366-1.422-2.54.094-5.087.052-7.63.024-7.673-.083-12.918-5.362-12.965-13.049-.022-3.6.031-7.208-.019-10.812a2.742,2.742,0,0,1,2.284-3.107c2.046.516,2.495,1.074,2.5,3.2.011,3.391.147,6.79-.031,10.173-.267,5.055,3.262,9.043,8.83,8.867,6.564-.207,13.14-.059,19.71-.042,2,0,3.062.9,3.032,2.455-.029,1.508-1.023,2.294-2.972,2.31-1.855.016-3.71.044-5.563-.014-.837-.026-1.094.233-1.078,1.071.048,2.6.043,5.193,0,7.79-.012.756.206,1,.976.986q3.575-.069,7.153,0c.769.015,1.063-.25,1.3-.976,1.838-5.646,6.324-9,11.888-8.965,5.519.036,9.984,3.4,11.739,8.946.275.869.7,1,1.473.99,2.119-.039,4.244-.11,6.356.02,1.373.085,1.627-.384,1.621-1.667-.052-11.182-.033-22.363-.027-33.545,0-2.4.327-2.863,2.346-3.532,1.988.595,2.433,1.15,2.441,3.283.018,5.336-.016,10.672.021,16.007.01,1.459-.668,3.45.282,4.243,1.067.891,3.023.275,4.594.225,2.484.021,4.968.022,7.45.076.792.017,1.12-.2,1.118-1.064q-.036-15.547,0-31.095c0-.859-.326-1.085-1.119-1.068-2.482.054-4.966.057-7.449.079-1.151-.022-2.31.033-3.45-.086-1.21-.126-1.494.329-1.472,1.487.042,2.146-.447,2.691-2.412,3.237a2.675,2.675,0,0,1-2.358-3.037c.015-2.169.089-4.347-.058-6.507a7.91,7.91,0,0,0-8.3-7.8q-23.976-.042-47.952,0c-4.815.008-8.029,3.272-8.08,8.1-.029,2.7.008,5.4-.01,8.1C990.169,58.818,989.651,59.429,987.692,59.881Zm45.4,106.33c2.932-.024,4.778-1.809,4.8-4.687.02-3.01.006-6.02.006-9.03,0-3.854,0-3.854-3.836-3.715-1.421-.02-2.844-.015-4.263-.069-.821-.031-1.108.3-1.1,1.11.027,3.846-.058,7.694.037,11.538C1028.806,164.288,1030.354,165.9,1033.1,166.211Zm-2.527-55.627c2.6,1.368,5.049.747,7.274-.806,2.694-1.88,3.438-4.688,2.812-7.739a6.683,6.683,0,0,0-5.03-5.356,5.391,5.391,0,0,0-3.094-.391,7.633,7.633,0,0,0-6.686,6.583A7.246,7.246,0,0,0,1030.568,110.584Zm51.506-51.846c-.952,0-1.911.06-2.854-.029-1.235-.117-1.64.3-1.624,1.585.069,5.447.029,10.9.029,16.343,0,4.467,0,4.467,4.448,4.411,2.326.015,4.652,0,6.976.061,1.083.031,1.564-.4,1.563-1.463q-.008-9.755,0-19.511c0-1.066-.48-1.491-1.563-1.459C1086.727,58.744,1084.4,58.723,1082.075,58.739Zm-22.591,77.681c-.634-.02-1.268-.058-1.9-.059q-23.029,0-46.058,0c-2.594,0-5.19.052-7.782-.021-1.333-.037-1.818.493-1.751,1.777.061,1.162.011,2.329.013,3.494,0,2.225.078,2.3,2.338,2.3q26.682,0,53.364,0c.578,0,1.157-.069,1.735-.106a18.716,18.716,0,0,0,3.934.122,1.107,1.107,0,0,0,1.28-1.242q-.029-2.528,0-5.058c.013-.973-.487-1.3-1.383-1.27C1062.011,136.39,1060.747,136.4,1059.484,136.419Zm-.008-17.007c1.264.024,2.527.05,3.79.07.874.013,1.388-.323,1.384-1.3q-.027-5.378,0-10.756c0-.967-.469-1.309-1.373-1.28-1.264.04-2.528.045-3.792.066-4.341-.021-8.682-.024-13.024-.08-.8-.01-1.058.332-1.289,1.037-1.816,5.543-6.283,8.892-11.786,8.9a12.159,12.159,0,0,1-11.813-8.848c-.237-.744-.521-1.1-1.4-1.093q-8.26.068-16.522,0c-1.262-.01-1.681.5-1.666,1.7.042,3.125.012,6.25.015,9.375,0,2.242.033,2.272,2.348,2.272q26.692,0,53.382,0C1058.315,119.482,1058.9,119.436,1059.477,119.412Zm-15.5,12.172c2.434,0,4.868-.027,7.3.015.787.014,1.143-.153,1.112-1.034-.062-1.744-.054-3.492,0-5.237.024-.811-.2-1.1-1.057-1.09-4.867.037-9.735.029-14.6.006-.709,0-1.055.13-1.029.95.057,1.8.066,3.6,0,5.4-.035.922.391,1.016,1.137,1.006C1039.218,131.563,1041.6,131.584,1043.98,131.584Zm-21.5,0c2.433,0,4.867-.029,7.3.016.828.016,1.236-.12,1.192-1.092-.079-1.742-.073-3.493,0-5.236.037-.886-.312-1.031-1.091-1.026q-7.22.044-14.442,0c-.763,0-1.142.1-1.1,1.006.075,1.8.061,3.6,0,5.4-.025.8.268.964,1,.952C1017.718,131.556,1020.1,131.582,1022.479,131.582Z" transform="translate(0 0)" fill="#030303"/><path d="M989.031,62.447c1.958-.452,2.477-1.062,2.49-3.039.017-2.7-.019-5.4.01-8.1.052-4.825,3.265-8.089,8.08-8.1q23.977-.04,47.952,0a7.91,7.91,0,0,1,8.3,7.8c.147,2.16.073,4.338.058,6.507a2.675,2.675,0,0,0,2.358,3.037q0,2.338,0,4.676c-2.02.669-2.345,1.136-2.346,3.532-.006,11.182-.025,22.363.027,33.545.006,1.284-.247,1.752-1.621,1.667-2.112-.13-4.237-.059-6.356-.02-.773.014-1.2-.121-1.474-.99-1.755-5.548-6.22-8.91-11.739-8.946-5.564-.037-10.05,3.32-11.888,8.965-.236.726-.531.991-1.3.976q-3.575-.074-7.153,0c-.77.015-.988-.229-.976-.986.042-2.6.047-5.194,0-7.79-.015-.837.242-1.1,1.078-1.071,1.853.058,3.708.03,5.563.014,1.949-.017,2.944-.8,2.972-2.31.03-1.557-1.029-2.45-3.031-2.455-6.571-.017-13.146-.165-19.71.042-5.569.176-9.1-3.812-8.83-8.867.178-3.383.042-6.782.031-10.173-.006-2.131-.455-2.689-2.5-3.2Q989.027,64.8,989.031,62.447Zm27.934-.384v.005c3.442,0,6.884.025,10.326-.01,1.8-.019,2.76-.893,2.756-2.364a2.323,2.323,0,0,0-2.6-2.387c-7.043-.047-14.086-.028-21.129,0a2.468,2.468,0,0,0-2.1.937,2.219,2.219,0,0,0-.329,2.381,2.412,2.412,0,0,0,2.431,1.442Q1011.644,62.067,1016.966,62.063Zm-5.441,5.913c-1.691,0-3.383-.02-5.073.006-1.708.027-2.8.983-2.789,2.376a2.479,2.479,0,0,0,2.668,2.374q5.153.074,10.306,0a2.364,2.364,0,0,0,2.584-2.411c-.01-1.4-.987-2.3-2.621-2.336C1014.908,67.951,1013.216,67.977,1011.524,67.976Z" transform="translate(-1.339 -2.566)" fill="#f8da74"/><path d="M1068.958,159.259c-.581.024-1.162.07-1.742.07q-26.691.006-53.382,0c-2.315,0-2.347-.03-2.349-2.272,0-3.125.027-6.25-.015-9.375-.015-1.2.4-1.714,1.666-1.7q8.261.064,16.522,0c.875-.008,1.16.349,1.4,1.093a12.159,12.159,0,0,0,11.813,8.848c5.5-.005,9.97-3.354,11.786-8.9.231-.7.486-1.047,1.289-1.037,4.341.056,8.682.059,13.024.08Q1068.963,152.661,1068.958,159.259Z" transform="translate(-9.482 -39.847)" fill="#7e8cab"/><path d="M1068.922,200.837c-.579.037-1.157.106-1.735.106q-26.682.009-53.364,0c-2.26,0-2.333-.075-2.338-2.3,0-1.165.048-2.332-.013-3.494-.068-1.284.417-1.814,1.751-1.777,2.592.073,5.188.021,7.782.021q23.029,0,46.058,0c.634,0,1.268.038,1.9.059Q1068.943,197.147,1068.922,200.837Z" transform="translate(-9.48 -57.039)" fill="#7f8dac"/><path d="M1109.207,63.12c2.484-.022,4.967-.025,7.449-.079.793-.017,1.121.209,1.119,1.068q-.035,15.547,0,31.095c0,.862-.326,1.081-1.118,1.064-2.482-.054-4.966-.055-7.45-.076Q1109.208,79.656,1109.207,63.12Z" transform="translate(-44.931 -9.765)" fill="#f7da74"/><path d="M1137.137,71.578c2.325-.015,4.652.006,6.976-.062,1.083-.031,1.564.393,1.563,1.459q-.008,9.755,0,19.511c0,1.065-.48,1.493-1.562,1.463-2.324-.066-4.65-.046-6.976-.061Z" transform="translate(-55.062 -12.839)" fill="#3c4d76"/><path d="M1105.031,63.1q0,16.536,0,33.072c-1.571.05-3.527.666-4.594-.225-.949-.793-.271-2.784-.282-4.243-.037-5.335,0-10.671-.021-16.007-.008-2.133-.452-2.688-2.441-3.283q0-2.338,0-4.676c1.965-.546,2.453-1.091,2.412-3.237-.022-1.158.261-1.614,1.471-1.487C1102.722,63.138,1103.88,63.083,1105.031,63.1Z" transform="translate(-40.755 -9.75)" fill="#ecaf5b"/><path d="M1053.594,144.8a7.246,7.246,0,0,1-4.725-7.709,7.633,7.633,0,0,1,6.686-6.583,5.4,5.4,0,0,1,3.094.391,9.4,9.4,0,0,0,.211,1.231c1.539,4.984-.515,9.156-4.435,11.64C1054.014,144.036,1053.589,144.232,1053.594,144.8Z" transform="translate(-23.025 -34.221)" fill="#3c4d77"/><path d="M1134.588,71.587V93.9c-4.448.055-4.448.055-4.448-4.411,0-5.448.04-10.9-.029-16.343-.016-1.281.389-1.7,1.624-1.585C1132.678,71.647,1133.636,71.582,1134.588,71.587Z" transform="translate(-52.513 -12.848)" fill="#252f58"/><path d="M1057.772,230.291c-2.741-.315-4.289-1.923-4.361-4.853-.1-3.844-.01-7.692-.037-11.538-.006-.812.282-1.141,1.1-1.11,1.42.055,2.842.05,4.264.069,0,3.747-.005,7.493,0,11.241A18.124,18.124,0,0,1,1057.772,230.291Z" transform="translate(-24.677 -64.08)" fill="#3b4c75"/><path d="M1101.677,159.27q0-6.6.009-13.2c1.264-.02,2.528-.026,3.792-.066.9-.029,1.377.314,1.373,1.28q-.026,5.378,0,10.756c0,.973-.509,1.31-1.384,1.3C1104.2,159.32,1102.941,159.294,1101.677,159.27Z" transform="translate(-42.2 -39.858)" fill="#546685"/><path d="M1056.316,145.055c-.005-.573.42-.769.831-1.03,3.921-2.484,5.975-6.656,4.436-11.64a9.362,9.362,0,0,1-.211-1.231,6.685,6.685,0,0,1,5.03,5.357c.626,3.051-.118,5.859-2.812,7.739C1061.365,145.8,1058.921,146.424,1056.316,145.055Z" transform="translate(-25.748 -34.471)" fill="#252f58"/><path d="M1060.281,230.308a18.121,18.121,0,0,0,.97-6.191c-.008-3.747,0-7.494,0-11.241,3.836-.14,3.836-.14,3.836,3.715,0,3.01.015,6.02-.006,9.03C1065.059,228.5,1063.213,230.285,1060.281,230.308Z" transform="translate(-27.186 -64.098)" fill="#252f58"/><path d="M1101.622,200.844q.021-3.689.043-7.379c1.263-.022,2.526-.029,3.789-.07.9-.029,1.4.3,1.383,1.27q-.035,2.528,0,5.058a1.107,1.107,0,0,1-1.28,1.242A18.715,18.715,0,0,1,1101.622,200.844Z" transform="translate(-42.18 -57.046)" fill="#52617c"/><path d="M1025.308,70.08q-5.323,0-10.645,0a2.412,2.412,0,0,1-2.431-1.442,2.219,2.219,0,0,1,.329-2.381,2.468,2.468,0,0,1,2.1-.937c7.043-.024,14.086-.043,21.129,0a2.323,2.323,0,0,1,2.6,2.387c0,1.472-.955,2.345-2.756,2.364-3.442.035-6.884.01-10.326.01Z" transform="translate(-9.682 -10.583)" fill="#060603"/><path d="M1019.857,82.078c1.691,0,3.383-.026,5.073.008,1.634.034,2.612.937,2.621,2.336a2.364,2.364,0,0,1-2.584,2.411q-5.151.081-10.306,0a2.479,2.479,0,0,1-2.668-2.374c-.015-1.393,1.082-2.349,2.789-2.376C1016.474,82.057,1018.166,82.077,1019.857,82.078Z" transform="translate(-9.671 -16.667)" fill="#030303"/></g></g></g></svg>