<svg xmlns="http://www.w3.org/2000/svg" xmlns:xlink="http://www.w3.org/1999/xlink" width="610" height="563.696" viewBox="0 0 610 563.696"><defs><filter id="a" x="158.5" y="145.5" width="304" height="304" filterUnits="userSpaceOnUse"><feOffset dx="5" dy="5" input="SourceAlpha"/><feGaussianBlur stdDeviation="12.5" result="b"/><feFlood flood-opacity="0.031"/><feComposite operator="in" in2="b"/><feComposite in="SourceGraphic"/></filter></defs><g transform="translate(-495 -6056)"><g transform="translate(0 -58)"><circle cx="210" cy="210" r="210" transform="translate(590 6186)" fill="#eff5d6"/><g transform="translate(1342.489 6596.366)"><g transform="translate(-517.24 -93.987)"><path d="M-498.531-8.132a77.579,77.579,0,0,1-77.491-77.492,77.579,77.579,0,0,1,77.491-77.49,77.579,77.579,0,0,1,77.492,77.49A77.579,77.579,0,0,1-498.531-8.132Zm0-152.549a75.142,75.142,0,0,0-75.057,75.057,75.142,75.142,0,0,0,75.057,75.059,75.143,75.143,0,0,0,75.059-75.059A75.143,75.143,0,0,0-498.531-160.681Z" transform="translate(576.021 163.114)" fill="#204623"/><g transform="translate(17.567 76.563)"><path d="M-402.933-100.178h-99.805l-58.842,79.051a98.855,98.855,0,0,0,59.374,19.7A99.28,99.28,0,0,0-402.933-100.178Z" transform="translate(561.581 100.178)" fill="#deebad"/></g><g transform="translate(19.839 20.857)"><circle cx="56.992" cy="56.992" r="56.992" fill="#adce32"/></g></g><g transform="translate(-754.544 -93.987)"><g transform="translate(21.232)"><path d="M-753.634-85.624a77.579,77.579,0,0,1,77.491-77.49,77.579,77.579,0,0,1,77.492,77.49A77.579,77.579,0,0,1-676.143-8.132,77.579,77.579,0,0,1-753.634-85.624Zm2.433,0a75.142,75.142,0,0,0,75.057,75.059,75.143,75.143,0,0,0,75.059-75.059,75.143,75.143,0,0,0-75.059-75.057A75.143,75.143,0,0,0-751.2-85.624Z" transform="translate(753.634 163.114)" fill="#204623"/></g><g transform="translate(0 76.563)"><path d="M-771.087-100.178h99.8l58.842,79.051a98.849,98.849,0,0,1-59.373,19.7A99.28,99.28,0,0,1-771.087-100.178Z" transform="translate(771.087 100.178)" fill="#deebad"/></g><g transform="translate(42.392 20.857)"><circle cx="56.992" cy="56.992" r="56.992" fill="#adce32"/></g></g><g transform="translate(-745.264 -482.366)"><g transform="translate(21.232 20.333)"><path d="M-668.514-465.652a77.58,77.58,0,0,1,77.49,77.493,77.578,77.578,0,0,1-77.49,77.491,77.579,77.579,0,0,1-77.492-77.491A77.58,77.58,0,0,1-668.514-465.652Zm0,152.55a75.142,75.142,0,0,0,75.057-75.057,75.143,75.143,0,0,0-75.057-75.06,75.144,75.144,0,0,0-75.059,75.06A75.143,75.143,0,0,0-668.514-313.1Z" transform="translate(746.006 465.652)" fill="#204623"/></g><path d="M-763.459-383.613h99.805l58.842-79.051a98.855,98.855,0,0,0-59.374-19.7A99.28,99.28,0,0,0-763.459-383.613Z" transform="translate(763.459 482.366)" fill="#deebad"/><g transform="translate(42.392 40.477)"><circle cx="56.992" cy="56.992" r="56.992" fill="#adce32"/></g></g><g transform="translate(-507.96 -482.366)"><g transform="translate(0 20.333)"><path d="M-413.411-388.159a77.579,77.579,0,0,1-77.49,77.491,77.579,77.579,0,0,1-77.492-77.491A77.58,77.58,0,0,1-490.9-465.652,77.58,77.58,0,0,1-413.411-388.159Zm-2.433,0a75.143,75.143,0,0,0-75.057-75.06,75.144,75.144,0,0,0-75.059,75.06A75.143,75.143,0,0,0-490.9-313.1,75.142,75.142,0,0,0-415.844-388.159Z" transform="translate(568.393 465.652)" fill="#204623"/></g><g transform="translate(17.568)"><path d="M-395.306-383.613h-99.8l-58.842-79.051a98.849,98.849,0,0,1,59.373-19.7A99.28,99.28,0,0,1-395.306-383.613Z" transform="translate(553.952 482.366)" fill="#deebad"/></g><g transform="translate(19.839 40.477)"><circle cx="56.992" cy="56.992" r="56.992" fill="#adce32"/></g></g><g transform="translate(-412.509 -285.295)"><g transform="translate(0 7.538)"><path d="M-334.949-236.684a77.579,77.579,0,0,1-77.49,77.491,77.579,77.579,0,0,1-77.492-77.491,77.579,77.579,0,0,1,77.492-77.492A77.579,77.579,0,0,1-334.949-236.684Zm-2.433,0a75.143,75.143,0,0,0-75.057-75.059A75.144,75.144,0,0,0-487.5-236.684a75.143,75.143,0,0,0,75.059,75.057A75.142,75.142,0,0,0-337.382-236.684Z" transform="translate(489.931 314.176)" fill="#204623"/></g><g transform="translate(75.987)"><path d="M-387.676-143.362l-39.793-91.529,49.036-85.481a98.842,98.842,0,0,1,41.74,46.594A99.28,99.28,0,0,1-387.676-143.362Z" transform="translate(427.469 320.372)" fill="#deebad"/></g><g transform="translate(19.84 27.681)"><circle cx="56.992" cy="56.992" r="56.992" fill="#adce32"/></g></g><g transform="translate(-847.489 -299.583)"><g transform="translate(20.037 14.489)"><path d="M-831.018-242.717a77.579,77.579,0,0,1,77.492-77.49,77.579,77.579,0,0,1,77.492,77.49,77.581,77.581,0,0,1-77.492,77.493A77.58,77.58,0,0,1-831.018-242.717Zm2.433,0a75.144,75.144,0,0,0,75.059,75.06,75.144,75.144,0,0,0,75.059-75.06,75.143,75.143,0,0,0-75.059-75.057A75.143,75.143,0,0,0-828.585-242.717Z" transform="translate(831.018 320.207)" fill="#0b481e"/></g><path d="M-788.248-332.117l39.792,91.529-49.035,85.481A98.851,98.851,0,0,1-839.233-201.7,99.281,99.281,0,0,1-788.248-332.117Z" transform="translate(847.489 332.117)" fill="#deebad"/><g transform="translate(41.197 35.346)"><circle cx="56.992" cy="56.992" r="56.992" fill="#adce32"/></g></g></g><path d="M20.754,11.742h-4.93v4.031h5.727V17H14.324V5.625h7.148V6.852H15.824v3.664h4.93Zm3.8-3.2.047,1.063a3.08,3.08,0,0,1,2.531-1.219q2.68,0,2.7,3.023V17H28.395V11.406a1.946,1.946,0,0,0-.418-1.352A1.675,1.675,0,0,0,26.7,9.617a2.086,2.086,0,0,0-1.234.375,2.546,2.546,0,0,0-.828.984V17H23.191V8.547ZM32.73,17V9.664H31.395V8.547H32.73V7.68a2.878,2.878,0,0,1,.727-2.1,2.745,2.745,0,0,1,2.055-.742,3.816,3.816,0,0,1,.992.132l-.078,1.165a4.151,4.151,0,0,0-.781-.07,1.41,1.41,0,0,0-1.086.411,1.669,1.669,0,0,0-.383,1.18v.893h1.8V9.664h-1.8V17Zm4.461-4.3a4.993,4.993,0,0,1,.488-2.234A3.643,3.643,0,0,1,39.039,8.93a3.7,3.7,0,0,1,1.988-.539,3.565,3.565,0,0,1,2.793,1.2,4.6,4.6,0,0,1,1.066,3.18v.1a5.036,5.036,0,0,1-.473,2.215,3.589,3.589,0,0,1-1.352,1.527,3.743,3.743,0,0,1-2.02.547,3.556,3.556,0,0,1-2.785-1.2A4.575,4.575,0,0,1,37.191,12.8Zm1.453.172a3.616,3.616,0,0,0,.652,2.258,2.211,2.211,0,0,0,3.5-.012,3.955,3.955,0,0,0,.648-2.418,3.61,3.61,0,0,0-.66-2.254,2.1,2.1,0,0,0-1.754-.863,2.075,2.075,0,0,0-1.727.852A3.925,3.925,0,0,0,38.645,12.867Zm7.7-.164a4.961,4.961,0,0,1,.914-3.152,3.226,3.226,0,0,1,4.82-.152l.063-.852h1.328v11.7H52.027V16.219a3.033,3.033,0,0,1-2.328.938,2.915,2.915,0,0,1-2.441-1.191,5.072,5.072,0,0,1-.91-3.16Zm1.445.164a3.761,3.761,0,0,0,.613,2.281,1.951,1.951,0,0,0,1.652.828,2.164,2.164,0,0,0,1.969-1.141V10.7a2.171,2.171,0,0,0-1.953-1.117,1.965,1.965,0,0,0-1.664.832A4.094,4.094,0,0,0,47.793,12.867Zm13.219,3.3a3.07,3.07,0,0,1-2.477.992,2.628,2.628,0,0,1-2.059-.785,3.4,3.4,0,0,1-.715-2.324v-5.5h1.445v5.461q0,1.922,1.563,1.922a2.163,2.163,0,0,0,2.2-1.234V8.547h1.445V17H61.043Zm7.109.992a3.693,3.693,0,0,1-2.8-1.129,4.19,4.19,0,0,1-1.078-3.02v-.266a5.073,5.073,0,0,1,.48-2.246A3.748,3.748,0,0,1,66.07,8.949a3.378,3.378,0,0,1,1.871-.559A3.166,3.166,0,0,1,70.5,9.477a4.7,4.7,0,0,1,.914,3.109v.6H65.691a3,3,0,0,0,.73,2.02,2.3,2.3,0,0,0,1.777.77,2.517,2.517,0,0,0,1.3-.312,3.259,3.259,0,0,0,.93-.828l.883.688A3.55,3.55,0,0,1,68.121,17.156Zm-.18-7.578a1.928,1.928,0,0,0-1.469.637A3.1,3.1,0,0,0,65.738,12h4.234v-.109a2.753,2.753,0,0,0-.594-1.707A1.815,1.815,0,0,0,67.941,9.578ZM13.309,28.5v2.047h1.578v1.117H13.309v5.249a1.173,1.173,0,0,0,.211.763.888.888,0,0,0,.719.254,3.5,3.5,0,0,0,.688-.094V39a4.215,4.215,0,0,1-1.109.155,1.8,1.8,0,0,1-1.461-.586,2.517,2.517,0,0,1-.492-1.664V31.664H10.324V30.547h1.539V28.5Zm6.773,10.656a3.693,3.693,0,0,1-2.8-1.129,4.19,4.19,0,0,1-1.078-3.02v-.266a5.073,5.073,0,0,1,.48-2.246,3.748,3.748,0,0,1,1.344-1.547,3.378,3.378,0,0,1,1.871-.559,3.166,3.166,0,0,1,2.563,1.086,4.7,4.7,0,0,1,.914,3.109v.6H17.652a3,3,0,0,0,.73,2.02,2.3,2.3,0,0,0,1.777.77,2.517,2.517,0,0,0,1.3-.312,3.259,3.259,0,0,0,.93-.828l.883.688A3.55,3.55,0,0,1,20.082,39.156Zm-.18-7.578a1.928,1.928,0,0,0-1.469.637A3.1,3.1,0,0,0,17.7,34h4.234v-.109a2.753,2.753,0,0,0-.594-1.707A1.815,1.815,0,0,0,19.9,31.578Zm9.234.266a4.331,4.331,0,0,0-.711-.055A1.9,1.9,0,0,0,26.5,33v6H25.051V30.547h1.406l.023.977A2.251,2.251,0,0,1,28.5,30.391a1.477,1.477,0,0,1,.641.109Zm5.414,0a4.331,4.331,0,0,0-.711-.055A1.9,1.9,0,0,0,31.91,33v6H30.465V30.547h1.406l.023.977a2.251,2.251,0,0,1,2.016-1.133,1.477,1.477,0,0,1,.641.109ZM37.449,39H36V30.547h1.445ZM35.887,28.3a.863.863,0,0,1,.215-.594.807.807,0,0,1,.637-.242.819.819,0,0,1,.641.242.854.854,0,0,1,.219.594.826.826,0,0,1-.219.586.834.834,0,0,1-.641.234.821.821,0,0,1-.637-.234A.834.834,0,0,1,35.887,28.3Zm5.836.2v2.047H43.3v1.117H41.723v5.249a1.173,1.173,0,0,0,.211.763.888.888,0,0,0,.719.254,3.5,3.5,0,0,0,.688-.094V39a4.215,4.215,0,0,1-1.109.155,1.8,1.8,0,0,1-1.461-.586,2.517,2.517,0,0,1-.492-1.664V31.664H38.738V30.547h1.539V28.5Zm2.727,6.2a4.993,4.993,0,0,1,.488-2.234A3.643,3.643,0,0,1,46.3,30.93a3.7,3.7,0,0,1,1.988-.539,3.565,3.565,0,0,1,2.793,1.2,4.6,4.6,0,0,1,1.066,3.18v.1a5.036,5.036,0,0,1-.473,2.215,3.589,3.589,0,0,1-1.352,1.527,3.743,3.743,0,0,1-2.02.547,3.556,3.556,0,0,1-2.785-1.2A4.575,4.575,0,0,1,44.449,34.8Zm1.453.172a3.616,3.616,0,0,0,.652,2.258,2.211,2.211,0,0,0,3.5-.012A3.955,3.955,0,0,0,50.7,34.7a3.61,3.61,0,0,0-.66-2.254,2.1,2.1,0,0,0-1.754-.863,2.075,2.075,0,0,0-1.727.852A3.925,3.925,0,0,0,45.9,34.867Zm12.141-3.023a4.331,4.331,0,0,0-.711-.055A1.9,1.9,0,0,0,55.4,33v6H53.957V30.547h1.406l.023.977A2.251,2.251,0,0,1,57.4,30.391a1.477,1.477,0,0,1,.641.109ZM60.941,39H59.5V30.547h1.445ZM59.379,28.3a.863.863,0,0,1,.215-.594.807.807,0,0,1,.637-.242.819.819,0,0,1,.641.242.854.854,0,0,1,.219.594.826.826,0,0,1-.219.586.834.834,0,0,1-.641.234.821.821,0,0,1-.637-.234A.834.834,0,0,1,59.379,28.3ZM68.473,39a3.036,3.036,0,0,1-.2-.891,3.225,3.225,0,0,1-2.406,1.047,2.984,2.984,0,0,1-2.051-.707,2.287,2.287,0,0,1-.8-1.793,2.39,2.39,0,0,1,1-2.051,4.733,4.733,0,0,1,2.824-.73h1.406v-.664A1.623,1.623,0,0,0,67.793,32a1.821,1.821,0,0,0-1.336-.449,2.108,2.108,0,0,0-1.3.391,1.151,1.151,0,0,0-.523.945H63.184a2,2,0,0,1,.449-1.223,3.066,3.066,0,0,1,1.219-.934,4.1,4.1,0,0,1,1.691-.344,3.342,3.342,0,0,1,2.289.73,2.635,2.635,0,0,1,.859,2.012v3.891a4.757,4.757,0,0,0,.3,1.852V39Zm-2.4-1.1a2.54,2.54,0,0,0,1.289-.352,2.127,2.127,0,0,0,.883-.914V34.9H67.113q-2.656,0-2.656,1.555a1.316,1.316,0,0,0,.453,1.063A1.742,1.742,0,0,0,66.074,37.9ZM73.527,39H72.082V27h1.445Z" transform="translate(653 6189)" fill="#12263f"/><path d="M44.754,11.742h-4.93v4.031h5.727V17H38.324V5.625h7.148V6.852H39.824v3.664h4.93Zm3.8-3.2.047,1.063a3.08,3.08,0,0,1,2.531-1.219q2.68,0,2.7,3.023V17H52.395V11.406a1.946,1.946,0,0,0-.418-1.352A1.675,1.675,0,0,0,50.7,9.617a2.086,2.086,0,0,0-1.234.375,2.546,2.546,0,0,0-.828.984V17H47.191V8.547ZM56.73,17V9.664H55.395V8.547H56.73V7.68a2.878,2.878,0,0,1,.727-2.1,2.745,2.745,0,0,1,2.055-.742,3.816,3.816,0,0,1,.992.132l-.078,1.165a4.151,4.151,0,0,0-.781-.07,1.41,1.41,0,0,0-1.086.411,1.669,1.669,0,0,0-.383,1.18v.893h1.8V9.664h-1.8V17Zm4.461-4.3a4.993,4.993,0,0,1,.488-2.234A3.643,3.643,0,0,1,63.039,8.93a3.7,3.7,0,0,1,1.988-.539,3.565,3.565,0,0,1,2.793,1.2,4.6,4.6,0,0,1,1.066,3.18v.1a5.036,5.036,0,0,1-.473,2.215,3.589,3.589,0,0,1-1.352,1.527,3.743,3.743,0,0,1-2.02.547,3.556,3.556,0,0,1-2.785-1.2A4.575,4.575,0,0,1,61.191,12.8Zm1.453.172a3.616,3.616,0,0,0,.652,2.258,2.211,2.211,0,0,0,3.5-.012,3.955,3.955,0,0,0,.648-2.418,3.61,3.61,0,0,0-.66-2.254,2.1,2.1,0,0,0-1.754-.863,2.075,2.075,0,0,0-1.727.852A3.925,3.925,0,0,0,62.645,12.867Zm7.7-.164a4.961,4.961,0,0,1,.914-3.152,3.226,3.226,0,0,1,4.82-.152l.063-.852h1.328v11.7H76.027V16.219a3.033,3.033,0,0,1-2.328.938,2.915,2.915,0,0,1-2.441-1.191,5.072,5.072,0,0,1-.91-3.16Zm1.445.164a3.761,3.761,0,0,0,.613,2.281,1.951,1.951,0,0,0,1.652.828,2.164,2.164,0,0,0,1.969-1.141V10.7a2.171,2.171,0,0,0-1.953-1.117,1.965,1.965,0,0,0-1.664.832A4.094,4.094,0,0,0,71.793,12.867Zm13.219,3.3a3.07,3.07,0,0,1-2.477.992,2.628,2.628,0,0,1-2.059-.785,3.4,3.4,0,0,1-.715-2.324v-5.5h1.445v5.461q0,1.922,1.563,1.922a2.163,2.163,0,0,0,2.2-1.234V8.547h1.445V17H85.043Zm7.109.992a3.693,3.693,0,0,1-2.8-1.129,4.19,4.19,0,0,1-1.078-3.02v-.266a5.073,5.073,0,0,1,.48-2.246A3.748,3.748,0,0,1,90.07,8.949a3.378,3.378,0,0,1,1.871-.559A3.166,3.166,0,0,1,94.5,9.477a4.7,4.7,0,0,1,.914,3.109v.6H89.691a3,3,0,0,0,.73,2.02,2.3,2.3,0,0,0,1.777.77,2.517,2.517,0,0,0,1.3-.312,3.259,3.259,0,0,0,.93-.828l.883.688A3.55,3.55,0,0,1,92.121,17.156Zm-.18-7.578a1.928,1.928,0,0,0-1.469.637A3.1,3.1,0,0,0,89.738,12h4.234v-.109a2.753,2.753,0,0,0-.594-1.707A1.815,1.815,0,0,0,91.941,9.578ZM7.582,30.547l.039.938a3.122,3.122,0,0,1,2.508-1.094,2.417,2.417,0,0,1,2.414,1.359,3.2,3.2,0,0,1,1.1-.984,3.242,3.242,0,0,1,1.6-.375q2.781,0,2.828,2.945V39H16.621V33.422a1.941,1.941,0,0,0-.414-1.355,1.823,1.823,0,0,0-1.391-.449,1.916,1.916,0,0,0-1.336.48,1.949,1.949,0,0,0-.617,1.293V39H11.41V33.461a1.613,1.613,0,0,0-1.8-1.844A1.934,1.934,0,0,0,7.66,32.828V39H6.215V30.547Zm17.883,7.617a3.07,3.07,0,0,1-2.477.992,2.628,2.628,0,0,1-2.059-.785,3.4,3.4,0,0,1-.715-2.324v-5.5H21.66v5.461q0,1.922,1.563,1.922a2.163,2.163,0,0,0,2.2-1.234V30.547h1.445V39H25.5ZM30.637,39H29.191V27h1.445ZM34.91,28.5v2.047h1.578v1.117H34.91v5.249a1.173,1.173,0,0,0,.211.763.888.888,0,0,0,.719.254,3.5,3.5,0,0,0,.688-.094V39a4.215,4.215,0,0,1-1.109.155,1.8,1.8,0,0,1-1.461-.586,2.517,2.517,0,0,1-.492-1.664V31.664H31.926V30.547h1.539V28.5ZM39.746,39H38.3V30.547h1.445ZM38.184,28.3a.863.863,0,0,1,.215-.594.807.807,0,0,1,.637-.242.819.819,0,0,1,.641.242.854.854,0,0,1,.219.594.826.826,0,0,1-.219.586.834.834,0,0,1-.641.234.821.821,0,0,1-.637-.234A.834.834,0,0,1,38.184,28.3Zm3.523,6.4a4.952,4.952,0,0,1,.922-3.129,3.137,3.137,0,0,1,4.766-.168V27H48.84V39H47.512l-.07-.906a2.943,2.943,0,0,1-2.414,1.063,2.887,2.887,0,0,1-2.395-1.2,5.008,5.008,0,0,1-.926-3.141Zm1.445.164a3.749,3.749,0,0,0,.594,2.25,1.919,1.919,0,0,0,1.641.813A2.108,2.108,0,0,0,47.395,36.7V32.813a2.125,2.125,0,0,0-1.992-1.2,1.929,1.929,0,0,0-1.656.82A4.128,4.128,0,0,0,43.152,34.867ZM52.652,39H51.207V30.547h1.445ZM51.09,28.3a.863.863,0,0,1,.215-.594.807.807,0,0,1,.637-.242.819.819,0,0,1,.641.242.854.854,0,0,1,.219.594.826.826,0,0,1-.219.586.834.834,0,0,1-.641.234.821.821,0,0,1-.637-.234A.834.834,0,0,1,51.09,28.3Zm5.234,2.242.039.938a3.122,3.122,0,0,1,2.508-1.094,2.417,2.417,0,0,1,2.414,1.359,3.2,3.2,0,0,1,1.1-.984,3.242,3.242,0,0,1,1.6-.375q2.781,0,2.828,2.945V39H65.363V33.422a1.941,1.941,0,0,0-.414-1.355,1.823,1.823,0,0,0-1.391-.449,1.916,1.916,0,0,0-1.336.48,1.949,1.949,0,0,0-.617,1.293V39H60.152V33.461a1.613,1.613,0,0,0-1.8-1.844A1.934,1.934,0,0,0,56.4,32.828V39H54.957V30.547ZM72.5,39.156a3.693,3.693,0,0,1-2.8-1.129,4.19,4.19,0,0,1-1.078-3.02v-.266A5.073,5.073,0,0,1,69.1,32.5a3.748,3.748,0,0,1,1.344-1.547,3.378,3.378,0,0,1,1.871-.559,3.166,3.166,0,0,1,2.563,1.086,4.7,4.7,0,0,1,.914,3.109v.6H70.066a3,3,0,0,0,.73,2.02,2.3,2.3,0,0,0,1.777.77,2.517,2.517,0,0,0,1.3-.312,3.259,3.259,0,0,0,.93-.828l.883.688A3.55,3.55,0,0,1,72.5,39.156Zm-.18-7.578a1.928,1.928,0,0,0-1.469.637A3.1,3.1,0,0,0,70.113,34h4.234v-.109a2.753,2.753,0,0,0-.594-1.707A1.815,1.815,0,0,0,72.316,31.578Zm6.516-1.031.047,1.063a3.08,3.08,0,0,1,2.531-1.219q2.68,0,2.7,3.023V39H82.668V33.406a1.946,1.946,0,0,0-.418-1.352,1.675,1.675,0,0,0-1.277-.437,2.086,2.086,0,0,0-1.234.375,2.546,2.546,0,0,0-.828.984V39H77.465V30.547Zm12.383,6.211a1.064,1.064,0,0,0-.441-.91,4.249,4.249,0,0,0-1.539-.559,7.277,7.277,0,0,1-1.742-.562,2.479,2.479,0,0,1-.953-.781,1.869,1.869,0,0,1-.309-1.078,2.193,2.193,0,0,1,.879-1.758,3.432,3.432,0,0,1,2.246-.719,3.532,3.532,0,0,1,2.332.742,2.357,2.357,0,0,1,.895,1.9H91.129a1.3,1.3,0,0,0-.5-1.023,1.888,1.888,0,0,0-1.27-.43,1.976,1.976,0,0,0-1.234.344,1.082,1.082,0,0,0-.445.9.877.877,0,0,0,.414.789,5.1,5.1,0,0,0,1.5.508,7.8,7.8,0,0,1,1.754.578,2.558,2.558,0,0,1,1,.809,1.988,1.988,0,0,1,.324,1.152,2.163,2.163,0,0,1-.906,1.816,3.8,3.8,0,0,1-2.352.684,4.257,4.257,0,0,1-1.8-.359,2.922,2.922,0,0,1-1.223-1,2.42,2.42,0,0,1-.441-1.395h1.445a1.5,1.5,0,0,0,.582,1.152,2.258,2.258,0,0,0,1.434.426,2.331,2.331,0,0,0,1.316-.332A1.02,1.02,0,0,0,91.215,36.758ZM96.113,39H94.668V30.547h1.445ZM94.551,28.3a.863.863,0,0,1,.215-.594.807.807,0,0,1,.637-.242.819.819,0,0,1,.641.242.854.854,0,0,1,.219.594.826.826,0,0,1-.219.586.834.834,0,0,1-.641.234.821.821,0,0,1-.637-.234A.834.834,0,0,1,94.551,28.3ZM98.043,34.7a4.993,4.993,0,0,1,.488-2.234,3.643,3.643,0,0,1,1.359-1.531,3.7,3.7,0,0,1,1.988-.539,3.565,3.565,0,0,1,2.793,1.2,4.6,4.6,0,0,1,1.066,3.18v.1a5.036,5.036,0,0,1-.473,2.215,3.589,3.589,0,0,1-1.352,1.527,3.743,3.743,0,0,1-2.02.547,3.556,3.556,0,0,1-2.785-1.2A4.575,4.575,0,0,1,98.043,34.8Zm1.453.172a3.616,3.616,0,0,0,.652,2.258,2.211,2.211,0,0,0,3.5-.012,3.955,3.955,0,0,0,.648-2.418,3.61,3.61,0,0,0-.66-2.254,2.1,2.1,0,0,0-1.754-.863,2.075,2.075,0,0,0-1.727.852A3.925,3.925,0,0,0,99.5,34.867Zm9.422-4.32.047,1.063a3.08,3.08,0,0,1,2.531-1.219q2.68,0,2.7,3.023V39h-1.445V33.406a1.946,1.946,0,0,0-.418-1.352,1.675,1.675,0,0,0-1.277-.437,2.086,2.086,0,0,0-1.234.375,2.546,2.546,0,0,0-.828.984V39h-1.445V30.547ZM121.6,39a3.036,3.036,0,0,1-.2-.891,3.225,3.225,0,0,1-2.406,1.047,2.984,2.984,0,0,1-2.051-.707,2.288,2.288,0,0,1-.8-1.793,2.39,2.39,0,0,1,1-2.051,4.733,4.733,0,0,1,2.824-.73h1.406v-.664A1.623,1.623,0,0,0,120.918,32a1.821,1.821,0,0,0-1.336-.449,2.108,2.108,0,0,0-1.3.391,1.151,1.151,0,0,0-.523.945h-1.453a2,2,0,0,1,.449-1.223,3.066,3.066,0,0,1,1.219-.934,4.1,4.1,0,0,1,1.691-.344,3.342,3.342,0,0,1,2.289.73,2.635,2.635,0,0,1,.859,2.012v3.891a4.757,4.757,0,0,0,.3,1.852V39Zm-2.4-1.1a2.54,2.54,0,0,0,1.289-.352,2.127,2.127,0,0,0,.883-.914V34.9h-1.133q-2.656,0-2.656,1.555a1.316,1.316,0,0,0,.453,1.063A1.742,1.742,0,0,0,119.2,37.9Zm7.453,1.1h-1.445V27h1.445Z" transform="translate(622 6557)" fill="#12263f"/><path d="M21.523,11.742h-4.93v4.031H22.32V17H15.094V5.625h7.148V6.852H16.594v3.664h4.93Zm3.8-3.2.047,1.063a3.08,3.08,0,0,1,2.531-1.219q2.68,0,2.7,3.023V17H29.164V11.406a1.946,1.946,0,0,0-.418-1.352,1.675,1.675,0,0,0-1.277-.437,2.086,2.086,0,0,0-1.234.375,2.546,2.546,0,0,0-.828.984V17H23.961V8.547ZM33.5,17V9.664H32.164V8.547H33.5V7.68a2.878,2.878,0,0,1,.727-2.1,2.745,2.745,0,0,1,2.055-.742,3.816,3.816,0,0,1,.992.132L37.2,6.133a4.151,4.151,0,0,0-.781-.07,1.41,1.41,0,0,0-1.086.411,1.669,1.669,0,0,0-.383,1.18v.893h1.8V9.664h-1.8V17Zm4.461-4.3a4.993,4.993,0,0,1,.488-2.234A3.643,3.643,0,0,1,39.809,8.93,3.7,3.7,0,0,1,41.8,8.391a3.565,3.565,0,0,1,2.793,1.2,4.6,4.6,0,0,1,1.066,3.18v.1a5.036,5.036,0,0,1-.473,2.215,3.589,3.589,0,0,1-1.352,1.527,3.743,3.743,0,0,1-2.02.547,3.556,3.556,0,0,1-2.785-1.2A4.575,4.575,0,0,1,37.961,12.8Zm1.453.172a3.616,3.616,0,0,0,.652,2.258,2.211,2.211,0,0,0,3.5-.012,3.955,3.955,0,0,0,.648-2.418,3.61,3.61,0,0,0-.66-2.254A2.1,2.1,0,0,0,41.8,9.578a2.075,2.075,0,0,0-1.727.852A3.925,3.925,0,0,0,39.414,12.867Zm7.7-.164a4.961,4.961,0,0,1,.914-3.152,3.226,3.226,0,0,1,4.82-.152l.063-.852h1.328v11.7H52.8V16.219a3.033,3.033,0,0,1-2.328.938,2.915,2.915,0,0,1-2.441-1.191,5.072,5.072,0,0,1-.91-3.16Zm1.445.164a3.761,3.761,0,0,0,.613,2.281,1.951,1.951,0,0,0,1.652.828A2.164,2.164,0,0,0,52.8,14.836V10.7a2.171,2.171,0,0,0-1.953-1.117,1.965,1.965,0,0,0-1.664.832A4.094,4.094,0,0,0,48.563,12.867Zm13.219,3.3a3.07,3.07,0,0,1-2.477.992,2.628,2.628,0,0,1-2.059-.785,3.4,3.4,0,0,1-.715-2.324v-5.5h1.445v5.461q0,1.922,1.563,1.922a2.163,2.163,0,0,0,2.2-1.234V8.547h1.445V17H61.813Zm7.109.992a3.693,3.693,0,0,1-2.8-1.129,4.19,4.19,0,0,1-1.078-3.02v-.266A5.073,5.073,0,0,1,65.5,10.5,3.748,3.748,0,0,1,66.84,8.949a3.378,3.378,0,0,1,1.871-.559,3.166,3.166,0,0,1,2.563,1.086,4.7,4.7,0,0,1,.914,3.109v.6H66.461a3,3,0,0,0,.73,2.02,2.3,2.3,0,0,0,1.777.77,2.517,2.517,0,0,0,1.3-.312,3.259,3.259,0,0,0,.93-.828l.883.688A3.55,3.55,0,0,1,68.891,17.156Zm-.18-7.578a1.928,1.928,0,0,0-1.469.637A3.1,3.1,0,0,0,66.508,12h4.234v-.109a2.753,2.753,0,0,0-.594-1.707A1.815,1.815,0,0,0,68.711,9.578ZM77.469,12.7a4.952,4.952,0,0,1,.922-3.129,3.137,3.137,0,0,1,4.766-.168V5H84.6V17H83.273l-.07-.906a2.943,2.943,0,0,1-2.414,1.063,2.887,2.887,0,0,1-2.395-1.2,5.008,5.008,0,0,1-.926-3.141Zm1.445.164a3.749,3.749,0,0,0,.594,2.25,1.92,1.92,0,0,0,1.641.813A2.108,2.108,0,0,0,83.156,14.7V10.813a2.125,2.125,0,0,0-1.992-1.2,1.929,1.929,0,0,0-1.656.82A4.128,4.128,0,0,0,78.914,12.867Zm11.438,4.289a3.693,3.693,0,0,1-2.8-1.129,4.19,4.19,0,0,1-1.078-3.02v-.266a5.073,5.073,0,0,1,.48-2.246A3.748,3.748,0,0,1,88.3,8.949a3.378,3.378,0,0,1,1.871-.559,3.166,3.166,0,0,1,2.563,1.086,4.7,4.7,0,0,1,.914,3.109v.6H87.922a3,3,0,0,0,.73,2.02,2.3,2.3,0,0,0,1.777.77,2.517,2.517,0,0,0,1.3-.312,3.259,3.259,0,0,0,.93-.828l.883.688A3.55,3.55,0,0,1,90.352,17.156Zm-.18-7.578a1.928,1.928,0,0,0-1.469.637A3.1,3.1,0,0,0,87.969,12H92.2v-.109a2.753,2.753,0,0,0-.594-1.707A1.815,1.815,0,0,0,90.172,9.578ZM8.344,33.93a7.053,7.053,0,0,1-2.809-1.363,2.6,2.6,0,0,1-.879-2A2.751,2.751,0,0,1,5.73,28.348a4.269,4.269,0,0,1,2.793-.879,4.66,4.66,0,0,1,2.09.453,3.436,3.436,0,0,1,1.422,1.25,3.2,3.2,0,0,1,.5,1.742H11.031a2.08,2.08,0,0,0-.656-1.627A2.669,2.669,0,0,0,8.523,28.7a2.732,2.732,0,0,0-1.73.489,1.632,1.632,0,0,0-.621,1.358,1.468,1.468,0,0,0,.59,1.178,5.786,5.786,0,0,0,2.008.88,9.316,9.316,0,0,1,2.219.88A3.367,3.367,0,0,1,12.176,34.6a2.861,2.861,0,0,1,.387,1.508,2.658,2.658,0,0,1-1.078,2.215,4.6,4.6,0,0,1-2.883.832,5.347,5.347,0,0,1-2.187-.449,3.681,3.681,0,0,1-1.566-1.23A3,3,0,0,1,4.3,35.7H5.8a1.959,1.959,0,0,0,.762,1.629,3.207,3.207,0,0,0,2.035.6,2.948,2.948,0,0,0,1.82-.484,1.573,1.573,0,0,0,.633-1.32,1.545,1.545,0,0,0-.586-1.293A6.755,6.755,0,0,0,8.344,33.93Zm5.531.766a4.993,4.993,0,0,1,.488-2.234,3.643,3.643,0,0,1,1.359-1.531,3.7,3.7,0,0,1,1.988-.539,3.565,3.565,0,0,1,2.793,1.2,4.6,4.6,0,0,1,1.066,3.18v.1a5.036,5.036,0,0,1-.473,2.215,3.589,3.589,0,0,1-1.352,1.527,3.743,3.743,0,0,1-2.02.547,3.556,3.556,0,0,1-2.785-1.2A4.575,4.575,0,0,1,13.875,34.8Zm1.453.172a3.616,3.616,0,0,0,.652,2.258,2.211,2.211,0,0,0,3.5-.012,3.955,3.955,0,0,0,.648-2.418,3.61,3.61,0,0,0-.66-2.254,2.1,2.1,0,0,0-1.754-.863,2.075,2.075,0,0,0-1.727.852A3.925,3.925,0,0,0,15.328,34.867ZM28.3,36.758a1.064,1.064,0,0,0-.441-.91,4.249,4.249,0,0,0-1.539-.559,7.277,7.277,0,0,1-1.742-.562,2.479,2.479,0,0,1-.953-.781,1.869,1.869,0,0,1-.309-1.078,2.193,2.193,0,0,1,.879-1.758,3.432,3.432,0,0,1,2.246-.719,3.532,3.532,0,0,1,2.332.742,2.357,2.357,0,0,1,.895,1.9H28.219a1.3,1.3,0,0,0-.5-1.023,1.888,1.888,0,0,0-1.27-.43,1.976,1.976,0,0,0-1.234.344,1.082,1.082,0,0,0-.445.9.877.877,0,0,0,.414.789,5.1,5.1,0,0,0,1.5.508,7.8,7.8,0,0,1,1.754.578,2.558,2.558,0,0,1,1,.809,1.988,1.988,0,0,1,.324,1.152,2.163,2.163,0,0,1-.906,1.816,3.8,3.8,0,0,1-2.352.684,4.257,4.257,0,0,1-1.8-.359,2.922,2.922,0,0,1-1.223-1,2.42,2.42,0,0,1-.441-1.395h1.445a1.5,1.5,0,0,0,.582,1.152,2.258,2.258,0,0,0,1.434.426,2.331,2.331,0,0,0,1.316-.332A1.02,1.02,0,0,0,28.3,36.758ZM33.594,28.5v2.047h1.578v1.117H33.594v5.249a1.173,1.173,0,0,0,.211.763.888.888,0,0,0,.719.254,3.5,3.5,0,0,0,.688-.094V39a4.215,4.215,0,0,1-1.109.155,1.8,1.8,0,0,1-1.461-.586,2.517,2.517,0,0,1-.492-1.664V31.664H30.609V30.547h1.539V28.5Zm6.773,10.656a3.693,3.693,0,0,1-2.8-1.129,4.19,4.19,0,0,1-1.078-3.02v-.266a5.073,5.073,0,0,1,.48-2.246,3.748,3.748,0,0,1,1.344-1.547,3.378,3.378,0,0,1,1.871-.559,3.166,3.166,0,0,1,2.563,1.086,4.7,4.7,0,0,1,.914,3.109v.6H37.938a3,3,0,0,0,.73,2.02,2.3,2.3,0,0,0,1.777.77,2.517,2.517,0,0,0,1.3-.312,3.258,3.258,0,0,0,.93-.828l.883.688A3.55,3.55,0,0,1,40.367,39.156Zm-.18-7.578a1.928,1.928,0,0,0-1.469.637A3.1,3.1,0,0,0,37.984,34h4.234v-.109a2.753,2.753,0,0,0-.594-1.707A1.815,1.815,0,0,0,40.188,31.578ZM46.7,30.547l.047,1.063a3.08,3.08,0,0,1,2.531-1.219q2.68,0,2.7,3.023V39H50.539V33.406a1.946,1.946,0,0,0-.418-1.352,1.675,1.675,0,0,0-1.277-.437,2.086,2.086,0,0,0-1.234.375,2.546,2.546,0,0,0-.828.984V39H45.336V30.547ZM55.734,39H54.289V30.547h1.445ZM54.172,28.3a.863.863,0,0,1,.215-.594.807.807,0,0,1,.637-.242.819.819,0,0,1,.641.242.854.854,0,0,1,.219.594.826.826,0,0,1-.219.586.834.834,0,0,1-.641.234.821.821,0,0,1-.637-.234A.834.834,0,0,1,54.172,28.3ZM65.2,34.867a5.026,5.026,0,0,1-.891,3.113,2.846,2.846,0,0,1-2.391,1.176,2.947,2.947,0,0,1-2.477-1.133l-.07.977H58.047V27h1.445v4.477a2.93,2.93,0,0,1,2.414-1.086,2.863,2.863,0,0,1,2.418,1.164,5.177,5.177,0,0,1,.879,3.188ZM63.758,34.7a3.906,3.906,0,0,0-.57-2.281,1.888,1.888,0,0,0-1.641-.8,2.122,2.122,0,0,0-2.055,1.328V36.6a2.181,2.181,0,0,0,2.07,1.328,1.878,1.878,0,0,0,1.617-.8A4.153,4.153,0,0,0,63.758,34.7ZM68.594,39H67.148V30.547h1.445ZM67.031,28.3a.863.863,0,0,1,.215-.594.807.807,0,0,1,.637-.242.819.819,0,0,1,.641.242.854.854,0,0,1,.219.594.826.826,0,0,1-.219.586.834.834,0,0,1-.641.234.821.821,0,0,1-.637-.234A.834.834,0,0,1,67.031,28.3ZM72.477,39H71.031V27h1.445Zm3.883,0H74.914V30.547h1.445ZM74.8,28.3a.863.863,0,0,1,.215-.594.807.807,0,0,1,.637-.242.819.819,0,0,1,.641.242.854.854,0,0,1,.219.594.826.826,0,0,1-.219.586.834.834,0,0,1-.641.234.821.821,0,0,1-.637-.234A.834.834,0,0,1,74.8,28.3Zm3.523,6.4a4.952,4.952,0,0,1,.922-3.129,3.137,3.137,0,0,1,4.766-.168V27h1.445V39H84.125l-.07-.906a2.943,2.943,0,0,1-2.414,1.063,2.887,2.887,0,0,1-2.395-1.2,5.008,5.008,0,0,1-.926-3.141Zm1.445.164a3.749,3.749,0,0,0,.594,2.25A1.92,1.92,0,0,0,82,37.93,2.108,2.108,0,0,0,84.008,36.7V32.813a2.125,2.125,0,0,0-1.992-1.2,1.929,1.929,0,0,0-1.656.82A4.128,4.128,0,0,0,79.766,34.867ZM92.914,39a3.036,3.036,0,0,1-.2-.891A3.225,3.225,0,0,1,90.3,39.156a2.984,2.984,0,0,1-2.051-.707,2.288,2.288,0,0,1-.8-1.793,2.39,2.39,0,0,1,1-2.051,4.733,4.733,0,0,1,2.824-.73h1.406v-.664A1.623,1.623,0,0,0,92.234,32a1.821,1.821,0,0,0-1.336-.449,2.108,2.108,0,0,0-1.3.391,1.151,1.151,0,0,0-.523.945H87.625a2,2,0,0,1,.449-1.223,3.066,3.066,0,0,1,1.219-.934,4.1,4.1,0,0,1,1.691-.344,3.342,3.342,0,0,1,2.289.73,2.635,2.635,0,0,1,.859,2.012v3.891a4.757,4.757,0,0,0,.3,1.852V39Zm-2.4-1.1a2.54,2.54,0,0,0,1.289-.352,2.127,2.127,0,0,0,.883-.914V34.9H91.555q-2.656,0-2.656,1.555a1.316,1.316,0,0,0,.453,1.063A1.742,1.742,0,0,0,90.516,37.9Zm5.531-3.2a4.952,4.952,0,0,1,.922-3.129,3.137,3.137,0,0,1,4.766-.168V27h1.445V39h-1.328l-.07-.906a2.943,2.943,0,0,1-2.414,1.063,2.887,2.887,0,0,1-2.395-1.2,5.008,5.008,0,0,1-.926-3.141Zm1.445.164a3.749,3.749,0,0,0,.594,2.25,1.92,1.92,0,0,0,1.641.813,2.108,2.108,0,0,0,2.008-1.234V32.813a2.125,2.125,0,0,0-1.992-1.2,1.929,1.929,0,0,0-1.656.82A4.128,4.128,0,0,0,97.492,34.867Z" transform="translate(540 6363)" fill="#12263f"/><path d="M20.754,11.742h-4.93v4.031h5.727V17H14.324V5.625h7.148V6.852H15.824v3.664h4.93Zm3.8-3.2.047,1.063a3.08,3.08,0,0,1,2.531-1.219q2.68,0,2.7,3.023V17H28.395V11.406a1.946,1.946,0,0,0-.418-1.352A1.675,1.675,0,0,0,26.7,9.617a2.086,2.086,0,0,0-1.234.375,2.546,2.546,0,0,0-.828.984V17H23.191V8.547ZM32.73,17V9.664H31.395V8.547H32.73V7.68a2.878,2.878,0,0,1,.727-2.1,2.745,2.745,0,0,1,2.055-.742,3.816,3.816,0,0,1,.992.132l-.078,1.165a4.151,4.151,0,0,0-.781-.07,1.41,1.41,0,0,0-1.086.411,1.669,1.669,0,0,0-.383,1.18v.893h1.8V9.664h-1.8V17Zm4.461-4.3a4.993,4.993,0,0,1,.488-2.234A3.643,3.643,0,0,1,39.039,8.93a3.7,3.7,0,0,1,1.988-.539,3.565,3.565,0,0,1,2.793,1.2,4.6,4.6,0,0,1,1.066,3.18v.1a5.036,5.036,0,0,1-.473,2.215,3.589,3.589,0,0,1-1.352,1.527,3.743,3.743,0,0,1-2.02.547,3.556,3.556,0,0,1-2.785-1.2A4.575,4.575,0,0,1,37.191,12.8Zm1.453.172a3.616,3.616,0,0,0,.652,2.258,2.211,2.211,0,0,0,3.5-.012,3.955,3.955,0,0,0,.648-2.418,3.61,3.61,0,0,0-.66-2.254,2.1,2.1,0,0,0-1.754-.863,2.075,2.075,0,0,0-1.727.852A3.925,3.925,0,0,0,38.645,12.867Zm7.7-.164a4.961,4.961,0,0,1,.914-3.152,3.226,3.226,0,0,1,4.82-.152l.063-.852h1.328v11.7H52.027V16.219a3.033,3.033,0,0,1-2.328.938,2.915,2.915,0,0,1-2.441-1.191,5.072,5.072,0,0,1-.91-3.16Zm1.445.164a3.761,3.761,0,0,0,.613,2.281,1.951,1.951,0,0,0,1.652.828,2.164,2.164,0,0,0,1.969-1.141V10.7a2.171,2.171,0,0,0-1.953-1.117,1.965,1.965,0,0,0-1.664.832A4.094,4.094,0,0,0,47.793,12.867Zm13.219,3.3a3.07,3.07,0,0,1-2.477.992,2.628,2.628,0,0,1-2.059-.785,3.4,3.4,0,0,1-.715-2.324v-5.5h1.445v5.461q0,1.922,1.563,1.922a2.163,2.163,0,0,0,2.2-1.234V8.547h1.445V17H61.043Zm7.109.992a3.693,3.693,0,0,1-2.8-1.129,4.19,4.19,0,0,1-1.078-3.02v-.266a5.073,5.073,0,0,1,.48-2.246A3.748,3.748,0,0,1,66.07,8.949a3.378,3.378,0,0,1,1.871-.559A3.166,3.166,0,0,1,70.5,9.477a4.7,4.7,0,0,1,.914,3.109v.6H65.691a3,3,0,0,0,.73,2.02,2.3,2.3,0,0,0,1.777.77,2.517,2.517,0,0,0,1.3-.312,3.259,3.259,0,0,0,.93-.828l.883.688A3.55,3.55,0,0,1,68.121,17.156Zm-.18-7.578a1.928,1.928,0,0,0-1.469.637A3.1,3.1,0,0,0,65.738,12h4.234v-.109a2.753,2.753,0,0,0-.594-1.707A1.815,1.815,0,0,0,67.941,9.578ZM5.992,34.7a4.952,4.952,0,0,1,.922-3.129,2.915,2.915,0,0,1,2.414-1.184,2.932,2.932,0,0,1,2.352,1.016V27h1.445V39H11.8l-.07-.906a2.943,2.943,0,0,1-2.414,1.063,2.887,2.887,0,0,1-2.395-1.2,5.008,5.008,0,0,1-.926-3.141Zm1.445.164a3.749,3.749,0,0,0,.594,2.25,1.92,1.92,0,0,0,1.641.813A2.108,2.108,0,0,0,11.68,36.7V32.813a2.125,2.125,0,0,0-1.992-1.2,1.929,1.929,0,0,0-1.656.82A4.128,4.128,0,0,0,7.438,34.867ZM16.938,39H15.492V30.547h1.445ZM15.375,28.3a.863.863,0,0,1,.215-.594.807.807,0,0,1,.637-.242.819.819,0,0,1,.641.242.854.854,0,0,1,.219.594.826.826,0,0,1-.219.586.834.834,0,0,1-.641.234.821.821,0,0,1-.637-.234A.834.834,0,0,1,15.375,28.3ZM19.961,39V31.664H18.625V30.547h1.336V29.68a2.878,2.878,0,0,1,.727-2.1,2.745,2.745,0,0,1,2.055-.742,3.816,3.816,0,0,1,.992.132l-.078,1.165a4.151,4.151,0,0,0-.781-.07,1.41,1.41,0,0,0-1.086.411,1.669,1.669,0,0,0-.383,1.18v.893h1.8v1.117h-1.8V39Zm8.352.156a3.693,3.693,0,0,1-2.8-1.129,4.19,4.19,0,0,1-1.078-3.02v-.266a5.073,5.073,0,0,1,.48-2.246,3.748,3.748,0,0,1,1.344-1.547,3.378,3.378,0,0,1,1.871-.559A3.166,3.166,0,0,1,30.7,31.477a4.7,4.7,0,0,1,.914,3.109v.6H25.883a3,3,0,0,0,.73,2.02,2.3,2.3,0,0,0,1.777.77,2.517,2.517,0,0,0,1.3-.312,3.259,3.259,0,0,0,.93-.828l.883.688A3.55,3.55,0,0,1,28.313,39.156Zm-.18-7.578a1.928,1.928,0,0,0-1.469.637A3.1,3.1,0,0,0,25.93,34h4.234v-.109a2.753,2.753,0,0,0-.594-1.707A1.815,1.815,0,0,0,28.133,31.578Zm9.234.266a4.331,4.331,0,0,0-.711-.055A1.9,1.9,0,0,0,34.727,33v6H33.281V30.547h1.406l.023.977a2.251,2.251,0,0,1,2.016-1.133,1.477,1.477,0,0,1,.641.109ZM42.2,39.156a3.693,3.693,0,0,1-2.8-1.129,4.19,4.19,0,0,1-1.078-3.02v-.266a5.073,5.073,0,0,1,.48-2.246,3.748,3.748,0,0,1,1.344-1.547,3.378,3.378,0,0,1,1.871-.559,3.166,3.166,0,0,1,2.563,1.086,4.7,4.7,0,0,1,.914,3.109v.6H39.773a3,3,0,0,0,.73,2.02,2.3,2.3,0,0,0,1.777.77,2.517,2.517,0,0,0,1.3-.312,3.258,3.258,0,0,0,.93-.828l.883.688A3.55,3.55,0,0,1,42.2,39.156Zm-.18-7.578a1.928,1.928,0,0,0-1.469.637A3.1,3.1,0,0,0,39.82,34h4.234v-.109a2.753,2.753,0,0,0-.594-1.707A1.815,1.815,0,0,0,42.023,31.578Zm6.516-1.031.047,1.063a3.08,3.08,0,0,1,2.531-1.219q2.68,0,2.7,3.023V39H52.375V33.406a1.946,1.946,0,0,0-.418-1.352,1.675,1.675,0,0,0-1.277-.437,2.086,2.086,0,0,0-1.234.375,2.546,2.546,0,0,0-.828.984V39H47.172V30.547Zm10.852,7.43a2.082,2.082,0,0,0,1.352-.469,1.649,1.649,0,0,0,.641-1.172H62.75a2.621,2.621,0,0,1-.5,1.383,3.293,3.293,0,0,1-1.23,1.047,3.55,3.55,0,0,1-1.629.391A3.482,3.482,0,0,1,56.645,38a4.59,4.59,0,0,1-1.02-3.152v-.242a5.089,5.089,0,0,1,.453-2.2,3.451,3.451,0,0,1,1.3-1.492,3.7,3.7,0,0,1,2-.531,3.39,3.39,0,0,1,2.363.852,3.043,3.043,0,0,1,1,2.211H61.383a1.992,1.992,0,0,0-.621-1.348,1.932,1.932,0,0,0-1.379-.527,2.023,2.023,0,0,0-1.707.793,3.724,3.724,0,0,0-.605,2.293v.273a3.65,3.65,0,0,0,.6,2.25A2.033,2.033,0,0,0,59.391,37.977ZM65.945,39H64.5V30.547h1.445ZM64.383,28.3a.863.863,0,0,1,.215-.594.807.807,0,0,1,.637-.242.819.819,0,0,1,.641.242.854.854,0,0,1,.219.594.826.826,0,0,1-.219.586.834.834,0,0,1-.641.234.821.821,0,0,1-.637-.234A.834.834,0,0,1,64.383,28.3ZM73.477,39a3.036,3.036,0,0,1-.2-.891,3.225,3.225,0,0,1-2.406,1.047,2.984,2.984,0,0,1-2.051-.707,2.288,2.288,0,0,1-.8-1.793,2.39,2.39,0,0,1,1-2.051,4.733,4.733,0,0,1,2.824-.73H73.25v-.664A1.623,1.623,0,0,0,72.8,32a1.821,1.821,0,0,0-1.336-.449,2.108,2.108,0,0,0-1.3.391,1.151,1.151,0,0,0-.523.945H68.188a2,2,0,0,1,.449-1.223,3.066,3.066,0,0,1,1.219-.934,4.1,4.1,0,0,1,1.691-.344,3.342,3.342,0,0,1,2.289.73,2.635,2.635,0,0,1,.859,2.012v3.891a4.757,4.757,0,0,0,.3,1.852V39Zm-2.4-1.1a2.54,2.54,0,0,0,1.289-.352,2.127,2.127,0,0,0,.883-.914V34.9H72.117q-2.656,0-2.656,1.555a1.316,1.316,0,0,0,.453,1.063A1.742,1.742,0,0,0,71.078,37.9ZM78.531,39H77.086V27h1.445Z" transform="translate(869 6189)" fill="#12263f"/><path d="M17.156,13.709a6.483,6.483,0,0,1-1.1,4.061,3.835,3.835,0,0,1-3.217,1.406,3.862,3.862,0,0,1-3.2-1.38,6.293,6.293,0,0,1-1.134-3.955V11.485A6.4,6.4,0,0,1,9.62,7.416a3.864,3.864,0,0,1,3.2-1.389,3.867,3.867,0,0,1,3.2,1.375,6.273,6.273,0,0,1,1.134,3.951Zm-2.54-2.59A4.686,4.686,0,0,0,14.181,8.8a1.47,1.47,0,0,0-1.358-.726,1.444,1.444,0,0,0-1.323.691,4.385,4.385,0,0,0-.453,2.16V14.04a4.919,4.919,0,0,0,.426,2.327,1.451,1.451,0,0,0,1.367.761,1.426,1.426,0,0,0,1.345-.73,4.8,4.8,0,0,0,.431-2.235ZM25.04,19H22.5V9.209l-3.032.94V8.084l5.3-1.9h.272Z" transform="translate(649 6131)" fill="#12263f"/><path d="M17.156,13.709a6.483,6.483,0,0,1-1.1,4.061,3.835,3.835,0,0,1-3.217,1.406,3.862,3.862,0,0,1-3.2-1.38,6.293,6.293,0,0,1-1.134-3.955V11.485A6.4,6.4,0,0,1,9.62,7.416a3.864,3.864,0,0,1,3.2-1.389,3.867,3.867,0,0,1,3.2,1.375,6.273,6.273,0,0,1,1.134,3.951Zm-2.54-2.59A4.686,4.686,0,0,0,14.181,8.8a1.47,1.47,0,0,0-1.358-.726,1.444,1.444,0,0,0-1.323.691,4.385,4.385,0,0,0-.453,2.16V14.04a4.919,4.919,0,0,0,.426,2.327,1.451,1.451,0,0,0,1.367.761,1.426,1.426,0,0,0,1.345-.73,4.8,4.8,0,0,0,.431-2.235ZM27.642,19H18.87V17.26l4.14-4.412a10.212,10.212,0,0,0,1.261-1.626A2.612,2.612,0,0,0,24.68,9.9a1.955,1.955,0,0,0-.431-1.34,1.555,1.555,0,0,0-1.23-.488,1.677,1.677,0,0,0-1.358.593,2.35,2.35,0,0,0-.5,1.56H18.615a4.2,4.2,0,0,1,.558-2.136,3.934,3.934,0,0,1,1.578-1.516,4.8,4.8,0,0,1,2.312-.549,4.54,4.54,0,0,1,3.072.949,3.358,3.358,0,0,1,1.094,2.681,4.3,4.3,0,0,1-.492,1.934,10.745,10.745,0,0,1-1.687,2.294L22.14,16.952h5.5Z" transform="translate(927 6131)" fill="#12263f"/><path d="M17.156,13.709a6.483,6.483,0,0,1-1.1,4.061,3.835,3.835,0,0,1-3.217,1.406,3.862,3.862,0,0,1-3.2-1.38,6.293,6.293,0,0,1-1.134-3.955V11.485A6.4,6.4,0,0,1,9.62,7.416a3.864,3.864,0,0,1,3.2-1.389,3.867,3.867,0,0,1,3.2,1.375,6.273,6.273,0,0,1,1.134,3.951Zm-2.54-2.59A4.686,4.686,0,0,0,14.181,8.8a1.47,1.47,0,0,0-1.358-.726,1.444,1.444,0,0,0-1.323.691,4.385,4.385,0,0,0-.453,2.16V14.04a4.919,4.919,0,0,0,.426,2.327,1.451,1.451,0,0,0,1.367.761,1.426,1.426,0,0,0,1.345-.73,4.8,4.8,0,0,0,.431-2.235Zm6.838.357h1.354a1.907,1.907,0,0,0,1.433-.483,1.771,1.771,0,0,0,.466-1.283,1.566,1.566,0,0,0-.461-1.2,1.788,1.788,0,0,0-1.27-.431,1.874,1.874,0,0,0-1.222.4,1.279,1.279,0,0,0-.492,1.042h-2.54a3.124,3.124,0,0,1,.541-1.8,3.6,3.6,0,0,1,1.512-1.244,5.045,5.045,0,0,1,2.14-.448A4.785,4.785,0,0,1,26.095,7a3.314,3.314,0,0,1,1.151,2.676,2.693,2.693,0,0,1-.536,1.617A3.483,3.483,0,0,1,25.3,12.426a3.18,3.18,0,0,1,1.613,1.16,3.147,3.147,0,0,1,.532,1.828A3.369,3.369,0,0,1,26.2,18.147a5,5,0,0,1-3.292,1.028,4.741,4.741,0,0,1-3.133-1.011,3.3,3.3,0,0,1-1.217-2.672H21.1a1.472,1.472,0,0,0,.541,1.178,2.255,2.255,0,0,0,2.751-.022,1.654,1.654,0,0,0,.514-1.27q0-1.916-2.109-1.916H21.454Z" transform="translate(1066 6384)" fill="#12263f"/><path d="M12.656,13.709a6.483,6.483,0,0,1-1.1,4.061,3.835,3.835,0,0,1-3.217,1.406,3.862,3.862,0,0,1-3.2-1.38,6.293,6.293,0,0,1-1.134-3.955V11.485A6.4,6.4,0,0,1,5.12,7.416a3.864,3.864,0,0,1,3.2-1.389,3.867,3.867,0,0,1,3.2,1.375,6.273,6.273,0,0,1,1.134,3.951Zm-2.54-2.59A4.686,4.686,0,0,0,9.681,8.8a1.47,1.47,0,0,0-1.358-.726A1.444,1.444,0,0,0,7,8.766a4.385,4.385,0,0,0-.453,2.16V14.04a4.919,4.919,0,0,0,.426,2.327,1.451,1.451,0,0,0,1.367.761,1.426,1.426,0,0,0,1.345-.73,4.8,4.8,0,0,0,.431-2.235ZM21.261,6.071V8.163h-.246a4.315,4.315,0,0,0-2.773.9,3.642,3.642,0,0,0-1.261,2.417,3.46,3.46,0,0,1,2.575-1.037,3.26,3.26,0,0,1,2.654,1.2,4.792,4.792,0,0,1,.984,3.146,4.713,4.713,0,0,1-.541,2.259,3.877,3.877,0,0,1-1.529,1.573,4.443,4.443,0,0,1-2.237.563,4.15,4.15,0,0,1-3.265-1.406,5.459,5.459,0,0,1-1.244-3.753V13.1a8.215,8.215,0,0,1,.787-3.678,5.768,5.768,0,0,1,2.259-2.47,6.619,6.619,0,0,1,3.415-.883Zm-2.479,6.416a2.029,2.029,0,0,0-1.116.32,1.929,1.929,0,0,0-.738.847v.772a3.42,3.42,0,0,0,.5,1.987,1.619,1.619,0,0,0,1.406.715,1.6,1.6,0,0,0,1.323-.645,2.63,2.63,0,0,0,.505-1.671,2.625,2.625,0,0,0-.51-1.684A1.661,1.661,0,0,0,18.782,12.487Z" transform="translate(504 6377)" fill="#12263f"/><path d="M17.156,13.709a6.483,6.483,0,0,1-1.1,4.061,3.835,3.835,0,0,1-3.217,1.406,3.862,3.862,0,0,1-3.2-1.38,6.293,6.293,0,0,1-1.134-3.955V11.485A6.4,6.4,0,0,1,9.62,7.416a3.864,3.864,0,0,1,3.2-1.389,3.867,3.867,0,0,1,3.2,1.375,6.273,6.273,0,0,1,1.134,3.951Zm-2.54-2.59A4.686,4.686,0,0,0,14.181,8.8a1.47,1.47,0,0,0-1.358-.726,1.444,1.444,0,0,0-1.323.691,4.385,4.385,0,0,0-.453,2.16V14.04a4.919,4.919,0,0,0,.426,2.327,1.451,1.451,0,0,0,1.367.761,1.426,1.426,0,0,0,1.345-.73,4.8,4.8,0,0,0,.431-2.235Zm11.769,3.064h1.45v2.048h-1.45V19h-2.54V16.231H18.6l-.114-1.6L23.818,6.2h2.566Zm-5.37,0h2.83V9.666l-.167.29Z" transform="translate(921 6637)" fill="#12263f"/><path d="M17.156,13.709a6.483,6.483,0,0,1-1.1,4.061,3.835,3.835,0,0,1-3.217,1.406,3.862,3.862,0,0,1-3.2-1.38,6.293,6.293,0,0,1-1.134-3.955V11.485A6.4,6.4,0,0,1,9.62,7.416a3.864,3.864,0,0,1,3.2-1.389,3.867,3.867,0,0,1,3.2,1.375,6.273,6.273,0,0,1,1.134,3.951Zm-2.54-2.59A4.686,4.686,0,0,0,14.181,8.8a1.47,1.47,0,0,0-1.358-.726,1.444,1.444,0,0,0-1.323.691,4.385,4.385,0,0,0-.453,2.16V14.04a4.919,4.919,0,0,0,.426,2.327,1.451,1.451,0,0,0,1.367.761,1.426,1.426,0,0,0,1.345-.73,4.8,4.8,0,0,0,.431-2.235Zm4.632,1.588.738-6.5h7.172V8.321H22.069l-.316,2.751a4.027,4.027,0,0,1,1.925-.483,3.689,3.689,0,0,1,2.865,1.134A4.529,4.529,0,0,1,27.58,14.9a4.64,4.64,0,0,1-.523,2.219,3.691,3.691,0,0,1-1.5,1.521,4.678,4.678,0,0,1-2.3.541,4.968,4.968,0,0,1-2.153-.47,3.819,3.819,0,0,1-1.569-1.323,3.605,3.605,0,0,1-.611-1.942h2.514a1.878,1.878,0,0,0,.558,1.244,1.769,1.769,0,0,0,1.252.444,1.562,1.562,0,0,0,1.327-.62,2.87,2.87,0,0,0,.466-1.753,2.374,2.374,0,0,0-.536-1.67,1.967,1.967,0,0,0-1.521-.58,2.2,2.2,0,0,0-1.468.475l-.246.229Z" transform="translate(646 6637)" fill="#12263f"/><path d="M28.754,11.742h-4.93v4.031h5.727V17H22.324V5.625h7.148V6.852H23.824v3.664h4.93Zm3.8-3.2.047,1.063a3.08,3.08,0,0,1,2.531-1.219q2.68,0,2.7,3.023V17H36.395V11.406a1.946,1.946,0,0,0-.418-1.352A1.675,1.675,0,0,0,34.7,9.617a2.086,2.086,0,0,0-1.234.375,2.546,2.546,0,0,0-.828.984V17H31.191V8.547ZM40.73,17V9.664H39.395V8.547H40.73V7.68a2.878,2.878,0,0,1,.727-2.1,2.745,2.745,0,0,1,2.055-.742,3.816,3.816,0,0,1,.992.132l-.078,1.165a4.151,4.151,0,0,0-.781-.07,1.41,1.41,0,0,0-1.086.411,1.669,1.669,0,0,0-.383,1.18v.893h1.8V9.664h-1.8V17Zm4.461-4.3a4.993,4.993,0,0,1,.488-2.234A3.643,3.643,0,0,1,47.039,8.93a3.7,3.7,0,0,1,1.988-.539,3.565,3.565,0,0,1,2.793,1.2,4.6,4.6,0,0,1,1.066,3.18v.1a5.036,5.036,0,0,1-.473,2.215,3.589,3.589,0,0,1-1.352,1.527,3.743,3.743,0,0,1-2.02.547,3.556,3.556,0,0,1-2.785-1.2A4.575,4.575,0,0,1,45.191,12.8Zm1.453.172a3.616,3.616,0,0,0,.652,2.258,2.211,2.211,0,0,0,3.5-.012,3.955,3.955,0,0,0,.648-2.418,3.61,3.61,0,0,0-.66-2.254,2.1,2.1,0,0,0-1.754-.863,2.075,2.075,0,0,0-1.727.852A3.925,3.925,0,0,0,46.645,12.867Zm7.7-.164a4.961,4.961,0,0,1,.914-3.152,3.226,3.226,0,0,1,4.82-.152l.063-.852h1.328v11.7H60.027V16.219a3.033,3.033,0,0,1-2.328.938,2.915,2.915,0,0,1-2.441-1.191,5.072,5.072,0,0,1-.91-3.16Zm1.445.164a3.761,3.761,0,0,0,.613,2.281,1.951,1.951,0,0,0,1.652.828,2.164,2.164,0,0,0,1.969-1.141V10.7a2.171,2.171,0,0,0-1.953-1.117,1.965,1.965,0,0,0-1.664.832A4.094,4.094,0,0,0,55.793,12.867Zm13.219,3.3a3.07,3.07,0,0,1-2.477.992,2.628,2.628,0,0,1-2.059-.785,3.4,3.4,0,0,1-.715-2.324v-5.5h1.445v5.461q0,1.922,1.563,1.922a2.163,2.163,0,0,0,2.2-1.234V8.547h1.445V17H69.043Zm7.109.992a3.693,3.693,0,0,1-2.8-1.129,4.19,4.19,0,0,1-1.078-3.02v-.266a5.073,5.073,0,0,1,.48-2.246A3.748,3.748,0,0,1,74.07,8.949a3.378,3.378,0,0,1,1.871-.559A3.166,3.166,0,0,1,78.5,9.477a4.7,4.7,0,0,1,.914,3.109v.6H73.691a3,3,0,0,0,.73,2.02,2.3,2.3,0,0,0,1.777.77,2.517,2.517,0,0,0,1.3-.312,3.259,3.259,0,0,0,.93-.828l.883.688A3.55,3.55,0,0,1,76.121,17.156Zm-.18-7.578a1.928,1.928,0,0,0-1.469.637A3.1,3.1,0,0,0,73.738,12h4.234v-.109a2.753,2.753,0,0,0-.594-1.707A1.815,1.815,0,0,0,75.941,9.578ZM6.66,39H5.215V30.547H6.66ZM5.1,28.3a.863.863,0,0,1,.215-.594.807.807,0,0,1,.637-.242.819.819,0,0,1,.641.242.854.854,0,0,1,.219.594.826.826,0,0,1-.219.586.834.834,0,0,1-.641.234.821.821,0,0,1-.637-.234A.834.834,0,0,1,5.1,28.3Zm5.242,2.242.047,1.063a3.08,3.08,0,0,1,2.531-1.219q2.68,0,2.7,3.023V39H14.176V33.406a1.946,1.946,0,0,0-.418-1.352,1.675,1.675,0,0,0-1.277-.437,2.086,2.086,0,0,0-1.234.375,2.546,2.546,0,0,0-.828.984V39H8.973V30.547ZM19.762,28.5v2.047H21.34v1.117H19.762v5.249a1.173,1.173,0,0,0,.211.763.888.888,0,0,0,.719.254,3.5,3.5,0,0,0,.688-.094V39a4.215,4.215,0,0,1-1.109.155,1.8,1.8,0,0,1-1.461-.586,2.517,2.517,0,0,1-.492-1.664V31.664H16.777V30.547h1.539V28.5Zm6.773,10.656a3.693,3.693,0,0,1-2.8-1.129,4.19,4.19,0,0,1-1.078-3.02v-.266a5.073,5.073,0,0,1,.48-2.246,3.748,3.748,0,0,1,1.344-1.547,3.378,3.378,0,0,1,1.871-.559,3.166,3.166,0,0,1,2.563,1.086,4.7,4.7,0,0,1,.914,3.109v.6H24.105a3,3,0,0,0,.73,2.02,2.3,2.3,0,0,0,1.777.77,2.517,2.517,0,0,0,1.3-.312,3.259,3.259,0,0,0,.93-.828l.883.688A3.55,3.55,0,0,1,26.535,39.156Zm-.18-7.578a1.928,1.928,0,0,0-1.469.637A3.1,3.1,0,0,0,24.152,34h4.234v-.109a2.753,2.753,0,0,0-.594-1.707A1.815,1.815,0,0,0,26.355,31.578Zm9.234.266a4.331,4.331,0,0,0-.711-.055A1.9,1.9,0,0,0,32.949,33v6H31.5V30.547H32.91l.023.977a2.251,2.251,0,0,1,2.016-1.133,1.477,1.477,0,0,1,.641.109Zm6.25,4.914a1.064,1.064,0,0,0-.441-.91,4.249,4.249,0,0,0-1.539-.559,7.277,7.277,0,0,1-1.742-.562,2.479,2.479,0,0,1-.953-.781,1.869,1.869,0,0,1-.309-1.078,2.193,2.193,0,0,1,.879-1.758,3.432,3.432,0,0,1,2.246-.719,3.532,3.532,0,0,1,2.332.742,2.357,2.357,0,0,1,.895,1.9H41.754a1.3,1.3,0,0,0-.5-1.023,1.888,1.888,0,0,0-1.27-.43,1.976,1.976,0,0,0-1.234.344,1.082,1.082,0,0,0-.445.9.877.877,0,0,0,.414.789,5.1,5.1,0,0,0,1.5.508,7.8,7.8,0,0,1,1.754.578,2.558,2.558,0,0,1,1,.809,1.988,1.988,0,0,1,.324,1.152,2.163,2.163,0,0,1-.906,1.816,3.8,3.8,0,0,1-2.352.684,4.257,4.257,0,0,1-1.8-.359,2.922,2.922,0,0,1-1.223-1,2.42,2.42,0,0,1-.441-1.395h1.445a1.5,1.5,0,0,0,.582,1.152,2.258,2.258,0,0,0,1.434.426,2.331,2.331,0,0,0,1.316-.332A1.02,1.02,0,0,0,41.84,36.758Zm6.836,2.4a3.693,3.693,0,0,1-2.8-1.129,4.19,4.19,0,0,1-1.078-3.02v-.266a5.073,5.073,0,0,1,.48-2.246,3.748,3.748,0,0,1,1.344-1.547,3.378,3.378,0,0,1,1.871-.559,3.166,3.166,0,0,1,2.563,1.086,4.7,4.7,0,0,1,.914,3.109v.6H46.246a3,3,0,0,0,.73,2.02,2.3,2.3,0,0,0,1.777.77,2.517,2.517,0,0,0,1.3-.312,3.258,3.258,0,0,0,.93-.828l.883.688A3.55,3.55,0,0,1,48.676,39.156Zm-.18-7.578a1.928,1.928,0,0,0-1.469.637A3.1,3.1,0,0,0,46.293,34h4.234v-.109a2.753,2.753,0,0,0-.594-1.707A1.815,1.815,0,0,0,48.5,31.578Zm8.539,6.4a2.082,2.082,0,0,0,1.352-.469,1.649,1.649,0,0,0,.641-1.172h1.367a2.621,2.621,0,0,1-.5,1.383,3.293,3.293,0,0,1-1.23,1.047,3.55,3.55,0,0,1-1.629.391A3.482,3.482,0,0,1,54.289,38a4.59,4.59,0,0,1-1.02-3.152v-.242a5.089,5.089,0,0,1,.453-2.2,3.451,3.451,0,0,1,1.3-1.492,3.7,3.7,0,0,1,2-.531,3.39,3.39,0,0,1,2.363.852,3.043,3.043,0,0,1,1,2.211H59.027a1.992,1.992,0,0,0-.621-1.348,1.932,1.932,0,0,0-1.379-.527,2.023,2.023,0,0,0-1.707.793,3.724,3.724,0,0,0-.605,2.293v.273a3.65,3.65,0,0,0,.6,2.25A2.033,2.033,0,0,0,57.035,37.977ZM63.98,28.5v2.047h1.578v1.117H63.98v5.249a1.173,1.173,0,0,0,.211.763.888.888,0,0,0,.719.254,3.5,3.5,0,0,0,.688-.094V39a4.215,4.215,0,0,1-1.109.155,1.8,1.8,0,0,1-1.461-.586,2.517,2.517,0,0,1-.492-1.664V31.664H61V30.547h1.539V28.5Zm2.727,6.2a4.993,4.993,0,0,1,.488-2.234,3.643,3.643,0,0,1,1.359-1.531,3.7,3.7,0,0,1,1.988-.539,3.565,3.565,0,0,1,2.793,1.2,4.6,4.6,0,0,1,1.066,3.18v.1a5.036,5.036,0,0,1-.473,2.215,3.589,3.589,0,0,1-1.352,1.527,3.743,3.743,0,0,1-2.02.547,3.556,3.556,0,0,1-2.785-1.2A4.575,4.575,0,0,1,66.707,34.8Zm1.453.172a3.616,3.616,0,0,0,.652,2.258,2.211,2.211,0,0,0,3.5-.012,3.955,3.955,0,0,0,.648-2.418,3.61,3.61,0,0,0-.66-2.254,2.1,2.1,0,0,0-1.754-.863,2.075,2.075,0,0,0-1.727.852A3.925,3.925,0,0,0,68.16,34.867ZM80.3,31.844a4.331,4.331,0,0,0-.711-.055A1.9,1.9,0,0,0,77.66,33v6H76.215V30.547h1.406l.023.977a2.251,2.251,0,0,1,2.016-1.133,1.477,1.477,0,0,1,.641.109ZM83.2,39H81.754V30.547H83.2ZM81.637,28.3a.863.863,0,0,1,.215-.594.807.807,0,0,1,.637-.242.819.819,0,0,1,.641.242.854.854,0,0,1,.219.594.826.826,0,0,1-.219.586.834.834,0,0,1-.641.234.821.821,0,0,1-.637-.234A.834.834,0,0,1,81.637,28.3ZM90.73,39a3.036,3.036,0,0,1-.2-.891,3.225,3.225,0,0,1-2.406,1.047,2.984,2.984,0,0,1-2.051-.707,2.288,2.288,0,0,1-.8-1.793,2.39,2.39,0,0,1,1-2.051,4.733,4.733,0,0,1,2.824-.73H90.5v-.664A1.623,1.623,0,0,0,90.051,32a1.821,1.821,0,0,0-1.336-.449,2.108,2.108,0,0,0-1.3.391,1.151,1.151,0,0,0-.523.945H85.441a2,2,0,0,1,.449-1.223,3.066,3.066,0,0,1,1.219-.934,4.1,4.1,0,0,1,1.691-.344,3.342,3.342,0,0,1,2.289.73,2.635,2.635,0,0,1,.859,2.012v3.891a4.757,4.757,0,0,0,.3,1.852V39Zm-2.4-1.1a2.54,2.54,0,0,0,1.289-.352,2.127,2.127,0,0,0,.883-.914V34.9H89.371q-2.656,0-2.656,1.555a1.316,1.316,0,0,0,.453,1.063A1.742,1.742,0,0,0,88.332,37.9ZM95.785,39H94.34V27h1.445Z" transform="translate(852 6558)" fill="#12263f"/><path d="M23.754,11.742h-4.93v4.031h5.727V17H17.324V5.625h7.148V6.852H18.824v3.664h4.93Zm3.8-3.2.047,1.063a3.08,3.08,0,0,1,2.531-1.219q2.68,0,2.7,3.023V17H31.395V11.406a1.946,1.946,0,0,0-.418-1.352A1.675,1.675,0,0,0,29.7,9.617a2.086,2.086,0,0,0-1.234.375,2.546,2.546,0,0,0-.828.984V17H26.191V8.547ZM35.73,17V9.664H34.395V8.547H35.73V7.68a2.878,2.878,0,0,1,.727-2.1,2.745,2.745,0,0,1,2.055-.742,3.816,3.816,0,0,1,.992.132l-.078,1.165a4.151,4.151,0,0,0-.781-.07,1.41,1.41,0,0,0-1.086.411,1.669,1.669,0,0,0-.383,1.18v.893h1.8V9.664h-1.8V17Zm4.461-4.3a4.993,4.993,0,0,1,.488-2.234A3.643,3.643,0,0,1,42.039,8.93a3.7,3.7,0,0,1,1.988-.539,3.565,3.565,0,0,1,2.793,1.2,4.6,4.6,0,0,1,1.066,3.18v.1a5.036,5.036,0,0,1-.473,2.215,3.589,3.589,0,0,1-1.352,1.527,3.743,3.743,0,0,1-2.02.547,3.556,3.556,0,0,1-2.785-1.2A4.575,4.575,0,0,1,40.191,12.8Zm1.453.172a3.616,3.616,0,0,0,.652,2.258,2.211,2.211,0,0,0,3.5-.012,3.955,3.955,0,0,0,.648-2.418,3.61,3.61,0,0,0-.66-2.254,2.1,2.1,0,0,0-1.754-.863,2.075,2.075,0,0,0-1.727.852A3.925,3.925,0,0,0,41.645,12.867Zm7.7-.164a4.961,4.961,0,0,1,.914-3.152,3.226,3.226,0,0,1,4.82-.152l.063-.852h1.328v11.7H55.027V16.219a3.033,3.033,0,0,1-2.328.938,2.915,2.915,0,0,1-2.441-1.191,5.072,5.072,0,0,1-.91-3.16Zm1.445.164a3.761,3.761,0,0,0,.613,2.281,1.951,1.951,0,0,0,1.652.828,2.164,2.164,0,0,0,1.969-1.141V10.7a2.171,2.171,0,0,0-1.953-1.117,1.965,1.965,0,0,0-1.664.832A4.094,4.094,0,0,0,50.793,12.867Zm13.219,3.3a3.07,3.07,0,0,1-2.477.992,2.628,2.628,0,0,1-2.059-.785,3.4,3.4,0,0,1-.715-2.324v-5.5h1.445v5.461q0,1.922,1.563,1.922a2.163,2.163,0,0,0,2.2-1.234V8.547h1.445V17H64.043Zm7.109.992a3.693,3.693,0,0,1-2.8-1.129,4.19,4.19,0,0,1-1.078-3.02v-.266a5.073,5.073,0,0,1,.48-2.246A3.748,3.748,0,0,1,69.07,8.949a3.378,3.378,0,0,1,1.871-.559A3.166,3.166,0,0,1,73.5,9.477a4.7,4.7,0,0,1,.914,3.109v.6H68.691a3,3,0,0,0,.73,2.02,2.3,2.3,0,0,0,1.777.77,2.517,2.517,0,0,0,1.3-.312,3.259,3.259,0,0,0,.93-.828l.883.688A3.55,3.55,0,0,1,71.121,17.156Zm-.18-7.578a1.928,1.928,0,0,0-1.469.637A3.1,3.1,0,0,0,68.738,12h4.234v-.109a2.753,2.753,0,0,0-.594-1.707A1.815,1.815,0,0,0,70.941,9.578ZM9.535,34.867a5.062,5.062,0,0,1-.883,3.109,2.829,2.829,0,0,1-2.391,1.18A3.1,3.1,0,0,1,3.84,38.18v4.07H2.395v-11.7h1.32l.07.938a2.977,2.977,0,0,1,2.453-1.094,2.882,2.882,0,0,1,2.41,1.148,5.117,5.117,0,0,1,.887,3.2ZM8.09,34.7a3.735,3.735,0,0,0-.609-2.258,1.963,1.963,0,0,0-1.672-.828A2.125,2.125,0,0,0,3.84,32.781V36.82a2.129,2.129,0,0,0,1.984,1.156,1.954,1.954,0,0,0,1.652-.824A4.077,4.077,0,0,0,8.09,34.7Zm8.5,4.3a3.036,3.036,0,0,1-.2-.891,3.225,3.225,0,0,1-2.406,1.047,2.984,2.984,0,0,1-2.051-.707,2.287,2.287,0,0,1-.8-1.793,2.39,2.39,0,0,1,1-2.051,4.733,4.733,0,0,1,2.824-.73h1.406v-.664A1.623,1.623,0,0,0,15.91,32a1.821,1.821,0,0,0-1.336-.449,2.108,2.108,0,0,0-1.3.391,1.151,1.151,0,0,0-.523.945H11.3a2,2,0,0,1,.449-1.223,3.066,3.066,0,0,1,1.219-.934,4.1,4.1,0,0,1,1.691-.344,3.342,3.342,0,0,1,2.289.73,2.635,2.635,0,0,1,.859,2.012v3.891a4.757,4.757,0,0,0,.3,1.852V39Zm-2.4-1.1a2.54,2.54,0,0,0,1.289-.352,2.127,2.127,0,0,0,.883-.914V34.9H15.23q-2.656,0-2.656,1.555a1.316,1.316,0,0,0,.453,1.063A1.742,1.742,0,0,0,14.191,37.9Zm9.969-6.055a4.331,4.331,0,0,0-.711-.055A1.9,1.9,0,0,0,21.52,33v6H20.074V30.547H21.48l.023.977a2.251,2.251,0,0,1,2.016-1.133,1.477,1.477,0,0,1,.641.109ZM27.84,28.5v2.047h1.578v1.117H27.84v5.249a1.173,1.173,0,0,0,.211.763.888.888,0,0,0,.719.254,3.5,3.5,0,0,0,.688-.094V39a4.215,4.215,0,0,1-1.109.155,1.8,1.8,0,0,1-1.461-.586,2.517,2.517,0,0,1-.492-1.664V31.664H24.855V30.547h1.539V28.5ZM32.676,39H31.23V30.547h1.445ZM31.113,28.3a.863.863,0,0,1,.215-.594.807.807,0,0,1,.637-.242.819.819,0,0,1,.641.242.854.854,0,0,1,.219.594.826.826,0,0,1-.219.586.834.834,0,0,1-.641.234.821.821,0,0,1-.637-.234A.834.834,0,0,1,31.113,28.3Zm7.266,9.672a2.082,2.082,0,0,0,1.352-.469,1.649,1.649,0,0,0,.641-1.172h1.367a2.621,2.621,0,0,1-.5,1.383,3.293,3.293,0,0,1-1.23,1.047,3.55,3.55,0,0,1-1.629.391A3.482,3.482,0,0,1,35.633,38a4.59,4.59,0,0,1-1.02-3.152v-.242a5.089,5.089,0,0,1,.453-2.2,3.451,3.451,0,0,1,1.3-1.492,3.7,3.7,0,0,1,2-.531,3.39,3.39,0,0,1,2.363.852,3.043,3.043,0,0,1,1,2.211H40.371a1.992,1.992,0,0,0-.621-1.348,1.932,1.932,0,0,0-1.379-.527,2.023,2.023,0,0,0-1.707.793,3.724,3.724,0,0,0-.605,2.293v.273a3.65,3.65,0,0,0,.6,2.25A2.033,2.033,0,0,0,38.379,37.977ZM44.934,39H43.488V30.547h1.445ZM43.371,28.3a.863.863,0,0,1,.215-.594.807.807,0,0,1,.637-.242.819.819,0,0,1,.641.242.854.854,0,0,1,.219.594.826.826,0,0,1-.219.586.834.834,0,0,1-.641.234.821.821,0,0,1-.637-.234A.834.834,0,0,1,43.371,28.3Zm11.016,6.563a5.062,5.062,0,0,1-.883,3.109,2.829,2.829,0,0,1-2.391,1.18,3.1,3.1,0,0,1-2.422-.977v4.07H47.246v-11.7h1.32l.07.938a2.977,2.977,0,0,1,2.453-1.094,2.882,2.882,0,0,1,2.41,1.148,5.117,5.117,0,0,1,.887,3.2ZM52.941,34.7a3.735,3.735,0,0,0-.609-2.258,1.963,1.963,0,0,0-1.672-.828,2.125,2.125,0,0,0-1.969,1.164V36.82a2.129,2.129,0,0,0,1.984,1.156,1.954,1.954,0,0,0,1.652-.824A4.077,4.077,0,0,0,52.941,34.7Zm8.5,4.3a3.036,3.036,0,0,1-.2-.891,3.225,3.225,0,0,1-2.406,1.047,2.984,2.984,0,0,1-2.051-.707,2.287,2.287,0,0,1-.8-1.793,2.39,2.39,0,0,1,1-2.051,4.733,4.733,0,0,1,2.824-.73h1.406v-.664A1.623,1.623,0,0,0,60.762,32a1.821,1.821,0,0,0-1.336-.449,2.107,2.107,0,0,0-1.3.391,1.151,1.151,0,0,0-.523.945H56.152a2,2,0,0,1,.449-1.223,3.066,3.066,0,0,1,1.219-.934,4.1,4.1,0,0,1,1.691-.344,3.342,3.342,0,0,1,2.289.73,2.635,2.635,0,0,1,.859,2.012v3.891a4.757,4.757,0,0,0,.3,1.852V39Zm-2.4-1.1a2.54,2.54,0,0,0,1.289-.352,2.127,2.127,0,0,0,.883-.914V34.9H60.082q-2.656,0-2.656,1.555a1.316,1.316,0,0,0,.453,1.063A1.742,1.742,0,0,0,59.043,37.9Zm7.844-9.4v2.047h1.578v1.117H66.887v5.249a1.173,1.173,0,0,0,.211.763.888.888,0,0,0,.719.254,3.5,3.5,0,0,0,.688-.094V39a4.215,4.215,0,0,1-1.109.155,1.8,1.8,0,0,1-1.461-.586,2.517,2.517,0,0,1-.492-1.664V31.664H63.9V30.547h1.539V28.5ZM71.723,39H70.277V30.547h1.445ZM70.16,28.3a.863.863,0,0,1,.215-.594.807.807,0,0,1,.637-.242.819.819,0,0,1,.641.242.854.854,0,0,1,.219.594.826.826,0,0,1-.219.586.834.834,0,0,1-.641.234.821.821,0,0,1-.637-.234A.834.834,0,0,1,70.16,28.3Zm6.664,8.734,2.094-6.492h1.477L77.363,39h-1.1L73.2,30.547h1.477ZM81.285,34.7a4.993,4.993,0,0,1,.488-2.234,3.643,3.643,0,0,1,1.359-1.531,3.7,3.7,0,0,1,1.988-.539,3.565,3.565,0,0,1,2.793,1.2,4.6,4.6,0,0,1,1.066,3.18v.1a5.036,5.036,0,0,1-.473,2.215,3.589,3.589,0,0,1-1.352,1.527,3.743,3.743,0,0,1-2.02.547,3.556,3.556,0,0,1-2.785-1.2A4.575,4.575,0,0,1,81.285,34.8Zm1.453.172a3.616,3.616,0,0,0,.652,2.258,2.211,2.211,0,0,0,3.5-.012,3.955,3.955,0,0,0,.648-2.418,3.61,3.61,0,0,0-.66-2.254,2.1,2.1,0,0,0-1.754-.863,2.075,2.075,0,0,0-1.727.852A3.925,3.925,0,0,0,82.738,34.867Z" transform="translate(963 6374)" fill="#12263f"/><g transform="matrix(1, 0, 0, 1, 495, 6114)" filter="url(#a)"><circle cx="114.5" cy="114.5" r="114.5" transform="translate(191 178)" fill="#fff"/></g><path d="M10.583,13.454H5.52v3.428h5.941V19H2.883V6.2h8.561V8.339H5.52v3.05h5.063ZM15.522,19H12.973V5.5h2.549Zm6.469.176a4.668,4.668,0,0,1-3.406-1.283,4.561,4.561,0,0,1-1.314-3.419v-.246a5.745,5.745,0,0,1,.554-2.562,4.064,4.064,0,0,1,1.569-1.74,4.4,4.4,0,0,1,2.316-.611,3.947,3.947,0,0,1,3.072,1.23A5,5,0,0,1,25.9,14.034v1.037H19.846a2.36,2.36,0,0,0,.743,1.494,2.245,2.245,0,0,0,1.569.563,2.742,2.742,0,0,0,2.294-1.063l1.248,1.4a3.813,3.813,0,0,1-1.547,1.261A5.075,5.075,0,0,1,21.991,19.176Zm-.29-7.813a1.587,1.587,0,0,0-1.226.512,2.651,2.651,0,0,0-.6,1.466h3.533v-.2a1.891,1.891,0,0,0-.457-1.311A1.638,1.638,0,0,0,21.7,11.362ZM29.725,9.49l.079,1.063a3.342,3.342,0,0,1,2.733-1.239,2.536,2.536,0,0,1,2.522,1.45,3.265,3.265,0,0,1,2.856-1.45,2.836,2.836,0,0,1,2.3.9,4.141,4.141,0,0,1,.756,2.711V19H38.426V12.936a1.811,1.811,0,0,0-.316-1.182,1.4,1.4,0,0,0-1.116-.374,1.585,1.585,0,0,0-1.582,1.09L35.42,19H32.88V12.944a1.789,1.789,0,0,0-.325-1.2,1.416,1.416,0,0,0-1.107-.369,1.646,1.646,0,0,0-1.564.9V19h-2.54V9.49ZM47.3,19.176A4.668,4.668,0,0,1,43.9,17.893a4.561,4.561,0,0,1-1.314-3.419v-.246a5.745,5.745,0,0,1,.554-2.562,4.064,4.064,0,0,1,1.569-1.74,4.4,4.4,0,0,1,2.316-.611,3.947,3.947,0,0,1,3.072,1.23,5,5,0,0,1,1.121,3.489v1.037H45.159a2.36,2.36,0,0,0,.743,1.494,2.245,2.245,0,0,0,1.569.563,2.742,2.742,0,0,0,2.294-1.063l1.248,1.4a3.813,3.813,0,0,1-1.547,1.261A5.075,5.075,0,0,1,47.3,19.176Zm-.29-7.813a1.587,1.587,0,0,0-1.226.512,2.651,2.651,0,0,0-.6,1.466h3.533v-.2a1.891,1.891,0,0,0-.457-1.311A1.638,1.638,0,0,0,47.013,11.362Zm7.98-1.872.079,1.1a3.32,3.32,0,0,1,2.733-1.274,2.759,2.759,0,0,1,2.25.888,4.142,4.142,0,0,1,.756,2.654V19h-2.54V12.918a1.648,1.648,0,0,0-.352-1.173,1.574,1.574,0,0,0-1.169-.365,1.747,1.747,0,0,0-1.608.914V19H52.6V9.49ZM65.778,7.152V9.49H67.4v1.863H65.778V16.1a1.133,1.133,0,0,0,.2.756,1.015,1.015,0,0,0,.773.229,4.051,4.051,0,0,0,.747-.062v1.925a5.229,5.229,0,0,1-1.538.229,2.425,2.425,0,0,1-2.725-2.7V11.354H61.849V9.49h1.389V7.152Zm2.382,7a5.64,5.64,0,0,1,.545-2.522,3.989,3.989,0,0,1,1.569-1.714,4.577,4.577,0,0,1,2.377-.606,4.33,4.33,0,0,1,3.142,1.178,4.727,4.727,0,0,1,1.358,3.2l.018.65a4.97,4.97,0,0,1-1.222,3.511,4.735,4.735,0,0,1-6.561,0,5.058,5.058,0,0,1-1.226-3.586Zm2.54.18a3.555,3.555,0,0,0,.51,2.073,1.831,1.831,0,0,0,2.9.009,3.89,3.89,0,0,0,.519-2.267,3.519,3.519,0,0,0-.519-2.06,1.686,1.686,0,0,0-1.459-.731,1.658,1.658,0,0,0-1.441.726A3.955,3.955,0,0,0,70.7,14.338Zm13.184,2.035a.818.818,0,0,0-.461-.734,5.241,5.241,0,0,0-1.481-.479q-3.393-.712-3.393-2.883a2.613,2.613,0,0,1,1.05-2.114,4.237,4.237,0,0,1,2.747-.848,4.56,4.56,0,0,1,2.9.853,2.687,2.687,0,0,1,1.085,2.215h-2.54a1.229,1.229,0,0,0-.352-.9,1.488,1.488,0,0,0-1.1-.356,1.52,1.52,0,0,0-.993.29.916.916,0,0,0-.352.738.783.783,0,0,0,.4.681,4.114,4.114,0,0,0,1.349.448,11.019,11.019,0,0,1,1.6.426,2.628,2.628,0,0,1,2.013,2.558,2.481,2.481,0,0,1-1.116,2.1,4.815,4.815,0,0,1-2.883.8,5.029,5.029,0,0,1-2.123-.426,3.561,3.561,0,0,1-1.455-1.169,2.716,2.716,0,0,1-.527-1.6h2.408a1.326,1.326,0,0,0,.5,1.037,1.987,1.987,0,0,0,1.248.36,1.839,1.839,0,0,0,1.1-.277A.861.861,0,0,0,83.883,16.372Zm8.191-2.2a5.731,5.731,0,0,1,1-3.542A3.237,3.237,0,0,1,95.8,9.314,2.913,2.913,0,0,1,98.1,10.352V5.5h2.549V19H98.35l-.123-1.011a2.989,2.989,0,0,1-2.443,1.187,3.228,3.228,0,0,1-2.694-1.323A5.916,5.916,0,0,1,92.075,14.175Zm2.54.189a3.754,3.754,0,0,0,.466,2.051,1.517,1.517,0,0,0,1.354.713,1.7,1.7,0,0,0,1.661-.995V12.375a1.675,1.675,0,0,0-1.644-.995Q94.615,11.38,94.615,14.364Zm12.375,4.812a4.668,4.668,0,0,1-3.406-1.283,4.561,4.561,0,0,1-1.314-3.419v-.246a5.745,5.745,0,0,1,.554-2.562,4.064,4.064,0,0,1,1.569-1.74,4.4,4.4,0,0,1,2.316-.611,3.947,3.947,0,0,1,3.072,1.23,5,5,0,0,1,1.121,3.489v1.037h-6.056a2.36,2.36,0,0,0,.743,1.494,2.245,2.245,0,0,0,1.569.563,2.742,2.742,0,0,0,2.294-1.063l1.248,1.4a3.813,3.813,0,0,1-1.547,1.261A5.075,5.075,0,0,1,106.99,19.176Zm-.29-7.813a1.587,1.587,0,0,0-1.226.512,2.651,2.651,0,0,0-.6,1.466H108.4v-.2a1.891,1.891,0,0,0-.457-1.311A1.638,1.638,0,0,0,106.7,11.362Zm14.5,7.813a4.668,4.668,0,0,1-3.406-1.283,4.561,4.561,0,0,1-1.314-3.419v-.246a5.745,5.745,0,0,1,.554-2.562,4.064,4.064,0,0,1,1.569-1.74,4.4,4.4,0,0,1,2.316-.611,3.947,3.947,0,0,1,3.072,1.23,5,5,0,0,1,1.121,3.489v1.037h-6.056a2.36,2.36,0,0,0,.743,1.494,2.245,2.245,0,0,0,1.569.563,2.742,2.742,0,0,0,2.294-1.063l1.248,1.4a3.813,3.813,0,0,1-1.547,1.261A5.075,5.075,0,0,1,121.2,19.176Zm-.29-7.813a1.587,1.587,0,0,0-1.226.512,2.651,2.651,0,0,0-.6,1.466h3.533v-.2a1.891,1.891,0,0,0-.457-1.311A1.638,1.638,0,0,0,120.912,11.362Zm7.98-1.872.079,1.1A3.32,3.32,0,0,1,131.7,9.314a2.759,2.759,0,0,1,2.25.888,4.142,4.142,0,0,1,.756,2.654V19h-2.54V12.918a1.648,1.648,0,0,0-.352-1.173,1.574,1.574,0,0,0-1.169-.365,1.747,1.747,0,0,0-1.608.914V19H126.5V9.49ZM137.33,19V11.354h-1.415V9.49h1.415V8.682a3.283,3.283,0,0,1,.918-2.483,3.557,3.557,0,0,1,2.571-.883,5.938,5.938,0,0,1,1.292.176l-.026,1.969a3.238,3.238,0,0,0-.773-.079q-1.433,0-1.433,1.345V9.49h1.89v1.863h-1.89V19Zm5.361-4.843a5.64,5.64,0,0,1,.545-2.522A3.989,3.989,0,0,1,144.8,9.921a4.577,4.577,0,0,1,2.377-.606,4.33,4.33,0,0,1,3.142,1.178,4.727,4.727,0,0,1,1.358,3.2l.018.65a4.97,4.97,0,0,1-1.222,3.511,4.735,4.735,0,0,1-6.561,0,5.058,5.058,0,0,1-1.226-3.586Zm2.54.18a3.555,3.555,0,0,0,.51,2.073,1.831,1.831,0,0,0,2.9.009,3.89,3.89,0,0,0,.519-2.267,3.519,3.519,0,0,0-.519-2.06,1.686,1.686,0,0,0-1.459-.731,1.658,1.658,0,0,0-1.441.726A3.955,3.955,0,0,0,145.231,14.338Zm7.638-.18a5.684,5.684,0,0,1,1-3.542,3.261,3.261,0,0,1,2.738-1.3,2.92,2.92,0,0,1,2.435,1.169l.167-.993h2.232V22.656h-2.549V18.183a2.928,2.928,0,0,1-2.3.993,3.237,3.237,0,0,1-2.707-1.318A5.963,5.963,0,0,1,152.869,14.157Zm2.54.18a3.729,3.729,0,0,0,.479,2.077,1.533,1.533,0,0,0,1.349.713,1.708,1.708,0,0,0,1.652-.933V12.26a1.694,1.694,0,0,0-1.635-.9,1.552,1.552,0,0,0-1.362.713A4.118,4.118,0,0,0,155.409,14.338Zm13.72,3.7a3.185,3.185,0,0,1-2.6,1.143,3,3,0,0,1-2.333-.879,3.752,3.752,0,0,1-.822-2.575V9.49h2.54v6.151q0,1.487,1.354,1.487a1.834,1.834,0,0,0,1.775-.9V9.49h2.549V19H169.2Zm8.754,1.143a4.668,4.668,0,0,1-3.406-1.283,4.561,4.561,0,0,1-1.314-3.419v-.246a5.745,5.745,0,0,1,.554-2.562,4.064,4.064,0,0,1,1.569-1.74,4.4,4.4,0,0,1,2.316-.611,3.947,3.947,0,0,1,3.072,1.23,5,5,0,0,1,1.121,3.489v1.037h-6.056a2.36,2.36,0,0,0,.743,1.494,2.245,2.245,0,0,0,1.569.563,2.742,2.742,0,0,0,2.294-1.063l1.248,1.4a3.813,3.813,0,0,1-1.547,1.261A5.075,5.075,0,0,1,177.882,19.176Zm-.29-7.813a1.587,1.587,0,0,0-1.226.512,2.651,2.651,0,0,0-.6,1.466H179.3v-.2a1.891,1.891,0,0,0-.457-1.311A1.638,1.638,0,0,0,177.592,11.362ZM13.848,39.175a5.731,5.731,0,0,1,1-3.542,3.237,3.237,0,0,1,2.729-1.318,2.913,2.913,0,0,1,2.294,1.037V30.5h2.549V44H20.123L20,42.989a2.989,2.989,0,0,1-2.443,1.187,3.228,3.228,0,0,1-2.694-1.323A5.916,5.916,0,0,1,13.848,39.175Zm2.54.189a3.754,3.754,0,0,0,.466,2.051,1.517,1.517,0,0,0,1.354.713,1.7,1.7,0,0,0,1.661-.995V37.375a1.675,1.675,0,0,0-1.644-.995Q16.388,36.38,16.388,39.364Zm12.375,4.812a4.668,4.668,0,0,1-3.406-1.283,4.561,4.561,0,0,1-1.314-3.419v-.246a5.745,5.745,0,0,1,.554-2.562,4.064,4.064,0,0,1,1.569-1.74,4.4,4.4,0,0,1,2.316-.611,3.947,3.947,0,0,1,3.072,1.23,5,5,0,0,1,1.121,3.489v1.037H26.618a2.36,2.36,0,0,0,.743,1.494,2.245,2.245,0,0,0,1.569.563,2.742,2.742,0,0,0,2.294-1.063l1.248,1.4a3.813,3.813,0,0,1-1.547,1.261A5.075,5.075,0,0,1,28.763,44.176Zm-.29-7.813a1.587,1.587,0,0,0-1.226.512,2.651,2.651,0,0,0-.6,1.466h3.533v-.2a1.891,1.891,0,0,0-.457-1.311A1.638,1.638,0,0,0,28.473,36.362ZM41.278,44H38.729V30.5h2.549Zm1.7-4.843a5.64,5.64,0,0,1,.545-2.522,3.989,3.989,0,0,1,1.569-1.714,4.577,4.577,0,0,1,2.377-.606,4.33,4.33,0,0,1,3.142,1.178,4.727,4.727,0,0,1,1.358,3.2l.018.65a4.97,4.97,0,0,1-1.222,3.511,4.735,4.735,0,0,1-6.561,0,5.058,5.058,0,0,1-1.226-3.586Zm2.54.18a3.555,3.555,0,0,0,.51,2.073,1.831,1.831,0,0,0,2.9.009,3.89,3.89,0,0,0,.519-2.267,3.519,3.519,0,0,0-.519-2.06,1.686,1.686,0,0,0-1.459-.731,1.658,1.658,0,0,0-1.441.726A3.955,3.955,0,0,0,45.515,39.338ZM58.7,41.372a.818.818,0,0,0-.461-.734,5.241,5.241,0,0,0-1.481-.479q-3.393-.712-3.393-2.883a2.613,2.613,0,0,1,1.05-2.114,4.237,4.237,0,0,1,2.747-.848,4.56,4.56,0,0,1,2.9.853,2.687,2.687,0,0,1,1.085,2.215H58.6a1.229,1.229,0,0,0-.352-.9,1.488,1.488,0,0,0-1.1-.356,1.52,1.52,0,0,0-.993.29.916.916,0,0,0-.352.738.783.783,0,0,0,.4.681,4.114,4.114,0,0,0,1.349.448,11.019,11.019,0,0,1,1.6.426,2.628,2.628,0,0,1,2.013,2.558,2.481,2.481,0,0,1-1.116,2.1,4.815,4.815,0,0,1-2.883.8,5.029,5.029,0,0,1-2.123-.426,3.561,3.561,0,0,1-1.455-1.169,2.716,2.716,0,0,1-.527-1.6h2.408a1.326,1.326,0,0,0,.5,1.037,1.987,1.987,0,0,0,1.248.36,1.839,1.839,0,0,0,1.1-.277A.861.861,0,0,0,58.7,41.372ZM69.966,44H67.417V30.5h2.549Zm4.772,0H72.189V34.49h2.549Zm-2.7-11.971a1.251,1.251,0,0,1,.382-.94,1.648,1.648,0,0,1,2.079,0,1.342,1.342,0,0,1,0,1.89,1.629,1.629,0,0,1-2.065,0A1.247,1.247,0,0,1,72.04,32.029Zm7.128,2.461.079,1.1a3.32,3.32,0,0,1,2.733-1.274,2.759,2.759,0,0,1,2.25.888,4.142,4.142,0,0,1,.756,2.654V44h-2.54V37.918a1.648,1.648,0,0,0-.352-1.173,1.574,1.574,0,0,0-1.169-.365,1.747,1.747,0,0,0-1.608.914V44h-2.54V34.49Zm12.12,9.686a4.668,4.668,0,0,1-3.406-1.283,4.561,4.561,0,0,1-1.314-3.419v-.246a5.745,5.745,0,0,1,.554-2.562,4.064,4.064,0,0,1,1.569-1.74,4.4,4.4,0,0,1,2.316-.611,3.947,3.947,0,0,1,3.072,1.23A5,5,0,0,1,95.2,39.034v1.037H89.144a2.36,2.36,0,0,0,.743,1.494,2.245,2.245,0,0,0,1.569.563,2.742,2.742,0,0,0,2.294-1.063L95,42.462a3.813,3.813,0,0,1-1.547,1.261A5.075,5.075,0,0,1,91.288,44.176ZM91,36.362a1.587,1.587,0,0,0-1.226.512,2.651,2.651,0,0,0-.6,1.466H92.7v-.2a1.891,1.891,0,0,0-.457-1.311A1.638,1.638,0,0,0,91,36.362ZM102.151,44a2.821,2.821,0,0,1-.255-.853,3.073,3.073,0,0,1-2.4,1.028,3.376,3.376,0,0,1-2.316-.809,2.6,2.6,0,0,1-.918-2.039,2.687,2.687,0,0,1,1.121-2.32,5.529,5.529,0,0,1,3.239-.817h1.169v-.545a1.567,1.567,0,0,0-.338-1.055,1.331,1.331,0,0,0-1.068-.4,1.513,1.513,0,0,0-1.006.308,1.045,1.045,0,0,0-.365.844h-2.54a2.551,2.551,0,0,1,.51-1.529,3.37,3.37,0,0,1,1.441-1.1,5.253,5.253,0,0,1,2.092-.4,4.15,4.15,0,0,1,2.791.883,3.09,3.09,0,0,1,1.033,2.483V41.8a4.546,4.546,0,0,0,.378,2.048V44Zm-2.1-1.767a2.188,2.188,0,0,0,1.037-.25,1.645,1.645,0,0,0,.7-.672V39.676h-.949q-1.907,0-2.03,1.318l-.009.149a1.017,1.017,0,0,0,.334.782A1.3,1.3,0,0,0,100.051,42.233Zm8.622-7.743.079,1.063a3.342,3.342,0,0,1,2.733-1.239,2.536,2.536,0,0,1,2.522,1.45,3.265,3.265,0,0,1,2.856-1.45,2.836,2.836,0,0,1,2.3.9,4.141,4.141,0,0,1,.756,2.711V44h-2.549V37.936a1.811,1.811,0,0,0-.316-1.182,1.4,1.4,0,0,0-1.116-.374,1.585,1.585,0,0,0-1.582,1.09l.009,6.53h-2.54V37.944a1.789,1.789,0,0,0-.325-1.2,1.416,1.416,0,0,0-1.107-.369,1.646,1.646,0,0,0-1.564.9V44h-2.54V34.49ZM124.555,44h-2.549V34.49h2.549Zm-2.7-11.971a1.251,1.251,0,0,1,.382-.94,1.648,1.648,0,0,1,2.079,0,1.342,1.342,0,0,1,0,1.89,1.629,1.629,0,0,1-2.065,0A1.247,1.247,0,0,1,121.856,32.029Zm9.167,12.146a4.668,4.668,0,0,1-3.406-1.283,4.561,4.561,0,0,1-1.314-3.419v-.246a5.745,5.745,0,0,1,.554-2.562,4.064,4.064,0,0,1,1.569-1.74,4.4,4.4,0,0,1,2.316-.611,3.947,3.947,0,0,1,3.072,1.23,5,5,0,0,1,1.121,3.489v1.037h-6.056a2.36,2.36,0,0,0,.743,1.494,2.245,2.245,0,0,0,1.569.563,2.742,2.742,0,0,0,2.294-1.063l1.248,1.4a3.813,3.813,0,0,1-1.547,1.261A5.075,5.075,0,0,1,131.023,44.176Zm-.29-7.813a1.587,1.587,0,0,0-1.226.512,2.651,2.651,0,0,0-.6,1.466h3.533v-.2a1.891,1.891,0,0,0-.457-1.311A1.638,1.638,0,0,0,130.733,36.362Zm7.98-1.872.079,1.1a3.32,3.32,0,0,1,2.733-1.274,2.759,2.759,0,0,1,2.25.888,4.142,4.142,0,0,1,.756,2.654V44h-2.54V37.918a1.648,1.648,0,0,0-.352-1.173,1.574,1.574,0,0,0-1.169-.365,1.747,1.747,0,0,0-1.608.914V44h-2.54V34.49ZM149.5,32.152V34.49h1.626v1.863H149.5V41.1a1.133,1.133,0,0,0,.2.756,1.015,1.015,0,0,0,.773.229,4.051,4.051,0,0,0,.747-.062v1.925a5.229,5.229,0,0,1-1.538.229,2.425,2.425,0,0,1-2.725-2.7V36.354h-1.389V34.49h1.389V32.152Zm2.382,7a5.64,5.64,0,0,1,.545-2.522,3.989,3.989,0,0,1,1.569-1.714,4.577,4.577,0,0,1,2.377-.606,4.33,4.33,0,0,1,3.142,1.178,4.727,4.727,0,0,1,1.358,3.2l.018.65a4.97,4.97,0,0,1-1.222,3.511,4.735,4.735,0,0,1-6.561,0,5.058,5.058,0,0,1-1.226-3.586Zm2.54.18a3.555,3.555,0,0,0,.51,2.073,1.831,1.831,0,0,0,2.9.009,3.89,3.89,0,0,0,.519-2.267,3.519,3.519,0,0,0-.519-2.06,1.686,1.686,0,0,0-1.459-.731,1.658,1.658,0,0,0-1.441.726A3.955,3.955,0,0,0,154.42,39.338ZM167.6,41.372a.818.818,0,0,0-.461-.734,5.241,5.241,0,0,0-1.481-.479q-3.393-.712-3.393-2.883a2.613,2.613,0,0,1,1.05-2.114,4.237,4.237,0,0,1,2.747-.848,4.56,4.56,0,0,1,2.9.853,2.687,2.687,0,0,1,1.085,2.215h-2.54a1.229,1.229,0,0,0-.352-.9,1.488,1.488,0,0,0-1.1-.356,1.52,1.52,0,0,0-.993.29.916.916,0,0,0-.352.738.783.783,0,0,0,.4.681,4.114,4.114,0,0,0,1.349.448,11.019,11.019,0,0,1,1.6.426,2.628,2.628,0,0,1,2.013,2.558,2.481,2.481,0,0,1-1.116,2.1,4.815,4.815,0,0,1-2.883.8,5.029,5.029,0,0,1-2.123-.426,3.561,3.561,0,0,1-1.455-1.169,2.716,2.716,0,0,1-.527-1.6h2.408a1.326,1.326,0,0,0,.5,1.037,1.987,1.987,0,0,0,1.248.36,1.839,1.839,0,0,0,1.1-.277A.861.861,0,0,0,167.6,41.372Zm-112.17,22.8a5.731,5.731,0,0,1,1-3.542,3.237,3.237,0,0,1,2.729-1.318,2.913,2.913,0,0,1,2.294,1.037V55.5H64V69H61.708l-.123-1.011a2.989,2.989,0,0,1-2.443,1.187,3.228,3.228,0,0,1-2.694-1.323A5.916,5.916,0,0,1,55.433,64.175Zm2.54.189a3.754,3.754,0,0,0,.466,2.051,1.517,1.517,0,0,0,1.354.713,1.7,1.7,0,0,0,1.661-.995V62.375a1.675,1.675,0,0,0-1.644-.995Q57.973,61.38,57.973,64.364Zm12.375,4.812a4.668,4.668,0,0,1-3.406-1.283,4.561,4.561,0,0,1-1.314-3.419v-.246a5.745,5.745,0,0,1,.554-2.562,4.064,4.064,0,0,1,1.569-1.74,4.4,4.4,0,0,1,2.316-.611,3.947,3.947,0,0,1,3.072,1.23,5,5,0,0,1,1.121,3.489v1.037H68.2a2.36,2.36,0,0,0,.743,1.494,2.245,2.245,0,0,0,1.569.563,2.742,2.742,0,0,0,2.294-1.063l1.248,1.4a3.813,3.813,0,0,1-1.547,1.261A5.075,5.075,0,0,1,70.348,69.176Zm-.29-7.813a1.587,1.587,0,0,0-1.226.512,2.651,2.651,0,0,0-.6,1.466h3.533v-.2a1.891,1.891,0,0,0-.457-1.311A1.638,1.638,0,0,0,70.058,61.362Zm12.929,3.129V69H80.35V56.2h4.992a5.776,5.776,0,0,1,2.536.527,3.886,3.886,0,0,1,1.683,1.5,4.178,4.178,0,0,1,.589,2.21,3.674,3.674,0,0,1-1.288,2.966A5.363,5.363,0,0,1,85.3,64.491Zm0-2.136h2.355a2.316,2.316,0,0,0,1.6-.492,1.79,1.79,0,0,0,.549-1.406,2.111,2.111,0,0,0-.554-1.521,2.068,2.068,0,0,0-1.529-.6H82.987ZM94.6,64.491V69H91.96V56.2h4.992a5.776,5.776,0,0,1,2.536.527,3.886,3.886,0,0,1,1.683,1.5,4.178,4.178,0,0,1,.589,2.21,3.674,3.674,0,0,1-1.288,2.966,5.363,5.363,0,0,1-3.564,1.085Zm0-2.136h2.355a2.316,2.316,0,0,0,1.6-.492,1.79,1.79,0,0,0,.549-1.406,2.111,2.111,0,0,0-.554-1.521,2.068,2.068,0,0,0-1.529-.6H94.6Zm20.681,4.008h-4.623L109.776,69h-2.8l4.764-12.8h2.443l4.79,12.8h-2.8Zm-3.911-2.136h3.2l-1.608-4.79Zm16.5-.773H122.8v3.428h5.941V69h-8.578V56.2h8.561v2.136H122.8v3.05h5.063Z" transform="translate(708 6380)" fill="#12263f"/></g><g transform="translate(616.262 6548.049)"><path d="M214.612-285.3c.611.837.619,1.23-.016,2.012a24.862,24.862,0,0,1-6.143,5.7,6.306,6.306,0,0,1-3.245,1.113c-.336,0-.415.11-.385.418.073.768.125,1.539.2,2.456a25.751,25.751,0,0,1,3.828-3.724,16.177,16.177,0,0,1,6.968-3.419,5.063,5.063,0,0,1,2.561.137,2.866,2.866,0,0,1,1.749,3.874,9.613,9.613,0,0,1-2.865,4.052,22.857,22.857,0,0,1-9.917,5.692,1.348,1.348,0,0,1-.156.044c-.5.06-1.428.07-1.441.183a10.514,10.514,0,0,0,.125,2.092,1.915,1.915,0,0,0,.857-.543,5.8,5.8,0,0,1,7.71,0,5.243,5.243,0,0,0,1.9,1.2,3.508,3.508,0,0,0,3.318-.8,6.2,6.2,0,0,1,4.034-1.827c1.078-.018,1.537.384,1.538,1.482q.007,6.844,0,13.687a3.608,3.608,0,0,1-3.465,3.747c-.322.028-.647.028-.971.028l-74.133,0a6.452,6.452,0,0,1-1.769-.158,3.591,3.591,0,0,1-2.625-3.411c-.021-4.67-.014-9.34-.006-14.011,0-.966.5-1.379,1.49-1.368a6.414,6.414,0,0,1,4.052,1.791,3.425,3.425,0,0,0,4.764.016l.763-.6a5.8,5.8,0,0,1,5.359-.955,5.106,5.106,0,0,1,1.837.995c.4.318.8.642,1.216.941.445.32,1.02.693,1.475.45.341-.182.052-.832-.008-1.271-.163-1.19-.166-1.187-1.339-1.244a14.02,14.02,0,0,1-5.385-1.6,23.329,23.329,0,0,1-7.039-4.95,7.732,7.732,0,0,1-1.678-2.55,2.958,2.958,0,0,1,2.7-4.249,10.184,10.184,0,0,1,5.086,1.073,22.048,22.048,0,0,1,6.248,4.267c.146.14.2.374.4.481a9.7,9.7,0,0,0,.019-2.585c-.007-.309-.154-.339-.409-.312a4.54,4.54,0,0,1-2.935-.727,25.317,25.317,0,0,1-11.159-14.25,5.447,5.447,0,0,1-.154-2.642,3.226,3.226,0,0,1,4.171-2.713,10.409,10.409,0,0,1,4.591,2.762,33.4,33.4,0,0,1,5.554,7.107c0-.272,0-.545,0-.818q.007-2.348.013-4.7c0-.281.1-.6-.416-.538a5.311,5.311,0,0,1-3.491-1.056,24.6,24.6,0,0,1-6.458-6.291,1.239,1.239,0,0,1,.155-1.748,1.29,1.29,0,0,1,1.935.484,21.219,21.219,0,0,0,3.672,3.94l.008-.023.188.2a8.875,8.875,0,0,0,2.713,1.866c.956.433,1.169.278,1.081-.739a5.169,5.169,0,0,0-.173-1.034,23.029,23.029,0,0,0-7.5-11.372,5.217,5.217,0,0,0-1.977-1.076c-.92-.245-1.206-.014-1.251.964a4.741,4.741,0,0,0,.455,2.334,1.665,1.665,0,0,1-.344,2.037c-1.286.143-1.529-.006-1.971-1.235a8.86,8.86,0,0,1-.6-3.239,3.19,3.19,0,0,1,4.4-3.195,10.152,10.152,0,0,1,3.946,2.46,26.864,26.864,0,0,1,5.444,7.291c.122.231.242.464.459.881.066-.847.115-1.5.168-2.153a.439.439,0,0,0-.156-.43,6.411,6.411,0,0,1-2.17-4.379,17.5,17.5,0,0,1,.882-9.387,7.2,7.2,0,0,1,1.739-2.7,3.138,3.138,0,0,1,4.966.475,8.573,8.573,0,0,1,1.387,4.826,18.133,18.133,0,0,1-1.687,8.482c-.053.113-.092.232-.167.427.438-.033.534-.35.7-.549a17.759,17.759,0,0,1,4.173-3.8,7.211,7.211,0,0,1,2.3-.966,3.111,3.111,0,0,1,3.95,3.021,9.782,9.782,0,0,1-1.2,4.975,26.734,26.734,0,0,1-7.977,9.635,6.48,6.48,0,0,1-4.433,1.682c-.508-.04-.317.347-.318.557-.015,1.97-.009,3.941-.009,5.934.333-.085.355-.392.475-.6a27.349,27.349,0,0,1,6.273-7.862,8.35,8.35,0,0,1,3.973-2.058,3.246,3.246,0,0,1,4,3.308,11.072,11.072,0,0,1-1.514,5.553,28.645,28.645,0,0,1-7.644,9.317,8.275,8.275,0,0,1-4.917,2.226c-.172,0-.316.027-.3.267.069.819.126,1.639.2,2.615a24.816,24.816,0,0,1,3.731-3.662,15.968,15.968,0,0,1,7.025-3.481c1.523-.262,3.037-.211,4.036,1.178,1.02,1.417.483,2.85-.312,4.163a17.6,17.6,0,0,1-5.624,5.39,19.032,19.032,0,0,1-6.489,3c-.079.017-.156.041-.234.066-.478.151-1.253-.167-1.409.265a3.224,3.224,0,0,0,.191,1.895c.385-.076.6-.379.866-.584a5.751,5.751,0,0,1,7.386.052c1.053.844,2.077,1.623,3.558,1.38a4.371,4.371,0,0,0,2.1-1.133,5.894,5.894,0,0,1,3.642-1.564c1.105-.037,1.434.2,1.638,1.314a1.389,1.389,0,0,1-1.451,1.119,1.981,1.981,0,0,0-1.279.352,3.074,3.074,0,0,0-1.057.709c-2.659,2.12-4.968,2.254-7.806.441a11.668,11.668,0,0,0-1.311-1.036,3.179,3.179,0,0,0-3.265-.107,2.764,2.764,0,0,0-.993.66c-2.721,2.168-4.949,2.307-7.868.476a13.219,13.219,0,0,0-1.174-.953,3.218,3.218,0,0,0-3.4-.178,2.956,2.956,0,0,0-.991.665c-2.752,2.163-4.934,2.293-7.867.458a5.343,5.343,0,0,0-1.8-1.257v1.28c-.008,2.239.024,4.48-.047,6.717-.026.825.2,1.01,1.013,1.009q36.282-.036,72.565-.022c.322,0,.644-.032.966-.049a28.07,28.07,0,0,0,3.145.072c.285.011.455-.073.455-.4-.006-2.85,0-5.7,0-8.679-1.332.7-2.273,1.8-3.574,2.319a6.279,6.279,0,0,1-5.614-.994c-1.148-1.142-2.415-1.9-4.114-1.289a2.587,2.587,0,0,0-1.313.743,7.565,7.565,0,0,1-2.536,1.541,6.09,6.09,0,0,1-5.692-1.167,3.445,3.445,0,0,0-3.908-1.107,3.2,3.2,0,0,0-1.556.956,5.752,5.752,0,0,1-3.8,1.561c-1.337-.017-2.729-.008-3.567-1.372a2.085,2.085,0,0,1,.213-1.072,1.464,1.464,0,0,1,1.709-.263,3.357,3.357,0,0,0,3.636-.541,6.8,6.8,0,0,1,3.763-1.888,5.918,5.918,0,0,1,4.519,1.352A5.58,5.58,0,0,0,202.929-264c.431.126.685.053.549-.475a1.522,1.522,0,0,1-.024-.16c-.088-.613.018-1.4-.327-1.783-.277-.3-1.105-.079-1.682-.147a17.561,17.561,0,0,1-6.327-2.327,21.585,21.585,0,0,1-5.529-4.176,7.744,7.744,0,0,1-1.676-2.551,2.953,2.953,0,0,1,2.7-4.243,10.188,10.188,0,0,1,5.085,1.074,22.2,22.2,0,0,1,6.25,4.263,2.323,2.323,0,0,1,.325.557l.244-.17c-.05-.843-.107-1.686-.146-2.529-.016-.353-.247-.282-.455-.264a4.653,4.653,0,0,1-2.931-.752,25.411,25.411,0,0,1-11.1-14.109,5.582,5.582,0,0,1-.177-2.8,3.187,3.187,0,0,1,4.188-2.661,12.071,12.071,0,0,1,5.674,3.854,29.881,29.881,0,0,1,4.327,6.051c.245-.225.124-.478.127-.694.016-1.134.009-2.267.011-3.4A4.567,4.567,0,0,0,202-293.2c-.269-.586-1.03-.12-1.562-.278a8.977,8.977,0,0,1-2.756-1.32,25.882,25.882,0,0,1-9.013-11.385,7.941,7.941,0,0,1-.615-3.235c.081-2.611,1.966-3.961,4.465-3.2a10.324,10.324,0,0,1,3.993,2.535,27.215,27.215,0,0,1,5.374,7.242l.43.806c.063-.845.112-1.52.163-2.195a.393.393,0,0,0-.152-.355c-1.671-1.324-2.062-3.238-2.285-5.178a16.985,16.985,0,0,1,1.185-9.03,6.977,6.977,0,0,1,1.428-2.14,3.18,3.18,0,0,1,5.224.55,9.233,9.233,0,0,1,1.264,4.95,18.831,18.831,0,0,1-1.811,8.46l-.187.307c-.015.066-.06.174-.039.189.082.057.134,0,.152-.087l.232-.247a19.854,19.854,0,0,1,4.494-4.281,7.335,7.335,0,0,1,2.351-1.04A3.151,3.151,0,0,1,218.416-309a8.769,8.769,0,0,1-.844,4,25.841,25.841,0,0,1-9.116,11.008,5.432,5.432,0,0,1-3.626,1.15c-.317-.031-.355.09-.354.345,0,2.036,0,4.072.068,6.124a44.023,44.023,0,0,1,3.151-4.762,20.009,20.009,0,0,1,4.759-4.585,8.034,8.034,0,0,1,2.105-1.008c2.543-.752,4.478.536,4.615,3.173a10.483,10.483,0,0,1-1.524,5.543c-.357.66-1,.634-1.644.443a1.481,1.481,0,0,1-.306-1.958,9.371,9.371,0,0,0,1.059-3.515c.092-1.322-.465-1.732-1.707-1.282a6.143,6.143,0,0,0-2.171,1.333,23.831,23.831,0,0,0-6.119,7.812,14.607,14.607,0,0,0-1.737,4.826c-.021.212-.059.425-.06.637,0,.857.128.95.949.676a7.359,7.359,0,0,0,1.909-1.029,24.836,24.836,0,0,0,4.849-4.7C213.343-285.594,213.656-285.676,214.612-285.3Zm-48.551-20c-.478.49-1.283.672-1.406,1.5-.031.207-.143.481.058.585.267.136.333-.178.439-.347.343-.545.68-1.093,1.019-1.641.045-.078.162-.155.017-.238C166.178-305.45,166.106-305.35,166.062-305.3ZM151-277.413c-1.131,0-1.322.293-.8,1.275a5.184,5.184,0,0,0,.672,1,19.852,19.852,0,0,0,7.916,5.365,9.192,9.192,0,0,0,3.171.87c.48.051.917,0,.592-.7a6.952,6.952,0,0,0-.875-1.45,19.2,19.2,0,0,0-7.623-5.712A6.162,6.162,0,0,0,151-277.413Zm40.031,0c-1.012.062-1.177.3-.724,1.177a5.857,5.857,0,0,0,.857,1.268,20.231,20.231,0,0,0,7.795,5.207,6.974,6.974,0,0,0,1.977.656c.616.12,1.445.544,1.809,0,.3-.447-.309-1.126-.678-1.607a18.383,18.383,0,0,0-9.049-6.466A4.194,4.194,0,0,0,191.032-277.415Zm22.985-.189a18,18,0,0,0-7.944,6.849,2.158,2.158,0,0,0-.455,1.269c.505.5,1.072.185,1.561.038a20.377,20.377,0,0,0,9.66-6.361,4.613,4.613,0,0,0,.935-1.6c.229-.706.075-.958-.668-.986A6.081,6.081,0,0,0,214.016-277.6Zm-40.177.009a18.322,18.322,0,0,0-7.722,6.495,3.215,3.215,0,0,0-.672,1.613c.5.505,1.066.193,1.555.048a20.484,20.484,0,0,0,9.556-6.209,5.529,5.529,0,0,0,1.081-1.786c.237-.646-.007-.929-.634-.955A6.186,6.186,0,0,0,173.839-277.594ZM162.7-308.209c.16.625.3,1.463.935,1.561s.885-.743,1.235-1.238a2.287,2.287,0,0,0,.194-.354,15.816,15.816,0,0,0,1.456-7.933,6.088,6.088,0,0,0-.762-2.78c-.482-.8-.973-.861-1.6-.18a5.057,5.057,0,0,0-1.129,2.023A14.573,14.573,0,0,0,162.7-308.209Zm40.54-9.055a14.623,14.623,0,0,0-.416,8.923,1.076,1.076,0,0,0,.035.238c.216.567.312,1.4.952,1.461.584.06.9-.687,1.176-1.2a15.09,15.09,0,0,0,1.676-8.337,5.98,5.98,0,0,0-.8-2.843c-.45-.714-.9-.76-1.492-.166A4.852,4.852,0,0,0,203.236-317.265Zm9.019,9.044a23.59,23.59,0,0,0-6.593,9.5,5.578,5.578,0,0,0-.523,2.014,4.094,4.094,0,0,0-.125.549c-.08.88.125,1.053.922.739a5.574,5.574,0,0,0,1.148-.585,23.121,23.121,0,0,0,8.469-10.555,5.4,5.4,0,0,0,.436-2.285c-.043-.855-.389-1.125-1.2-.891A5.963,5.963,0,0,0,212.256-308.22Zm-47.274,11.355c-.034.348-.079.7-.1,1.044-.032.519.185.666.687.488a6.482,6.482,0,0,0,1.649-.845,23.763,23.763,0,0,0,8.028-9.947,6.02,6.02,0,0,0,.576-2.747c-.05-.85-.4-1.105-1.221-.856a6.28,6.28,0,0,0-2.53,1.531A22.535,22.535,0,0,0,164.982-296.866Zm25.548-12.476a3.186,3.186,0,0,0,.133,1.357,21.836,21.836,0,0,0,6.7,9.824,10.014,10.014,0,0,0,2.309,1.739c.505.283,1.149.826,1.611.458.421-.336.18-1.121.018-1.688a22.837,22.837,0,0,0-7.616-11.621,5.129,5.129,0,0,0-1.908-1.024C190.852-310.546,190.573-310.32,190.53-309.342ZM164.893-280.33a3.532,3.532,0,0,0-.1.547c-.021.893.148,1.018.982.738a6.643,6.643,0,0,0,1.842-1,25.613,25.613,0,0,0,8.277-10.268,7.025,7.025,0,0,0,.707-3.046c-.027-1-.434-1.325-1.4-1.063a5.993,5.993,0,0,0-2.491,1.437,23.835,23.835,0,0,0-6.11,7.82A13.345,13.345,0,0,0,164.893-280.33Zm-7.065-.99A8.858,8.858,0,0,0,160-279.806c.47.24,1.041.691,1.489.361.481-.354.224-1.052.123-1.591a17.6,17.6,0,0,0-2.175-5.445,23.868,23.868,0,0,0-5.851-7.142,6.237,6.237,0,0,0-2.333-1.248c-.624-.154-1.222-.139-1.267.746a4.625,4.625,0,0,0,.394,2.748A24.639,24.639,0,0,0,157.828-281.32Zm32.262-12.626a3.026,3.026,0,0,0,.068,1.2c1.221,4.666,4.129,8.187,7.659,11.286a9.494,9.494,0,0,0,2.435,1.7c.442.226.979.641,1.42.306s.237-.96.114-1.447a23.665,23.665,0,0,0-8.526-13.075,4.963,4.963,0,0,0-1.8-.9C190.569-295.107,190.269-294.893,190.09-293.945ZM219.249-252.5c-.324-.009-.647-.026-.971-.026H145.7q-.324,0-.648,0a.35.35,0,0,0-.345.155,1.686,1.686,0,0,0,.95,2.187,5.424,5.424,0,0,0,1.126.076q35.56,0,71.12,0c.323,0,.646-.028.968-.043a9.33,9.33,0,0,0,2.165.075c1.392.012,1.816-.465,1.782-1.854-.01-.435-.118-.633-.59-.616C221.237-252.511,220.242-252.516,219.249-252.5ZM206.391-305.28c-1.552.914-1.739,1.244-1.439,2.333Zm-39.262-1.205a1.07,1.07,0,0,0,.089-.228c0-.027-.065-.1-.086-.09a.961.961,0,0,0-.193.1Z" transform="translate(0 0)" fill="#030303"/><path d="M345.078-227.99c-.956-.38-1.269-.3-1.94.525a24.836,24.836,0,0,1-4.849,4.7,7.356,7.356,0,0,1-1.909,1.029c-.822.274-.952.182-.949-.676,0-.213.039-.425.061-.637a1.751,1.751,0,0,0,.946-.578,27.51,27.51,0,0,0,2.9-3.237,21.136,21.136,0,0,0,3.889-6.913c.174-.6.566-1.247.116-1.91a6.145,6.145,0,0,1,2.171-1.333c1.242-.45,1.8-.04,1.707,1.282a9.37,9.37,0,0,1-1.059,3.515,1.481,1.481,0,0,0,.306,1.958A10.855,10.855,0,0,1,345.078-227.99Z" transform="translate(-130.466 -57.306)" fill="#95be5b"/><path d="M174.127-271.676a21.216,21.216,0,0,1-3.672-3.94,1.29,1.29,0,0,0-1.935-.484c-.289-.86-1.039-1.494-1.192-2.421a1.665,1.665,0,0,0,.343-2.037,4.741,4.741,0,0,1-.455-2.334c.342.008.512.279.713.487a28.332,28.332,0,0,1,5.095,7.316A7.506,7.506,0,0,1,174.127-271.676Z" transform="translate(-16.851 -26.444)" fill="#a3c670"/><path d="M265.432-145.809a1.98,1.98,0,0,1,1.279-.352,1.389,1.389,0,0,0,1.451-1.119,6.868,6.868,0,0,1,2.373,1.4,2.087,2.087,0,0,0-.213,1.072,5.2,5.2,0,0,1-4.588-.9A.923.923,0,0,0,265.432-145.809Z" transform="translate(-83.193 -118.029)" fill="#95be5b"/><path d="M187.261-143.08a.922.922,0,0,1,.3.092,5.2,5.2,0,0,0,4.588.9c.838,1.364,2.23,1.355,3.567,1.372a5.752,5.752,0,0,0,3.8-1.561,3.2,3.2,0,0,1,1.556-.956c.533,1.061,2.692,1.673,3.908,1.107a6.09,6.09,0,0,0,5.692,1.167,7.564,7.564,0,0,0,2.536-1.54,2.587,2.587,0,0,1,1.313-.743c.023.411.337.56.637.743a5.74,5.74,0,0,0,3.476.545,6.279,6.279,0,0,0,5.614.994l-.022,6.692c-.322.017-.644.049-.966.049q-36.283,0-72.565.022c-.814,0-1.039-.184-1.013-1.009.071-2.237.039-4.478.047-6.717l1.8-.023c2.933,1.835,5.115,1.7,7.867-.458a2.959,2.959,0,0,1,.991-.665,1.515,1.515,0,0,1,.452.156,5.677,5.677,0,0,0,4.127.975c2.919,1.831,5.147,1.692,7.868-.476a2.764,2.764,0,0,1,.993-.66,6.748,6.748,0,0,0,4.576,1.143c2.837,1.813,5.147,1.679,7.806-.441A3.075,3.075,0,0,1,187.261-143.08Z" transform="translate(-5.021 -120.757)" fill="#a5c871"/><path d="M223.709-105.545c-.323.015-.646.043-.968.043q-35.56,0-71.12,0a5.424,5.424,0,0,1-1.126-.076,1.686,1.686,0,0,1-.95-2.187.35.35,0,0,1,.345-.155q.324,0,.648,0h72.578c.324,0,.647.017.971.026A4.652,4.652,0,0,1,223.709-105.545Z" transform="translate(-4.837 -144.607)" fill="#c97e4e"/><path d="M289.612-237.591c.179-.948.479-1.161,1.371-.923a4.964,4.964,0,0,1,1.8.9,23.665,23.665,0,0,1,8.526,13.075c.123.487.318,1.12-.114,1.447s-.978-.081-1.42-.306a9.492,9.492,0,0,1-2.435-1.7c.281-.217.157-.469.078-.729a27.112,27.112,0,0,0-7.1-11.436A.816.816,0,0,0,289.612-237.591Z" transform="translate(-99.522 -56.354)" fill="#95bd5b"/><path d="M166.092-237.744c.046-.886.644-.9,1.267-.746a6.237,6.237,0,0,1,2.333,1.248,23.868,23.868,0,0,1,5.851,7.142,17.6,17.6,0,0,1,2.175,5.445c.1.539.358,1.236-.123,1.59-.448.33-1.019-.121-1.489-.361a8.856,8.856,0,0,1-2.174-1.514c.121-.107.082-.223.05-.361a22.068,22.068,0,0,0-2.812-6.376A23.021,23.021,0,0,0,166.092-237.744Z" transform="translate(-16.104 -56.38)" fill="#95bd5b"/><path d="M219.615-235.683a5.994,5.994,0,0,1,2.491-1.437c.968-.261,1.376.065,1.4,1.063a7.026,7.026,0,0,1-.707,3.046,25.613,25.613,0,0,1-8.277,10.268,6.644,6.644,0,0,1-1.842,1c-.834.28-1,.155-.982-.738a3.529,3.529,0,0,1,.1-.547c.34.006.524-.244.73-.451.871-.875,1.749-1.74,2.543-2.691a24.128,24.128,0,0,0,4.3-7.13C219.637-234.035,220.115-234.834,219.615-235.683Z" transform="translate(-46.905 -57.298)" fill="#95bd5b"/><path d="M290.969-285.09c.043-.978.322-1.2,1.244-.955a5.128,5.128,0,0,1,1.908,1.024,22.837,22.837,0,0,1,7.616,11.621c.162.566.4,1.352-.018,1.688-.462.368-1.105-.174-1.611-.458a10.014,10.014,0,0,1-2.309-1.739c.189-.147.119-.317.071-.508a18.56,18.56,0,0,0-2.3-5.034A20.462,20.462,0,0,0,290.969-285.09Z" transform="translate(-100.439 -24.252)" fill="#95bd5b"/><path d="M174.167-273.87a7.506,7.506,0,0,0-1.1-3.413,28.332,28.332,0,0,0-5.095-7.316c-.2-.208-.37-.479-.713-.487.045-.978.331-1.209,1.251-.964a5.216,5.216,0,0,1,1.977,1.076,23.029,23.029,0,0,1,7.5,11.372,5.171,5.171,0,0,1,.173,1.034c.088,1.017-.125,1.172-1.081.739a8.876,8.876,0,0,1-2.713-1.866l-.188-.2Z" transform="translate(-16.891 -24.251)" fill="#95bd5b"/><path d="M219.15-282.76a6.28,6.28,0,0,1,2.53-1.531c.826-.249,1.172.006,1.221.856a6.02,6.02,0,0,1-.576,2.747,23.763,23.763,0,0,1-8.027,9.947,6.482,6.482,0,0,1-1.649.845c-.5.178-.719.031-.687-.488.021-.349.066-.7.1-1.044.242-.007.378-.184.535-.33a25.6,25.6,0,0,0,5.094-6.526A9.038,9.038,0,0,0,219.15-282.76Z" transform="translate(-47.08 -25.438)" fill="#95bd5b"/><path d="M342.792-282.765a5.963,5.963,0,0,1,2.534-1.511c.811-.233,1.156.036,1.2.891a5.4,5.4,0,0,1-.436,2.285,23.122,23.122,0,0,1-8.469,10.555,5.572,5.572,0,0,1-1.148.585c-.8.314-1,.141-.922-.739a4.087,4.087,0,0,1,.125-.549,23.955,23.955,0,0,0,2.633-2.705,22.994,22.994,0,0,0,3.858-6.179A5.808,5.808,0,0,0,342.792-282.765Z" transform="translate(-130.536 -25.455)" fill="#95bd5b"/><path d="M329.242-312.168a4.853,4.853,0,0,1,1.135-1.924c.587-.594,1.041-.547,1.492.166a5.98,5.98,0,0,1,.8,2.843,15.09,15.09,0,0,1-1.676,8.337c-.273.512-.592,1.259-1.176,1.2-.64-.066-.736-.893-.952-1.461a1.076,1.076,0,0,1-.035-.238,1.484,1.484,0,0,0,.213-.323,18.453,18.453,0,0,0,.585-6.983A3.051,3.051,0,0,0,329.242-312.168Z" transform="translate(-126.005 -5.097)" fill="#f2c14d"/><path d="M205.567-312.02a5.057,5.057,0,0,1,1.13-2.023c.624-.681,1.114-.621,1.6.18a6.088,6.088,0,0,1,.762,2.78,15.816,15.816,0,0,1-1.456,7.933,2.289,2.289,0,0,1-.194.354c-.35.495-.608,1.333-1.235,1.238s-.775-.935-.935-1.561a15.608,15.608,0,0,0,.7-7.727C205.88-311.231,206.049-311.746,205.567-312.02Z" transform="translate(-42.54 -5.09)" fill="#f2c14d"/><path d="M379.294-134.342q.011-3.346.022-6.692c1.3-.521,2.242-1.621,3.574-2.319,0,2.979,0,5.829,0,8.679,0,.331-.17.415-.455.4A28.091,28.091,0,0,1,379.294-134.342Z" transform="translate(-160.088 -120.681)" fill="#83a552"/><path d="M343.474-232.548c.45.663.058,1.305-.116,1.91a21.136,21.136,0,0,1-3.889,6.913,27.509,27.509,0,0,1-2.9,3.237,1.751,1.751,0,0,1-.946.578,14.6,14.6,0,0,1,1.737-4.826A23.832,23.832,0,0,1,343.474-232.548Z" transform="translate(-130.592 -60.444)" fill="#a3c670"/><path d="M219.82-232.514c.5.849.022,1.648-.246,2.378a24.129,24.129,0,0,1-4.3,7.13c-.794.951-1.672,1.817-2.543,2.691-.206.207-.39.458-.73.451a13.345,13.345,0,0,1,1.706-4.831A23.836,23.836,0,0,1,219.82-232.514Z" transform="translate(-47.11 -60.467)" fill="#a4c670"/><path d="M289.548-235.5a.816.816,0,0,1,.7.321,27.112,27.112,0,0,1,7.1,11.435c.08.261.2.513-.078.729-3.53-3.1-6.438-6.62-7.659-11.286A3.027,3.027,0,0,1,289.548-235.5Z" transform="translate(-99.458 -58.448)" fill="#a3c670"/><path d="M165.926-236.037A23.022,23.022,0,0,1,171-229.97a22.07,22.07,0,0,1,2.812,6.376c.032.139.071.255-.05.361a24.639,24.639,0,0,1-7.446-10.057A4.625,4.625,0,0,1,165.926-236.037Z" transform="translate(-15.938 -58.087)" fill="#a4c670"/><path d="M222.1-186.785a6.186,6.186,0,0,1,3.164-.795c.626.026.87.309.634.955a5.529,5.529,0,0,1-1.081,1.786,20.485,20.485,0,0,1-9.556,6.209c-.489.145-1.055.458-1.555-.048a15.384,15.384,0,0,0,4.109-2.491,13.7,13.7,0,0,0,4.234-4.673C222.191-186.138,222.462-186.45,222.1-186.785Z" transform="translate(-48.258 -90.81)" fill="#94bd5a"/><path d="M345.84-186.795a6.081,6.081,0,0,1,3.089-.787c.743.028.9.281.668.986a4.613,4.613,0,0,1-.935,1.6,20.377,20.377,0,0,1-9.66,6.361c-.49.147-1.056.466-1.561-.038a5.724,5.724,0,0,0,1.789-.9,17.738,17.738,0,0,0,6.218-5.725C345.708-185.733,346.2-186.172,345.84-186.795Z" transform="translate(-131.823 -90.809)" fill="#94bd5a"/><path d="M292.514-184.649a4.193,4.193,0,0,1,1.986.237,18.383,18.383,0,0,1,9.049,6.466c.369.482.979,1.16.678,1.607-.364.541-1.193.117-1.809,0a6.975,6.975,0,0,1-1.977-.656c-.258-1.624-1.476-2.635-2.515-3.7A22.549,22.549,0,0,0,292.514-184.649Z" transform="translate(-101.482 -92.766)" fill="#94bd5a"/><path d="M169.214-184.608a6.162,6.162,0,0,1,3.051.648,19.2,19.2,0,0,1,7.623,5.712,6.953,6.953,0,0,1,.875,1.45c.325.7-.111.749-.592.7a9.2,9.2,0,0,1-3.171-.87,1.477,1.477,0,0,0-.246-.838,14.926,14.926,0,0,0-4.682-4.892C171.136-183.359,170.168-183.974,169.214-184.608Z" transform="translate(-18.213 -92.804)" fill="#94bd5a"/><path d="M166.974-184.562c.954.635,1.922,1.25,2.859,1.908a14.926,14.926,0,0,1,4.682,4.892,1.478,1.478,0,0,1,.246.838,19.854,19.854,0,0,1-7.916-5.365,5.185,5.185,0,0,1-.672-1C165.652-184.269,165.843-184.559,166.974-184.562Z" transform="translate(-15.973 -92.851)" fill="#a3c670"/><path d="M290.511-184.568a22.55,22.55,0,0,1,5.413,3.951c1.039,1.065,2.257,2.076,2.515,3.7a20.231,20.231,0,0,1-7.795-5.207,5.861,5.861,0,0,1-.857-1.268C289.334-184.265,289.5-184.506,290.511-184.568Z" transform="translate(-99.479 -92.847)" fill="#a3c670"/><path d="M343.085-279.455a5.808,5.808,0,0,1-.625,2.633,23,23,0,0,1-3.858,6.179,23.963,23.963,0,0,1-2.633,2.705,5.578,5.578,0,0,1,.523-2.014A23.589,23.589,0,0,1,343.085-279.455Z" transform="translate(-130.829 -28.766)" fill="#a3c670"/><path d="M219.365-279.386a9.039,9.039,0,0,1-1.458,4.477,25.6,25.6,0,0,1-5.094,6.526c-.158.146-.293.323-.535.33A22.535,22.535,0,0,1,219.365-279.386Z" transform="translate(-47.295 -28.812)" fill="#a3c670"/><path d="M290.919-282.909a20.465,20.465,0,0,1,4.6,5.639,18.563,18.563,0,0,1,2.3,5.034c.048.191.118.36-.071.508a21.835,21.835,0,0,1-6.7-9.824A3.184,3.184,0,0,1,290.919-282.909Z" transform="translate(-100.388 -26.433)" fill="#a3c670"/><path d="M345.836-185.15c.363.623-.132,1.061-.391,1.493a17.738,17.738,0,0,1-6.218,5.725,5.725,5.725,0,0,1-1.79.9,2.159,2.159,0,0,1,.455-1.269A18,18,0,0,1,345.836-185.15Z" transform="translate(-131.819 -92.454)" fill="#a4c670"/><path d="M222.1-185.122c.365.334.093.646-.052.943a13.7,13.7,0,0,1-4.234,4.673,15.384,15.384,0,0,1-4.109,2.491,3.215,3.215,0,0,1,.672-1.613A18.322,18.322,0,0,1,222.1-185.122Z" transform="translate(-48.258 -92.472)" fill="#a3c670"/><path d="M204.436-306.836c.481.274.313.789.365,1.173a15.608,15.608,0,0,1-.7,7.727A14.573,14.573,0,0,1,204.436-306.836Z" transform="translate(-41.408 -10.274)" fill="#f4d064"/><path d="M328.184-307.312a3.051,3.051,0,0,1,.383,1.616,18.453,18.453,0,0,1-.585,6.983,1.486,1.486,0,0,1-.213.323A14.622,14.622,0,0,1,328.184-307.312Z" transform="translate(-124.948 -9.953)" fill="#f4d064"/><path d="M378.265-105.579a4.652,4.652,0,0,0,.377-2.352c.993-.012,1.988-.007,2.98-.043.472-.017.58.181.59.616.034,1.389-.39,1.866-1.782,1.854A9.331,9.331,0,0,1,378.265-105.579Z" transform="translate(-159.393 -144.573)" fill="#87522e"/><path d="M228.616-142.415a6.748,6.748,0,0,1-4.576-1.143,3.179,3.179,0,0,1,3.265.107A11.662,11.662,0,0,1,228.616-142.415Z" transform="translate(-55.239 -120.272)" fill="#94bd5a"/><path d="M187.223-142.416a5.677,5.677,0,0,1-4.127-.975,1.515,1.515,0,0,0-.452-.156,3.219,3.219,0,0,1,3.4.178A13.217,13.217,0,0,1,187.223-142.416Z" transform="translate(-27.283 -120.278)" fill="#94bd5a"/><path d="M353.514-142.405a5.74,5.74,0,0,1-3.477-.545c-.3-.183-.614-.332-.637-.743C351.1-144.307,352.366-143.547,353.514-142.405Z" transform="translate(-139.899 -120.303)" fill="#94bd5a"/><path d="M311.883-142.572c-1.216.566-3.375-.046-3.908-1.107A3.445,3.445,0,0,1,311.883-142.572Z" transform="translate(-111.924 -120.308)" fill="#94bd5a"/><path d="M336.579-270.4l-1.439,2.333C334.84-269.154,335.027-269.484,336.579-270.4Z" transform="translate(-130.188 -34.882)" fill="#d5d7d8"/><path d="M151.628-141.864l-1.8.023v-1.28A5.343,5.343,0,0,1,151.628-141.864Z" transform="translate(-5.123 -120.837)" fill="#94bd5a"/><path d="M212.664-270.363c-.339.547-.676,1.1-1.019,1.641-.106.168-.173.483-.439.347-.2-.1-.089-.378-.058-.585.124-.825.928-1.008,1.406-1.5A1.272,1.272,0,0,0,212.664-270.363Z" transform="translate(-46.492 -34.842)" fill="#f7f9fa"/><path d="M218.492-274.771l-.19-.22a.965.965,0,0,1,.193-.1c.021-.006.09.062.086.09A1.068,1.068,0,0,1,218.492-274.771Z" transform="translate(-51.364 -31.715)" fill="#f7f9fa"/><path d="M342.149-275.294l.187-.307.159.162-.232.247A1.158,1.158,0,0,0,342.149-275.294Z" transform="translate(-135.003 -31.368)" fill="#f7f9fa"/><path d="M215.6-270.757c.044-.05.117-.15.128-.144.145.083.028.16-.017.238A1.28,1.28,0,0,1,215.6-270.757Z" transform="translate(-49.54 -34.542)" fill="#f7f9fa"/><path d="M342.169-274.553c-.018.089-.07.144-.152.087-.021-.015.025-.123.039-.189A1.155,1.155,0,0,1,342.169-274.553Z" transform="translate(-134.91 -32.007)" fill="#f7f9fa"/><path d="M188.566-248.418l.188.2Z" transform="translate(-31.282 -49.726)" fill="#a3c670"/></g></g></svg>