<svg xmlns="http://www.w3.org/2000/svg" width="68.578" height="64.383" viewBox="0 0 68.578 64.383">
  <g id="Grupo_86025" data-name="Grupo 86025" transform="translate(-852.926 -484.567)">
    <path id="Trazado_122147" data-name="Trazado 122147" d="M856.846,662.214q0-1.24,0-2.479c.266-.012.533-.034.8-.034q6.951,0,13.9,0a4.572,4.572,0,0,0,.734-.024.9.9,0,0,0,.812-.841.943.943,0,0,0-.622-1.061,1.917,1.917,0,0,0-.79-.084q-7.018,0-14.035,0c-.266,0-.532-.023-.8-.036q0-1.318,0-2.635,2.61-.014,5.22-.027c.96,0,1.919,0,2.879,0a.984.984,0,0,0,.923-.555.926.926,0,0,0-.066-1.012,1.148,1.148,0,0,0-1.058-.443c-2.633,0-5.266-.015-7.9-.024q.008-5.375.016-10.751c1.175,0,2.349-.023,3.523-.009,1.5.018,3.011-.072,4.515.05a32.266,32.266,0,0,1,1.586,4.387,3.585,3.585,0,0,0,3.636,2.738,4.867,4.867,0,0,0,2.917.973q3.607-.029,7.214,0a1.126,1.126,0,0,0,1.278-.989h2.731c.229.815.441.989,1.333.99q10.7.007,21.4,0a4.37,4.37,0,0,0,4.511-3.258c.423-1.218.836-2.44,1.257-3.659a1.578,1.578,0,0,1,1.517-1.2c1.982-.041,3.964-.078,5.946.019l-.007,10.721-11.759.021a4.581,4.581,0,0,0-.6.009.945.945,0,0,0-.92.96.968.968,0,0,0,.92,1.029,5.477,5.477,0,0,0,.6.01l11.759.021q0,1.326,0,2.653c-.267.009-.534.026-.8.026H887.96c-1.073,0-1.58.325-1.581,1.01s.484,1,1.575,1q15.76,0,31.52,0c.289,0,.578.021.867.032q0,1.244.006,2.487c-.244.012-.489.035-.733.035q-31.018,0-62.036,0C857.334,662.255,857.09,662.228,856.846,662.214Zm27.894-7.226q4.75,0,9.5,0a2.972,2.972,0,0,0,.666-.026,1,1,0,0,0-.022-1.965,2.143,2.143,0,0,0-.467-.016H875.15a2.009,2.009,0,0,0-.467.02,1,1,0,0,0-.042,1.953,2.582,2.582,0,0,0,.665.034Q880.024,654.988,884.741,654.987Zm-1.083,3.746a1.01,1.01,0,0,0-.994-1.042,1.044,1.044,0,0,0-1.006.974,1.008,1.008,0,0,0,.94,1.022A.974.974,0,0,0,883.658,658.733Zm32.854-9.237a1,1,0,1,0-.98-1.056A1.009,1.009,0,0,0,916.512,649.5Z" transform="translate(-2.864 -115.323)" fill="#d79483"/>
    <path id="Trazado_122148" data-name="Trazado 122148" d="M862.045,535.9c-1.5-.123-3.01-.032-4.515-.05-1.174-.014-2.349,0-3.523.009-.752-.146-1.117-.533-1.053-1.117.063-.566.479-.9,1.206-.9,2.923-.008,5.847-.024,8.77.005a3.608,3.608,0,0,1,3.53,2.572c.453,1.279.878,2.567,1.335,3.844a2.506,2.506,0,0,0,2.825,1.729c.315-.038.285-.2.285-.4q0-.77,0-1.54c0-4.083-.008-8.167.011-12.25,0-.5-.089-.678-.64-.67-1.985.027-3.974.048-5.957-.031a10.241,10.241,0,0,1-9.445-8.08,2.5,2.5,0,0,1,1.982-3.011c2.907-.163,5.845-.447,8.716.322a9.9,9.9,0,0,1,5.22,3.557c.211-.121.107-.32.107-.475.008-2.544-.012-5.088.02-7.631.006-.529-.168-.6-.642-.611A25.266,25.266,0,0,1,865,511a7.791,7.791,0,0,1-6.145-5.929,2.2,2.2,0,0,1,2.253-2.874,35.438,35.438,0,0,1,5.213.128c.346.053.481-.127.64-.346q1.416-1.947,2.835-3.891c1.227-1.677,3.018-1.671,4.256.014.95,1.293,1.9,2.586,2.831,3.894a.646.646,0,0,0,.714.317,35.582,35.582,0,0,1,5.28-.109,2.2,2.2,0,0,1,2.111,2.822,7.945,7.945,0,0,1-7.5,6.134c-1.36.042-2.722.019-4.083.016-.295,0-.5,0-.5.408.019,1.845.008,3.691.008,5.725a12.183,12.183,0,0,1,2.562-2.4,1.086,1.086,0,0,1,1.6.122c.285.8.2,1.087-.507,1.573a7.81,7.81,0,0,0-3.317,4.667l-.046.166.158-.013q2.811-1.6,5.622-3.2c.949-.541,1.5-.505,1.846.125.331.6.085,1.084-.831,1.611l-4.071,2.339a17.819,17.819,0,0,0,4.6-.056l.231-.064.038,0a4.32,4.32,0,0,0,1.452-.46,8.187,8.187,0,0,0,4.642-5.437c.22-.783-.011-1.082-.83-1.089-.375,0-.751.037-1.127.057-1.349-.114-2.7-.037-4.051-.03a1.168,1.168,0,0,1-1.309-.872c.124-.867.4-1.132,1.254-1.14,1.784-.017,3.568-.038,5.351-.022a2.636,2.636,0,0,1,2.671,3.515,10.185,10.185,0,0,1-9.66,7.712c-1.894.053-3.79.037-5.685,0-.535-.009-.608.177-.607.648q.024,8.159,0,16.319c0,.455.1.612.579.6,1.292-.035,2.586-.016,3.879-.01.831,0,1.075.2,1.313,1.026a1.126,1.126,0,0,1-1.278.989q-3.607-.025-7.214,0a4.868,4.868,0,0,1-2.917-.973,5.821,5.821,0,0,1-1.589-2.661c-.3-.956-.64-1.9-.966-2.846C864.2,536.034,863.62,535.681,862.045,535.9Zm2.59-17.718-.3-.062a1.96,1.96,0,0,0-.382-.114c-2.135-.2-4.276-.088-6.414-.087-.572,0-.787.342-.636.905a8.185,8.185,0,0,0,5.346,5.861c1.7.633,3.477.4,5.229.443.129,0,.313.09.4-.14-.212-.124-.419-.247-.628-.368l-3.816-2.2a1,1,0,0,1,.236-1.876,1.186,1.186,0,0,1,.884.21c1.217.691,2.439,1.373,3.66,2.057l2.419,1.438a8.054,8.054,0,0,0-5.979-6.07Zm6.379-18.288c-.727.978-1.448,1.959-2.184,2.93-.163.215-.147.324.093.454a9.347,9.347,0,0,1,2.106,1.716l.9,1.276a8.3,8.3,0,0,1,3.032-3.015c.358-.2.087-.362-.024-.516-.715-.994-1.439-1.982-2.16-2.972C871.906,498.566,871.818,498.573,871.014,499.89Zm6.977,9.218a5.994,5.994,0,0,0,5-4.317c.127-.48-.009-.611-.456-.593-.489.02-.979.022-1.468.031-.82-.007-1.645-.08-2.459-.009A5.808,5.808,0,0,0,873.367,508l-.025.151.117-.063q1.92-1.077,3.84-2.154c.664-.37,1.273-.262,1.569.267s.087,1.091-.586,1.486c-.779.457-1.564.9-2.513,1.45A11.914,11.914,0,0,0,877.991,509.108Zm-10.184-2.483,2.655,1.577c-.318-1.853-2.635-3.753-4.66-3.886a39.41,39.41,0,0,0-4.4-.124c-.6-.036-.7.209-.527.712a6.01,6.01,0,0,0,3.979,4,7.676,7.676,0,0,0,3.016.189c-.784-.525-1.577-.975-2.363-1.437-.645-.379-.834-.9-.542-1.439s.875-.66,1.552-.295C866.95,506.158,867.378,506.392,867.807,506.625Z" transform="translate(-0.016 -8.977)" fill="#030403"/>
    <path id="Trazado_122149" data-name="Trazado 122149" d="M1016.724,494.244c.388.781.323,1.138-.357,1.67a3.553,3.553,0,0,1-3.652.548.682.682,0,0,0-.9.2,10.021,10.021,0,0,0-1.777,1.887c-.382.748-.013,1.7.007,2.564.039,1.74.042,3.487.221,5.215.387,3.739-1.477,5.707-4.422,6.458a4.265,4.265,0,0,1,1.146,2.421,3.94,3.94,0,0,1-1.115,3.3c-.875.892-1.746,1.789-2.654,2.647a3.96,3.96,0,0,1-5.6-.02c-.918-.88-1.805-1.793-2.7-2.7a9.647,9.647,0,0,1-1.116-2.086c-.368-.608-1.416-.5-1.971-1.124a2.993,2.993,0,0,1-.749-2.968c1.155-4,2.319-7.99,3.523-11.972a4.766,4.766,0,0,1,4.882-3.5c2.81.075,5.62.2,8.428.326a1.146,1.146,0,0,0,1.045-.427,4,4,0,0,1,.567-.568,2.051,2.051,0,0,0,.9-2.608,2.913,2.913,0,0,1,.9-3c1.633-1.68,3.281-3.347,4.974-4.967a3.7,3.7,0,0,1,5.24,5.213c-.418.463-.891.877-1.312,1.338a1.148,1.148,0,0,1-1.607.258,1.1,1.1,0,0,1,.19-1.691c.373-.379.76-.744,1.125-1.13a1.687,1.687,0,0,0,.372-2.007,1.632,1.632,0,0,0-1.824-.884,1.011,1.011,0,0,0-.773.334c-1.659,1.641-3.345,3.257-4.941,4.958a1.621,1.621,0,0,0,1.026,2.718,1.457,1.457,0,0,0,1.364-.36A1.109,1.109,0,0,1,1016.724,494.244Zm-10.938,16.388-.006,0a2.905,2.905,0,0,0,2.506-3.053c-.068-2.273-.179-4.544-.276-6.816,0-.048-.057-.093-.116-.182l-1.21,1.281c-.164.148-.336.288-.493.444q-1.921,1.913-3.836,3.831a1.085,1.085,0,0,1-1.192.389,1.017,1.017,0,0,1-.255-1.783q2.544-2.568,5.11-5.113c.149-.149.325-.271.488-.4-2.369-.25-4.634-.351-6.9-.424a2.917,2.917,0,0,0-3.164,2.306q-1.68,5.7-3.34,11.4a1.193,1.193,0,0,0-.05.909c.459.849.889.884,1.389.136a6.34,6.34,0,0,1,.725-.867c.849-.878,1.711-1.743,2.568-2.612,2.043-1.429,4.033-1.364,5.637.316a1.43,1.43,0,0,0,1.879.453l.239-.115A.28.28,0,0,0,1005.786,510.633Zm-5.522,9.6a1.709,1.709,0,0,0,1.577-.534c.874-.859,1.751-1.717,2.6-2.6a1.945,1.945,0,0,0,0-2.82c-.849-.884-1.726-1.741-2.6-2.6a1.687,1.687,0,0,0-1.575-.533,1.594,1.594,0,0,0-1.295.58c-.846.824-1.685,1.655-2.506,2.5a1.984,1.984,0,0,0,0,2.922c.837.864,1.693,1.709,2.555,2.548A1.568,1.568,0,0,0,1000.264,520.236Z" transform="translate(-100.997 0)" fill="#040404"/>
    <path id="Trazado_122150" data-name="Trazado 122150" d="M853.982,716.862c.244.014.487.042.731.042q31.018,0,62.036,0c.244,0,.489-.023.733-.035l3.061.014c.591.171,1.013.491.943,1.176-.059.578-.495.862-1.295.862q-32.957,0-65.914,0c-.815,0-1.232-.264-1.335-.824S853.178,717.134,853.982,716.862Z" transform="translate(0 -169.972)" fill="#060404"/>
    <path id="Trazado_122151" data-name="Trazado 122151" d="M994.992,636.777c-1.982-.1-3.964-.06-5.946-.019a1.578,1.578,0,0,0-1.517,1.2c-.421,1.219-.835,2.441-1.257,3.659a4.37,4.37,0,0,1-4.511,3.258q-10.7.025-21.4,0c-.892,0-1.1-.175-1.333-.99.211-.83.466-1.025,1.372-1.026q10.506,0,21.012,0c1.856,0,2.426-.408,3.037-2.169q.58-1.669,1.159-3.339a3.631,3.631,0,0,1,3.619-2.63c2.877-.02,5.755-.009,8.632,0,.778,0,1.222.318,1.266.9.052.685-.379.984-.97,1.134Z" transform="translate(-77.638 -109.863)" fill="#050505"/>
    <path id="Trazado_122152" data-name="Trazado 122152" d="M1000.9,701.964c-.289-.011-.578-.032-.867-.032q-15.76,0-31.52,0c-1.091,0-1.576-.309-1.575-1s.509-1.01,1.581-1.01h31.453c.267,0,.534-.017.8-.026l3.2.006c.561.151.975.452.938,1.091a.987.987,0,0,1-.927.952Z" transform="translate(-83.424 -157.554)" fill="#040404"/>
    <path id="Trazado_122153" data-name="Trazado 122153" d="M928.646,569.056a7.81,7.81,0,0,1,3.317-4.667c.7-.486.793-.776.507-1.573.851-.163,1.628-.6,2.5-.681a1.168,1.168,0,0,0,1.309.872c1.35-.007,2.7-.083,4.051.03a7.588,7.588,0,0,1-2.107,5.04c-.584.73-1.421,1.187-2.031,1.889l-.038,0-.231.064a17.822,17.822,0,0,1-4.6.056l4.071-2.339c.916-.527,1.163-1.006.831-1.611-.345-.63-.9-.666-1.846-.125q-2.81,1.6-5.622,3.2Z" transform="translate(-55.405 -56.756)" fill="#a8dfa1"/>
    <path id="Trazado_122154" data-name="Trazado 122154" d="M976.706,625.227a1.5,1.5,0,0,1,.173-.839,7.748,7.748,0,0,1,3.459-3.395,2.581,2.581,0,0,1,2.908.6c.623.573,1.225,1.174,1.8,1.8a2.84,2.84,0,0,1,0,3.937q-.862.933-1.8,1.8a2.824,2.824,0,0,1-3.935.022c-.639-.588-1.245-1.215-1.845-1.844A2.8,2.8,0,0,1,976.706,625.227Zm4.149-2.259a11.669,11.669,0,0,0-1.947,1.87.779.779,0,0,0,.061,1.138c.569.582,1.164,1.138,1.749,1.705a.781.781,0,0,0,1.182-.045c.555-.515,1.086-1.057,1.611-1.6a.859.859,0,0,0,.024-1.307c-.536-.566-1.09-1.116-1.656-1.652A.758.758,0,0,0,980.855,622.969Z" transform="translate(-90.567 -99.661)" fill="#030403"/>
    <path id="Trazado_122155" data-name="Trazado 122155" d="M1093.053,642.354l3.166-.019q.011,4.805.023,9.61c0,.378.008.756.013,1.134l-3.209-.005Z" transform="translate(-175.698 -115.44)" fill="#cd826c"/>
    <path id="Trazado_122156" data-name="Trazado 122156" d="M1056.824,682.364l3.209.005a1.023,1.023,0,0,1,0,2.039l-3.208.006-11.759-.021a5.461,5.461,0,0,1-.6-.01.968.968,0,0,1-.92-1.029.945.945,0,0,1,.92-.96,4.581,4.581,0,0,1,.6-.009Z" transform="translate(-139.476 -144.729)" fill="#010000"/>
    <path id="Trazado_122157" data-name="Trazado 122157" d="M854.022,699.852c.266.013.532.036.8.036q7.017,0,14.035,0a1.917,1.917,0,0,1,.79.084.943.943,0,0,1,.622,1.061.9.9,0,0,1-.812.841,4.58,4.58,0,0,1-.734.024q-6.951,0-13.9,0c-.266,0-.533.022-.8.034-.578-.094-1.016-.362-1.035-1C852.965,700.25,853.434,699.981,854.022,699.852Z" transform="translate(-0.043 -157.525)" fill="#040404"/>
    <path id="Trazado_122158" data-name="Trazado 122158" d="M950.146,607.983a4.533,4.533,0,0,1,3.438-3.617c1.751-.077,3.943,2.4,3.583,4.052a5.238,5.238,0,0,1-3.151,3,2.1,2.1,0,0,1-1.646-.376,10.889,10.889,0,0,1-1.836-1.836A1.88,1.88,0,0,1,950.146,607.983Zm3.105,1.132c.257.417.539.392.854.061.26-.274.532-.538.8-.8.233-.228.509-.52.134-.766-.552-.362-.7-1.372-1.669-1.066-.05.016-.079.1-.117.154C951.847,607.906,951.847,607.906,953.251,609.115Z" transform="translate(-71.136 -87.656)" fill="#030403"/>
    <path id="Trazado_122159" data-name="Trazado 122159" d="M854.024,682.336c2.633.009,5.266.023,7.9.024a1.148,1.148,0,0,1,1.058.443.926.926,0,0,1,.066,1.012.984.984,0,0,1-.923.555c-.96.005-1.919,0-2.879,0q-2.61.011-5.22.027c-.611-.1-1.05-.4-1.032-1.067C853.01,682.7,853.44,682.42,854.024,682.336Z" transform="translate(-0.049 -144.709)" fill="#010000"/>
    <path id="Trazado_122160" data-name="Trazado 122160" d="M1080.769,492.285a1.632,1.632,0,0,1,1.824.884,1.687,1.687,0,0,1-.372,2.007c-.366.386-.752.751-1.125,1.13a1.1,1.1,0,0,0-.19,1.691l-1.893,1.882a1.109,1.109,0,0,0-1.567.056,1.457,1.457,0,0,1-1.364.36q2.043-2.071,4.086-4.14C1081.5,494.816,1081.637,493.947,1080.769,492.285Z" transform="translate(-163.285 -5.635)" fill="#f2c15c"/>
    <path id="Trazado_122161" data-name="Trazado 122161" d="M1093.046,689.988l3.208-.006q0,1.333-.005,2.665l-3.2-.006Q1093.047,691.314,1093.046,689.988Z" transform="translate(-175.698 -150.303)" fill="#cd826c"/>
    <path id="Trazado_122162" data-name="Trazado 122162" d="M1093.523,707.554l3.087-.023q-.01,1.262-.019,2.524l-3.061-.014Q1093.526,708.8,1093.523,707.554Z" transform="translate(-176.047 -163.144)" fill="#cd826c"/>
    <path id="Trazado_122163" data-name="Trazado 122163" d="M931.181,684.438q-4.717,0-9.435,0a2.585,2.585,0,0,1-.665-.034,1,1,0,0,1,.042-1.953,2.012,2.012,0,0,1,.467-.02h19.27a2.144,2.144,0,0,1,.467.016,1,1,0,0,1,.022,1.966,2.976,2.976,0,0,1-.667.025Q935.932,684.439,931.181,684.438Z" transform="translate(-49.304 -144.774)" fill="#010000"/>
    <path id="Trazado_122164" data-name="Trazado 122164" d="M886.859,642.264c1.575-.215,2.159.138,2.668,1.617.326.947.668,1.89.966,2.846a5.821,5.821,0,0,0,1.589,2.661,3.585,3.585,0,0,1-3.636-2.738A32.274,32.274,0,0,0,886.859,642.264Z" transform="translate(-24.829 -115.345)" fill="#cd826c"/>
    <path id="Trazado_122165" data-name="Trazado 122165" d="M951.342,701.047a.974.974,0,0,1-1.06.955,1.008,1.008,0,0,1-.94-1.022,1.044,1.044,0,0,1,1.006-.974A1.01,1.01,0,0,1,951.342,701.047Z" transform="translate(-70.548 -157.638)" fill="#060404"/>
    <path id="Trazado_122166" data-name="Trazado 122166" d="M1076.577,664a1,1,0,1,1,1.021-.946A1.013,1.013,0,0,1,1076.577,664Z" transform="translate(-162.929 -129.824)" fill="#060404"/>
    <path id="Trazado_122167" data-name="Trazado 122167" d="M878.865,580.211c-1.22-.685-2.443-1.366-3.66-2.058a1.186,1.186,0,0,0-.884-.21,1,1,0,0,0-.236,1.876l3.816,2.2c.209.12.416.243.628.368-.089.23-.272.143-.4.14-1.752-.039-3.526.19-5.229-.443a8.185,8.185,0,0,1-5.346-5.861c-.15-.564.065-.905.636-.906,2.138,0,4.278-.108,6.414.087a1.962,1.962,0,0,1,.382.114.208.208,0,0,0,.3.062l.017,0c-.036.234.16.283.3.387A8.722,8.722,0,0,1,878.865,580.211Z" transform="translate(-10.669 -66.381)" fill="#a8dfa1"/>
    <path id="Trazado_122168" data-name="Trazado 122168" d="M889.235,526.678c-.429-.233-.857-.467-1.286-.7-.677-.365-1.253-.255-1.552.295s-.1,1.06.542,1.439c.786.462,1.579.911,2.363,1.437a7.676,7.676,0,0,1-3.016-.189,6.01,6.01,0,0,1-3.979-4c-.17-.5-.074-.748.527-.712a39.4,39.4,0,0,1,4.4.124c.093.091.182.186.279.272A5.446,5.446,0,0,1,889.235,526.678Z" transform="translate(-21.444 -29.03)" fill="#a8dfa1"/>
    <path id="Trazado_122169" data-name="Trazado 122169" d="M929.058,528.054a5.81,5.81,0,0,1,5.239-3.783c.813-.071,1.639,0,2.459.009a4.325,4.325,0,0,1-.05.462,7.62,7.62,0,0,1-3.024,4.417,11.914,11.914,0,0,1-2.221.03c.949-.547,1.734-.993,2.513-1.45.673-.395.886-.95.586-1.486s-.905-.637-1.569-.267q-1.922,1.072-3.84,2.154A1.26,1.26,0,0,0,929.058,528.054Z" transform="translate(-55.707 -29.029)" fill="#a8dfa1"/>
    <path id="Trazado_122170" data-name="Trazado 122170" d="M914.054,513.317a9.345,9.345,0,0,0-2.106-1.716c-.239-.13-.255-.239-.093-.454.736-.97,1.457-1.952,2.184-2.929.9,1.028,1.627,2.189,2.445,3.28.128.171.186.42-.083.491C915.5,512.228,914.893,512.977,914.054,513.317Z" transform="translate(-43.041 -17.305)" fill="#a8dfa1"/>
    <path id="Trazado_122171" data-name="Trazado 122171" d="M956.782,572.269c.61-.7,1.447-1.159,2.031-1.889a7.588,7.588,0,0,0,2.107-5.04c.376-.02.751-.061,1.127-.057.82.007,1.05.306.83,1.089a8.187,8.187,0,0,1-4.642,5.437A4.32,4.32,0,0,1,956.782,572.269Z" transform="translate(-75.993 -59.06)" fill="#86cea1"/>
    <path id="Trazado_122172" data-name="Trazado 122172" d="M920.3,510.571c.839-.34,1.444-1.089,2.347-1.328.27-.072.211-.321.083-.492-.819-1.091-1.542-2.252-2.445-3.28.8-1.317.892-1.324,1.765-.127.721.99,1.445,1.978,2.16,2.972.111.154.382.315.024.516a8.3,8.3,0,0,0-3.032,3.015Z" transform="translate(-49.29 -14.559)" fill="#86cea1"/>
    <path id="Trazado_122173" data-name="Trazado 122173" d="M900.123,581a8.723,8.723,0,0,0-3.262-4.245c-.138-.1-.335-.152-.3-.387a8.053,8.053,0,0,1,5.979,6.07Z" transform="translate(-31.927 -67.173)" fill="#86cea1"/>
    <path id="Trazado_122174" data-name="Trazado 122174" d="M946.293,529.178a7.62,7.62,0,0,0,3.024-4.417,4.34,4.34,0,0,0,.05-.462c.489-.01.979-.011,1.468-.031.447-.018.583.113.456.593A5.994,5.994,0,0,1,946.293,529.178Z" transform="translate(-68.318 -29.048)" fill="#86cea1"/>
    <path id="Trazado_122175" data-name="Trazado 122175" d="M902.867,527.026a5.446,5.446,0,0,0-1.726-2.036c-.1-.087-.186-.181-.279-.272,2.025.133,4.341,2.033,4.66,3.886Z" transform="translate(-35.076 -29.378)" fill="#86cea1"/>
    <path id="Trazado_122176" data-name="Trazado 122176" d="M895.682,576.214a.208.208,0,0,1-.3-.062Z" transform="translate(-31.063 -67.013)" fill="#86cea1"/>
    <path id="Trazado_122177" data-name="Trazado 122177" d="M955.779,591.375l.231-.064Z" transform="translate(-75.259 -78.105)" fill="#86cea1"/>
    <path id="Trazado_122178" data-name="Trazado 122178" d="M928.634,588.085l-.158.013.046-.166Z" transform="translate(-55.281 -75.633)" fill="#a8dfa1"/>
    <path id="Trazado_122179" data-name="Trazado 122179" d="M929.083,538.542l-.118.063c.008-.05.017-.1.025-.151Q929.039,538.5,929.083,538.542Z" transform="translate(-55.639 -39.429)" fill="#a8dfa1"/>
    <path id="Trazado_122180" data-name="Trazado 122180" d="M998.566,552.244a1.193,1.193,0,0,1,.05-.909q1.667-5.7,3.34-11.4a2.917,2.917,0,0,1,3.164-2.306c2.266.073,4.531.174,6.9.424-.163.134-.339.256-.488.4q-2.56,2.551-5.11,5.113a1.017,1.017,0,0,0,.255,1.783,1.084,1.084,0,0,0,1.192-.389q1.914-1.92,3.836-3.831c.156-.156.328-.3.493-.444.075,1.368-.038,2.737.118,4.109a7.819,7.819,0,0,1-.106,2.707,19.039,19.039,0,0,1-.916,1.954l.006,0a.243.243,0,0,0-.3.1l-.239.115a1.43,1.43,0,0,1-1.879-.453c-1.6-1.68-3.593-1.745-5.637-.316a2.337,2.337,0,0,0-1.085.26c-.87.332-1.362,1.113-2.026,1.69C999.609,551.309,999.247,551.956,998.566,552.244Z" transform="translate(-106.512 -38.825)" fill="#e9f3fb"/>
    <path id="Trazado_122181" data-name="Trazado 122181" d="M1013.535,592.708a1.568,1.568,0,0,1-1.246-.537c-.862-.839-1.718-1.684-2.555-2.548a1.984,1.984,0,0,1,0-2.922c.822-.847,1.661-1.678,2.506-2.5a1.594,1.594,0,0,1,1.295-.58c.009.281.234.419.4.589.654.661,1.319,1.311,1.969,1.975a2.818,2.818,0,0,1,.013,3.949c-.649.673-1.322,1.323-1.979,1.988C1013.773,592.29,1013.548,592.428,1013.535,592.708Zm-1.125-5.547a1.008,1.008,0,0,0-1.015,1.018,1,1,0,0,0,2,.031A1.017,1.017,0,0,0,1012.411,587.16Z" transform="translate(-114.269 -72.471)" fill="#d79483"/>
    <path id="Trazado_122182" data-name="Trazado 122182" d="M1076.743,492.327c.868,1.662.729,2.531-.6,3.87q-2.049,2.064-4.086,4.14a1.621,1.621,0,0,1-1.026-2.718c1.6-1.7,3.282-3.317,4.941-4.958A1.011,1.011,0,0,1,1076.743,492.327Z" transform="translate(-159.259 -5.676)" fill="#f5ce6d"/>
    <path id="Trazado_122183" data-name="Trazado 122183" d="M1046.211,554.322a19.026,19.026,0,0,0,.916-1.954,7.817,7.817,0,0,0,.106-2.707c-.156-1.373-.043-2.742-.118-4.109l1.21-1.281c.059.09.115.135.116.182.1,2.272.208,4.543.276,6.816A2.905,2.905,0,0,1,1046.211,554.322Z" transform="translate(-141.429 -43.685)" fill="#cbe9f7"/>
    <path id="Trazado_122184" data-name="Trazado 122184" d="M1025.652,592.635c.013-.28.237-.417.406-.587.657-.665,1.33-1.315,1.979-1.988a2.818,2.818,0,0,0-.013-3.949c-.65-.665-1.316-1.314-1.969-1.975-.168-.17-.393-.308-.4-.589a1.687,1.687,0,0,1,1.575.533c.874.859,1.751,1.717,2.6,2.6a1.945,1.945,0,0,1,0,2.82c-.848.884-1.724,1.743-2.6,2.6A1.709,1.709,0,0,1,1025.652,592.635Z" transform="translate(-126.385 -72.399)" fill="#cd826c"/>
    <path id="Trazado_122185" data-name="Trazado 122185" d="M998.77,582.971c.681-.287,1.043-.934,1.572-1.393.664-.577,1.156-1.357,2.026-1.69a2.339,2.339,0,0,1,1.085-.26c-.857.87-1.719,1.735-2.568,2.612a6.344,6.344,0,0,0-.725.867C999.659,583.855,999.229,583.82,998.77,582.971Z" transform="translate(-106.716 -69.552)" fill="#cbe9f7"/>
    <path id="Trazado_122186" data-name="Trazado 122186" d="M1045.131,581.776a.243.243,0,0,1,.3-.1A.28.28,0,0,1,1045.131,581.776Z" transform="translate(-140.638 -71.046)" fill="#cbe9f7"/>
    <path id="Trazado_122187" data-name="Trazado 122187" d="M986.141,633.677c-.584-.567-1.18-1.123-1.749-1.705a.779.779,0,0,1-.061-1.138,11.669,11.669,0,0,1,1.947-1.87c.119.523.6.755.915,1.115a1.713,1.713,0,0,1,.381,1.96A4.509,4.509,0,0,1,986.141,633.677Z" transform="translate(-95.991 -105.656)" fill="#f3cbbe"/>
    <path id="Trazado_122188" data-name="Trazado 122188" d="M991.675,633.262a4.508,4.508,0,0,0,1.433-1.639,1.713,1.713,0,0,0-.381-1.96c-.318-.359-.8-.592-.915-1.115a.758.758,0,0,1,1.023.107c.566.536,1.12,1.086,1.656,1.652a.859.859,0,0,1-.024,1.307c-.525.546-1.056,1.087-1.611,1.6A.782.782,0,0,1,991.675,633.262Z" transform="translate(-101.524 -105.241)" fill="#ecad9d"/>
    <path id="Trazado_122189" data-name="Trazado 122189" d="M961.729,612.476c.039-.053.067-.138.117-.154.967-.306,1.117.7,1.669,1.066.374.246.1.538-.134.766-.27.265-.542.529-.8.8-.316.332-.6.357-.854-.061A1.423,1.423,0,0,0,961.729,612.476Z" transform="translate(-79.609 -93.437)" fill="#ecad9d"/>
    <path id="Trazado_122190" data-name="Trazado 122190" d="M958.857,613.051a1.423,1.423,0,0,1,0,2.42C957.447,614.262,957.447,614.262,958.857,613.051Z" transform="translate(-76.737 -94.012)" fill="#f3cbbe"/>
    <path id="Trazado_122191" data-name="Trazado 122191" d="M1018.692,596.838a1.017,1.017,0,0,1,.988,1.049,1,1,0,0,1-2-.031A1.008,1.008,0,0,1,1018.692,596.838Z" transform="translate(-120.55 -82.149)" fill="#060404"/>
  </g>
</svg>
