<svg xmlns="http://www.w3.org/2000/svg" width="240" height="373" viewBox="0 0 240 373"><g transform="translate(-1180 -2721)"><g transform="translate(0 -2496)"><rect width="240" height="373" transform="translate(1180 5217)" fill="#cee284"/></g><g transform="translate(756)"><circle cx="94" cy="94" r="94" transform="translate(452 2800)" fill="#adce32"/><g transform="translate(483.582 2831.539)"><path d="M2023.522,1153.419a35.861,35.861,0,0,1-3.134-8.013c-1.72-6.817-1.122-13.243,3.365-18.922,3.589-4.542,8.437-6.979,14.064-8.029.454-.085,1.393.283,1.313-.765-.042-.548.193-1.311-.249-1.6-.461-.3-.885.4-1.307.662a14.487,14.487,0,0,1-22.138-10.822,2.118,2.118,0,0,0-.83-1.495,14.566,14.566,0,0,1,10.173-25.662,5.859,5.859,0,0,1,1.925.256c1.412.572,2.275-.018,3.317-.96a14.3,14.3,0,0,1,18.841-.369,1.48,1.48,0,0,0,1.715.255,14.507,14.507,0,0,1,19.5,15.584c-.042.321-.067.645-.1,1,.448-.021.6-.391.837-.615a10.287,10.287,0,0,1,15.071.628,1.633,1.633,0,0,0,1.623.633,10.014,10.014,0,0,1,8.63,3.359,2.2,2.2,0,0,0,1.529.769,10.262,10.262,0,0,1,8.05,5.035c.33.54.486.526,1.078.257,1.978-.9,2.536-2.253,2.375-4.429a11.75,11.75,0,0,1,2.034-7.391c2.28-3.447,5.776-4.236,9.262-2.028.59.373.819.16,1.2-.2a9.97,9.97,0,0,1,4.6-2.608,6.157,6.157,0,0,1,7.417,4.334c1.562,5.973.013,11.231-4.039,15.782a1.517,1.517,0,0,0-.325,2.038,14.763,14.763,0,0,1-.591,14.44q-6.951,12.352-13.877,24.719c-.232.414-.759.845-.566,1.281.393.89.7,1.811,1.087,2.7.148.336.594.162.9.164,2.358.012,4.717,0,7.075.009,1.869.008,2.6.718,2.6,2.563q.015,7.867,0,15.734c0,1.853-.708,2.539-2.612,2.554-2.277.017-4.554.036-6.831-.014-.755-.016-.946.2-.952.951-.027,3.237-.054,3.236,3.182,3.236,1.627,0,3.254-.022,4.88.007,1.59.028,2.323.744,2.328,2.32q.026,8.11,0,16.222a2.055,2.055,0,0,1-2.269,2.268c-.243.008-.488,0-.731,0H2020.718c-2.52,0-3.1-.575-3.1-3.068q0-7.379,0-14.758c0-2.415.587-2.99,3.044-2.992,2.155,0,4.311-.035,6.465.018.758.018,1.014-.2.941-.952-.1-1.044.428-2.426-.209-3.045-.532-.518-1.914-.177-2.92-.187-1.586-.015-3.172.014-4.757-.009-1.775-.025-2.553-.777-2.558-2.517q-.023-7.928,0-15.856c.006-1.683.8-2.449,2.48-2.475C2021.187,1153.406,2022.272,1153.419,2023.522,1153.419Zm94.089,41.648c1.132.013,2.266.008,3.4.047.579.02.776-.208.774-.778q-.025-5.464,0-10.927c0-.573-.21-.8-.782-.778-1.132.035-2.265.03-3.4.042-2-.094-2-.094-2,1.837v8.748C2115.606,1195.184,2115.606,1195.184,2117.61,1195.068Zm0-37.443c-2.008-.151-2.008-.151-2.008,1.795v8.864c0,1.794,0,1.795,1.747,1.755.081,0,.162-.016.242-.024,1.052.012,2.1-.016,3.154.048.793.048,1.054-.231,1.041-1.028-.041-2.548.016-5.1-.029-7.646-.021-1.235.572-2.922-.263-3.589C2120.587,1157.073,2118.941,1157.575,2117.614,1157.624Zm-50.03,16.713q-7.785-.029-15.571-.057c-3.282-.008-3.263,0-3.156,3.263.022.673.2.916.9.912,5.76-.032,11.519-.029,17.278-.037q3.6.148,7.191,0,8.645.015,17.291.03c3.344,0,3.327,0,3.2-3.335-.024-.616-.174-.846-.823-.843-6.575.034-13.15.041-19.725.055A35.541,35.541,0,0,0,2067.584,1174.338ZM2051,1157.623c-.2-.019-.4-.049-.6-.053-1.566-.034-1.567-.032-1.567,1.553,0,2.947-.025,5.895.008,8.842.025,2.193-.524,2.13,2.142,2.05q21.388.017,42.775.048c.783,0,.948-.306.942-1.009-.026-3.371-.063-6.743.017-10.113.028-1.15-.339-1.4-1.428-1.393-12.878.037-25.755.022-38.633.026C2053.44,1157.575,2052.222,1157.607,2051,1157.623Zm-.013,25.05c-.2-.012-.4-.032-.6-.034-1.55-.017-1.551-.016-1.551,1.582q0,4.423,0,8.847c0,2.124,0,2.124,2.165,2q21.389.02,42.777.054c.8,0,.93-.322.925-1.011-.025-3.412-.053-6.824.014-10.235.021-1.051-.332-1.267-1.313-1.262-7.19.039-14.381.016-21.572.022Q2061.411,1182.646,2050.991,1182.673ZM2045.977,1118a1.236,1.236,0,0,0,.793.258,22.267,22.267,0,0,1,11.537,5.1c.8.674,1.114.594,1.725-.225,6.266-8.4,16.083-11.589,25.937-8.438a2.092,2.092,0,0,0,1.8-.306,5.933,5.933,0,0,1,6.85.594,5.572,5.572,0,0,1,2.094,6.51,4.088,4.088,0,0,0,.61,4.005c.576-1.882,1.1-3.705,1.691-5.508,1.206-3.694,1.863-7.577,3.768-11.031a1.061,1.061,0,0,0,.033-.816,6.192,6.192,0,0,0-6.453-4.65,2.5,2.5,0,0,1-2.649-1.267,6.041,6.041,0,0,0-7.092-2.626c-1.637.442-2.293.185-3.14-1.235a6.146,6.146,0,0,0-10.793-.1c-.96,1.574-1.426,1.748-3.325,1.3-.467-.11-1.171-.4-1.392-.036-.805,1.33-2.4,2.081-2.411,4.022a14.519,14.519,0,0,1-16.609,14.058c-.813-.117-1.59-.582-2.454-.326-.923-.783-2.11-1.03-3.141-1.706-.312,2.4-.291,2.426,1.783,2.482A8.3,8.3,0,0,0,2045.977,1118Zm-17.818,35.036c.386-.275.369-.679.5-1.01a10.132,10.132,0,0,1,7.208-6.5,2.407,2.407,0,0,0,1.766-1.538c1.832-3.786,4.784-6.358,8.97-6.919a50.52,50.52,0,0,1,13.469.065c1.038.14,1-.211.884-.9a16.694,16.694,0,0,0-2.025-5.826,16.244,16.244,0,0,0-12.034-7.838c-3.87-.6-3.28-1.175-3.138,2.744.026.739-.031,1.037-.828,1.017-1.045-.027-2.365.442-3.067-.035-.789-.537-.289-1.964-.351-3-.042-.707-.208-.843-.948-.725-9.548,1.525-16.262,9.206-14.67,19.042A29.62,29.62,0,0,0,2028.159,1153.034Zm70.7,21.836c0,6.342.018,12.684-.02,19.026-.005.933.207,1.256,1.2,1.238,3.333-.065,6.669-.073,10,0,1.116.025,1.416-.28,1.412-1.4-.041-12.4-.024-24.8-.031-37.2a15.915,15.915,0,0,0-.126-1.821,6.187,6.187,0,0,0-5.934-5.444,6.31,6.31,0,0,0-6.5,6.575C2098.837,1162.185,2098.858,1168.527,2098.858,1174.869Zm12.7-28.281c1.377-2.455,2.746-4.915,4.138-7.36.335-.589-.168-.591-.451-.715-1.485-.65-2.979-1.283-4.472-1.917-3.053-1.294-3.034-1.284-1.658-4.291.292-.64.563-.722,1.189-.444,2.186.971,4.418,1.838,6.592,2.834.816.374,1.208.309,1.659-.521,1.935-3.565,3.906-7.113,5.954-10.614.577-.987.49-1.395-.594-1.775-.979-.344-2.43-.512-2.737-1.334-.333-.891.7-1.966,1.046-3,.193-.576.451-.769,1.059-.449.715.377,1.506.607,2.226.975.841.43,1.145.338,1.2-.714a10.947,10.947,0,0,0-21.23-4.291c-.7,1.985-1.185,4.047-1.861,6.042-.253.745-.027.976.614,1.234,1.917.772,3.8,1.635,5.718,2.4.654.262.911.511.539,1.213a16.253,16.253,0,0,0-.954,2.235c-.231.658-.544.727-1.159.45-1.737-.783-3.516-1.472-5.249-2.263-.709-.324-1.043-.319-1.253.545-.345,1.416-.783,2.813-1.26,4.19-.27.779-.172,1.153.644,1.563a17.994,17.994,0,0,1,8.054,8.034A21.859,21.859,0,0,1,2111.557,1146.588Zm-36.653,6.8c-1.941-6.4-1.163-12.287,2.835-17.537,3.982-5.229,9.443-7.541,16.075-7.386a14.777,14.777,0,0,0-1.756-3.871c-.917-1.473-.872-2.009.238-3.353a2.079,2.079,0,0,0-.118-2.86,2.023,2.023,0,0,0-2.939.071c-1.38,1.349-1.751,1.41-3.516.606-.406-.185-.816-.361-1.235-.513-8.18-2.971-17.536,1.133-22.042,8.391a1.188,1.188,0,0,0,.109,1.429,19.809,19.809,0,0,1,2.736,10.339,2.228,2.228,0,0,0,.769,1.783,12.234,12.234,0,0,1,3.533,7.046,14.762,14.762,0,0,1-.519,5.856Zm-30.217,21.253c0-6.336.019-12.672-.008-19.009a6.18,6.18,0,0,0-6.159-6.364,6.261,6.261,0,0,0-6.3,6.381c-.022,12.794,0,25.588-.027,38.382,0,.844.215,1.107,1.08,1.095,3.412-.048,6.825-.059,10.236,0,1,.019,1.2-.315,1.2-1.239C2044.673,1187.475,2044.69,1181.058,2044.688,1174.641Zm-6.665-74.181c0-1.312-.025-2.468.006-3.624.048-1.829-.357-3.4-2.051-4.455a12.926,12.926,0,0,1-1.831-1.6c-.71-.658-1.907-1.288-1.973-2.013-.078-.858,1.2-1.5,1.784-2.319.484-.676.9-.728,1.531-.106,1.157,1.14,2.419,2.173,3.6,3.287.464.437.778.437,1.184-.057.593-.721,1.216-1.422,1.87-2.089.706-.72,1.21-2.05,2.1-2.06.939-.012,1.567,1.279,2.421,1.889.546.389.583.741.1,1.259-1.412,1.517-2.771,3.082-4.163,4.619a1.934,1.934,0,0,0-.589,1.519c.327,5.27.643,10.541.9,15.815.045.958.337.941,1.078.67a10.39,10.39,0,0,0,5.3-15.018,3.015,3.015,0,0,1-.165-2.985,10.391,10.391,0,1,0-18.486.929,3.241,3.241,0,0,1,.163,3.2,10.363,10.363,0,0,0,7.124,14.235c.454.1.887.31.863-.479-.077-2.587.067-5.218-2.731-6.746a13.135,13.135,0,0,1-2.1-1.844c-1.374-1.205-1.376-1.2-.129-2.609.324-.365.674-.711.958-1.1.425-.588.78-.512,1.256-.037C2036.636,1099.32,2037.3,1099.836,2038.023,1100.459Zm49.125,52.96c2.234,0,4.469-.025,6.7.014.741.013,1.105-.125,1.349-.952a10.229,10.229,0,0,1,10.89-7.314c.9.089.99-.033.828-.887a14.548,14.548,0,0,0-15.123-11.631c-9.753.344-16.517,11.063-12.636,20a1.077,1.077,0,0,0,1.164.788C2082.6,1153.4,2084.873,1153.419,2087.148,1153.419ZM2033.07,1114.1c-.278-.2-.433-.327-.6-.437a14.405,14.405,0,0,1-5.853-17.06,1.827,1.827,0,0,0-.155-1.48,14.272,14.272,0,0,1-.7-10.552c.48-1.547.492-1.544-1.147-1.641a10.459,10.459,0,0,0-10.039,6.012c-1.815,3.914-1.193,8.743,2.039,11.55a9.026,9.026,0,0,1,3.234,6.058C2020.735,1112.463,2027.5,1116.234,2033.07,1114.1Zm15.76-.817a10.231,10.231,0,0,0,12.543-10.4,4.55,4.55,0,0,1,1.532-3.92,10.172,10.172,0,0,0,1.854-12.42,10.411,10.411,0,0,0-11.406-5.111c-.726.167-1.045.312-.619,1.17a14.035,14.035,0,0,1,.666,11.119,1.963,1.963,0,0,0,.15,1.6,14.246,14.246,0,0,1,.408,11.25A15.023,15.023,0,0,1,2048.83,1113.284Zm-7.346,32.279a10.5,10.5,0,0,1,7.046,7.32c.16.57.5.536.909.536,4.757,0,9.514-.012,14.271.015a1.071,1.071,0,0,0,1.09-.744,8.348,8.348,0,0,0-4.589-11.173c-.64-.219-.962-.2-.928.624.054,1.3.042,2.6.005,3.9-.03,1.042.467,2.462-.21,3.021-.639.527-2.013.118-3.055.216-.833.077-.909-.315-.9-.992.035-2.073-.037-4.148.035-6.219.032-.909-.206-1.231-1.133-1.133-.96.1-2.216-.287-2.827.194-.658.517-.223,1.827-.194,2.781.029.918-.176,1.345-1.183,1.21-.955-.128-2.186.389-2.818-.2-.584-.547-.192-1.77-.167-2.69.023-.839-.248-.989-.979-.681A8.36,8.36,0,0,0,2041.484,1145.563Zm74.2-43.932a14.557,14.557,0,0,1,9.757,3.469c.354.29.646.79,1.171.159,2.665-3.2,4.175-6.759,3.285-11-.491-2.341-1.976-2.928-4.047-1.679a11.371,11.371,0,0,0-2.95,2.867,2.078,2.078,0,0,1-3.439.079c-.246-.27-.463-.568-.723-.822-1.569-1.525-3.038-1.331-4.172.553a10.322,10.322,0,0,0-1.244,4.409c-.208,2.049-.227,2.046,1.755,1.968C2115.281,1101.624,2115.484,1101.631,2115.687,1101.631Zm-93.925,87.142c0,1.83.017,3.659-.01,5.488-.009.618.18.874.832.859q2.316-.053,4.634,0c.628.014.853-.186.849-.832-.025-3.577-.032-7.155,0-10.732.008-.79-.307-.953-1.007-.934-1.422.04-2.847.053-4.268,0-.8-.032-1.074.228-1.051,1.033C2021.8,1185.358,2021.761,1187.066,2021.762,1188.773Zm6.293-25c0-1.786-.019-3.573.011-5.358.01-.624-.188-.865-.834-.85-1.5.036-3,.042-4.506,0-.761-.022-.98.286-.975,1q.035,5.3,0,10.594c0,.7.257.92.93.9,1.461-.034,2.925-.054,4.384.006.836.035,1.025-.3,1.006-1.064C2028.025,1167.26,2028.056,1165.514,2028.055,1163.769Z" transform="translate(-2009.443 -1074.344)" fill="#020201"/><path d="M2084.706,1139c.863-.257,1.64.208,2.454.326a14.519,14.519,0,0,0,16.609-14.058c.015-1.942,1.606-2.692,2.411-4.022.221-.365.925-.074,1.392.036,1.9.447,2.365.273,3.324-1.3a6.147,6.147,0,0,1,10.793.1c.846,1.419,1.5,1.677,3.139,1.235a6.041,6.041,0,0,1,7.092,2.626,2.505,2.505,0,0,0,2.65,1.267,6.192,6.192,0,0,1,6.453,4.65,1.061,1.061,0,0,1-.033.816c-1.906,3.454-2.563,7.336-3.768,11.031-.588,1.8-1.115,3.626-1.691,5.508a4.087,4.087,0,0,1-.61-4.005,5.572,5.572,0,0,0-2.094-6.51,5.933,5.933,0,0,0-6.85-.594,2.092,2.092,0,0,1-1.8.306c-9.854-3.151-19.67.039-25.937,8.438-.611.819-.922.9-1.724.225a22.268,22.268,0,0,0-11.537-5.1,1.234,1.234,0,0,1-.792-.258A.947.947,0,0,1,2084.706,1139Z" transform="translate(-2047.652 -1096.059)" fill="#84a14e"/><path d="M2043.029,1203.026a29.623,29.623,0,0,1-4.263-11.416c-1.591-9.836,5.122-17.518,14.67-19.042.74-.118.906.018.948.725.062,1.036-.438,2.463.351,3,.7.478,2.022.008,3.067.035.8.02.855-.278.828-1.017-.142-3.919-.732-3.344,3.138-2.744a16.245,16.245,0,0,1,12.034,7.838,16.689,16.689,0,0,1,2.025,5.826c.119.684.153,1.035-.884.895a50.528,50.528,0,0,0-13.47-.064c-4.186.561-7.138,3.133-8.97,6.919a2.407,2.407,0,0,1-1.766,1.538,10.132,10.132,0,0,0-7.208,6.5C2043.4,1202.347,2043.415,1202.751,2043.029,1203.026Z" transform="translate(-2024.314 -1124.337)" fill="#912d58"/><path d="M2094.444,1295.91q10.419-.018,20.839-.035c7.191-.006,14.382.017,21.572-.022.981-.005,1.334.211,1.313,1.262-.067,3.411-.039,6.824-.014,10.235.005.689-.126,1.013-.925,1.011q-21.388-.051-42.778-.054Z" transform="translate(-2052.896 -1187.58)" fill="#876635"/><path d="M2094.451,1244.645c1.218-.017,2.436-.048,3.653-.048,12.878,0,25.755.011,38.633-.026,1.09,0,1.456.243,1.429,1.393-.08,3.369-.043,6.742-.017,10.113.005.7-.159,1.01-.942,1.009q-21.387-.046-42.775-.048Q2094.442,1250.84,2094.451,1244.645Z" transform="translate(-2052.89 -1161.365)" fill="#876635"/><path d="M2192.352,1253.226c0-6.342-.021-12.684.008-19.026a6.31,6.31,0,0,1,6.5-6.575,6.186,6.186,0,0,1,5.934,5.444,15.917,15.917,0,0,1,.126,1.821c.008,12.4-.01,24.8.031,37.2,0,1.124-.3,1.429-1.412,1.4-3.333-.075-6.669-.067-10,0-1,.019-1.208-.3-1.2-1.238C2192.37,1265.911,2192.352,1259.569,2192.352,1253.226Zm6.282-8.971c2.122,0,2.122,0,2.122-1.979,0-2.182,0-2.2-2.18-2.178-2.347.019-2.041-.328-2.058,2.055C2196.5,1244.255,2196.515,1244.255,2198.634,1244.255Zm-.081,25.052c2.125,0,2.125,0,2.125-2.1,0-2.059,0-2.059-2.043-2.059-2.121,0-2.121,0-2.121,2.1C2196.515,1269.307,2196.515,1269.307,2198.553,1269.307Z" transform="translate(-2102.938 -1152.701)" fill="#987643"/><path d="M2206.765,1179.405a21.856,21.856,0,0,0-2.248-7.963,17.993,17.993,0,0,0-8.054-8.034c-.815-.41-.914-.784-.644-1.563.477-1.378.915-2.775,1.26-4.19.21-.865.543-.87,1.253-.546,1.733.791,3.513,1.48,5.249,2.263.614.277.928.208,1.158-.45a16.248,16.248,0,0,1,.955-2.235c.372-.7.114-.951-.539-1.213-1.919-.769-3.8-1.632-5.718-2.4-.641-.258-.867-.489-.614-1.234.676-2,1.16-4.057,1.861-6.042a10.947,10.947,0,0,1,21.23,4.291c-.053,1.052-.357,1.144-1.2.714-.72-.368-1.511-.6-2.226-.975-.608-.32-.865-.127-1.059.449-.345,1.029-1.379,2.1-1.046,3,.307.822,1.758.99,2.737,1.334,1.085.38,1.172.788.594,1.775-2.048,3.5-4.019,7.049-5.954,10.614-.451.83-.843.895-1.659.521-2.174-1-4.406-1.863-6.592-2.834-.626-.278-.9-.2-1.189.444-1.376,3.007-1.394,3,1.658,4.291,1.493.633,2.987,1.266,4.472,1.917.283.124.786.127.451.715C2209.511,1174.49,2208.143,1176.95,2206.765,1179.405Z" transform="translate(-2104.652 -1107.161)" fill="#ecac49"/><path d="M2130.134,1198.6H2124.3a14.762,14.762,0,0,0,.519-5.856,12.231,12.231,0,0,0-3.534-7.046,2.23,2.23,0,0,1-.769-1.783,19.807,19.807,0,0,0-2.736-10.339,1.188,1.188,0,0,1-.109-1.429c4.506-7.258,13.862-11.362,22.042-8.391.419.152.83.328,1.235.513,1.764.8,2.136.742,3.516-.606a2.023,2.023,0,0,1,2.939-.071,2.079,2.079,0,0,1,.118,2.86c-1.109,1.344-1.155,1.88-.238,3.353a14.761,14.761,0,0,1,1.756,3.871c-6.632-.155-12.094,2.157-16.075,7.386C2128.971,1186.308,2128.193,1192.192,2130.134,1198.6Z" transform="translate(-2064.673 -1119.551)" fill="#f7e44c"/><path d="M2068.485,1253c0,6.417-.016,12.835.02,19.252,0,.924-.2,1.257-1.2,1.239-3.411-.064-6.825-.053-10.236-.005-.866.012-1.082-.251-1.08-1.095.026-12.794.005-25.588.027-38.383a6.261,6.261,0,0,1,6.3-6.381,6.18,6.18,0,0,1,6.159,6.364C2068.5,1240.328,2068.484,1246.664,2068.485,1253Zm-8.32-10.867c0,2.127,0,2.127,2.1,2.127,2.064,0,2.064,0,2.064-2.039,0-2.126,0-2.126-2.1-2.126C2060.165,1240.1,2060.165,1240.1,2060.164,1242.133Zm4.163,25.112c0-2.1,0-2.1-2.127-2.1-2.036,0-2.036,0-2.036,2.066,0,2.1,0,2.1,2.127,2.1C2064.327,1269.312,2064.327,1269.312,2064.327,1267.246Z" transform="translate(-2033.239 -1152.704)" fill="#9b7844"/><path d="M2058.729,1104.832c-.721-.624-1.387-1.14-1.979-1.73-.476-.475-.831-.551-1.256.037-.284.394-.634.74-.958,1.1-1.248,1.407-1.245,1.4.129,2.609a13.136,13.136,0,0,0,2.1,1.844c2.8,1.528,2.654,4.16,2.731,6.746.024.789-.409.578-.863.479a10.363,10.363,0,0,1-7.124-14.235,3.242,3.242,0,0,0-.163-3.2,10.4,10.4,0,1,1,18.485-.929,3.015,3.015,0,0,0,.165,2.985,10.39,10.39,0,0,1-5.3,15.018c-.741.271-1.032.288-1.078-.67-.252-5.274-.569-10.545-.9-15.815a1.934,1.934,0,0,1,.589-1.519c1.392-1.536,2.751-3.1,4.163-4.619.482-.518.446-.87-.1-1.259-.854-.61-1.482-1.9-2.421-1.889-.892.011-1.4,1.34-2.1,2.06-.654.667-1.277,1.368-1.87,2.089-.406.494-.72.494-1.184.057-1.183-1.114-2.445-2.147-3.6-3.287-.632-.622-1.047-.57-1.531.106-.586.819-1.862,1.461-1.783,2.319.066.725,1.262,1.355,1.973,2.013a12.933,12.933,0,0,0,1.831,1.6c1.694,1.053,2.1,2.626,2.051,4.455C2058.7,1102.364,2058.729,1103.52,2058.729,1104.832Z" transform="translate(-2030.15 -1078.716)" fill="#83a14e"/><path d="M2158.9,1214.388c-2.275,0-4.551-.024-6.825.016a1.077,1.077,0,0,1-1.164-.788c-3.881-8.935,2.883-19.653,12.636-20a14.548,14.548,0,0,1,15.123,11.631c.162.854.072.975-.828.887a10.229,10.229,0,0,0-10.89,7.314c-.243.827-.607.965-1.348.952C2163.366,1214.363,2161.131,1214.388,2158.9,1214.388Zm.233-5.823a5.962,5.962,0,0,0,5.021-3.6,5.866,5.866,0,0,0-.591-6.416c-.433-.609-.768-.7-1.288-.09a18.037,18.037,0,0,1-1.714,1.724.8.8,0,0,0-.177,1.217,1.887,1.887,0,0,1-.219,2.265,1.686,1.686,0,0,1-2.166.616c-1.137-.769-1.568.007-2.167.617-.426.433-.837.885-1.289,1.29-.415.372-.358.632.062.95A6.941,6.941,0,0,0,2159.13,1208.565Z" transform="translate(-2081.192 -1135.313)" fill="#f3bf46"/><path d="M2037.389,1123.063c-5.574,2.133-12.334-1.638-13.218-7.55a9.027,9.027,0,0,0-3.234-6.058c-3.232-2.808-3.854-7.636-2.039-11.55a10.459,10.459,0,0,1,10.039-6.012c1.639.1,1.627.094,1.147,1.641a14.272,14.272,0,0,0,.7,10.552,1.828,1.828,0,0,1,.155,1.481,14.4,14.4,0,0,0,5.853,17.06C2036.956,1122.736,2037.111,1122.859,2037.389,1123.063Z" transform="translate(-2013.763 -1083.306)" fill="#92ba53"/><path d="M2090.022,1120.426a15.021,15.021,0,0,0,5.127-6.712,14.247,14.247,0,0,0-.408-11.25,1.963,1.963,0,0,1-.15-1.6,14.034,14.034,0,0,0-.666-11.119c-.426-.858-.106-1,.62-1.17a10.411,10.411,0,0,1,11.406,5.111,10.172,10.172,0,0,1-1.854,12.42,4.55,4.55,0,0,0-1.532,3.92A10.232,10.232,0,0,1,2090.022,1120.426Z" transform="translate(-2050.636 -1081.486)" fill="#92ba53"/><path d="M2074.993,1215.154a8.36,8.36,0,0,1,4.377-4.017c.731-.308,1-.158.979.681-.025.92-.417,2.143.167,2.69.633.592,1.864.076,2.819.2,1.007.135,1.212-.292,1.183-1.21-.03-.954-.464-2.264.194-2.781.612-.481,1.867-.093,2.827-.194.927-.1,1.165.224,1.133,1.134-.072,2.07,0,4.146-.035,6.218-.012.677.064,1.069.9.992,1.042-.1,2.416.311,3.055-.215.677-.559.18-1.979.21-3.021.037-1.3.049-2.6-.005-3.9-.035-.822.287-.844.928-.624a8.348,8.348,0,0,1,4.589,11.173,1.071,1.071,0,0,1-1.09.744c-4.757-.026-9.514-.015-14.271-.015-.407,0-.749.034-.909-.536A10.5,10.5,0,0,0,2074.993,1215.154Z" transform="translate(-2042.953 -1143.934)" fill="#e1ae5b"/><path d="M2224.234,1120.031c-.2,0-.406-.007-.609,0-1.981.078-1.963.081-1.755-1.968a10.326,10.326,0,0,1,1.244-4.409c1.134-1.884,2.6-2.078,4.172-.553.26.254.478.551.723.822a2.078,2.078,0,0,0,3.44-.079,11.372,11.372,0,0,1,2.95-2.867c2.072-1.25,3.557-.662,4.047,1.678.89,4.244-.621,7.8-3.285,11-.525.631-.816.131-1.171-.159A14.558,14.558,0,0,0,2224.234,1120.031Z" transform="translate(-2117.991 -1092.744)" fill="#92ba53"/><path d="M2141.578,1278.837c6.575-.014,13.149-.021,19.725-.055.65,0,.8.226.823.843.128,3.337.145,3.34-3.2,3.335q-8.645-.012-17.291-.03A7.083,7.083,0,0,1,2141.578,1278.837Z" transform="translate(-2076.852 -1178.854)" fill="#e1ae5b"/><path d="M2034.627,1302.012c0-1.707.034-3.416-.015-5.121-.023-.8.25-1.065,1.051-1.033,1.421.057,2.846.043,4.268,0,.7-.02,1.015.143,1.007.933-.037,3.577-.029,7.155,0,10.732,0,.646-.221.846-.849.832q-2.316-.05-4.634,0c-.652.015-.841-.241-.832-.859C2034.645,1305.67,2034.627,1303.841,2034.627,1302.012Z" transform="translate(-2022.309 -1187.582)" fill="#856534"/><path d="M2040.927,1250.8c0,1.745-.031,3.491.015,5.235.02.763-.17,1.1-1.006,1.064-1.459-.06-2.923-.04-4.384-.006-.673.016-.935-.2-.93-.9q.037-5.3,0-10.594c0-.718.214-1.026.975-1,1.5.044,3,.038,4.506,0,.646-.015.844.226.834.85C2040.907,1247.226,2040.926,1249.013,2040.927,1250.8Z" transform="translate(-2022.314 -1161.374)" fill="#856534"/><path d="M2108.225,1282.937c-5.76.008-11.519.005-17.278.037-.7,0-.88-.24-.9-.912-.107-3.265-.126-3.271,3.156-3.263q7.786.021,15.571.057A12.057,12.057,0,0,1,2108.225,1282.937Z" transform="translate(-2050.632 -1178.863)" fill="#f7e44c"/><path d="M2230.725,1244.5c1.327-.049,2.973-.551,3.885.175.835.667.241,2.355.263,3.589.045,2.548-.013,5.1.028,7.646.013.8-.248,1.077-1.041,1.028-1.049-.064-2.1-.036-3.154-.048Z" transform="translate(-2122.555 -1161.219)" fill="#876635"/><path d="M2230.718,1295.926c1.133-.012,2.266-.007,3.4-.042.572-.018.784.205.782.778q-.022,5.464,0,10.927c0,.57-.2.8-.774.778-1.132-.039-2.265-.034-3.4-.047Q2230.722,1302.123,2230.718,1295.926Z" transform="translate(-2122.561 -1187.596)" fill="#876635"/><path d="M2127.271,1282.832a12.045,12.045,0,0,0,.548-4.081,35.549,35.549,0,0,1,6.585-.011,7.085,7.085,0,0,0,.058,4.093Q2130.866,1282.978,2127.271,1282.832Z" transform="translate(-2069.678 -1178.757)" fill="#884844"/><path d="M2092.179,1244.658q-.009,6.2-.019,12.392c-2.666.08-2.117.143-2.142-2.05-.033-2.947-.008-5.895-.008-8.842,0-1.586,0-1.587,1.567-1.553C2091.778,1244.609,2091.978,1244.639,2092.179,1244.658Z" transform="translate(-2050.618 -1161.378)" fill="#745533"/><path d="M2092.189,1295.931l.009,12.4c-2.164.123-2.164.123-2.164-2q0-4.423,0-8.847c0-1.6,0-1.6,1.551-1.582C2091.787,1295.9,2091.988,1295.919,2092.189,1295.931Z" transform="translate(-2050.642 -1187.602)" fill="#745533"/><path d="M2228.645,1244.663q-.01,6.195-.019,12.39c-.081.008-.161.022-.242.024-1.746.04-1.747.039-1.747-1.755v-8.864C2226.637,1244.512,2226.637,1244.512,2228.645,1244.663Z" transform="translate(-2120.475 -1161.382)" fill="#745533"/><path d="M2228.632,1295.939q0,6.2.009,12.394c-2,.116-2,.116-2-1.809v-8.748C2226.637,1295.845,2226.637,1295.845,2228.632,1295.939Z" transform="translate(-2120.475 -1187.609)" fill="#745533"/><path d="M2081.813,1160.4a.947.947,0,0,0-.52.716,8.182,8.182,0,0,1-.838.06c-2.074-.056-2.095-.086-1.783-2.482C2079.7,1159.374,2080.889,1159.621,2081.813,1160.4Z" transform="translate(-2044.759 -1117.466)" fill="#f7f9fa"/><path d="M2203.007,1257.3c-2.119,0-2.131,0-2.116-2.1.017-2.383-.289-2.036,2.058-2.056,2.181-.018,2.181,0,2.181,2.179C2205.129,1257.3,2205.129,1257.3,2203.007,1257.3Z" transform="translate(-2107.311 -1165.741)" fill="#020201"/><path d="M2202.928,1308.554c-2.039,0-2.039,0-2.039-2.057,0-2.1,0-2.1,2.121-2.1,2.043,0,2.043,0,2.043,2.059C2205.053,1308.554,2205.053,1308.554,2202.928,1308.554Z" transform="translate(-2107.312 -1191.948)" fill="#020201"/><path d="M2064.528,1255.173c0-2.038,0-2.038,2.063-2.038,2.1,0,2.1,0,2.1,2.126,0,2.039,0,2.039-2.064,2.039C2064.528,1257.3,2064.528,1257.3,2064.528,1255.173Z" transform="translate(-2037.603 -1165.743)" fill="#020201"/><path d="M2068.691,1306.488c0,2.066,0,2.066-2.036,2.066-2.127,0-2.127,0-2.127-2.1,0-2.067,0-2.067,2.036-2.067C2068.691,1304.391,2068.691,1304.391,2068.691,1306.488Z" transform="translate(-2037.603 -1191.946)" fill="#020201"/><path d="M2163.8,1213.2a6.941,6.941,0,0,1-4.527-1.429c-.42-.317-.478-.578-.062-.95.452-.4.863-.856,1.289-1.29.6-.61,1.03-1.386,2.167-.617a1.686,1.686,0,0,0,2.165-.616,1.886,1.886,0,0,0,.219-2.265.8.8,0,0,1,.177-1.217,18.093,18.093,0,0,0,1.714-1.723c.52-.613.854-.519,1.288.09a5.866,5.866,0,0,1,.59,6.417A5.962,5.962,0,0,1,2163.8,1213.2Z" transform="translate(-2085.859 -1139.949)" fill="#020201"/></g></g></g></svg>