<svg xmlns="http://www.w3.org/2000/svg" width="190" height="190" viewBox="0 0 190 190"><g transform="translate(-180 -6705)"><g transform="translate(-1050 4487)"><g transform="translate(691.128 2579.431)"><path d="M637.038-207.357c-.472,1.94-1.078,2.386-3.319,2.387q-19.177.006-38.355,0-17.862,0-35.725.006a5.25,5.25,0,0,1-3.5-.935c-1.961-1.579-1.966-4.206.025-6.211q8.119-8.171,16.27-16.313a3.453,3.453,0,0,0,1-1.367h-2.051c-3.969,0-7.939-.025-11.908.011-2.018.018-3.683-.518-4.5-2.535-.8-1.958.011-3.453,1.408-4.826,6.242-6.14,12.455-12.308,18.712-18.5-.61-.7-1.211-.461-1.72-.463-4.64-.022-9.28-.042-13.919,0-2.029.019-3.676-.527-4.488-2.545-.791-1.965.051-3.441,1.433-4.821q13.344-13.334,26.652-26.7a2.247,2.247,0,0,0,.791-2.379A17.518,17.518,0,0,1,593.8-312.29a17.472,17.472,0,0,1,21.208,5.322,2.12,2.12,0,0,0,1.932.9c2.99-.039,5.98.015,8.97-.027a2.42,2.42,0,0,1,2.806,2.214c-.366,1.839-1.045,2.424-2.932,2.441-2.265.02-4.53.025-6.8,0-.731-.01-1.047.166-.841.963,1.49,5.751-.2,10.849-3.235,15.673-.252.4-.751.714-.606,1.362,6.139,0,12.263-.013,18.388.017a2.068,2.068,0,0,0,1.554-.833q8.073-8.086,16.141-16.178c.247-.249.749-.411.553-.994q-6.409,0-12.816,0c-2.159,0-2.709-.415-3.323-2.432.337-1.611,1.341-2.233,2.966-2.229,10.619.03,21.239-.009,31.857.047,1.268.007,1.5-.393,1.513-1.553.009-1.186-.735-1-1.4-1.079-5.463-.676-9.445-4.1-10.634-9.294a20.478,20.478,0,0,1-.192-6.921,3.537,3.537,0,0,1,4.185-2.951,14.207,14.207,0,0,1,9.6,5.614c.607.8.817.879,1.475.018a14.165,14.165,0,0,1,9.442-5.6,3.629,3.629,0,0,1,4.442,3.663,27.319,27.319,0,0,1-.158,5.709,11.947,11.947,0,0,1-10.734,9.76c-.738.092-1.5-.076-1.468,1.195.028,1.175.352,1.441,1.492,1.436,10.361-.045,20.723,0,31.084-.046,2.041-.008,3.677.505,4.5,2.515.8,1.958-.029,3.452-1.411,4.83-5.767,5.749-11.5,11.532-17.26,17.289a18.789,18.789,0,0,1-1.572,1.272c.6.619,1.082.4,1.5.4,4.691.019,9.383.058,14.073-.009,2.079-.03,3.806.42,4.662,2.5.834,2.028-.073,3.546-1.5,4.946q-8.608,8.447-17.168,16.937c.5.624,1,.384,1.415.387,4.33.022,8.661.038,12.99,0,1.933-.016,3.452.627,4.239,2.459.8,1.852.147,3.383-1.21,4.742q-20.376,20.406-40.729,40.835a6.588,6.588,0,0,1-4.848,2.02q-9.9.018-19.795,0c-1.9,0-2.475-.492-3.037-2.392.348-1.713,1.423-2.286,3.125-2.27,4.739.045,9.479-.027,14.219-.053,1.441.027,2.888-.019,4.322.1a4.152,4.152,0,0,0,3.528-1.445q18.136-18.28,36.351-36.479c.857-.858,1.781-1.648,2.674-2.47l-.239-.344h-6.725c-3.041-.017-6.084.027-9.121-.077a3.935,3.935,0,0,0-3.229,1.3c-5.523,5.63-11.152,11.156-16.666,16.8a7.994,7.994,0,0,1-6.2,2.545c-5.877-.073-11.755-.026-17.633-.019-.619,0-1.342-.257-1.216.942.355,3.382-1.291,5.85-3.926,7.717-4.851,3.438-12.692,3.355-17.488-.151-2.372-1.734-3.945-3.982-3.747-7.037.083-1.291-.3-1.5-1.474-1.5q-19.024.056-38.05,0a2.929,2.929,0,0,0-2.281.985q-8.923,9.011-17.892,17.975c-.308.309-.767.526-.821,1.045.24.333.579.179.857.18q11.446.016,22.892,0c.616,0,1.367.263,1.284-.917-.378-5.359,4.7-9.779,10.693-9.323,5.224.4,9.143,4.062,9.1,8.707-.014,1.332.328,1.576,1.585,1.569,9.023-.058,18.045-.013,27.068-.047C635.756-209.633,636.775-209.034,637.038-207.357ZM692.66-267.39c.887.924,1.819,1.809,2.648,2.784.637.751,1.042.651,1.694-.017,3.161-3.238,6.379-6.422,9.563-9.638.217-.219.663-.372.46-.822h-6.648c-3.954-.02-7.91-.016-11.864-.074a2.221,2.221,0,0,0-1.92,1.32c-.39.61.451.916.8,1.272C689.125-270.815,690.9-269.111,692.66-267.39Zm-9.933,9.6c1.034,1.067,2.094,2.109,3.09,3.21.5.553.8.371,1.228-.063,1.724-1.765,3.46-3.52,5.222-5.246.485-.475.477-.8-.009-1.251-1.017-.937-2-1.912-3-2.871-1.873-1.909-3.755-3.807-5.609-5.733-.454-.472-.762-.515-1.244-.017-1.72,1.776-3.458,3.535-5.237,5.25-.56.541-.457.846.043,1.326C679.073-261.4,680.893-259.587,682.727-257.785Zm-9.613,9.908c.956.991,1.93,1.967,2.863,2.98.48.521.825.575,1.357.021,1.7-1.772,3.443-3.506,5.2-5.225.461-.451.539-.756.022-1.227-1.093-1-2.135-2.047-3.2-3.075-1.617-1.648-3.322-3.221-4.818-4.972-1.021-1.194-1.66-1.053-2.548.062a7.777,7.777,0,0,1-6.63,3.279c-.047,0-.1.138-.2.28.194.2.394.426.606.636Q669.439-251.5,673.114-247.877Zm-9.57,9.943c1.059,1.167,2,2.987,3.409,3.091,1.137.084,2.1-1.765,3.106-2.786,1.074-1.09,3.086-2.137,2.932-3.324-.164-1.266-2-2.315-3.106-3.457a.448.448,0,0,0-.139-.066q-5.491-5.54-10.971-11.089a2.1,2.1,0,0,0-1.679-.566c-3.4.011-6.8-.006-10.2.018-.41,0-.916-.239-1.1.029Zm36.533-63.454c-7.73-.017-15.461-.018-23.191-.074-1.017-.007-1.185.4-1.172,1.279q.063,4.172,0,8.346c-.022,1.625-.9,2.527-2.3,2.51s-2.294-.981-2.32-2.705c-.041-2.679-.059-5.36.01-8.037.027-1.063-.263-1.418-1.367-1.4-3.555.067-7.113.053-10.668,0a2.566,2.566,0,0,0-2.005.9q-8.006,8.064-16.043,16.1c-.262.263-.727.435-.629,1.017q7.348,0,14.685,0,13.837-.022,27.674-.056c1.8.019,3.607-.012,5.406.076a2.776,2.776,0,0,0,2.292-.956c5.252-5.314,10.542-10.588,15.808-15.887.3-.3.78-.508.76-1.113Zm-39.6,40.515c1.6.027,3.194.006,4.785.1a3.439,3.439,0,0,0,2.861-1.16c4.622-4.7,9.3-9.355,13.953-14.03.846-.85,1.658-1.732,2.672-2.794h-7.259q-20.65-.024-41.3-.066a2.235,2.235,0,0,0-1.687.894q-7.863,7.886-15.728,15.768c-.343.345-.83.6-.926,1.193a2.711,2.711,0,0,0,1.643.176q19.569.018,39.136.006C659.241-260.789,659.858-260.843,660.474-260.873Zm-99.96-.294a1.134,1.134,0,0,0,1.079.377q24.047.009,48.095.024a2.614,2.614,0,0,0,2-.909q8.01-8.062,16.048-16.1c.261-.263.715-.441.624-1.034-5.927,0-11.845.009-17.763-.013a1.943,1.943,0,0,0-1.431.776,53.465,53.465,0,0,1-6.317,5.2,2.765,2.765,0,0,1-3.547.04,49.114,49.114,0,0,1-6.5-5.223,2.469,2.469,0,0,0-1.889-.8c-3.866.04-7.732.02-11.6.015a1.921,1.921,0,0,0-1.545.483C572.052-272.611,566.307-266.918,560.514-261.167ZM601.063-309.2a12.953,12.953,0,0,0-12.473,16.581c1.482,5.159,4.87,8.986,8.762,12.445,3.621,3.218,3.659,3.233,7.3-.02,3.719-3.323,7.008-7,8.651-11.831A12.912,12.912,0,0,0,601.063-309.2Zm5.3,53.081a5.815,5.815,0,0,0,.458.655q10.214,10.223,20.426,20.448a2.272,2.272,0,0,0,1.822.6c3.4-.011,6.8,0,10.2-.015.373,0,.824.194,1.115-.236-.013-.064-.006-.132-.036-.162q-10.36-10.4-20.725-20.794a1.3,1.3,0,0,0-.925-.495Zm-19.3-.009-.317.508a9.27,9.27,0,0,1,1.258.9c5.406,5.38,10.983,10.605,16.116,16.236,2.843,3.117,5.784,4.7,10.014,4.117a51.316,51.316,0,0,1,6.873-.054,3.5,3.5,0,0,0-.331-.6q-10.265-10.285-20.537-20.564a1.622,1.622,0,0,0-1.218-.55C594.964-256.121,591.011-256.126,587.058-256.126Zm38.807,0c.37.462.51.673.684.849q10.1,10.108,20.2,20.222a2.273,2.273,0,0,0,1.8.641c3.4-.017,6.8,0,10.2-.022.4,0,.907.261,1.291-.327q-10.442-10.431-20.871-20.852a1.469,1.469,0,0,0-1.077-.514C634.144-256.123,630.189-256.125,625.865-256.125Zm-24.1,21.7c-6.979-6.974-13.609-13.588-20.218-20.223-.534-.536-.831-.321-1.243.1-1.659,1.691-3.3,3.4-5.029,5.021-.737.689-.573,1.055.056,1.677,4.25,4.2,8.462,8.434,12.689,12.656.358.358.668.776,1.269.775C593.285-234.433,597.287-234.428,601.761-234.428Zm-41.5-.091h21.955c-3.7-3.674-7.151-7.1-10.6-10.531-.46-.459-.7-.074-.98.205q-1.475,1.471-2.949,2.944C565.294-239.518,562.9-237.137,560.26-234.518Zm73.536,4.734q-3.013,0-6.025,0c-1.811,0-2.458.9-1.873,2.631a3.946,3.946,0,0,0,1.025,1.522c3.2,3.157,10.485,3.138,13.652-.029a3.384,3.384,0,0,0,1.146-2.6c-.042-1.012-.4-1.6-1.592-1.551C638.021-229.723,635.907-229.784,633.8-229.784Zm-38.24,20.176c1.183,0,2.367,0,3.55,0,1.615-.006,1.875-.3,1.724-1.884a3.372,3.372,0,0,0-1.2-2.256,5.989,5.989,0,0,0-6.208-1.108,4.122,4.122,0,0,0-3.111,3.471c-.139,1.082.1,1.915,1.544,1.8C593.08-209.688,594.321-209.608,595.556-209.608Zm87.866-111.243c0-.206,0-.411,0-.616,0-1.759-.029-1.8-1.663-1.034a9.885,9.885,0,0,0-5.919,8.039c-.169,1.2.254,1.272,1.251,1.112A7.294,7.294,0,0,0,683.422-320.851Zm-19.963-.121c.056,4.153,2.548,7.077,6.4,7.643,1.021.149,1.3-.121,1.177-1.1a9.786,9.786,0,0,0-5.5-7.886C663.517-323.368,663.427-323.284,663.459-320.973Zm-75.6,37.446c-1.827-3.148-1.83-3.151-4.132-.745-.188.2-.541.333-.408.745Z" transform="translate(0 0)" fill="#030302"/><path d="M664.128-162.172c-4.74.025-9.479.1-14.218.053-1.7-.016-2.777.557-3.126,2.27l-6.082.009c-.263-1.677-1.282-2.277-2.929-2.271-9.023.034-18.046-.011-27.068.047-1.256.007-1.6-.237-1.585-1.569.048-4.645-3.871-8.309-9.1-8.707-6-.456-11.071,3.964-10.692,9.323.084,1.18-.668.916-1.284.917q-11.445.011-22.892,0c-.278,0-.617.154-.857-.18.054-.519.513-.735.821-1.045q8.942-8.991,17.892-17.975a2.929,2.929,0,0,1,2.281-.985q19.025.046,38.05,0c1.169,0,1.557.209,1.474,1.5-.2,3.055,1.376,5.3,3.747,7.037,4.8,3.506,12.636,3.589,17.488.151,2.635-1.867,4.28-4.336,3.926-7.717-.126-1.2.6-.942,1.216-.942,5.878-.007,11.756-.054,17.633.019a7.993,7.993,0,0,0,6.2-2.545c5.513-5.64,11.143-11.165,16.666-16.8a3.935,3.935,0,0,1,3.229-1.3c3.037.1,6.08.06,9.121.077-.342.382-.669.779-1.03,1.143-12.658,12.763-25.556,25.287-37.98,38.282C664.68-163.021,664.206-162.741,664.128-162.172Z" transform="translate(-3.664 -47.516)" fill="#f1a893"/><path d="M671.362-289.151c.614,2.017,1.164,2.429,3.323,2.432q6.408.009,12.816,0c.2.583-.306.745-.553.994q-8.058,8.1-16.141,16.178a2.068,2.068,0,0,1-1.554.833c-6.125-.03-12.249-.017-18.388-.017-.146-.648.354-.962.606-1.362,3.035-4.825,4.724-9.923,3.234-15.673-.206-.8.11-.973.841-.963,2.265.03,4.53.025,6.8,0,1.887-.017,2.566-.6,2.932-2.441Z" transform="translate(-36.559 -14.724)" fill="#80c558"/><path d="M564.1-231.076c5.792-5.751,11.538-11.444,17.263-17.158a1.921,1.921,0,0,1,1.545-.483c3.866,0,7.733.024,11.6-.015a2.469,2.469,0,0,1,1.889.8,49.113,49.113,0,0,0,6.5,5.223,2.765,2.765,0,0,0,3.547-.04,53.468,53.468,0,0,0,6.317-5.2,1.943,1.943,0,0,1,1.431-.776c5.918.022,11.836.013,17.763.013.091.593-.363.771-.624,1.034q-8.018,8.054-16.048,16.1a2.614,2.614,0,0,1-2,.909q-24.047-.037-48.095-.024A1.134,1.134,0,0,1,564.1-231.076Z" transform="translate(-3.59 -30.092)" fill="#80c557"/><path d="M699.219-230.782c-.616.03-1.233.084-1.85.085q-19.568.007-39.136-.006a2.711,2.711,0,0,1-1.643-.176c.1-.589.583-.847.926-1.193q7.855-7.892,15.728-15.768a2.235,2.235,0,0,1,1.687-.894q20.65.062,41.3.066c-.051.7-.642,1.028-1.064,1.452q-7.46,7.484-14.937,14.953C699.806-231.837,699.226-231.5,699.219-230.782Z" transform="translate(-38.745 -30.091)" fill="#80c557"/><path d="M735.317-267.3q-13.837.029-27.674.056-7.34.011-14.685,0c-.1-.583.368-.754.629-1.017q8.015-8.054,16.043-16.1a2.567,2.567,0,0,1,2.005-.9c3.556.049,7.113.063,10.668,0,1.1-.021,1.394.334,1.367,1.4-.069,2.677-.052,5.358-.011,8.037.026,1.724.9,2.688,2.32,2.705s2.28-.885,2.3-2.51q.058-4.172,0-8.346c-.013-.88.155-1.286,1.172-1.279,7.73.056,15.461.056,23.191.074-.044.769-.689,1.115-1.144,1.575Q743.418-275.441,735.317-267.3Z" transform="translate(-52.563 -16.207)" fill="#80c457"/><path d="M621.55-297.733a12.912,12.912,0,0,1,12.24,17.175c-1.643,4.828-4.932,8.508-8.651,11.831-3.64,3.253-3.679,3.238-7.3.02-3.892-3.459-7.28-7.286-8.762-12.445A12.953,12.953,0,0,1,621.55-297.733Zm0,5.565a7.352,7.352,0,0,0-7.422,7.3,7.473,7.473,0,0,0,7.4,7.53,7.5,7.5,0,0,0,7.439-7.352A7.378,7.378,0,0,0,621.555-292.168Z" transform="translate(-20.487 -11.466)" fill="#e98588"/><path d="M725.341-162.122c.078-.569.553-.849.9-1.214,12.424-12.995,25.323-25.519,37.98-38.282.361-.364.688-.761,1.03-1.143h6.725l.239.344c-.893.822-1.817,1.612-2.674,2.47q-18.194,18.221-36.351,36.479a4.152,4.152,0,0,1-3.528,1.445C728.229-162.141,726.782-162.1,725.341-162.122Z" transform="translate(-64.878 -47.566)" fill="#e69682"/><path d="M638.061-212.1H650.4a1.3,1.3,0,0,1,.925.495q10.363,10.4,20.725,20.794c.03.03.023.1.036.162-.29.43-.741.234-1.115.236-3.4.017-6.8,0-10.2.015a2.273,2.273,0,0,1-1.822-.6q-10.195-10.242-20.426-20.448A5.806,5.806,0,0,1,638.061-212.1Z" transform="translate(-31.702 -44.015)" fill="#d9aa8d"/><path d="M606.73-212.121c3.953,0,7.906.006,11.859-.007a1.622,1.622,0,0,1,1.218.55q10.266,10.285,20.537,20.564a3.511,3.511,0,0,1,.331.6,51.317,51.317,0,0,0-6.873.054c-4.231.587-7.172-1-10.014-4.117-5.133-5.63-10.71-10.856-16.116-16.236a9.275,9.275,0,0,0-1.258-.9Z" transform="translate(-19.672 -44.005)" fill="#d9aa8d"/><path d="M669.527-212.116c4.324,0,8.279,0,12.235,0a1.469,1.469,0,0,1,1.077.514q10.429,10.426,20.871,20.852c-.384.588-.89.324-1.291.327-3.4.025-6.8,0-10.2.022a2.273,2.273,0,0,1-1.8-.641q-10.082-10.13-20.2-20.222C670.037-211.443,669.9-211.654,669.527-212.116Z" transform="translate(-43.662 -44.009)" fill="#d9aa8d"/><path d="M614.1-189.709c-4.474,0-8.475,0-12.476,0-.6,0-.911-.417-1.269-.775-4.227-4.222-8.439-8.458-12.689-12.656-.63-.622-.793-.987-.056-1.677,1.728-1.619,3.37-3.329,5.029-5.021.413-.42.71-.635,1.243-.1C600.491-203.3,607.12-196.683,614.1-189.709Z" transform="translate(-12.339 -44.719)" fill="#dbac8e"/><path d="M719.427-193.976l-17.75-18.15c.181-.268.688-.027,1.1-.029,3.4-.024,6.8-.007,10.2-.018a2.1,2.1,0,0,1,1.679.566q5.465,5.566,10.971,11.089c-.37.419-.732.846-1.112,1.255C722.849-197.472,720.935-195.919,719.427-193.976Z" transform="translate(-55.883 -43.958)" fill="#dbac8e"/><path d="M725.358-230.741c.007-.717.588-1.056,1.011-1.48q7.463-7.481,14.937-14.953c.422-.424,1.012-.748,1.064-1.452h7.26c-1.014,1.062-1.827,1.945-2.672,2.794-4.652,4.675-9.331,9.325-13.953,14.03a3.439,3.439,0,0,1-2.861,1.16C728.552-230.736,726.954-230.714,725.358-230.741Z" transform="translate(-64.884 -30.132)" fill="#6db842"/><path d="M563.694-183.847c2.636-2.619,5.034-5,7.43-7.382q1.477-1.469,2.949-2.944c.281-.28.52-.664.98-.205,3.445,3.432,6.9,6.857,10.6,10.531Z" transform="translate(-3.434 -50.671)" fill="#d7a98c"/><path d="M761.3-267.253q8.093-8.149,16.18-16.3c.455-.46,1.1-.806,1.144-1.575h6.943c.02.605-.462.813-.76,1.113-5.266,5.3-10.557,10.573-15.808,15.887a2.776,2.776,0,0,1-2.292.956C764.906-267.265,763.1-267.234,761.3-267.253Z" transform="translate(-78.545 -16.256)" fill="#6fbc42"/><path d="M740.872-206.372q-3.674-3.62-7.348-7.241c-.213-.21-.412-.432-.606-.636.1-.142.151-.282.2-.28a7.776,7.776,0,0,0,6.63-3.279c.888-1.115,1.528-1.257,2.548-.062,1.5,1.751,3.2,3.323,4.818,4.972C745.462-210.314,743.065-208.44,740.872-206.372Z" transform="translate(-67.758 -41.505)" fill="#dbac8e"/><path d="M677.351-169.638c2.111,0,4.225.061,6.333-.024,1.2-.048,1.551.539,1.593,1.551a3.385,3.385,0,0,1-1.146,2.6c-3.167,3.168-10.452,3.186-13.652.029a3.947,3.947,0,0,1-1.025-1.522c-.585-1.727.063-2.628,1.873-2.631Q674.338-169.641,677.351-169.638Z" transform="translate(-43.554 -60.146)" fill="#e69682"/><path d="M757.618-222.352c-1.834-1.8-3.654-3.618-5.511-5.4-.5-.48-.6-.785-.043-1.326,1.78-1.715,3.518-3.475,5.237-5.25.482-.5.79-.455,1.244.017,1.854,1.927,3.736,3.825,5.609,5.733a60.818,60.818,0,0,1-4.621,4.76C758.976-223.244,758.552-222.447,757.618-222.352Z" transform="translate(-74.891 -35.433)" fill="#dcad8f"/><path d="M785-242.7h6.648c.2.45-.243.6-.46.822-3.184,3.216-6.4,6.4-9.563,9.638-.652.668-1.057.768-1.694.017-.828-.974-1.76-1.86-2.648-2.784C779.98-237.441,782.531-240.028,785-242.7Z" transform="translate(-84.62 -32.385)" fill="#d29877"/><path d="M781.215-242.744c-2.466,2.67-5.017,5.257-7.717,7.693-1.759-1.721-3.535-3.425-5.263-5.176-.352-.356-1.193-.662-.8-1.272a2.221,2.221,0,0,1,1.92-1.32C773.305-242.76,777.261-242.764,781.215-242.744Z" transform="translate(-80.838 -32.34)" fill="#dcad8f"/><path d="M617.4-140.538c-1.235,0-2.477-.08-3.7.02-1.441.118-1.683-.715-1.544-1.8a4.122,4.122,0,0,1,3.111-3.471,5.989,5.989,0,0,1,6.208,1.108,3.372,3.372,0,0,1,1.2,2.256c.151,1.583-.108,1.878-1.724,1.884C619.762-140.535,618.579-140.538,617.4-140.538Z" transform="translate(-21.839 -69.069)" fill="#e69682"/><path d="M745.749-202.811c2.193-2.068,4.59-3.941,6.241-6.526,1.063,1.028,2.105,2.079,3.2,3.075.518.471.44.776-.022,1.227-1.754,1.719-3.5,3.453-5.2,5.225-.532.554-.877.5-1.357-.021C747.679-200.844,746.706-201.82,745.749-202.811Z" transform="translate(-72.635 -45.066)" fill="#d29877"/><path d="M730.311-186.78c1.508-1.943,3.422-3.5,5.09-5.286.381-.409.742-.836,1.112-1.255a.449.449,0,0,1,.139.066c1.108,1.142,2.941,2.191,3.106,3.457.154,1.187-1.858,2.234-2.932,3.324-1.007,1.02-1.968,2.87-3.106,2.786C732.316-183.794,731.37-185.613,730.311-186.78Z" transform="translate(-66.767 -51.154)" fill="#d29877"/><path d="M761.256-218.608c.934-.1,1.357-.892,1.915-1.461a60.811,60.811,0,0,0,4.621-4.76c1,.96,1.978,1.934,3,2.871.487.448.494.776.009,1.251-1.762,1.726-3.5,3.481-5.223,5.246-.424.434-.728.616-1.228.063C763.351-216.5,762.29-217.541,761.256-218.608Z" transform="translate(-78.529 -39.178)" fill="#d29877"/><path d="M757.705-317.832a7.293,7.293,0,0,1-6.33,7.5c-1,.16-1.42.083-1.251-1.112a9.886,9.886,0,0,1,5.919-8.039c1.634-.766,1.659-.725,1.663,1.034C757.706-318.243,757.706-318.038,757.705-317.832Z" transform="translate(-74.284 -3.019)" fill="#6db842"/><path d="M730.17-317.947c-.032-2.312.058-2.4,2.083-1.341a9.786,9.786,0,0,1,5.5,7.886c.121.977-.156,1.247-1.177,1.1C732.719-310.87,730.227-313.793,730.17-317.947Z" transform="translate(-66.712 -3.026)" fill="#7ec156"/><path d="M605.414-257.829h-4.539c-.133-.412.22-.549.408-.745C603.585-260.98,603.587-260.977,605.414-257.829Z" transform="translate(-17.556 -25.697)" fill="#7ec156"/><path d="M624.973-288.755a7.378,7.378,0,0,1,7.417,7.475,7.5,7.5,0,0,1-7.439,7.353,7.473,7.473,0,0,1-7.4-7.53A7.352,7.352,0,0,1,624.973-288.755Zm-.045,4.653a2.712,2.712,0,0,0-2.73,2.733,2.818,2.818,0,0,0,2.719,2.792,2.863,2.863,0,0,0,2.827-2.86A2.774,2.774,0,0,0,624.928-284.1Z" transform="translate(-23.905 -14.879)" fill="#030302"/><path d="M627.778-281.249a2.775,2.775,0,0,1,2.816,2.665,2.863,2.863,0,0,1-2.827,2.86,2.818,2.818,0,0,1-2.719-2.792A2.712,2.712,0,0,1,627.778-281.249Z" transform="translate(-26.755 -17.732)" fill="#7ec156"/></g><rect width="190" height="190" transform="translate(1230 2218)" fill="none"/></g></g></svg>