<svg xmlns="http://www.w3.org/2000/svg" width="53.648" height="69.227" viewBox="0 0 53.648 69.227">
  <g id="Grupo_86021" data-name="Grupo 86021" transform="translate(-816.97 -398.521)">
    <path id="Trazado_122019" data-name="Trazado 122019" d="M817.993,456.006a1.111,1.111,0,0,1-1.016-1.272c.008-3.176-.03-6.352.014-9.527a6.266,6.266,0,0,1,4.131-6.074c2.107-.9,4.232-1.746,6.348-2.62.181-.075.354-.168.583-.277a8.118,8.118,0,0,1-1.522-10.874c.141-.209.4-.372.009-.631-2.112-1.4-2.14-4.643-1.366-6.3a2.592,2.592,0,0,0,.253-1.159c-.011-1.869-.008-3.739,0-5.608a12.954,12.954,0,0,1,13.122-13.144,15.021,15.021,0,0,1,7.345,1.347,12.726,12.726,0,0,1,7.223,11.427c.079,2.047.014,4.1.016,6.148a1.506,1.506,0,0,0,.137.781,5.538,5.538,0,0,1,.443,3.746,4.254,4.254,0,0,1-4.317,3.6.877.877,0,0,0-.973.646,9.484,9.484,0,0,1-4.3,4.763.7.7,0,0,0-.456.785,2.466,2.466,0,0,1,0,.607,1.332,1.332,0,0,0,1.021,1.513c4.22,1.715,8.422,3.473,12.636,5.2a6.616,6.616,0,0,1,3.016,2.294.773.773,0,0,0,.654.381,1.6,1.6,0,0,1,1.254.572,2.875,2.875,0,0,0,1.565.917,6.221,6.221,0,0,1,4.183,5.8q.029,1.892,0,3.784c-.005.348.083.481.445.451a9.6,9.6,0,0,1,1.148,0,.953.953,0,0,1,1.019.878.9.9,0,0,1-.757,1.1c-.407.073-.426.246-.434.573a28.807,28.807,0,0,1-.189,5.187,9.471,9.471,0,0,1-.443,1.481c-.313.816-.711,1-1.58.787a1.229,1.229,0,0,1-.3-1.577,4.613,4.613,0,0,0,.348-1.157,37.663,37.663,0,0,0,.126-4.914c0-.133,0-.32-.172-.31-.576.036-1.174-.222-1.7.327-1.69,1.774-3.422,3.508-5.137,5.259-1.228,1.254-2.029,1.258-3.243.015-1.618-1.657-3.264-3.286-4.842-4.98a1.72,1.72,0,0,0-1.712-.623c-1.281-.007-2.562,0-3.842-.029-.407-.009-.55.112-.541.53.027,1.258,0,2.518.026,3.776a6.021,6.021,0,0,0,1.8,4.165,6.92,6.92,0,0,0,5.935,1.917l6.948.027a6.045,6.045,0,0,0,2.862-.655,1.276,1.276,0,0,1,1.6.158c.261.972.121,1.287-.774,1.708a8.206,8.206,0,0,1-3.519.814q-20.811.006-41.623,0a2.321,2.321,0,0,1-2.458-2.4c-.035-1.824-.007-3.649-.011-5.474a1.08,1.08,0,0,1,1.013-1.2,1.106,1.106,0,0,1,1.018,1.268c-.01,1.666.02,3.332-.015,5-.013.63.2.837.821.8a15.951,15.951,0,0,1,2.227,0c.565.041.7-.129.694-.692q-.031-11.819-.014-23.638v-.666a4.511,4.511,0,0,0-3.713,4.68c-.009,3.084,0,6.168,0,9.253C819,455.557,818.83,455.772,817.993,456.006Zm39.469-.674H854.6l-.188.242c1.367,1.29,2.741,2.574,4.1,3.876.206.2.3.161.47-.022.389-.432.8-.848,1.2-1.27l2.838-2.825Zm-28.84-48.327a13.588,13.588,0,0,1,7.078-4.149,20.811,20.811,0,0,1,3.752-.251c.836.024,1.117.242,1.289,1.052a1.075,1.075,0,0,1-1.218.984,8.563,8.563,0,0,0-2.075.084c-3.177.047-7.2,2.452-8.508,5.646a14.422,14.422,0,0,1,5.678-3.461,19.347,19.347,0,0,1,5.812-.514,12.846,12.846,0,0,1,8.79,3.68c.112.108.175.3.379.3.1-.3-.1-.482-.225-.684a10.578,10.578,0,0,0-5.02-4.222,1.251,1.251,0,0,1-.947-1.475c.618-.711.852-.755,1.754-.39A13.947,13.947,0,0,1,850,407.076l.113.212c.1-.1.052-.2-.008-.3a9.686,9.686,0,0,0-2-3.009,11.327,11.327,0,0,0-9.556-3.39,6.206,6.206,0,0,0-1.806.105,10.623,10.623,0,0,0-8.233,6.192c-.086.077-.14.162-.061.276Zm32.388,39.374c.015-.716.036-1.432.039-2.148,0-.2-.053-.413-.316-.444-.224-.027-.293.144-.389.3-.564.926-1.337.928-1.9-.008-.264-.437-.46-.413-.713,0-.567.933-1.328.932-1.9,0-.253-.415-.45-.439-.714,0-.563.935-1.339.932-1.9.006-.1-.158-.164-.329-.388-.3-.262.032-.315.241-.314.445,0,.716.025,1.432.04,2.148-.137,1.341.473,2.084,1.8,2.106q2.429.041,4.859,0C860.532,448.464,861.148,447.715,861.011,446.379Zm-29.463-11.591c.606-.236,1.216-.464,1.818-.711,1.544-.633,1.543-.636,1.518-2.329a.9.9,0,0,1,0-.135.528.528,0,0,0-.344-.582A10.312,10.312,0,0,1,830.4,426.8c-.119-.266-.234-.534-.357-.8a.766.766,0,0,0-1.2-.252,2.668,2.668,0,0,0-.365.4,6.081,6.081,0,0,0,.673,8.349C830.166,435.417,830.291,435.432,831.548,434.789Zm7.406-2.5c-.509-.071-1.024-.114-1.525-.221-.417-.089-.539.012-.527.448a3.1,3.1,0,0,1-2.174,3.2c-.662.258-1.312.547-2.02.845A7.144,7.144,0,0,0,834.621,438a9.174,9.174,0,0,0,11.183-1.46c-.526-.223-1.027-.475-1.553-.653-1.7-.574-2.716-1.634-2.607-3.531.015-.264-.067-.374-.343-.307A17.162,17.162,0,0,1,838.954,432.287Zm.673-23.833c-5.3-.459-10.855,3.141-11.559,7.488a1.439,1.439,0,0,0,1.771-.91,3.968,3.968,0,0,1,3.659-2.347,8.289,8.289,0,0,0,1.544-.058c.268.017.535.048.8.049q4.484.006,8.968,0a4.247,4.247,0,0,1,3.945,2.365c.514.933.6,1,1.745.875C849.369,411.51,844.392,408.093,839.627,408.455Zm-4.194,6.29c-.516-.015-1.032-.044-1.548-.042a2.336,2.336,0,0,0-2.554,2.56c-.01,1.621,0,3.242,0,4.864a8.174,8.174,0,0,0,.575,3.03,7.926,7.926,0,0,0,15.275-2.271c.069-1.911.039-3.827.028-5.74a2.306,2.306,0,0,0-2.463-2.443c-1.913-.015-3.826-.009-5.739,0C837.815,414.705,836.624,414.729,835.433,414.744Zm-6.356,33.389c-1.257-.013-2.515-.008-3.772-.049-.446-.014-.566.127-.562.565.021,2.091.009,4.182.009,6.273,0,3.418,0,6.835-.006,10.252,0,.368.028.57.492.555,1.28-.041,2.561-.027,3.842-.035.112.008.224.022.336.022h17.515c.016-.08.031-.111.023-.119-.14-.147-.284-.288-.424-.435a8,8,0,0,1-2.332-5.176c-.073-1.347-.05-2.7-.054-4.05,0-.354.019-.61-.473-.691a.882.882,0,0,1-.717-1.064.941.941,0,0,1,.939-.891,5.793,5.793,0,0,1,1.079,0c.46.048.618-.087.605-.578-.034-1.3-.064-2.615.02-3.915.043-.657-.176-.716-.724-.714-5,.018-9.994.01-14.991.012C829.614,448.094,829.345,448.119,829.077,448.133Zm8.669-2.073c2.7,0,5.4-.007,8.1.007a.836.836,0,0,0,.819-.429,5.673,5.673,0,0,1,2.408-2.1.612.612,0,0,0,.416-.656c-.021-1.463-.007-2.926-.012-4.389,0-.151.008-.4-.069-.436a7.645,7.645,0,0,0-1.423-.6c-.362-.1-.5.322-.708.53a11.243,11.243,0,0,1-15.8.155,1.351,1.351,0,0,0-1.876-.34.8.8,0,0,0-.541.838c.026,2.228.031,4.457,0,6.685-.008.568.1.761.72.751C832.434,446.037,835.09,446.06,837.745,446.06Zm-10.7-3.557c0-.54.011-1.081,0-1.621-.017-.626.263-1.576-.1-1.8-.464-.284-1.151.388-1.77.564-.339.1-.433.3-.429.643.019,1.351.008,2.7.008,4.053,0,1.775,0,1.764,1.8,1.7.376-.013.513-.116.5-.5C827.031,444.53,827.046,443.517,827.046,442.5Zm2.3-21.722H829.3c0-.809-.01-1.619.005-2.428.006-.33-.105-.422-.436-.4-1.3.092-2.1,1.175-2.094,2.876,0,1.567.846,2.638,2.114,2.728.406.029.481-.108.464-.486C829.32,422.311,829.344,421.545,829.344,420.781Zm19.9-.038h-.027c0,.786.032,1.575-.013,2.359-.024.428.132.483.493.451,1.265-.113,2.082-1.184,2.083-2.761,0-1.648-.789-2.711-2.073-2.834-.36-.034-.48.06-.47.425C849.256,419.17,849.241,419.957,849.241,420.744Zm-1.647,29.95c0,.768.033,1.4-.01,2.026-.036.522.215.6.641.567.373-.026.758.093.733-.544-.047-1.19-.015-2.383-.012-3.574a2.524,2.524,0,0,1,.959-2.135,1.444,1.444,0,0,0,.561-1.385c0-.447-.141-.5-.507-.307a4.271,4.271,0,0,0-2.224,2.741A11.951,11.951,0,0,0,847.594,450.694Zm18.377.126c0-.607.03-1.216-.006-1.82a4.169,4.169,0,0,0-2.373-3.655c-.128-.067-.3-.263-.456-.018a1.85,1.85,0,0,0,.291,1.48,2.953,2.953,0,0,1,1.2,2.511c-.013,1.169.018,2.338-.011,3.506-.015.573.357.462.673.453s.713.151.69-.434C865.952,452.17,865.972,451.495,865.971,450.82Zm-8.423,2.462c.6,0,1.093-.012,1.587,0,.276.009.406-.054.4-.367-.021-.673-.017-1.347,0-2.021.007-.29-.091-.389-.385-.385-.988.015-1.975.012-2.963,0-.253,0-.378.067-.355.34.017.2,0,.4,0,.606.01.58-.2,1.354.091,1.691C856.262,453.551,857.057,453.219,857.548,453.283Zm-6.574-4.532c0,1.538,0,2.86,0,4.183,0,.256.076.358.343.353.7-.013,1.393-.02,2.089,0,.343.011.412-.132.4-.437-.018-.651,0-1.3-.007-1.955,0-.2.041-.4-.263-.45A3.934,3.934,0,0,1,850.973,448.75Zm.536-6.645a2.861,2.861,0,0,1,1.9-.31c.235.039.353.007.394-.279.2-1.4.07-1.653-1.223-2.182-.228-.093-.46-.176-.68-.283-.278-.135-.4-.09-.4.248C851.516,440.193,851.509,441.086,851.509,442.106Zm11.085,6.871c-.356.4-1.021.537-1.036,1.155-.022.919.016,1.84-.014,2.759-.017.5.31.373.577.391.291.02.5.018.485-.4C862.574,451.579,862.594,450.278,862.594,448.977Zm-6.8-8.31c.105.446-.15.85.184,1.1.509.388,1,.325,1.784-.145A7.583,7.583,0,0,0,855.8,440.667Z" fill="#030302"/>
    <path id="Trazado_122020" data-name="Trazado 122020" d="M955.771,618.064a1.276,1.276,0,0,0-1.6-.158,6.045,6.045,0,0,1-2.862.655l-6.948-.027c-.066-.3-.352-.4-.55-.557a7.325,7.325,0,0,1-2.824-5.694c-.047-1.368-.006-2.738,0-4.107a1.721,1.721,0,0,1,1.712.623c1.578,1.694,3.224,3.324,4.842,4.98,1.214,1.243,2.015,1.24,3.243-.015,1.714-1.751,3.447-3.484,5.137-5.259.523-.549,1.122-.291,1.7-.327.168-.011.175.177.172.31a37.673,37.673,0,0,1-.126,4.914,4.616,4.616,0,0,1-.348,1.157,1.229,1.229,0,0,0,.3,1.577A5.325,5.325,0,0,1,955.771,618.064Z" transform="translate(-90.406 -152.842)" fill="#c76d52"/>
    <path id="Trazado_122021" data-name="Trazado 122021" d="M820.748,569.655c.837-.234,1.011-.449,1.013-1.337.006-3.084,0-6.168,0-9.253a4.511,4.511,0,0,1,3.713-4.68v.666q0,11.819.014,23.638c0,.563-.13.733-.694.692a15.947,15.947,0,0,0-2.227,0c-.621.042-.834-.165-.821-.8.035-1.665,0-3.332.015-5a1.106,1.106,0,0,0-1.018-1.268Z" transform="translate(-2.755 -113.648)" fill="#dedede"/>
    <path id="Trazado_122022" data-name="Trazado 122022" d="M861.668,581.553c.269-.014.538-.039.806-.039,5,0,9.994.006,14.991-.012.548,0,.767.057.724.715-.085,1.3-.055,2.61-.02,3.915.013.491-.145.626-.605.578a5.783,5.783,0,0,0-1.079,0,.941.941,0,0,0-.939.891.882.882,0,0,0,.717,1.064c.492.081.472.337.473.691,0,1.35-.019,2.7.054,4.05a8,8,0,0,0,2.332,5.176c.14.147.284.289.424.435.008.008-.006.038-.023.119H862.008c-.112,0-.224-.015-.336-.023Z" transform="translate(-32.591 -133.42)" fill="#e0b670"/>
    <path id="Trazado_122023" data-name="Trazado 122023" d="M882.9,458.282c1.191-.015,2.382-.039,3.573-.043,1.913-.007,3.826-.013,5.739,0a2.306,2.306,0,0,1,2.463,2.443c.011,1.913.041,3.828-.028,5.74a7.832,7.832,0,0,1-7.962,7.293c-.077-.216-.289-.268-.456-.376a8.917,8.917,0,0,1-2.295-2.151,9.93,9.93,0,0,1-1.836-6.863c.921-.151,1.156-.426,1.165-1.376q.006-.668,0-1.337c-.009-.948-.241-1.221-1.166-1.377A5.183,5.183,0,0,1,882.9,458.282Zm3.793,12.6a6.107,6.107,0,0,0,2.5-.46,1,1,0,0,0,.668-1.288.994.994,0,0,0-1.364-.6,4.993,4.993,0,0,1-3.491.008,1.007,1.007,0,0,0-1.382.567,1.023,1.023,0,0,0,.7,1.329A6.082,6.082,0,0,0,886.691,470.877Zm-.216-8.851a.951.951,0,0,0-.818.393c-.514.708-1.031,1.414-1.52,2.14a.887.887,0,0,0,.122,1.227,14.56,14.56,0,0,0,1.69,1.328.915.915,0,0,0,1.313-.25.953.953,0,0,0-.069-1.291c-.228-.281-.777-.378-.7-.781.061-.339.413-.625.629-.939a2.545,2.545,0,0,0,.272-.462A.987.987,0,0,0,886.476,462.027Zm5.76.268h0c0-.359.019-.72,0-1.078a.918.918,0,0,0-.947-.939.9.9,0,0,0-1.032.847,14.355,14.355,0,0,0-.009,2.287.947.947,0,0,0,1.081.874.937.937,0,0,0,.91-.98C892.247,462.969,892.235,462.632,892.235,462.295Z" transform="translate(-47.465 -43.538)" fill="#f4cdbf"/>
    <path id="Trazado_122024" data-name="Trazado 122024" d="M870.289,550.846c-2.655,0-5.311-.024-7.966.017-.624.01-.729-.184-.72-.751.033-2.228.028-4.457,0-6.685a.8.8,0,0,1,.541-.838,1.351,1.351,0,0,1,1.876.34,11.243,11.243,0,0,0,15.8-.155c.208-.207.346-.627.708-.53a7.646,7.646,0,0,1,1.423.6c.077.039.069.285.069.436,0,1.463-.009,2.926.012,4.389a.612.612,0,0,1-.416.656,5.672,5.672,0,0,0-2.408,2.1.836.836,0,0,1-.819.429C875.69,550.84,872.989,550.846,870.289,550.846Z" transform="translate(-32.544 -104.786)" fill="#dedede"/>
    <path id="Trazado_122025" data-name="Trazado 122025" d="M850,581.559l0,17.562c-1.281.008-2.562-.006-3.842.035-.464.015-.493-.187-.492-.555.01-3.417.006-6.835.006-10.252,0-2.091.012-4.182-.01-6.273,0-.438.115-.579.562-.565C847.487,581.55,848.745,581.546,850,581.559Z" transform="translate(-20.925 -133.426)" fill="#d0aa69"/>
    <path id="Trazado_122026" data-name="Trazado 122026" d="M888.276,435.126c4.766-.362,9.742,3.055,10.876,7.466-1.141.125-1.232.057-1.745-.875a4.246,4.246,0,0,0-3.945-2.365q-4.484,0-8.968,0c-.268,0-.535-.032-.8-.048a10.65,10.65,0,0,1,3.444-3.4C887.513,435.639,888.016,435.559,888.276,435.126Z" transform="translate(-48.649 -26.672)" fill="#c76d52"/>
    <path id="Trazado_122027" data-name="Trazado 122027" d="M873.279,464.35a9.93,9.93,0,0,0,1.836,6.863,8.915,8.915,0,0,0,2.295,2.151c.167.108.378.159.456.376a7.847,7.847,0,0,1-7.313-5.022,8.175,8.175,0,0,1-.575-3.03c0-1.621-.009-3.243,0-4.864a2.336,2.336,0,0,1,2.554-2.56c.516,0,1.032.027,1.548.042a5.182,5.182,0,0,0-.8,1.953,1.147,1.147,0,0,0-.867,1.313,15.037,15.037,0,0,1,0,1.534A1.117,1.117,0,0,0,873.279,464.35Z" transform="translate(-38.648 -43.562)" fill="#f1b1a0"/>
    <path id="Trazado_122028" data-name="Trazado 122028" d="M929.225,608.194c0,1.369-.042,2.74,0,4.107A7.325,7.325,0,0,0,932.054,618c.2.16.484.258.55.557a6.92,6.92,0,0,1-5.935-1.917,6.021,6.021,0,0,1-1.8-4.165c-.024-1.258,0-2.518-.026-3.776-.009-.418.134-.539.541-.53C926.663,608.193,927.944,608.187,929.225,608.194Z" transform="translate(-78.654 -152.861)" fill="#b45c41"/>
    <path id="Trazado_122029" data-name="Trazado 122029" d="M886.472,522.5a17.172,17.172,0,0,0,2.346-.235c.276-.068.358.042.343.307-.108,1.9.91,2.957,2.607,3.531.526.178,1.027.43,1.553.653a9.174,9.174,0,0,1-11.183,1.46c.984-.469,1.961-.952,2.954-1.4a2.145,2.145,0,0,0,1.371-2.165C886.451,523.936,886.468,523.22,886.472,522.5Z" transform="translate(-47.518 -90.216)" fill="#f1b1a0"/>
    <path id="Trazado_122030" data-name="Trazado 122030" d="M888.966,406.031a11.327,11.327,0,0,1,9.556,3.39,9.685,9.685,0,0,1,2,3.009l-.1.089a13.947,13.947,0,0,0-4.837-3.466c-.9-.364-1.136-.32-1.754.39a11.244,11.244,0,0,0-2.666-.343c-.171-.81-.453-1.028-1.289-1.052a20.808,20.808,0,0,0-3.752.251,5.827,5.827,0,0,1,2.18-1.765C888.538,406.387,888.885,406.381,888.966,406.031Z" transform="translate(-50.424 -5.443)" fill="#eeb051"/>
    <path id="Trazado_122031" data-name="Trazado 122031" d="M869.5,435.091c-.26.432-.763.513-1.141.774a10.651,10.651,0,0,0-3.444,3.4,8.307,8.307,0,0,1-1.544.058,3.968,3.968,0,0,0-3.659,2.347,1.439,1.439,0,0,1-1.771.909C858.648,438.231,864.2,434.632,869.5,435.091Z" transform="translate(-29.876 -26.636)" fill="#b45c41"/>
    <path id="Trazado_122032" data-name="Trazado 122032" d="M864.146,502.921a10.313,10.313,0,0,0,4.139,4.234.528.528,0,0,1,.344.582.888.888,0,0,0,0,.135c.025,1.693.026,1.7-1.518,2.329-.6.247-1.211.474-1.818.711a2.973,2.973,0,0,1-.5-.436,6.89,6.89,0,0,1-1.139-6.632C863.759,503.519,863.794,503.126,864.146,502.921Z" transform="translate(-33.744 -76.123)" fill="#c76d52"/>
    <path id="Trazado_122033" data-name="Trazado 122033" d="M888.252,417.463a11.245,11.245,0,0,1,2.666.343,1.251,1.251,0,0,0,.947,1.475,10.578,10.578,0,0,1,5.02,4.222c.129.2.323.388.225.684-.2,0-.267-.2-.379-.3a12.846,12.846,0,0,0-8.79-3.68,19.348,19.348,0,0,0-5.812.514c.005-.2.147-.292.284-.415.776-.7,1.713-1.159,2.546-1.77a8.564,8.564,0,0,1,2.076-.084A1.075,1.075,0,0,0,888.252,417.463Z" transform="translate(-47.51 -13.806)" fill="#f8eedb"/>
    <path id="Trazado_122034" data-name="Trazado 122034" d="M948.248,568.173c-.015-.716-.036-1.432-.04-2.148,0-.2.052-.413.315-.445.224-.028.292.143.388.3.563.926,1.339.928,1.9-.006.264-.438.46-.414.713,0,.568.933,1.33.934,1.9,0,.253-.416.449-.441.713,0,.564.936,1.337.934,1.9.008.1-.157.165-.328.389-.3.263.031.316.24.315.444,0,.716-.025,1.432-.039,2.148a4.415,4.415,0,0,1-2.381.558c-1.367-.034-2.737-.012-4.1-.008A3.575,3.575,0,0,1,948.248,568.173Z" transform="translate(-95.693 -121.793)" fill="#f4cdbf"/>
    <path id="Trazado_122035" data-name="Trazado 122035" d="M857.745,499.582c-.353.205-.387.6-.5.923a6.89,6.89,0,0,0,1.139,6.632,2.975,2.975,0,0,0,.5.436c-1.257.644-1.382.628-2.4-.3a6.081,6.081,0,0,1-.672-8.349,2.671,2.671,0,0,1,.365-.4.766.766,0,0,1,1.2.252C857.511,499.048,857.626,499.316,857.745,499.582Z" transform="translate(-27.343 -72.784)" fill="#b45c41"/>
    <path id="Trazado_122036" data-name="Trazado 122036" d="M881.32,522.513c0,.716-.021,1.433-.008,2.148a2.145,2.145,0,0,1-1.371,2.165c-.992.451-1.97.934-2.954,1.4a7.145,7.145,0,0,1-1.914-1.445c.709-.3,1.358-.587,2.02-.845a3.1,3.1,0,0,0,2.174-3.2c-.011-.437.11-.538.527-.448C880.3,522.4,880.811,522.442,881.32,522.513Z" transform="translate(-42.366 -90.226)" fill="#e79783"/>
    <path id="Trazado_122037" data-name="Trazado 122037" d="M847.976,551.52c0,1.014-.015,2.027.007,3.04.008.387-.129.49-.5.5-1.8.062-1.8.073-1.8-1.7,0-1.351.011-2.7-.008-4.053,0-.344.09-.547.429-.643.62-.176,1.306-.848,1.77-.564.361.221.082,1.171.1,1.8C847.988,550.438,847.977,550.979,847.976,551.52Z" transform="translate(-20.93 -109.016)" fill="gray"/>
    <path id="Trazado_122038" data-name="Trazado 122038" d="M869.59,406.077c-.081.349-.428.355-.661.5a5.827,5.827,0,0,0-2.18,1.765,13.587,13.587,0,0,0-7.078,4.149l-.12-.12a10.623,10.623,0,0,1,8.233-6.192A6.2,6.2,0,0,1,869.59,406.077Z" transform="translate(-31.048 -5.488)" fill="#db9e42"/>
    <path id="Trazado_122039" data-name="Trazado 122039" d="M948.3,575.218a3.575,3.575,0,0,0,1.969.549c1.368,0,2.737-.026,4.1.008a4.415,4.415,0,0,0,2.381-.558c.137,1.336-.479,2.085-1.8,2.107q-2.429.041-4.859,0C948.777,577.3,948.167,576.559,948.3,575.218Z" transform="translate(-95.748 -128.838)" fill="#f1b1a0"/>
    <path id="Trazado_122040" data-name="Trazado 122040" d="M855.741,473.089c0,.764-.024,1.53.01,2.292.017.378-.058.515-.464.486-1.268-.09-2.112-1.161-2.114-2.728,0-1.7.8-2.785,2.094-2.876.331-.024.443.069.436.4-.016.809-.005,1.619-.005,2.428Z" transform="translate(-26.397 -52.308)" fill="#e79783"/>
    <path id="Trazado_122041" data-name="Trazado 122041" d="M936,473.053c0-.787.015-1.574-.006-2.36-.01-.365.11-.46.47-.426,1.284.122,2.074,1.186,2.073,2.834,0,1.576-.818,2.648-2.083,2.761-.361.032-.517-.023-.493-.451.044-.784.012-1.572.012-2.359Z" transform="translate(-86.761 -52.31)" fill="#f1b1a0"/>
    <path id="Trazado_122042" data-name="Trazado 122042" d="M930,576.452a11.948,11.948,0,0,1,.139-2.612,4.27,4.27,0,0,1,2.224-2.741c.366-.193.505-.14.507.307a1.444,1.444,0,0,1-.561,1.385,2.524,2.524,0,0,0-.959,2.135c0,1.191-.034,2.384.012,3.574.025.638-.36.518-.733.544-.426.03-.676-.045-.641-.567C930.033,577.852,930,577.22,930,576.452Z" transform="translate(-82.406 -125.758)" fill="#80402c"/>
    <path id="Trazado_122043" data-name="Trazado 122043" d="M990.09,576.5c0,.674-.02,1.35.006,2.023.023.585-.388.426-.69.434s-.688.119-.673-.453c.03-1.168,0-2.338.011-3.506a2.953,2.953,0,0,0-1.2-2.511,1.849,1.849,0,0,1-.291-1.48c.154-.245.328-.049.456.018a4.169,4.169,0,0,1,2.373,3.655C990.12,575.287,990.09,575.9,990.09,576.5Z" transform="translate(-124.119 -125.682)" fill="#80402c"/>
    <path id="Trazado_122044" data-name="Trazado 122044" d="M960.987,611.1c-.4.423-.807.839-1.2,1.27-.166.183-.264.22-.47.022-1.356-1.3-2.729-2.586-4.1-3.876l.188-.242h2.859C959.2,609.189,960,610.233,960.987,611.1Z" transform="translate(-100.808 -152.939)" fill="#f8e2c4"/>
    <path id="Trazado_122045" data-name="Trazado 122045" d="M961.984,593.256c-.49-.063-1.286.268-1.628-.128-.292-.338-.081-1.111-.091-1.691,0-.2.014-.405,0-.606-.023-.273.1-.342.355-.34.988.01,1.976.013,2.963,0,.294,0,.392.095.385.385-.015.673-.019,1.348,0,2.021.01.313-.12.376-.4.367C963.078,593.244,962.583,593.256,961.984,593.256Z" transform="translate(-104.437 -139.973)" fill="#dedede"/>
    <path id="Trazado_122046" data-name="Trazado 122046" d="M942.5,583.972a3.935,3.935,0,0,0,2.563,1.7c.3.046.262.254.263.45,0,.652-.011,1.3.006,1.955.008.3-.061.448-.4.437-.7-.023-1.393-.016-2.089,0-.267.005-.345-.1-.343-.353C942.506,586.832,942.5,585.51,942.5,583.972Z" transform="translate(-91.528 -135.222)" fill="#e0b670"/>
    <path id="Trazado_122047" data-name="Trazado 122047" d="M869.673,421.428c-.833.611-1.77,1.074-2.546,1.77-.137.123-.279.214-.284.415a14.422,14.422,0,0,0-5.678,3.461C862.478,423.88,866.5,421.475,869.673,421.428Z" transform="translate(-32.225 -16.703)" fill="#f8e2c4"/>
    <path id="Trazado_122048" data-name="Trazado 122048" d="M969.188,611.1c-.987-.862-1.786-1.907-2.716-2.825h5.554Z" transform="translate(-109.009 -152.939)" fill="#f8eedb"/>
    <path id="Trazado_122049" data-name="Trazado 122049" d="M944.48,551.027c0-1.019.007-1.913,0-2.807,0-.338.121-.383.4-.248.221.107.453.19.68.283,1.292.528,1.423.778,1.223,2.182-.041.285-.16.318-.394.279A2.86,2.86,0,0,0,944.48,551.027Z" transform="translate(-92.97 -108.921)" fill="gray"/>
    <path id="Trazado_122050" data-name="Trazado 122050" d="M960.32,554.128a7.583,7.583,0,0,1,1.967.959c-.787.47-1.274.533-1.784.145C960.17,554.978,960.425,554.574,960.32,554.128Z" transform="translate(-104.523 -113.461)" fill="#dedede"/>
    <path id="Trazado_122051" data-name="Trazado 122051" d="M939.016,429.78c.06.1.107.2.008.3l-.113-.212Z" transform="translate(-88.913 -22.793)" fill="#eeb051"/>
    <path id="Trazado_122052" data-name="Trazado 122052" d="M859.4,429.523l-.181.156c-.079-.114-.024-.2.061-.276Z" transform="translate(-30.78 -22.518)" fill="#db9e42"/>
    <path id="Trazado_122053" data-name="Trazado 122053" d="M890.7,498.385a6.072,6.072,0,0,1-2.368-.443,1.023,1.023,0,0,1-.7-1.329,1.007,1.007,0,0,1,1.382-.567,4.993,4.993,0,0,0,3.491-.008.994.994,0,0,1,1.364.6,1,1,0,0,1-.668,1.288A6.1,6.1,0,0,1,890.7,498.385Z" transform="translate(-51.475 -71.045)" fill="#030302"/>
    <path id="Trazado_122054" data-name="Trazado 122054" d="M891.541,472.245a.987.987,0,0,1,.914,1.366,2.548,2.548,0,0,1-.272.462c-.216.314-.568.6-.629.939-.072.4.477.5.7.781a.953.953,0,0,1,.069,1.291.915.915,0,0,1-1.313.25,14.576,14.576,0,0,1-1.69-1.328.887.887,0,0,1-.122-1.227c.489-.725,1.006-1.432,1.52-2.14A.951.951,0,0,1,891.541,472.245Z" transform="translate(-52.53 -53.756)" fill="#030302"/>
    <path id="Trazado_122055" data-name="Trazado 122055" d="M879.83,469.721a1.118,1.118,0,0,1-.867-1.244,15,15,0,0,0,0-1.534,1.147,1.147,0,0,1,.867-1.313c.924.156,1.157.429,1.166,1.377q.007.668,0,1.337C880.986,469.3,880.751,469.57,879.83,469.721Z" transform="translate(-45.199 -48.933)" fill="#030302"/>
    <path id="Trazado_122056" data-name="Trazado 122056" d="M914.13,467.8c0,.337.012.674,0,1.011a.937.937,0,0,1-.91.98.947.947,0,0,1-1.081-.874,14.355,14.355,0,0,1,.009-2.287.9.9,0,0,1,1.032-.847.918.918,0,0,1,.947.939c.024.358,0,.719,0,1.078Z" transform="translate(-69.36 -49.043)" fill="#030302"/>
  </g>
</svg>
