<svg xmlns="http://www.w3.org/2000/svg" width="227" height="227" viewBox="0 0 227 227"><g transform="translate(-1159 -3487)"><g transform="translate(961 -50)"><rect width="227" height="227" transform="translate(198 3537)" fill="none"/><g transform="translate(149.187 3540.067)"><g transform="translate(51.992 126.596)"><g transform="translate(0 0)"><path d="M50.1,207.507s3.609-12.215,14.434-12.94,15.722,4.07,27.264,2.279c13.059-2.027,15.273-14.366,36.2-15.867s15.215,8.942,45.441,11.238c19.249,1.462,26.446-6.03,42.652-7.065,28.224-1.8,28.869,22.356,28.869,22.356Z" transform="translate(-32.622 -146.007)" fill="#d2b8aa"/><g transform="translate(0)"><circle cx="21.242" cy="21.242" r="21.242" transform="translate(0 41.935) rotate(-80.783)" fill="#4fbc8e"/><g transform="translate(15.166 11.482)"><line y2="49.88" transform="translate(9.204)" fill="none" stroke="#501919" stroke-miterlimit="10" stroke-width="0.808"/><line x2="9.204" y2="8.338" transform="translate(0 16.602)" fill="none" stroke="#501919" stroke-miterlimit="10" stroke-width="0.808"/><line x1="10.41" y2="14.385" transform="translate(9.204 2.764)" fill="none" stroke="#501919" stroke-miterlimit="10" stroke-width="0.808"/></g></g></g><line x2="218.103" transform="translate(2.537 61.153)" fill="none" stroke="#b6958e" stroke-miterlimit="10" stroke-width="1.015"/></g><g transform="translate(84.846 32.768)"><g transform="translate(72.575 0)"><g transform="translate(0 64.455)"><path d="M198.2,127.531a1.1,1.1,0,0,1-.788-.334l-8.337-8.627a1.1,1.1,0,0,1,1.578-1.526l8.337,8.627a1.1,1.1,0,0,1-.789,1.861Z" transform="translate(-182.064 -110.005)" fill="#501919"/><path d="M181.958,123.508a1.1,1.1,0,0,1-.776-1.873l12.485-12.514a1.1,1.1,0,1,1,1.552,1.552l-12.485,12.513A1.093,1.093,0,0,1,181.958,123.508Z" transform="translate(-180.86 -108.8)" fill="#501919"/></g><g transform="translate(7.505 31.587)"><path d="M201.14,117.475h36.313v7.354l-33.513,1.7Z" transform="translate(-191.454 -77.253)" fill="#cd513c"/><g transform="translate(40.999)"><path d="M3.237,0H6.2A3.237,3.237,0,0,1,9.432,3.237V20.207a0,0,0,0,1,0,0H0a0,0,0,0,1,0,0V3.237A3.237,3.237,0,0,1,3.237,0Z" transform="translate(0 23.781)" fill="#501919"/><path d="M244.99,98.333H241.7V79.326c-.112-7.2,4.78-9.234,7.382-9.3l.1,3.291c-.714.033-4.272.475-4.187,5.98Z" transform="translate(-238.629 -70.029)" fill="#501919"/></g><path d="M258.31,166.013H191.2V130.89A11.079,11.079,0,0,1,202.459,120h56.773a8.025,8.025,0,0,1,8.155,7.887Z" transform="translate(-189.94 -77.638)" fill="#e1725c"/><path d="M204.781,122.679c-.359.058-5.381-5.2-5.381-5.2l-9.686,8.969v8.009a5.264,5.264,0,0,0,5.264,5.264h6.695Z" transform="translate(-189.714 -77.253)" fill="#e1725c"/><g transform="translate(50.331 51.58)"><line x1="2.276" y2="7.155" transform="translate(11.606)" fill="none" stroke="#501919" stroke-linecap="round" stroke-linejoin="round" stroke-width="1.294"/><line x1="2.276" y2="7.155" transform="translate(8.704)" fill="none" stroke="#501919" stroke-linecap="round" stroke-linejoin="round" stroke-width="1.294"/><line x1="2.276" y2="7.155" transform="translate(5.803)" fill="none" stroke="#501919" stroke-linecap="round" stroke-linejoin="round" stroke-width="1.294"/><line x1="2.276" y2="7.155" transform="translate(2.901)" fill="none" stroke="#501919" stroke-linecap="round" stroke-linejoin="round" stroke-width="1.294"/><line x1="2.276" y2="7.155" fill="none" stroke="#501919" stroke-linecap="round" stroke-linejoin="round" stroke-width="1.294"/></g></g><path d="M258.757,70.223a1.81,1.81,0,1,1-1.809-1.809A1.809,1.809,0,0,1,258.757,70.223Z" transform="translate(-192.17 -38.196)" fill="#adce32"/><circle cx="3.267" cy="3.267" r="3.267" transform="translate(70.498 22.631)" fill="#adce32"/><circle cx="6.602" cy="6.602" r="6.602" transform="translate(69.452 12.853) rotate(-76.762)" fill="#adce32"/></g><g transform="translate(45.647 26.116)"><g transform="translate(0 36.701)"><path d="M149.1,109.021" transform="translate(-149.096 -107.196)" fill="none" stroke="#f5f3ef" stroke-linecap="round" stroke-miterlimit="10" stroke-width="2.589"/><path d="M154.377,132.21h-5V109.367a2.5,2.5,0,0,1,2.5-2.5h0a2.5,2.5,0,0,1,2.5,2.5Z" transform="translate(-149.139 -106.868)"/><path d="M178.005,138.785h0a2.5,2.5,0,0,1-2.5,2.5H155.163a2.5,2.5,0,0,1-2.5-2.5h0a2.5,2.5,0,0,1,2.5-2.5h20.343A2.5,2.5,0,0,1,178.005,138.785Z" transform="translate(-149.639 -111.347)"/></g><g transform="translate(5.573)"><g transform="translate(0.509 17.824)"><path d="M169.233,84.6a13.724,13.724,0,0,0-8.255,6.537c-2.746,5.235-4.707,26.778-4.707,26.778a26.723,26.723,0,0,0,17.615-.65s3.143-23.463-.518-28.357Z" transform="translate(-156.271 -84.601)" fill="#ffc05e"/><g transform="translate(6.161 4.525)"><g transform="translate(5.01 12.37)"><path d="M192.654,105.829l-7.258,2.958,1.591,3.245,6.314-1.786a4.42,4.42,0,0,0,.54.8,27.947,27.947,0,0,0-.07-4.732Z" transform="translate(-171.877 -104.728)" fill="#ffbe9e"/><path d="M171.184,108.673c-1.509.352-1.747,2.687-1.735,4.237.016,2.133,2.427,4.188,4.5,3.689l15.731-4.371-2.686-7.24Z" transform="translate(-169.449 -104.6)" fill="#ffc05e"/><g transform="translate(19.412)"><path d="M194.614,111.073a3.363,3.363,0,1,1,4.276-2.081A3.363,3.363,0,0,1,194.614,111.073Z" transform="translate(-192.348 -104.53)" fill="#ffbe9e"/></g></g><path d="M172.928,93.833l3.592,16.507c.314,1.742-1.361,3.367-3.054,3.888h0a3.5,3.5,0,0,1-4.2-1.857,78.61,78.61,0,0,1-5.629-16.753,4.717,4.717,0,0,1,2.831-5.32h0A4.729,4.729,0,0,1,172.928,93.833Z" transform="translate(-163.538 -89.938)" fill="#ffc05e"/><path d="M174.144,91.866l2.761,13.151.851.293" transform="translate(-165.153 -90.232)" fill="none" stroke="#ffac33" stroke-miterlimit="10" stroke-width="0.761"/><path d="M164.644,100.494a95.423,95.423,0,0,0,4.742,13.5,3.323,3.323,0,0,0,3.817,1.842l2.464-.6" transform="translate(-163.706 -91.546)" fill="none" stroke="#ffac33" stroke-miterlimit="10" stroke-width="0.761"/></g></g><g transform="translate(12.105)"><path d="M174.569,64.867a14.94,14.94,0,0,1,12.066,0,1.367,1.367,0,0,1,.5,2.18l-2.719,2.882Z" transform="translate(-170.653 -63.575)" fill="#501919"/><path d="M179.478,81.779l-3.315,6.646-4.89-4.54,3.68-8.341Z" transform="translate(-170.151 -65.398)" fill="#ffbe9e"/><path d="M178.5,86.27c-2.444-2.132-1.276-5.5-1.276-5.5l2.8,2.544Z" transform="translate(-171.014 -66.194)" fill="#ffa684"/><path d="M182.768,66.626s3.133.773,3,4.78c0,0-.13,2.9-.35,7.077a3.458,3.458,0,0,1-4.364,3.2,10.683,10.683,0,0,1-3.6-2.592L175.4,77.662c-3.916-5.125.6-12.493,6.909-11.143Q182.536,66.567,182.768,66.626Z" transform="translate(-170.557 -63.999)" fill="#ffbe9e"/><path d="M187.048,77.177l1.341,1.485a.322.322,0,0,1-.231.538l-1.453.042Z" transform="translate(-172.501 -65.646)" fill="#ffbe9e"/><path d="M177.384,73.151s-.267-7.211,7.334-5.093a9.506,9.506,0,0,0-10.852-3.075,6.584,6.584,0,0,0-3.752,3.95c-.671,2.647.8,4.823,2.854,9.222a3.823,3.823,0,0,0,3.655-2.84C176.842,74.656,177.384,73.151,177.384,73.151Z" transform="translate(-169.949 -63.692)" fill="#501919"/><path d="M176.223,69.826l1.886,3.6,2.943-2.352s-1.651-2.929.092-3.7-2.811-1.25-2.811-1.25l-3.617.7Z" transform="translate(-170.675 -63.962)" fill="#501919"/><g transform="translate(3.849 7.981)"><path d="M174.516,74.782a2.127,2.127,0,1,0,2.436-1.766A2.127,2.127,0,0,0,174.516,74.782Z" transform="translate(-174.489 -72.989)" fill="#ffbe9e"/><path d="M177.75,76.03h-.012a.163.163,0,0,1-.135-.186,1.416,1.416,0,0,0-.238-1.01,1.057,1.057,0,0,0-.853-.318.169.169,0,0,1-.162-.161.162.162,0,0,1,.161-.163,1.369,1.369,0,0,1,1.1.432,1.725,1.725,0,0,1,.312,1.271A.161.161,0,0,1,177.75,76.03Z" transform="translate(-174.772 -73.172)"/></g><path d="M185.972,78.425c-7.736-.153-5.6-6.487-5.6-6.487l-.841.474-.28.748c.037.253-.576-.489-.55-.256l.2,1.018.5,2.706c.21,1.5-2.124,2.8-2.124,2.8l.126.612a4.368,4.368,0,0,0,4.488,3.478h0A4.369,4.369,0,0,0,186.042,79Z" transform="translate(-171.064 -64.849)" fill="#501919"/><g transform="translate(12.69 8.377)"><path d="M186.018,73.464s1.068-.09,1.112.392c0,0,.021.326-.912.385s-1.182-.019-1.289-.326S185.514,73.464,186.018,73.464Z" transform="translate(-184.919 -73.457)"/><path d="M185.8,76.521a.449.449,0,1,0,.553-.33A.457.457,0,0,0,185.8,76.521Z" transform="translate(-185.051 -73.871)"/></g></g><g transform="translate(0 49.827)"><g transform="translate(21.836 30.166)"><path d="M181.429,157.936v7.593h16.51s1.184-5.5-7.175-5.5v-2.09Z" transform="translate(-181.429 -157.936)"/><g transform="translate(0 7.593)"><rect width="16.568" height="1.644"/></g></g><path d="M165.737,134.5h-2.931c-4.351,0-7.244-3.527-7.133-7.877a17.989,17.989,0,0,1,.637-4.275h23.641a8.165,8.165,0,0,1,7.124,12.152H165.737Z" transform="translate(-155.67 -122.352)" fill="#7292ff"/><g transform="translate(16.188)"><path d="M179.743,132.312v20.206h11.372V129.812a7.459,7.459,0,0,0-7.459-7.46h-8.889Z" transform="translate(-174.766 -122.352)" fill="#7292ff"/><rect width="12.92" height="4.57" transform="translate(4.12 26.421)" fill="#9cb8ff"/></g></g></g></g><g transform="translate(0 75.411)"><g transform="translate(63.131 39.935)"><rect width="72.774" height="10.172" fill="#cd513c"/><rect width="72.774" height="2.65" transform="translate(0 10.172)" fill="#e1725c"/></g><g transform="translate(129.012 30.962)"><path d="M296.041,186.779v-8.455a1.007,1.007,0,0,0-1.007-1.007h0a1,1,0,0,1-.966-.756A22.953,22.953,0,0,0,291.759,171a1,1,0,0,1,.149-1.218l.005,0a1.007,1.007,0,0,0,0-1.424l-5.979-5.979a1.008,1.008,0,0,0-1.425,0l0,0a1,1,0,0,1-1.218.149,22.947,22.947,0,0,0-5.559-2.308,1,1,0,0,1-.756-.967h0a1.007,1.007,0,0,0-1.007-1.007H267.51a1.007,1.007,0,0,0-1.007,1.007h0a1,1,0,0,1-.756.967,22.947,22.947,0,0,0-5.559,2.308,1,1,0,0,1-1.218-.149l0,0a1.008,1.008,0,0,0-1.425,0l-5.978,5.979a1.007,1.007,0,0,0,0,1.424l0,0a1,1,0,0,1,.149,1.218,22.982,22.982,0,0,0-2.306,5.558,1,1,0,0,1-.967.756h0a1.007,1.007,0,0,0-1.007,1.007v8.455a1.007,1.007,0,0,0,1.007,1.007h.005a1,1,0,0,1,.966.756,22.966,22.966,0,0,0,2.307,5.555,1,1,0,0,1-.149,1.218l-.007.008a1.007,1.007,0,0,0,0,1.424l5.978,5.979a1.008,1.008,0,0,0,1.425,0l.008-.008a1,1,0,0,1,1.218-.15,22.924,22.924,0,0,0,5.554,2.306,1,1,0,0,1,.756.966v.008a1.007,1.007,0,0,0,1.007,1.007h8.455a1.007,1.007,0,0,0,1.007-1.007v-.008a1,1,0,0,1,.756-.966,22.925,22.925,0,0,0,5.554-2.306,1,1,0,0,1,1.218.15l.008.008a1.008,1.008,0,0,0,1.425,0l5.979-5.979a1.007,1.007,0,0,0,0-1.424l-.008-.008a1,1,0,0,1-.149-1.218,22.933,22.933,0,0,0,2.307-5.555,1,1,0,0,1,.966-.756h.005A1.007,1.007,0,0,0,296.041,186.779Z" transform="translate(-247.434 -158.248)" fill="#501919"/><circle cx="13.471" cy="13.471" r="13.471" transform="translate(5.252 24.3) rotate(-45)" fill="#fffff1"/><circle cx="8.887" cy="8.887" r="8.887" transform="translate(15.417 15.413)" fill="#ffa695"/></g><g transform="translate(3.946)"><path d="M104.224,134.4l7.142,10.539,56.878,23.486,5.665-4.585s-.542-25.243-26.688-37.712C147.22,126.129,124.158,117.337,104.224,134.4Z" transform="translate(-100.563 -122.05)" fill="#cd513c"/><path d="M173.25,167.55a1.645,1.645,0,0,1-1.644-1.6c-.707-25.139-17.607-34.685-18.325-35.079-26.621-15.972-50.366,5.863-50.6,6.087a1.646,1.646,0,1,1-2.254-2.4c.256-.239,25.823-23.745,54.491-6.543.726.393,19.219,10.737,19.981,37.843a1.645,1.645,0,0,1-1.6,1.691Z" transform="translate(-99.905 -121.725)" fill="#e1725c"/></g><g transform="translate(0 8.8)"><path d="M166.02,173.646V161.335a1.466,1.466,0,0,0-1.467-1.467h0a1.461,1.461,0,0,1-1.407-1.1,33.407,33.407,0,0,0-3.359-8.092A1.461,1.461,0,0,1,160,148.9l.007-.007a1.465,1.465,0,0,0,0-2.074l-8.7-8.705a1.468,1.468,0,0,0-2.074,0l-.005.005a1.46,1.46,0,0,1-1.773.218,33.392,33.392,0,0,0-8.093-3.36,1.462,1.462,0,0,1-1.1-1.407h0a1.467,1.467,0,0,0-1.467-1.467H124.48a1.467,1.467,0,0,0-1.467,1.467h0a1.462,1.462,0,0,1-1.1,1.407,33.4,33.4,0,0,0-8.094,3.36,1.46,1.46,0,0,1-1.773-.218l-.005-.005a1.467,1.467,0,0,0-2.074,0l-8.705,8.705a1.467,1.467,0,0,0,0,2.074l.007.007a1.461,1.461,0,0,1,.218,1.773,33.44,33.44,0,0,0-3.358,8.092,1.462,1.462,0,0,1-1.407,1.1h0a1.467,1.467,0,0,0-1.467,1.467v12.311a1.467,1.467,0,0,0,1.467,1.467h.007a1.461,1.461,0,0,1,1.407,1.1,33.458,33.458,0,0,0,3.359,8.089,1.459,1.459,0,0,1-.218,1.773l-.01.01a1.467,1.467,0,0,0,0,2.074l8.705,8.705a1.465,1.465,0,0,0,2.074,0l.012-.012a1.46,1.46,0,0,1,1.773-.218,33.441,33.441,0,0,0,8.087,3.357,1.461,1.461,0,0,1,1.1,1.407v.01a1.466,1.466,0,0,0,1.467,1.467h12.31a1.467,1.467,0,0,0,1.467-1.467v-.01a1.461,1.461,0,0,1,1.1-1.407,33.449,33.449,0,0,0,8.087-3.357,1.46,1.46,0,0,1,1.773.218l.012.012a1.466,1.466,0,0,0,2.074,0l8.7-8.705a1.465,1.465,0,0,0,0-2.074l-.01-.01a1.46,1.46,0,0,1-.218-1.773,33.389,33.389,0,0,0,3.359-8.089,1.461,1.461,0,0,1,1.407-1.1h.007A1.467,1.467,0,0,0,166.02,173.646Z" transform="translate(-95.25 -132.105)" fill="#501919"/><circle cx="19.613" cy="19.613" r="19.613" transform="translate(12.864 51.572) rotate(-80.715)" fill="#fffff1"/><circle cx="12.939" cy="12.939" r="12.939" transform="translate(17.087 35.38) rotate(-45)" fill="#ffa695"/></g></g></g></g></g></g></svg>