<svg xmlns="http://www.w3.org/2000/svg" width="39.197" height="54.754" viewBox="0 0 39.197 54.754"><g transform="translate(-819.523 -729.488)"><path d="M823.576,761.163c-.647-.174-.811-.381-.819-1.047a7.2,7.2,0,0,1,.006-.908c.045-.394-.121-.473-.479-.456-.6.029-1.211.019-1.817,0-.653-.015-.939-.308-.94-.961q-.008-3.1,0-6.2a.81.81,0,0,1,.915-.924c.659-.009,1.319-.017,1.977,0,.281.009.363-.083.372-.353.094-2.748.648-5.441.985-8.16.176-1.413.121-2.846.337-4.259a25.314,25.314,0,0,1,2.346-7.663,1.2,1.2,0,0,1,1.211-.752q11.465.023,22.931,0a1.13,1.13,0,0,1,1.139.685,22,22,0,0,1,2.4,8.133c.285,3.3.711,6.579,1.155,9.858a32.1,32.1,0,0,1,.161,4.7c-.006.494-.317.724-.764.815-.652-.161-.855-.374-.83-1.029a48.6,48.6,0,0,0-.837-9.117c-.155-1.03-.17-1.028-1.219-.966-1.8-.006-3.6.009-5.4-.034-.5-.012-.57.154-.569.6q.022,8.366.01,16.732c0,.177.016.355.025.532a3.043,3.043,0,0,1-.028.317c-.1.545.121.677.655.661,1.4-.041,2.811-.015,4.216-.013.822,0,1.083.261,1.085,1.083,0,1.69.011,3.381-.008,5.071,0,.351.092.453.444.449,1.078-.013,1.615-.518,1.617-1.594q.006-4.751,0-9.5c0-.709.168-.919.835-1.083.661.205.791.359.758,1.134-.018.436.095.6.55.565.585-.04,1.175-.019,1.763-.007.664.013.943.282.946.951q.015,3.073,0,6.146c0,.7-.281.967-.973.975-.624.008-1.248.021-1.87-.006-.341-.015-.427.1-.413.426a4.557,4.557,0,0,1-.06,1.276,2.948,2.948,0,0,1-3.06,2.3c-.457,0-.549.123-.542.557.028,1.585.013,3.171.01,4.756,0,.795-.261,1.053-1.052,1.056-.623,0-1.249.032-1.87-.01-.463-.032-.562.139-.543.567.035.764.011,1.532.01,2.3,0,.929-.237,1.157-1.184,1.16-.321,0-.642.016-.961,0-.288-.018-.361.1-.357.372.013,1,.011,2,0,2.993-.005.663-.286.949-.939.95q-5.8.006-11.6,0c-.643,0-.937-.3-.943-.958-.009-1-.011-2,0-2.993,0-.268-.057-.382-.35-.365a11.558,11.558,0,0,1-1.282,0,.8.8,0,0,1-.845-.891c-.01-.873-.022-1.746.006-2.619.012-.382-.06-.534-.485-.508-.674.042-1.353.016-2.03.01s-.938-.272-.941-.94c-.008-1.639-.016-3.278.007-4.917.005-.393-.087-.509-.5-.51a2.982,2.982,0,0,1-3.2-3.2c0-.677,0-1.354,0-2.031s.173-.874.819-1.046a.871.871,0,0,1,.788,1.013c-.019.729-.017,1.458,0,2.187a1.305,1.305,0,0,0,1.148,1.42c.917.184.934.17.934-.732,0-1.585,0-3.169,0-4.754,0-.791.26-1.041,1.063-1.042,1.442,0,2.885-.022,4.326.012.459.011.544-.128.543-.56q-.023-8.68-.01-17.361c0-.939,0-.939-.976-.888-1.513-.006-3.027-.02-4.54-.013-.494,0-1.115-.206-1.442.092-.267.243-.19.863-.265,1.315,0,.018-.009.035-.012.052a52.013,52.013,0,0,0-.783,9.137c.055,2.332,0,4.666.016,7A.881.881,0,0,1,823.576,761.163Zm7.939,16.339c.092.286-.337.822.35.823,4.829.009,9.657,0,14.486.01.293,0,.418-.077.407-.39-.02-.552-.022-1.105,0-1.657.013-.318-.115-.414-.406-.379-.141.017-.283.017-.425.025-.195-.006-.39-.018-.585-.018q-6.161,0-12.322,0c-.492,0-1.156-.218-1.431.091C831.3,776.338,831.505,776.991,831.515,777.5Zm12.17,5.118c.467.114.616-.062.577-.538a11.164,11.164,0,0,1,0-1.639c.031-.464-.135-.613-.571-.487q-4.7-.013-9.391-.03c-.262,0-.333.1-.329.345.013.676.02,1.352,0,2.028-.01.306.124.342.379.341Q839.015,782.623,843.685,782.62Zm7.909-41.693c1.216.048,1.215.048,1.092-1.185-.005-.053,0-.107-.009-.16a23.607,23.607,0,0,0-1.9-7.671c-.377-.861-.388-.856-1.329-.782-.16-.009-.32-.025-.479-.025q-10.313,0-20.627,0c-.26,0-.509-.046-.661.288a24.385,24.385,0,0,0-2.192,9.18c-.012.274.063.379.35.375,1.033-.013,2.066-.01,3.1,0,.269,0,.335-.063.252-.339a4.15,4.15,0,0,1-.271-1.244c.014-1.87,0-3.741.007-5.611,0-.751.275-1.023,1.039-1.023q9.138,0,18.275,0c.806,0,1.086.285,1.088,1.1,0,1.568-.006,3.135,0,4.7a4.936,4.936,0,0,1-.265,1.994c-.141.336-.009.432.333.421C850.133,740.923,850.863,740.932,851.593,740.927Zm-2.242,33.365c.853.033.853.033.853-.827,0-3.293-.014-6.587.014-9.88,0-.536-.16-.705-.658-.621a1.976,1.976,0,0,1-.213.014c-3.323,0-6.647-.018-9.97,0-.6,0-1-.177-1.161-.773.227-.725.381-.84,1.139-.841,1.494,0,2.987-.009,4.481.007.312,0,.449-.05.42-.4a7.862,7.862,0,0,1,0-1.279c.032-.391-.077-.505-.487-.5-2.916.02-5.832.011-8.748.011-1.047,0-1.047,0-1.047,1.05,0,1.1,0,1.1,1.137,1.114.66.007.867.173,1.028.829a.908.908,0,0,1-1.031.782c-2.154-.014-4.308.006-6.462-.015-.443,0-.607.07-.6.571q.039,5.1,0,10.2c0,.465.107.594.585.592,6.16-.018,12.32-.011,18.479-.012C847.856,774.308,848.6,774.3,849.351,774.292Zm-15.378-24.956c0,2.565.01,5.131-.01,7.7,0,.428.086.574.546.57q4.6-.032,9.192,0c.455,0,.554-.134.553-.567q-.022-7.669,0-15.339c0-.329-.03-.55-.407-.656a.714.714,0,0,1-.456-.722,3.723,3.723,0,0,1,0-.694c.053-.414-.092-.537-.517-.533-2.316.021-4.632.01-6.947.01-1.066,0-1.074,0-1.083,1.075,0,.409-.091.791-.514.891-.374.088-.356.3-.356.573Q833.977,745.489,833.973,749.337Zm5.16-15c-2.706,0-5.411.01-8.117-.01-.407,0-.5.105-.5.5.026,1.388.016,2.777.005,4.165a3.285,3.285,0,0,0,.146.995c.3,1,.3.983,1.359.964.292-.005.365-.1.343-.363-.035-.443.078-.854.544-.983.307-.085.339-.234.318-.485-.013-.159,0-.32,0-.48,0-.905.234-1.141,1.132-1.142,2.973,0,5.946,0,8.918,0,1.33,0,1.815-.182,1.7,1.677-.015.25.052.357.319.425a.675.675,0,0,1,.536.762c-.064.516.156.649.618.587a4.636,4.636,0,0,1,.587,0c.126,0,.242,0,.28-.169a7.554,7.554,0,0,0,.4-1.7c-.011-1.406-.022-2.813.008-4.219.009-.434-.125-.528-.536-.525C844.509,734.345,841.821,734.336,839.133,734.336Zm16.326,27.185v1.226c0,1.237,0,1.226,1.252,1.2.323-.007.434-.1.429-.429-.016-1.066-.006-2.133-.006-3.2,0-1.286,0-1.276-1.282-1.227-.3.012-.405.106-.4.4C855.469,760.17,855.459,760.845,855.459,761.521ZM822.746,754.7v-1.28c0-1.178,0-1.162-1.19-1.152-.373,0-.437.145-.432.471.016,1.084.006,2.169.006,3.253,0,1.159,0,1.147,1.158,1.133.34,0,.477-.1.464-.453C822.729,756.012,822.746,755.354,822.746,754.7Z" transform="translate(0)" fill="#030302"/><path d="M838.473,808.92a.881.881,0,0,0,.789-1.015c-.013-2.333.039-4.667-.016-7a52.007,52.007,0,0,1,.783-9.137c0-.018.009-.035.012-.052.076-.453,0-1.073.265-1.315.327-.3.949-.09,1.442-.092,1.513-.006,3.027.008,4.54.013,0,5.752-.005,11.5.012,17.254,0,.483-.144.6-.605.59-1.228-.03-2.457-.018-3.685-.008a1.52,1.52,0,0,0-1.6,1.611q0,2.938,0,5.876a1.305,1.305,0,0,1-1.148-1.42c-.016-.729-.018-1.459,0-2.187a.871.871,0,0,0-.789-1.013Q838.473,809.972,838.473,808.92Zm4.715-12.646c-.675,0-1.351-.006-2.026,0-.56.007-.881.291-.894.767a.8.8,0,0,0,.9.831q2.052.017,4.1,0a.805.805,0,1,0,0-1.6C844.574,796.267,843.881,796.273,843.188,796.273Z" transform="translate(-14.897 -47.757)" fill="#f7dd63"/><path d="M948.47,790.548c1.049-.062,1.064-.064,1.219.966a48.616,48.616,0,0,1,.837,9.117c-.026.655.177.868.83,1.029v2.107c-.667.164-.834.373-.835,1.083q0,4.75,0,9.5c0,1.076-.538,1.581-1.617,1.594-.352,0-.448-.1-.444-.449.018-1.69.01-3.38.008-5.071,0-.822-.263-1.082-1.085-1.083-1.405,0-2.812-.028-4.216.013-.534.016-.759-.117-.655-.661a3.074,3.074,0,0,0,.029-.317c1.317,0,2.635,0,3.953,0,1,0,2.056-.216,2.83.948V797.881c.34-.635.3-.869-.244-1.345a.3.3,0,0,0,.14-.322c-.084-.612-.182-1.221-.257-1.834C948.8,793.1,948.518,791.84,948.47,790.548Z" transform="translate(-96.661 -47.982)" fill="#f3d148"/><path d="M869.523,882.378c.162.6.564.775,1.161.773,3.323-.014,6.647,0,9.97,0q0,5.657,0,11.314c-.747.006-1.495.016-2.242.016-6.16,0-12.32-.005-18.479.012-.478,0-.588-.128-.585-.592q.03-5.1,0-10.2c0-.5.16-.575.6-.571,2.154.022,4.308,0,6.462.015a.908.908,0,0,0,1.031-.782Zm-3.4,10.49c1.353,0,2.706,0,4.059,0,.753,0,1.047-.283,1.05-1.022q.009-3.018,0-6.036c0-.741-.3-1.039-1.039-1.04q-4.086-.006-8.172,0c-.763,0-1.036.275-1.037,1.027q-.005,3.018,0,6.036c0,.754.277,1.032,1.027,1.035C863.385,892.871,864.756,892.868,866.127,892.868Zm7.528-6.5c.673,0,1.032-.284,1.02-.811-.012-.5-.38-.795-1-.794-.648,0-1.035.312-1.027.827C872.656,886.084,873.026,886.37,873.655,886.372Zm.014,1.659c-.642,0-1,.268-1.021.76-.018.513.378.845,1.012.845s1.025-.313,1.014-.836C874.664,888.292,874.325,888.032,873.67,888.031Zm2.781,3.233c-.617,0-1,.3-1,.791,0,.506.394.819,1.039.814.625,0,.981-.3.984-.8C877.476,891.533,877.128,891.26,876.451,891.263Zm.045-4.891q.974-.006.976-.793c0-.531-.365-.82-1.026-.812-.6.007-.991.323-1,.81S875.843,886.376,876.5,886.372Zm2.737,3.264c.624.019,1.05-.3,1.071-.791.02-.466-.353-.8-.917-.814-.741-.023-1.091.22-1.1.766C878.273,889.317,878.612,889.616,879.233,889.636Zm-5.547,1.628c-.655,0-1.043.3-1.039.8,0,.491.384.8,1,.8.655,0,1.033-.293,1.033-.814C874.676,891.556,874.313,891.266,873.687,891.263Zm5.615,0c-.677,0-1.023.271-1.018.8,0,.508.36.8.985.8s1.043-.314,1.035-.818S879.921,891.266,879.3,891.263Zm.008-4.891c.62,0,.989-.3.993-.793s-.416-.818-1.045-.813-.971.29-.973.811C878.283,886.116,878.619,886.377,879.309,886.372Zm-2.838,3.263c.652,0,1.016-.309,1-.841s-.337-.764-1-.764c-.625,0-1.005.285-1.021.764C875.434,889.289,875.859,889.639,876.472,889.636Z" transform="translate(-31.307 -120.177)" fill="#818181"/><path d="M949.388,797.837v11.449c-.774-1.163-1.834-.943-2.83-.948-1.318-.006-2.635,0-3.953,0-.008-.177-.024-.355-.024-.532q0-8.366-.01-16.732c0-.444.067-.61.569-.6,1.8.043,3.6.027,5.4.034.048,1.292.333,2.554.489,3.832.075.612.174,1.222.257,1.834a.3.3,0,0,1-.139.322c-1.565-.011-3.129-.031-4.694-.028a.708.708,0,0,0-.743.69c-.067.536.3.9.927.9,1.334.01,2.668,0,4,.007A1.455,1.455,0,0,0,949.388,797.837Z" transform="translate(-96.728 -47.938)" fill="#f9de63"/><path d="M887.041,784.632q0-3.848,0-7.7c0-.275-.018-.485.356-.573.423-.1.51-.482.514-.891.008-1.075.017-1.075,1.083-1.075,2.316,0,4.632.011,6.947-.01.425,0,.57.119.516.533a3.728,3.728,0,0,0,0,.694.714.714,0,0,0,.456.722c.377.106.407.328.407.656q-.013,7.669,0,15.339c0,.432-.1.57-.552.567q-4.6-.031-9.192,0c-.46,0-.549-.143-.546-.57C887.051,789.763,887.041,787.2,887.041,784.632Zm.521-.5a4.643,4.643,0,1,0,9.285.009,4.643,4.643,0,0,0-9.285-.009Zm4.586-5.964c.962,0,1.924,0,2.886,0,.621,0,.981-.311.973-.811s-.37-.789-1-.79q-2.806-.005-5.612,0c-.665,0-1.032.3-1.024.817.008.5.356.782,1,.785C890.3,778.17,891.222,778.167,892.148,778.167Z" transform="translate(-53.068 -35.296)" fill="#f7dc62"/><path d="M873.517,746.858c-.73,0-1.461,0-2.19.02-.342.011-.474-.085-.333-.421a4.937,4.937,0,0,0,.265-1.994c-.011-1.567,0-3.135,0-4.7,0-.816-.282-1.1-1.088-1.1q-9.138,0-18.275,0c-.764,0-1.037.272-1.039,1.023,0,1.87.007,3.741-.007,5.611a4.151,4.151,0,0,0,.271,1.244c.083.275.017.341-.252.339-1.033-.009-2.066-.012-3.1,0-.288,0-.362-.1-.35-.375a24.385,24.385,0,0,1,2.192-9.18c.153-.334.4-.288.662-.288q10.313,0,20.627,0c.16,0,.319.017.479.026a3.685,3.685,0,0,0,.341.946A24.61,24.61,0,0,1,873.517,746.858Z" transform="translate(-21.924 -5.93)" fill="#818181"/><path d="M847.521,815.881q0-2.938,0-5.876a1.52,1.52,0,0,1,1.6-1.611c1.228-.011,2.458-.023,3.685.008.461.011.607-.107.605-.59-.018-5.751-.012-11.5-.012-17.254.976-.052.976-.052.976.888q0,8.68.01,17.361c0,.432-.083.57-.543.56-1.441-.034-2.884-.014-4.326-.012-.8,0-1.061.251-1.062,1.042,0,1.585,0,3.169,0,4.754C848.455,816.052,848.438,816.065,847.521,815.881Z" transform="translate(-22.009 -47.993)" fill="#f6d349"/><path d="M896.764,967.985q-4.67.008-9.339.02c-.255,0-.388-.035-.379-.341.022-.676.015-1.352,0-2.028,0-.248.066-.347.329-.345q4.7.023,9.391.03Q896.767,966.653,896.764,967.985Z" transform="translate(-53.079 -185.365)" fill="#ccc"/><path d="M875.29,947.868c-.01-.511-.218-1.164.074-1.493.275-.309.939-.09,1.431-.09q6.161-.011,12.322,0c.2,0,.39.012.585.018,0,.285.009.569.007.854,0,.623-.094.719-.707.719Q882.146,947.872,875.29,947.868Z" transform="translate(-43.775 -170.365)" fill="#ccc"/><path d="M875.406,948.081q6.857,0,13.713,0c.613,0,.7-.1.707-.719,0-.284,0-.569-.007-.853.142-.008.285-.008.425-.025.291-.035.419.061.406.379-.022.552-.02,1.1,0,1.657.011.312-.114.39-.407.39-4.829-.007-9.657,0-14.486-.01C875.068,948.9,875.5,948.368,875.406,948.081Z" transform="translate(-43.89 -170.579)" fill="#b2b2b2"/><path d="M961.575,746.849a24.61,24.61,0,0,0-1.8-8.851,3.688,3.688,0,0,1-.341-.947c.941-.074.952-.079,1.329.782a23.609,23.609,0,0,1,1.9,7.671c0,.053,0,.107.009.16C962.79,746.9,962.791,746.9,961.575,746.849Z" transform="translate(-109.982 -5.922)" fill="#595959"/><path d="M958.958,897.245q0-5.657,0-11.314a2.01,2.01,0,0,0,.213-.014c.5-.085.662.084.658.621-.027,3.293-.014,6.586-.014,9.88C959.81,897.278,959.81,897.278,958.958,897.245Z" transform="translate(-109.607 -122.952)" fill="#595959"/><path d="M987.508,870.254c0-.675.011-1.351,0-2.026-.007-.3.1-.393.4-.4,1.282-.049,1.282-.059,1.282,1.226,0,1.066-.01,2.133.006,3.2,0,.326-.107.422-.429.429-1.252.028-1.252.039-1.252-1.2Q987.507,870.867,987.508,870.254Z" transform="translate(-132.049 -108.733)" fill="#595959"/><path d="M828.629,838.391c0,.658-.016,1.316.006,1.973.012.357-.124.449-.464.453-1.158.014-1.158.026-1.158-1.133,0-1.084.01-2.169-.006-3.253,0-.326.06-.468.432-.471,1.19-.009,1.19-.026,1.19,1.152Z" transform="translate(-5.883 -83.695)" fill="#595959"/><path d="M932.481,967.939q0-1.332,0-2.664c.436-.126.6.023.571.487a11.191,11.191,0,0,0,0,1.639C933.1,967.877,932.948,968.053,932.481,967.939Z" transform="translate(-88.796 -185.318)" fill="#b2b2b2"/><path d="M849.784,818.44c.693,0,1.386-.006,2.079,0a.805.805,0,1,1,0,1.6q-2.052.018-4.1,0a.8.8,0,0,1-.9-.831c.013-.476.333-.76.894-.767C848.434,818.434,849.109,818.44,849.784,818.44Z" transform="translate(-21.493 -69.924)" fill="#030301"/><path d="M953.538,819.862a1.456,1.456,0,0,1-.752.226c-1.334-.008-2.668,0-4-.007-.63,0-.993-.367-.927-.9a.708.708,0,0,1,.743-.69c1.565,0,3.129.017,4.694.028C953.835,818.993,953.878,819.227,953.538,819.862Z" transform="translate(-100.877 -69.964)" fill="#030301"/><path d="M872.142,901.686c-1.371,0-2.742,0-4.113,0-.75,0-1.026-.281-1.027-1.035q0-3.018,0-6.036c0-.752.274-1.026,1.037-1.027q4.086-.007,8.172,0c.741,0,1.038.3,1.039,1.04q.007,3.018,0,6.036c0,.739-.3,1.02-1.05,1.022C874.849,901.689,873.5,901.686,872.142,901.686Zm-3.521-2.137c-.1.4.009.552.465.547q3.038-.039,6.077,0c.406,0,.5-.111.5-.5q-.038-1.945,0-3.892c.008-.429-.1-.6-.538-.48-2.057-.008-4.113-.01-6.17-.029-.291,0-.355.1-.352.37C868.616,896.89,868.616,898.22,868.621,899.549Z" transform="translate(-37.322 -128.996)" fill="#020202"/><path d="M922.534,895.194c-.63,0-1-.287-1.007-.778-.008-.515.379-.826,1.027-.827.619,0,.987.292,1,.794C923.567,894.91,923.207,895.2,922.534,895.194Z" transform="translate(-80.186 -129)" fill="#030302"/><path d="M922.547,908.849c.655,0,.994.261,1,.769.011.523-.369.837-1.014.836s-1.03-.332-1.012-.845C921.543,909.117,921.9,908.848,922.547,908.849Z" transform="translate(-80.184 -140.996)" fill="#030302"/><path d="M935.627,923.961c.677,0,1.025.27,1.023.8,0,.507-.359.8-.984.8-.645,0-1.044-.308-1.039-.814C934.632,924.263,935.01,923.964,935.627,923.961Z" transform="translate(-90.483 -152.875)" fill="#030302"/><path d="M935.669,895.194c-.654,0-1.052-.3-1.046-.795s.394-.8,1-.81c.661-.008,1.027.282,1.026.812S936.319,895.19,935.669,895.194Z" transform="translate(-90.48 -129)" fill="#030302"/><path d="M948.823,910.449c-.622-.019-.96-.319-.949-.839.012-.546.362-.789,1.1-.766.564.017.937.348.917.814C949.873,910.154,949.447,910.468,948.823,910.449Z" transform="translate(-100.896 -140.991)" fill="#030302"/><path d="M922.562,923.961c.626,0,.989.292.989.791,0,.52-.377.818-1.033.814-.611,0-.992-.31-1-.8C921.519,924.258,921.907,923.958,922.562,923.961Z" transform="translate(-80.182 -152.875)" fill="#030302"/><path d="M948.887,923.961c.62,0,1,.3,1,.787s-.4.822-1.035.818-.98-.292-.985-.8C947.864,924.232,948.21,923.959,948.887,923.961Z" transform="translate(-100.892 -152.875)" fill="#030302"/><path d="M948.9,895.2c-.69,0-1.027-.256-1.025-.795,0-.52.343-.805.973-.811s1.049.321,1.045.813S949.52,895.191,948.9,895.2Z" transform="translate(-100.897 -129)" fill="#030302"/><path d="M935.644,910.453c-.613,0-1.038-.346-1.022-.841.016-.479.4-.764,1.021-.764.664,0,.986.246,1,.764S936.3,910.45,935.644,910.453Z" transform="translate(-90.479 -140.995)" fill="#030302"/><path d="M889.494,803.008a4.643,4.643,0,1,1,4.567,4.7A4.614,4.614,0,0,1,889.494,803.008Zm8.662.058a4.036,4.036,0,1,0-4.054,4.021A4.035,4.035,0,0,0,898.156,803.067Z" transform="translate(-55.001 -54.173)" fill="#f3d148"/><path d="M897.077,786.159c-.926,0-1.853,0-2.779,0-.64,0-.988-.282-1-.785-.009-.518.358-.816,1.023-.817q2.806,0,5.612,0c.629,0,.99.294,1,.79s-.351.808-.973.811C899,786.163,898.039,786.159,897.077,786.159Z" transform="translate(-57.997 -43.287)" fill="#030301"/><path d="M874.5,905.449c-.005-1.33,0-2.66-.021-3.99,0-.266.06-.373.351-.37,2.056.019,4.113.021,6.17.029,0,1.194.01,2.388.007,3.581,0,.553-.212.753-.789.753Q877.363,905.455,874.5,905.449Z" transform="translate(-43.204 -134.895)" fill="#87cff6"/><path d="M874.456,905.412q2.86,0,5.719,0c.576,0,.787-.2.789-.753,0-1.194,0-2.388-.007-3.581.435-.125.547.051.538.48q-.038,1.945,0,3.892c.008.394-.09.509-.5.5q-3.038-.033-6.077,0C874.465,905.964,874.359,905.81,874.456,905.412Z" transform="translate(-43.157 -134.858)" fill="#62b4e5"/><path d="M900.341,805.311a4.036,4.036,0,1,1-4.018-4.055A4.041,4.041,0,0,1,900.341,805.311Zm-4.92,2.2a2.363,2.363,0,0,0,3.1-3.1,2.307,2.307,0,0,0-2.4-1.541,2.391,2.391,0,0,0-2.233,2.186A2.293,2.293,0,0,0,895.421,807.512Z" transform="translate(-57.186 -56.417)" fill="#030301"/><path d="M901.329,813.4a2.293,2.293,0,0,1-1.529-2.454,2.39,2.39,0,0,1,2.233-2.186,2.307,2.307,0,0,1,2.4,1.54c-.013.012-.035.023-.037.036a3.325,3.325,0,0,1-3.028,3.027C901.352,813.37,901.342,813.392,901.329,813.4Zm1.945-2.2a1.066,1.066,0,0,0-1.057-1.1,1.113,1.113,0,0,0-1.089,1.089,1.068,1.068,0,0,0,1.048,1.056A1.033,1.033,0,0,0,903.274,811.2Z" transform="translate(-63.094 -62.309)" fill="#818181"/><path d="M907,819.111c.012-.013.023-.035.037-.037a3.325,3.325,0,0,0,3.028-3.027c0-.014.024-.024.037-.036a2.363,2.363,0,0,1-3.1,3.1Z" transform="translate(-68.769 -68.016)" fill="#595959"/><path d="M908.212,816.168a1.033,1.033,0,0,1-1.1,1.044,1.068,1.068,0,0,1-1.048-1.056,1.113,1.113,0,0,1,1.089-1.089A1.066,1.066,0,0,1,908.212,816.168Z" transform="translate(-68.031 -67.274)" fill="#030302"/></g></svg>