<svg xmlns="http://www.w3.org/2000/svg" width="400" height="239.799" viewBox="0 0 400 239.799"><g transform="translate(-915 -9912.522)"><g transform="translate(829.544 9194.262)"><g transform="translate(85.456 829.373)"><path d="M138.588,979.462,149.678,870l3.645-5.052L166.5,854.285,183.6,852.32l26.823,14.033,19.452,7.578,26.386,69.605,3.437,35.925Z" transform="translate(-94.551 -852.32)" fill="#aaa09f"/><path d="M275.149,948.086,248.921,878.9a260.253,260.253,0,0,0,4.733,44.887c5.038,27.106,12.79,49.913,19.81,60.229h5.122Z" transform="translate(-113.437 -856.869)" fill="#a39593"/><path d="M256.264,946.033,250.449,930.7c-1.266,2.731-7.435-5.387-9.706-3.6-15.005,11.8-52.651-50.441-52.651-50.441s-30.158,1.93-34.1-9.751l-.671.543-3.644,5.053L138.588,981.958H259.7Z" transform="translate(-94.551 -854.816)" fill="#a39593"/><path d="M109.815,983.972H218.87l-8.306-28.134-12.326-20.364L176,886.706l-6.7-6.7-27.6-1.34-19.292,3.215.268,16.613Z" transform="translate(-89.626 -856.83)" fill="#8e7f7b"/><path d="M178.713,886.956l-.114-.25-6.7-6.7-27.6-1.339-19.292,3.215.007.506a156.474,156.474,0,0,0,20.283,3.963A140.257,140.257,0,0,0,178.713,886.956Z" transform="translate(-92.227 -856.83)" fill="#938582"/><path d="M210.563,956.786l-8.992-14.858a23.5,23.5,0,0,1-6.813,3.024c-23.1,6.191-54.767-20.439-70.324-55.862-.717-1.634-1.377-3.259-2-4.879l.246,15.235L109.815,984.92H218.87Z" transform="translate(-89.626 -857.779)" fill="#877874"/><path d="M185.3,996.854c-11.619-17.305-39.354-35-69.03-42.925l-6.459,42.925Z" transform="translate(-89.626 -869.713)" fill="#7f716e"/><path d="M208.661,959.669a104.11,104.11,0,0,0-15.923,38.168h32.355C230.338,975.493,208.661,959.669,208.661,959.669Z" transform="translate(-103.82 -870.695)" fill="#7f716e"/><path d="M146.671,902.267s5.117,16.775,15.521,41.265h12.814C161.234,935.34,146.671,902.267,146.671,902.267Z" transform="translate(-95.934 -860.87)" fill="#877874"/><path d="M293.661,966.53a319.516,319.516,0,0,0-52.794-22.24l-4.236-.8c-6.762,5.082-13.568,9.367-20.51,11.164l1.282,7.323-.22,5.56L212.66,980.9l.3,14.168h87.217Z" transform="translate(-107.23 -867.925)" fill="#84736d"/><path d="M249.74,961.316c13.474,1.481,25.779,1.4,34.65.067a328.269,328.269,0,0,0-42.681-17.093l-4.236-.8c-6.562,4.932-13.164,9.1-19.893,10.991C225.839,957.432,237.143,959.931,249.74,961.316Z" transform="translate(-108.072 -867.925)" fill="#8c7d79"/><path d="M294.307,971.79c-8.35,10.888-33.04,11.347-56.125.816a72.929,72.929,0,0,1-21.955-14.915l1.175,6.714-.22,5.56L212.66,983.33l.3,14.168h87.218Z" transform="translate(-107.23 -870.357)" fill="#7a6a64"/><path d="M235.336,988.351a104.5,104.5,0,0,0-22.4-.782l-.279.826.3,14.168h58.9C267.3,996.576,252.913,990.747,235.336,988.351Z" transform="translate(-107.23 -875.422)" fill="#756661"/><path d="M237.225,986.036l-4.72-9.015,3.535,9.237s2.592,3.8,9.927,8.821l.8-1.708C239.436,990.557,237.225,986.036,237.225,986.036Z" transform="translate(-110.627 -873.665)" fill="#6d5e5b"/><path d="M212.3,997.36l9.512-5.225,1.879-7.714s5.647-6.032,5.769-14.231c0,0,1.554,5.383-4.693,14.274l-1.615,7.135,5.627,5.493Z" transform="translate(-107.168 -872.496)" fill="#6d5e5b"/><path d="M137,978.91l-2.211-.8-23.245-7.7-14.6-8.307-5.358-6.163-4.22,4.488c-1.809,11.589-2.607,24.72-1.139,36.776H146.24Z" transform="translate(-85.456 -870.056)" fill="#a39593"/><path d="M147.474,983.655h0a101.528,101.528,0,0,0-.8,12.963q0,2.72.131,5.325h9.917Z" transform="translate(-95.934 -874.801)" fill="#998e8d"/><path d="M104.924,984.031a80.319,80.319,0,0,1-16.976-23.439l-.589.627c-1.809,11.589-2.607,24.72-1.139,36.776h37.406A84.557,84.557,0,0,1,104.924,984.031Z" transform="translate(-85.456 -870.853)" fill="#998d8c"/></g><g transform="translate(212.351 718.261)"><g transform="translate(54.46 34.442)"><path d="M305.831,951.593l-1.567-.609L343.31,759.817l1.566.609Z" transform="translate(-304.265 -759.817)" fill="#564147"/></g><g transform="translate(89.651 31.153)"><path d="M348.347,954.2l-1.624-.142,9.143-198.212,1.624.142Z" transform="translate(-346.723 -755.848)" fill="#564147"/></g><g transform="translate(103.588 31.581)"><path d="M382.09,953.6l-1.616.264L363.539,756.629l1.616-.264Z" transform="translate(-363.539 -756.365)" fill="#564147"/></g><g transform="translate(110.164 33.181)"><path d="M404.529,952.1l-1.588.491L371.472,758.786l1.588-.491Z" transform="translate(-371.472 -758.295)" fill="#564147"/></g><rect width="13.829" height="4.881" transform="translate(95.78 28.47)" fill="#564147"/><rect width="8.744" height="11.185" transform="translate(98.627 18.506)" fill="#564147"/><rect width="9.355" height="17.286" transform="translate(91.611 2.644)" fill="#ff9045"/><rect width="23.183" height="22.37" transform="translate(93.848)" fill="#ffda66"/><rect width="7.321" height="22.37" transform="translate(93.848)" fill="#f7c046"/><rect width="12.405" height="16.676" transform="translate(103.203 2.44)" fill="#564147"/><path d="M238.557,995.135h218.41l-13.829-7.321-8.541-3.254-21.963-17.082-19.116-8.134-21.15-15.455-31.318,20.743-20.743,4.881L289.8,982.12l-29.284,7.728Z" transform="translate(-238.557 -756.882)" fill="#ea9a53"/><path d="M396.5,959.346l39.045,18.912-9.761,11.388-26.844-.813-7.524-21.76Z" transform="translate(-264.722 -759.528)" fill="#ea9a53"/><rect width="10.824" height="15.251" transform="translate(103.733 3.153)" fill="#f9a948"/><rect width="3.254" height="3.66" transform="translate(109.88 35.571)" fill="#564147"/><rect width="2.678" height="3.66" transform="translate(103.406 35.571)" fill="#564147"/><rect width="2.678" height="3.66" transform="translate(98.288 35.571)" fill="#564147"/><rect width="17.014" height="3.661" transform="translate(94.17 34.453)" fill="#564147"/><rect width="3.457" height="3.66" transform="translate(91.882 35.571)" fill="#564147"/><rect width="22.573" height="4.881" transform="translate(91.103 32.131)" fill="#ff9045"/><path d="M325.731,985.8l16.811-11.659,59.517-1.22-39.736-21-21.272,14.089-20.743,4.881-30.5,12.608-29.284,7.728-21.963,5.287H341.995Z" transform="translate(-238.557 -758.256)" fill="#ea8642"/><path d="M374.537,730.874a8.583,8.583,0,0,0-6.71-3.78,7.427,7.427,0,0,0-4.113,1.3v9.783h10.824Z" transform="translate(-259.98 -719.773)" fill="#ffe7b3"/></g><g transform="translate(245.303 802.928)"><path d="M496.722,1001.18l101.235,1.175L582.88,994.3l-10.224-7.867-14.372-5.76-14.091,3.091-7.983,8.148-2.446,2.107-11.885-1.4-11.938,5.76Z" transform="translate(-357.804 -847.845)" fill="#ba734a"/><path d="M558.742,990.769l-5.219-8.839-9.33,2.046-7.983,8.148-2.446,2.107-11.885-1.4-11.938,5.76-13.218,2.81,74.091,1.8Z" transform="translate(-357.804 -848.061)" fill="#8e5b39"/><path d="M518.923,922.984c1.162-8.639,1.626-14.7-1.813-15.99s-7.12,3.411-7.12,3.411Z" transform="translate(-360.075 -835.195)" fill="#724031"/><g transform="translate(52.302)"><path d="M427.8,961.83l-17.234.15-16.894-3.414L392.4,971.909c-1.208,12.633,3.594,21.4,14.876,24.507h0c9.629-1.11,18.044-8.61,19.252-21.243Z" transform="translate(-392.218 -844.061)" fill="#b6cecb"/><path d="M413.086,962.429l-6.138-1.24c-.246,3.977,1.145,7.194,3.535,7.621,1.567.28,3.421-.59,4.78-2.362C416.077,965.384,413.086,962.429,413.086,962.429Z" transform="translate(-394.734 -844.51)" fill="#a3bfbb"/><path d="M397.591,968.261a46.007,46.007,0,0,1-3.974-8.961L392.4,972.035c-1.208,12.633,3.594,21.4,14.876,24.507h0a21.04,21.04,0,0,0,15.622-9.971C414.326,986.631,404.137,979.619,397.591,968.261Z" transform="translate(-392.218 -844.187)" fill="#a3bfbb"/><path d="M424.637,820.423h0a2.082,2.082,0,0,0-2.249,1.915L411.84,940.7l2.564.245,12.078-118.221A2.081,2.081,0,0,0,424.637,820.423Z" transform="translate(-395.577 -820.414)" fill="#7a5153"/><path d="M0,0H5.846a0,0,0,0,1,0,0V5.342A2.636,2.636,0,0,1,3.211,7.977H2.636A2.636,2.636,0,0,1,0,5.341V0A0,0,0,0,1,0,0Z" transform="translate(15.797 113.922) rotate(5.463)" fill="#b6cecb"/><path d="M0,0H3.1a0,0,0,0,1,0,0V3.821a1.4,1.4,0,0,1-1.4,1.4H1.4A1.4,1.4,0,0,1,0,3.821V0A0,0,0,0,1,0,0Z" transform="translate(18.235 114.43) rotate(5.463)" fill="#caddda"/></g><path d="M524.2,947.956c9.29,8.119,26.062,20.143,29.02,20.479,2.244.255,3.2,23.912,3.2,23.912s-21.108,2.223-29.191-5.456S524.2,947.956,524.2,947.956Z" transform="translate(-362.24 -842.245)" fill="#f2de9e"/><path d="M528.066,958.8c-1.455-1.358-4.515,8.738-5.353,6.662-.333,9,.331,19.29,4.513,23.264,8.084,7.679,29.191,5.456,29.191,5.456s-.264-6.542-.84-12.782C547.1,980.085,534.858,965.137,528.066,958.8Z" transform="translate(-362.24 -844.08)" fill="#e5cd88"/><path d="M468.2,994.126h65.472s-7.686-36.965-17.429-46.375c-13.337-12.883-28.644-8.942-37.434-.455C473.234,952.675,468.2,994.126,468.2,994.126Z" transform="translate(-352.921 -840.791)" fill="#999945"/><path d="M468.2,995.088h17.378c2.148-5.13,5.658-46.477-1.388-50.007a31.688,31.688,0,0,0-4.325,3.177C473.735,953.638,468.2,995.088,468.2,995.088Z" transform="translate(-352.921 -841.753)" fill="#89873a"/><path d="M480.874,947.3a5.027,5.027,0,0,0-.6.719,74.39,74.39,0,0,0,19.41,1.165,77.607,77.607,0,0,0,17.108-2.8C503.828,935.179,489.334,939.128,480.874,947.3Z" transform="translate(-354.989 -840.791)" fill="#89873a"/><path d="M476.161,947.335c-19.3,12.394-31.951,36.525-31.193,41.526s21.975,5,24.1,1.213,7.881-9.851,10.912-14.7S483.712,942.486,476.161,947.335Z" transform="translate(-348.939 -842.043)" fill="#f2de9e"/><path d="M475.531,973.006c-18.507,23.177-23.382,2.888-23.591,2.549-4.772,7.5-7.325,13.968-6.972,16.295.758,5,21.975,5,24.1,1.213s7.881-9.851,10.912-14.7c1.266-2.026,2.126-8.1,2.148-14.131C480.583,966.944,477.424,970.636,475.531,973.006Z" transform="translate(-348.939 -845.031)" fill="#e5cd88"/><path d="M527.349,969.424s-3.979-14.529-10.826-24.445c-9.583-7.23-19.8-6.6-27.7-2.4,5.888,4.854,5.559,19.269,7,27.908Z" transform="translate(-356.452 -840.792)" fill="#f2de9e"/><path d="M517.56,946.553c-.338-.535-.683-1.063-1.037-1.575-9.583-7.23-19.8-6.6-27.7-2.4a13.478,13.478,0,0,1,3.679,6.109c2.138.181,4.385.278,6.7.278A63.15,63.15,0,0,0,517.56,946.553Z" transform="translate(-356.452 -840.792)" fill="#e5cd88"/><path d="M496.007,940.256c4.573,8.455,19.537,18.484,19.537,18.484s2.136-7.639,1.206-14.485A24.693,24.693,0,0,0,496.007,940.256Z" transform="translate(-357.681 -840.792)" fill="#edb984"/><path d="M516.75,944.255h0c-.406-.282-.813-.547-1.221-.8l-.179-.112a27.958,27.958,0,0,0-2.484-1.363l-.172-.082a25.784,25.784,0,0,0-2.5-1.037l-.147-.051a24.473,24.473,0,0,0-2.528-.729l-.1-.021q-.617-.141-1.232-.246l-.034-.006q-.649-.111-1.293-.184l-.021,0q-.629-.072-1.255-.109l-.052,0A23.988,23.988,0,0,0,501,939.5l-.046,0a24.144,24.144,0,0,0-2.485.253l-.026,0q-1.237.192-2.438.5a37.665,37.665,0,0,0,7.217,8.66,63.85,63.85,0,0,0,13.748-1.837A26.41,26.41,0,0,0,516.75,944.255Z" transform="translate(-357.681 -840.793)" fill="#e79b69"/><path d="M498.881,936.979l2.061-13.755L514.6,927.24l.47,12.855C510.732,943,501.639,941.864,498.881,936.979Z" transform="translate(-358.173 -838.012)" fill="#d27558"/><path d="M501.268,913.953c-.675,6.486,1.515,17.732,2.122,18.49s8.108,2.122,9.4,1.819,5.228-2.2,5.986-3.183-2.349-20.46-3.107-21.445S501.646,910.316,501.268,913.953Z" transform="translate(-358.56 -835.638)" fill="#edb984"/><path d="M508.83,917.3a22.367,22.367,0,0,1,8.194-1.62,34.058,34.058,0,0,0-1.358-6.049c-.758-.986-14.019.682-14.4,4.319a42.106,42.106,0,0,0,.174,8.1A22.23,22.23,0,0,1,508.83,917.3Z" transform="translate(-358.56 -835.638)" fill="#e79b69"/><path d="M498.733,930.813l2.3-4.228,2.728-2.551s-1.414-15.206-6.163-12.781C489.915,915.176,498.733,930.813,498.733,930.813Z" transform="translate(-357.415 -835.918)" fill="#724031"/><path d="M502.241,924.569c-.859-1.77-2.378-2.806-3.395-2.312s-1.146,2.327-.288,4.1,2.379,2.8,3.395,2.312S503.1,926.339,502.241,924.569Z" transform="translate(-358.021 -837.825)" fill="#edb984"/><path d="M501.813,925.438c-.584-1.206-1.62-1.911-2.313-1.576s-.78,1.586-.2,2.792,1.62,1.911,2.313,1.576S502.4,926.644,501.813,925.438Z" transform="translate(-358.179 -838.107)" fill="#d27558"/><path d="M502.067,926.772c-.407-.838-1.126-1.328-1.608-1.095s-.542,1.1-.136,1.94,1.126,1.328,1.608,1.095S502.474,927.61,502.067,926.772Z" transform="translate(-358.374 -838.422)" fill="#edb984"/><path d="M508.871,898.8c-2.046-.53-13.412,3.031-14.019,4.4s-.909,7.88-.346,11.517a46.864,46.864,0,0,1,20.215-8.5S510.917,899.331,508.871,898.8Z" transform="translate(-357.373 -833.822)" fill="#ffbb4d"/><path d="M502.785,908.6a11.831,11.831,0,0,1-.784-8.248c-3.413,1.025-6.824,2.385-7.149,3.116-.606,1.364-.909,7.881-.346,11.517a45.091,45.091,0,0,1,8.94-5.159A13.183,13.183,0,0,1,502.785,908.6Z" transform="translate(-357.373 -834.097)" fill="#ffa143"/><path d="M494.567,915.035c5.12-5.532,23.762-14.776,32.249-14.4s-9.624,12.048-9.624,12.048C515.054,906.319,502.87,910.944,494.567,915.035Z" transform="translate(-357.435 -834.144)" fill="#e2cc8d"/><path d="M525.957,902.2c1.847.082,2.434.7,2.222,1.616,1.343-1.731,1.407-3.058-1.363-3.182-8.487-.38-27.128,8.865-32.249,14.4.689-.339,1.4-.682,2.138-1.022C504,908.6,518.7,901.88,525.957,902.2Z" transform="translate(-357.435 -834.144)" fill="#f2de9e"/><path d="M579.8,957.752c-5.153,3.132-20.475,10.759-22.192,13.992s1.075,20.663,3.9,22.077,12.124-3.738,23.542-27.078Z" transform="translate(-368.135 -843.922)" fill="#edb984"/><path d="M572.342,978.712c-5.429,2.119-10.859,2.544-15.016,1.5.592,6.135,2.4,13.727,4.229,14.64,2.7,1.351,11.064-.5,24.148-28.088-.748.954-2.2-4.139-3.478-2.735C579.3,967.25,575.709,977.4,572.342,978.712Z" transform="translate(-368.177 -844.955)" fill="#e79b69"/><path d="M494.909,993.711l-4.825,7.5H450.149s-4.8-3.149-4.092-7.957,15.812-15,27.027-11.064S494.909,993.711,494.909,993.711Z" transform="translate(-349.119 -847.954)" fill="#edb984"/><path d="M477.4,1000.375c-12.5-2.969-22.164-8.786-23.836-13.909-4.205,2.514-7.2,5.6-7.505,7.673-.7,4.808,4.092,7.957,4.092,7.957H489.12A65.3,65.3,0,0,1,477.4,1000.375Z" transform="translate(-349.119 -848.837)" fill="#e79b69"/><path d="M449.439,1000.557c-29.341,1.717-73.888.3-119.48-.76l19.384-14.445,15.88-12.262,11.748-.5,20.434,7.726,18.756,4.031,19.787,7.558Z" transform="translate(-329.259 -846.461)" fill="#8e5b39"/><path d="M365.111,973.192l-.032,0L349.2,985.455l-20.084,15.2,78.223-.76C383,993.725,365.7,983.091,365.111,973.192Z" transform="translate(-329.114 -846.565)" fill="#7c4e35"/><path d="M478.362,949.776c2.671.293,5.435.513,8.274.65-.937-3.008-2.466-4.559-4.753-3.091Q480.083,948.491,478.362,949.776Z" transform="translate(-354.661 -842.043)" fill="#e5cd88"/><ellipse cx="2.198" cy="1.819" rx="2.198" ry="1.819" transform="translate(147.507 66.09)" fill="#f2de9e"/><ellipse cx="1.175" cy="1.705" rx="1.175" ry="1.705" transform="translate(138.388 132.269)" fill="#e5cd88"/><path d="M536.923,981.156c0-.942-.526-1.7-1.175-1.7s-1.174.763-1.174,1.7.526,1.7,1.174,1.7S536.923,982.1,536.923,981.156Z" transform="translate(-364.283 -847.636)" fill="#e5cd88"/><path d="M501.751,984.446l25.461-.606.531,3.789-12.125,5.229-13.413-3.94Z" transform="translate(-358.664 -848.388)" fill="#afac54"/><g transform="translate(134.788 134.347)"><path d="M507.061,991.136c-1.529-.635-8.983-.056-13.118.685l-.659,10.431c6.721,2.177,14.156-1.327,14.282-2.913S508.59,991.77,507.061,991.136Z" transform="translate(-492.003 -983.937)" fill="#edb984"/><path d="M501.772,982.592c-.621.221-4.221,5.178-10.033,8.331l6.758,1.58c1.588-.867,5.753-7.02,5.751-8.252A1.905,1.905,0,0,0,501.772,982.592Z" transform="translate(-491.739 -982.507)" fill="#edb984"/><path d="M513.166,986.71a69.145,69.145,0,0,0-9.923,4.225l3.212,2.555s7.509-3.608,8.011-4.646A1.5,1.5,0,0,0,513.166,986.71Z" transform="translate(-493.708 -983.224)" fill="#edb984"/><path d="M516.707,992.545c-.571-.3-6.019,1.281-11.063,2.847l2.936,2.966s8.1-2.31,8.75-3.233A2,2,0,0,0,516.707,992.545Z" transform="translate(-494.119 -984.219)" fill="#edb984"/><path d="M499.845,1004.022c6.8,1.276,15.4-2.822,15.748-3.528s.671-2.717-.414-2.549-6.206,2.07-7.44,1.812-8.515-2.68-8.633-2.516S499.845,1004.022,499.845,1004.022Z" transform="translate(-492.998 -985.027)" fill="#edb984"/></g><g transform="translate(146.505 78.327)"><path d="M510.207,922.12c-.182-.954-.783-1.671-1.342-1.6s-.864.9-.681,1.852.784,1.67,1.343,1.6S510.391,923.073,510.207,922.12Z" transform="translate(-506.262 -915.875)" fill="#5a4949"/><path d="M509.623,915.292l-3.395,1.341a.571.571,0,0,0-.314.737l.424,1.109a.555.555,0,0,0,.72.328l3.395-1.342a.571.571,0,0,0,.314-.736l-.423-1.109A.556.556,0,0,0,509.623,915.292Z" transform="translate(-505.876 -914.974)" fill="#874232"/><path d="M517.833,920.3c-.213-.949-.835-1.646-1.391-1.557s-.832.929-.619,1.877.835,1.646,1.391,1.557S518.046,921.249,517.833,920.3Z" transform="translate(-507.566 -915.571)" fill="#5a4949"/><path d="M517.627,915.014l-3.508-.1a.525.525,0,0,0-.522.561l.026,1.2a.591.591,0,0,0,.547.59l3.508.1a.523.523,0,0,0,.521-.56l-.026-1.2A.591.591,0,0,0,517.627,915.014Z" transform="translate(-507.197 -914.917)" fill="#874232"/><path d="M513.362,922.136c1.876,2.1,2.783,3.522,2.162,4.293a2.379,2.379,0,0,1-1.854.574l0,.049s2.2.4,2.915-.356S515.935,924.451,513.362,922.136Z" transform="translate(-507.157 -916.153)" fill="#d27558"/><g transform="translate(2.481 12.535)"><path d="M509.324,930.041l-.455.88c.1.06,2.551,1.489,6.786.769l-.135-.413A8.011,8.011,0,0,1,509.324,930.041Z" transform="translate(-508.869 -930.041)" fill="#d27558"/></g><path d="M514.9,933.512c.013.268-.5.507-1.149.535s-1.182-.168-1.2-.436.5-.507,1.15-.535S514.888,933.245,514.9,933.512Z" transform="translate(-507.019 -918.025)" fill="#d27558"/></g><path d="M584.127,957.433c3.41-2.5,1.053-6.358,1.053-6.358s3.63-7.181,6.625-5.968,4.471,10.211,2.769,12.9-6.734,9.1-6.734,9.1Z" transform="translate(-372.765 -841.734)" fill="#e79b69"/><path d="M584.018,948.542c-.646-2.039-3.445-5.992-4.607-6.448s-2.071.506-1.617,2.021,2.627,5.462,1.2,9.894C581.009,953.129,583.541,952.077,584.018,948.542Z" transform="translate(-371.66 -841.223)" fill="#edb984"/><path d="M589.54,933.051c-1.667-.505-2.746,1.563-1.717,2.172s2.122,4.193,1.465,9.6l5.3,1.111C595.148,940.123,591.208,933.555,589.54,933.051Z" transform="translate(-373.329 -839.68)" fill="#edb984"/><path d="M582.862,935.878l-3.124,4.872,1.431,4.45,5.181,1.616,3.06-2.177.912-7.1-3.6-2.973Z" transform="translate(-372.014 -839.954)" fill="#998a8e"/><path d="M590.28,951.254c-1.968-1.242,0-3.063,1.581-3.205s3.549-.058,4.189.66-.312,3.048-.312,3.048S591.44,951.987,590.28,951.254Z" transform="translate(-373.677 -842.251)" fill="#edb984"/><path d="M590.355,956.049c-2.268-1.256-.516-3.059,1.107-3.188s3.7-.029,4.491.693.192,3.043.192,3.043S591.692,956.79,590.355,956.049Z" transform="translate(-373.646 -843.077)" fill="#edb984"/><path d="M591.656,959.288c-.94,2.04-2.477.545-2.642-.884s-.163-3.268.4-3.987,2.475-.26,2.475-.26S592.209,958.086,591.656,959.288Z" transform="translate(-373.585 -843.282)" fill="#edb984"/><path d="M586.159,956.146c.4-3.535-.832-6.575-2.745-6.79s-3.786,2.477-4.182,6.011.832,6.575,2.745,6.79S585.762,959.681,586.159,956.146Z" transform="translate(-371.914 -842.483)" fill="#edb984"/></g><g transform="translate(144.152 779.001)"><path d="M249.108,816.061l1.358.981a14.865,14.865,0,0,1-9.39,7.558l-1.6-.6S244.416,823.3,249.108,816.061Z" transform="translate(-170.516 -795.741)" fill="#ff8939"/><path d="M242.113,805.363c-1,13.489,1.823,18.137,1.823,18.137l8.112-5.651,1.642-11.836Z" transform="translate(-170.93 -793.91)" fill="#725249"/><path d="M254.03,845.811c-17.111,4.573-23.643,37.519-5.31,50.427,4.932,3.473,17.742,6.076,17.742,6.076l6.341-18.064s-5.749-1.723-6.949-9.157S270.246,841.478,254.03,845.811Z" transform="translate(-170.215 -800.751)" fill="#eadc96"/><path d="M257.59,869.563c1.174-9.228,2.146-17.4,5.317-21.623-1.765-2.264-4.54-3.289-8.878-2.13-17.111,4.573-23.643,37.519-5.31,50.427,4.932,3.473,17.742,6.076,17.742,6.076l3.646-11.059C269.635,891.413,254.968,890.178,257.59,869.563Z" transform="translate(-170.215 -800.751)" fill="#dbc97d"/><path d="M274.829,891.745s-15.669-4.818-22.01,13.926c0,0,3.346,7.394,17.705,5.026l6.789-16.465Z" transform="translate(-172.8 -808.601)" fill="#646393"/><path d="M268.725,901.8a11.823,11.823,0,0,1-6.491-8.168c-3.571,1.949-7.11,5.641-9.415,12.457,0,0,3.346,7.394,17.705,5.026l3.359-8.147A11.939,11.939,0,0,1,268.725,901.8Z" transform="translate(-172.8 -809.019)" fill="#4e4e7a"/><path d="M267.1,993.2H156.274l12.152-43.314,13.124-14.014s47.394-3.312,48.366-3.312S255.194,954.468,267.1,993.2Z" transform="translate(-156.274 -815.682)" fill="#847276"/><path d="M239.628,958.525l36.457,37.368h1.458l-21.874-47.576Z" transform="translate(-170.542 -818.38)" fill="#705d62"/><path d="M205.213,962.745l34.357,34.027h1.458l-19.2-43.323Z" transform="translate(-164.651 -819.258)" fill="#705d62"/><path d="M214.423,978.066,239.445,942.1c-5.285-6.254-9.153-9.541-9.528-9.541-.972,0-48.366,3.312-48.366,3.312l-13.124,14.014L156.274,993.2h54.312Z" transform="translate(-156.274 -815.682)" fill="#705d62"/><path d="M227.549,931c8.56,6.868,39.054,6.79,39.054,6.79l36.377,50.068s-10.414-61.106-17.743-70.241c-2.925-3.645-35.529-9.157-40.721-9.721C228.86,906.194,214.5,920.534,227.549,931Z" transform="translate(-167.603 -811.437)" fill="#baab43"/><path d="M278.078,933.266l9.839-9.314a21.466,21.466,0,0,0-2.67-5.147c-2.925-3.645-35.274-3.324-40.467-3.889-15.656-1.7-30.266,6.806-17.221,17.272,8.56,6.868,39.054,6.79,39.054,6.79l34.995,48.167Z" transform="translate(-167.613 -812.625)" fill="#a5993f"/><path d="M192.69,913.962c-9.115-22.6,16.882-72.224,19.616-74.958s22.6-6.926,27.16-6.379,15.085,10.549,15.494,14.218c1.641,14.674-10.664,49.034-10.664,49.034Z" transform="translate(-162.177 -798.568)" fill="#baab43"/><path d="M216.491,839a12.363,12.363,0,0,0-1.279,1.854c4.7,3.395,13.467,5.68,23.517,5.68a52.3,52.3,0,0,0,18.61-3.09c-3.29-4.416-10.194-10.405-13.688-10.824C239.094,832.078,219.225,836.27,216.491,839Z" transform="translate(-166.362 -798.568)" fill="#a5993f"/><path d="M213.672,880.2c6.1-19.763,15.129-36,2.817-42.315-2.466.8-3.472,1.318-4.184,2.031-2.734,2.734-28.731,52.355-19.616,74.958l9.641-3.333C207.883,904.822,209.911,892.383,213.672,880.2Z" transform="translate(-162.177 -799.477)" fill="#a5993f"/><path d="M195.812,930.689c7.171,6.868,37.373,6.79,37.373,6.79l19.2,50.068s5.784-60.863.3-70c-2.187-3.646-30.1-10.92-35.181-11.484C202.192,904.363,184.884,920.222,195.812,930.689Z" transform="translate(-162.454 -811.126)" fill="#baab43"/><path d="M240.841,931.2l13.076-8.815a14.31,14.31,0,0,0-1.411-4.673c-2.187-3.646-35.814-10.13-40.892-10.694-15.312-1.7-26.908,13.367-15.981,23.834,7.171,6.868,37.373,6.79,37.373,6.79l18.049,47.076Z" transform="translate(-162.276 -811.288)" fill="#a5993f"/><path d="M211.221,840.332c-17.7-.192-35.181,36.822-22.421,55.415,3.433,5,16.952,4.375,16.952,4.375L217.6,882.257s-7.838-1.459-6.38-9.479S227.991,840.514,211.221,840.332Z" transform="translate(-161.092 -799.896)" fill="#eadc96"/><path d="M207.94,894.167c-8.221,0-13.527-12.079-11.848-26.978,1.561-13.87,8.624-25.289,16.225-26.8-.351-.029-.712-.05-1.1-.054-17.7-.192-35.181,36.822-22.421,55.415,3.433,5,16.952,4.375,16.952,4.375l4.1-6.177A8.734,8.734,0,0,1,207.94,894.167Z" transform="translate(-161.092 -799.896)" fill="#dbc97d"/><path d="M254.761,863.5s4-11.606,3.116-21.538c-3.547-4.269-9.706-9.607-12.959-10-2.715-.326-13.733,1.823-20.177,4.118,10.789,4.177,3.589,25.23,3.589,25.23Z" transform="translate(-167.994 -798.458)" fill="#eadc96"/><path d="M257.877,841.965c-3.548-4.269-9.706-9.607-12.959-10-2.715-.326-13.732,1.823-20.177,4.118,3.972,1.537,5.5,5.363,5.854,9.584a61.593,61.593,0,0,0,9.765.759,53.683,53.683,0,0,0,17.621-2.719C257.961,843.124,257.928,842.542,257.877,841.965Z" transform="translate(-167.994 -798.458)" fill="#dbc97d"/><path d="M223.28,913.789v2.187l25.155,4.739,25.4-6.927Z" transform="translate(-167.743 -812.469)" fill="#f4f0e6"/><path d="M223.28,914.078v1.948l25.155,4.739,3.667-1Z" transform="translate(-167.743 -812.519)" fill="#e2e0d9"/><path d="M246.056,819.3l-7.741,11.629c4.1,10.177,15.671,8.172,17.034,3.893l1.006-8.936Z" transform="translate(-170.317 -796.296)" fill="#d27558"/><path d="M236.915,833.013l2.48-2.074c6.776,7.211,12.892,8.15,16.174,4.2l.243,2.248a11.079,11.079,0,0,1-3.4,4.314l-1.58-1.276-1.58,2.309S240.135,841.58,236.915,833.013Z" transform="translate(-170.077 -798.288)" fill="#eadc96"/><path d="M250.262,808.12c-2.306,4.491-4.77,17.469-4.77,18.563s11.864,8.142,13.657,4.29c.548-1.178,6.541-17.175,6.454-20.638S252.451,803.859,250.262,808.12Z" transform="translate(-171.546 -794.024)" fill="#edb984"/><path d="M263.877,814.5c.418,0,.833.007,1.246.02a18.214,18.214,0,0,0,.8-4.186c-.088-3.464-13.153-6.475-15.341-2.215a53.733,53.733,0,0,0-3.206,10.364C251.484,816.035,257.355,814.5,263.877,814.5Z" transform="translate(-171.869 -794.024)" fill="#e79b69"/><path d="M273.775,1004.441H261.987s2.27-6.846,2.753-6.136C266.807,1001.344,273.775,1004.441,273.775,1004.441Z" transform="translate(-174.369 -826.927)" fill="#efe8c5"/><path d="M327.291,1004.354H315.5s1.948-7.273,2.431-6.562C320,1000.83,327.291,1004.354,327.291,1004.354Z" transform="translate(-183.529 -826.84)" fill="#efe8c5"/><path d="M254.633,805.473c-.318.56-3.342,12.942-3.342,12.942l-4.579-.273,1.592-12.031Z" transform="translate(-171.754 -793.929)" fill="#725249"/><path d="M265.884,808.041l-24.183-.425s-2.917-15.434,11-16.041C263.582,791.1,267.16,796.254,265.884,808.041Z" transform="translate(-170.853 -791.545)" fill="#f4eccb"/><path d="M249.714,807.721c-2.368-6.763-.231-13.664,4.773-15.417,2.811-.985,5.929-.134,8.542,2-2.169-2.055-5.542-2.937-10.33-2.728-13.914.607-11,16.041-11,16.041l8.027.141Z" transform="translate(-170.853 -791.545)" fill="#eae1b9"/><path d="M268.342,812.5c-6.684.972-20.345-1.61-20.345-1.61l19.251-.76S271.153,812.089,268.342,812.5Z" transform="translate(-171.974 -794.726)" fill="#fff9e1"/><path d="M216.128,840.332a13.381,13.381,0,0,0-3.038.329c2.119,2.254,5.908,4.154,10.733,5.437C223.38,842.695,221.255,840.387,216.128,840.332Z" transform="translate(-165.999 -799.896)" fill="#dbc97d"/><path d="M228.433,871.782l25.312,1.8-1.454,4.382-12.555,3.8-12.415-5.708Z" transform="translate(-168.435 -805.279)" fill="#ccb64c"/><path d="M212.5,885.534s-18.6-3.409-23.341,18.92c0,0,4.83,8.021,20.963,3.372l5.559-19.778Z" transform="translate(-161.902 -807.601)" fill="#646393"/><path d="M206.8,898.135a13.64,13.64,0,0,1-8.538-8.484c-3.828,2.714-7.386,7.42-9.109,15.54,0,0,4.83,8.021,20.963,3.373l2.751-9.788A13.771,13.771,0,0,1,206.8,898.135Z" transform="translate(-161.902 -808.338)" fill="#4e4e7a"/><path d="M239.389,910.137c-15.567.85-40.016-.913-42.7-3.1s7.914-23.032,17.806-19.952c12.859,4,27.954,10.285,27.954,10.285Z" transform="translate(-163.12 -807.845)" fill="#edb984"/><g transform="translate(69.413 88.228)"><path d="M257.562,900.642a5.931,5.931,0,0,1,2.374,4.975,3.682,3.682,0,0,1-2.508,3.471c-.734.147-2.985-.795-1.974-2.731s-.394-2.729-.394-2.729Z" transform="translate(-242.596 -898.447)" fill="#edb984"/><path d="M255.453,899.635c-2.569-3.088-10.669-1.2-13.971.607s-.255,10.379,1.8,11.43,4.67,1.026,6.18-.839,3.789-.233,4.557-.73C255.941,908.861,257.079,901.589,255.453,899.635Z" transform="translate(-240.022 -897.993)" fill="#edb984"/><path d="M257.747,906.7a5.835,5.835,0,0,1,.469,5.459,3.691,3.691,0,0,1-3.6,2.329c-.743-.125-2.529-1.8-.889-3.236s.6-2.67.6-2.67Z" transform="translate(-242.254 -899.483)" fill="#edb984"/></g><path d="M201.172,896.316c-3.728,5.2-5.854,11.231-4.479,12.354,2.68,2.187,27.128,3.951,42.7,3.1C239.389,911.77,214.646,905.694,201.172,896.316Z" transform="translate(-163.121 -809.478)" fill="#e79b69"/><ellipse cx="4.51" cy="3.793" rx="4.51" ry="3.793" transform="translate(88.993 15.512) rotate(-84.405)" fill="#eae1b9"/><path d="M271.68,804.709c.095-1.845-1.018-3.323-2.486-3.3s-2.735,1.535-2.83,3.38,1.018,3.323,2.486,3.3S271.585,806.554,271.68,804.709Z" transform="translate(-175.117 -793.233)" fill="#fff9e1"/><path d="M226.513,870.214c.334-.923.008-1.762-.727-1.873a2.031,2.031,0,0,0-1.935,1.469c-.333.923-.008,1.762.727,1.873A2.031,2.031,0,0,0,226.513,870.214Z" transform="translate(-167.819 -804.688)" fill="#dbc97d"/><path d="M263.791,873.073c.334-.923.008-1.762-.727-1.873a2.031,2.031,0,0,0-1.935,1.469c-.333.923-.007,1.762.727,1.873A2.03,2.03,0,0,0,263.791,873.073Z" transform="translate(-174.2 -805.177)" fill="#dbc97d"/><path d="M245.287,811.031l-1.849.041c-5.8,7.231-4.2,12.092-4.2,12.092l1.521.425S239.081,820.065,245.287,811.031Z" transform="translate(-170.44 -794.88)" fill="#f9c043"/><path d="M246.87,809.8A1.9,1.9,0,1,0,245,812,2.056,2.056,0,0,0,246.87,809.8Z" transform="translate(-171.141 -794.292)" fill="#eae1b9"/><path d="M245.791,809.95a1.176,1.176,0,1,0-1.14,1.47A1.336,1.336,0,0,0,245.791,809.95Z" transform="translate(-171.207 -794.444)" fill="#fff9e1"/><g transform="translate(75.414 18.91)"><path d="M260.321,814.732l-3.552-.369a.508.508,0,0,0-.575.459l-.071,1.074a.555.555,0,0,0,.507.572l3.552.369a.508.508,0,0,0,.575-.459l.071-1.073A.556.556,0,0,0,260.321,814.732Z" transform="translate(-248.779 -814.36)" fill="#725249"/><path d="M268.073,817.315l-3.18-1.354a.491.491,0,0,0-.663.279l-.371,1.013a.556.556,0,0,0,.306.693l3.18,1.354a.491.491,0,0,0,.662-.279l.372-1.013A.556.556,0,0,0,268.073,817.315Z" transform="translate(-250.098 -814.627)" fill="#725249"/><path d="M260.62,821.427c.188,1.883.07,3.28-.869,3.552a2.046,2.046,0,0,1-1.686-.493l-.031.037s1.32,1.475,2.375,1.244C261.437,825.543,261.2,823.749,260.62,821.427Z" transform="translate(-249.106 -815.57)" fill="#d27558"/><path d="M259.721,829.526l-4.835-2.7a3.1,3.1,0,0,0,1.056,3.617C257.9,832.192,259.721,829.526,259.721,829.526Z" transform="translate(-248.532 -816.494)" fill="#3e2d34"/><path d="M258.334,830.484a3.652,3.652,0,0,0,.932-.9l-3.9-2.181a2.281,2.281,0,0,0-.133,1.264Z" transform="translate(-248.62 -816.593)" fill="#f9eddb"/><path d="M266.175,820.952a3.872,3.872,0,0,1-.112.757c-.351,1.363-1.337,2.323-2.2,2.146s-1.279-1.425-.927-2.787a3.97,3.97,0,0,1,.346-.88Z" transform="translate(-249.924 -815.358)" fill="#5a4949"/><path d="M259.152,819.023a3.817,3.817,0,0,1-.111.757c-.351,1.363-1.337,2.322-2.2,2.146s-1.278-1.425-.927-2.787a3.977,3.977,0,0,1,.346-.88Z" transform="translate(-248.722 -815.027)" fill="#5a4949"/><rect width="4.158" height="0.414" transform="translate(13.531 6.064) rotate(-165.184)" fill="#5a4949"/><rect width="8.917" height="0.633" transform="translate(8.621 4.676) rotate(-165.182)" fill="#5a4949"/></g><path d="M248.751,817.687c-.141-1.857-1.083-3.3-2.1-3.222s-1.733,1.646-1.592,3.5,1.082,3.3,2.1,3.222S248.892,819.544,248.751,817.687Z" transform="translate(-171.468 -795.467)" fill="#edb984"/><path d="M248.11,818.284c-.145-1.145-.772-2.008-1.4-1.929s-1.021,1.073-.877,2.217.772,2.007,1.4,1.928S248.255,819.428,248.11,818.284Z" transform="translate(-171.599 -795.791)" fill="#d27558"/><path d="M247.96,819.81c-.083-.651-.439-1.141-.8-1.1s-.581.609-.5,1.26.438,1.141.8,1.1S248.042,820.46,247.96,819.81Z" transform="translate(-171.743 -796.195)" fill="#edb984"/><path d="M253.63,914.165l40.1.122,18.957-38.766H268.577Z" transform="translate(-172.938 -805.919)" fill="#f4f0e6"/><path d="M262.846,914.165l22.377.122,22.056-38.766H291.725Z" transform="translate(-174.516 -805.919)" fill="#eae5dc"/><path d="M270.6,875.521h-2.027L253.63,914.165l2.025.006Z" transform="translate(-172.938 -805.919)" fill="#e2e0d9"/><path d="M296.24,897.024c1.018-3.171-.307-5.742-2.957-5.742s-5.624,2.571-6.641,5.742.306,5.742,2.956,5.742S295.222,900.2,296.24,897.024Z" transform="translate(-178.53 -808.617)" fill="#fffaee"/><path d="M294.258,890.843a6.54,6.54,0,0,0-4.01,1.648,5.8,5.8,0,0,1,2.826-.829c2.819,0,4.226,2.734,3.145,6.107a9.77,9.77,0,0,1-3.054,4.458,9.638,9.638,0,0,0,4.239-5.278C298.485,893.577,297.077,890.843,294.258,890.843Z" transform="translate(-179.206 -808.542)" fill="#e2e0d9"/></g><g transform="translate(113.96 886.214)"><path d="M120.5,921.575h0a2.621,2.621,0,0,0,.278,3.726l47.8,44.981,1.257-1.273-45.6-47.205A2.62,2.62,0,0,0,120.5,921.575Z" transform="translate(-119.847 -920.899)" fill="#6d4545"/><path d="M193.221,951.275,173.6,973.882l-22.35,19.91.659.65,26.815-15.5,15.005-27.159Z" transform="translate(-125.223 -926.099)" fill="#9e9396"/><path d="M196.533,951.275l-19.617,22.607-6.312,5.623a38.028,38.028,0,0,0,7.1,1.943l4.338-2.508,15.005-27.159Z" transform="translate(-128.535 -926.099)" fill="#ada3a6"/><path d="M130.707,1002.61h61.247s-35.545-12.213-40.1-11.848S131.254,995.866,130.707,1002.61Z" transform="translate(-121.706 -932.857)" fill="#847276"/><path d="M153.131,990.762a45.572,45.572,0,0,0-14.954,4.97c14.372,2.413,32.855,5.237,36.309,4.433a36.4,36.4,0,0,0,5.535-1.964C169.4,994.744,155.83,990.546,153.131,990.762Z" transform="translate(-122.984 -932.857)" fill="#918387"/><path d="M157.526,956.27l-33.3-34.466a2.48,2.48,0,1,0-3.452,3.5l33.583,31.6C155.45,956.735,156.509,956.526,157.526,956.27Z" transform="translate(-119.847 -920.899)" fill="#895858"/></g></g></g></svg>