<svg xmlns="http://www.w3.org/2000/svg" width="130" height="130" viewBox="0 0 130 130"><g transform="translate(-473 -7422.784)"><g transform="translate(0 -83.216)"><circle cx="53" cy="53" r="53" transform="translate(485 7521)" fill="#ffe9e1"/><g transform="translate(153 -27)"><g transform="translate(-509.541 6351.509)"><path d="M890.869,1270.775q-20.024,0-40.049-.021c-.886,0-1.2.17-1.144,1.112.086,1.562.05,3.134.009,4.7a5.58,5.58,0,0,1-11.152.039c-.059-6.267-.03-12.536-.014-18.8a1.8,1.8,0,0,1,1.9-1.937c.364-.019.729-.007,1.094-.007q24.073,0,48.146.026c1,0,1.237-.27,1.171-1.207a31.068,31.068,0,0,1,0-3.605c.031-.667-.147-.869-.838-.852-2.042.05-4.085.021-6.127.017-1.747,0-2.409-.636-2.411-2.346q-.011-10.713,0-21.427c0-1.67.648-2.318,2.312-2.327,2.553-.013,5.107-.024,7.659.012a1.069,1.069,0,0,0,1.142-.737c3.818-8.048,10.217-12.181,19.112-12.324,6.053-.1,12.109-.035,18.163-.015a20.5,20.5,0,0,1,20.731,20.721q.027,9.128,0,18.257a20.532,20.532,0,0,1-20.747,20.72C916.838,1270.8,903.853,1270.775,890.869,1270.775Zm-48.419-11.139c-.171-.022-.207.068-.18.212q.005,3.5.011,7c-.033.147.018.206.169.163.218.013.435.037.654.037q22.159,0,44.319,0c.254,0,.509-.027.763-.042.615.016,1.233,0,1.845.057s.82-.167.8-.789c-.051-1.556-.039-3.114-.052-4.671q0-.876,0-1.751c.028-.145-.009-.235-.18-.213-.691-.015-1.382-.039-2.073-.042-1.441-.006-1.441,0-1.441,1.431,0,2.3,0,2.242-2.332,2.327-1.106.04-1.49-.216-1.439-1.4.1-2.362.028-2.3-2.353-2.391-1.094-.041-1.411.234-1.367,1.353.1,2.408.027,2.355-2.42,2.434-1.033.033-1.369-.205-1.33-1.292.088-2.469.024-2.414-2.477-2.494-1.033-.033-1.258.3-1.233,1.264.064,2.5.018,2.444-2.455,2.522-1.036.033-1.371-.213-1.334-1.3.085-2.466.022-2.426-2.475-2.485-.927-.022-1.25.168-1.221,1.176.075,2.585.018,2.535-2.588,2.607-.99.027-1.214-.265-1.191-1.213.064-2.561.018-2.53-2.607-2.566-.829-.012-1.124.171-1.11,1.067.045,2.7,0,2.675-2.7,2.7-.791.009-1.092-.155-1.057-1.01.037-.887.432-2.112-.191-2.59-.58-.445-1.747-.086-2.648-.167-.793-.072-.867.314-.872.959-.006.9.418,2.087-.174,2.616-.625.557-1.81.1-2.746.18-.6.052-.82-.139-.823-.778,0-.967.457-2.326-.2-2.8-.675-.489-1.956-.142-2.973-.157A2.471,2.471,0,0,0,842.45,1259.636Zm52.306,7.374,1.971-.008c.291.016.581.045.871.045,10.757,0,21.513.026,32.27-.006a16.818,16.818,0,0,0,16.972-17.021c.017-6.084,0-12.167.006-18.251a17.826,17.826,0,0,0-.673-4.85c-1.665-5.954-7.242-11.038-12.87-11.744a10.953,10.953,0,0,0-3.342-.379q-9.4,0-18.808,0a15.215,15.215,0,0,0-3.254.336,16.685,16.685,0,0,0-13.349,16.547c-.032,11.471-.008,22.941-.007,34.412,0,.254.027.508.041.762C894.565,1266.984,894.614,1267.046,894.755,1267.01Zm-9.6-29.9c0,2.8.021,5.6-.014,8.4-.009.731.161,1.051.963,1.01a34.369,34.369,0,0,1,3.711,0c.857.05,1.006-.283,1.018-1.063.09-5.594-.286-11.2.209-16.783.059-.658-.234-.8-.819-.793-1.383.027-2.768.042-4.15-.005-.723-.025-.94.23-.932.939C885.176,1231.585,885.157,1234.349,885.157,1237.114Zm-39.191,36.792h-.078c0-1.009.375-2.3-.109-2.944-.455-.608-1.833-.126-2.8-.186-.036,0-.073,0-.109,0-.445-.055-.649.083-.64.588.029,1.671-.02,3.344.027,5.015a1.853,1.853,0,1,0,3.706-.073C845.988,1275.505,845.966,1274.7,845.966,1273.905Z" fill="#020201"/><path d="M1007.846,1220.479c5.628.707,11.2,5.79,12.87,11.744a17.826,17.826,0,0,1,.673,4.849c-.007,6.083.01,12.167-.006,18.251a16.818,16.818,0,0,1-16.972,17.021c-10.756.032-21.513.008-32.27.006-.29,0-.581-.029-.871-.045a1.089,1.089,0,0,1,.656-.808,57.253,57.253,0,0,0,5.347-3.69c2.067-1.517,3.942-3.264,5.922-4.885a21.83,21.83,0,0,0,9.919,3.724,20.55,20.55,0,0,0,21.269-27.839,21.05,21.05,0,0,0-9.2-10.607c.413-.149.442-.545.556-.879C1006.514,1225.063,1007.25,1222.792,1007.846,1220.479Z" transform="translate(-74.543 -5.303)" fill="#cd504b"/><path d="M1005.039,1219.988c-.6,2.313-1.332,4.584-2.1,6.843-.114.334-.143.73-.556.879a21.629,21.629,0,0,0-11.149-2.464,20.548,20.548,0,0,0-18.06,27.659,21.762,21.762,0,0,0,7.217,9.525c-1.98,1.621-3.855,3.367-5.922,4.885a57.238,57.238,0,0,1-5.347,3.69,1.09,1.09,0,0,0-.657.808l-1.971.008-.171-.161c-.014-.254-.041-.508-.041-.762,0-11.471-.025-22.941.007-34.412a16.685,16.685,0,0,1,13.349-16.547,15.208,15.208,0,0,1,3.254-.336q9.4.015,18.808,0A10.953,10.953,0,0,1,1005.039,1219.988Z" transform="translate(-71.736 -4.812)" fill="#d65954"/><path d="M847.109,1328.881q-.005-3.5-.01-7l.18-.212a2.41,2.41,0,0,1,.324-.039c1.016.015,2.3-.332,2.973.157.655.474.193,1.833.2,2.8,0,.639.22.831.823.778.936-.081,2.121.378,2.746-.18.592-.529.168-1.719.175-2.616,0-.645.079-1.03.872-.959.9.081,2.068-.278,2.648.167.623.478.228,1.7.191,2.59-.036.855.266,1.019,1.057,1.01,2.7-.029,2.743,0,2.7-2.7-.015-.9.281-1.078,1.109-1.067,2.624.036,2.671.005,2.607,2.566-.023.948.2,1.24,1.191,1.213,2.606-.072,2.663-.022,2.589-2.607-.029-1.007.294-1.2,1.221-1.176,2.5.059,2.56.019,2.475,2.485-.037,1.084.3,1.33,1.334,1.3,2.473-.078,2.519-.025,2.455-2.522-.025-.968.2-1.3,1.233-1.264,2.5.08,2.566.026,2.477,2.494-.039,1.087.3,1.326,1.33,1.292,2.448-.079,2.517-.027,2.42-2.434-.045-1.119.273-1.394,1.367-1.353,2.38.089,2.455.03,2.353,2.392-.051,1.18.333,1.436,1.439,1.4,2.33-.084,2.332-.025,2.332-2.327,0-1.432,0-1.437,1.441-1.431.691,0,1.382.027,2.073.042l.18.213q0,.876,0,1.751a34.469,34.469,0,0,0-2.591,5.4c-.254.015-.509.042-.763.042q-22.159,0-44.319,0c-.218,0-.436-.024-.653-.037Z" transform="translate(-4.829 -62.036)" fill="#f3b64e"/><path d="M944.87,1258.682c0-2.764.019-5.529-.013-8.292-.008-.708.208-.964.932-.939,1.382.047,2.767.032,4.15.005.585-.011.878.135.819.793-.5,5.588-.119,11.189-.209,16.783-.013.78-.162,1.113-1.018,1.063a34.338,34.338,0,0,0-3.711,0c-.8.04-.971-.279-.963-1.011C944.891,1264.283,944.87,1261.482,944.87,1258.682Z" transform="translate(-59.713 -21.568)" fill="#3f4c5f"/><path d="M850.741,1350.224c0,.8.022,1.6-.005,2.4a1.853,1.853,0,1,1-3.706.073c-.047-1.67,0-3.344-.027-5.015-.009-.5.195-.643.64-.588.036,0,.073,0,.109,0,.97.06,2.347-.422,2.8.186.484.646.109,1.936.109,2.945Z" transform="translate(-4.775 -76.319)" fill="#dddddb"/><path d="M951.793,1331.738a34.464,34.464,0,0,1,2.591-5.4c.013,1.557,0,3.115.052,4.671.021.622-.182.845-.8.789S952.408,1331.754,951.793,1331.738Z" transform="translate(-63.608 -64.735)" fill="#dc9f42"/><path d="M847.268,1321.851l-.18.213C847.061,1321.919,847.1,1321.828,847.268,1321.851Z" transform="translate(-4.819 -62.215)" fill="#dc9f42"/><path d="M957.483,1322.064l-.18-.213C957.474,1321.829,957.511,1321.92,957.483,1322.064Z" transform="translate(-66.702 -62.216)" fill="#dc9f42"/><path d="M847.111,1338.294l.169.163C847.129,1338.5,847.077,1338.441,847.111,1338.294Z" transform="translate(-4.83 -71.449)" fill="#dc9f42"/><path d="M966.38,1338.3l.171.161C966.409,1338.5,966.36,1338.437,966.38,1338.3Z" transform="translate(-71.795 -71.453)" fill="#cd504b"/><path d="M987.537,1269.616a21.763,21.763,0,0,1-7.217-9.525,20.549,20.549,0,0,1,18.06-27.659,21.628,21.628,0,0,1,11.149,2.464,21.049,21.049,0,0,1,9.2,10.607,20.55,20.55,0,0,1-21.268,27.839A21.827,21.827,0,0,1,987.537,1269.616Zm12.08-33.482a16.775,16.775,0,1,0,16.743,16.841A16.727,16.727,0,0,0,999.617,1236.134Z" transform="translate(-78.886 -11.997)" fill="#030202"/><path d="M1004.463,1240.912a16.775,16.775,0,1,1-16.828,16.757A16.729,16.729,0,0,1,1004.463,1240.912Zm-2.641,4.041a7.909,7.909,0,0,0-4.118,1.715,5.5,5.5,0,0,0-2.584,1.979,12.33,12.33,0,0,0-3.6,10.984,6.443,6.443,0,0,0,1.2,3.52,3.716,3.716,0,0,0,.242.823,13.093,13.093,0,0,0,21.777,1.7,12.358,12.358,0,0,0,2.631-9.81,12.779,12.779,0,0,0-8.086-10.306A12.114,12.114,0,0,0,1001.822,1244.953Z" transform="translate(-83.731 -16.775)" fill="#c9c9c7"/><path d="M1001.631,1253.408a5.5,5.5,0,0,1,2.584-1.979,15.29,15.29,0,0,0,1.57,2.463c1.017,1.091,1.737-.568,2.706-.472.519.051.522-.3.425-.726-.225-.987-.393-1.986-.584-2.98a12.115,12.115,0,0,1,7.463.6,12.779,12.779,0,0,1,8.086,10.306,12.359,12.359,0,0,1-2.631,9.81,13.093,13.093,0,0,1-21.777-1.7,3.707,3.707,0,0,1-.242-.823c.822-.386,1.628-.812,2.471-1.146.605-.24.706-.487.472-1.128a9.52,9.52,0,0,1,.3-7.218c.41-.971,1.795-1.661,1.4-2.684C1003.518,1254.811,1002.409,1254.173,1001.631,1253.408Z" transform="translate(-90.242 -21.536)" fill="#d5d5d3"/><path d="M999.922,1258.551c.778.765,1.887,1.4,2.244,2.328.394,1.023-.99,1.714-1.4,2.685a9.519,9.519,0,0,0-.3,7.218c.234.641.133.888-.472,1.127-.842.334-1.649.759-2.471,1.146a6.443,6.443,0,0,1-1.2-3.52A12.33,12.33,0,0,1,999.922,1258.551Z" transform="translate(-88.532 -26.678)" fill="#030303"/><path d="M1014.713,1250.127c.191.994.359,1.994.584,2.981.1.428.094.777-.425.726-.969-.1-1.689,1.563-2.706.472a15.291,15.291,0,0,1-1.571-2.463A7.911,7.911,0,0,1,1014.713,1250.127Z" transform="translate(-96.622 -21.949)" fill="#060606"/></g><rect width="130" height="130" transform="translate(320 7533)" fill="none"/></g></g></g></svg>