<svg xmlns="http://www.w3.org/2000/svg" xmlns:xlink="http://www.w3.org/1999/xlink" width="227" height="227" viewBox="0 0 227 227"><defs><clipPath id="a"><ellipse cx="10.668" cy="2.636" rx="10.668" ry="2.636" fill="#e1725c"/></clipPath></defs><g transform="translate(-844 -3487)"><g transform="translate(646 -50)"><rect width="227" height="227" transform="translate(198 3537)" fill="none"/><g transform="translate(140.442 3322.191)"><g transform="translate(69.381 252.145)"><path d="M50.113,424.81s102.693-84.414,203.707,0Z" transform="translate(-50.113 -271.379)" fill="#84deaa"/><g transform="translate(38.424 -1.103)"><g transform="translate(74.491 0)"><g transform="translate(0)"><circle cx="16.376" cy="16.376" r="16.376" transform="translate(0 32.593) rotate(-84.362)" fill="#ffa695"/></g></g><path d="M226.443,280.635H182s.215-2.2,5.152-3.958,8.48,2.748,14.062,0,8.542-6.69,15.733-4.492A15.162,15.162,0,0,1,226.443,280.635Z" transform="translate(-140.004 -263.585)" fill="#adce32"/><path d="M337.168,308.378h-29.56s.143-2.022,3.427-3.64,5.641,2.528,9.354,0,5.681-6.155,10.465-4.133S337.168,308.378,337.168,308.378Z" transform="translate(-184.02 -261.431)" fill="#fff"/></g><g transform="translate(160.274 128.353)"><path d="M285.586,404.929l2.772,21.818h14.947l3.616-21.818Z" transform="translate(-285.586 -402.48)" fill="#ff9285"/><g transform="translate(0)"><ellipse cx="10.668" cy="2.636" rx="10.668" ry="2.636" fill="#e1725c"/><g clip-path="url(#a)"><path d="M288.009,409.843c0-2.643,3.535-4.1,8.622-4.1s9.8,1.454,9.8,4.1-4.124,4.786-9.212,4.786S288.009,412.486,288.009,409.843Z" transform="translate(-285.964 -402.607)" fill="#fff"/></g></g><path d="M294.186,408.849s3.677,10.949,14.076,8.367c0,0,5.6-1.918-.468-8.944" transform="translate(-286.926 -403.001)" fill="none" stroke="#75370f" stroke-linecap="round" stroke-linejoin="round" stroke-width="1.11"/></g></g><g transform="translate(67.308 299.145)"><g transform="translate(2.072 0)"><g transform="translate(39.575 15.452)"><g transform="translate(78.544 31.507)"><path d="M242.813,356.013v59.443h-9.528s-.575-27.788-14.388-41.274Z" transform="translate(-218.897 -356.013)" fill="#162806"/><path d="M241.059,430.088h-6.877s-1.174-5.9,6.877-5.9Z" transform="translate(-222.165 -370.646)" fill="#162806"/></g><ellipse cx="15.854" cy="13.254" rx="15.854" ry="13.254" transform="translate(81.231 46.579)" fill="#ffa695"/><g transform="translate(1.296 31.507)"><path d="M144.453,356.013v59.443h-9.527s-.576-27.788-14.389-41.274Z" transform="translate(-120.537 -356.013)" fill="#162806"/><path d="M142.7,430.088h-6.877s-1.174-5.9,6.877-5.9Z" transform="translate(-123.805 -370.646)" fill="#162806"/></g><path d="M120.41,315.9h94.655c13.655,0,25.332,9.413,27.066,22.08a35.186,35.186,0,0,1-3.221,21.759,47.722,47.722,0,0,1-43.282,26.926H141.8c-15.473,0-23.9-14.049-22.815-28.482Z" transform="translate(-118.887 -315.896)" fill="#fff"/><g transform="translate(99.686 31.507)"><path d="M269.731,356.013v59.443H260.2s-.576-27.788-14.388-41.274Z" transform="translate(-245.816 -356.013)" fill="#fff"/><path d="M267.426,430.088H260.55s-1.174-5.9,6.877-5.9Z" transform="translate(-248.966 -370.646)" fill="#fff"/></g><g transform="translate(20.587 31.507)"><path d="M169.016,356.013v59.443h-9.527s-.576-27.788-14.389-41.274Z" transform="translate(-145.1 -356.013)" fill="#fff"/><path d="M166.711,430.088h-6.877s-1.174-5.9,6.877-5.9Z" transform="translate(-148.25 -370.646)" fill="#fff"/></g><g transform="translate(114.678 13.197)"><path d="M264.906,333.8s15.514-5.111,16.358,6.718,4.113,29.986,18.449,28.662" transform="translate(-264.906 -332.699)" fill="none" stroke="#fff" stroke-miterlimit="10" stroke-width="3.417"/><path d="M306.754,376.428v3.552a1.306,1.306,0,0,0,1.924,1.076l4.012-2.017a1.189,1.189,0,0,0-.123-2.206l-4.012-1.536A1.3,1.3,0,0,0,306.754,376.428Z" transform="translate(-273.888 -341.823)" fill="#162806"/></g><path d="M0,0H32.329a0,0,0,0,1,0,0V0A15.369,15.369,0,0,1,16.96,15.369H15.369A15.369,15.369,0,0,1,0,0V0A0,0,0,0,1,0,0Z" transform="translate(44.503 0)" fill="#162806"/><ellipse cx="8.242" cy="7.707" rx="8.242" ry="7.707" transform="translate(20.19 27.676)" fill="#162806"/><ellipse cx="6.283" cy="5.875" rx="6.283" ry="5.875" transform="translate(97.439 22.891)" fill="#162806"/></g><path d="M92.885,315.483s-18.192-3.7-24.388,5.388c0,0,8.041,11.867,24.388.855Z" transform="translate(-68.497 -300.196)" fill="#98b4bc"/><path d="M129.108,315.483s18.191-3.7,24.388,5.388c0,0-8.042,11.867-24.388.855Z" transform="translate(-81.506 -300.196)" fill="#98b4bc"/><path d="M100.552,303.127H93.031a6.8,6.8,0,0,1-5.075-6.906s-9.812,14.185,8.543,15.288Z" transform="translate(-72.111 -296.221)" fill="#d2b8aa"/><path d="M124.367,303.127h7.521a6.8,6.8,0,0,0,5.075-6.906s9.812,14.185-8.543,15.288Z" transform="translate(-80.489 -296.221)" fill="#d2b8aa"/><path d="M123.656,313.674c-.262-8.659-5.1-8.659-5.1-8.659h-15.7s-4.842,0-5.1,8.659-1.7,8.066-1.7,14.828c0,4.975,2.9,23.221,8.14,31.365a7.894,7.894,0,0,0,13.032,0c5.235-8.144,8.14-26.39,8.14-31.365C125.358,321.74,123.919,322.333,123.656,313.674Z" transform="translate(-74.41 -298.109)" fill="#fff"/><path d="M96.262,329.6s10.422,5.5,11.2,24.805l-6.241,4.67s-4.3-8.68-5.385-25.209C95.841,333.864,95.743,329.87,96.262,329.6Z" transform="translate(-74.364 -303.385)" fill="#162806"/><path d="M129.761,329.6s-10.422,5.5-11.2,24.805l6.27,4.879s4.367-8.855,5.457-25.384C130.282,333.9,130.28,329.87,129.761,329.6Z" transform="translate(-79.241 -303.385)" fill="#162806"/><g transform="translate(26.46 50.793)"><path d="M102.441,370.685h19.578s3.2-9.76-9.669-9.79C99.69,360.865,102.441,370.685,102.441,370.685Z" transform="translate(-102.188 -360.895)" fill="#ffa695"/><path d="M108.318,368.822a1.285,1.285,0,1,1-1.275-1.116A1.2,1.2,0,0,1,108.318,368.822Z" transform="translate(-102.957 -362.357)" fill="#162806"/><path d="M123.313,368.822a1.285,1.285,0,1,1-1.275-1.116A1.2,1.2,0,0,1,123.313,368.822Z" transform="translate(-106.175 -362.357)" fill="#162806"/></g></g><g transform="translate(89.376 30.821)"><g transform="translate(22.197)"><path d="M217.84,355.288l-3.638,4.378-6.278-2.771L214,349.854Z" transform="translate(-207.924 -338.554)" fill="#ffbe9e"/><path d="M216.181,352.524c.032.262.434,6.943.434,6.943l3-3.606Z" transform="translate(-209.696 -339.127)" fill="#ffa687"/><g transform="translate(5.573 3.65)"><path d="M219.193,355.159h0a4.279,4.279,0,0,0,5.838-1.59l2.835-4.957a4.491,4.491,0,0,0-1.669-6.127l-3.109-1.779a4.491,4.491,0,0,0-6.128,1.669l-.845,1.478A8.285,8.285,0,0,0,219.193,355.159Z" transform="translate(-215.02 -340.113)" fill="#ffbe9e"/><path d="M228.942,353.776l.214,2.1c.028.281-.306.407-.613.231l-.885-.507Z" transform="translate(-217.732 -343.045)" fill="#ffbe9e"/></g><path d="M219.67,349.423l.347-1.26,3.028,1.167.84-1.674s2.612.558,3.855-1.4c.69-1.085-.612-3.166-.612-3.166l-11.618-1.945s-1.976,2.766-1.692,8.586C213.818,349.732,216.1,351.239,219.67,349.423Z" transform="translate(-209.183 -336.685)"/><g transform="translate(8.978 9.547)"><path d="M219.38,349.428a1.788,1.788,0,1,0,2.038-1.791A1.929,1.929,0,0,0,219.38,349.428Z" transform="translate(-219.356 -347.622)" fill="#ffbe9e"/></g><g transform="translate(1.477)"><g transform="translate(4.015)"><path d="M214.917,341.588l14.221,4.707s2.024-7.968-4.876-10.291C216.271,333.314,214.917,341.588,214.917,341.588Z" transform="translate(-214.917 -335.465)" fill="#ffac33"/></g><path d="M232.077,348.808a.337.337,0,0,1-.1-.014l-21.945-6.731a.326.326,0,0,1,.191-.624l21.946,6.731a.326.326,0,0,1-.1.638Z" transform="translate(-209.805 -336.744)" fill="#ffc05c"/></g></g><g transform="translate(0 40.704)"><g transform="translate(0.662)"><g transform="translate(14.533 9.054)"><g transform="translate(0 16.256)"><g transform="translate(0.087)"><g transform="translate(0 1.928)"><path d="M201.118,421.975h7.357l5.976,2.5a3.56,3.56,0,0,1,1.934,3.167H199.119l1.312-5.042A.69.69,0,0,1,201.118,421.975Z" transform="translate(-199.119 -421.975)"/></g><path d="M210.7,421.717l-1.23-1.667a1.292,1.292,0,0,0-1.274-.508c-.705.134-1.553.631-1.421,2.274Z" transform="translate(-200.759 -419.52)"/></g><rect width="17.351" height="0.943" transform="translate(17.351 8.542) rotate(180)"/><rect width="7.923" height="1.343" transform="translate(7.923 8.941) rotate(180)"/><rect width="3.583" height="1.343" transform="translate(17.351 8.941) rotate(180)"/><rect width="3.583" height="1.343" transform="translate(12.637 8.941) rotate(180)"/></g><g transform="translate(0.379)"><path d="M207.533,398.833h-1.995l-.865,2.51-5.183,16.123h10.653L215.25,402.8C216.782,398.406,212.187,398.833,207.533,398.833Z" transform="translate(-199.491 -398.822)"/></g></g><g transform="translate(28.665 25.307)"><g transform="translate(0.086)"><g transform="translate(0 1.928)"><path d="M219.112,421.971h7.357l5.975,2.5a3.561,3.561,0,0,1,1.934,3.167H217.113l1.312-5.041A.69.69,0,0,1,219.112,421.971Z" transform="translate(-217.113 -421.971)" fill="#9f422b"/></g><path d="M228.694,421.713l-1.231-1.667a1.29,1.29,0,0,0-1.274-.508c-.705.134-1.553.631-1.422,2.273Z" transform="translate(-218.753 -419.516)" fill="#ba5c42"/></g><rect width="17.351" height="0.943" transform="translate(17.351 8.542) rotate(180)"/><rect width="7.923" height="1.343" transform="translate(7.923 8.941) rotate(180)"/><rect width="3.583" height="1.343" transform="translate(17.351 8.941) rotate(180)"/><rect width="3.583" height="1.343" transform="translate(12.637 8.941) rotate(180)"/></g><path d="M203.339,387.293h16.989a6.763,6.763,0,0,1,6.387,8.988L220.2,414.988H209.548l5.183-16.123H187.114a6.222,6.222,0,0,1-5.325-2.911c-1.37-2.238-2.275-5.476.659-8.661Z" transform="translate(-180.503 -387.293)" fill="#7292ff"/></g><g transform="translate(0 11.572)"><g transform="translate(0 1.757)"><line y2="21.402" transform="translate(10.661)" fill="none" stroke="#501919" stroke-miterlimit="10" stroke-width="1.066"/><line x1="6.838" y2="21.402" fill="none" stroke="#501919" stroke-miterlimit="10" stroke-width="1.066"/><line x2="6.838" y2="21.402" transform="translate(14.506)" fill="none" stroke="#501919" stroke-miterlimit="10" stroke-width="1.066"/></g><path d="M198.744,405.543H182.261a1.757,1.757,0,0,1-1.757-1.758h0a1.757,1.757,0,0,1,1.757-1.758h16.483a1.758,1.758,0,0,1,1.758,1.758h0A1.758,1.758,0,0,1,198.744,405.543Z" transform="translate(-179.842 -402.028)" fill="#ffc05e"/></g></g><g transform="translate(2.607 17.103)"><path d="M213.584,365.1s-1.3-6.336-9.713-7.624-10.792,2.951-14.159,7.011-6.732,16.355-6.732,16.355h20.891Z" transform="translate(-182.98 -357.242)" fill="#ffc05e"/><g transform="translate(21.908 4.891)"><path d="M218.559,363.469l9.765,18.71h-9.4l-6.065-10.693Z" transform="translate(-211.301 -363.469)" fill="#ffc05e"/><line x1="3.484" y1="6.181" transform="translate(0 5.234)" fill="none" stroke="#ffac33" stroke-miterlimit="10" stroke-width="0.761"/></g></g></g><line x2="207.5" transform="translate(0 106.086)" fill="none" stroke="#b6958e" stroke-miterlimit="10" stroke-width="1.015"/></g></g></g></g></svg>