<svg xmlns="http://www.w3.org/2000/svg" width="607.289" height="129.177" viewBox="0 0 607.289 129.177"><g transform="translate(-539.711 -8772)"><g transform="translate(540.711 8783.087)"><text transform="translate(122.645 8.574)" fill="#12263f" font-size="16" font-family="Roboto-Bold, Roboto" font-weight="700"><tspan x="-5.383" y="17">A</tspan></text><text transform="translate(122.645 79.574)" fill="#12263f" font-size="16" font-family="Roboto-Regular, Roboto"><tspan x="-4.352" y="17">a</tspan></text><text transform="translate(52.645 8.574)" fill="#12263f" font-size="16" font-family="Roboto-Regular, Roboto"><tspan x="-4.488" y="17">b</tspan></text><text transform="translate(192.645 8.574)" fill="#12263f" font-size="16" font-family="Roboto-Regular, Roboto"><tspan x="-4.188" y="17">c</tspan></text><text transform="translate(206.645 49.574)" fill="#12263f" font-size="16" font-family="Roboto-Bold, Roboto" font-weight="700"><tspan x="-5.105" y="17">B</tspan></text><text transform="translate(38.645 49.574)" fill="#12263f" font-size="16" font-family="Roboto-Bold, Roboto" font-weight="700"><tspan x="-5.234" y="17">C</tspan></text><path d="M-4123.421-2513.76s7.814,3.864,15.716,0" transform="translate(4246.341 2518.324)" fill="none" stroke="#16263d" stroke-width="2"/><path d="M-4005.323-2457.407a11.771,11.771,0,0,0-7.961,11.97" transform="translate(4243.063 2519.476)" fill="none" stroke="#16263d" stroke-width="2"/><path d="M7.085,0A10.461,10.461,0,0,0,.01,10.638" transform="translate(26.767 70.497) rotate(150)" fill="none" stroke="#16263d" stroke-width="2"/><path d="M-3982.773-2442.818l-92.244-52.921-36.811-21.118-130.234,74.039Z" transform="translate(4242.063 2516.856)" fill="none" stroke="#204623" stroke-linejoin="round" stroke-width="2"/></g><g transform="translate(907 8772)"><rect width="121" height="64" fill="#deebad"/><g transform="translate(9 3.661)"><text fill="#12263f" font-size="18" font-family="Roboto-BoldItalic, Roboto" font-weight="700" font-style="italic"><tspan x="0" y="19" xml:space="preserve">s=  a + b + c</tspan></text><path d="M36.48,19H27.955l.29-1.846,4.544-4.263a10.065,10.065,0,0,0,1.854-2.127,2.491,2.491,0,0,0,.343-1.6,1.193,1.193,0,0,0-1.257-1.116,1.8,1.8,0,0,0-1.411.589,2.76,2.76,0,0,0-.69,1.591l-2.479.009A4.375,4.375,0,0,1,31.572,6.55a4.956,4.956,0,0,1,2.307-.532,3.932,3.932,0,0,1,2.777,1A3.1,3.1,0,0,1,37.535,9.6,6.239,6.239,0,0,1,35.4,13.375l-1.266,1.2-2.619,2.355,5.291.018Z" transform="translate(27 32)" fill="#12263f"/><path d="M-4375.537-2862.368h67.042" transform="translate(4403.266 2892.339)" fill="none" stroke="#16263d" stroke-width="1"/></g></g><g transform="translate(729.004 8845.177)"><rect width="251" height="56" transform="translate(166.996)" fill="#deebad"/><g transform="translate(0 15)"><g transform="translate(175.996)"><text fill="#12263f" font-size="18" font-family="Roboto-Bold, Roboto" font-weight="700"><tspan x="0" y="19">Ãrea = </tspan><tspan y="19" font-family="Roboto-BoldItalic, Roboto" font-style="italic">âˆšs (s - a) (s - b) (s - c)</tspan></text></g></g></g><line x2="163" y2="1" transform="translate(971.5 8866.5)" fill="none" stroke="#707070" stroke-width="2" style="mix-blend-mode:darken;isolation:isolate"/></g></svg>