<svg xmlns="http://www.w3.org/2000/svg" width="130" height="130" viewBox="0 0 130 130"><g transform="translate(-995 -7422.784)"><g transform="translate(0 -83.216)"><circle cx="53" cy="53" r="53" transform="translate(1007 7521)" fill="#eff5d6"/><g transform="translate(675 -27)"><rect width="130" height="130" transform="translate(320 7533)" fill="none"/><g transform="translate(-1421.234 6402.68)"><g transform="translate(1827.249 1161.65)"><path d="M1855.718,1180.753c0-1.57-.019-3.14.006-4.71s.863-2.542,2.166-2.571a2.2,2.2,0,0,1,2.234,2.475c.036,3.274-.014,6.55.031,9.824.012.875-.351,1.017-1.116,1.03-3.321.057-3.321.079-3.321-3.221Q1855.717,1182.166,1855.718,1180.753Z" transform="translate(-1846.915 -1169.109)" fill="#989898"/><path d="M1868.527,1208.748q0,19.356-.02,38.713c0,.833.133,1.145,1.047,1.092,1.427-.084,1.974.5,1.98,1.918q.018,4.016,0,8.032c-.006,1.415-.555,1.946-1.983,1.946q-11.455,0-22.911,0c-1.434,0-1.946-.519-1.949-1.967q-.008-3.97,0-7.941c0-1.51.5-2.057,1.989-1.992.832.037,1.025-.213,1.024-1.03q-.035-38.442-.019-76.885c0-.331-.014-.663.005-.993.061-1.071.576-1.621,1.639-1.624q8.794-.023,17.589,0c1.1,0,1.6.615,1.605,1.835q.01,7.173,0,14.348Zm-.035,45.742c.012-.721-.017-1.445.049-2.161.062-.671-.147-.864-.836-.857-3.546.037-7.093.017-10.64.017-2.885,0-5.772.011-8.657-.01-.517,0-.782.092-.737.684.059.776.05,1.558.069,2.336-.016.78-.013,1.56-.054,2.339-.024.466.136.626.613.624q9.821-.018,19.644,0c.5,0,.612-.184.591-.633C1868.5,1256.051,1868.5,1255.27,1868.492,1254.49Zm-14.776-83.443c-.838-.021-1.677-.029-2.514-.069-.43-.021-.578.137-.565.571.027.9-.021,1.8.016,2.7s-.407,2.127.192,2.564c.614.448,1.784.132,2.712.147a.618.618,0,0,0,.172-.049c2.219.017,4.438.041,6.657.05s2.2,0,2.2,2.26c0,.627-.219.722-.769.719-2.7-.017-5.4.006-8.1.014-.84-.01-1.681,0-2.52-.038-.44-.019-.54.148-.561.568-.122,2.465-.133,2.466,2.289,2.451.268,0,.536-.036.8-.055.775.017,1.55.031,2.325.05.257.006.568-.069.556.365a6.251,6.251,0,0,1-.142,2.452c-.223.44-1.269.093-1.944.14-.267.019-.536.019-.8.028-.842-.011-1.684,0-2.523-.04-.441-.02-.541.152-.562.571-.126,2.471-.138,2.471,2.289,2.459.269,0,.538-.031.807-.048,2.248.013,4.5.03,6.745.037,2.1.006,2.058,0,2.118,2.072.023.8-.249.911-.957.9-2.638-.034-5.278,0-7.917.011-.84-.01-1.68,0-2.52-.04-.439-.019-.54.151-.562.57-.129,2.467-.14,2.467,2.282,2.456.269,0,.538-.029.807-.044.775.013,1.551.023,2.326.04.255.006.571-.077.558.36a6.225,6.225,0,0,1-.145,2.449c-.224.44-1.267.093-1.942.141-.267.019-.536.021-.8.031-.84-.011-1.681,0-2.519-.042-.44-.019-.542.152-.563.571-.13,2.467-.141,2.467,2.281,2.457.269,0,.537-.026.806-.041,2.219.012,4.438.029,6.656.035s2.2,0,2.208,2.245c0,.63-.222.722-.771.719-2.7-.015-5.4.009-8.1.019-.84-.012-1.681-.006-2.52-.042-.439-.019-.541.152-.563.571-.132,2.467-.143,2.467,2.279,2.458.27,0,.539-.026.808-.039.208.011.416.032.624.033,2.342.017,2.323.015,2.277,2.329-.01.527-.18.651-.668.632-.744-.029-1.491.011-2.236.022-.839-.012-1.681-.007-2.519-.044-.438-.018-.543.153-.565.572-.134,2.466-.145,2.467,2.277,2.458.269,0,.539-.025.807-.037,2.219.011,4.438.026,6.656.032s2.205,0,2.209,2.242c0,.626-.219.724-.77.721-2.7-.014-5.4.01-8.1.022-.839-.013-1.68-.009-2.518-.045-.438-.019-.543.153-.566.572-.135,2.465-.146,2.465,2.277,2.457.27,0,.539-.023.807-.036.208.011.417.03.625.031,2.415.015,2.4.014,2.277,2.416-.022.442-.162.552-.574.542-.775-.017-1.551.015-2.326.026-.839-.013-1.68-.01-2.518-.046-.436-.019-.544.15-.567.571-.137,2.464-.148,2.464,2.276,2.456.269,0,.539-.022.808-.034,2.219.01,4.438.025,6.657.029s2.207,0,2.21,2.239c0,.622-.211.729-.768.725-2.7-.014-5.4.012-8.1.025-.839-.014-1.68-.013-2.518-.049-.435-.019-.545.149-.568.571-.137,2.463-.149,2.463,2.275,2.455.269,0,.539-.022.808-.033.208.01.416.027.625.028,2.415.014,2.4.013,2.279,2.416-.022.437-.156.557-.572.547-.775-.017-1.55.018-2.326.03-.839-.015-1.679-.016-2.518-.052-.432-.019-.547.146-.571.57-.138,2.463-.15,2.463,2.274,2.455.27,0,.539-.021.808-.032,2.219.01,4.438.022,6.658.027s2.208,0,2.21,2.237c0,.611-.2.736-.763.733-2.7-.015-5.4.013-8.1.026-.84-.017-1.681-.019-2.521-.056-.429-.019-.55.143-.574.57-.141,2.466-.152,2.466,2.276,2.458.271,0,.54-.021.81-.031.927.025,2.171-.3,2.7.168.6.539.136,1.807.188,2.756-1.258.016-2.516.041-3.774.046-2.2.008-2.163,0-2.209,2.178-.016.758.258.863.917.858,3.748-.028,7.5,0,11.244-.023.913-.006,2.181.424,2.651-.193.515-.676.172-1.9.105-2.881.012-.27.034-.54.034-.809q0-36.316,0-72.633a4.237,4.237,0,0,1,0-.451c.046-.448-.183-.56-.588-.558Q1859.35,1171.033,1853.715,1171.047Z" transform="translate(-1844.688 -1168.005)" fill="#010101"/><path d="M1858.889,1246.223c-.053-.949.413-2.218-.188-2.756-.527-.472-1.771-.144-2.7-.168q0-1.471.009-2.941c2.7-.014,5.4-.042,8.1-.026.567,0,.763-.122.763-.733,0-2.235.023-2.232-2.21-2.237s-4.438-.018-6.658-.027q0-1.471.006-2.941c.776-.013,1.551-.047,2.326-.03.416.01.55-.11.572-.547.122-2.4.136-2.4-2.279-2.416-.208,0-.417-.018-.625-.028q0-1.474,0-2.945c2.7-.013,5.4-.039,8.1-.025.557,0,.768-.1.768-.725,0-2.238.024-2.234-2.209-2.239s-4.438-.019-6.657-.029q0-1.473,0-2.947c.776-.011,1.551-.044,2.326-.026.412.01.552-.1.574-.542.123-2.4.137-2.4-2.277-2.416-.208,0-.417-.02-.625-.031V1216.5c2.7-.011,5.4-.036,8.1-.022.551,0,.771-.094.77-.721,0-2.24.023-2.236-2.209-2.242s-4.438-.021-6.656-.032q0-1.473,0-2.948c.745-.01,1.492-.05,2.236-.022.488.019.657-.105.668-.632.045-2.314.065-2.312-2.277-2.329-.208,0-.416-.022-.624-.033q0-1.473,0-2.947c2.7-.01,5.4-.034,8.1-.019.549,0,.772-.089.771-.719,0-2.244.023-2.239-2.208-2.245s-4.437-.023-6.656-.035q0-1.472,0-2.945c.268-.01.537-.012.8-.031.674-.049,1.718.3,1.942-.141a6.225,6.225,0,0,0,.145-2.449c.013-.437-.3-.354-.558-.36-.776-.017-1.551-.027-2.326-.04q0-1.471-.007-2.942c2.639-.01,5.279-.045,7.917-.011.708.009.98-.106.957-.9-.06-2.069-.016-2.065-2.118-2.072-2.249-.007-4.5-.025-6.745-.037q0-1.471-.01-2.941c.268-.009.537-.009.8-.028.675-.047,1.72.3,1.944-.14a6.251,6.251,0,0,0,.142-2.452c.013-.433-.3-.358-.556-.365-.776-.019-1.55-.033-2.325-.05q-.006-1.463-.012-2.926c2.7-.009,5.4-.031,8.1-.014.55,0,.77-.092.768-.719-.005-2.257.022-2.251-2.2-2.26s-4.438-.033-6.657-.05q-.006-2.934-.012-5.868,5.635-.022,11.269-.048c.4,0,.634.109.588.558a4.237,4.237,0,0,0,0,.451q0,36.316,0,72.633c0,.27-.022.539-.034.809Z" transform="translate(-1846.973 -1168.763)" fill="#f1cc7a"/><path d="M1848.491,1275.63c-.019-.779-.01-1.56-.069-2.336-.045-.592.22-.687.737-.684,2.885.021,5.772.01,8.657.01,3.547,0,7.094.02,10.64-.017.689-.007.9.186.836.857-.066.716-.037,1.44-.049,2.161Z" transform="translate(-1845.441 -1189.135)" fill="#c6c6c6"/><path d="M1848.5,1276.394l20.754-.01c.011.78,0,1.562.04,2.341.021.448-.1.634-.591.633q-9.823-.021-19.644,0c-.477,0-.637-.158-.613-.624C1848.482,1277.954,1848.48,1277.173,1848.5,1276.394Z" transform="translate(-1845.445 -1189.9)" fill="#b2b2b2"/><path d="M1858.105,1265.071l8.935-.015c.066.984.409,2.206-.105,2.882-.47.618-1.738.187-2.651.193-3.748.024-7.5,0-11.244.023-.659.005-.933-.1-.917-.858.046-2.174.007-2.17,2.208-2.178C1855.589,1265.112,1856.848,1265.087,1858.105,1265.071Z" transform="translate(-1846.19 -1187.611)" fill="#d6a753"/><path d="M1855.194,1171.8q.006,2.934.012,5.868a.623.623,0,0,1-.172.05c-.927-.015-2.1.3-2.712-.147-.6-.437-.156-1.677-.192-2.564s.011-1.8-.016-2.7c-.013-.433.135-.591.565-.571C1853.518,1171.771,1854.356,1171.778,1855.194,1171.8Z" transform="translate(-1846.166 -1168.758)" fill="#dcac55"/><path d="M1855.218,1257.709q0,1.47-.009,2.941c-.27.01-.54.03-.81.031-2.428.007-2.417.007-2.276-2.458.024-.427.145-.589.574-.57C1853.536,1257.69,1854.378,1257.693,1855.218,1257.709Z" transform="translate(-1846.179 -1186.116)" fill="#d6a753"/><path d="M1855.215,1250.236q0,1.471-.006,2.941c-.269.011-.539.031-.808.032-2.424.007-2.412.007-2.274-2.455.024-.424.14-.589.571-.57C1853.537,1250.22,1854.376,1250.22,1855.215,1250.236Z" transform="translate(-1846.18 -1184.606)" fill="#dcac55"/><path d="M1855.214,1242.759q0,1.472,0,2.945c-.269.011-.539.032-.808.033-2.423.008-2.412.007-2.275-2.455.023-.422.133-.591.568-.571C1853.534,1242.747,1854.375,1242.745,1855.214,1242.759Z" transform="translate(-1846.181 -1183.097)" fill="#dcac55"/><path d="M1855.214,1235.284q0,1.473,0,2.947c-.269.012-.539.033-.808.034-2.423.008-2.412.008-2.276-2.456.023-.421.132-.591.567-.571C1853.534,1235.273,1854.374,1235.271,1855.214,1235.284Z" transform="translate(-1846.181 -1181.587)" fill="#dcac55"/><path d="M1855.212,1227.809v2.948c-.269.013-.538.035-.807.036-2.423.008-2.412.008-2.277-2.457.023-.42.128-.591.566-.572C1853.532,1227.8,1854.373,1227.8,1855.212,1227.809Z" transform="translate(-1846.181 -1180.077)" fill="#dcac55"/><path d="M1855.212,1220.336q0,1.475,0,2.948c-.269.013-.539.036-.808.037-2.422.009-2.411.008-2.277-2.458.022-.419.127-.59.565-.572C1853.532,1220.328,1854.373,1220.323,1855.212,1220.336Z" transform="translate(-1846.181 -1178.568)" fill="#dcac55"/><path d="M1855.212,1212.863q0,1.473,0,2.947c-.269.014-.538.038-.808.039-2.422.01-2.411.009-2.279-2.458.022-.418.125-.59.563-.571C1853.531,1212.857,1854.371,1212.851,1855.212,1212.863Z" transform="translate(-1846.181 -1177.058)" fill="#dcac55"/><path d="M1855.211,1205.39q0,1.472,0,2.945c-.269.014-.537.04-.806.041-2.422.01-2.411.01-2.281-2.457.021-.419.124-.59.563-.571C1853.531,1205.385,1854.371,1205.379,1855.211,1205.39Z" transform="translate(-1846.182 -1175.549)" fill="#dcac55"/><path d="M1855.21,1197.917q0,1.471.007,2.942c-.269.015-.538.042-.807.044-2.422.011-2.411.01-2.282-2.456.021-.419.123-.589.562-.57C1853.53,1197.914,1854.37,1197.907,1855.21,1197.917Z" transform="translate(-1846.182 -1174.04)" fill="#dcac55"/><path d="M1855.211,1190.444q0,1.47.01,2.941c-.269.017-.538.046-.807.048-2.427.013-2.415.012-2.289-2.459.021-.418.121-.591.563-.571C1853.527,1190.439,1854.369,1190.432,1855.211,1190.444Z" transform="translate(-1846.181 -1172.53)" fill="#d6a753"/><path d="M1855.209,1182.974q.006,1.464.012,2.926c-.268.019-.536.053-.8.055-2.422.014-2.411.014-2.288-2.452.021-.42.121-.587.561-.568C1853.528,1182.972,1854.369,1182.964,1855.209,1182.974Z" transform="translate(-1846.182 -1171.021)" fill="#dcac55"/></g><g transform="translate(1758.365 1136.545)"><path d="M1858.088,1147.575c1.57,0,3.141-.019,4.711.006s2.543.862,2.572,2.165a2.2,2.2,0,0,1-2.475,2.234c-3.274.036-6.55-.013-9.824.03-.875.012-1.017-.35-1.03-1.115-.057-3.321-.079-3.32,3.222-3.32Z" transform="translate(-1777.286 -1138.772)" fill="#989898"/><path d="M1810.069,1160.384q-19.356,0-38.713-.02c-.833,0-1.145.133-1.092,1.047.084,1.428-.5,1.974-1.919,1.981q-4.015.017-8.031,0c-1.415-.005-1.946-.555-1.946-1.983q0-11.455,0-22.911c0-1.434.52-1.945,1.968-1.948q3.97-.008,7.941,0c1.51,0,2.057.5,1.992,1.989-.037.833.213,1.025,1.03,1.024q38.442-.035,76.885-.018c.331,0,.662-.015.993,0,1.071.062,1.621.577,1.623,1.639q.023,8.8,0,17.59c0,1.1-.615,1.6-1.835,1.6q-7.175.011-14.349,0Zm-45.742-.034c.72.012,1.445-.018,2.161.048.671.062.864-.147.857-.836-.037-3.547-.018-7.094-.018-10.641,0-2.885-.01-5.771.01-8.656,0-.517-.092-.783-.684-.737-.776.059-1.557.049-2.336.068-.78-.015-1.561-.013-2.339-.053-.466-.025-.626.136-.625.612q.019,9.822,0,19.644c0,.5.184.613.633.592C1762.765,1160.353,1763.546,1160.36,1764.327,1160.349Zm83.442-14.777c.021-.838.029-1.676.069-2.513.021-.431-.138-.578-.571-.566-.9.027-1.8-.02-2.7.017s-2.127-.407-2.564.192c-.448.614-.132,1.783-.147,2.711a.592.592,0,0,0,.05.172c-.018,2.218-.042,4.438-.051,6.657s0,2.2-2.259,2.2c-.628,0-.722-.22-.719-.769.017-2.7-.006-5.4-.015-8.1.01-.84,0-1.681.038-2.521.019-.439-.148-.539-.567-.56-2.465-.123-2.467-.134-2.451,2.289,0,.267.036.535.055.8-.017.775-.032,1.55-.05,2.325-.006.258.069.569-.365.556a6.23,6.23,0,0,1-2.451-.143c-.44-.223-.093-1.268-.141-1.943-.018-.268-.018-.537-.027-.805.011-.841,0-1.683.04-2.523.019-.441-.153-.54-.571-.562-2.471-.127-2.471-.138-2.459,2.288,0,.269.031.538.048.807-.013,2.249-.03,4.5-.037,6.746-.006,2.1,0,2.057-2.072,2.117-.8.023-.912-.249-.9-.957.033-2.638,0-5.277-.012-7.917.011-.84,0-1.681.041-2.519.019-.44-.152-.541-.57-.563-2.467-.128-2.467-.14-2.456,2.283,0,.269.029.537.044.806-.013.776-.023,1.551-.04,2.326-.006.255.077.571-.36.558a6.207,6.207,0,0,1-2.449-.144c-.44-.224-.093-1.268-.141-1.942-.019-.267-.021-.536-.031-.8.011-.839,0-1.68.042-2.519.019-.439-.152-.541-.57-.564-2.467-.13-2.467-.141-2.457,2.281,0,.269.026.538.041.807-.012,2.219-.029,4.437-.035,6.656s0,2.2-2.245,2.208c-.629,0-.721-.223-.718-.772.014-2.7-.009-5.4-.019-8.1.012-.839.006-1.681.042-2.519.019-.439-.153-.542-.571-.564-2.466-.132-2.467-.143-2.457,2.28,0,.269.026.538.039.807-.012.208-.032.417-.033.624-.017,2.342-.015,2.323-2.329,2.277-.527-.01-.651-.18-.632-.667.029-.744-.011-1.491-.021-2.237.012-.839.007-1.68.043-2.519.019-.437-.152-.542-.571-.565-2.466-.133-2.467-.145-2.458,2.278,0,.269.024.538.038.807-.011,2.219-.027,4.437-.033,6.656,0,2.234,0,2.206-2.241,2.21-.626,0-.724-.219-.721-.77.014-2.7-.011-5.4-.021-8.1.013-.84.009-1.681.045-2.519.019-.437-.153-.542-.572-.566-2.465-.135-2.465-.146-2.457,2.277,0,.269.023.538.036.808-.011.208-.03.416-.031.624-.015,2.415-.014,2.4-2.416,2.277-.442-.022-.552-.162-.543-.574.018-.775-.014-1.55-.026-2.325.013-.84.011-1.681.047-2.519.019-.436-.151-.544-.572-.567-2.464-.135-2.464-.148-2.456,2.276,0,.27.022.539.034.808-.01,2.219-.024,4.438-.03,6.656,0,2.234,0,2.207-2.238,2.21-.622,0-.729-.211-.725-.769.014-2.7-.013-5.4-.025-8.1.014-.839.013-1.68.049-2.518.019-.435-.149-.546-.571-.569-2.463-.136-2.463-.148-2.455,2.275,0,.269.022.538.033.807-.01.209-.027.417-.028.626-.014,2.415-.014,2.4-2.415,2.278-.437-.022-.557-.155-.547-.572.017-.775-.018-1.55-.03-2.326.015-.839.015-1.679.052-2.518.018-.432-.146-.547-.57-.571-2.462-.138-2.462-.15-2.455,2.274,0,.269.021.539.032.808-.01,2.219-.023,4.438-.028,6.657s0,2.209-2.237,2.21c-.61,0-.736-.2-.732-.763.015-2.7-.014-5.4-.026-8.1.017-.84.019-1.68.056-2.52.018-.43-.143-.55-.57-.575-2.466-.14-2.466-.152-2.459,2.277,0,.27.02.539.031.809-.025.927.3,2.171-.168,2.7-.539.6-1.807.136-2.756.189-.016-1.258-.042-2.516-.046-3.774-.008-2.2,0-2.163-2.178-2.208-.758-.016-.864.257-.859.916.029,3.748,0,7.5.024,11.245.005.913-.425,2.182.193,2.651.676.515,1.9.172,2.881.106.27.012.54.034.809.034l72.633,0a4.476,4.476,0,0,1,.451,0c.448.046.56-.183.558-.587Q1847.784,1151.207,1847.769,1145.573Z" transform="translate(-1758.365 -1136.545)" fill="#010101"/><path d="M1777.145,1150.747c.949-.053,2.217.413,2.756-.189.472-.527.144-1.771.168-2.7l2.941.009c.013,2.7.041,5.4.026,8.1,0,.568.122.763.733.763,2.236,0,2.232.023,2.237-2.21s.018-4.438.028-6.657l2.941.006c.013.776.047,1.551.03,2.326-.01.417.11.55.547.572,2.4.122,2.4.137,2.416-2.278,0-.208.018-.417.028-.625l2.945,0c.012,2.7.039,5.4.025,8.1,0,.557.1.769.725.769,2.238,0,2.234.023,2.238-2.21.005-2.219.02-4.438.029-6.656l2.947,0c.012.775.044,1.55.026,2.325-.009.412.1.552.543.574,2.4.124,2.4.138,2.416-2.277,0-.208.02-.416.031-.624h2.949c.01,2.7.036,5.4.022,8.1,0,.551.094.772.72.77,2.24,0,2.236.024,2.241-2.21.006-2.219.021-4.437.033-6.656h2.948c.01.746.05,1.492.022,2.237-.019.487.105.657.632.667,2.314.046,2.313.065,2.329-2.277,0-.207.022-.416.033-.624l2.947,0c.01,2.7.034,5.4.019,8.1,0,.549.089.773.718.772,2.244,0,2.239.023,2.245-2.208s.023-4.438.035-6.656l2.945,0c.01.268.012.537.031.8.048.674-.3,1.718.141,1.942a6.205,6.205,0,0,0,2.449.144c.437.013.354-.3.36-.558.017-.776.027-1.55.04-2.326l2.941-.007c.01,2.64.045,5.279.012,7.917-.01.708.106.98.9.957,2.069-.06,2.065-.015,2.072-2.117.007-2.249.025-4.5.037-6.746l2.941-.01c.009.268.009.537.027.805.048.675-.3,1.72.141,1.943a6.229,6.229,0,0,0,2.451.143c.434.013.359-.3.365-.556.018-.775.034-1.55.05-2.325l2.925-.011c.009,2.7.032,5.4.015,8.1,0,.55.091.77.719.769,2.258-.006,2.251.021,2.259-2.2s.033-4.438.051-6.657l5.867-.013q.023,5.635.049,11.27c0,.4-.109.634-.558.587a4.477,4.477,0,0,0-.451,0l-72.633,0c-.27,0-.539-.022-.809-.034Q1777.152,1155.213,1777.145,1150.747Z" transform="translate(-1762.159 -1138.83)" fill="#f1cc7a"/><path d="M1765.824,1140.348c.779-.019,1.56-.009,2.336-.068.592-.046.688.22.684.737-.02,2.885-.01,5.771-.01,8.656,0,3.547-.02,7.094.018,10.641.007.689-.186.9-.857.835-.716-.066-1.44-.036-2.161-.048Q1765.829,1150.726,1765.824,1140.348Z" transform="translate(-1759.872 -1137.299)" fill="#c6c6c6"/><path d="M1765.073,1140.353l.01,20.755c-.78.01-1.562,0-2.341.04-.448.021-.634-.1-.633-.592q.021-9.821,0-19.644c0-.476.159-.637.625-.612C1763.513,1140.34,1764.294,1140.338,1765.073,1140.353Z" transform="translate(-1759.121 -1137.303)" fill="#b2b2b2"/><path d="M1776.335,1149.963q.007,4.467.015,8.935c-.985.066-2.206.409-2.881-.106-.618-.469-.187-1.738-.193-2.651-.024-3.748,0-7.5-.024-11.244,0-.659.1-.932.859-.916,2.175.046,2.171.007,2.179,2.208C1776.293,1147.447,1776.319,1148.7,1776.335,1149.963Z" transform="translate(-1761.349 -1138.047)" fill="#d6a753"/><path d="M1868.88,1147.051l-5.867.013a.592.592,0,0,1-.049-.172c.014-.927-.3-2.1.147-2.711.437-.6,1.677-.156,2.564-.192s1.8.01,2.7-.017c.432-.013.591.135.571.566C1868.909,1145.376,1868.9,1146.214,1868.88,1147.051Z" transform="translate(-1779.477 -1138.024)" fill="#dcac55"/><path d="M1783.743,1147.075l-2.941-.009c-.011-.27-.031-.539-.031-.809-.007-2.429-.007-2.417,2.459-2.277.427.025.588.144.57.575C1783.762,1145.394,1783.76,1146.235,1783.743,1147.075Z" transform="translate(-1762.891 -1138.037)" fill="#d6a753"/><path d="M1791.218,1147.073l-2.941-.006c-.011-.27-.031-.539-.032-.808-.007-2.424-.007-2.412,2.455-2.274.424.024.589.139.57.571C1791.233,1145.394,1791.233,1146.234,1791.218,1147.073Z" transform="translate(-1764.401 -1138.038)" fill="#dcac55"/><path d="M1798.694,1147.071l-2.945,0c-.011-.27-.032-.539-.033-.808-.008-2.423-.007-2.411,2.455-2.275.422.023.591.134.572.569C1798.707,1145.392,1798.708,1146.232,1798.694,1147.071Z" transform="translate(-1765.91 -1138.038)" fill="#dcac55"/><path d="M1806.168,1147.071l-2.947,0c-.012-.27-.033-.539-.033-.808-.008-2.423-.008-2.411,2.456-2.276.421.023.591.132.572.567C1806.179,1145.391,1806.182,1146.231,1806.168,1147.071Z" transform="translate(-1767.42 -1138.038)" fill="#dcac55"/><path d="M1813.643,1147.07h-2.949c-.013-.27-.035-.539-.036-.808-.008-2.423-.008-2.412,2.457-2.277.419.023.591.128.572.566C1813.652,1145.389,1813.656,1146.23,1813.643,1147.07Z" transform="translate(-1768.929 -1138.038)" fill="#dcac55"/><path d="M1821.117,1147.069h-2.949c-.013-.269-.036-.538-.037-.807-.009-2.424-.008-2.412,2.458-2.278.419.023.59.128.571.565C1821.124,1145.39,1821.129,1146.23,1821.117,1147.069Z" transform="translate(-1770.438 -1138.038)" fill="#dcac55"/><path d="M1828.59,1147.069l-2.947,0c-.014-.269-.038-.538-.039-.807-.01-2.423-.009-2.411,2.457-2.28.419.022.59.125.571.564C1828.6,1145.388,1828.6,1146.229,1828.59,1147.069Z" transform="translate(-1771.948 -1138.039)" fill="#dcac55"/><path d="M1836.063,1147.068l-2.945,0c-.015-.269-.04-.538-.041-.807-.01-2.422-.01-2.411,2.457-2.281.419.022.59.124.57.563C1836.067,1145.388,1836.074,1146.229,1836.063,1147.068Z" transform="translate(-1773.458 -1138.039)" fill="#dcac55"/><path d="M1843.535,1147.068l-2.941.007c-.015-.269-.043-.537-.044-.806-.011-2.423-.01-2.411,2.456-2.283.418.022.589.123.57.563C1843.539,1145.387,1843.546,1146.228,1843.535,1147.068Z" transform="translate(-1774.967 -1138.039)" fill="#dcac55"/><path d="M1851.009,1147.068l-2.941.01c-.017-.269-.047-.538-.048-.807-.013-2.426-.012-2.415,2.458-2.288.418.021.59.12.571.562C1851.012,1145.385,1851.02,1146.227,1851.009,1147.068Z" transform="translate(-1776.476 -1138.039)" fill="#d6a753"/><path d="M1858.48,1147.067l-2.926.011c-.019-.268-.053-.536-.055-.8-.015-2.423-.014-2.411,2.451-2.289.419.021.587.121.567.56C1858.482,1145.386,1858.49,1146.227,1858.48,1147.067Z" transform="translate(-1777.987 -1138.04)" fill="#dcac55"/></g></g></g></g></g></svg>