<svg xmlns="http://www.w3.org/2000/svg" width="79.338" height="63.948" viewBox="0 0 79.338 63.948"><path d="M1124.228,376.777h-34.7c-3.146,0-4.968-1.812-4.968-4.941q0-27.051,0-54.1c0-3.078,1.833-4.9,4.924-4.9h69.484c3.092,0,4.928,1.824,4.929,4.9q0,27.091,0,54.183a4.506,4.506,0,0,1-4.884,4.865Q1141.619,376.779,1124.228,376.777Zm.078-53.716q-18.154,0-36.309-.018c-.733,0-.9.188-.9.9q.033,23.86.017,47.72c0,1.917.626,2.551,2.519,2.551h69.18c1.892,0,2.52-.636,2.52-2.551q0-23.86.017-47.72c0-.716-.164-.906-.9-.9Q1142.381,323.081,1124.307,323.061Zm-.083-2.558q17.31,0,34.619-.006c.792,0,1.827.34,2.315-.141.526-.519.158-1.566.169-2.38.025-1.983-.592-2.588-2.559-2.589h-69.079c-.213,0-.427-.008-.64,0a1.944,1.944,0,0,0-1.927,1.942c-.025.745.051,1.5-.021,2.236-.078.8.236.953.984.952Q1106.155,320.485,1124.224,320.5Z" transform="translate(-1084.558 -312.829)"/><path d="M1129.7,344.716q18.075,0,36.149-.018c.733,0,.9.188.9.9q-.033,23.86-.017,47.72c0,1.914-.628,2.551-2.52,2.551h-69.18c-1.893,0-2.519-.634-2.519-2.551q0-23.86-.017-47.72c0-.717.164-.906.9-.9Q1111.543,344.736,1129.7,344.716Zm-.081,42.206q6.237,0,12.474,0a7.679,7.679,0,0,0,8-7.994q.011-8.631,0-17.263a7.674,7.674,0,0,0-8-7.994q-12.474-.008-24.948,0a7.682,7.682,0,0,0-8,7.991q-.009,8.631,0,17.263a7.686,7.686,0,0,0,8,8Q1123.379,386.929,1129.617,386.921Z" transform="translate(-1089.949 -334.484)" fill="#d7d6d9"/><path d="M1129.593,325.92q-18.069,0-36.138.017c-.747,0-1.062-.148-.984-.952.073-.739,0-1.491.021-2.236a1.944,1.944,0,0,1,1.927-1.942c.212-.011.426,0,.639,0h69.079c1.967,0,2.584.606,2.559,2.589-.01.815.358,1.861-.169,2.38-.488.481-1.523.14-2.315.141Q1146.9,325.927,1129.593,325.92Zm-33.851-3.832v0c-.24,0-.48-.014-.719,0a1.275,1.275,0,0,0,.006,2.549,8.431,8.431,0,0,0,1.437-.011,1.2,1.2,0,0,0,1.134-1.226,1.238,1.238,0,0,0-1.138-1.306A6.323,6.323,0,0,0,1095.742,322.088Zm5.039,2.553c.187,0,.373.006.559,0a1.282,1.282,0,1,0,.006-2.556c-.293-.01-.586,0-.879,0-1.021.008-1.579.459-1.581,1.276s.557,1.274,1.575,1.283C1100.568,324.643,1100.675,324.642,1100.781,324.642Zm5.085-.006v0c.24,0,.48.014.719,0a1.275,1.275,0,0,0-.007-2.549,8.46,8.46,0,0,0-1.437.011,1.193,1.193,0,0,0-1.133,1.226,1.237,1.237,0,0,0,1.139,1.306A6.325,6.325,0,0,0,1105.866,324.636Z" transform="translate(-1089.927 -318.246)" fill="#606060"/><path d="M1164.914,405.935q-6.237,0-12.474,0a7.686,7.686,0,0,1-8-8q-.008-8.631,0-17.263a7.682,7.682,0,0,1,8-7.991q12.474-.008,24.948,0a7.674,7.674,0,0,1,8,7.994q.011,8.631,0,17.263a7.679,7.679,0,0,1-8,7.994Q1171.15,405.941,1164.914,405.935Zm.015-30.695q-6.274,0-12.549,0A5.116,5.116,0,0,0,1147,380.6q-.008,8.707,0,17.415a5.12,5.12,0,0,0,5.389,5.355q12.509.007,25.017,0a5.128,5.128,0,0,0,5.42-5.406q.008-8.667,0-17.335a5.125,5.125,0,0,0-5.431-5.393Q1171.163,375.234,1164.929,375.24Z" transform="translate(-1125.246 -353.497)" fill="#010101"/><path d="M1098.516,324.8a6.323,6.323,0,0,1,.719,0,1.237,1.237,0,0,1,1.138,1.306,1.194,1.194,0,0,1-1.134,1.226,8.433,8.433,0,0,1-1.437.011,1.275,1.275,0,0,1-.006-2.549c.239-.016.48,0,.719,0Z" transform="translate(-1092.7 -320.955)" fill="#020202"/><path d="M1114.406,327.351h-.319c-1.018-.009-1.577-.464-1.575-1.283s.559-1.269,1.581-1.276c.293,0,.586-.008.879,0a1.282,1.282,0,1,1-.005,2.556C1114.78,327.356,1114.593,327.351,1114.406,327.351Z" transform="translate(-1103.553 -320.955)" fill="#020202"/><path d="M1130.347,327.311a6.316,6.316,0,0,1-.719,0A1.237,1.237,0,0,1,1128.49,326a1.193,1.193,0,0,1,1.133-1.226,8.464,8.464,0,0,1,1.437-.011,1.275,1.275,0,0,1,.007,2.549c-.238.016-.479,0-.719,0Z" transform="translate(-1114.408 -320.922)" fill="#020202"/><path d="M1170.356,380.666q6.234,0,12.469,0a5.125,5.125,0,0,1,5.431,5.393q.008,8.668,0,17.335a5.128,5.128,0,0,1-5.42,5.406q-12.509.006-25.017,0a5.12,5.12,0,0,1-5.389-5.355q-.009-8.708,0-17.415a5.116,5.116,0,0,1,5.378-5.363Q1164.082,380.659,1170.356,380.666Zm-10.251,14q0,4.316,0,8.632c0,1.5.846,2.028,2.188,1.359q8.608-4.289,17.211-8.589c.58-.289,1.073-.626,1.067-1.348s-.513-1.047-1.089-1.334q-8.573-4.271-17.138-8.556c-1.4-.7-2.237-.179-2.239,1.363Q1160.1,390.43,1160.1,394.666Z" transform="translate(-1130.674 -358.923)" fill="#eb5c37"/><path d="M1176.383,402.854q0-4.236,0-8.472c0-1.543.843-2.06,2.239-1.363q8.572,4.274,17.139,8.556c.576.287,1.083.612,1.089,1.334s-.487,1.059-1.067,1.348q-8.609,4.288-17.211,8.589c-1.343.669-2.186.139-2.188-1.359Q1176.377,407.17,1176.383,402.854Zm2.6,6.938,13.74-6.872-13.74-6.865Z" transform="translate(-1146.952 -367.111)" fill="#030201"/><path d="M1184.487,416.874V403.137l13.74,6.865Z" transform="translate(-1152.46 -374.193)" fill="#d6d5d8"/></svg>