<svg xmlns="http://www.w3.org/2000/svg" width="578" height="149" viewBox="0 0 578 149"><g transform="translate(-511 -9032)"><rect width="216" height="61" transform="translate(691 9032)" fill="#deebad"/><g transform="translate(406.037 -1011)"><g transform="translate(299.463 10047.874)"><text fill="#12263f" font-size="18" font-family="Roboto-Bold, Roboto" font-weight="700"><tspan x="0" y="19">r = </tspan><tspan y="19" font-family="Roboto-BoldItalic, Roboto" font-style="italic">√(s - a) (s - b) (s - c)</tspan><tspan font-family="Roboto-BoldItalic, Roboto" font-style="italic"><tspan x="0" y="46" xml:space="preserve">                      s</tspan></tspan></text><path d="M-4318.811-1622.677H-4168.9" transform="translate(4353.314 1651.126)" fill="none" stroke="#16263d" stroke-width="2"/></g></g><line y1="1" x2="147" transform="translate(739.5 9042.5)" fill="none" stroke="#707070" stroke-width="2"/><g transform="translate(-180)"><g transform="translate(0 95)"><rect width="180" height="54" transform="translate(691 9032)" fill="#deebad"/><g transform="translate(406.037 -1011)"><g transform="translate(299.463 10047.874)"><text fill="#12263f" font-size="18" font-family="Roboto-Bold, Roboto" font-weight="700"><tspan x="0" y="19">A =</tspan><tspan y="19" xml:space="preserve" font-family="Roboto-BoldItalic, Roboto" font-style="italic"> 2Tan</tspan><tspan y="19" font-size="10.499" font-family="Roboto-BoldItalic, Roboto" font-style="italic" baseline-shift="5.999400079342301">-1</tspan></text><path d="M20.309,11.872a5.117,5.117,0,0,0-.835-.088,2.4,2.4,0,0,0-2.1.993L16.275,19H13.8l1.652-9.51,2.329-.009-.229,1.16A2.615,2.615,0,0,1,19.764,9.3a3.615,3.615,0,0,1,.861.123Z" transform="translate(105.393 -4)" fill="#12263f"/><text transform="translate(104.393 20)" fill="#12263f" font-size="18" font-family="Roboto-BoldItalic, Roboto" font-weight="700" font-style="italic"><tspan x="0" y="19">s - a</tspan></text><path d="M1.072,13.832A14.853,14.853,0,0,1,2.949,8.22,8.072,8.072,0,0,1,6.6,4.771l.422,1.415Q4.017,8.479,3.217,13.56a21.8,21.8,0,0,0-.29,3.094q-.044,3.612,1.652,5.019L4.025,23a5.771,5.771,0,0,1-2.654-3.647,12.229,12.229,0,0,1-.448-3.727,14.761,14.761,0,0,1,.114-1.582Zm16.11,7.154H9.4L9.747,19h7.778Zm7.884,0H17.279L17.631,19h7.778Zm7.884,0H25.163L25.515,19h7.778Zm7.884,0H33.047L33.4,19h7.778Zm7.884,0H40.931L41.282,19h7.778Zm.861,2.039-.422-1.389q3.015-2.329,3.806-7.453a21.685,21.685,0,0,0,.272-3.032q.044-3.612-1.635-5.027L52.154,4.8a5.136,5.136,0,0,1,1.78,1.639,7.566,7.566,0,0,1,1.1,2.6,13.051,13.051,0,0,1,.338,3.129,15.6,15.6,0,0,1-.844,4.75,12.419,12.419,0,0,1-2.07,3.872A7.515,7.515,0,0,1,49.579,23.025Z" transform="translate(92.393 1)" fill="#12263f"/></g></g></g></g><g transform="translate(21)"><g transform="translate(0 95)"><rect width="180" height="54" transform="translate(691 9032)" fill="#deebad"/><g transform="translate(406.037 -1011)"><g transform="translate(299.463 10047.874)"><text fill="#12263f" font-size="18" font-family="Roboto-Bold, Roboto" font-weight="700"><tspan x="0" y="19">A =</tspan><tspan y="19" xml:space="preserve" font-family="Roboto-BoldItalic, Roboto" font-style="italic"> 2Tan</tspan><tspan y="19" font-size="10.499" font-family="Roboto-BoldItalic, Roboto" font-style="italic" baseline-shift="5.999400079342301">-1</tspan></text><path d="M20.309,11.872a5.117,5.117,0,0,0-.835-.088,2.4,2.4,0,0,0-2.1.993L16.275,19H13.8l1.652-9.51,2.329-.009-.229,1.16A2.615,2.615,0,0,1,19.764,9.3a3.615,3.615,0,0,1,.861.123Z" transform="translate(105.393 -4)" fill="#12263f"/><text transform="translate(104.393 20)" fill="#12263f" font-size="18" font-family="Roboto-BoldItalic, Roboto" font-weight="700" font-style="italic"><tspan x="0" y="19">s - b</tspan></text><path d="M1.072,13.832A14.853,14.853,0,0,1,2.949,8.22,8.072,8.072,0,0,1,6.6,4.771l.422,1.415Q4.017,8.479,3.217,13.56a21.8,21.8,0,0,0-.29,3.094q-.044,3.612,1.652,5.019L4.025,23a5.771,5.771,0,0,1-2.654-3.647,12.229,12.229,0,0,1-.448-3.727,14.761,14.761,0,0,1,.114-1.582Zm16.11,7.154H9.4L9.747,19h7.778Zm7.884,0H17.279L17.631,19h7.778Zm7.884,0H25.163L25.515,19h7.778Zm7.884,0H33.047L33.4,19h7.778Zm7.884,0H40.931L41.282,19h7.778Zm.861,2.039-.422-1.389q3.015-2.329,3.806-7.453a21.685,21.685,0,0,0,.272-3.032q.044-3.612-1.635-5.027L52.154,4.8a5.136,5.136,0,0,1,1.78,1.639,7.566,7.566,0,0,1,1.1,2.6,13.051,13.051,0,0,1,.338,3.129,15.6,15.6,0,0,1-.844,4.75,12.419,12.419,0,0,1-2.07,3.872A7.515,7.515,0,0,1,49.579,23.025Z" transform="translate(92.393 1)" fill="#12263f"/></g></g></g></g><g transform="translate(218)"><g transform="translate(0 95)"><rect width="180" height="54" transform="translate(691 9032)" fill="#deebad"/><g transform="translate(406.037 -1011)"><g transform="translate(299.463 10047.874)"><text fill="#12263f" font-size="18" font-family="Roboto-Bold, Roboto" font-weight="700"><tspan x="0" y="19">A =</tspan><tspan y="19" xml:space="preserve" font-family="Roboto-BoldItalic, Roboto" font-style="italic"> 2Tan</tspan><tspan y="19" font-size="10.499" font-family="Roboto-BoldItalic, Roboto" font-style="italic" baseline-shift="5.999400079342301">-1</tspan></text><path d="M20.309,11.872a5.117,5.117,0,0,0-.835-.088,2.4,2.4,0,0,0-2.1.993L16.275,19H13.8l1.652-9.51,2.329-.009-.229,1.16A2.615,2.615,0,0,1,19.764,9.3a3.615,3.615,0,0,1,.861.123Z" transform="translate(105.393 -4)" fill="#12263f"/><text transform="translate(104.393 20)" fill="#12263f" font-size="18" font-family="Roboto-BoldItalic, Roboto" font-weight="700" font-style="italic"><tspan x="0" y="19">s - c</tspan></text><path d="M1.072,13.832A14.853,14.853,0,0,1,2.949,8.22,8.072,8.072,0,0,1,6.6,4.771l.422,1.415Q4.017,8.479,3.217,13.56a21.8,21.8,0,0,0-.29,3.094q-.044,3.612,1.652,5.019L4.025,23a5.771,5.771,0,0,1-2.654-3.647,12.229,12.229,0,0,1-.448-3.727,14.761,14.761,0,0,1,.114-1.582Zm16.11,7.154H9.4L9.747,19h7.778Zm7.884,0H17.279L17.631,19h7.778Zm7.884,0H25.163L25.515,19h7.778Zm7.884,0H33.047L33.4,19h7.778Zm7.884,0H40.931L41.282,19h7.778Zm.861,2.039-.422-1.389q3.015-2.329,3.806-7.453a21.685,21.685,0,0,0,.272-3.032q.044-3.612-1.635-5.027L52.154,4.8a5.136,5.136,0,0,1,1.78,1.639,7.566,7.566,0,0,1,1.1,2.6,13.051,13.051,0,0,1,.338,3.129,15.6,15.6,0,0,1-.844,4.75,12.419,12.419,0,0,1-2.07,3.872A7.515,7.515,0,0,1,49.579,23.025Z" transform="translate(92.393 1)" fill="#12263f"/></g></g></g></g><path d="M-4318.811-1622.677H-4168.9" transform="translate(5058.814 10688)" fill="none" stroke="#16263d" stroke-width="2"/></g></svg>