<svg xmlns="http://www.w3.org/2000/svg" width="72" height="72" viewBox="0 0 72 72"><g transform="translate(-200 -8000)"><g transform="translate(7 -384)"><g transform="translate(-797.594 8356.812)"><path d="M1025.642,79.261q-11.14,0-22.28-.01c-.422,0-.5.128-.5.519.024,1.388.013,2.778.008,4.167,0,.9-.33,1.239-1.2,1.245q-1.765.013-3.53,0c-.832-.007-1.181-.366-1.182-1.215q-.005-7.668,0-15.336c0-.88.359-1.21,1.3-1.21q8.421,0,16.842,0c.686,0,.684,0,.369-.606-.859-1.656-1.729-3.305-2.566-4.972a4.967,4.967,0,0,1-.468-2.64.709.709,0,0,0-.242-.7,4.679,4.679,0,0,1-1.265-6.11c1.242-2.389,2.532-4.754,3.829-7.114a4.709,4.709,0,0,1,4.528-2.55,1.92,1.92,0,0,0,1.818-.822,5.278,5.278,0,0,1,4.362-2.124c5.016-.013,10.037-.137,15.045.064a15.867,15.867,0,0,1,12.064,6.3,16.693,16.693,0,0,1,3.653,10.835c-.013,4.437.011,8.874-.007,13.311a8.865,8.865,0,0,1-7.044,8.777,8.239,8.239,0,0,1-1.835.2Zm-7.039-1.99h2.546a20.083,20.083,0,0,1-2.109-3.734c-.412-.873-.881-1.432-1.925-1.2-.354.079-.406-.14-.4-.437.015-.673.005-1.346,0-2.019a1.045,1.045,0,0,0-.018-.343c-.081-.223-.306-.17-.448-.133-.486.126-1.067-.318-1.477.243-.009.4-.026.809-.027,1.213,0,1.544,0,1.534-1.563,1.491-.319-.009-.443-.087-.432-.423.022-.674-.016-1.351.015-2.025.019-.4-.109-.519-.515-.518-1.47.006-1.47-.01-1.47,1.464,0,1.548,0,1.535-1.547,1.5-.366-.008-.458-.13-.447-.472.022-.694.009-1.389,0-2.083,0-.182.057-.4-.256-.4-1.032,0-2.064,0-3.18,0a6.018,6.018,0,0,1,.031,7.841.961.961,0,0,0,.191.047Q1012.093,77.281,1018.6,77.272Zm2.094-4.845,1.293,2.515a4.1,4.1,0,0,0,3.933,2.349q10.616,0,21.233,0a7.281,7.281,0,0,0,1.718-.187,6.889,6.889,0,0,0,5.377-6.792c.017-4.223,0-8.446.007-12.669a20.839,20.839,0,0,0-.234-3.571,13.83,13.83,0,0,0-2.4-5.876,14.007,14.007,0,0,0-11.293-6.386c-4.794-.2-9.6-.044-14.4-.076a4.1,4.1,0,0,0-3.959,2.383c-2.332,4.454-4.687,8.9-7.026,13.346a4.137,4.137,0,0,0,0,4.093c.59,1.1,1.163,2.218,1.75,3.324Q1018.688,68.654,1020.7,72.426Zm-21.769.892q0,1.792,0,3.584c0,.181-.065.4.259.389a15.172,15.172,0,0,0,2.537-.1,3.934,3.934,0,0,0,1.074-7.308,7.145,7.145,0,0,0-3.442-.495c-.377-.016-.443.123-.437.462C998.94,71.005,998.928,72.162,998.928,73.318Zm14.192-16.65,6.315-12a5.264,5.264,0,0,0-1.445.224,2.939,2.939,0,0,0-1.518,1.356c-1.268,2.334-2.536,4.668-3.782,7.014A2.749,2.749,0,0,0,1013.12,56.668ZM1000.9,81.236v-.461c0-1.612,0-1.6-1.618-1.521-.273.014-.366.088-.359.363.016.691.005,1.383.005,2.075,0,1.613,0,1.605,1.618,1.521.273-.014.367-.089.358-.363C1000.888,82.312,1000.9,81.774,1000.9,81.236Z" fill="#020101"/><path d="M1078.433,78.966q-2.007-3.774-4.014-7.548c-.587-1.106-1.16-2.219-1.75-3.324a4.137,4.137,0,0,1,0-4.093c2.339-4.45,4.694-8.892,7.026-13.346a4.1,4.1,0,0,1,3.959-2.383c4.8.032,9.611-.129,14.4.076a14.007,14.007,0,0,1,11.293,6.386,25.67,25.67,0,0,1-2.06,2.892c-.379.453-.573,1.1-1.212,1.318-.068-.092-.139-.182-.2-.277a13.476,13.476,0,0,0-11.046-6.4,13.178,13.178,0,0,0-11.06,4.749,13.4,13.4,0,0,0-3.074,11.96,13.869,13.869,0,0,0,4.042,7.19c-.248.1-.5.192-.742.309C1082.172,77.358,1080.33,78.222,1078.433,78.966Z" transform="translate(-57.736 -6.539)" fill="#cb5349"/><path d="M1099.3,100.46c1.9-.744,3.738-1.608,5.57-2.5.241-.117.495-.206.743-.309a1.706,1.706,0,0,1,.189.13,13.237,13.237,0,0,0,8.748,3.559,13.448,13.448,0,0,0,12.041-6.181,13.224,13.224,0,0,0,2.253-8.662,14.528,14.528,0,0,0-1.893-6.063c.639-.219.833-.865,1.212-1.318a25.669,25.669,0,0,0,2.06-2.892,13.831,13.831,0,0,1,2.4,5.876,20.851,20.851,0,0,1,.234,3.571c-.007,4.223.01,8.446-.007,12.669a6.889,6.889,0,0,1-5.377,6.792,7.282,7.282,0,0,1-1.718.187q-10.616,0-21.233,0a4.1,4.1,0,0,1-3.933-2.349Z" transform="translate(-78.606 -28.034)" fill="#bc4d43"/><path d="M1046.431,175.466q-6.511.008-13.022.015a.96.96,0,0,1-.191-.047,6.018,6.018,0,0,0-.031-7.841c1.116,0,2.148,0,3.18,0,.314,0,.255.221.256.4,0,.694.017,1.389,0,2.083-.011.342.081.464.447.472,1.547.032,1.547.045,1.547-1.5,0-1.474,0-1.459,1.47-1.464.406,0,.534.113.515.518-.031.674.007,1.351-.015,2.025-.011.335.113.414.432.423,1.562.043,1.56.053,1.563-1.491,0-.4.017-.808.027-1.213a1.266,1.266,0,0,1,.329.533c.8,1.6,1.611,3.2,2.4,4.8A22.791,22.791,0,0,1,1046.431,175.466Z" transform="translate(-27.827 -98.195)" fill="#f0b64d"/><path d="M1005.434,171.513c0-1.156.012-2.313-.007-3.468-.006-.339.06-.478.437-.462a7.144,7.144,0,0,1,3.442.495,3.934,3.934,0,0,1-1.074,7.308,15.171,15.171,0,0,1-2.537.1c-.324.013-.259-.208-.259-.389Q1005.432,173.3,1005.434,171.513Zm3.031-.975c-1.059,0-1.059,0-1.059,1.048v.058c0,.867,0,.867.89.867,1.084,0,1.084,0,1.084-1.071C1009.38,170.538,1009.38,170.538,1008.465,170.538Z" transform="translate(-6.506 -98.195)" fill="#c1c1bf"/><path d="M1063.9,73.033a2.749,2.749,0,0,1-.43-3.4c1.247-2.345,2.514-4.68,3.782-7.014a2.94,2.94,0,0,1,1.518-1.356,5.265,5.265,0,0,1,1.445-.224Z" transform="translate(-50.783 -16.365)" fill="#5a5a59"/><path d="M1077.612,175.368a22.819,22.819,0,0,0-1.1-2.286c-.789-1.607-1.6-3.205-2.4-4.8a1.266,1.266,0,0,0-.329-.533c.41-.561.991-.116,1.477-.243.142-.037.367-.089.448.133a1.045,1.045,0,0,1,.018.343c0,.673.011,1.347,0,2.019-.007.3.045.516.4.437,1.045-.232,1.513.326,1.925,1.2a20.076,20.076,0,0,0,2.109,3.734Z" transform="translate(-59.008 -98.097)" fill="#eca449"/><path d="M1007.415,212c0,.538-.013,1.076.005,1.614.009.275-.084.349-.358.363-1.619.084-1.618.092-1.618-1.521,0-.692.011-1.384-.005-2.075-.006-.275.086-.349.359-.363,1.618-.084,1.618-.092,1.618,1.521Q1007.416,211.774,1007.415,212Z" transform="translate(-6.515 -130.769)" fill="#aeaeac"/><path d="M1133.405,72.189a14.527,14.527,0,0,1,1.892,6.063,13.223,13.223,0,0,1-2.253,8.662A13.448,13.448,0,0,1,1121,93.095a13.237,13.237,0,0,1-8.748-3.559,1.7,1.7,0,0,0-.189-.13,13.869,13.869,0,0,1-4.042-7.19,13.4,13.4,0,0,1,3.074-11.96,13.178,13.178,0,0,1,11.06-4.749,13.476,13.476,0,0,1,11.046,6.4C1133.267,72.007,1133.338,72.1,1133.405,72.189ZM1121.5,67.442a11.846,11.846,0,0,0,0,23.692,11.846,11.846,0,1,0,0-23.692Z" transform="translate(-85.056 -19.785)" fill="#020101"/><path d="M1015.019,180.327c.915,0,.915,0,.915.9,0,1.071,0,1.071-1.084,1.071-.889,0-.889,0-.89-.867v-.058C1013.96,180.327,1013.96,180.327,1015.019,180.327Z" transform="translate(-13.06 -107.984)" fill="#060606"/><path d="M1128.058,73.909a11.846,11.846,0,1,1-11.814,11.882A11.783,11.783,0,0,1,1128.058,73.909Zm.073,7.883q-4.019,0-8.037,0c-.894,0-1.166.2-1.43,1.034a9.639,9.639,0,0,0,.007,5.9c.242.777.534,1.01,1.335,1.011q8.095.008,16.189,0a1.137,1.137,0,0,0,1.281-.93,9.566,9.566,0,0,0,.031-6.013c-.248-.787-.556-1-1.4-1Q1132.121,81.789,1128.131,81.792Z" transform="translate(-91.617 -26.252)" fill="#5b5b5a"/><path d="M1134.618,107.888q3.989,0,7.979,0c.842,0,1.15.218,1.4,1a9.566,9.566,0,0,1-.031,6.013,1.137,1.137,0,0,1-1.281.93q-8.095.008-16.189,0c-.8,0-1.094-.234-1.335-1.011a9.637,9.637,0,0,1-.007-5.9c.264-.836.536-1.033,1.43-1.034Q1130.6,107.886,1134.618,107.888Zm4.544,2.014q-5.958-.013-11.915-.03c-.237,0-.324.083-.376.318a7.535,7.535,0,0,0,0,3.326c.054.242.153.313.382.312q3.643-.023,7.286-.035,3.7.017,7.392.036c.245,0,.322-.119.367-.342a8.228,8.228,0,0,0,0-3.265c-.051-.258-.158-.357-.42-.352C1140.971,109.888,1140.067,109.892,1139.162,109.9Z" transform="translate(-98.104 -52.349)" fill="#040402"/><path d="M1141.134,120.361q-3.643.016-7.286.035c-.229,0-.328-.069-.382-.312a7.535,7.535,0,0,1,0-3.326c.052-.235.14-.319.376-.318q5.958.021,11.915.03a.983.983,0,0,1-.175.283c-1.049.819-2.048,1.7-3.121,2.491C1142,119.585,1141.406,119.789,1141.134,120.361Z" transform="translate(-104.701 -58.918)" fill="#f2b74e"/><path d="M1167.134,120.351c.272-.572.868-.775,1.329-1.115,1.074-.791,2.072-1.673,3.121-2.491a.985.985,0,0,0,.175-.283c.9-.01,1.809-.013,2.713-.033.262-.006.369.094.42.352a8.228,8.228,0,0,1,0,3.265c-.045.223-.121.344-.367.342Q1170.83,120.364,1167.134,120.351Z" transform="translate(-130.701 -58.908)" fill="#e9a249"/></g><rect width="72" height="72" transform="translate(193 8384)" fill="none"/></g></g></svg>