<svg xmlns="http://www.w3.org/2000/svg" width="227" height="227" viewBox="0 0 227 227"><g transform="translate(-207.688 -3487)"><g transform="translate(9.688 -50)"><g transform="translate(-231.805 3304.802)"><g transform="translate(440.204 336.912)"><g transform="translate(141.92 0)"><path d="M633.187,354.035l2.394.7L618.992,423h-2.574Z" transform="translate(-616.419 -338.63)" fill="#e1725c" fill-rule="evenodd"/><path d="M636.468,354.794l-1.811.7,15.4,67.518h3Z" transform="translate(-616.782 -338.645)" fill="#e1725c" fill-rule="evenodd"/><rect width="2.294" height="69.41" transform="translate(16.728 14.958)" fill="#e1725c"/><rect width="32.028" height="2.129" transform="translate(1.625 55.118)" fill="#e1725c"/><path d="M635.712,354.942c-1.888-4.49-5.693-16.524-5.693-16.524l5.693-.1Z" transform="translate(-616.69 -338.317)" fill="#501919" fill-rule="evenodd"/><path d="M634.86,354.9c-3.661-3.18-13.642-11.611-13.642-11.611l4.877-2.786Z" transform="translate(-616.514 -338.361)" fill="#501919" fill-rule="evenodd"/><path d="M634.773,355.027c-4.846-1.018-17.935-3.587-17.935-3.587l2.755-4.726Z" transform="translate(-616.427 -338.484)" fill="#501919" fill-rule="evenodd"/><path d="M634.781,354.986c-4.734,1.839-17.423,5.4-17.423,5.4l-.1-5.4Z" transform="translate(-616.435 -338.649)" fill="#501919" fill-rule="evenodd"/><path d="M634.828,355.2c-3.353,3.47-12.242,12.937-12.242,12.937l-2.937-4.626Z" transform="translate(-616.483 -338.653)" fill="#501919" fill-rule="evenodd"/><path d="M634.959,355.28c-1.073,4.6-3.781,17.009-3.781,17.009l-4.984-2.614Z" transform="translate(-616.613 -338.655)" fill="#501919" fill-rule="evenodd"/><path d="M635.828,355.28c1.416,4.489,5.692,16.523,5.692,16.523l-5.692.1Z" transform="translate(-616.805 -338.655)" fill="#501919" fill-rule="evenodd"/><path d="M635.137,355.28c3.661,3.178,13.642,11.61,13.642,11.61l-4.878,2.785Z" transform="translate(-616.792 -338.655)" fill="#501919" fill-rule="evenodd"/><path d="M635.137,355.28c4.846,1.016,17.936,3.585,17.936,3.585l-2.756,4.726Z" transform="translate(-616.792 -338.655)" fill="#501919" fill-rule="evenodd"/><path d="M635.137,354.876c4.734-1.379,17.423-5.4,17.423-5.4l.106,5.4Z" transform="translate(-616.792 -338.539)" fill="#501919" fill-rule="evenodd"/><path d="M635.137,355.017c3.353-3.471,12.243-12.939,12.243-12.939l2.936,4.626Z" transform="translate(-616.792 -338.392)" fill="#501919" fill-rule="evenodd"/><path d="M635.828,354.448c1.073-4.6,3.586-16.131,3.586-16.131l5.179,1.733Z" transform="translate(-616.805 -338.317)" fill="#501919" fill-rule="evenodd"/><path d="M635.057,358.833a3.74,3.74,0,1,0-3.939-3.734A3.847,3.847,0,0,0,635.057,358.833Z" transform="translate(-616.711 -338.577)" fill="#ffa695" fill-rule="evenodd"/></g><g transform="translate(6.538 71.936)"><path d="M449.715,432.823s3.572-8.212,14.289-8.7,15.565,2.736,26.989,1.532c12.928-1.362,16.364-12.747,37.079-13.773,28.017-1.388,23.514,6.206,42.622,8.385,18.563,2.117,27.271-2.9,43.346-2.473s28.578,15.029,28.578,15.029Z" transform="translate(-449.715 -411.714)" fill="#84deaa"/></g><line x2="206.203" transform="translate(0 93.266)" fill="none" stroke="#b6958e" stroke-miterlimit="10" stroke-width="1.001"/><g transform="translate(12.75 44.398)"><path d="M479.06,418.5a1.519,1.519,0,0,0-.543,1.16c-.246,1.941-.12,4.006-1.061,5.732-.532.978-1.379,1.781-1.814,2.8a.569.569,0,0,0,0,.59c.231.265.659,0,.914-.244s.752-.433.9-.116-.3.984.046.955c.571-.049.5-1.337,1.071-1.284.625.059.3,1.634.925,1.561,1.072-.125.464-2.018.375-3.067a18.871,18.871,0,0,1,.113-4.193,9.788,9.788,0,0,0,.183-3.067c-.061-.337-.257-.737-.609-.73" transform="translate(-456.442 -384.312)" fill="#ffb246"/><path d="M484.259,417.98c-.121-.235-.451.077-.5.335a17.892,17.892,0,0,0-.293,3.578,9.74,9.74,0,0,1-.16,2.922c-.367,1.257-1.363,2.288-1.646,3.566-.075.337.044.833.4.793a.618.618,0,0,0,.378-.283c.351-.452.516-1.133,1.051-1.354.211-.087.284.33.223.545s-.18.441-.091.646c.131.3.625.267.836.014s-.116-.91.218-.934c.661-.051.49,1.688,1.125,1.505.983-.28.138-1.936-.087-2.908a24.08,24.08,0,0,1-.134-6.106c.028-1.046-.176-2.341-1.192-2.681" transform="translate(-456.563 -384.295)" fill="#ffb246"/><path d="M461.828,386.059s-6,1.863-5.768,3.393c.1.655,1.666-.053,2.438.273,1.052.445,4.644-.413,4.644-.413Z" transform="translate(-456.054 -383.666)" fill="#ffb246"/><path d="M461.94,386.01a3.717,3.717,0,0,1,3.935-2.342,4.811,4.811,0,0,1,3.349,3.008,13.641,13.641,0,0,1,.763,4.545q.157,2.981.314,5.962c.091,1.723.3,3.674,1.71,4.718,1.232.912,2.951.79,4.471.51,2.51-.463,4.955-1.239,7.479-1.62a12.922,12.922,0,0,1,7.5.761c1.206.58,2.327,1.457,3.668,1.57a8.05,8.05,0,0,0,3.489-.878,1.63,1.63,0,0,1,1.193-.125c.676.285.618,1.312.106,1.828a6.281,6.281,0,0,1-1.935,1.008c-2.857,1.324-3.8,4.73-5.452,7.36a14.869,14.869,0,0,1-8.845,6.314,17.576,17.576,0,0,1-11-.856,12.783,12.783,0,0,1-5.318-3.834c-2.143-2.783-2.547-6.445-2.878-9.911-.428-4.51-.284-14.218-1.465-14.7A2.487,2.487,0,0,1,461.94,386.01Z" transform="translate(-456.166 -383.617)" fill="#fff"/><path d="M472.591,406.167a11.63,11.63,0,0,0,3.7,7.555,12.236,12.236,0,0,0,7.947,3.181,1.67,1.67,0,0,0,1.141-.274c.514-.442.322-1.266-.024-1.841a5.362,5.362,0,0,0-3.453-2.429,10.214,10.214,0,0,0,4.551.164,1.432,1.432,0,0,0,.812-.359c.5-.545-.1-1.442-.813-1.664s-1.507-.091-2.221-.315a4.665,4.665,0,0,0,3.723-1.4,1.66,1.66,0,0,0,.545-1.127c-.028-1.016-1.392-1.361-2.435-1.409l-8.582-.4-2.974-.138a2.473,2.473,0,0,0-1.469.235c-.421.271-.592.948-.193,1.249" transform="translate(-456.383 -384.057)" fill="#eee"/></g></g><g transform="translate(471.521 267.743)"><g transform="translate(33.535 69.132)"><g transform="translate(27.845 8.311)"><g transform="translate(28.2 47.738)"><path d="M590.147,411.387l5.866-5.5-8.273-10.423-5.866,5.5Z" transform="translate(-581.874 -395.468)" fill="#fff"/><g transform="translate(1.513 9.345)"><path d="M595.009,405.272l-7.619,7.139-3.7,8.323a4.888,4.888,0,0,0,1.153,5.071h0l17.526-16.419-6.026-4.145A1.011,1.011,0,0,0,595.009,405.272Z" transform="translate(-583.418 -405.003)" fill="#ba5c42"/><path d="M587.117,413.314l-.385-2.874a1.789,1.789,0,0,1,.812-1.749c.865-.549,2.238-.87,3.737.914Z" transform="translate(-583.484 -405.068)" fill="#ba5c42"/></g><path d="M603.432,410.341l-17.616,16.5-.939-.951,17.616-16.5Z" transform="translate(-581.934 -395.745)"/><path d="M604.029,410.744l-7.851,7.355-1.337-1.354,7.851-7.355Z" transform="translate(-582.133 -395.745)"/><path d="M589.925,424.036l-3.711,3.476-1.338-1.354,3.711-3.476Z" transform="translate(-581.934 -396.01)"/><path d="M594.907,419.368l-3.711,3.476-1.338-1.354,3.711-3.476Z" transform="translate(-582.033 -395.917)"/></g><path d="M566.26,346.76l6.424,22.53,22.175,29.294-13.014,8.9-19.823-26.137a23.222,23.222,0,0,1-3.345-5.552L553.1,362.662Z" transform="translate(-553.101 -346.76)" fill="#c65951"/></g><g transform="translate(0 71.375)"><path d="M538.944,424.2h8.139l1.457-13.1H540.4Z" transform="translate(-524.974 -411.106)" fill="#fff"/><g transform="translate(0 9.118)"><g transform="translate(0 2.699)"><path d="M546.629,423.163H536.056l-8.588,3.5a4.971,4.971,0,0,0-2.779,4.433h24.319l-1.393-7.057A.981.981,0,0,0,546.629,423.163Z" transform="translate(-524.69 -423.163)" fill="#ba5c42"/></g><path d="M535.429,423.484l1.768-2.332a1.876,1.876,0,0,1,1.831-.712c1.013.187,2.233.883,2.043,3.181Z" transform="translate(-524.904 -420.409)" fill="#ba5c42"/></g><rect width="24.443" height="1.32" transform="translate(0 19.754)"/><rect width="10.893" height="1.879" transform="translate(13.55 19.754)"/><rect width="5.149" height="1.879" transform="translate(0 19.754)"/><rect width="5.149" height="1.879" transform="translate(6.775 19.754)"/></g><path d="M565.224,341.307l-15.186-3.027c0,3.593-8.109,27.5-10.853,34.584a28.36,28.36,0,0,0-1.676,6.56l-1.9,37.036,16.658.241,2.815-36.121,8.968-19.414C571.8,348.754,565.224,341.307,565.224,341.307Z" transform="translate(-524.908 -338.28)" fill="#dc766c"/></g><g transform="translate(0 6.98)"><g transform="translate(21.686 31.866)"><path d="M523.7,325.1l20.628,2.5c1.068.2,3.478,3.323,3.546,4.381h0l0,.047a2.787,2.787,0,0,1-3.507,2.662l-18.791-5.866Z" transform="translate(-512.822 -307.731)" fill="#ffbe9a"/><path d="M550.394,334.856l-8.657-8.384a53.5,53.5,0,0,1,9.691-18.144c1.425-1.662,2.522-.718,4.707-.318h0a5.315,5.315,0,0,1,3.853,7.523C557.8,320.424,550.394,334.856,550.394,334.856Z" transform="translate(-513.181 -307.379)" fill="#fff"/><path d="M523.472,325.1s-4.818-1.151-6.781.326-4.887,3.534-3.888,5.093c.637.994,2.554,1.418,3.86,1.595a1.434,1.434,0,0,0,1.545-.826,2.376,2.376,0,0,1,2.336-1.674c2.517-.21,1.159,1.187,4.812-.8Z" transform="translate(-512.601 -307.723)" fill="#ffbe9a"/></g><line y1="71.956" x2="107.892" fill="none" stroke="#501919" stroke-linecap="round" stroke-linejoin="round" stroke-width="2.033"/></g><g transform="translate(63.618 38.245)"><g transform="translate(12.271 17.875)"><path d="M575.292,349.577l-7.349-18.937c-.315-1.014,1.4-4.548,2.328-5.1h0a6.239,6.239,0,0,1,3.519-.467l6.323,23.792Z" transform="translate(-567.905 -325.003)" fill="#ffbe9a"/><g transform="translate(4.939 22.816)"><path d="M582.893,352.334a4.51,4.51,0,0,0-4.913-4.034,4.462,4.462,0,0,0-4.143,4.785,4.511,4.511,0,0,0,4.913,4.034A4.462,4.462,0,0,0,582.893,352.334Z" transform="translate(-572.962 -348.283)" fill="#ffbe9a"/><path d="M575.333,356.017a1.658,1.658,0,0,1-2.305-1.536c-.383-2.291.422-5.459,4.934-6.181Z" transform="translate(-572.944 -348.284)" fill="#ffbe9a"/></g></g><path d="M574.025,326.078l-6.331,4.2s-7.693-9.309-11.558-15.657a5.151,5.151,0,0,1,.4-5.921h0c2.209-2.755,6.177-2.432,8.632.118C570.841,314.71,574.025,326.078,574.025,326.078Z" transform="translate(-555.385 -306.765)" fill="#fff"/></g><g transform="translate(53.439 35.291)"><path d="M559.9,303.751s6.555,3.954,4.182,15.071-1.673,13.494,1.335,21.8l-16.343,2.344-2.4-16.436s-4.407-4.513,2.487-14.2l2.336-4.072Z" transform="translate(-545.005 -303.751)" fill="#fff"/><g transform="translate(0 4.039)"><path d="M547.073,315.943l10.359-.78a24.059,24.059,0,0,0,7.979,25.683l-16.27,2.84-2.47-16.932S542.654,323.4,547.073,315.943Z" transform="translate(-544.999 -308.017)" fill="#dc766c"/><path d="M557.643,315.023l2.13-6.367-1.392-.536-2.823,8.234Z" transform="translate(-545.209 -307.877)" fill="#dc766c"/><path d="M547.115,315.8l4.42-7.461,1.1-.465-4.289,8.476Z" transform="translate(-545.041 -307.872)" fill="#dc766c"/></g></g><g transform="translate(104.327)"><path d="M596.92,274.953l8.489-6.326a3.5,3.5,0,0,1,1.147-.573c2.126-.6,8.678-1.357,16.2,8.623l-13.181,8.572-6.984-10.187-3.677,2.8Z" transform="translate(-596.92 -267.743)" fill="#dfbaaf"/><path d="M604.822,273.3l2.586-2.011,3.708,6.839Z" transform="translate(-597.077 -267.814)" fill="#c69f95"/></g><g transform="translate(41.281 6.038)"><path d="M562.93,281.134c-.075,3.879-4.593,6.9-8.85,6.818s-8.655-3.35-8.581-7.229,4.593-6.9,8.85-6.818S563,277.255,562.93,281.134Z" transform="translate(-532.851 -273.904)" fill="#ffb246"/><path d="M554.577,278.278s-21.132-2.39-21.931,2.436c-1.091,6.587,15.333,8.178,15.333,8.178s25.942,3.321,27.19-2.484S554.577,278.278,554.577,278.278Z" transform="translate(-532.594 -273.979)" fill="#ffc05e"/><g transform="translate(10.86 4.201)"><path d="M549.035,293.213s1,5.777-.878,9.367c-1.085,2.075.99,4.462,3.393,5.466,0,0,3.963-3.289,5.463-3.788l-.17-9.363Z" transform="translate(-543.758 -278.489)" fill="#501919"/><path d="M551.625,308.214l2.371-4.5,5.7-2.048-.335,3.276Z" transform="translate(-543.833 -278.657)" fill="#ffbe9a"/><path d="M551.38,297.572l2.671,7.727,6.973-3.687-3.744-10.8Z" transform="translate(-543.828 -278.441)" fill="#ffbe9a"/><path d="M552.47,300.843c-.046-.135,1.845-3.427,1.845-3.427l-2.689,1.191Z" transform="translate(-543.833 -278.573)" fill="#eda37c"/><path d="M549.1,281.33s-3.766.613-3.969,5.225c0,0-.111,3.344-.229,8.158a4.057,4.057,0,0,0,4.857,4.059,12.373,12.373,0,0,0,4.849-2.13l2.18-1.987a8.073,8.073,0,0,0-7.138-13.408Q549.375,281.283,549.1,281.33Z" transform="translate(-543.699 -278.249)" fill="#ffbe9a"/><path d="M545.51,291.557l-1.716,1.588a.369.369,0,0,0,.223.638l1.71.176Z" transform="translate(-543.675 -278.456)" fill="#ffbe9a"/><g transform="translate(1.666 9.519)"><path d="M546.723,287.936s-1.252-.2-1.348.352c0,0-.055.373,1.041.522s1.4.083,1.55-.261S547.316,287.98,546.723,287.936Z" transform="translate(-545.375 -287.902)" fill="#1b1729"/><path d="M546.9,291.056a.527.527,0,0,1-.419.62.537.537,0,0,1-.621-.427.527.527,0,0,1,.419-.62A.537.537,0,0,1,546.9,291.056Z" transform="translate(-545.384 -287.956)" fill="#1b1729"/><line x2="0.877" transform="translate(0 7.132)" fill="none" stroke="#001736" stroke-linecap="round" stroke-linejoin="round" stroke-width="0.385"/></g><path d="M554.14,289.562s2.23-11.2-7.7-6.646c0,0,3.852-6.127,12.591-2.424a7.507,7.507,0,0,1,4.067,4.867c.551,3.1-.708,1.788-3.534,6.658l-3.84.193A13.492,13.492,0,0,0,554.14,289.562Z" transform="translate(-543.73 -278.212)" fill="#501919"/><path d="M557.335,286.291l-1.989,4.62c-12.725-3.868-7.933-10.655-7.933-10.655S558.714,278.262,557.335,286.291Z" transform="translate(-543.732 -278.227)" fill="#501919"/><path d="M551.034,288.659l1.786,2.59,2.238-3.027Z" transform="translate(-543.821 -278.39)" fill="#501919"/><path d="M550.233,281.858s-4.356.708-4.988,3.653c0,0-.716-3.2,3.329-4.664S550.233,281.858,550.233,281.858Z" transform="translate(-543.705 -278.234)" fill="#501919"/><path d="M561.166,282.2a11.829,11.829,0,0,1,2.984,5.971c.56,3.566,7.07,5.056,10.585,8.492,2.621,2.562,1.99,3.394,1.99,3.394a17.855,17.855,0,0,0-4.868,5.07c-1.99,3.209-4.28,3.583-10.691,3.227-9.493-.528-6.8-16.319-6.8-16.319l1.889-9.2Z" transform="translate(-543.88 -278.27)" fill="#501919"/><g transform="translate(8.926 10.679)"><path d="M557.8,291.336a2.471,2.471,0,0,1-2.3,2.642,2.5,2.5,0,0,1-2.712-2.242,2.47,2.47,0,0,1,2.3-2.641A2.5,2.5,0,0,1,557.8,291.336Z" transform="translate(-552.782 -289.086)" fill="#ffbe9a"/><path d="M554.258,292.142a1.436,1.436,0,0,1,1.613-1.63" transform="translate(-552.812 -289.115)" fill="none" stroke="#001736" stroke-linecap="round" stroke-linejoin="round" stroke-width="0.385"/></g><path d="M543.709,282.7s8.94-1.691,20.586,2.568l-1.485-5.439-15.937-1.638Z" transform="translate(-543.675 -278.19)" fill="#ffc05e"/></g></g></g></g><rect width="227" height="227" transform="translate(198 3537)" fill="none"/></g></g></svg>