<svg xmlns="http://www.w3.org/2000/svg" width="227" height="227" viewBox="0 0 227 227"><g transform="translate(-529 -3487)"><g transform="translate(331 -50)"><rect width="227" height="227" transform="translate(198 3537)" fill="none"/><g transform="translate(-252.505 3524.175)"><g transform="translate(458.362 41.262)"><g transform="translate(0 119.394)"><g transform="translate(11.321 21.488)"><path d="M476.218,216.39s3.432-11.182,13.728-11.846,14.954,3.726,25.932,2.087c12.42-1.856,15.72-17.359,35.623-18.757,26.918-1.889,22.592,8.451,40.95,11.418,17.835,2.882,26.2-3.942,41.646-3.368s27.457,20.466,27.457,20.466Z" transform="translate(-476.218 -187.644)" fill="#84deaa"/></g><g transform="translate(96.001 5.169)"><path d="M585.472,216.251H575.087V177.066l5.192-6.379,5.192,6.379Z" transform="translate(-564.613 -170.687)" fill="#e1725c"/><path d="M607.82,216.251H597.435V177.066l5.192-6.379,5.192,6.379Z" transform="translate(-565.453 -170.687)" fill="#e1725c"/><path d="M630.169,216.251H619.784V177.066l5.192-6.379,5.192,6.379Z" transform="translate(-566.293 -170.687)" fill="#e1725c"/><path d="M652.518,216.251H642.133V177.066l5.192-6.379,5.193,6.379Z" transform="translate(-567.133 -170.687)" fill="#e1725c"/><rect width="93.374" height="5.162" transform="translate(0 14.487)" fill="#e1725c"/><rect width="93.374" height="5.162" transform="translate(0 29.739)" fill="#e1725c"/></g><g transform="translate(3.579)"><path d="M493.266,165.317a42.073,42.073,0,0,0-41.441,49.519h82.881a42.074,42.074,0,0,0-41.44-49.519Z" transform="translate(-451.161 -165.317)" fill="#ffc05e"/><g transform="translate(4.344 3.743)"><path d="M477.93,174.254a51.549,51.549,0,0,1-5.035,3.931c-.6.411-.033,1.4.573.981a53.728,53.728,0,0,0,5.265-4.109c.549-.485-.258-1.286-.8-.8Z" transform="translate(-456.312 -169.39)" fill="#fbb355"/><path d="M478.037,178.253a14.231,14.231,0,0,1-2.4,2.371c-.576.448.232,1.246.8.8a14.3,14.3,0,0,0,2.4-2.37c.45-.566-.347-1.374-.8-.8Z" transform="translate(-456.417 -169.539)" fill="#fbb355"/><path d="M471.464,183.014l-4.585,4.772c-.506.527.3,1.332.8.8l4.585-4.772c.506-.527-.3-1.331-.8-.8Z" transform="translate(-456.089 -169.719)" fill="#fbb355"/><path d="M476.8,185.487l-4.405,3.484c-.573.452.236,1.251.8.8l4.406-3.483c.573-.453-.236-1.252-.8-.8Z" transform="translate(-456.295 -169.813)" fill="#fbb355"/><path d="M468.795,194.376l-2.2,2.935c-.439.584.547,1.151.98.573q1.1-1.467,2.2-2.935c.439-.584-.547-1.151-.981-.573Z" transform="translate(-456.08 -170.143)" fill="#fbb355"/><path d="M485.235,171.33l-2.786,2.385c-.556.476.25,1.276.8.8l2.786-2.386c.556-.476-.25-1.276-.8-.8Z" transform="translate(-456.673 -169.281)" fill="#fbb355"/><path d="M484.272,178.527l-3.661,3.405c-.536.5.268,1.3.8.8l3.661-3.405c.536-.5-.268-1.3-.8-.8Z" transform="translate(-456.605 -169.551)" fill="#fbb355"/><path d="M482.344,191.1l-.5,1.01c-.326.652.652,1.228.98.574l.505-1.01c.325-.652-.654-1.228-.981-.574Z" transform="translate(-456.655 -170.018)" fill="#fbb355"/><path d="M474.793,192.011l-2.167,3.646a.568.568,0,0,0,.981.574l2.166-3.647a.568.568,0,0,0-.98-.573Z" transform="translate(-456.308 -170.053)" fill="#fbb355"/><path d="M476.091,198.58l-1.389,3.785c-.252.687.845.984,1.1.3l1.389-3.785c.252-.687-.845-.984-1.1-.3Z" transform="translate(-456.388 -170.295)" fill="#fbb355"/><path d="M458.034,191.636q-1.133,1.767-2.267,3.535c-.4.617.587,1.188.981.574l2.267-3.536c.4-.617-.586-1.187-.981-.573Z" transform="translate(-455.674 -170.039)" fill="#fbb355"/><path d="M458.518,200.8q-1.34,2.2-2.678,4.4a.568.568,0,0,0,.98.574l2.679-4.4c.381-.626-.6-1.2-.981-.574Z" transform="translate(-455.677 -170.383)" fill="#fbb355"/><path d="M461.935,201.2a18.859,18.859,0,0,1-1.2,2.388.568.568,0,0,0,.981.573,20.832,20.832,0,0,0,1.32-2.659c.279-.675-.82-.968-1.1-.3Z" transform="translate(-455.861 -170.394)" fill="#fbb355"/><path d="M460.692,207.863h-.126a.568.568,0,0,0,0,1.136h.126a.568.568,0,0,0,0-1.136Z" transform="translate(-455.837 -170.659)" fill="#fbb355"/><path d="M471.5,207.229l-1.138,3.028c-.257.685.84.981,1.1.3l1.138-3.028c.257-.685-.84-.981-1.1-.3Z" transform="translate(-456.225 -170.621)" fill="#fbb355"/><path d="M467.455,201.861q-.563,1.39-1.127,2.779c-.274.677.824.971,1.1.3q.563-1.39,1.127-2.779c.274-.678-.824-.972-1.1-.3Z" transform="translate(-456.073 -170.419)" fill="#fbb355"/><path d="M465.373,210.4v.126a.568.568,0,0,0,1.135,0V210.4a.568.568,0,0,0-1.135,0Z" transform="translate(-456.039 -170.733)" fill="#fbb355"/><path d="M480.421,208.8a21.335,21.335,0,0,1-.958,2.922c-.277.676.821.97,1.1.3a21.336,21.336,0,0,0,.958-2.922.568.568,0,0,0-1.1-.3Z" transform="translate(-456.567 -170.679)" fill="#fbb355"/><path d="M480.587,199.234l-.378,2.145c-.126.714.968,1.021,1.1.3l.378-2.144c.126-.715-.968-1.022-1.1-.3Z" transform="translate(-456.596 -170.319)" fill="#fbb355"/><path d="M488.028,190.448q-.338,2.433-.909,4.818c-.169.71.925,1.013,1.1.3q.572-2.388.909-4.818c.1-.715-1-1.024-1.1-.3Z" transform="translate(-456.855 -169.989)" fill="#fbb355"/><path d="M487.157,183.934q.191,1.387.379,2.776c.1.721,1.192.414,1.1-.3l-.379-2.776c-.1-.721-1.192-.414-1.1.3Z" transform="translate(-456.857 -169.733)" fill="#fbb355"/><path d="M489.048,177.122q.505.694,1.01,1.388c.426.585,1.412.019.981-.573l-1.01-1.389c-.425-.585-1.411-.019-.981.574Z" transform="translate(-456.924 -169.473)" fill="#fbb355"/><path d="M492.415,172.517l3.554,3.765c.5.532,1.3-.271.8-.8l-3.555-3.764c-.5-.532-1.305.271-.8.8Z" transform="translate(-457.049 -169.294)" fill="#fbb355"/><path d="M502.935,173.853l3.3,4.4c.433.577,1.42.013.981-.574l-3.3-4.4c-.432-.577-1.419-.012-.98.574Z" transform="translate(-457.446 -169.35)" fill="#fbb355"/><path d="M494.113,180.388q1.8,2.22,3.495,4.516c.43.581,1.417.015.981-.573q-1.786-2.412-3.672-4.746c-.46-.569-1.259.239-.8.8Z" transform="translate(-457.114 -169.589)" fill="#fbb355"/><path d="M498.75,179.22q1.478,2.023,2.777,4.163a.568.568,0,0,0,.981-.573q-1.3-2.142-2.777-4.164c-.426-.584-1.412-.018-.981.574Z" transform="translate(-457.289 -169.552)" fill="#fbb355"/><path d="M492.832,186.706a34.718,34.718,0,0,1,3.116,5.127c.324.654,1.3.08.981-.574a34.87,34.87,0,0,0-3.116-5.126c-.427-.583-1.413-.017-.981.573Z" transform="translate(-457.067 -169.833)" fill="#fbb355"/><path d="M491.219,196.652a17.972,17.972,0,0,1,.362,4.264c-.023.731,1.113.73,1.136,0a19.254,19.254,0,0,0-.4-4.567c-.149-.715-1.243-.413-1.1.3Z" transform="translate(-457.009 -170.211)" fill="#fbb355"/><path d="M484.5,201.463l-.756,3.028a.568.568,0,0,0,1.094.3q.38-1.514.757-3.029a.568.568,0,0,0-1.1-.3Z" transform="translate(-456.729 -170.403)" fill="#fbb355"/><path d="M488.059,199.385l.266,3.028c.064.722,1.2.729,1.136,0l-.266-3.028c-.064-.722-1.2-.729-1.136,0Z" transform="translate(-456.891 -170.32)" fill="#fbb355"/><path d="M489.164,208.69a4.514,4.514,0,0,0,.006,2.708c.219.695,1.316.4,1.1-.3a3.429,3.429,0,0,1-.006-2.106c.216-.7-.88-1-1.1-.3Z" transform="translate(-456.925 -170.675)" fill="#fbb355"/><path d="M499.087,209.369l.126.63c.143.716,1.239.413,1.1-.3l-.126-.631c-.143-.716-1.238-.413-1.1.3Z" transform="translate(-457.305 -170.689)" fill="#fbb355"/><path d="M497.4,196.377l.126.126a.568.568,0,0,0,.8-.8l-.126-.126a.568.568,0,0,0-.8.8Z" transform="translate(-457.236 -170.191)" fill="#fbb355"/><path d="M463.834,195.015l.126.126a.568.568,0,0,0,.8-.8l-.126-.126a.568.568,0,0,0-.8.8Z" transform="translate(-455.975 -170.14)" fill="#fbb355"/><path d="M495.01,203.319a26.232,26.232,0,0,0,.392,4.188c.124.719,1.219.415,1.1-.3a24.372,24.372,0,0,1-.351-3.887.568.568,0,0,0-1.136,0Z" transform="translate(-457.152 -170.467)" fill="#fbb355"/><path d="M504.852,202.291a5.718,5.718,0,0,1,.368,1.74c.036.728,1.171.732,1.136,0a6.76,6.76,0,0,0-.408-2.041c-.252-.679-1.35-.386-1.1.3Z" transform="translate(-457.521 -170.424)" fill="#fbb355"/><path d="M504.787,194.031q1.389,2.082,2.777,4.163c.4.605,1.388.038.981-.573l-2.777-4.164c-.4-.6-1.388-.037-.981.574Z" transform="translate(-457.516 -170.108)" fill="#fbb355"/><path d="M501.577,189.255a34.823,34.823,0,0,0,4.3,1.7c.7.223,1-.873.3-1.1a32.649,32.649,0,0,1-4.028-1.582c-.657-.311-1.235.668-.574.98Z" transform="translate(-457.388 -169.92)" fill="#fbb355"/><path d="M510.885,187.027a7.789,7.789,0,0,1,1.819,1.937c.4.606,1.387.039.981-.573a9.381,9.381,0,0,0-2.226-2.345c-.585-.438-1.152.548-.574.981Z" transform="translate(-457.74 -169.835)" fill="#fbb355"/><path d="M511.15,182.242l4.164,1.136a.568.568,0,0,0,.3-1.1l-4.163-1.136a.568.568,0,0,0-.3,1.1Z" transform="translate(-457.744 -169.654)" fill="#fbb355"/><path d="M514.037,177.905l2.777.757a.568.568,0,0,0,.3-1.1l-2.776-.756a.568.568,0,0,0-.3,1.094Z" transform="translate(-457.852 -169.491)" fill="#fbb355"/><path d="M508.265,171.686l.883.63c.6.426,1.164-.558.574-.98l-.884-.631c-.6-.425-1.164.559-.573.981Z" transform="translate(-457.641 -169.259)" fill="#fbb355"/><path d="M496.746,170.152a30.337,30.337,0,0,0,3.386,2.5c.619.393,1.19-.59.574-.981a28.205,28.205,0,0,1-3.157-2.321c-.553-.471-1.361.329-.8.8Z" transform="translate(-457.211 -169.206)" fill="#fbb355"/><path d="M512.082,194.673l3.028,3.028a.568.568,0,0,0,.8-.8l-3.028-3.029a.568.568,0,0,0-.8.8Z" transform="translate(-457.788 -170.127)" fill="#fbb355"/><path d="M505.118,181.968l.252.757c.23.69,1.327.394,1.1-.3l-.252-.757c-.23-.689-1.327-.394-1.1.3Z" transform="translate(-457.531 -169.66)" fill="#fbb355"/><path d="M512.2,206.954q.378.253.757.5c.609.407,1.179-.576.573-.98l-.757-.505c-.609-.406-1.179.576-.573.981Z" transform="translate(-457.789 -170.584)" fill="#fbb355"/><path d="M499.668,201.9q.127.189.252.379c.4.6,1.388.037.981-.574l-.252-.378c-.4-.605-1.388-.038-.981.573Z" transform="translate(-457.324 -170.403)" fill="#fbb355"/><path d="M479.008,189.422v.126a.568.568,0,0,0,1.136,0v-.126a.568.568,0,0,0-1.136,0Z" transform="translate(-456.551 -169.945)" fill="#fbb355"/><path d="M468.912,179.064v.126a.568.568,0,0,0,1.136,0v-.126a.568.568,0,0,0-1.136,0Z" transform="translate(-456.172 -169.556)" fill="#fbb355"/><path d="M520.317,186.837a23.534,23.534,0,0,0,4.059,2.565c.653.322,1.229-.657.574-.981a22.135,22.135,0,0,1-3.829-2.387c-.57-.445-1.379.353-.8.8Z" transform="translate(-458.096 -169.834)" fill="#fbb355"/><path d="M518.245,189.821l3.161,3.148a.568.568,0,0,0,.8-.8l-3.161-3.148a.568.568,0,0,0-.8.8Z" transform="translate(-458.019 -169.944)" fill="#fbb355"/><path d="M518.487,198.177a18.069,18.069,0,0,1,2.549,1.911c.543.487,1.348-.314.8-.8a19.707,19.707,0,0,0-2.781-2.089c-.623-.386-1.193.6-.573.981Z" transform="translate(-458.025 -170.255)" fill="#fbb355"/><path d="M505.785,208.317a36.611,36.611,0,0,0,1.635,4.075c.312.661,1.292.086.981-.573a34.208,34.208,0,0,1-1.522-3.8c-.229-.689-1.326-.394-1.094.3Z" transform="translate(-457.556 -170.65)" fill="#fbb355"/><path d="M511.689,201.227l2.523,2.9c.481.552,1.281-.254.8-.8l-2.523-2.9c-.481-.552-1.281.253-.8.8Z" transform="translate(-457.774 -170.372)" fill="#fbb355"/><path d="M516.664,207.531q.621,1.96,1.24,3.919c.219.694,1.317.4,1.1-.3q-.619-1.959-1.24-3.918c-.219-.695-1.317-.4-1.1.3Z" transform="translate(-457.965 -170.62)" fill="#fbb355"/><path d="M518.375,203.458l3.5,3.689c.5.531,1.306-.272.8-.8l-3.5-3.689c-.5-.531-1.306.272-.8.8Z" transform="translate(-458.025 -170.457)" fill="#fbb355"/><path d="M524.9,197.938a19.149,19.149,0,0,1,4.245,2.718c.554.471,1.362-.329.8-.8a20.217,20.217,0,0,0-4.476-2.895c-.657-.31-1.235.669-.573.98Z" transform="translate(-458.265 -170.247)" fill="#fbb355"/><path d="M527.008,193.59l2.393,1.52c.619.393,1.189-.59.573-.981l-2.394-1.52c-.619-.393-1.189.589-.573.981Z" transform="translate(-458.345 -170.082)" fill="#fbb355"/><path d="M524.921,203.014a26.242,26.242,0,0,0,2.888,1.916.568.568,0,0,0,.573-.981,26.338,26.338,0,0,1-2.888-1.916c-.58-.443-1.147.543-.573.981Z" transform="translate(-458.267 -170.436)" fill="#fbb355"/><path d="M522.1,181.937l-.155.246c.613-.395.044-1.378-.573-.981a.78.78,0,0,0-.408.734c.033.728,1.168.731,1.136,0Z" transform="translate(-458.128 -169.653)" fill="#fbb355"/><path d="M464.875,185.342l-.155.246c.612-.395.043-1.377-.574-.981a.78.78,0,0,0-.407.734c.032.728,1.167.731,1.136,0Z" transform="translate(-455.977 -169.781)" fill="#fbb355"/></g></g><path d="M31.012,0H242.3" transform="translate(-31.012 50.221)" fill="none" stroke="#b6958e" stroke-width="1.015"/></g><g transform="translate(4.237 0)"><circle cx="19.524" cy="19.524" r="19.524" transform="translate(118.153 2.342) rotate(-3.439)" fill="#ffa695"/><path d="M645.979,112.545l20.965.176s-2.416-7.686-10.418-7.753S645.979,112.545,645.979,112.545Z" transform="translate(-511.424 -43.656)" fill="#fff"/><g transform="translate(0 57.293)"><path d="M486.716,112.808l-12-.1h0a5.761,5.761,0,0,1,6.048-5.433h0a5.76,5.76,0,0,1,5.955,5.534Z" transform="translate(-452.104 -101.035)" fill="#fff"/><path d="M476.586,112.487l-25.365-.214h0c.053-6.4,5.775-11.54,12.779-11.482h0c7,.059,12.639,5.294,12.586,11.7Z" transform="translate(-451.221 -100.791)" fill="#fff"/></g><g transform="translate(144.159 13.075)"><path d="M659.31,66.707l-13.751-.115h0c.025-2.982,3.124-5.372,6.921-5.34h0c3.8.032,6.855,2.474,6.83,5.456Z" transform="translate(-619.656 -55.088)" fill="#adce32"/><path d="M647.7,66.378l-29.059-.244h0c.053-6.3,6.6-11.353,14.626-11.285h0c8.024.067,14.486,5.23,14.433,11.53Z" transform="translate(-618.645 -54.847)" fill="#adce32"/></g></g></g><g transform="translate(481.322 49.707)"><g transform="translate(21.591 55.738)"><path d="M515.24,111.154l26.141,2.879A4.63,4.63,0,0,1,547,117.684h0a4.63,4.63,0,0,1-3.985,5.45l-25.958-6.623Z" transform="translate(-510.914 -108.072)" fill="#ffc2b4"/><path d="M517.479,117.819a4.759,4.759,0,0,0,2.419-6.279,5.106,5.106,0,0,0-6.521-2.576A4.84,4.84,0,0,0,511.2,115.4,4.757,4.757,0,0,0,517.479,117.819Z" transform="translate(-510.745 -107.975)" fill="#ffc2b4"/><path d="M512.981,111.8s-1.637-1.927.56-3.111,4.14-1.382,6.418,2.829Z" transform="translate(-510.807 -107.952)" fill="#ffc2b4"/></g><g transform="translate(14.972 23.454)"><path d="M506.314,75.346l32.7,126.75c.121.483-.544,1.1-1.042,1.117h0c-.365.012-1.19-.076-1.281-.429L503.908,75.965a1.242,1.242,0,0,1,.834-1.5h0A1.243,1.243,0,0,1,506.314,75.346Z" transform="translate(-503.867 -74.407)" fill="#501919"/></g><path d="M512.536,109.528a2.44,2.44,0,0,0,3.365,1.678l2.038,6.437s-2.643,1.352-4.7,0-1.214-6.079-1.214-6.079Z" transform="translate(-489.196 -52.273)" fill="#ffc2b4"/><path d="M506.624,74.859l2.4,9.143-3.117.9-2.39-9.277Z" transform="translate(-488.883 -50.97)" fill="#dfbaaf"/><path d="M498.579,76.276a5.121,5.121,0,0,1-4.951-3.891l-5.293-17.111a.661.661,0,1,1,1.275-.349l5.3,17.127a3.788,3.788,0,0,0,4.754,2.743l8.134-2.4a3.79,3.79,0,0,0,2.615-4.487l-4.976-17.04a.661.661,0,1,1,1.279-.331L511.7,67.59a5.115,5.115,0,0,1-3.524,6.069l-8.134,2.4A5.137,5.137,0,0,1,498.579,76.276Z" transform="translate(-488.311 -50.037)" fill="#dfbaaf"/><path d="M506.9,74.232a.66.66,0,0,1-.641-.5l-5.9-21.27a.661.661,0,1,1,1.282-.322l5.895,21.27a.661.661,0,0,1-.479.8A.669.669,0,0,1,506.9,74.232Z" transform="translate(-488.763 -50.097)" fill="#dfbaaf"/><path d="M501.279,75.429a.659.659,0,0,1-.641-.5l-5.895-21.27a.661.661,0,1,1,1.282-.322l5.895,21.27a.659.659,0,0,1-.641.822Z" transform="translate(-488.552 -50.142)" fill="#dfbaaf"/><g transform="translate(48.062 36.359)"><g transform="translate(0.506 14.233)"><path d="M550.432,103.275l-9.442-.67-1.9,13.193c-.848,3.133-.012,6.327,3.179,6.921h0a5.559,5.559,0,0,0,6.444-4.261Z" transform="translate(-538.776 -102.605)" fill="#ffc2b4"/></g><path d="M548.116,87.816s-5.7.08-8.009,10.2l-1.857,6.494,9.035,2.529.831-13.264Z" transform="translate(-538.25 -87.816)" fill="#dfbaaf"/></g><g transform="translate(36.497 66.936)"><g transform="translate(0 0.935)"><g transform="translate(0 68.525)"><path d="M540.182,207.408H548l.9-15.65-8.159.523Z" transform="translate(-526.757 -191.759)" fill="#ffc2b4"/><g transform="translate(0 11.723)"><g transform="translate(0 2.662)"><path d="M547.317,206.706h-10.16l-8.253,3.458a4.917,4.917,0,0,0-2.671,4.374H549.6l-1.339-6.963A.953.953,0,0,0,547.317,206.706Z" transform="translate(-526.233 -206.706)" fill="#9f422b"/></g><path d="M536.743,206.974l1.7-2.3a1.785,1.785,0,0,1,1.76-.7c.974.186,2.145.872,1.963,3.139Z" transform="translate(-526.628 -203.94)" fill="#9f422b"/></g><rect width="23.49" height="1.302" transform="translate(0 22.218)"/><rect width="10.469" height="1.854" transform="translate(13.021 22.218)"/><rect width="4.948" height="1.854" transform="translate(0 22.218)"/><rect width="4.948" height="1.854" transform="translate(6.511 22.218)"/></g><path d="M543.451,120.558c-5.043,11.143-5.043,74.387-5.043,74.387l12.024.046,3.216-64.651v-8.259Z" transform="translate(-526.69 -120.558)" fill="#501919"/></g><g transform="translate(18.289)"><g transform="translate(0 69.46)"><g transform="translate(0)"><path d="M559.164,207.408h7.822l-.2-15.65-8.158.523Z" transform="translate(-545.739 -191.759)" fill="#ffc2b4"/><g transform="translate(0 11.723)"><g transform="translate(0 2.662)"><path d="M566.32,206.706h-10.16l-8.254,3.458a4.918,4.918,0,0,0-2.67,4.374h23.37l-1.338-6.963A.953.953,0,0,0,566.32,206.706Z" transform="translate(-545.236 -206.706)" fill="#9f422b"/></g><path d="M555.746,206.974l1.7-2.3a1.784,1.784,0,0,1,1.76-.7c.974.186,2.145.872,1.962,3.139Z" transform="translate(-545.631 -203.94)" fill="#9f422b"/></g></g><rect width="23.49" height="1.302" transform="translate(0 22.218)"/><rect width="10.469" height="1.854" transform="translate(13.021 22.218)"/><rect width="4.948" height="1.854" transform="translate(0 22.218)"/><rect width="4.948" height="1.854" transform="translate(6.511 22.218)"/></g><g transform="translate(0.308)"><path d="M549.891,120.439l4.812,75.02h13.383l-1.417-59.952s1.217-8.743-3.636-15.919Z" transform="translate(-545.719 -119.587)" fill="#501919"/><path d="M552.364,162.126l-1.348-21.02-5.46-5.625" transform="translate(-545.556 -120.184)" fill="none" stroke="#2a0606" stroke-miterlimit="10" stroke-width="0.858"/></g></g></g><path d="M560.118,64.345s10.607-1.757,11.32,5.03-3.1,8.655.216,11.3,5.877,11.009-2.865,15.907l-13.559-.9V65.966Z" transform="translate(-490.826 -50.567)" fill="#fa6238"/><g transform="translate(51.526 36.25)"><path d="M546.387,89.46a24.885,24.885,0,0,0-4.538,13.918,4.2,4.2,0,0,0,.028.516,110.72,110.72,0,0,1,.736,14.671,3.764,3.764,0,0,0,1.923,3.465c2.827,1.575,9.74,3.309,19.947-.4a64.592,64.592,0,0,1,1.634-17.864c2.193-9.36-.484-15.084-4.638-15.873A16.605,16.605,0,0,0,559.2,87.7l-9.811.16A3.748,3.748,0,0,0,546.387,89.46Z" transform="translate(-541.849 -87.703)" fill="#dfbaaf"/><path d="M543.825,94.331c-2.567,4.622-1.747,11.691-1.747,11.691" transform="translate(-541.853 -87.952)" fill="none" stroke="#c79c91" stroke-miterlimit="10" stroke-width="0.858"/><path d="M558.2,125.683c-3.033-34.406,2.445-37.624,3.114-37.92l1.236.273c-.057.032-6,3.9-3.036,37.551Z" transform="translate(-542.429 -87.705)" fill="#501919"/><path d="M545.573,125.211c-3.545-30.553.764-36.609.965-36.891a3.725,3.725,0,0,1,1.306-.405c.081-.014-4.65,7.239-1.177,37.169Z" transform="translate(-541.936 -87.711)" fill="#501919"/><g transform="translate(17.199 0.189)"><g transform="translate(3.532 10.666)"><path d="M570.644,98.981l6.778,18.119a9.291,9.291,0,0,1,.452,3.608l-3.2,20.138-4.805-1.625,1.1-19.06-7.584-14.672Z" transform="translate(-563.389 -98.981)" fill="#ffc2b4"/><path d="M569.967,140.792l-1.569,1.321a4.684,4.684,0,0,0-1.588,2.542l-.927,4.133a.9.9,0,0,0,.68,1.037h0a1.125,1.125,0,0,0,1.375-.6l1.1-2.895a17.868,17.868,0,0,1-.328,6.057,1.2,1.2,0,0,0,1.4,1.329c1.443-.125,3.18-.576,3.651-1.865,1.375-3.76.992-9.686.992-9.686Z" transform="translate(-563.482 -100.552)" fill="#ffc2b4"/></g><path d="M562.246,87.9s7.288,1.481,11.63,13.637l-9.79,7.688-1.4-2.523Z" transform="translate(-559.814 -87.899)" fill="#dfbaaf"/><line x1="4.273" y1="7.751" transform="translate(0 13.573)" fill="none" stroke="#c79c91" stroke-miterlimit="10" stroke-width="0.858"/></g></g><g transform="translate(53.269 11.931)"><path d="M550.915,62.953s9.326-2.031,12.12,3.653c2.27,4.618-.025,11.767-5.873,13.852-5.57,1.987-3.392-15.865-3.392-15.865Z" transform="translate(-543.933 -62.441)" fill="#fa6238"/><path d="M549.033,74.41a2.688,2.688,0,1,1-2.818-2.551A2.688,2.688,0,0,1,549.033,74.41Z" transform="translate(-543.66 -62.788)" fill="#faad9c"/><path d="M549.907,81.741l.255,5.852a2.925,2.925,0,0,0,3.419,3h0c1.727-.086,3.3-1.057,3.434-2.78l-.845-9.191Z" transform="translate(-543.895 -63.043)" fill="#ffc2b4"/><path d="M550.034,84.95s4.693,1.266,6.693-5.057c.506-1.6-6.86,1.278-6.86,1.278Z" transform="translate(-543.894 -63.072)" fill="#faad9c"/><path d="M551.462,81.664h0c-3.452-.053-6.247-2.756-6.29-5.507l-.063-6.492a6.484,6.484,0,0,1,6.239-6.5h0c3.617-.179,7.325,2.5,7.5,6.029l-.008,5.221C558.833,78.455,555.6,81.459,551.462,81.664Z" transform="translate(-543.715 -62.462)" fill="#ffc2b4"/><g transform="translate(1.887 7.593)"><path d="M548.993,74.649l-.233,1.645.853.048" transform="translate(-545.739 -70.486)" fill="none" stroke="#021833" stroke-linecap="round" stroke-linejoin="round" stroke-width="0.359"/><path d="M552.91,70.34s-1.452-.148-1.478.444c0,0-.007.4,1.261.506s1.6.018,1.723-.356S553.593,70.358,552.91,70.34Z" transform="translate(-545.84 -70.324)" fill="#021833"/><path d="M546.831,70.385s1.2-.1,1.29.458c0,0,.05.378-1,.442s-1.393-.076-1.486-.382C545.526,70.556,546.259,70.383,546.831,70.385Z" transform="translate(-545.621 -70.326)" fill="#021833"/><path d="M549.867,77.739s1.43.416,1.945-.787" transform="translate(-545.781 -70.573)" fill="none" stroke="#021833" stroke-linecap="round" stroke-linejoin="round" stroke-width="0.359"/><circle cx="0.554" cy="0.554" r="0.554" transform="translate(0.937 2.543)" fill="#021833"/><path d="M553.17,73.519a.553.553,0,1,1-.553-.553A.554.554,0,0,1,553.17,73.519Z" transform="translate(-545.863 -70.423)" fill="#021833"/></g><path d="M550.18,87.6l-1.682.213s-.729,3.416,2.026,4.032c3.789.847,7.883-.9,8.692-4.136l-4.092-.016Z" transform="translate(-543.839 -63.38)" fill="#ffc2b4"/><path d="M546.453,65.811s2.184-1.476,5.4.218c3.184,1.678,3.1,10.357,9.746,7.21l-3.312-9.383-7.539-.89S547.7,63.416,546.453,65.811Z" transform="translate(-543.765 -62.454)" fill="#fa6238"/><path d="M554.543,62.594s4.2,2.524,4.321,9.791l2.2.739s1.541-2.052.663-7.338a3.5,3.5,0,0,0-1.737-2.517A8.3,8.3,0,0,0,554.543,62.594Z" transform="translate(-544.069 -62.434)" fill="#7292ff"/><g transform="translate(13.006 9.002)"><path d="M562.547,74.342a2.688,2.688,0,1,1-2.818-2.551A2.688,2.688,0,0,1,562.547,74.342Z" transform="translate(-557.174 -71.788)" fill="#ffc2b4"/><path d="M559.033,75.39s-.1-1.946,1.78-1.732" transform="translate(-557.244 -71.857)" fill="none" stroke="#021833" stroke-linecap="round" stroke-linejoin="round" stroke-width="0.359"/></g></g></g></g></g></g></svg>