<svg xmlns="http://www.w3.org/2000/svg" width="1240" height="274.314" viewBox="0 0 1240 274.314"><g transform="translate(-180 -2205.661)"><rect width="1240" height="220" transform="translate(180 2247.77)" fill="#eff5d6"/><g transform="matrix(-0.951, -0.309, 0.309, -0.951, 262.175, 2298.746)"><path d="M1059.719,151.6c2.33-1.48,3.884-3.883,5.293-6.191.737-1.206,1.41-2.455,2.177-3.643a9.416,9.416,0,0,1,1.606-1.96,10.473,10.473,0,0,0,.909-.792,1.591,1.591,0,0,1,1.077.524,2.145,2.145,0,0,1,.109,1.968,11.9,11.9,0,0,1-1.9,4.037,15.716,15.716,0,0,1-3.373,3.153,15.313,15.313,0,0,1-1.82,1.159,7.126,7.126,0,0,0-1.707.96c-1.91,1.849,2.432,2.853,3.482,3.022a13.156,13.156,0,0,0,7.6-.747c4.178-1.915,6.946-6.317,9-10.243,1.224-2.337,2.325-4.723,3.728-6.964a23.93,23.93,0,0,1,2.244-3.2c.24-.272.618-.759.971-.49.316.24.2,1.366.194,1.737-.062,6.158-3.406,11.812-7.581,16.122a17.189,17.189,0,0,1-2.99,2.485c-.589.387-1.46,1-1.25,1.829.5,1.988,4.413,1.6,5.821,1.383,4.706-.73,10.084-3.014,12.3-7.48,1.386-2.792,1.756-5.938,2.114-9,.393-3.368.837-6.742,1.088-10.124a12.781,12.781,0,0,1,1.244-5.541c.327-.579.837-1.407,1.553-1.536,1.045-.188,1.645,1.107,1.937,1.912.965,2.655.373,5.627.025,8.341a52.914,52.914,0,0,1-5.058,17.644.859.859,0,0,0,.237,1.5c2.02.755,4.365-.284,6.247-1.008a20.567,20.567,0,0,0,6.277-3.711c3.73-3.265,5.37-8.131,5.694-12.966.383-5.7-1.388-11.509-2.05-17.142a16.155,16.155,0,0,1-.2-5.264c.644-2.74,3.681,1.3,4.194,2.331a30.45,30.45,0,0,1,2.663,8.338,66.088,66.088,0,0,1,.526,9.219.42.42,0,0,0,.09.24c.142.888.983,1.148,1.847.449,1.762-1.428,2.282-4.059,2.727-6.146,1.1-5.185,1.536-10.791-.032-15.92a30.862,30.862,0,0,0-8.183-12.822,39.06,39.06,0,0,0-6.143-4.935,32.754,32.754,0,0,0-7.335-3.215,64.6,64.6,0,0,0-8.377-2.374c-2.117-.392-4.677-.726-6.755.1-1.458-.062-2.913-.1-4.353-.114-6.739-.084-14.16.855-19.558,5.25-1.833,1.493-3.94,3.711-4.558,6.051a2.12,2.12,0,0,0,.712,2.444c1.172.743,2.834.214,4.1.05a32.316,32.316,0,0,1,11.374,1.068c3.305.776,6.7,1.954,9.269,4.251a10.214,10.214,0,0,1,3.1,4.467c.728,2.567-1.959,3.109-3.877,2.539-2.063-.613-3.979-1.74-6.008-2.474-2.149-.777-4.348-1.37-6.546-1.991-6.916-1.954-14.705-2.163-20.9,2.043a14.216,14.216,0,0,0-5.273,6.235,3.635,3.635,0,0,0,.152,3.5c.924,1.265,2.552,1.23,3.91.784,2.042-.672,3.943-1.716,6.008-2.362a42.911,42.911,0,0,1,6.644-1.636,17.6,17.6,0,0,1,6.067.379,26.139,26.139,0,0,1,4.891,1.211c.524.212,3.753,2.26,2.7,2.644-.875.319-2.508-.369-3.4-.545a47.942,47.942,0,0,0-6.668-1.111,37.137,37.137,0,0,0-6.868.522,26.9,26.9,0,0,0-10.454,3.215,19.958,19.958,0,0,0-7.2,7.205c-.591,1.03-1.238,2.286-.674,3.45a.834.834,0,0,0,.947.37c1.514-.6,3.156-.684,4.7-1.186a34.6,34.6,0,0,1,5.788-1.612,7.579,7.579,0,0,1,6.076,1.7c.045,1.173-1.032,1.917-2.129,2.23-2.3.659-4.728.646-7.032,1.367a12.045,12.045,0,0,0-5.589,3.515,21.648,21.648,0,0,0-2.275,3.331c-.691,1.17-1.81,2.848-1.636,4.266a.671.671,0,0,0,.032.117.2.2,0,0,0,.03.205,8.577,8.577,0,0,0,3.839,2.267c1.664.623,3.381,1.164,5.088,1.649C1053.436,152.824,1056.862,153.417,1059.719,151.6Zm31.342-49.158c-1.613-.624-5.838-3.316-4.3-5.471,1.561-2.182,5.94-.623,7.827.026,3.12,1.073,7.747,2.956,9.909,5.605,1.163,1.424.226,1.989-1.207,1.983a39.8,39.8,0,0,1-5.157-.347A31.074,31.074,0,0,1,1091.061,102.445Z" transform="translate(-1041.344 -86.137)" fill="#4f9638"/><g transform="translate(5.113 11.052)" opacity="0.7"><path d="M1065.666,137.818c1.593-.872,3.173-1.767,4.749-2.671,4.266-2.447,8.54-4.871,12.76-7.4,3.872-2.317,7.687-4.757,11.4-7.323,4.623-3.2,9.206-6.578,13.563-10.141a30.324,30.324,0,0,1,1.075,5.629c.02.18.321.25.346.038a11.671,11.671,0,0,0-.074-3.367,18.891,18.891,0,0,0-.719-2.806c.112-.093.23-.183.342-.277a155.85,155.85,0,0,0,12.723-11.4.39.39,0,0,0-.557-.544,138.223,138.223,0,0,1-12.053,9.919c-4.774,3.675-9.671,7.222-14.564,10.736-7.48,5.371-15.387,10.257-23.259,15.024-2.965,1.794-6.1,3.271-9.085,5-.517.3-.133,1,.395.9A10.368,10.368,0,0,0,1065.666,137.818Z" transform="translate(-1046.927 -97.445)" fill="#0a481c"/><path d="M1110.811,122.729a63.582,63.582,0,0,1-.655,12.84c-.3,2-.7,3.992-1.106,5.976-.389,1.916-1.147,3.945-1.153,5.9a.208.208,0,0,0,.386.1,22.227,22.227,0,0,0,1.523-5.809c.434-2.14.741-4.3.986-6.465a68.839,68.839,0,0,0,.294-12.547C1111.072,122.546,1110.8,122.551,1110.811,122.729Z" transform="translate(-1047.964 -98.014)" fill="#0a481c"/><path d="M1094.864,138.212a45.462,45.462,0,0,0,1.152-9.143,24.64,24.64,0,0,0-.688-7.451c-.049-.162-.312-.079-.249.072.935,2.278.4,4.994.34,7.393a45.613,45.613,0,0,1-1.134,8.75,34.284,34.284,0,0,1-5.889,13.7.192.192,0,0,0,.234.3c1.778-.832,2.531-3.753,3.264-5.406.524-1.184,1.24-2.275,1.73-3.473A27.185,27.185,0,0,0,1094.864,138.212Z" transform="translate(-1047.522 -97.99)" fill="#0a481c"/><path d="M1077.844,142.642c.6-1.122,1.215-2.237,1.767-3.386a16.024,16.024,0,0,0,1.911-7.043.306.306,0,0,0-.611.015,15.56,15.56,0,0,1-2.121,7.3c-.569,1.088-1.184,2.152-1.779,3.226a7.418,7.418,0,0,0-1.323,3.011.2.2,0,0,0,.341.134,4.962,4.962,0,0,0,.892-1.487C1077.218,143.814,1077.53,143.227,1077.844,142.642Z" transform="translate(-1047.235 -98.226)" fill="#0a481c"/><path d="M1070.486,152.673a13.9,13.9,0,0,0,1.587-1.342,24.15,24.15,0,0,0,2.532-3.21c.147-.206-.184-.445-.352-.264-.9.968-1.869,1.859-2.848,2.744-.477.431-.966.856-1.481,1.24s-1.221.695-1.54,1.247a.317.317,0,0,0,.281.467A3.292,3.292,0,0,0,1070.486,152.673Z" transform="translate(-1047.069 -98.585)" fill="#0a481c"/><path d="M1060.886,126.594a25.853,25.853,0,0,1,11.13,2.309c.419.212.779-.417.361-.638-3.37-1.78-7.367-2.264-11.132-2.4a22.909,22.909,0,0,0-5.6.579,21.239,21.239,0,0,0-5.706,1.732.169.169,0,0,0,.091.312,25.553,25.553,0,0,0,5.113-1.144A23.727,23.727,0,0,1,1060.886,126.594Z" transform="translate(-1046.65 -98.088)" fill="#0a481c"/><path d="M1059.868,141.9c.3-.2.021-.675-.29-.484a48.565,48.565,0,0,1-8.912,3.99c-.115.042-.1.233.035.225a14.2,14.2,0,0,0,4.765-1.326A29.225,29.225,0,0,0,1059.868,141.9Z" transform="translate(-1046.667 -98.44)" fill="#0a481c"/><path d="M1047.5,147.21c.266-.108.538-.215.8-.336.5-.235,1-.472,1.511-.685a.084.084,0,0,0-.047-.161c-.555.113-1.127.213-1.67.375a5.955,5.955,0,0,0-.809.31,3.617,3.617,0,0,0-.668.476c-.111.089.014.266.137.229C1047,147.34,1047.267,147.305,1047.5,147.21Z" transform="translate(-1046.576 -98.545)" fill="#0a481c"/><path d="M1082.345,116.436a8.5,8.5,0,0,0,2.73,1.816,6.629,6.629,0,0,1,2.589,2.05.283.283,0,0,0,.485-.29,6.569,6.569,0,0,0-2.51-2.29c-.99-.578-2.038-1.083-3.066-1.589A.192.192,0,0,0,1082.345,116.436Z" transform="translate(-1047.385 -97.868)" fill="#0a481c"/><path d="M1057.366,114.461a15.361,15.361,0,0,1,2.919-1.21,21.747,21.747,0,0,1,6.08-.847,32.35,32.35,0,0,1,11.96,2.345c.127.05.215-.168.09-.225a31.1,31.1,0,0,0-12.377-2.84,20.506,20.506,0,0,0-6.271.861c-1.691.519-4.072,1.341-5.055,2.92a.231.231,0,0,0,.264.332A16.67,16.67,0,0,0,1057.366,114.461Z" transform="translate(-1046.759 -97.767)" fill="#0a481c"/></g></g><g transform="translate(1280.286 2377.294) rotate(-9)"><path d="M967.037,221.329c-8.725,1.1-11.148,9.3-10.149,16.992.859,6.608,5.3,12.979,4.9,19.715-.291,4.786-5.2,3.548-8.508,2.7-4.185-1.066-8.525-2.569-12.9-2.237-3.339.253-6.718,2.038-7.743,5.448-.874,2.9.8,5.553,2.9,7.437,6.13,5.509,15.543,7.869,23.053,10.693,2.786,1.048,11.491,2.193,12.2,5.54.493,2.339-4.63,2.477-6.117,2.585-5.535.406-11.054-.317-16.586-.192-3.638.082-12.815.542-11.989,6.151.565,3.817,4.7,6.8,7.759,8.561a94.567,94.567,0,0,0,14.308,6.634,124.718,124.718,0,0,0,19.2,5.018,143.024,143.024,0,0,0,18.989,2.8c2.924.182,5.849.13,8.771.378a1.479,1.479,0,0,0,1.061,1.242,97.788,97.788,0,0,0,17.12,4.054c4.574.585,9.564.509,13.419-2.36,4.379-3.257,6.93-8.748,10.008-13.122,2.832-4.029,6.278-7.833,8.316-12.355,2.091-4.642,4.144-12.677-1.437-15.8-7.092-3.962-15.387,3.216-22.392,3.952-1.708.179-4.617.023-5.338-1.961-.491-1.355.529-2.937,1.227-4.024,2.1-3.264,5.159-5.954,8.009-8.541,4.939-4.484,10.9-9.466,7.863-16.949-3.454-8.515-14.714-8.955-21.387-4.169-3.722,2.671-6.087,6.672-7.838,10.821a40.745,40.745,0,0,0-1.84,5.476c-.839,3.162-2.907,4.7-6.069,2.659-4.829-3.111-6.442-10.417-8.308-15.413a89.638,89.638,0,0,0-7.646-16.537C984.758,228.393,977.689,219.99,967.037,221.329Z" transform="translate(-932.391 -221.188)" fill="#add031"/><g transform="translate(33.699 13.906)"><path d="M945.582,227.6a64.421,64.421,0,0,0,3.331,14.886,107.924,107.924,0,0,0,6.112,13.132,157.584,157.584,0,0,0,16.415,24.6,163,163,0,0,0,21.1,21.3q5.384,4.563,11.1,8.751c3.962,2.9,8.4,6.488,13.278,7.575.642.143,1.227-.672.68-1.168-3.461-3.129-7.925-5.218-11.736-7.912-3.985-2.82-7.856-5.831-11.6-8.96a146.623,146.623,0,0,1-19.771-20.275,158.8,158.8,0,0,1-15.936-23.928c-4.729-8.659-9.206-18.5-11.005-28.258-.2-1.092-2.109-.854-1.961.266Z" transform="translate(-945.574 -226.627)" fill="#4f9638"/></g><g transform="translate(92.814 64.497)"><path d="M970.129,272.993c2.822-4.394,5.484-8.894,8.357-13.255,1.4-2.13,2.855-4.226,4.4-6.25,1.629-2.129,3.518-4.126,4.947-6.4.225-.355-.238-.864-.6-.6A27.036,27.036,0,0,0,982,252.063c-1.626,2.109-3.152,4.29-4.617,6.511-2.955,4.486-5.673,9.124-8.562,13.651-.526.828.785,1.588,1.309.767Z" transform="translate(-968.698 -246.417)" fill="#4f9638"/></g><g transform="translate(50.147 10.429)"><path d="M958.936,269.076c2.559-6.941,2.025-14.832.795-21.988a89.889,89.889,0,0,0-2.891-11.9c-1-3.165-2.017-7.053-4.044-9.735-.266-.353-.913-.171-.767.325.926,3.106,2.531,6.038,3.551,9.139a90.589,90.589,0,0,1,2.953,11.511c1.355,7.229,2.413,15.423.095,22.565-.064.2.238.274.309.084Z" transform="translate(-952.008 -225.267)" fill="#4f9638"/></g><g transform="translate(3.075 45.292)"><path d="M980.035,247.2c-4.162-.386-8.241-.532-12.391-1.109-3.96-.55-7.961-.759-11.913-1.378a105.8,105.8,0,0,1-11.959-2.51c-3.262-.908-6.347-3.116-9.753-3.3a.444.444,0,0,0-.222.821c6.542,4.172,14.8,5.66,22.361,6.7,3.745.511,7.521.813,11.284,1.158,4.218.386,8.377.072,12.592.3.44.023.43-.639,0-.68Z" transform="translate(-933.594 -238.905)" fill="#4f9638"/></g><g transform="translate(10.814 75.256)"><path d="M936.929,251.784c8.815,4.19,18.5,5.862,28.166,6.836a105.958,105.958,0,0,0,15.655.187c2.534-.123,5.067-.284,7.6-.4,2.273-.1,4.824.307,6.864-.79a.645.645,0,0,0,0-1.1c-1.8-.925-3.791-.55-5.777-.47-2.533.1-5.067.243-7.6.353a124.178,124.178,0,0,1-15.205-.112,129.692,129.692,0,0,1-29.225-5.632c-.659-.21-1.12.826-.478,1.13Z" transform="translate(-936.621 -250.626)" fill="#4f9638"/></g><g transform="translate(72.479 29.49)"><path d="M961.34,276.549c1.882-4.584,3.834-9.07,6.115-13.47a80.378,80.378,0,0,1,7.907-11.946,59.733,59.733,0,0,1,10.118-9.771c1.67-1.36,3.2-2.881,4.89-4.213,1.516-1.191,3.656-1.991,4.97-3.349a.625.625,0,0,0-.274-1.035c-3.487-.547-7.286,4.425-9.589,6.452-1.784,1.57-3.753,2.9-5.473,4.548-1.92,1.841-3.587,3.909-5.4,5.854a49.347,49.347,0,0,0-8.482,12.263c-2.232,4.619-3.709,9.661-5.363,14.508-.128.371.435.506.578.159Z" transform="translate(-960.744 -232.724)" fill="#4f9638"/></g></g></g></svg>