<svg xmlns="http://www.w3.org/2000/svg" width="295" height="221.859" viewBox="0 0 295 221.859"><g transform="translate(-1020 -2209.91)"><g transform="translate(264.211 1906.932)"><path d="M755.789,534.854s66.038,10.191,147.5,10.191,147.5-10.191,147.5-10.191-66.038-10.19-147.5-10.19S755.789,534.854,755.789,534.854Z" transform="translate(0 -20.207)" fill="#eccea8"/><g transform="translate(959.438 431.527)"><g transform="translate(57.689 7.546)"><path d="M1055.5,476.42c.3-1.667-.023-3.536.933-4.933.752-1.1,2.128-1.622,2.941-2.676,1.714-2.22.232-5.546,1.164-8.191a18.571,18.571,0,0,1,1.809-3.075,3.776,3.776,0,0,0,.5-3.4c-.719-1.55-2.982-1.8-4.449-.923a8.7,8.7,0,0,0-3.033,4.032,10.624,10.624,0,0,1-2.825,4.211c-1.511,1.141-3.732,1.5-4.6,3.181-.777,1.5-.082,3.374-.552,5-.6,2.075-2.915,3.225-3.747,5.219a4.166,4.166,0,0,0,.6,4.142C1047.446,482.964,1054.536,481.839,1055.5,476.42Z" transform="translate(-1043.338 -452.722)" fill="#47b695"/><path d="M1055.541,463.551c.474-.765,1.736-.13,1.256.644a88.659,88.659,0,0,0-11,26.619.706.706,0,0,1-1.382-.287A89.883,89.883,0,0,1,1055.541,463.551Z" transform="translate(-1043.434 -453.678)" fill="#007656"/></g><g transform="translate(45.711 4.411)"><path d="M1041.887,473.431c-.262-1.672-1.171-3.335-.721-4.968.353-1.283,1.484-2.227,1.91-3.487.9-2.657-1.585-5.32-1.564-8.125a18.619,18.619,0,0,1,.711-3.5,3.779,3.779,0,0,0-.632-3.377c-1.183-1.232-3.4-.731-4.507.574a8.71,8.71,0,0,0-1.556,4.8,10.629,10.629,0,0,1-1.3,4.9c-1.058,1.57-3.041,2.632-3.317,4.505-.247,1.673,1.021,3.216,1.1,4.905.106,2.158-1.707,4-1.846,6.154a4.165,4.165,0,0,0,1.91,3.723C1036.4,482.24,1042.738,478.869,1041.887,473.431Z" transform="translate(-1030.159 -449.272)" fill="#47b695"/><path d="M1037.835,461.434c.2-.879,1.6-.688,1.4.2a88.649,88.649,0,0,0-1.743,28.75.706.706,0,0,1-1.4.178A89.875,89.875,0,0,1,1037.835,461.434Z" transform="translate(-1030.656 -450.329)" fill="#007656"/></g><g transform="translate(14.183 2.219)"><path d="M996.854,471.02c.261-1.672,1.172-3.336.722-4.969-.354-1.283-1.484-2.227-1.91-3.487-.9-2.658,1.585-5.319,1.564-8.124a18.648,18.648,0,0,0-.711-3.5,3.773,3.773,0,0,1,.631-3.376c1.184-1.232,3.406-.731,4.507.574a8.7,8.7,0,0,1,1.557,4.8,10.631,10.631,0,0,0,1.3,4.9c1.058,1.57,3.041,2.631,3.317,4.5.246,1.673-1.021,3.216-1.1,4.906-.106,2.157,1.707,4,1.846,6.153a4.168,4.168,0,0,1-1.91,3.724C1002.341,479.828,996,476.458,996.854,471.02Z" transform="translate(-995.469 -446.861)" fill="#47b695"/><path d="M1001.856,459.022c-.2-.879-1.6-.688-1.4.2a88.652,88.652,0,0,1,1.743,28.75.706.706,0,0,0,1.4.178A89.868,89.868,0,0,0,1001.856,459.022Z" transform="translate(-995.922 -447.918)" fill="#007656"/></g><g transform="translate(29.947)"><path d="M1014.2,468.579c.262-1.673,1.171-3.336.722-4.969-.354-1.283-1.484-2.227-1.91-3.487-.9-2.658,1.585-5.319,1.564-8.124a18.63,18.63,0,0,0-.711-3.5,3.779,3.779,0,0,1,.632-3.377c1.183-1.231,3.4-.731,4.507.574a8.712,8.712,0,0,1,1.556,4.8,10.623,10.623,0,0,0,1.3,4.9c1.058,1.57,3.041,2.632,3.317,4.505.246,1.673-1.021,3.216-1.1,4.905-.106,2.158,1.707,4,1.846,6.154a4.168,4.168,0,0,1-1.91,3.724C1019.686,477.387,1013.348,474.017,1014.2,468.579Z" transform="translate(-1012.814 -444.42)" fill="#47b695"/><path d="M1019.2,456.581c-.2-.879-1.6-.688-1.4.2a88.652,88.652,0,0,1,1.743,28.75.706.706,0,0,0,1.4.178A89.867,89.867,0,0,0,1019.2,456.581Z" transform="translate(-1013.267 -445.476)" fill="#007656"/></g><g transform="translate(38.808 12.582)"><path d="M1051.995,459.934a3.312,3.312,0,0,1,.618-1.232,1.187,1.187,0,0,1,1.252-.378c.563.222.734.925.8,1.527a17.859,17.859,0,0,1-.334,5.73,14.139,14.139,0,0,1,5.457-5.831c.754-.442,1.939-.7,2.319.091a1.672,1.672,0,0,1-.29,1.5,27.721,27.721,0,0,1-3.655,4.972,7.01,7.01,0,0,1,5.529-.546c.489.159,1.036.482,1.041,1,0,.476-.462.8-.885,1.022a13.7,13.7,0,0,1-5.407,1.486,4.815,4.815,0,0,1,2.556.343,1.659,1.659,0,0,1,.789,2.189,2.3,2.3,0,0,1-1.805.786c-2.081.2-8.871.364-9.991-1.881-.53-1.062.351-3.894.555-5.029A42.163,42.163,0,0,1,1051.995,459.934Z" transform="translate(-1025.048 -458.263)" fill="#009f78"/><g transform="translate(0 10.292)"><path d="M1051.216,477.783a13.269,13.269,0,0,1-3.7,3.934c-.212.163-.441.325-.661.481-.155.122-.31.228-.465.342a109.921,109.921,0,0,1-11.813,7.486c-.237.13-.483.261-.727.383a62.343,62.343,0,0,1-7.707,3.454c-3.731,1.361-4.5-.513-2.523-3.4.7-1.026,1.429-2.037,2.188-3.03.155-.22.326-.44.49-.66,1.7-2.216,3.51-4.358,5.42-6.4l.564-.586q1.482-1.553,3.037-3.023c.2-.187.392-.366.6-.545q1.763-1.637,3.616-3.161a23.132,23.132,0,0,1,2.923-2.109c.262-.154.523-.3.783-.424a9.52,9.52,0,0,1,1.862-.717,5.856,5.856,0,0,1,5.951,1.556C1052.5,473.123,1052.319,475.8,1051.216,477.783Z" transform="translate(-1022.564 -469.587)" fill="#d9471c"/><path d="M1028.152,491.228c-.67-.684-1.348-1.377-2.017-2.069.155-.22.326-.44.49-.66l2.106,2.15C1029.09,491.033,1028.519,491.6,1028.152,491.228Z" transform="translate(-1022.889 -471.311)" fill="#ff663a"/><path d="M1035.3,491.592c-.237.13-.483.261-.727.383q-1.9-2.346-4.009-4.512c-.367-.375.213-.953.58-.579Q1033.332,489.131,1035.3,491.592Z" transform="translate(-1023.282 -471.153)" fill="#ff663a"/><path d="M1036.557,486.072a35.035,35.035,0,0,0-3.919-4.676l.564-.586a35.6,35.6,0,0,1,4.058,4.854C1037.561,486.1,1036.86,486.5,1036.557,486.072Z" transform="translate(-1023.482 -470.61)" fill="#ff663a"/><path d="M1042.282,483.548a38.488,38.488,0,0,0-5.682-6.118c.2-.187.392-.366.6-.545a39.471,39.471,0,0,1,5.8,6.256C1043.3,483.555,1042.593,483.963,1042.282,483.548Z" transform="translate(-1023.843 -470.252)" fill="#ff663a"/><path d="M1049.355,482.3c-.212.163-.441.325-.661.481a25.409,25.409,0,0,0-5.8-6.061c-.408-.309-.008-1.018.416-.7A26.945,26.945,0,0,1,1049.355,482.3Z" transform="translate(-1024.402 -470.166)" fill="#ff663a"/><path d="M1049.954,476.019a.438.438,0,0,1-.563-.146,24.113,24.113,0,0,0-4.939-4.831c.262-.155.523-.3.783-.424a25.769,25.769,0,0,1,4.866,4.839A.418.418,0,0,1,1049.954,476.019Z" transform="translate(-1024.559 -469.681)" fill="#ff663a"/></g></g><g transform="translate(0 16.459)"><path d="M983.514,476.835a3.284,3.284,0,0,1-1.367-.181,1.185,1.185,0,0,1-.767-1.058c.025-.605.634-1,1.182-1.253a17.888,17.888,0,0,1,5.524-1.56,14.13,14.13,0,0,1-7.3-3.247c-.664-.568-1.292-1.6-.673-2.221a1.67,1.67,0,0,1,1.509-.216,27.719,27.719,0,0,1,5.9,1.828,7.011,7.011,0,0,1-2.327-5.047c-.009-.514.115-1.137.6-1.309.448-.16.912.173,1.256.5a13.683,13.683,0,0,1,3.173,4.622,4.812,4.812,0,0,1-.512-2.527,1.659,1.659,0,0,1,1.81-1.462c.661.16,1.052.829,1.333,1.449.866,1.9,3.247,8.263,1.492,10.056-.831.848-3.794.942-4.934,1.121A42.2,42.2,0,0,1,983.514,476.835Z" transform="translate(-979.863 -462.529)" fill="#009f78"/><g transform="translate(12.303 7.087)"><path d="M1000.079,470.431a13.268,13.268,0,0,1,4.929,2.207c.223.147.452.31.67.468.166.106.317.218.476.327a109.938,109.938,0,0,1,10.94,8.713c.2.182.4.37.6.562a62.44,62.44,0,0,1,5.786,6.152c2.506,3.081.987,4.419-2.385,3.5q-1.8-.491-3.579-1.075c-.258-.075-.523-.165-.783-.247-2.65-.88-5.268-1.891-7.824-3.027l-.739-.34q-1.951-.893-3.85-1.881c-.241-.124-.474-.25-.711-.384-1.416-.753-2.8-1.551-4.17-2.383a23.205,23.205,0,0,1-2.95-2.071c-.232-.2-.455-.4-.657-.6a9.538,9.538,0,0,1-1.286-1.524,5.855,5.855,0,0,1-.478-6.133C995.257,470.745,997.841,470.04,1000.079,470.431Z" transform="translate(-993.4 -470.327)" fill="#d9471c"/><path d="M1021.151,490.482c-.427.856-.86,1.723-1.3,2.583-.258-.075-.523-.165-.783-.247l1.342-2.695A.41.41,0,0,1,1021.151,490.482Z" transform="translate(-995.74 -472.112)" fill="#ff663a"/><path d="M1019.156,483.332c.2.182.4.37.6.562q-1.6,2.562-2.953,5.265a.41.41,0,0,1-.736-.359Q1017.473,485.993,1019.156,483.332Z" transform="translate(-995.462 -471.513)" fill="#ff663a"/><path d="M1013.524,483.952a35.142,35.142,0,0,0-3.136,5.233l-.739-.34a35.511,35.511,0,0,1,3.26-5.423C1013.219,483,1013.833,483.526,1013.524,483.952Z" transform="translate(-994.881 -471.507)" fill="#ff663a"/><path d="M1009.264,479.154a38.474,38.474,0,0,0-3.922,7.372c-.241-.124-.474-.25-.711-.384a39.5,39.5,0,0,1,4.014-7.524C1008.938,478.187,1009.555,478.725,1009.264,479.154Z" transform="translate(-994.424 -471.069)" fill="#ff663a"/><path d="M1005.773,472.87c.223.147.452.31.67.468a25.4,25.4,0,0,0-3.829,7.461c-.159.487-.96.341-.8-.165A26.934,26.934,0,0,1,1005.773,472.87Z" transform="translate(-994.165 -470.559)" fill="#ff663a"/><path d="M999.634,474.487a.44.44,0,0,1,.046.581,24.113,24.113,0,0,0-2.948,6.248c-.232-.2-.455-.4-.657-.6a25.832,25.832,0,0,1,2.98-6.181A.418.418,0,0,1,999.634,474.487Z" transform="translate(-993.644 -470.698)" fill="#ff663a"/></g></g><g transform="translate(29.459 20.415)"><path d="M1016.587,481.338a3.3,3.3,0,0,1-1.376-.077,1.186,1.186,0,0,1-.844-1c-.02-.605.557-1.042,1.085-1.339a17.87,17.87,0,0,1,5.391-1.969,14.132,14.132,0,0,1-7.519-2.692c-.7-.516-1.409-1.5-.838-2.164a1.673,1.673,0,0,1,1.489-.329,27.722,27.722,0,0,1,6.016,1.381,7.013,7.013,0,0,1-2.7-4.859c-.048-.512.03-1.142.5-1.35.434-.193.922.1,1.289.406a13.69,13.69,0,0,1,3.512,4.372,4.807,4.807,0,0,1-.7-2.481c.078-.867.835-1.735,1.695-1.594.672.11,1.111.748,1.438,1.344,1.007,1.833,3.858,8,2.242,9.916-.765.909-3.714,1.225-4.836,1.488A42.217,42.217,0,0,1,1016.587,481.338Z" transform="translate(-1012.277 -466.882)" fill="#009f78"/><g transform="translate(12.744 6.18)"><path d="M1032.621,473.715a13.268,13.268,0,0,1,5.079,1.831c.234.13.474.275.7.416.174.094.333.194.5.291a110.082,110.082,0,0,1,11.563,7.869c.214.165.43.338.64.514a62.4,62.4,0,0,1,6.23,5.7c2.731,2.885,1.316,4.332-2.115,3.664-1.22-.236-2.437-.5-3.65-.8-.264-.055-.533-.125-.8-.187-2.707-.679-5.393-1.491-8.029-2.432l-.762-.284q-2.013-.743-3.98-1.587c-.25-.105-.493-.214-.738-.33q-2.2-.969-4.337-2.065a23.005,23.005,0,0,1-3.1-1.844c-.246-.178-.484-.36-.7-.551a9.579,9.579,0,0,1-1.4-1.424,5.852,5.852,0,0,1-.936-6.079C1027.836,474.388,1030.359,473.492,1032.621,473.715Z" transform="translate(-1026.299 -473.681)" fill="#ff663a"/><path d="M1055.122,492.16c-.363.886-.729,1.783-1.1,2.672-.264-.055-.533-.125-.8-.187l1.137-2.787A.41.41,0,0,1,1055.122,492.16Z" transform="translate(-1028.754 -475.316)" fill="#d9471c"/><path d="M1052.618,485.169c.214.165.43.338.64.514q-1.4,2.675-2.549,5.471a.41.41,0,0,1-.762-.3Q1051.139,487.948,1052.618,485.169Z" transform="translate(-1028.452 -474.728)" fill="#d9471c"/><path d="M1047.048,486.206a35.2,35.2,0,0,0-2.735,5.454l-.762-.284a35.537,35.537,0,0,1,2.844-5.652C1046.672,485.274,1047.325,485.757,1047.048,486.206Z" transform="translate(-1027.872 -474.763)" fill="#d9471c"/><path d="M1042.456,481.736a38.446,38.446,0,0,0-3.357,7.644c-.25-.105-.493-.214-.738-.33a39.449,39.449,0,0,1,3.439-7.805C1042.058,480.8,1042.714,481.286,1042.456,481.736Z" transform="translate(-1027.399 -474.355)" fill="#d9471c"/><path d="M1038.505,475.733c.234.13.474.275.7.416a25.426,25.426,0,0,0-3.26,7.726c-.122.5-.931.413-.808-.1A26.916,26.916,0,0,1,1038.505,475.733Z" transform="translate(-1027.104 -473.868)" fill="#d9471c"/><path d="M1032.494,477.811a.438.438,0,0,1,.089.574,24.107,24.107,0,0,0-2.471,6.452c-.246-.178-.484-.36-.7-.551a25.813,25.813,0,0,1,2.508-6.387A.418.418,0,0,1,1032.494,477.811Z" transform="translate(-1026.583 -474.051)" fill="#d9471c"/></g></g><g transform="translate(1.362 36.654)"><path d="M981.362,484.75l.419,5.857.124,1.7.435,6.133.124,1.69.444,6.141.115,1.682.444,6.141.115,1.69.444,6.133.124,1.69.2,2.795,1.6.072,1.662.07,8.554.359,1.671.078,12.063.51,1.654.07,8.244.351,1.654.07,9.6.413,1.679.07,10.351.442,1.679.069,8.781.378.379-3.448.187-1.674.673-6.081.187-1.674.673-6.081.179-1.674.673-6.081.187-1.674.673-6.081.187-1.674.479-4.365-7.364-.393-1.679-.086-8.238-.443-1.7-.094-10.379-.55-1.7-.094-9.883-.53-1.679-.086-12.066-.644-1.688-.094-7.826-.413-1.688-.094Z" transform="translate(-981.362 -484.75)" fill="#ffb447"/><path d="M981.947,492.363c2.957.193,5.913.368,8.86.544-.072.4-.144.817-.216,1.231-.281,1.609-.545,3.209-.809,4.819-2.469-.147-4.931-.3-7.4-.459l.124,1.69q3.5.228,7.013.428-.48,3.032-.933,6.064-2.822-.17-5.636-.351l.114,1.682q2.634.176,5.283.327-.442,3.03-.857,6.069c-1.327-.079-2.654-.159-3.982-.255l.115,1.69,3.645.223c-.27,2.02-.522,4.048-.766,6.068-.814-.053-1.621-.1-2.436-.157l.124,1.69c.706.046,1.411.085,2.117.132-.108.909-.216,1.826-.315,2.734l1.662.07c.059-.554.119-1.11.186-1.665.041-.345.081-.69.122-1.043,2.813.163,5.627.325,8.44.472-.068.865-.135,1.73-.195,2.6l1.67.078c.06-.865.127-1.73.194-2.6,4.047.2,8.093.4,12.148.558l-.279,2.548,1.653.07.2-1.867c.026-.235.053-.463.08-.69,2.443.1,4.877.2,7.32.277l.948.023c-.1.866-.2,1.741-.3,2.608l1.653.07c.053-.5.105-1,.167-1.5q.071-.567.144-1.136,4.857.151,9.716.267-.225,1.391-.424,2.779l1.679.069c.141-.943.29-1.878.439-2.821,3.456.068,6.9.129,10.359.173-.146,1.027-.3,2.063-.448,3.09l1.679.069c.146-1.043.3-2.088.455-3.14q4.353.052,8.7.07l.187-1.674c-2.885-.01-5.761-.036-8.646-.063l.882-6.079c2.809.029,5.627.057,8.436.061l.186-1.674c-2.792-.012-5.593-.033-8.386-.062.294-2.02.6-4.05.891-6.078q4.076.046,8.168.06l.178-1.674c-2.7-.006-5.4-.03-8.109-.053l.883-6.079q3.949.038,7.9.051l.187-1.674c-2.617-.008-5.224-.026-7.841-.044q.442-3.044.882-6.086c2.541.027,5.09.047,7.631.049l.187-1.673c-2.524,0-5.048-.024-7.573-.044.233-1.566.455-3.14.687-4.714l-1.68-.086c-.223,1.591-.462,3.191-.693,4.782q-4.328-.04-8.656-.114l-.093,0q.594-2.557,1.2-5.115l-1.7-.094q-.617,2.582-1.21,5.174-5.223-.1-10.445-.246c.416-1.831.834-3.654,1.277-5.478l-1.7-.095q-.65,2.748-1.276,5.511c-3.172-.085-6.345-.212-9.508-.323q.446-2.868.9-5.719l-1.679-.086c-.314,1.912-.612,3.824-.909,5.744-4.088-.151-8.176-.336-12.265-.529.355-1.956.718-3.912,1.107-5.859l-1.688-.095q-.582,2.935-1.1,5.876c-.949-.048-1.889-.088-2.829-.137-1.663-.086-3.317-.19-4.972-.285q.521-2.932,1.073-5.866l-1.688-.094q-.558,2.922-1.065,5.866-4.647-.269-9.281-.581Zm18.35,1.052c-.344,2.022-.681,4.044-.992,6.065-.7-.03-1.41-.06-2.115-.1-1.907-.1-3.813-.218-5.719-.323q.492-3.033,1.017-6.066C995.09,493.136,997.694,493.288,1000.3,493.414Zm12.849,8.369c-.286,2.012-.555,4.033-.834,6.06q-6.219-.249-12.44-.549.4-3.043.857-6.07Q1006.939,501.525,1013.146,501.783Zm1.128-7.737c-.3,2.012-.588,4.041-.882,6.062q-6.207-.251-12.408-.543.466-3.044,1-6.065Q1008.13,493.8,1014.274,494.046Zm.542,7.8q3.035.115,6.068.221c.957.031,1.921.055,2.887.085-.395,2.015-.756,4.037-1.11,6.059-2.886-.093-5.782-.2-8.669-.314C1014.261,505.876,1014.531,503.856,1014.816,501.844Zm10.536-7.419c-.066.32-.149.642-.215.97-.363,1.688-.716,3.383-1.044,5.086-3.013-.09-6.018-.205-9.022-.321.285-2.019.588-4.033.892-6.053,1.83.065,3.659.146,5.489.2C1022.751,494.357,1024.052,494.387,1025.352,494.425Zm.114,7.777q5.173.142,10.345.249-.643,3.024-1.235,6.072c-3.406-.07-6.821-.165-10.228-.261C1024.7,506.24,1025.08,504.217,1025.466,502.2Zm12.019-7.487-.09.38q-.635,2.836-1.237,5.695-5.184-.1-10.362-.257c.4-2.024.814-4.048,1.261-6.064Q1032.267,494.608,1037.484,494.715Zm9.711,6.237q-4.038-.036-8.093-.1c-.411-.005-.823-.018-1.242-.024q.655-3.048,1.343-6.083c2.961.049,5.914.107,8.883.132-.163,1.078-.316,2.147-.47,3.225Q1047.406,499.523,1047.2,500.951Zm-1.12,7.754c-2.516-.029-5.023-.058-7.54-.095-.755-.021-1.51-.041-2.265-.053q.6-3.048,1.242-6.081c3.146.053,6.292.114,9.445.149Zm-1.128,7.745c-2.323-.025-4.655-.043-6.978-.085-1.049-.02-2.1-.049-3.155-.069q.553-3.047,1.134-6.086c3.3.065,6.584.13,9.881.162C1045.536,512.4,1045.241,514.422,1044.948,516.451Zm-11.462,7.581c.327-2.03.681-4.053,1.033-6.075,3.4.062,6.786.125,10.184.17-.294,2.02-.589,4.049-.883,6.07-2.138-.023-4.277-.037-6.407-.076C1036.1,524.1,1034.794,524.06,1033.485,524.031ZM1023.077,516c.311-2.021.631-4.043.975-6.065q5.1.143,10.194.254-.58,3.035-1.126,6.068Q1028.1,516.145,1023.077,516Zm-1.062,7.743c.261-2.028.53-4.056.824-6.076,3.331.1,6.662.195,9.993.267-.362,2.014-.706,4.044-1.033,6.066C1028.536,523.921,1025.28,523.839,1022.016,523.739Zm-9.035-8.1c.252-2.019.522-4.039.791-6.059,2.182.08,4.364.169,6.546.24l2.056.067c-.336,2.014-.664,4.035-.967,6.056C1018.6,515.855,1015.792,515.743,1012.981,515.638Zm-.911,7.74q.353-3.028.715-6.058c2.325.085,4.651.177,6.966.254.47.02.94.024,1.41.044q-.442,3.03-.815,6.068C1017.585,523.6,1014.831,523.483,1012.07,523.378Zm-13.126-8.344q.329-3.04.715-6.082,6.208.312,12.441.566c-.269,2.02-.546,4.04-.791,6.059Q1005.128,515.339,998.945,515.034Zm-.751,7.743c.177-2.026.362-4.06.573-6.087q6.17.313,12.349.569c-.245,2.019-.472,4.038-.7,6.065Q1004.3,523.084,998.194,522.777Zm-9.253-6.619c2.713.157,5.434.314,8.154.454q-.315,3.04-.563,6.087c-.344-.016-.688-.031-1.033-.055-2.444-.123-4.888-.271-7.332-.419C988.412,520.206,988.672,518.178,988.941,516.158Zm9.039-7.293q-.378,3.041-.706,6.082c-.4-.014-.806-.035-1.209-.057-2.309-.119-4.611-.254-6.912-.39q.416-3.043.858-6.069C992.674,508.581,995.328,508.732,997.98,508.865Zm-6.781-8.157c2.62.152,5.231.3,7.851.43-.3,2.02-.58,4.049-.849,6.077l-1.578-.081c-2.116-.107-4.242-.239-6.357-.363Q990.72,503.74,991.2,500.709Z" transform="translate(-981.404 -484.808)" fill="#ffca87"/></g></g><g transform="translate(812.5 302.978)"><g transform="translate(73.465 83.501)"><path d="M899.021,430.979a24.27,24.27,0,0,0,3.28,5.634c.383.5.79.992,1.222,1.458,0,0,27.271-12.807,29.134-14.157a4.432,4.432,0,0,0,.826-1.027c.087-.125.18-.259.275-.411.548-.856,1.242-2.046,2.008-3.432.154-.284.316-.571.481-.876a1.113,1.113,0,0,0,.072-.119c.157-.3.321-.607.494-.914.1-.182.2-.36.3-.549.172-.333.352-.669.537-1.015a.081.081,0,0,0,.028-.045c.177-.344.354-.687.54-1.033a.255.255,0,0,0,.034-.055c3.621-6.91,7.592-15.031,7.592-15.031l-4.977-1.661-9.593-2.891-8.237,19.675Z" transform="translate(-899.021 -394.854)" fill="#ffa07f"/><path d="M902.63,436.9c.384.5.79.992,1.222,1.458,0,0,27.271-12.807,29.134-14.157a4.432,4.432,0,0,0,.826-1.027c.087-.125.18-.259.275-.411.548-.856,1.242-2.046,2.008-3.432.154-.284.316-.571.481-.876a1.126,1.126,0,0,0,.072-.119c.157-.3.321-.607.494-.914.1-.182.2-.36.3-.549.172-.333.352-.669.537-1.015a.082.082,0,0,0,.028-.045c.177-.344.354-.687.54-1.033a.258.258,0,0,0,.034-.055c3.667-6.952,7.692-15.169,7.692-15.169l-5.077-1.524c-4.361,9.45-10.622,22.983-11.2,23.606S914.323,430.587,902.63,436.9Z" transform="translate(-899.35 -395.144)" fill="#ffbf90"/></g><path d="M942.782,362.166s-4.268,1.323-5.761,3.264-8.865,30.846-8.865,30.846l14.726,2.179,1.317-32.674Z" transform="translate(-828.212 -308.373)" fill="#fff"/><g transform="translate(49.177 104.952)"><g transform="translate(25.586 54.472)"><path d="M915.938,479.9c-.158,15.635,1.252,34.728,1.252,34.728l-13.467-1.33-3.274-34.064,12.6-.687,2.895-.157C915.949,478.876,915.938,479.384,915.938,479.9Z" transform="translate(-900.45 -478.392)" fill="#ffa07f"/></g><path d="M964.269,435.5s-45.99-16.131-55.95-16.9-16.078,1.78-18.091,4.939,5.989,52.2,5.989,52.2l21.78.817.135-26.853s27.035,22.259,31.38,23.249,23.225.88,23.225.88Z" transform="translate(-873.902 -418.456)" fill="#59302d"/><g transform="translate(0 77.308)"><path d="M872.3,520.843l43.878-.185c-.084-.817-.3-2.863-.619-5.349-3.021.171-7.005.054-9.142-1.384-2.657-1.787-4.272-7.241-4.983-10.255l-7.223-.152c-.7,1.631-2.51,5.475-4.651,7.276-2.761,2.332-13.068,6.565-15.87,7.914A2.592,2.592,0,0,0,872.3,520.843Z" transform="translate(-872.297 -503.518)" fill="#414156"/><path d="M872.313,526.418l-.016-3.859,43.877-.182.017,4.041Z" transform="translate(-872.297 -505.237)" fill="#fff"/></g></g><g transform="translate(120.307 120.648)"><g transform="translate(51.19 48.284)"><path d="M1008.381,497.256c15.5-2.029,33.074-4.646,33.074-4.646l1.7,12.072-33.271,8-2.442-12.385-.561-2.845C1007.365,497.389,1007.867,497.329,1008.381,497.256Z" transform="translate(-1006.885 -489.196)" fill="#ffa07f"/><g transform="translate(23.717)"><path d="M1054.284,532.895l-6.689-43.366c-.8.2-2.787.722-5.2,1.405.617,2.962,1.092,6.92-.014,9.246-1.373,2.893-6.526,5.3-9.4,6.448l.921,7.166c1.717.453,5.786,1.67,7.886,3.522,2.715,2.385,8.43,11.95,10.179,14.521A2.594,2.594,0,0,0,1054.284,532.895Z" transform="translate(-1032.981 -488.915)" fill="#414156"/><path d="M1059.561,532.246l-3.814.588-6.685-43.365,3.994-.616Z" transform="translate(-1034.447 -488.853)" fill="#fff"/></g></g><path d="M950.615,508.119c.833,9.968,4.336,15.6,7.772,17.079s50.577-14.238,50.577-14.238l-1.388-11.21-.139-1.175-.661-5.34-.482-3.911-26.526,4.155s17.659-30.248,17.936-34.69-2.832-23.064-2.832-23.064l-7.258,2.874-8.728,3.454-1.1.441-19.4,7.7S949.8,498.175,950.615,508.119Z" transform="translate(-950.561 -435.727)" fill="#82473e"/><path d="M968.815,527.184c-1.8,1.51-4.5,1.164-6.7.359A11.706,11.706,0,0,1,957,524.212c-3.38-4.105-.587-10.191,4.751-8.789C965.811,516.49,974.12,522.723,968.815,527.184Z" transform="translate(-951.013 -442.973)" fill="#a2655f"/></g><path d="M976.834,497.342l32.339-4.106-.482-3.911-26.526,4.155s17.659-30.248,17.936-34.69-2.832-23.064-2.832-23.064l-7.258,2.874c1.347,7.176,3.192,17.455,2.987,19.048C992.689,460.13,976.834,497.342,976.834,497.342Z" transform="translate(-832.649 -315.079)" fill="#59302d"/><g transform="translate(137.247 23.297)"><g transform="translate(0.197 2.079)"><path d="M969.417,333.844a5.086,5.086,0,0,1,.506.1l.105.025c3.9.931,6.589,5.013,7.014,9.07.457,4.27-1.037,8.483-2.662,12.45s-3.454,7.969-3.723,12.247c-.416,6.7,3.241,13.307,8.695,17.226s12.45,5.331,19.137,4.711a48.032,48.032,0,0,0,18.933-6.433c-.1,0-.188.008-.286.008-6.115.212-12.67-.7-17.185-4.809-4.792-4.343-6.2-11.267-6.6-17.725s-.057-13.127-2.368-19.169c-1.592-4.163-4.923-8.1-9.193-9.65a15.547,15.547,0,0,0-5.813-.972c-1.56.115-4.351,2.27-5.886,2.809h-.008A1.446,1.446,0,0,1,969.417,333.844Z" transform="translate(-969.417 -330.9)" fill="#fbca8c"/><path d="M969.92,334.007c.049-.016.105-.025.155-.041a14.348,14.348,0,0,1,7.9-.049,8.373,8.373,0,0,1,5.633,5.438c1.094,3.993-1.543,7.935-2.612,11.928a16.154,16.154,0,0,0,.759,10.532q1.935-2.841,3.854-5.682a21.905,21.905,0,0,0,31.579,27.114c-6.115.212-12.67-.7-17.185-4.809-4.792-4.343-6.2-11.267-6.6-17.725s-.057-13.127-2.368-19.169c-1.592-4.163-4.923-8.1-9.193-9.65a15.547,15.547,0,0,0-5.813-.972c-1.56.115-4.351,2.27-5.886,2.809h-.008c-.057.074-.115.138-.163.212A.454.454,0,0,0,969.92,334.007Z" transform="translate(-969.463 -330.9)" fill="#ffdd9d"/></g><path d="M976.135,332.323a5.647,5.647,0,0,1-.954,3.118c-.745,1.172-2.029,2.2-3.4,1.972a2.818,2.818,0,0,1-1.794-1.194,4.579,4.579,0,0,1-.739-2.063c-.229-1.8.313-4.919,2.415-5.446A3.775,3.775,0,0,1,976.135,332.323Z" transform="translate(-969.2 -328.612)" fill="#fff"/></g><g transform="translate(110.724 47.084)"><path d="M949.867,445.817c0-1.032-.114-32.093-.328-38.51-1.8-2.016-6.747-6.356-8.941-13.4-2.029-6.558,1.907-24.916,1.907-24.916l5.36-7.5,2.17-2.7,14.333-4.012,9.048,3.441s10.041,8.08,11.013,12.539c1.043,4.7,15.422,64.337,15.422,64.337Z" transform="translate(-940.017 -354.785)" fill="#fff"/></g><g transform="translate(101.679)"><g transform="translate(18.268 35.82)"><path d="M959.972,351.239a13.227,13.227,0,0,1-8.276.634c-.605-3.217-1.531-7.055-1.531-7.055l10.773-2.427a56.544,56.544,0,0,0,1.654,6.582A6.126,6.126,0,0,1,959.972,351.239Z" transform="translate(-950.165 -342.391)" fill="#ff7d6f"/><path d="M963.588,358.05a12.546,12.546,0,0,0,1.786-3.734l-.061-.028c-1.018-.5-1.925-2.485-2.64-4.654a6.126,6.126,0,0,1-2.62,2.266,13.224,13.224,0,0,1-8.275.634,21.144,21.144,0,0,1,.505,3.953,4.545,4.545,0,0,1-1.242,1.84c2.349,1.469,4.81,2.681,7.428,2.7C960.464,361.069,962.14,359.7,963.588,358.05Z" transform="translate(-950.245 -343.051)" fill="#ffa07f"/></g><g transform="translate(0 25.569)"><path d="M930.065,336.248a5.4,5.4,0,0,1,7.9-4.531C934.958,331.574,931.28,333.49,930.065,336.248Z" transform="translate(-930.065 -331.112)" fill="#fbca8c"/><path d="M932.748,339.5a5.4,5.4,0,0,1,5.17-7.5C935.141,333.17,932.652,336.487,932.748,339.5Z" transform="translate(-930.272 -331.192)" fill="#fbca8c"/></g><g transform="translate(4.349 0.829)"><path d="M954.129,305.251c-.361.015-13.461,3.681-15.44,8.339s-4.183,21.492-.252,29.281,9.294,6.366,11.193,5.687,10.757-5.016,12.678-8.106,5.5-18.654,4.26-22.578S954.129,305.251,954.129,305.251Z" transform="translate(-934.978 -304.014)" fill="#ffbf90"/><path d="M954.731,303.89c-.361.015-13.461,3.681-15.44,8.339s-4.182,21.492-.252,29.281,9.294,6.366,11.193,5.687,10.757-5.016,12.678-8.106,5.5-18.653,4.259-22.578S954.731,303.89,954.731,303.89Z" transform="translate(-935.033 -303.89)" fill="#ffa07f"/><path d="M951.791,331.092a3.815,3.815,0,0,1,3.922-2.239,5.465,5.465,0,0,1,3.907,2.6A8.877,8.877,0,0,0,951.791,331.092Z" transform="translate(-936.394 -306.164)" fill="#252727"/><g transform="translate(8.543 21.735)"><path d="M947.966,336.309a2.832,2.832,0,0,1,1.244-.156,4.047,4.047,0,0,1-2.459,1.812.594.594,0,0,1-.239.023.6.6,0,0,1-.258-.136,4.756,4.756,0,0,1-1.214-1.409.928.928,0,0,1-.134-.352c-.042-.417.224-.292.452-.165a3.686,3.686,0,0,0,.839.338A3.747,3.747,0,0,0,947.966,336.309Z" transform="translate(-944.308 -328.534)" fill="#ff7d6f"/><path d="M946.646,336.993c-.217-.254-.468-.476-.693-.725a6.269,6.269,0,0,1-.74-.988c1.432-.731,1.6-2.1,1.744-3.664a4.56,4.56,0,0,0-.83-3.058,4.468,4.468,0,0,0-.356-.441,1.657,1.657,0,0,0-.421-.312c.068.1.109.217.17.323a8.719,8.719,0,0,1,.456.822,5.68,5.68,0,0,1,.31.9,5.576,5.576,0,0,1,.148,1.892,4.606,4.606,0,0,1-.537,1.78,3.619,3.619,0,0,1-1.539,1.52c-.006,0,.758,1.165.834,1.261a4.851,4.851,0,0,0,.666.686,1.654,1.654,0,0,0,.838.467.532.532,0,0,0,.3-.046,1.089,1.089,0,0,1-.137-.145c-.018-.023-.035-.046-.052-.07C946.755,337.124,946.7,337.058,946.646,336.993Z" transform="translate(-944.259 -327.805)" fill="#fc5b68"/><g transform="translate(0 11.371)"><path d="M944.249,340.6a8.752,8.752,0,0,0,5.984,2.347,8,8,0,0,0,5.647-2.625A12.081,12.081,0,0,1,944.249,340.6Z" transform="translate(-944.249 -340.317)" fill="#fc5b68"/><path d="M948.372,343.812a3.517,3.517,0,0,0,2.452,1.09,3.026,3.026,0,0,0,2.279-1.132A4.53,4.53,0,0,1,948.372,343.812Z" transform="translate(-944.625 -340.632)" fill="#fc5b68"/></g></g><path d="M965.306,334.589c.472-.26,2.733-3.6,4.561-1.751s2.47,5.049.952,6.947c-1.386,1.733-3.345,3.63-5.9,3.131Z" transform="translate(-937.591 -306.478)" fill="#ffa07f"/><path d="M970.084,335.51a2.45,2.45,0,0,1-.034,1.305c-.481,1.829-2.108,3.283-3.667,4.634a4.769,4.769,0,0,0,.436-2.847c-.051-.333-.134-.663-.153-1C966.591,336.254,969.353,333,970.084,335.51Z" transform="translate(-937.724 -306.688)" fill="#ff7d6f"/><g transform="translate(27.87 27.88)"><path d="M965.515,342l.089-.059c.057-.041.149-.1.254-.178a3.777,3.777,0,0,0,.763-.805,3.565,3.565,0,0,0,.591-1.461,3.173,3.173,0,0,0-.293-1.883,1.736,1.736,0,0,0-.129-.231l-.036-.056c-.008-.014,0-.005,0-.006v0h0l0-.01.024-.053.05-.105c.035-.069.068-.138.1-.205a8.05,8.05,0,0,1,.453-.765c.159-.238.325-.459.49-.661a4.809,4.809,0,0,1,.489-.531,1.1,1.1,0,0,1,.513-.271.785.785,0,0,1,.45.058.438.438,0,0,1,.207.182.381.381,0,0,1,.033.089.31.31,0,0,0-.009-.1.426.426,0,0,0-.178-.237.875.875,0,0,0-.52-.147,1.357,1.357,0,0,0-.684.244,4.42,4.42,0,0,0-.608.51,6.938,6.938,0,0,0-.594.651,6.424,6.424,0,0,0-.54.786c-.042.071-.081.143-.121.216l-.057.111-.074.156-.052.109c.016.035.04.07.06.1l.09.149a1.393,1.393,0,0,1,.11.2,3.339,3.339,0,0,1,.34,1.661,3.718,3.718,0,0,1-.364,1.387,3.9,3.9,0,0,1-.572.859c-.083.1-.158.163-.2.213Z" transform="translate(-965.515 -334.567)" fill="#cf4a57"/></g><path d="M937.874,323.419s2.289-1.985,3.794-1.928,2.034,1.4,1.461,1.711S937.874,323.419,937.874,323.419Z" transform="translate(-935.125 -305.494)" fill="#ffdd9d"/><path d="M960.619,323.77s-4.084-2.125-6.45-2-2.885,1.657-1.9,1.975S960.619,323.77,960.619,323.77Z" transform="translate(-936.394 -305.52)" fill="#ffdd9d"/><g transform="translate(2.818 20.559)"><path d="M939.235,326.511a2.623,2.623,0,0,0,1.248,1.167,1.108,1.108,0,0,1,.844-.389c.785.035,1.376,1.086,1.32,2.348s-.739,2.255-1.524,2.219-1.376-1.086-1.32-2.348a3.455,3.455,0,0,1,.217-1.072A4.211,4.211,0,0,1,939.235,326.511Z" transform="translate(-938.067 -326.511)" fill="#252727"/><path d="M941.17,330.029a2.929,2.929,0,0,1-3.22-1.057,2.929,2.929,0,0,1,3.22,1.057Z" transform="translate(-937.95 -326.725)" fill="#fff"/></g><g transform="translate(0 27.075)"><path d="M955.269,336.689c.135.707,1.757.991,3.623.633s3.269-1.219,3.134-1.925-1.757-.99-3.623-.633S955.134,335.983,955.269,336.689Z" transform="translate(-936.71 -333.766)" fill="#ff7d6f"/><path d="M934.874,334.009c-.2.505.865,1.412,2.388,2.026s2.922.7,3.125.2-.865-1.412-2.388-2.026S935.078,333.5,934.874,334.009Z" transform="translate(-934.85 -333.681)" fill="#ff7d6f"/></g></g><g transform="translate(4.053)"><path d="M935.1,316.271c1.981,2.493,8.582,3.288,8.582,3.288l-.685-3.906c1.235,2.979,6.248,3.293,6.248,3.293l-2.178-4.241c2.716,4.2,16.523,7.157,16.523,7.157l-.987,9.361a9.559,9.559,0,0,1,2.834-1.363c1.227-.229,3.293,3.193,3.293,3.193a48.365,48.365,0,0,0,3.633-12.517c.385-3.128.147-6.3-1.421-8.776-7.2-11.405-24.058-9.393-29.248-6.651a14.533,14.533,0,0,0-6.867,7.623A3.753,3.753,0,0,0,935.1,316.271Z" transform="translate(-934.524 -302.978)" fill="#fbca8c"/><path d="M940.391,315.182a5.8,5.8,0,0,1,.123-4.393,11.643,11.643,0,0,0,4.707,3.127,8.1,8.1,0,0,1-.26-4.012,45.1,45.1,0,0,0,27.428,10.629,16.257,16.257,0,0,0-.229-5.916,9.636,9.636,0,0,0-1.192-2.856c-7.2-11.4-24.057-9.4-29.25-6.655a15.8,15.8,0,0,0-5.378,4.747,10.452,10.452,0,0,0-1.485,2.876A22.866,22.866,0,0,0,940.391,315.182Z" transform="translate(-934.554 -302.978)" fill="#ffdd9d"/><path d="M936.488,309.853a4.061,4.061,0,0,0,1.813,1.162,7.393,7.393,0,0,1,2.263-3.805,6.435,6.435,0,0,0,3.269,2.82,7.577,7.577,0,0,1,.26-3.17,19.993,19.993,0,0,0,9.918,4.254,6.7,6.7,0,0,1-3.273-3.9,43.867,43.867,0,0,0,21.57,7.405,9.632,9.632,0,0,0-1.192-2.856c-7.2-11.4-24.057-9.4-29.25-6.655A15.8,15.8,0,0,0,936.488,309.853Z" transform="translate(-934.703 -302.978)" fill="#ffeaac"/></g><g transform="translate(27.663 25.753)"><path d="M960.5,336.45a5.4,5.4,0,0,1,7.905-4.531C965.4,331.776,961.718,333.691,960.5,336.45Z" transform="translate(-960.503 -331.314)" fill="#fbca8c"/><path d="M963.186,339.7a5.4,5.4,0,0,1,5.17-7.5C965.579,333.371,963.09,336.689,963.186,339.7Z" transform="translate(-960.71 -331.394)" fill="#fbca8c"/></g></g><path d="M963.843,354.785l9.048,3.441s-7.973,17.007-7.55,22.05S974.3,405.69,974.3,405.69l20.177-6.207,1.552,2.538L985.554,408.6s4.073,23.475,3.3,25.026-30.207,18.624-32.176,24.832-6.181,25.026-6.181,25.026-14.289-6.841-16.1-12.733,14-42.4,14-42.4l.611-21.042s-12.141-9.557-12.729-18.876,7.054-29.688,7.054-29.688l6.668-.517s-4.877,14.266-4.731,16.813,11.785.873,11.785.873S961.824,359.63,963.843,354.785Z" transform="translate(-828.768 -307.701)" fill="#9bb736"/><g transform="translate(86.064 84.285)"><path d="M912.884,419.687a24.268,24.268,0,0,0,1.314,6.385c.2.6.433,1.191.694,1.771,0,0,29.929-3.454,32.126-4.139a4.44,4.44,0,0,0,1.11-.711c.123-.09.254-.187.393-.3.792-.637,1.829-1.543,3-2.613.236-.22.482-.441.734-.677a1.03,1.03,0,0,0,.106-.09q.367-.356.759-.711c.155-.138.3-.277.457-.424.27-.261.547-.523.833-.792a.079.079,0,0,0,.04-.033c.278-.269.555-.539.842-.808a.2.2,0,0,0,.048-.041c5.634-5.4,11.986-11.83,11.986-11.83l-4.189-3.159-8.172-5.8-14.074,16.027Z" transform="translate(-912.884 -395.717)" fill="#ffa07f"/><path d="M914.33,426.653c.2.6.433,1.191.694,1.771,0,0,29.929-3.454,32.126-4.139a4.44,4.44,0,0,0,1.11-.711c.123-.09.254-.187.393-.3.792-.637,1.829-1.543,3-2.613.236-.22.482-.441.734-.677a1.03,1.03,0,0,0,.106-.09q.367-.356.759-.711c.155-.138.3-.277.457-.424.27-.261.547-.523.833-.792a.079.079,0,0,0,.04-.033c.278-.269.555-.539.842-.808a.2.2,0,0,0,.048-.041c5.691-5.421,12.124-11.928,12.124-11.928l-4.327-3.062c-7.144,7.568-17.39,18.4-18.132,18.81C944.407,421.305,927.426,424.392,914.33,426.653Z" transform="translate(-913.016 -396.298)" fill="#ffbf90"/></g><g transform="translate(123.049 58.824)"><path d="M983.383,374a22.251,22.251,0,0,1,1.5,9.98c-.483,5.539-13.586,22.607-13.586,22.607L953.578,393.84s11.741-22.654,16.478-24.4A29,29,0,0,1,979.1,367.7Z" transform="translate(-953.578 -367.702)" fill="#fff"/><path d="M955.383,390.661l15.788,11.8s10.421-17.606,10.421-20.225-8.73-12.368-8.73-12.368,5.717,2.11,8.73,5.383,3.363,10.913,3.363,10.913-10.723,18.258-13.663,20.624l-17.714-12.747Z" transform="translate(-953.578 -367.899)" fill="#e2e2e2"/></g><g transform="translate(0 103.379)"><g transform="translate(54.714)"><path d="M892.439,419.281c-1.763-1.846-3.448-2.7-5.009-2.536-3.186.333-6.735,6.026-9.04,10.468l1.324,4.736c2.9-6.313,6.565-11.8,8.057-11.956.282-.029,1.083.263,2.307,1.543,3.112,3.257,5.724,9.278,5.4,11.391-.269,1.447-6.29,4.643-13.463,7.258l.884,3.161c5.922-2.118,15.216-6.034,15.807-9.927C899.259,429.8,895.729,422.724,892.439,419.281Z" transform="translate(-878.39 -416.725)" fill="#254f79"/></g><g transform="translate(25.931 1.731)"><g transform="translate(0.037 1.438)"><path d="M876.276,420.212l5.06,23.543.19.862.39,1.816s-3.326,4.355-12.3,6.865-12.5.682-12.5.682l-.872-2.147-.337-.838-9.148-22.527Z" transform="translate(-846.761 -420.212)" fill="#456997"/></g><path d="M876.272,420.068c.416,1.486-2.646,3.724-7.44,5.71a55.1,55.1,0,0,1-6.273,2.153c-8.153,2.28-15.224,2.461-15.8.393s5.559-5.581,13.713-7.862a55.178,55.178,0,0,1,6.48-1.414C872.078,418.257,875.857,418.583,876.272,420.068Z" transform="translate(-846.72 -418.63)" fill="#254f79"/><path d="M877.551,420.068c.416,1.486-2.646,3.724-7.44,5.71-5.129.79-8.907.464-9.323-1.021s2.647-3.724,7.441-5.71C873.357,418.257,877.136,418.583,877.551,420.068Z" transform="translate(-847.999 -418.63)" fill="#3f3634"/><g transform="translate(9.186 24.981)"><path d="M882.253,446.116l.19.863a43.237,43.237,0,0,1-12.507,5.838,38.215,38.215,0,0,1-12.772,1.377l-.337-.838C862.194,453.779,871.864,453.193,882.253,446.116Z" transform="translate(-856.827 -446.116)" fill="#fff"/></g></g><g transform="translate(0 3.979)"><path d="M846.768,434.319l-22.41-7.871L823.3,429.16l27.649,15.461Z" transform="translate(-818.654 -421.59)" fill="#254f79"/><path d="M822.533,421.1l-4.345,9.494,10.427,1.306,1.982-3.588Z" transform="translate(-818.188 -421.103)" fill="#456997"/></g></g><g transform="translate(56.495 102.113)"><path d="M923.881,415.332l3.638,15.423-22.7,1.746-1.746-10.913Z" transform="translate(-882.421 -415.332)" fill="#27273b"/><g transform="translate(0 4.355)"><path d="M880.374,425.459c.41,1.392,9.652-2.507,9.652-2.507l1.919,2.02-3.709,1.991-3.367,5.128s.633,1.012,1.481,2.2c.1.15.215.3.326.453a23.883,23.883,0,0,0,1.632,2.032c.05.06.105.117.155.174a7.557,7.557,0,0,0,.794.733,1.66,1.66,0,0,0,.736.37l3.429-3.333s6.546.772,7.473.389a14.805,14.805,0,0,0,2.467-3.222c.52-.793,2.519-3.9,3.011-4.684L901,422.025l-2.066-.123c-.616-.205-1.439-.462-2.365-.716v0c-.454-.125-.934-.25-1.427-.368a20.158,20.158,0,0,0-5.284-.68,4.922,4.922,0,0,0-1.712.343C884.906,421.887,879.964,424.068,880.374,425.459Z" transform="translate(-880.35 -420.125)" fill="#27273b"/><g transform="translate(5.999 9.831)"><g transform="translate(1.959 1.69)"><path d="M889.1,437.936c.05.06.105.117.155.174.125-.156.284-.363.477-.61.442-.559,1.051-1.305,1.726-2.1a16,16,0,0,1,1.9-1.906l.382-.3c.121-.078.224-.15.311-.2l.271-.187s-.119.015-.336.055c-.107.018-.242.044-.4.077s-.314.1-.5.171a6.267,6.267,0,0,0-2.426,1.726,7.476,7.476,0,0,0-1.381,2.463C889.2,437.545,889.144,437.761,889.1,437.936Z" transform="translate(-889.105 -432.801)" fill="#414156"/></g><path d="M886.95,435.282c.1.15.215.3.326.453.028-.03.054-.064.079-.1.442-.559,1.051-1.305,1.726-2.1a15.712,15.712,0,0,1,1.9-1.909c.141-.112.265-.212.378-.3s.227-.15.312-.208l.271-.184s-.116.015-.334.052c-.107.022-.242.045-.4.081s-.317.1-.5.168a6.242,6.242,0,0,0-2.426,1.728A7.391,7.391,0,0,0,886.95,435.282Z" transform="translate(-886.95 -430.942)" fill="#414156"/></g></g></g></g><g transform="translate(773.467 415.071)"><g transform="translate(64.617 10.075)"><path d="M853.881,485.974c.6-4.229,3.1-7.3,5.332-10.784a12.036,12.036,0,0,0,2.178-5.588,14.605,14.605,0,0,0-1.14-5.9c-1.28-3.532-3.192-7.1-2.964-10.97a17.83,17.83,0,0,1,2.1-6.416c.955-2.062,2.025-4.953.268-6.907-1-1.109.64-2.757,1.642-1.643,2.856,3.175,1.248,7.261-.328,10.619a10.884,10.884,0,0,0-1.252,6.519,27.293,27.293,0,0,0,1.821,5.728c1.44,3.632,2.891,7.453,1.766,11.384-1.131,3.954-4.262,6.847-6.008,10.491-2.5,5.2-.9,11.228.5,16.5a1.163,1.163,0,0,1-2.24.618C854.381,495.2,853.227,490.58,853.881,485.974Z" transform="translate(-847.008 -437.399)" fill="#007656"/><path d="M869.767,479.157c1.449.156,3.41.929,2.834,2.794a3.955,3.955,0,0,1-1.552,1.883,12.678,12.678,0,0,1-6.756,2.417c-3.414.214-9.447-.458-5.07-4.585C861.833,479.2,866.376,478.792,869.767,479.157Z" transform="translate(-847.372 -441.195)" fill="#009f78"/><path d="M871.647,457.576c1.408-.376,3.515-.364,3.651,1.583a3.957,3.957,0,0,1-.768,2.317,12.688,12.688,0,0,1-5.43,4.692c-3.106,1.431-8.977,2.98-6.383-2.448C864.264,460.481,868.351,458.458,871.647,457.576Z" transform="translate(-847.772 -439.221)" fill="#009f78"/><path d="M869.413,441.318c1.422-.318,3.527-.219,3.583,1.732a3.95,3.95,0,0,1-.863,2.283,12.687,12.687,0,0,1-5.618,4.463c-3.164,1.3-9.092,2.607-6.277-2.708C861.916,443.917,866.084,442.064,869.413,441.318Z" transform="translate(-847.537 -437.744)" fill="#009f78"/><path d="M858.715,474.67c.9,1.15,1.7,3.1-.038,3.979a3.952,3.952,0,0,1-2.432.193,12.693,12.693,0,0,1-6.436-3.176c-2.526-2.3-6.237-7.11-.228-6.833C853.166,469,856.619,471.977,858.715,474.67Z" transform="translate(-846.337 -440.263)" fill="#009f78"/><path d="M858.715,459.18c.9,1.15,1.7,3.1-.038,3.979a3.959,3.959,0,0,1-2.432.194,12.694,12.694,0,0,1-6.436-3.177c-2.526-2.3-6.237-7.11-.228-6.832C853.166,453.509,856.619,456.487,858.715,459.18Z" transform="translate(-846.337 -438.852)" fill="#009f78"/></g><g transform="translate(12.429)"><path d="M802.677,475.53c-1.077-1.859-2.288-3.734-2.6-5.9-.627-4.3,2.785-6.946,4.91-10.181,3.034-4.619-.318-9.2-1.567-13.79-1.025-3.77-.822-8.7,3.016-10.789,1.314-.715,2.487,1.29,1.173,2.006-3.624,1.975-2.428,7.114-1.25,10.211,1.624,4.27,3.487,8.718.949,13.036-1.946,3.31-6.1,6.026-4.643,10.354.734,2.178,2.256,4.013,3.187,6.1a19.509,19.509,0,0,1-2.087,19.351c-.879,1.19-2.9.032-2.006-1.173a17.434,17.434,0,0,0,3.252-12.857A17.793,17.793,0,0,0,802.677,475.53Z" transform="translate(-789.925 -427.079)" fill="#007656"/><path d="M816.021,481.709a3.755,3.755,0,0,0,1.441-2.564c-.017-1.01-1.267-1.941-2.055-1.31A8.925,8.925,0,0,0,817.483,472c-.012-.73-.235-1.61-.937-1.811a1.875,1.875,0,0,0-1.594.589,25.732,25.732,0,0,0-8.242,12.356c-.734,2.406-.4,4.534,2.568,3.275A23.21,23.21,0,0,0,816.021,481.709Z" transform="translate(-790.507 -430.309)" fill="#47b695"/><path d="M816.021,452.4a3.755,3.755,0,0,0,1.441-2.564c-.017-1.01-1.267-1.941-2.055-1.31a8.923,8.923,0,0,0,2.076-5.832c-.012-.73-.235-1.61-.937-1.811a1.873,1.873,0,0,0-1.594.59,25.725,25.725,0,0,0-8.242,12.355c-.734,2.406-.4,4.534,2.568,3.275A23.21,23.21,0,0,0,816.021,452.4Z" transform="translate(-790.507 -427.638)" fill="#47b695"/><path d="M790.379,465.708a3.754,3.754,0,0,1-1.442-2.563c.017-1.01,1.267-1.942,2.055-1.311A8.923,8.923,0,0,1,788.916,456c.012-.731.235-1.61.937-1.812a1.878,1.878,0,0,1,1.594.59,25.726,25.726,0,0,1,8.242,12.355c.733,2.406.4,4.535-2.568,3.276A23.209,23.209,0,0,1,790.379,465.708Z" transform="translate(-788.915 -428.851)" fill="#47b695"/><path d="M793.946,437.87a3.752,3.752,0,0,1-1.441-2.564c.017-1.01,1.267-1.942,2.055-1.311a8.913,8.913,0,0,1-2.076-5.831c.012-.731.235-1.61.937-1.812a1.878,1.878,0,0,1,1.594.59,25.733,25.733,0,0,1,8.241,12.355c.734,2.406.4,4.535-2.567,3.276A23.21,23.21,0,0,1,793.946,437.87Z" transform="translate(-789.24 -426.313)" fill="#47b695"/></g><path d="M876.481,505.161s-.723-4.449-2.222-4.616-1.069.549-5.94,0-2.708-6.622-8.624-5.387-10.724,3.213-15.909,2.178-6.908-1.98-12.113,0-1.209,3.5-9.7,2.741-7.582-1.8-13.449-2.741-4.308-4.664-10-1.341-6.42,3.449-10.866,3.457-7.024-1.96-7.919,1.093a28.509,28.509,0,0,0-1.048,5.713Z" transform="translate(-775.554 -432.542)" fill="#82473e"/><g transform="translate(0 71.531)"><path d="M775.24,505.018l1.381,5.938.816,3.551.658,2.811.815,3.558.658,2.811.815,3.551,1.381,5.938h92.881l.986-5.938.579-3.551.474-2.811.579-3.558.473-2.811.579-3.551.986-5.938Z" transform="translate(-775.24 -505.018)" fill="#c78b5f"/><path d="M776.759,511.552l.816,3.551h100.3l.579-3.551Z" transform="translate(-775.378 -505.614)" fill="#a97149"/><path d="M778.38,518.552l.815,3.558H876.97l.579-3.558Z" transform="translate(-775.526 -506.252)" fill="#a97149"/><path d="M780,525.561l.815,3.551h95.249l.578-3.551Z" transform="translate(-775.674 -506.891)" fill="#a97149"/></g></g><g transform="translate(857.807 315.937)"><g transform="translate(19.512 25.363)"><path d="M910.674,361.065l-16.981-13.137-4.185,11.195Z" transform="translate(-889.508 -345.397)" fill="#ffb447"/><path d="M919.4,358.625l.449-13.481-7.26,1.571Z" transform="translate(-891.612 -345.144)" fill="#ffb447"/><path d="M911.486,372.738l-14.265,1.235,1.211,6.707Z" transform="translate(-890.211 -347.659)" fill="#ffb447"/></g><path d="M873.023,387.952l.752-2.371.752,2.371a10.527,10.527,0,0,0,4.984,6.057h0a10.527,10.527,0,0,0-4.984,6.057l-.752,2.371-.752-2.371a10.527,10.527,0,0,0-4.984-6.057h0A10.527,10.527,0,0,0,873.023,387.952Z" transform="translate(-868.039 -323.467)" fill="#fff"/><path d="M1031.253,414.2l.751-2.371.752,2.371a10.526,10.526,0,0,0,4.984,6.057h0a10.526,10.526,0,0,0-4.984,6.057l-.752,2.371-.751-2.371a10.532,10.532,0,0,0-4.985-6.057h0A10.532,10.532,0,0,0,1031.253,414.2Z" transform="translate(-882.462 -325.859)" fill="#fff"/><path d="M1004.528,319.608l.751-2.371.752,2.371a10.528,10.528,0,0,0,4.984,6.057h0a10.527,10.527,0,0,0-4.984,6.057l-.752,2.371-.751-2.371a10.528,10.528,0,0,0-4.985-6.057h0A10.53,10.53,0,0,0,1004.528,319.608Z" transform="translate(-880.026 -317.237)" fill="#fff"/><path d="M1020,351.794l.447-1.411.447,1.411a6.264,6.264,0,0,0,2.965,3.6h0a6.259,6.259,0,0,0-2.965,3.6l-.447,1.411L1020,359a6.256,6.256,0,0,0-2.965-3.6h0A6.261,6.261,0,0,0,1020,351.794Z" transform="translate(-881.621 -320.258)" fill="#fff"/></g></g></g></svg>