<svg xmlns="http://www.w3.org/2000/svg" width="239" height="373" viewBox="0 0 239 373"><g transform="translate(-430 -2721)"><g transform="translate(0 -2496)"><rect width="239" height="373" transform="translate(430 5217)" fill="#cee284"/></g><circle cx="94" cy="94" r="94" transform="translate(452 2800)" fill="#adce32"/><g transform="translate(477 2825)"><path d="M1858.651,578.929l4.123,3.271a2.244,2.244,0,0,0,.733,3.162q5.155,3.985,10.254,8.04a2.276,2.276,0,0,0,2.948.129c1.653-1.067,3.321-2.113,5.015-3.113,6.983-4.123,14.145-7.867,22.033-9.976a25.228,25.228,0,0,1,14.039-.14.249.249,0,0,0,.358.087l.033.01a.627.627,0,0,0,.214.6,19.207,19.207,0,0,1,5.034,15.385,8.185,8.185,0,0,1-7.08,7.583c-2.737.273-5.445.839-8.169,1.243-3.87.575-7.745,1.116-11.615,1.682-3.958.579-7.907,1.225-11.873,1.74-3.13.406-6.218,1.132-9.387,1.228-.362-.256-.735-.5-1.084-.772q-10.725-8.409-21.446-16.824c-5.775-4.531-11.538-9.077-17.332-13.583-1.9-1.482-3.046-3.319-2.757-5.762a6.014,6.014,0,0,1,9.842-4.012c4.256,3.276,8.456,6.626,12.684,9.939C1856.671,579.981,1857.208,579.987,1858.651,578.929Z" transform="translate(-1815.606 -477.512)" fill="#f5cec0"/><path d="M1844.062,573.74c-1.444,1.059-1.98,1.053-3.435-.088-4.228-3.313-8.428-6.663-12.684-9.939a6.014,6.014,0,0,0-9.842,4.012c-.289,2.444.852,4.281,2.757,5.762,5.794,4.506,11.557,9.053,17.332,13.583q10.722,8.413,21.446,16.824c.349.274.722.516,1.084.772a5.5,5.5,0,0,0,4.62,1.264c11.185-1.632,22.359-3.34,33.551-4.928,5.657-.8,11.271-1.951,17.03-2,5.322-.045,10.642-.282,15.963-.451,2.738-.086,2.738-.1,2.777-2.811.024-1.644.493-2.191,2.149-2.5a2.175,2.175,0,0,1,1.9,2.5c-.038,1.388,0,2.778-.01,4.167-.011,1.88-.682,2.544-2.6,2.6q-10.678.3-21.357.594c-5.973.169-11.809,1.432-17.7,2.261-10.5,1.478-20.975,3.106-31.471,4.6a9.812,9.812,0,0,1-7.635-2.263c-6.545-5.147-13.123-10.252-19.641-15.433-2.872-2.283-6.246-3.635-9.433-5.324-7.339-3.891-14.739-7.667-22.1-11.51a10.058,10.058,0,0,1,3.168-19.059,9.479,9.479,0,0,1,5.242.782,14.369,14.369,0,0,1,2.149,1.091,4.3,4.3,0,0,0,4.088.489,9.235,9.235,0,0,1,8.862,1.667c4.354,3.371,8.656,6.81,13.009,10.182A2.294,2.294,0,0,1,1844.062,573.74Zm-26.3,2.9c-.074-.306-.062-.477-.142-.555-4.086-4.013-4.776-8.481-1.811-13.44.148-.247.293-.476-.04-.658-1.727-.94-3.427-1.975-5.536-1.6a6.128,6.128,0,0,0-5.09,5.029,6,6,0,0,0,3.182,6.271C1811.411,573.358,1814.532,574.953,1817.764,576.644Z" transform="translate(-1801.016 -472.324)" fill="#040303"/><path d="M1943.28,562.874a25.229,25.229,0,0,0-14.039.14c-7.888,2.109-15.05,5.853-22.032,9.976-1.694,1-3.362,2.047-5.015,3.113a2.277,2.277,0,0,1-2.948-.129q-5.106-4.046-10.254-8.04a2.245,2.245,0,0,1-.733-3.162c1.377-.973,2.019-.968,3.349.07,2.859,2.231,5.726,4.452,8.553,6.724a1.088,1.088,0,0,0,1.512.085,111.574,111.574,0,0,1,15.15-8.3c1-.445.7-.79.232-1.41-4.369-5.733-8.763-11.447-13.05-17.241a9.285,9.285,0,1,1,14.855-11.142c3.294,4.3,6.573,8.613,9.788,12.972a4.786,4.786,0,0,0,4.2,2.108c5.869.008,11.613.954,16.4,4.516a10.7,10.7,0,0,0,7.137,2.073c6.45-.107,12.9-.037,19.353-.033,2.475,0,3.025.545,3.025,2.969,0,4.974-.011,9.948.009,14.923a2.139,2.139,0,0,1-1.905,2.472c-1.641-.278-2.131-.829-2.135-2.5q-.015-6.378,0-12.756c0-.612.066-1.094-.853-1.088-6,.039-11.992.019-17.988.02-.408,0-.8-.06-.712.614a1.819,1.819,0,0,1-1.4,2.149,2.125,2.125,0,0,1-2.534-1.248,14.39,14.39,0,0,0-6.484-5.635,28.778,28.778,0,0,0-13.32-2.44l-1.978-.39a11.055,11.055,0,0,1-4.4-3.784q-4.663-6.3-9.443-12.51a5.1,5.1,0,0,0-7.629-.883c-2.294,1.969-2.566,4.821-.625,7.4,4.441,5.893,8.932,11.749,13.354,17.657a1.519,1.519,0,0,0,2.149.656c6.308-2.453,12.8-3.62,19.566-2.368.129.034.256.074.386.1,6.688,1.492,11.932,4.938,15.077,11.193a22.449,22.449,0,0,1,2.216,9.87,1.974,1.974,0,0,1-1.755,2.191,1.843,1.843,0,0,1-2.123-1.265,4.961,4.961,0,0,1-.157-1.46c-.437-8.175-5.105-14.231-12.422-16.108l-.033-.01Z" transform="translate(-1841.09 -460.086)" fill="#040303"/><path d="M1973.85,415.286c1.346-1.146,2-1.172,3.425-.136a25.122,25.122,0,0,1,9.614,26.268c-2.484,10.414-10.448,17.957-20.568,19.615-17.972,2.945-31.675-12.387-29.81-28.585a22.07,22.07,0,0,1,2.994-8.961c.635-1.052.406-1.584-.6-2.106-.1.371-.188.713-.277,1.055a6,6,0,0,1-6.457,4.494,5.914,5.914,0,0,1-5.4-5.843q-.068-7.391,0-14.783a5.875,5.875,0,0,1,5.723-5.8q7.388-.112,14.778,0a6.016,6.016,0,0,1,1.209,11.873c-.3.079-.6.173-.9.261.536,1.029,1.108,1.186,2.21.578a25.269,25.269,0,0,1,16.748-2.728c1.973.324,2.4.853,2.47,2.835a2.443,2.443,0,0,1-2.564,1.279,21.425,21.425,0,0,0-16.76,3.386,2.053,2.053,0,0,1-2.9-.3q-2.751-2.76-5.511-5.512a2.007,2.007,0,0,1-.637-2.3,2.037,2.037,0,0,1,2.116-1.33c1.344.011,2.688.02,4.031,0,1.48-.026,2.323-.79,2.308-2.04a1.98,1.98,0,0,0-2.228-1.978q-6.921-.032-13.841,0a1.988,1.988,0,0,0-2.233,2.248q-.03,6.922,0,13.845c0,1.461.675,2.229,1.895,2.28,1.264.052,2.078-.77,2.121-2.227.038-1.343.03-2.688,0-4.032a2.066,2.066,0,0,1,3.721-1.514c1.707,1.714,3.427,3.416,5.129,5.135,1.3,1.316,1.376,1.987.342,3.526a20.842,20.842,0,0,0-3.244,15.757,21.6,21.6,0,1,0,34.4-20.9C1973.47,417.318,1973.333,416.971,1973.85,415.286Z" transform="translate(-1859.008 -400.446)" fill="#020303"/><path d="M1858.949,474.464c2,.221,3.662-.059,5.308.233a6,6,0,0,1-.662,11.929,30.606,30.606,0,0,1-3.357.018c-.855-.046-1.194.176-1.147,1.1a17.021,17.021,0,0,1-.138,3.887,5.879,5.879,0,0,1-6.125,4.9,5.811,5.811,0,0,1-5.742-5.326,27.168,27.168,0,0,1-.058-3.491c.031-.808-.2-1.123-1.051-1.079a32.117,32.117,0,0,1-3.491-.018,6.009,6.009,0,0,1-.649-11.93c1.629-.285,3.279-.023,4.963-.28-7.5-2.411-12.919-7.085-15.936-14.4a23.234,23.234,0,0,1-.533-16.028c3.241-10.736,12.936-17.254,24.557-16.532,11.264.7,19.8,8.719,21.742,20.249C1878.362,458,1872.4,470.453,1858.949,474.464Zm-13.167,8.154h2.149c2.571,0,3.122.566,3.125,3.193,0,1.433-.014,2.867.005,4.3.021,1.57.674,2.364,1.925,2.395,1.29.031,2.051-.807,2.089-2.413.039-1.656,0-3.314.014-4.971.02-1.814.7-2.481,2.548-2.5s3.672-.011,5.508-.006a1.93,1.93,0,0,0,1.951-1.149,2,2,0,0,0-1.965-2.855c-1.788-.079-3.581-.017-5.372-.026-2.065-.01-2.652-.585-2.672-2.6-.007-.672,0-1.344,0-2.015,0-2.733.1-2.792,2.779-3.535,7.178-1.991,12.212-6.365,14.158-13.663,1.933-7.248.455-13.91-4.728-19.442A19.91,19.91,0,0,0,1845,433.013c-7.681,3.333-12.033,10.69-11.651,19.7a19.067,19.067,0,0,0,13.489,17.295c4.316,1.427,4.316,1.427,4.214,6-.042,1.92-.689,2.568-2.608,2.581-1.791.012-3.583-.032-5.373.016-1.5.041-2.278.824-2.239,2.1.038,1.236.776,1.872,2.26,1.908C1843.99,482.634,1844.885,482.617,1845.781,482.618Z" transform="translate(-1813.999 -412.881)" fill="#040303"/><path d="M1942.5,572.287a28.779,28.779,0,0,1,13.32,2.44,14.39,14.39,0,0,1,6.484,5.635,2.125,2.125,0,0,0,2.534,1.248,1.819,1.819,0,0,0,1.4-2.148c-.084-.674.3-.614.712-.614,6,0,11.992.019,17.988-.02.919-.006.854.476.853,1.088q-.014,6.378,0,12.756c0,1.667.494,2.218,2.135,2.5q.006,2.725.011,5.449c-1.656.313-2.126.859-2.15,2.5-.039,2.709-.038,2.725-2.776,2.811-5.321.169-10.641.406-15.963.451-5.758.048-11.372,1.2-17.03,2-11.192,1.588-22.366,3.3-33.551,4.928a5.5,5.5,0,0,1-4.62-1.264c3.169-.1,6.257-.822,9.387-1.228,3.966-.514,7.915-1.161,11.873-1.74,3.871-.566,7.745-1.107,11.615-1.682,2.725-.4,5.432-.971,8.17-1.243a8.185,8.185,0,0,0,7.08-7.583,19.207,19.207,0,0,0-5.034-15.385.627.627,0,0,1-.214-.6c7.317,1.876,11.985,7.933,12.422,16.108a4.954,4.954,0,0,0,.157,1.461,1.843,1.843,0,0,0,2.123,1.265,1.974,1.974,0,0,0,1.755-2.191,22.449,22.449,0,0,0-2.216-9.87c-3.145-6.255-8.389-9.7-15.077-11.193-.13-.029-.257-.069-.386-.1a1.657,1.657,0,0,0-.838-1.149,23.505,23.505,0,0,0-4.639-2.812C1946.218,573.351,1944.33,572.907,1942.5,572.287Z" transform="translate(-1852.134 -479.699)" fill="#f1b1a0"/><path d="M1977.316,418.76c-.517,1.685-.38,2.032,1.32,3.346a21.6,21.6,0,1,1-34.4,20.9,20.843,20.843,0,0,1,3.244-15.757c1.034-1.539.961-2.209-.342-3.526-1.7-1.719-3.422-3.421-5.129-5.135a2.066,2.066,0,0,0-3.721,1.514c.027,1.344.035,2.689,0,4.032-.042,1.456-.857,2.279-2.12,2.227-1.22-.051-1.89-.819-1.895-2.28q-.023-6.923,0-13.845a1.988,1.988,0,0,1,2.232-2.248q6.921-.033,13.841,0a1.981,1.981,0,0,1,2.228,1.978c.016,1.249-.828,2.014-2.308,2.04-1.344.024-2.688.014-4.032,0a2.037,2.037,0,0,0-2.116,1.33,2.007,2.007,0,0,0,.637,2.3q2.76,2.752,5.511,5.512a2.053,2.053,0,0,0,2.9.3,21.426,21.426,0,0,1,16.76-3.386,2.443,2.443,0,0,0,2.564-1.279C1974.273,417.007,1975.746,418,1977.316,418.76Zm-29.4,20.418c-.017,9.617,7.74,17.708,17.275,17.594,11.5-.138,17.685-8.468,17.749-17.449.072-10.063-7.537-17.641-17.67-17.662A17.516,17.516,0,0,0,1947.915,439.177Z" transform="translate(-1862.473 -403.919)" fill="#6997cf"/><path d="M1990.7,591.24l.358.087A.249.249,0,0,1,1990.7,591.24Z" transform="translate(-1888.509 -488.451)" fill="#f1b1a0"/><path d="M1821.226,580.1c-3.232-1.691-6.352-3.286-9.437-4.948a6,6,0,0,1-3.182-6.271,6.128,6.128,0,0,1,5.09-5.029c2.109-.379,3.81.656,5.536,1.6.333.182.188.411.04.658-2.964,4.959-2.275,9.427,1.811,13.44C1821.163,579.625,1821.151,579.8,1821.226,580.1Z" transform="translate(-1804.479 -475.782)" fill="#f0b09f"/><path d="M1947.028,557.264c1.834.621,3.722,1.064,5.519,1.812a23.5,23.5,0,0,1,4.639,2.812,1.657,1.657,0,0,1,.838,1.149c-6.768-1.252-13.258-.085-19.566,2.368a1.519,1.519,0,0,1-2.149-.656c-4.422-5.907-8.912-11.763-13.354-17.657-1.941-2.575-1.669-5.428.626-7.4a3.093,3.093,0,0,1,1.068.989c3.117,4.156,6.223,8.32,9.36,12.461,1.185,1.563,2.371,3.258,4.523,3.47s4.344.182,6.517.258Z" transform="translate(-1856.665 -464.677)" fill="#f4cdbf"/><path d="M1946.692,555.74c-2.173-.076-4.357-.046-6.517-.258s-3.339-1.906-4.523-3.47c-3.137-4.14-6.243-8.3-9.36-12.461a3.092,3.092,0,0,0-1.068-.989,5.1,5.1,0,0,1,7.629.883q4.768,6.22,9.443,12.51A11.053,11.053,0,0,0,1946.692,555.74Z" transform="translate(-1858.308 -463.542)" fill="#f1b1a0"/><path d="M1849.349,485.987c-.9,0-1.792.017-2.687,0-1.484-.036-2.221-.671-2.259-1.908-.039-1.28.742-2.063,2.239-2.1,1.79-.048,3.582,0,5.373-.016,1.919-.013,2.566-.661,2.608-2.581.1-4.572.1-4.572-4.214-6a19.067,19.067,0,0,1-13.489-17.295c-.382-9.007,3.969-16.364,11.651-19.7a19.91,19.91,0,0,1,22.291,4.313c5.182,5.531,6.661,12.194,4.728,19.442-1.946,7.3-6.981,11.672-14.158,13.663-2.677.743-2.778.8-2.779,3.535,0,.672-.005,1.344,0,2.015.02,2.02.607,2.594,2.672,2.6,1.791.009,3.585-.053,5.372.026a2,2,0,0,1,1.965,2.855,1.93,1.93,0,0,1-1.951,1.149c-1.836-.005-3.672-.012-5.508.006s-2.528.685-2.548,2.5c-.018,1.657.024,3.315-.014,4.971-.038,1.606-.8,2.444-2.089,2.413-1.251-.031-1.9-.825-1.925-2.395-.019-1.433,0-2.867-.005-4.3,0-2.627-.553-3.19-3.125-3.193Zm7.294-15.624a15.839,15.839,0,0,0,15.8-15.673,15.838,15.838,0,1,0-31.676.067A15.867,15.867,0,0,0,1856.643,470.363Z" transform="translate(-1817.567 -416.25)" fill="#d96864"/><path d="M1959.611,450.894a17.516,17.516,0,0,1,17.355-17.517c10.133.021,17.742,7.6,17.67,17.662-.064,8.981-6.251,17.311-17.749,17.449C1967.351,468.6,1959.594,460.511,1959.611,450.894Zm31.067.087a13.487,13.487,0,0,0-13.27-13.564,13.53,13.53,0,1,0-.1,27.059A13.525,13.525,0,0,0,1990.678,450.981Z" transform="translate(-1874.17 -415.636)" fill="#030304"/><path d="M1859.953,473.9a15.867,15.867,0,0,1-15.88-15.606,15.838,15.838,0,1,1,31.676-.067A15.839,15.839,0,0,1,1859.953,473.9Zm.1-27.594a11.851,11.851,0,0,0-11.94,11.512,11.8,11.8,0,1,0,23.6.277A11.819,11.819,0,0,0,1860.055,446.3Z" transform="translate(-1820.877 -419.784)" fill="#040303"/></g></g></svg>