<svg xmlns="http://www.w3.org/2000/svg" width="105" height="102" viewBox="0 0 105 102"><g transform="translate(-810 -2470)"><rect width="105" height="102" transform="translate(810 2470)" fill="#ffa686"/><g transform="translate(-320.075 1720.342)"><path d="M1214.249,800.658q0,12.676,0,25.352a6.127,6.127,0,0,1-4.555,6.109,6.683,6.683,0,0,1-1.766.216q-25.351,0-50.7,0a6.119,6.119,0,0,1-6.32-6.323q-.008-25.352,0-50.7a6.117,6.117,0,0,1,6.321-6.319q25.351-.007,50.7,0a6.115,6.115,0,0,1,6.32,6.321Q1214.258,787.982,1214.249,800.658Zm-5.115-29.479a4.237,4.237,0,0,0-1.452-.153h-45.834c-1.639,0-3.277-.021-4.915.007a4.059,4.059,0,0,0-3.976,3.885c-.036,1.083,0,2.169.008,3.254-.007.766.036,1.536-.035,2.3-.063.673.186.79.809.789q28.817-.025,57.634-.014a2.975,2.975,0,0,1,.383,0c.381.049.458-.14.456-.482-.013-1.936.018-3.873-.017-5.808A3.985,3.985,0,0,0,1209.133,771.179ZM1153.1,827.224a4.048,4.048,0,0,0,4.221,3.066h50.356c2.891,0,4.529-1.649,4.529-4.559q0-20.871,0-41.742a2.292,2.292,0,0,1,0-.319c.045-.312-.088-.392-.39-.388-1.574.02-3.148.02-4.721.027a1.831,1.831,0,0,0-.19-.019q-26.744,0-53.487-.015c-.489,0-.479.212-.479.563q.008,21.128,0,42.255A3.122,3.122,0,0,0,1153.1,827.224Z" transform="translate(0 0)"/><path d="M1159.031,868.776a3.117,3.117,0,0,1-.156-1.131q0-21.128,0-42.255c0-.351-.01-.563.479-.563q26.744.023,53.487.015a1.829,1.829,0,0,1,.19.019c0,1.989,0,3.979,0,5.968,0,.222.082.472-.131.656-.135-.133-.272-.264-.4-.4a12.968,12.968,0,0,0-11.695-4.039,13.276,13.276,0,1,0,4.941,26.072,13.7,13.7,0,0,0,7.159-4.27c.212.185.129.434.13.657.006,1.989,0,3.978,0,5.968a.891.891,0,0,1-.126.018q-12.737,0-25.474.008a1.142,1.142,0,0,1-.7-.247c-1.2-.846-2.4-1.68-3.6-2.526a1.053,1.053,0,0,0-1.35-.094,1.034,1.034,0,0,0-.349,1.253c.1.323.148.664.255.986.153.46.1.638-.472.635-5.6-.023-11.194-.014-16.791-.014-1.171,0-1.458.292-1.46,1.472q-.01,5.905-.02,11.81Zm15.1-41.889a13.281,13.281,0,1,0,13.347,13.454A13.293,13.293,0,0,0,1174.135,826.887Z" transform="translate(-5.932 -41.552)" fill="#f0f0f0"/><path d="M1213.357,831.5c.212-.184.13-.434.13-.656.006-1.989,0-3.978,0-5.968,1.574-.007,3.147-.007,4.721-.027.3,0,.435.077.39.388a2.291,2.291,0,0,0,0,.319q0,20.871,0,41.742c0,2.91-1.638,4.559-4.529,4.559h-50.356a4.048,4.048,0,0,1-4.221-3.066h3.912c.219.824.475,1.022,1.352,1.022q24.218,0,48.435,0c.965,0,1.318-.346,1.319-1.294q0-5.871,0-11.742c0-.812-.215-1.073-1.021-1.288,0-1.989,0-3.979,0-5.968,0-.223.082-.472-.13-.656.059-.086.114-.175.179-.256a13.16,13.16,0,0,0,2.783-10.862A13.691,13.691,0,0,0,1213.357,831.5Z" transform="translate(-6.395 -41.571)" fill="#e2e6f4"/><path d="M1158.9,784.1c-.005-1.085-.044-2.171-.009-3.254a4.059,4.059,0,0,1,3.976-3.885c1.638-.028,3.277-.007,4.915-.007h45.835a4.235,4.235,0,0,1,1.451.153,9.3,9.3,0,0,1-.129,2.534,3.581,3.581,0,0,0-2.091-.648q-9.028.015-18.055.008a3.96,3.96,0,0,0-.76.062,3.081,3.081,0,0,0-1.816,4.909c-.141.184-.344.134-.528.134q-3.179,0-6.358,0c-.184,0-.388.05-.529-.133a3.038,3.038,0,0,0,.229-3.423,3.2,3.2,0,0,0-3.067-1.562c-5.875.023-11.75.009-17.625.013a5,5,0,0,0-.952.062,3.079,3.079,0,0,0-1.822,4.909c-.16.2-.385.131-.586.133C1160.287,784.107,1159.594,784.1,1158.9,784.1Z" transform="translate(-5.936 -5.924)" fill="#516caf"/><path d="M1158.839,784.561c.693,0,1.386.008,2.079,0,.2,0,.427.067.586-.133a3.668,3.668,0,0,0,2.968,1.171q8.651-.045,17.3,0a3.636,3.636,0,0,0,2.967-1.17c.141.183.345.133.529.133q3.179,0,6.358,0c.185,0,.388.05.529-.134a3.223,3.223,0,0,0,2.39,1.156q9.245,0,18.491,0a2.8,2.8,0,0,0,1.87-.7c1.515-1.311,1.5-3.178-.028-4.786a9.308,9.308,0,0,0,.129-2.534,3.985,3.985,0,0,1,3.061,3.778c.034,1.935,0,3.872.017,5.808,0,.342-.075.531-.456.482a2.974,2.974,0,0,0-.383,0q-28.817,0-57.634.014c-.623,0-.872-.115-.809-.789C1158.875,786.1,1158.832,785.327,1158.839,784.561Z" transform="translate(-5.875 -6.387)" fill="#40588d"/><path d="M1224.864,935.708c.806.215,1.021.475,1.021,1.288q0,5.871,0,11.742c0,.949-.354,1.294-1.319,1.294q-24.218,0-48.435,0c-.877,0-1.133-.2-1.352-1.022q.01-5.905.02-11.81c0-1.18.29-1.472,1.46-1.472,5.6,0,11.194-.009,16.791.014.569,0,.625-.176.472-.635-.107-.322-.153-.663-.255-.986a1.034,1.034,0,0,1,.349-1.253,1.053,1.053,0,0,1,1.35.094c1.2.847,2.4,1.68,3.6,2.526a1.143,1.143,0,0,0,.7.247q12.737-.011,25.474-.008A.9.9,0,0,0,1224.864,935.708Zm-28.866.536a.179.179,0,0,0-.023-.041c-.005-.006-.019,0-.03,0l.061.035a19.116,19.116,0,0,0,.689,3.154c.221,1,.5,1.983.752,2.973a6.176,6.176,0,0,0,.81-1.622,1.216,1.216,0,0,1,1.394-.928c.449.029.9.005,1.354.005C1199.334,938.56,1197.729,937.311,1196,936.243Zm-19.134,9.7c-.007.489.019.981-.03,1.465s.128.592.6.592q22.905-.019,45.81,0c.531,0,.614-.176.61-.645-.021-2.552,0-5.1-.016-7.656,0-.629.282-1.488-.125-1.827-.426-.355-1.26-.1-1.915-.081-.127-.007-.254-.02-.382-.02q-9.538,0-19.075,0c-.108,0-.254-.078-.344.1.9.634,1.8,1.274,2.71,1.9.484.331.9.7.693,1.352s-.727.745-1.328.736c-1.212-.019-2.424,0-3.637-.008-.243,0-.436,0-.545.294-.475,1.27-.974,2.531-1.464,3.795-.27.523-.513,1.1-1.258,1.011-.593-.067-.83-.5-.962-1.018-.636-2.576-1.279-5.15-1.9-7.729-.088-.363-.253-.45-.607-.447-1.85.018-3.7.009-5.551.009q-5.359,0-10.719,0c-.264,0-.6-.137-.593.385C1176.86,940.754,1176.857,943.348,1176.864,945.943Z" transform="translate(-17.768 -121.786)" fill="#000101"/><path d="M1180.089,832.876a13.281,13.281,0,1,1-13.216,13.264A13.282,13.282,0,0,1,1180.089,832.876Zm-5.219,23.138a1.241,1.241,0,0,0,.2.157,11.273,11.273,0,0,0,12.874-1.914,11.1,11.1,0,0,0,3.426-7.4,10.121,10.121,0,0,0-1.354-5.988c-.1-.209-.187-.429-.307-.627a11.222,11.222,0,0,0-20.387,8.812A10.588,10.588,0,0,0,1174.869,856.014Z" transform="translate(-11.885 -47.54)" fill="#030202"/><path d="M1302.06,837.467a13.691,13.691,0,0,1,2.963,6.245,13.158,13.158,0,0,1-2.783,10.862c-.065.082-.119.171-.179.256a13.7,13.7,0,0,1-7.159,4.269,13.276,13.276,0,1,1-4.941-26.072,12.969,12.969,0,0,1,11.7,4.039C1301.789,837.2,1301.926,837.334,1302.06,837.467Zm-1.006,2.151a.783.783,0,0,0-.078-.172,10.882,10.882,0,0,0-11.079-4.315,11.207,11.207,0,0,0,2.2,22.226,10.132,10.132,0,0,0,5.19-1.316,11.146,11.146,0,0,0,5.776-11.673A9.528,9.528,0,0,0,1301.054,839.618Z" transform="translate(-95.098 -47.534)" fill="#030202"/><path d="M1190.747,789.9a3.637,3.637,0,0,1-2.967,1.17q-8.65-.043-17.3,0a3.668,3.668,0,0,1-2.968-1.171,3.079,3.079,0,0,1,1.822-4.909,5,5,0,0,1,.952-.062c5.875,0,11.75.01,17.625-.013a3.2,3.2,0,0,1,3.067,1.562A3.038,3.038,0,0,1,1190.747,789.9Zm-3.7-2.91c-1.719-.007-3.437-.019-5.156-.02q-5.857,0-11.715,0c-.829,0-1.123.25-1.239,1.02.117.769.413,1.021,1.242,1.021q8.954,0,17.907,0a2.636,2.636,0,0,0,.318-.007,1.024,1.024,0,0,0,.938-1.026,1,1,0,0,0-.959-1C1187.939,786.954,1187.492,786.986,1187.046,786.992Z" transform="translate(-11.88 -11.856)"/><path d="M1309.992,785.584c1.531,1.609,1.543,3.476.028,4.786a2.8,2.8,0,0,1-1.87.7q-9.245.01-18.49,0a3.224,3.224,0,0,1-2.39-1.156,3.081,3.081,0,0,1,1.816-4.909,3.962,3.962,0,0,1,.76-.062q9.027-.005,18.055-.008A3.582,3.582,0,0,1,1309.992,785.584Zm-3.187,1.422c-1.718-.007-3.437-.019-5.155-.02q-5.858,0-11.715,0c-.83,0-1.123.25-1.24,1.02.117.769.413,1.021,1.241,1.021q8.954,0,17.907,0a2.625,2.625,0,0,0,.318-.007A1.024,1.024,0,0,0,1309.1,788a1,1,0,0,0-.959-1C1307.7,786.969,1307.251,787,1306.806,787.006Z" transform="translate(-100.987 -11.871)"/><path d="M1267.159,960.765c.49-1.264.99-2.525,1.464-3.795.109-.292.3-.3.545-.294,1.212.005,2.425-.011,3.636.008.6.009,1.126-.092,1.328-.736s-.209-1.021-.693-1.352c-.909-.622-1.806-1.262-2.71-1.9.09-.182.236-.1.344-.1q9.538-.007,19.075,0c.127,0,.255.013.382.02q0,2.487,0,4.974a3.086,3.086,0,0,1-3.162,3.179Q1277.265,960.767,1267.159,960.765Z" transform="translate(-86.503 -136.606)" fill="#7e9fcf"/><path d="M1182.838,960.762c-.007-2.594,0-5.189-.03-7.783-.005-.523.329-.385.593-.385q5.359-.007,10.719,0c1.85,0,3.7.01,5.551-.009.354,0,.52.083.607.447.621,2.579,1.264,5.153,1.9,7.729Z" transform="translate(-23.742 -136.605)" fill="#7e9fcf"/><path d="M1182.813,960.55l19.34,0c.133.518.369.951.962,1.018.745.084.988-.488,1.258-1.012q10.106,0,20.213,0a3.086,3.086,0,0,0,3.162-3.179q0-2.487,0-4.974c.656-.021,1.489-.274,1.915.081.407.339.121,1.2.125,1.827.015,2.552,0,5.1.016,7.656,0,.47-.079.646-.61.645q-22.905-.025-45.81,0c-.469,0-.647-.1-.6-.591S1182.806,961.039,1182.813,960.55Z" transform="translate(-23.717 -136.393)" fill="#6686c4"/><path d="M1257.68,946.627c1.731,1.068,3.337,2.317,5.007,3.572-.451,0-.9.024-1.354-.005a1.216,1.216,0,0,0-1.394.929,6.18,6.18,0,0,1-.81,1.622c-.253-.99-.531-1.975-.752-2.973a19.118,19.118,0,0,1-.689-3.154Z" transform="translate(-79.45 -132.17)" fill="#40588d"/><path d="M1257.536,946.517l-.061-.035c.01,0,.024,0,.03,0a.184.184,0,0,1,.023.041Z" transform="translate(-79.298 -132.069)" fill="#40588d"/><path d="M1180.847,861.917a10.588,10.588,0,0,1-5.55-6.96,11.222,11.222,0,0,1,20.387-8.812c.121.2.206.417.307.627a3.983,3.983,0,0,0,.044.437,12.627,12.627,0,0,1,.13,4.969,12.341,12.341,0,0,1-11.482,10.1A18.6,18.6,0,0,1,1180.847,861.917Zm3.233-1.685a1.207,1.207,0,0,0,.885-.44q4.96-4.963,9.92-9.925a1.061,1.061,0,0,0-.013-1.76c-.866-.878-1.741-1.747-2.615-2.617-.805-.8-1.227-.8-2.033,0q-2.776,2.773-5.548,5.547c-.586.586-.586.586-1.194-.022-.541-.541-1.075-1.09-1.627-1.62a1.03,1.03,0,0,0-1.667.005q-1.434,1.407-2.841,2.842a1.025,1.025,0,0,0-.006,1.665q2.944,2.965,5.905,5.912A1.17,1.17,0,0,0,1184.08,860.232Z" transform="translate(-17.863 -53.444)" fill="#65973e"/><path d="M1198.116,879.252a18.606,18.606,0,0,0,3.836.361,12.341,12.341,0,0,0,11.482-10.1,12.627,12.627,0,0,0-.13-4.969,3.984,3.984,0,0,1-.044-.437,10.117,10.117,0,0,1,1.354,5.987,11.1,11.1,0,0,1-3.426,7.4,11.273,11.273,0,0,1-12.874,1.914A1.254,1.254,0,0,1,1198.116,879.252Z" transform="translate(-35.132 -70.778)" fill="#5a8737"/><path d="M1298.008,863.329a11.207,11.207,0,0,1-2.2-22.226,10.882,10.882,0,0,1,11.079,4.315.775.775,0,0,1,.078.173,1.24,1.24,0,0,0,.126.677,11.989,11.989,0,0,1,.868,6.831,12.293,12.293,0,0,1-9.619,10C1298.184,863.133,1298.043,863.142,1298.008,863.329Zm8.049-15.264a1.238,1.238,0,0,0-.469-.937c-.905-.9-1.8-1.807-2.709-2.7a1.075,1.075,0,0,0-1.8,0c-.937.927-1.88,1.85-2.791,2.8-.315.33-.5.306-.8-.01-.9-.937-1.825-1.844-2.746-2.758-.7-.691-1.168-.7-1.849-.021q-1.359,1.347-2.707,2.707c-.649.657-.644,1.136.016,1.8.913.922,1.819,1.851,2.758,2.746.334.318.382.505.018.849-.959.9-1.878,1.851-2.8,2.789a1.056,1.056,0,0,0,0,1.758q1.345,1.362,2.707,2.707c.692.687,1.162.691,1.849.01.937-.928,1.879-1.851,2.791-2.8.3-.31.469-.291.756.006.9.934,1.827,1.842,2.747,2.757.726.722,1.184.73,1.9.026q1.337-1.325,2.662-2.662c.677-.684.672-1.159-.015-1.852-.913-.921-1.822-1.848-2.757-2.746-.311-.3-.352-.481-.016-.8.954-.909,1.871-1.858,2.806-2.788A1.275,1.275,0,0,0,1306.057,848.065Z" transform="translate(-101.007 -53.505)" fill="#c0493b"/><path d="M1331.02,876.984c.035-.187.176-.2.33-.228a12.293,12.293,0,0,0,9.619-10,11.991,11.991,0,0,0-.868-6.832,1.238,1.238,0,0,1-.126-.677,9.525,9.525,0,0,1,2.011,4.75,11.146,11.146,0,0,1-5.776,11.673A10.131,10.131,0,0,1,1331.02,876.984Z" transform="translate(-134.019 -67.161)" fill="#a3392f"/><path d="M1193.067,792.962c.446-.005.893-.037,1.336-.01a1,1,0,0,1,.959,1,1.024,1.024,0,0,1-.937,1.026,2.634,2.634,0,0,1-.318.007q-8.953,0-17.907,0c-.828,0-1.125-.252-1.241-1.021,5.777,0,11.554-.013,17.33.018.679,0,.88-.21.781-.828A1.292,1.292,0,0,1,1193.067,792.962Z" transform="translate(-17.9 -17.827)" fill="#e2e6f4"/><path d="M1193.067,792.958a1.292,1.292,0,0,0,0,.191c.1.618-.1.831-.781.828-5.777-.031-11.554-.018-17.33-.018.116-.77.41-1.019,1.239-1.02q5.857,0,11.715,0C1189.63,792.939,1191.348,792.951,1193.067,792.958Z" transform="translate(-17.9 -17.823)" fill="#f0f0f0"/><path d="M1312.826,792.962c.446-.005.893-.037,1.336-.01a1,1,0,0,1,.959,1,1.024,1.024,0,0,1-.937,1.026,2.637,2.637,0,0,1-.318.007q-8.953,0-17.907,0c-.828,0-1.125-.252-1.242-1.021,5.777,0,11.554-.013,17.331.018.678,0,.88-.21.781-.828A1.276,1.276,0,0,1,1312.826,792.962Z" transform="translate(-107.007 -17.827)" fill="#e2e6f4"/><path d="M1312.826,792.958a1.276,1.276,0,0,0,0,.191c.1.618-.1.831-.781.828-5.777-.031-11.554-.018-17.331-.018.116-.77.41-1.019,1.24-1.02q5.857,0,11.715,0C1309.389,792.939,1311.107,792.951,1312.826,792.958Z" transform="translate(-107.007 -17.823)" fill="#f0f0f0"/><path d="M1189.926,872.089a1.17,1.17,0,0,1-.833-.41q-2.952-2.956-5.905-5.912a1.025,1.025,0,0,1,.006-1.665q1.408-1.434,2.841-2.842a1.03,1.03,0,0,1,1.667-.005c.551.531,1.085,1.079,1.627,1.62.608.608.608.608,1.194.022q2.774-2.773,5.548-5.547c.806-.8,1.228-.806,2.033,0,.873.87,1.749,1.739,2.615,2.617a1.061,1.061,0,0,1,.013,1.76q-4.955,4.967-9.92,9.925A1.207,1.207,0,0,1,1189.926,872.089Zm8.7-11.181c.006-.191-.126-.252-.21-.339-.31-.321-.653-.615-.938-.957s-.481-.311-.791,0c-1.9,1.926-3.814,3.831-5.727,5.742-.83.829-1.232.824-2.076-.02-.572-.572-1.155-1.133-1.711-1.721-.227-.24-.374-.272-.6-.008a8.92,8.92,0,0,1-.993.992c-.331.275-.239.439.024.7q2,1.968,3.973,3.973c.257.262.4.33.7.027q4.043-4.084,8.118-8.137C1198.481,861.072,1198.564,860.979,1198.63,860.908Z" transform="translate(-23.709 -65.301)" fill="#030403"/><path d="M1314.9,856.9a1.276,1.276,0,0,1-.469.873c-.934.93-1.852,1.879-2.806,2.788-.336.32-.295.5.016.8.936.9,1.844,1.825,2.758,2.746.687.693.691,1.168.015,1.852q-1.324,1.338-2.662,2.662c-.711.7-1.169.7-1.9-.026-.92-.915-1.847-1.823-2.747-2.757-.286-.3-.459-.315-.756-.006-.912.952-1.854,1.875-2.791,2.8-.687.681-1.157.677-1.849-.01q-1.359-1.348-2.707-2.707a1.057,1.057,0,0,1,0-1.758c.927-.938,1.846-1.885,2.8-2.789.364-.344.316-.531-.018-.849-.938-.9-1.845-1.824-2.758-2.746-.66-.667-.666-1.146-.016-1.8q1.345-1.361,2.707-2.707c.681-.675,1.153-.67,1.849.021.921.913,1.849,1.821,2.746,2.758.3.317.487.341.8.01.911-.953,1.854-1.876,2.791-2.8a1.075,1.075,0,0,1,1.8,0c.908.9,1.8,1.8,2.709,2.7A1.239,1.239,0,0,1,1314.9,856.9Zm-2.535-.081c-.07-.075-.153-.168-.24-.256-.33-.332-.679-.646-.986-1-.243-.279-.4-.255-.649,0-.963.992-1.943,1.966-2.93,2.934a1.029,1.029,0,0,1-1.663,0c-.685-.668-1.354-1.353-2.034-2.026-.391-.388-.773-1.046-1.193-1.075-.488-.033-.8.723-1.254,1.065-.416.317-.3.526.025.833.907.866,1.783,1.766,2.668,2.654.78.782.784,1.218.02,1.986-.915.919-1.825,1.844-2.756,2.746-.266.257-.352.423-.022.7a7.326,7.326,0,0,1,.947.945c.262.313.427.275.7,0,.915-.949,1.856-1.872,2.791-2.8.717-.714,1.17-.714,1.892,0,.95.944,1.9,1.885,2.837,2.846.236.242.381.253.6,0a7.929,7.929,0,0,1,.9-.9c.357-.294.388-.492.021-.836-.916-.856-1.784-1.764-2.671-2.651-.815-.815-.819-1.228-.021-2.028q1.374-1.377,2.749-2.754C1312.2,857.093,1312.351,857.021,1312.37,856.815Z" transform="translate(-109.854 -62.337)" fill="#040303"/><path d="M1206.2,868.522c-.067.071-.15.164-.238.252q-4.063,4.065-8.119,8.137c-.3.3-.44.235-.7-.027q-1.968-2-3.973-3.973c-.262-.257-.355-.421-.024-.7a8.925,8.925,0,0,0,.993-.992c.231-.264.378-.232.6.008.555.588,1.139,1.149,1.711,1.72.844.844,1.247.849,2.076.02,1.912-1.911,3.83-3.816,5.727-5.742.309-.315.5-.352.791,0s.628.635.938.957C1206.072,868.27,1206.2,868.331,1206.2,868.522Z" transform="translate(-31.277 -72.915)" fill="#f0f0f0"/><path d="M1319.926,864.371c-.019.206-.166.278-.266.379q-1.371,1.381-2.749,2.754c-.8.8-.794,1.212.021,2.028.887.888,1.755,1.795,2.671,2.651.367.343.336.541-.021.836a7.929,7.929,0,0,0-.9.9c-.223.254-.368.243-.6,0-.934-.96-1.887-1.9-2.838-2.846-.722-.717-1.175-.717-1.892,0-.935.93-1.876,1.853-2.791,2.8-.27.28-.434.318-.7,0a7.321,7.321,0,0,0-.946-.945c-.33-.273-.244-.439.021-.7.932-.9,1.841-1.827,2.757-2.746.765-.768.76-1.2-.02-1.986-.886-.888-1.761-1.788-2.668-2.654-.321-.306-.442-.516-.025-.833.449-.342.766-1.1,1.254-1.065.42.029.8.687,1.193,1.075.68.673,1.348,1.358,2.034,2.026a1.029,1.029,0,0,0,1.663,0c.987-.968,1.967-1.942,2.93-2.934.251-.258.406-.282.649,0,.307.352.656.666.986,1C1319.773,864.2,1319.856,864.3,1319.926,864.371Z" transform="translate(-117.41 -69.893)" fill="#f0f0f0"/></g></g></svg>