<svg xmlns="http://www.w3.org/2000/svg" width="240" height="373" viewBox="0 0 240 373"><g transform="translate(-680 -2721)"><g transform="translate(0 -2496)"><rect width="240" height="373" transform="translate(680 5217)" fill="#cee284"/></g><g transform="translate(254)"><circle cx="94" cy="94" r="94" transform="translate(452 2800)" fill="#adce32"/><g transform="translate(484.031 2832.052)"><path d="M1845.007,801.55a24.693,24.693,0,0,0,11.1-3.171c.911-.509,1.782-1.1,2.641-1.691a5.025,5.025,0,0,1,8.1,4.44,25.3,25.3,0,0,1-.642,4.483c4.911,0,9.705.018,14.5-.011,1.355-.009,3.124.588,3.95-.245.762-.767.2-2.527.2-3.848.017-6.288-.007-12.576.026-18.864,0-.839-.181-1.21-1.069-1.458a11.638,11.638,0,0,1-8.572-8.639c-.2-.718-.459-.947-1.2-.987a11.905,11.905,0,0,1-6.074-21.652,1.835,1.835,0,0,0,.956-1.815,9.543,9.543,0,0,1,5.137-9.168,10.7,10.7,0,0,0,4.039-4.038,9.939,9.939,0,0,1,17.492.007,10.1,10.1,0,0,0,3.943,3.968,9.564,9.564,0,0,1,5.027,6.732c.168.828.425.832,1.154.6a9.833,9.833,0,0,1,11.814,4.6,10.892,10.892,0,0,0,4.114,4.127,9.625,9.625,0,0,1,5.113,9.194,1.616,1.616,0,0,0,.779,1.666,11.919,11.919,0,0,1-5.721,21.762,1.324,1.324,0,0,0-1.438,1.157,11.61,11.61,0,0,1-8.578,8.483c-.736.2-1.047.429-1.015,1.256.075,1.972.08,3.952,0,5.923-.039.98.194,1.286,1.23,1.278,6.531-.051,13.064,0,19.6-.054,1.043-.009,1.219.293,1.217,1.262q-.049,22.733,0,45.467c0,.979-.19,1.253-1.221,1.252q-60.721-.046-121.443,0c-.946,0-1.277-.134-1.274-1.2q.068-18.925.006-37.849c0-.973.23-1.148,1.184-1.068a20.208,20.208,0,0,1,8.306,2.7,11.829,11.829,0,0,0,6.826,1.363c0-.492-.386-.768-.6-1.106a11.044,11.044,0,0,1,2.551-14.634c.725-.558.995-1.017.509-1.829a2.462,2.462,0,0,1-.3-.911c-.078-.572-.291-.816-.863-.5a1.2,1.2,0,0,1-.228.078c-3.049.927-3.145.861-3.833-2.338-.082-.38-.079-.612.318-.733.192-.058.379-.139.574-.182a5.681,5.681,0,0,0,4.641-3.971c1.947-5.143,8.335-7.185,13.309-4.772a9.986,9.986,0,0,1,4.515,13.473C1845.586,800.54,1845.322,800.982,1845.007,801.55Zm-19.6,28.737c-.051-.046-.13-.141-.147-.131-.135.08-.079.182-.009.279a46.366,46.366,0,0,1,4.247,10.223,1.413,1.413,0,0,0,2.382.7c3.773-3.2,8.21-4.065,12.992-3.71.831.062,1.916.556,2.41.2.513-.371.422-1.545.646-2.353.5-1.789,1.026-3.571,1.568-5.444a11.807,11.807,0,0,0-5.173,2.938c-1.13,1.093-2.259,2.189-3.332,3.337-.549.587-.766.416-1.065-.2-.962-1.987-1.964-3.955-3.021-6.069l-3.746,7.436c-.821-1.2-1.505-2.273-2.272-3.289A9.944,9.944,0,0,0,1825.408,830.287Zm30.651-4.65c-.379.776-.716,1.491-1.074,2.2a38.513,38.513,0,0,0-3.518,10.357,1.624,1.624,0,0,0,.886,2c2.93,1.875,4.836,4.445,4.43,8.106-.133,1.2.2,1.251,1.175,1.249q22.923-.038,45.846-.018,11.915,0,23.831.007c.688,0,1.2.058,1.2-.955q-.056-14.753-.007-29.507c0-.894-.286-.938-.973-.608a42.352,42.352,0,0,1-4.6,2.121,18.218,18.218,0,0,1-15.037-1.413,13.2,13.2,0,0,0-12.641-.092,26.379,26.379,0,0,1-3.287,1.508,17.531,17.531,0,0,1-13.729-.8,17.318,17.318,0,0,0-5.746-2.091,14.62,14.62,0,0,0-8.753,1.63,17.568,17.568,0,0,1-17.335.042,14.04,14.04,0,0,0-3.335-1.382,14.409,14.409,0,0,0-10.621,1.5,17.435,17.435,0,0,1-12.53,1.629,25.839,25.839,0,0,1-5.752-2.456c-1.545-.744-1.551-.735-1.551.914q0,4.051,0,8.1,0,10.34.008,20.679c0,.378-.19,1.046.225,1.082a32.654,32.654,0,0,0,3.853,0c.111,0,.25-.293.313-.472,1.3-3.654,4.024-5.716,7.6-6.813.645-.2.77-.425.567-1.1a40.76,40.76,0,0,0-6.938-13.3c-.5-.652-.987-1.32-1.557-2.084,5.811-.484,11.143.027,15.464,4.283l4.436-8.823,4.551,9.056C1845.6,826.238,1850.525,825.181,1856.059,825.637Zm54.759-53.739c.172,0,.264.029.32,0,1.354-.8,2.693-1.617,4.059-2.391.858-.486,1.769-1.588,2.562-1.284.753.289,1.1,1.588,1.676,2.4.411.58.255.859-.32,1.195-2.4,1.4-4.754,2.878-7.165,4.26a1.958,1.958,0,0,0-1.158,1.973c.063,4.676.024,9.353.035,14.029a1.882,1.882,0,0,0,.146,1.191c.277-.086.549-.148.8-.254a7.275,7.275,0,0,0,.979-.472,8.07,8.07,0,0,0,4.025-8.291c-.1-1.1.258-1.338,1.254-1.057a8.834,8.834,0,0,0,5.236.047,7.987,7.987,0,0,0,.4-15.05c-1.819-.743-1.819-.743-1.215-2.618a5.724,5.724,0,0,0-2.422-6.943,16.754,16.754,0,0,1-6.162-6.136,5.86,5.86,0,0,0-10.068.007,16.935,16.935,0,0,1-6.161,6.142,5.7,5.7,0,0,0-2.552,6.6c.2.73.887,1.52.591,2.136-.32.669-1.38.674-2.1,1a7.965,7.965,0,0,0,1.731,15.094c1.891.4,3.66-.213,5.655-.472-.6,4.882.844,8.577,5.895,10.35,0-3.422-.013-6.647.012-9.87a1.169,1.169,0,0,0-.706-1.129c-1.91-1.121-3.8-2.279-5.7-3.413-2.71-1.616-2.683-1.594-1.064-4.274.412-.683.7-.639,1.29-.271,1.636,1.029,3.3,2.008,4.972,2.984.326.191.663.658,1.044.4.342-.226.14-.744.146-1.13a25.524,25.524,0,0,1,.035-3.5c.531-3.383-.664-5.864-3.3-8.027-2.362-1.935-2.2-2.106.034-4.263.469-.454.742-.554,1.245-.033,1.793,1.855,3.625,3.673,5.469,5.478a1.592,1.592,0,0,1,.495,1.282C1910.8,769.024,1910.817,770.461,1910.817,771.9Zm-21.984-5.179c.709-.517,1.176-.9,1.687-1.216a.834.834,0,0,0,.411-.9c-.315-4.548,1.645-7.829,5.6-9.991a9.213,9.213,0,0,0,4.244-5.095,6.162,6.162,0,0,0-2.807-6.921,16.431,16.431,0,0,1-6.068-6.06,5.864,5.864,0,0,0-10.068-.038,16.7,16.7,0,0,1-6.155,6.141,5.739,5.739,0,0,0-2.578,6.592c.2.73.87,1.51.593,2.142-.3.7-1.363.695-2.082,1.02a7.968,7.968,0,0,0,1.824,15.115,11.281,11.281,0,0,0,4.657-.367c.647-.139.879-.046.823.648a19.523,19.523,0,0,0-.043,2.175c.109,3.493,2.859,6.82,6,7.233,0-3.27-.019-6.534.016-9.8.007-.627-.366-.824-.78-1.071q-2.955-1.766-5.906-3.537c-2.374-1.419-2.318-1.387-1.01-3.751.557-1.006,1-1,1.882-.423,1.839,1.2,3.757,2.275,5.8,3.495a34.884,34.884,0,0,1,.038-4.9c.505-3.387-.662-5.861-3.282-8.033-2.413-2-2.246-2.157.04-4.344.526-.5.8-.416,1.243.05a33.331,33.331,0,0,0,3.435,3.4,6.463,6.463,0,0,1,2.544,6.042C1888.666,758.369,1888.833,762.435,1888.833,766.719Zm-54.85,35.171c-1.526,1.05-2.924,1.933-4.235,2.929a7.077,7.077,0,0,0-.445,10.963,1.182,1.182,0,0,0,1.588.221,16.825,16.825,0,0,1,4.547-1.9,17.865,17.865,0,0,1,13.2,1.763,2.527,2.527,0,0,0,2.486.118,24.4,24.4,0,0,0,6.262-3.815,15.068,15.068,0,0,0,5.479-10.9c.035-.559.092-1.128-.523-1.49-.641-.378-1.072.028-1.523.35a30.411,30.411,0,0,1-8.16,4.092c-4.21,1.4-8.549,1.442-12.909,1.395-2.852-.031-2.819-.006-2.854-2.9-.01-.846.18-1.114,1.082-1.249a5.965,5.965,0,0,0-1.571-11.813,5.993,5.993,0,0,0-5.488,5.854A7.707,7.707,0,0,0,1833.983,801.89Zm23.184,15.4a6.7,6.7,0,0,0,3.5-.755,44.047,44.047,0,0,1,4.839-2.172,18.961,18.961,0,0,1,14.7,1.74,13.043,13.043,0,0,0,12.309.031,25.716,25.716,0,0,1,4.078-1.8,18.441,18.441,0,0,1,14.57,1.793,13.5,13.5,0,0,0,9.04,1.182c2.2-.351,4.008-1.635,6-2.488.837-.359,2.079-.3,2.455-1.041.394-.775.055-1.895.165-2.849.133-1.156-.339-1.381-1.415-1.378q-19.77.053-39.541.023h-22.249c-.515,0-.994-.065-1.335.536A21.375,21.375,0,0,1,1857.167,817.286Zm31.666-32.695c0,6.866.011,13.474-.015,20.081,0,.728.172.964.936.96q8.1-.05,16.2,0c.8.005.924-.294.911-.986-.037-2.014-.06-4.031.009-6.043.03-.875-.235-1.216-1.1-1.445a11,11,0,0,1-7.941-6.955c-.683-1.856-1.372-2.846-3.493-2.922C1892.317,787.209,1890.61,785.964,1888.833,784.591ZM1835.88,843.4a10.548,10.548,0,0,1,4.668,5.744c.151.486.555.378.9.379,3.341,0,6.682-.021,10.023.021a1.13,1.13,0,0,0,1.256-.985c.474-1.65-.21-3.331-2-4.667a14.359,14.359,0,0,0-14.844-.492Zm-14.405,6.011h14.943a8.573,8.573,0,0,0-8.161-3.827A7.885,7.885,0,0,0,1821.475,849.413Z" transform="translate(-1808.898 -729.67)" fill="#030303"/><path d="M1816.776,737.714c7.5,2.207,12.87-.1,16.422-6.761a9.067,9.067,0,0,1,1.781,2.155c3.249,4.551,7.574,6.269,13.054,5.07,1.87-.409,1.937-.37,1.547,1.424-1.3,5.972.729,10.486,5.87,13.682.341.212.67.445,1,.671.1.067.189.144.388.3-.866.641-1.7,1.26-2.536,1.874a11.542,11.542,0,0,0-4.828,12.37c.455,2.357.474,2.353-1.867,1.878a11.641,11.641,0,0,0-12.578,5.118l-1.522,2.244-1.935-2.582a11.585,11.585,0,0,0-12.286-4.791c-2.336.448-2.33.467-1.9-1.9.969-5.4-.809-9.643-5.386-12.7-.635-.424-1.267-.852-2.1-1.414C1816.366,750.618,1819.191,745.358,1816.776,737.714Zm16.637-.091c-.2.174-.347.3-.487.434a15.169,15.169,0,0,1-10.387,4.469c-.794.024-.893.384-.919,1.04a15.162,15.162,0,0,1-4.378,10.179c-.4.413-.541.638-.054,1.136a15.048,15.048,0,0,1,4.437,10.272c.027.719.237.951.975.972a14.812,14.812,0,0,1,10.186,4.333c.56.543.81.449,1.321-.035a15.014,15.014,0,0,1,9.974-4.277c.9-.036,1.13-.3,1.159-1.177a14.56,14.56,0,0,1,4.2-9.867c.665-.691.53-.989-.043-1.6a14.669,14.669,0,0,1-4.157-9.888c-.026-.858-.321-1.063-1.111-1.092a15.084,15.084,0,0,1-10.168-4.4C1833.792,737.965,1833.619,737.812,1833.414,737.622Z" transform="translate(-1809.413 -730.331)" fill="#030302"/><path d="M1860.31,918.985c-5.534-.457-10.461.6-14.6,4.547l-4.551-9.056-4.436,8.823c-4.321-4.257-9.653-4.768-15.464-4.283.57.765,1.053,1.433,1.557,2.084a40.762,40.762,0,0,1,6.938,13.3c.2.676.078.9-.567,1.1-3.576,1.1-6.3,3.16-7.6,6.813-.063.179-.2.469-.313.472a32.639,32.639,0,0,1-3.853,0c-.416-.036-.224-.7-.225-1.082q-.017-10.339-.008-20.68,0-4.05,0-8.1c0-1.649.006-1.659,1.551-.914a25.842,25.842,0,0,0,5.752,2.457,17.434,17.434,0,0,0,12.53-1.629,14.409,14.409,0,0,1,10.621-1.5,14.037,14.037,0,0,1,3.335,1.382,17.568,17.568,0,0,0,17.335-.042,14.62,14.62,0,0,1,8.753-1.63,17.318,17.318,0,0,1,5.746,2.091,17.531,17.531,0,0,0,13.729.8,26.36,26.36,0,0,0,3.287-1.508,13.194,13.194,0,0,1,12.641.092,18.219,18.219,0,0,0,15.037,1.413,42.375,42.375,0,0,0,4.6-2.121c.687-.329.975-.285.973.608q-.037,14.754.007,29.507c0,1.013-.507.956-1.2.955q-11.915-.016-23.831-.007-22.923,0-45.846.018c-.971,0-1.307-.053-1.175-1.249.406-3.661-1.5-6.23-4.43-8.106a1.624,1.624,0,0,1-.886-2,38.514,38.514,0,0,1,3.518-10.357C1859.594,920.476,1859.931,919.76,1860.31,918.985Zm44.133,19.923a16.918,16.918,0,0,0,6.3-1.415c3.919-1.673,6.21-5,8.592-8.258.307-.418-.013-.664-.218-.94-.844-1.129-1.675-2.268-2.547-3.376a15.483,15.483,0,0,0-18.911-4.483c-2.293,1.077-4.558,2.216-6.8,3.395-.787.414-1.231.394-1.714-.428-.774-1.316-1.691-2.548-2.521-3.832a1.266,1.266,0,0,0-1.15-.683,10.019,10.019,0,0,0-.7,20.026,2.01,2.01,0,0,0,2.146-1.076c.654-1.152,1.505-2.192,2.168-3.341.471-.815.862-1,1.764-.51,2.15,1.177,4.377,2.214,6.576,3.3A15.909,15.909,0,0,0,1904.443,938.907Z" transform="translate(-1813.149 -823.017)" fill="#83d2ee"/><path d="M1995.765,793.118c0-1.437-.016-2.874.008-4.31a1.593,1.593,0,0,0-.495-1.282c-1.844-1.805-3.676-3.623-5.469-5.478-.5-.521-.776-.421-1.245.033-2.231,2.157-2.4,2.328-.034,4.263,2.639,2.162,3.834,4.644,3.3,8.026a25.563,25.563,0,0,0-.035,3.5c-.006.386.2.9-.146,1.13-.381.253-.718-.214-1.044-.4-1.668-.977-3.336-1.955-4.972-2.984-.585-.368-.878-.412-1.29.271-1.619,2.68-1.646,2.658,1.064,4.274,1.9,1.134,3.79,2.292,5.7,3.413a1.169,1.169,0,0,1,.706,1.129c-.025,3.223-.012,6.448-.012,9.87-5.051-1.772-6.5-5.468-5.895-10.35-1.994.259-3.763.877-5.654.472a7.964,7.964,0,0,1-1.731-15.094c.722-.329,1.782-.334,2.1-1,.3-.616-.391-1.405-.591-2.135a5.7,5.7,0,0,1,2.552-6.6,16.934,16.934,0,0,0,6.161-6.142,5.86,5.86,0,0,1,10.068-.007,16.754,16.754,0,0,0,6.162,6.136,5.724,5.724,0,0,1,2.422,6.943c-.6,1.876-.6,1.876,1.215,2.618a7.987,7.987,0,0,1-.4,15.05,8.835,8.835,0,0,1-5.236-.047c-1-.281-1.357-.04-1.254,1.057a8.071,8.071,0,0,1-4.025,8.291,7.26,7.26,0,0,1-.979.472c-.254.106-.526.168-.8.254a1.881,1.881,0,0,1-.146-1.191c-.011-4.676.028-9.353-.035-14.029a1.958,1.958,0,0,1,1.158-1.973c2.411-1.382,4.765-2.859,7.165-4.26.575-.336.73-.615.32-1.195-.578-.816-.923-2.115-1.676-2.4-.793-.3-1.7.8-2.562,1.284-1.366.774-2.705,1.6-4.059,2.391C1996.029,793.147,1995.937,793.118,1995.765,793.118Z" transform="translate(-1893.846 -750.89)" fill="#a9ce74"/><path d="M1950.484,770.959c0-4.284-.167-8.35.061-12.393a6.463,6.463,0,0,0-2.544-6.042,33.312,33.312,0,0,1-3.435-3.4c-.445-.466-.717-.554-1.243-.05-2.286,2.186-2.453,2.344-.04,4.344,2.62,2.172,3.787,4.646,3.282,8.033a34.9,34.9,0,0,0-.038,4.9c-2.041-1.22-3.959-2.3-5.8-3.495-.886-.577-1.325-.583-1.882.423-1.309,2.364-1.364,2.331,1.01,3.751q2.954,1.766,5.906,3.537c.414.247.787.444.781,1.071-.035,3.263-.016,6.526-.016,9.8-3.143-.413-5.893-3.74-6-7.233a19.524,19.524,0,0,1,.043-2.175c.056-.693-.175-.787-.823-.648a11.28,11.28,0,0,1-4.657.367,7.968,7.968,0,0,1-1.824-15.115c.719-.325,1.778-.324,2.082-1.02.276-.632-.391-1.412-.593-2.142a5.739,5.739,0,0,1,2.578-6.592,16.7,16.7,0,0,0,6.155-6.141,5.863,5.863,0,0,1,10.068.038,16.433,16.433,0,0,0,6.068,6.06,6.162,6.162,0,0,1,2.807,6.921,9.213,9.213,0,0,1-4.243,5.095c-3.955,2.162-5.915,5.442-5.6,9.991a.834.834,0,0,1-.411.9C1951.66,770.056,1951.194,770.442,1950.484,770.959Z" transform="translate(-1870.549 -733.91)" fill="#b9d888"/><path d="M1853.129,865.625a7.707,7.707,0,0,1-3.063-6.38,5.993,5.993,0,0,1,5.489-5.854,5.965,5.965,0,0,1,1.571,11.813c-.9.135-1.092.4-1.082,1.249.036,2.9,0,2.871,2.854,2.9,4.36.047,8.7,0,12.909-1.395a30.416,30.416,0,0,0,8.16-4.092c.451-.321.882-.727,1.523-.35.614.362.558.931.523,1.49a15.066,15.066,0,0,1-5.479,10.9,24.4,24.4,0,0,1-6.262,3.815,2.527,2.527,0,0,1-2.486-.118,17.864,17.864,0,0,0-13.2-1.763,16.822,16.822,0,0,0-4.547,1.9,1.182,1.182,0,0,1-1.588-.221,7.077,7.077,0,0,1,.445-10.963C1850.205,867.558,1851.6,866.675,1853.129,865.625Zm.957-4.275a2.006,2.006,0,1,0-2.036-1.97A2.064,2.064,0,0,0,1854.085,861.35Z" transform="translate(-1828.044 -793.404)" fill="#e3e6e9"/><path d="M1908.462,902.17a21.376,21.376,0,0,0,7.111-7.179c.342-.6.82-.536,1.336-.536h22.249q19.771,0,39.541-.023c1.076,0,1.547.223,1.415,1.378-.109.955.229,2.074-.165,2.849-.376.739-1.618.682-2.455,1.041-1.989.853-3.8,2.137-6,2.488a13.5,13.5,0,0,1-9.04-1.183,18.441,18.441,0,0,0-14.57-1.793,25.7,25.7,0,0,0-4.078,1.8,13.043,13.043,0,0,1-12.309-.031,18.961,18.961,0,0,0-14.7-1.74,44.048,44.048,0,0,0-4.839,2.172A6.7,6.7,0,0,1,1908.462,902.17Z" transform="translate(-1860.193 -814.554)" fill="#c49b79"/><path d="M1842.787,936.961a9.943,9.943,0,0,1,5.481,3.917c.767,1.016,1.451,2.093,2.272,3.289l3.746-7.436c1.057,2.115,2.059,4.083,3.021,6.069.3.617.516.787,1.065.2,1.073-1.148,2.2-2.244,3.332-3.337a11.809,11.809,0,0,1,5.173-2.938c-.542,1.874-1.071,3.655-1.568,5.444-.224.808-.133,1.981-.646,2.353-.494.358-1.58-.136-2.41-.2-4.782-.354-9.219.507-12.992,3.71a1.413,1.413,0,0,1-2.382-.7,46.367,46.367,0,0,0-4.247-10.223A1.509,1.509,0,0,0,1842.787,936.961Z" transform="translate(-1826.277 -836.343)" fill="#b8d687"/><path d="M1864.553,962.319a14.359,14.359,0,0,1,14.843.492c1.793,1.336,2.477,3.017,2,4.667a1.13,1.13,0,0,1-1.257.985c-3.34-.042-6.682-.016-10.022-.021-.344,0-.748.107-.9-.379A10.548,10.548,0,0,0,1864.553,962.319Z" transform="translate(-1837.571 -848.586)" fill="#caced5"/><path d="M1834.84,972.57a7.885,7.885,0,0,1,6.782-3.827,8.573,8.573,0,0,1,8.161,3.827Z" transform="translate(-1822.263 -852.827)" fill="#a9b0ba"/><path d="M1842.552,937.219c-.07-.1-.125-.2.009-.279.017-.01.1.085.147.131A1.5,1.5,0,0,1,1842.552,937.219Z" transform="translate(-1826.199 -836.454)" fill="#b8d687"/><path d="M1840.834,744.71c.205.189.379.343.546.5a15.084,15.084,0,0,0,10.168,4.4c.79.029,1.085.234,1.111,1.092a14.67,14.67,0,0,0,4.157,9.888c.573.606.708.9.043,1.6a14.56,14.56,0,0,0-4.2,9.867c-.03.878-.262,1.141-1.159,1.177a15.014,15.014,0,0,0-9.974,4.276c-.511.484-.761.578-1.321.035a14.812,14.812,0,0,0-10.186-4.333c-.738-.021-.948-.253-.974-.972a15.05,15.05,0,0,0-4.437-10.272c-.487-.5-.341-.723.054-1.136a15.161,15.161,0,0,0,4.378-10.179c.026-.655.125-1.016.919-1.04a15.168,15.168,0,0,0,10.386-4.469C1840.487,745.008,1840.638,744.884,1840.834,744.71Zm-11.955,16.706a11.98,11.98,0,1,0,11.987-11.966A12,12,0,0,0,1828.878,761.416Z" transform="translate(-1816.833 -737.419)" fill="#f0c24d"/><path d="M1966.052,947.434a15.908,15.908,0,0,1-7.011-1.622c-2.2-1.086-4.426-2.123-6.576-3.3-.9-.494-1.293-.305-1.764.51-.663,1.148-1.514,2.188-2.168,3.341a2.01,2.01,0,0,1-2.146,1.076,10.019,10.019,0,0,1,.7-20.026,1.266,1.266,0,0,1,1.149.683c.831,1.284,1.747,2.516,2.521,3.832.483.822.927.842,1.714.428,2.241-1.179,4.507-2.318,6.8-3.395a15.483,15.483,0,0,1,18.911,4.483c.872,1.107,1.7,2.247,2.547,3.376.205.275.525.521.218.94-2.382,3.254-4.673,6.586-8.592,8.258A16.917,16.917,0,0,1,1966.052,947.434Zm-.307-4.028a11.85,11.85,0,0,0,10.141-5.535c.263-.376.157-.6-.062-.942a11.677,11.677,0,0,0-15.044-4.27c-2.461,1.184-4.884,2.447-7.342,3.636a1.13,1.13,0,0,0-.753,1.182,1.051,1.051,0,0,0,.727,1.073c2.526,1.232,5.024,2.523,7.55,3.756A10.756,10.756,0,0,0,1965.745,943.406Zm-17.05-5.927a3.1,3.1,0,0,0-.766-2.642,21.2,21.2,0,0,1-1.665-2.5c-.432-.794-.95-.812-1.672-.5a5.791,5.791,0,0,0-3.827,5.354,5.728,5.728,0,0,0,3.268,5.592c1.465.789,1.55.742,2.463-.624.513-.767.992-1.56,1.55-2.295A2.843,2.843,0,0,0,1948.7,937.479Z" transform="translate(-1874.759 -831.544)" fill="#030303"/><path d="M1860.448,865.556a2.006,2.006,0,1,1,1.961-2.044A2.069,2.069,0,0,1,1860.448,865.556Z" transform="translate(-1834.407 -797.611)" fill="#030303"/><path d="M1833.743,766.453a11.98,11.98,0,0,1,23.96-.074,11.98,11.98,0,1,1-23.96.074Zm19.935-.011a7.984,7.984,0,1,0-7.971,7.976A7.989,7.989,0,0,0,1853.678,766.442Z" transform="translate(-1821.698 -742.456)" fill="#030301"/><path d="M1982.694,947.71a10.757,10.757,0,0,1-4.783-1.1c-2.526-1.233-5.024-2.524-7.55-3.756a1.051,1.051,0,0,1-.727-1.073,1.13,1.13,0,0,1,.753-1.182c2.458-1.189,4.881-2.453,7.342-3.636a11.677,11.677,0,0,1,15.045,4.27c.219.337.324.566.062.942A11.85,11.85,0,0,1,1982.694,947.71Zm4.921-7.935a1.972,1.972,0,1,0-3.942-.075,2.012,2.012,0,0,0,1.936,2.04A1.989,1.989,0,0,0,1987.616,939.775Z" transform="translate(-1891.708 -835.848)" fill="#f2d47d"/><path d="M1952.97,941.978a2.842,2.842,0,0,1-.649,2.382c-.557.735-1.037,1.527-1.549,2.295-.913,1.367-1,1.414-2.463.624a5.728,5.728,0,0,1-3.268-5.592,5.791,5.791,0,0,1,3.827-5.354c.722-.312,1.24-.294,1.672.5a21.206,21.206,0,0,0,1.665,2.5A3.1,3.1,0,0,1,1952.97,941.978Z" transform="translate(-1879.034 -836.044)" fill="#f2d47d"/><path d="M1857.9,770.657a7.984,7.984,0,1,1-7.977-7.988A7.958,7.958,0,0,1,1857.9,770.657Z" transform="translate(-1825.915 -746.671)" fill="#f3d57e"/><path d="M2002.535,941.872a1.989,1.989,0,0,1-2.005,1.966,2,2,0,0,1,.075-4A1.983,1.983,0,0,1,2002.535,941.872Z" transform="translate(-1906.627 -837.945)" fill="#030302"/></g></g></g></svg>