<svg xmlns="http://www.w3.org/2000/svg" width="239" height="373" viewBox="0 0 239 373"><g transform="translate(-931 -2721)"><g transform="translate(0 -2496)"><rect width="239" height="373" transform="translate(931 5217)" fill="#cee284"/></g><g transform="translate(505)"><circle cx="94" cy="94" r="94" transform="translate(452 2800)" fill="#adce32"/><g transform="translate(476.286 2824.335)"><path d="M2349.6,943.459h-51.374c-.093-7.2-.2-14.409-.27-21.614a6.988,6.988,0,0,1,5.323-7.152c3.342-.983,6.708-1.886,10.036-2.912a1.365,1.365,0,0,1,1.923.751c3.9,6.684,14.314,6.447,17.3-.256a.886.886,0,0,1,1.262-.576c3.6,1.075,7.221,2.064,10.8,3.185a6.585,6.585,0,0,1,4.756,6.009C2349.5,928.414,2349.531,935.937,2349.6,943.459Z" transform="translate(-2254.12 -806.309)" fill="#e5576f"/><path d="M2345.942,898.757c-.072-7.522-.1-15.045-.238-22.566a6.586,6.586,0,0,0-4.756-6.009c-3.583-1.121-7.207-2.11-10.8-3.185a.886.886,0,0,0-1.262.576c-2.988,6.7-13.4,6.94-17.3.256a1.365,1.365,0,0,0-1.923-.751c-3.328,1.026-6.694,1.93-10.036,2.912a6.989,6.989,0,0,0-5.323,7.152c.066,7.2.177,14.409.27,21.614a2.235,2.235,0,0,1-3.5,1.772,2.487,2.487,0,0,1-.923-2.278q-.1-11.212-.238-22.424c.817-5.152,3.65-8.572,8.687-10.1,3.561-1.018,7.115-2.058,10.687-3.034.67-.183.885-.492.816-1.125a4.019,4.019,0,0,1,0-.815,8.5,8.5,0,0,0-2.315-7.327c-2.516-2.615-3.162-6.148-2.85-9.749a4.684,4.684,0,0,0-1.689-4.355,16.144,16.144,0,0,1-4.255-6.983c-.079-.445-.164-.89-.234-1.336-.993-6.316,1.334-13.6,9.242-16.342a26.741,26.741,0,0,1,7.192-1.3,34.108,34.108,0,0,1,14.352,2.483,4.388,4.388,0,0,0,5.178-1.107c1.318-1.335,2.6-1.169,3.785.332a17.294,17.294,0,0,1,2.856,5.367,19.18,19.18,0,0,1-.286,12.141,19.947,19.947,0,0,1-5.372,7.562,1.935,1.935,0,0,0-.712,1.652c.055.949-.015,1.9.019,2.855a13.824,13.824,0,0,1-4.266,10.506,2.46,2.46,0,0,0-.837,2.008c.073,1.4.054,2.811.006,4.214-.025.724.114,1.1.923,1.318,3.535.954,7.044,2.005,10.561,3.02a11.57,11.57,0,0,1,8.723,9.942q.106,10.677.213,21.355c0,.408.009.816.006,1.225-.012,1.587-.687,2.524-1.925,2.678C2347.193,901.066,2346.344,900.326,2345.942,898.757Zm-22.807-38.586c-2.988.993-5.836.405-8.69-1,0,.827-.024,1.414,0,2,.069,1.408-.343,2.908.748,4.133,1.235,2.305,3.285,3.3,6.123,2.978a4.689,4.689,0,0,0,4.117-3.932,22.184,22.184,0,0,0,.072-5.175Zm10.965-24.876a2.64,2.64,0,0,0,.358-.2,1.918,1.918,0,0,0,.284-.291,13.852,13.852,0,0,0,2.2-13.7c-.619-1.783-.668-1.761-2.353-1.024-.289.126-.595.216-.9.315-2.222.728-4.32.053-6.359-.69a29.026,29.026,0,0,0-14.132-1.777c-3.174.441-6.18,1.31-8.223,3.963-3.141,4.079-2.831,10.2,1.391,14.511.568.58.929.327,1.292-.2a21.688,21.688,0,0,0,2.124-3.631,2.353,2.353,0,0,1,1.845-1.442c.717-.128,1.283.354,1.891.644,4.992,2.381,9.92,3.477,14.795-.374,1.33-1.051,3.1-.569,4.206.816A12.962,12.962,0,0,1,2334.1,835.294Zm-3.487,7.995a18.092,18.092,0,0,0-.613-6.2c-.291-.98-.461-1.4-1.516-.67a10.32,10.32,0,0,1-4.534,1.7,19.441,19.441,0,0,1-9.969-1.4c-.986-.391-1.423-.19-1.9.672a13.7,13.7,0,0,1-2.369,3.132,1.022,1.022,0,0,0-.444.791c.079,1.9-.247,3.823.184,5.692.964,4.188,3.888,6.686,7.539,8.541a6.21,6.21,0,0,0,5.99-.037C2327.992,852.915,2331.279,849.238,2330.614,843.289Z" transform="translate(-2250.46 -761.607)" fill="#030303"/><path d="M2393.053,899.507a11.57,11.57,0,0,0-8.723-9.942c.572-1.092.15-2.268.282-3.4,1.814-.469,2.2-.949,2.211-2.845.024-3.127.01-6.255.055-9.382.043-2.983,1.423-4.885,4.12-5.681,2.775-.82,5.57-1.573,8.344-2.4.616-.183.954-.169,1.262.5,1.378,2.982,3.91,4.185,7.031,4.194,3.171.009,5.752-1.171,7.13-4.238.244-.544.5-.619,1.037-.455,2.943.89,5.913,1.694,8.842,2.623a5.137,5.137,0,0,1,3.725,4.986c.022,8.747-.018,17.494-.034,26.241C2416.575,899.491,2404.814,899.485,2393.053,899.507Z" transform="translate(-2293.394 -785.457)" fill="#77d8f9"/><path d="M2269.351,889.664c-5.036,1.526-7.87,4.945-8.687,10.1-11.682-.282-23.366-.106-35.051-.169-.006-8.694-.041-17.387,0-26.08a5.316,5.316,0,0,1,4.2-5.195c2.6-.757,5.224-1.454,7.816-2.246a1.154,1.154,0,0,1,1.619.571c3.477,5.524,11.889,5.242,14.578-.091.353-.7.78-.579,1.311-.424,2.516.732,5.037,1.449,7.546,2.2,3.08.925,4.442,2.759,4.448,5.989.005,3.034-.04,6.068-.037,9.1,0,1.861.431,2.377,2.233,2.836Z" transform="translate(-2221.215 -785.542)" fill="#f8da4b"/><path d="M2426.783,864.134c.017-8.746.056-17.493.034-26.24a5.137,5.137,0,0,0-3.725-4.986c-2.93-.93-5.9-1.733-8.842-2.623-.54-.164-.792-.088-1.036.455-1.378,3.067-3.959,4.247-7.13,4.238-3.121-.009-5.653-1.212-7.031-4.194-.308-.666-.646-.679-1.262-.5-2.775.823-5.57,1.576-8.345,2.4-2.7.8-4.077,2.7-4.12,5.681-.044,3.127-.03,6.255-.055,9.382-.014,1.9-.4,2.376-2.211,2.845-1.706-.54-2.139-1.081-2.14-2.813,0-3.217-.019-6.436.045-9.653a9.675,9.675,0,0,1,7.444-9.647,62.784,62.784,0,0,0,6.309-2.092c-1.5,0-2.992.016-4.487,0-1.64-.022-2.476-.757-2.467-2.395.035-6.66-.313-13.331.147-19.978.623-9,8.419-16.136,17.727-16.476a18.411,18.411,0,0,1,18.5,15.012,21.106,21.106,0,0,1,.287,3.515q0,8.769,0,17.539c0,2.092-.685,2.775-2.742,2.787-.725,0-1.45,0-2.175,0h-2.176l-.063.195c1.458.451,2.891,1.025,4.379,1.331,6.287,1.294,9.9,4.85,9.606,12.715-.281,7.422-.07,14.862-.075,22.295,0,.227,0,.453,0,.68-.029,1.548-.752,2.494-2,2.617C2428.006,866.336,2427.2,865.636,2426.783,864.134Zm-23.895-35.6c.562,1.625,1.917,2.353,3.86,2.076a2.778,2.778,0,0,0,2.763-2.912c.133-2.459.133-2.459-2.262-2.091a15.622,15.622,0,0,1-3.889-.312c-.377-.111-.753-.1-.706.454C2402.735,826.672,2402.422,827.634,2402.888,828.529Zm-5.27-6.514c-2.867-3.12-3.447-6.569-3.206-10.258.041-.631.025-1.269,0-1.9a8.09,8.09,0,0,1,2.568-6.337,11.446,11.446,0,0,0,2.919-4.035,1.855,1.855,0,0,1,1.973-1.157,2.02,2.02,0,0,1,1.945,1.445c.944,2.748,3.009,4.295,5.548,5.418a31.016,31.016,0,0,0,6.569,2.123,2.02,2.02,0,0,1,1.866,1.874c.173,4.356.433,8.757-2.788,12.361-.066.073-.021.245-.033.472,1.3,0,2.567-.069,3.823.021,1.062.076,1.281-.343,1.271-1.323-.046-4.757-.012-9.515-.023-14.273-.021-8.678-6.37-14.749-15.031-14.385-6.221.261-12.365,5.807-12.69,11.932-.3,5.694-.1,11.414-.137,17.123,0,.615.188.922.852.91C2394.442,822,2395.837,822.015,2397.618,822.015ZM2401.778,805a6.6,6.6,0,0,0-3.04,6.845c.095.759,0,1.54.027,2.309a7.354,7.354,0,0,0,14.324,2.115,14.533,14.533,0,0,0,.429-3.758c.075-1.02-.33-1.382-1.251-1.651C2408.329,809.7,2404.536,808.255,2401.778,805Z" transform="translate(-2291.842 -749.88)" fill="#030303"/><path d="M2265.674,848.861c-1.8-.459-2.231-.975-2.233-2.836,0-3.034.042-6.068.037-9.1-.005-3.23-1.368-5.064-4.448-5.989-2.51-.754-5.03-1.47-7.546-2.2-.531-.155-.958-.275-1.311.424-2.689,5.333-11.1,5.615-14.578.091a1.155,1.155,0,0,0-1.619-.571c-2.592.792-5.213,1.489-7.816,2.246a5.316,5.316,0,0,0-4.2,5.195c-.04,8.693-.005,17.387,0,26.08-.431,1.609-1.208,2.286-2.469,2.153s-1.929-1.046-1.929-2.654q0-12.65.02-25.3a9.716,9.716,0,0,1,7.317-9.624c2.738-.788,5.462-1.63,8.22-2.339.911-.234,1.058-.653,1.093-1.495.089-2.115-.125-3.926-1.777-5.639-2.135-2.212-2.678-5.187-2.425-8.234a3.958,3.958,0,0,0-1.319-3.448,12.259,12.259,0,0,1-3.9-10.05c.595-6.993,5.328-11.261,12.762-11.77a27.77,27.77,0,0,1,12.407,1.735c1.9.763,3.487.819,5.022-.823.957-1.025,2.318-.722,3.276.532a14.992,14.992,0,0,1,2.469,13.877,15.145,15.145,0,0,1-4.388,6.9,2.406,2.406,0,0,0-.915,2.113A12.633,12.633,0,0,1,2251.6,819c-.649.622-.3,1.468-.308,2.2-.048,2.913-.022,2.911,2.744,3.724,2.255.663,4.521,1.293,6.76,2.006a9.694,9.694,0,0,1,7.029,9.44c.049,3.264-.028,6.529-.02,9.794A2.424,2.424,0,0,1,2265.674,848.861Zm-26.6-22.352a4.357,4.357,0,0,0,5.36,2.171c2.043-.665,2.845-2.759,2.356-6.219l-2.825.831-.269.026-.537.052a11.878,11.878,0,0,1-4.673-1.018C2238.723,823.9,2238.1,825.3,2239.072,826.509Zm1.35-38.381a21.846,21.846,0,0,0-5.137.473c-7.136,1.512-7.523,9.672-3.838,13.632.469.5.79.7,1.18-.052.457-.883.972-1.736,1.45-2.609a2.1,2.1,0,0,1,2.34-1.23,8.534,8.534,0,0,1,1.727.775c3.776,1.674,7.519,2.429,11.12-.432a2.585,2.585,0,0,1,1.652-.5c1.674-.028,2.539,1.028,3.152,2.367.384.837.769.8,1.185.094a11.245,11.245,0,0,0,.98-10.277c-.13-.328-.2-.917-.807-.573-2.455,1.395-4.816.576-7.192-.254A20.132,20.132,0,0,0,2240.423,788.127Zm9.986,15.044a12.283,12.283,0,0,1-4.032,1.613,16.983,16.983,0,0,1-8.392-.977c-.369-.123-.8-.621-1.185-.027-1.156,1.8-3.088,3.273-2.451,5.833a3.813,3.813,0,0,1,.009.812c.083,3.734,4.156,8.147,7.883,8.521a3.162,3.162,0,0,0,1.211-.05c3.626-1.119,6.547-3.244,7.4-7.023A15.922,15.922,0,0,0,2250.408,803.171Z" transform="translate(-2217.564 -748.147)" fill="#030303"/><path d="M2301.155,774.572c-1.757-.54-2.188-1.127-2.149-2.925a9.747,9.747,0,0,1,5.294-8.992c.735-.4.748-.884.748-1.531-.008-7.7-.034-15.408,0-23.111a19.256,19.256,0,1,1,38.508-.468c.088,7.839.03,15.679,0,23.519a1.764,1.764,0,0,0,1.074,1.885,8.994,8.994,0,0,1,4.3,5.056c.654,1.754.221,2.693-1.521,3.411a2.384,2.384,0,0,1-2.539-1.8,5.376,5.376,0,0,0-3.974-3.548c-2.622-.7-5.242-1.408-7.83-2.221-.935-.293-1.306-.054-1.781.751-2.991,5.076-11.215,4.984-14.085-.161a1.132,1.132,0,0,0-1.582-.664c-2.474.721-4.963,1.391-7.45,2.071-3.31.905-4.671,2.595-4.813,6C2303.284,773.642,2302.928,774.083,2301.155,774.572Zm25.028-16.268a13.234,13.234,0,0,1-4.82-.272c-.415-.113-.858-.2-.817.461.077,1.237-.279,2.523.4,3.694a3.907,3.907,0,0,0,4.556,1.63,3.184,3.184,0,0,0,2.56-3.349C2328.16,757.868,2328.16,757.868,2326.184,758.3Zm-16.664-10.432h-.021q0,5.712,0,11.423c0,1.582.041,1.613,1.628,1.191,1.355-.36,2.7-.754,4.055-1.125.345-.094.714-.106.9-.506a6.481,6.481,0,0,0-.661-4.228,12.773,12.773,0,0,1-3.206-6.476,41.588,41.588,0,0,1-.177-5.83c-.042-2.12.462-2.6,2.542-3.159,5.1-1.368,10.25-2.638,12.572-8.328a1.984,1.984,0,0,1,3.546.092,17.546,17.546,0,0,0,3.639,4.855,7.862,7.862,0,0,1,2.185,5.276c.052,1.766.008,3.535.019,5.3a10.362,10.362,0,0,1-2.753,7.469c-1.325,1.372-1.4,2.795-1.373,4.424a1,1,0,0,0,.874,1.136c1.491.37,2.987.754,4.436,1.259,1.156.4,1.543.269,1.531-1.095-.065-7.162-.033-14.324-.03-21.486a14.968,14.968,0,0,0-17.281-15,14.764,14.764,0,0,0-12.411,13.929C2309.456,740.618,2309.52,744.245,2309.52,747.871Zm22.6-3.681c.728-3.034-.444-5.333-2.651-7.269-.376-.33-.543-.473-.919-.026-2.5,2.964-5.947,4.335-9.468,5.557-2.751.955-2.761.928-2.687,3.8a7.914,7.914,0,0,0,15.651,1.566A14.014,14.014,0,0,0,2332.117,744.19Z" transform="translate(-2254.595 -718.491)" fill="#030303"/><path d="M2302.949,812.248c1.773-.489,2.129-.93,2.2-2.73.142-3.4,1.5-5.092,4.813-6,2.486-.68,4.976-1.35,7.45-2.071a1.132,1.132,0,0,1,1.582.664c2.87,5.145,11.094,5.237,14.085.161.475-.805.846-1.044,1.781-.751,2.587.813,5.208,1.522,7.83,2.22a5.376,5.376,0,0,1,3.974,3.548,2.384,2.384,0,0,0,2.54,1.8q-.023,7.922-.045,15.843c-.006,2.6.139,2.12-2.157,2.207A19.181,19.181,0,0,0,2347.29,815a17.3,17.3,0,0,0-2.855-5.367c-1.188-1.5-2.468-1.667-3.786-.332a4.388,4.388,0,0,1-5.178,1.107,34.106,34.106,0,0,0-14.352-2.483,26.74,26.74,0,0,0-7.193,1.3c-7.908,2.738-10.236,10.026-9.242,16.342.07.447.155.891.234,1.336-1.962.069-1.959.069-1.96-1.9Q2302.955,818.625,2302.949,812.248Z" transform="translate(-2256.389 -756.167)" fill="#62d5ac"/><path d="M2344.918,838.942a12.965,12.965,0,0,0-1.572-3.075c-1.1-1.386-2.876-1.867-4.207-.816-4.875,3.851-9.8,2.754-14.795.373-.608-.29-1.174-.772-1.891-.644a2.352,2.352,0,0,0-1.844,1.442,21.685,21.685,0,0,1-2.124,3.631c-.363.523-.725.776-1.293.2-4.222-4.312-4.532-10.432-1.391-14.511,2.043-2.652,5.049-3.522,8.223-3.963a29.029,29.029,0,0,1,14.132,1.777c2.039.743,4.136,1.418,6.358.69.3-.1.607-.188.9-.315,1.684-.737,1.733-.758,2.353,1.025a13.852,13.852,0,0,1-2.2,13.7,1.932,1.932,0,0,1-.284.291A2.637,2.637,0,0,1,2344.918,838.942Z" transform="translate(-2261.278 -765.254)" fill="#55575c"/><path d="M2346.718,862.253c.666,5.949-2.621,9.626-7.634,12.223a6.21,6.21,0,0,1-5.99.036c-3.65-1.855-6.574-4.353-7.539-8.541-.431-1.869-.105-3.794-.184-5.692a1.021,1.021,0,0,1,.444-.791,13.7,13.7,0,0,0,2.369-3.132c.478-.862.916-1.063,1.9-.672a19.441,19.441,0,0,0,9.969,1.4,10.321,10.321,0,0,0,4.534-1.7c1.055-.734,1.225-.31,1.516.67A18.08,18.08,0,0,1,2346.718,862.253Z" transform="translate(-2266.565 -780.57)" fill="#f3d1c4"/><path d="M2344.224,898.415l2.374-1a22.184,22.184,0,0,1-.071,5.175,4.689,4.689,0,0,1-4.116,3.932c-2.838.324-4.888-.673-6.124-2.978,1.72-2.395,4.35-3.346,6.939-4.36C2343.637,899.026,2344.122,898.972,2344.224,898.415Z" transform="translate(-2271.548 -799.851)" fill="#f3d1c4"/><path d="M2343.582,898.413c-.1.557-.586.611-1,.773-2.589,1.014-5.218,1.965-6.938,4.36-1.091-1.225-.679-2.724-.748-4.133-.029-.585-.005-1.171-.005-2C2337.746,898.819,2340.594,899.406,2343.582,898.413Z" transform="translate(-2270.907 -799.85)" fill="#ebc0af"/><path d="M2407,825.784c-1.781,0-3.176-.017-4.571.008-.664.012-.856-.3-.852-.91.035-5.709-.166-11.429.136-17.123.325-6.125,6.469-11.671,12.69-11.932,8.662-.364,15.011,5.706,15.031,14.385.011,4.758-.023,9.516.023,14.273.01.98-.21,1.4-1.271,1.323-1.256-.09-2.523-.021-3.823-.021.012-.227-.032-.4.033-.472,3.221-3.6,2.96-8,2.788-12.361a2.02,2.02,0,0,0-1.866-1.874,31.039,31.039,0,0,1-6.569-2.123c-2.538-1.123-4.6-2.67-5.548-5.418a2.02,2.02,0,0,0-1.945-1.444,1.855,1.855,0,0,0-1.973,1.157,11.444,11.444,0,0,1-2.919,4.035,8.09,8.09,0,0,0-2.568,6.337c.022.634.038,1.271,0,1.9C2403.549,819.215,2404.13,822.665,2407,825.784Z" transform="translate(-2301.219 -753.65)" fill="#54565b"/><path d="M2416.575,819.567c2.759,3.259,6.551,4.708,10.489,5.859.921.269,1.327.631,1.251,1.651a14.577,14.577,0,0,1-.429,3.758,7.354,7.354,0,0,1-14.324-2.115c-.025-.769.068-1.55-.027-2.309A6.6,6.6,0,0,1,2416.575,819.567Z" transform="translate(-2306.64 -764.451)" fill="#f3d1c4"/><path d="M2425.571,857.209c2.4-.369,2.4-.369,2.262,2.091a2.779,2.779,0,0,1-2.764,2.912c-1.943.276-3.3-.452-3.86-2.076a9.953,9.953,0,0,1,3.5-2.18C2425.068,857.85,2425.5,857.708,2425.571,857.209Z" transform="translate(-2310.164 -781.487)" fill="#f0cfc1"/><path d="M2425.352,857.05c-.069.5-.5.64-.863.747a9.95,9.95,0,0,0-3.5,2.18c-.467-.9-.154-1.857-.233-2.785-.048-.558.329-.564.706-.454A15.626,15.626,0,0,0,2425.352,857.05Z" transform="translate(-2309.944 -781.328)" fill="#ebc0af"/><path d="M2250.084,791.79a20.133,20.133,0,0,1,7.812,1.412c2.376.83,4.737,1.649,7.192.254.606-.344.677.245.807.573a11.246,11.246,0,0,1-.98,10.277c-.416.711-.8.743-1.185-.094-.614-1.339-1.479-2.395-3.152-2.367a2.585,2.585,0,0,0-1.652.5c-3.6,2.861-7.344,2.106-11.12.432a8.547,8.547,0,0,0-1.727-.775,2.1,2.1,0,0,0-2.34,1.23c-.478.872-.993,1.725-1.45,2.609-.39.754-.711.557-1.181.052-3.685-3.96-3.3-12.12,3.839-13.632A21.842,21.842,0,0,1,2250.084,791.79Z" transform="translate(-2227.226 -751.81)" fill="#55575c"/><path d="M2264.3,819.4a15.923,15.923,0,0,1,.445,8.7c-.853,3.779-3.774,5.9-7.4,7.023a3.162,3.162,0,0,1-1.211.05c-3.726-.374-7.8-4.788-7.882-8.521a3.845,3.845,0,0,0-.01-.812c-.637-2.56,1.3-4.034,2.451-5.833.382-.594.815-.1,1.184.027a16.983,16.983,0,0,0,8.392.977A12.281,12.281,0,0,0,2264.3,819.4Z" transform="translate(-2231.456 -764.375)" fill="#f3d2c4"/><path d="M2261.9,855.606l2.824-.831c.489,3.459-.312,5.553-2.356,6.219a4.358,4.358,0,0,1-5.361-2.171,6.07,6.07,0,0,1,2.449-2.058c.579-.284,1.331-.363,1.635-1.081l.538-.052C2261.733,855.759,2261.821,855.736,2261.9,855.606Z" transform="translate(-2235.499 -780.461)" fill="#f0cfc1"/><path d="M2260.6,855.593c-.3.718-1.056.8-1.635,1.081a6.066,6.066,0,0,0-2.449,2.058c-.974-1.206-.349-2.609-.588-4.157A11.878,11.878,0,0,0,2260.6,855.593Z" transform="translate(-2235.009 -780.37)" fill="#ebc0af"/><path d="M2265.754,856.3c-.078.13-.166.153-.27.026Z" transform="translate(-2239.354 -781.154)" fill="#ebc0af"/><path d="M2318.269,751.525c0-3.626-.064-7.253.013-10.878a14.764,14.764,0,0,1,12.411-13.929,14.967,14.967,0,0,1,17.281,15c0,7.162-.035,14.324.031,21.486.013,1.364-.374,1.5-1.531,1.095-1.449-.5-2.945-.888-4.437-1.259a1,1,0,0,1-.873-1.136c-.023-1.63.048-3.052,1.373-4.424a10.36,10.36,0,0,0,2.753-7.469c-.011-1.768.034-3.537-.019-5.3a7.861,7.861,0,0,0-2.184-5.276,17.551,17.551,0,0,1-3.64-4.855,1.984,1.984,0,0,0-3.546-.092c-2.322,5.69-7.467,6.96-12.572,8.328-2.08.557-2.584,1.04-2.542,3.159a41.625,41.625,0,0,0,.177,5.83,12.769,12.769,0,0,0,3.206,6.476,6.478,6.478,0,0,1,.661,4.228c-.186.4-.554.411-.9.505-1.352.371-2.7.765-4.055,1.125-1.588.422-1.626.391-1.628-1.191q-.007-5.712,0-11.423Z" transform="translate(-2263.344 -722.144)" fill="#54565b"/><path d="M2346.6,759.3a14,14,0,0,1-.074,3.623,7.914,7.914,0,0,1-15.651-1.565c-.073-2.868-.064-2.841,2.687-3.8,3.521-1.222,6.97-2.592,9.468-5.556.376-.447.543-.3.919.026C2346.158,753.969,2347.33,756.268,2346.6,759.3Z" transform="translate(-2269.08 -733.603)" fill="#f3d2c4"/><path d="M2344.484,791.322c1.976-.435,1.976-.435,1.882,2.164a3.183,3.183,0,0,1-2.559,3.349,3.908,3.908,0,0,1-4.556-1.63c.39-1.567,1.829-1.928,2.987-2.629C2342.973,792.131,2344.031,792.265,2344.484,791.322Z" transform="translate(-2272.896 -751.51)" fill="#f0cfc1"/><path d="M2344.126,791.21c-.453.943-1.511.809-2.247,1.254-1.158.7-2.6,1.062-2.987,2.629-.683-1.171-.327-2.457-.4-3.694-.041-.662.4-.574.817-.461A13.235,13.235,0,0,0,2344.126,791.21Z" transform="translate(-2272.538 -751.398)" fill="#ebc0af"/></g></g></g></svg>